<?xml version="1.0" encoding="UTF-8"?>
<svg version="1.1" xmlns="http://www.w3.org/2000/svg" width="512" height="512">
<path d="M0 0 C14.69341175 8.69369139 28.85958869 18.05553755 42.67431641 28.07910156 C43.47949707 28.65901855 44.28467773 29.23893555 45.11425781 29.83642578 C55.07037948 37.01584513 64.78475912 44.43088022 74.25634766 52.23925781 C74.84641602 52.71395508 75.43648437 53.18865234 76.04443359 53.67773438 C77.67431641 55.07910156 77.67431641 55.07910156 80.17822266 57.87988281 C84.68167941 61.61673027 91.08337205 60.97316033 96.65982056 61.13858032 C100.27783717 61.24938069 103.89154818 61.44390645 107.50634766 61.62988281 C108.57440895 61.68226357 108.57440895 61.68226357 109.66404724 61.73570251 C154.46176859 64.02739467 200.49367663 83.55454643 233.37353516 113.96972656 C235.44564281 115.86945174 237.57272772 117.66136537 239.73681641 119.45410156 C244.69689868 123.78544101 248.66151361 128.88149935 252.67431641 134.07910156 C253.35623047 134.95695313 254.03814453 135.83480469 254.74072266 136.73925781 C272.46266997 160.28759877 278.537533 186.6669277 275.00341797 215.96386719 C273.04929749 229.63691196 269.04028133 244.37362262 262.29541016 256.47363281 C260.31435746 259.82590029 260.31435746 259.82590029 261.39135742 262.45751953 C262.73925355 265.2117933 264.1274155 267.92944404 265.58056641 270.62988281 C282.74735823 302.88023484 303.82671388 343.23444089 292.89697266 380.74707031 C284.39387021 404.28570154 254.53526721 419.64725571 233.20605469 429.91796875 C213.42219316 438.99145433 191.31316208 445.08415042 169.45947266 445.31738281 C168.69506363 445.32722198 167.9306546 445.33706116 167.14308167 445.34719849 C132.89795509 445.69662751 102.17128328 439.86589211 70.67431641 426.07910156 C69.89813965 425.74185059 69.12196289 425.40459961 68.32226562 425.05712891 C41.53980996 413.27866218 16.70934225 397.03028897 -4.88037109 377.30175781 C-7.22720021 375.16861761 -9.61602945 373.09278083 -12.01318359 371.01660156 C-15.38853416 368.0117163 -18.42280692 364.89631122 -21.33349609 361.44238281 C-22.8676314 359.62247721 -24.42277244 357.83655217 -26.00537109 356.05957031 C-42.77173131 337.10134768 -56.19768018 315.44110892 -68.17285156 293.20849609 C-69.25089493 291.21724361 -70.34953823 289.2390475 -71.45458984 287.26269531 C-93.09930502 248.0886682 -107.81014349 204.91221478 -123.2333374 163.04290771 C-126.79335572 153.38369503 -130.36840719 143.7300788 -133.95068359 134.07910156 C-134.35067566 132.99989441 -134.75066772 131.92068726 -135.16278076 130.80877686 C-139.15966985 120.0351975 -143.18845328 109.28153195 -147.50146484 98.62988281 C-147.8254425 97.8292038 -148.14942017 97.02852478 -148.48321533 96.20358276 C-149.95736217 92.57246833 -151.44685557 88.9487822 -152.96289062 85.33496094 C-157.71336657 73.87981797 -161.77832422 61.57317412 -162.32568359 49.07910156 C-162.36564453 48.33015625 -162.40560547 47.58121094 -162.44677734 46.80957031 C-163.02979347 25.58092439 -155.86273454 4.92566083 -141.51318359 -10.73339844 C-99.26056723 -55.13152574 -45.02071186 -26.00374107 0 0 Z " fill="#145D01" transform="translate(189.32568359375,50.9208984375)"/>
<path d="M0 0 C1.24177002 0.43183594 2.48354004 0.86367188 3.76293945 1.30859375 C17.87465927 6.32734324 31.21542586 12.87186135 44.5 19.75 C45.36125488 20.19311523 46.22250977 20.63623047 47.10986328 21.09277344 C65.83673669 30.82682575 83.75629469 42.52629925 100.55273438 55.28710938 C102.83562669 57.00214081 105.14277826 58.68151862 107.453125 60.359375 C108.73920654 61.29595947 108.73920654 61.29595947 110.05126953 62.25146484 C111.72227813 63.4678678 113.3950323 64.68187776 115.06982422 65.89306641 C115.83311035 66.45171387 116.59639648 67.01036133 117.3828125 67.5859375 C118.39432373 68.32142822 118.39432373 68.32142822 119.42626953 69.07177734 C121.96866911 71.12928319 124.21940749 73.40883003 126.5 75.75 C125.39076172 75.72905273 124.28152344 75.70810547 123.13867188 75.68652344 C118.99394821 75.61371533 114.84928024 75.56805305 110.70410156 75.53027344 C108.91559316 75.51025041 107.12714946 75.48302346 105.33886719 75.44824219 C102.75699838 75.39931045 100.1760005 75.37693835 97.59375 75.359375 C96.80383667 75.33872986 96.01392334 75.31808472 95.20007324 75.29681396 C89.3702655 75.29449699 85.49535634 76.85147437 80.5 79.75 C79.78710815 80.08473328 79.07421631 80.41946655 78.33972168 80.76434326 C75.94483273 82.04743867 75.52747643 83.27223604 74.5 85.75 C74.14679688 86.40097656 73.79359375 87.05195312 73.4296875 87.72265625 C69.95019057 94.61721498 69.26029827 101.14688322 71.28369141 108.65991211 C72.38250648 111.71951297 73.59396118 114.69966533 74.875 117.6875 C75.55175781 119.31558594 75.55175781 119.31558594 76.2421875 120.9765625 C83.10943702 137.24812872 91.22381872 152.7321769 100.5 167.75 C101.02609863 168.60352051 101.55219727 169.45704102 102.09423828 170.33642578 C120.75877855 200.47025328 142.34030226 229.03946527 166.234375 255.23828125 C167.46320045 256.60058256 168.68601648 257.96890319 169.87402344 259.36694336 C175.13325473 265.52552575 180.80878531 271.24490428 186.53222656 276.9675293 C188.23794598 278.67543056 189.93549027 280.39118045 191.6328125 282.10742188 C198.28076665 288.7890558 205.10789149 294.89094917 212.5 300.75 C213.54074098 301.63519545 214.57609718 302.52683997 215.6015625 303.4296875 C231.34202179 317.12339977 251.18108937 331.41940645 272.66015625 331.03515625 C277.89784519 330.64619257 281.91615427 329.23688795 286.5 326.75 C288.046875 325.9146875 288.046875 325.9146875 289.625 325.0625 C297.92154655 318.38919081 303.60643978 309.48509819 309.5 300.75 C310.84989712 298.8095229 312.20362709 296.87170217 313.5625 294.9375 C314.13097656 294.12667969 314.69945312 293.31585938 315.28515625 292.48046875 C315.68605469 291.90941406 316.08695312 291.33835937 316.5 290.75 C333.42871171 305.56262275 345.16251018 345.71730754 346.68457031 367.37646484 C347.27740168 379.70437186 347.58325156 391.23519499 339.9375 401.5625 C332.69990252 409.20422729 322.38389193 412.75152498 312.125 413.125 C273.40006584 412.46794916 237.36968306 383.93189836 208.5 360.75 C207.57703125 360.01136719 206.6540625 359.27273438 205.703125 358.51171875 C193.13604454 348.34279417 181.12394636 337.5997118 169.37060547 326.50732422 C167.51794274 324.76685616 165.65388111 323.03960557 163.78515625 321.31640625 C157.07235982 315.11869192 150.47314109 308.82327627 144 302.375 C143.35361572 301.73320801 142.70723145 301.09141602 142.04125977 300.43017578 C138.23175382 296.60833495 134.6342597 292.65892074 131.10742188 288.57568359 C129.00761095 286.19075253 126.77610682 283.96620927 124.5 281.75 C120.99406958 278.28091869 117.67200737 274.74720673 114.46875 271 C112.422007 268.66086515 110.31547531 266.38886396 108.1940918 264.11767578 C103.12546166 258.69021156 98.29753496 253.15648047 93.64453125 247.36328125 C91.50125044 244.75152377 89.2761967 242.24634698 87 239.75 C83.20836246 235.57985132 79.61014823 231.29207025 76.06640625 226.91015625 C74.15576961 224.54762313 72.22155235 222.20607521 70.27734375 219.87109375 C63.24750731 211.41790557 56.42941756 202.84315108 49.79296875 194.078125 C46.93814203 190.31061232 44.03342022 186.58445101 41.11669922 182.86474609 C35.12323948 175.2167995 29.31605901 167.48091384 23.74511719 159.52050781 C22.4581865 157.69054285 21.15653615 155.87182315 19.8515625 154.0546875 C-58.47716481 44.64833132 -58.47716481 44.64833132 -56.0859375 12.44921875 C-54.48329407 5.06637466 -49.62205526 -0.06774202 -43.5 -4.25 C-30.7820942 -10.6089529 -12.42938968 -4.34636259 0 0 Z " fill="#D7E11A" transform="translate(124.5,35.25)"/>
<path d="M0 0 C1.32083336 0.00460739 1.32083336 0.00460739 2.66835022 0.00930786 C13.44639843 0.08186221 24.21521461 0.45750391 34.98510742 0.86181641 C38.48790233 0.99188333 41.99095498 1.11145105 45.49414062 1.23046875 C104.11444685 3.32618724 160.39977762 18.49948874 201.87109375 62.5546875 C222.21828478 85.87621875 229.54786876 109.53940332 227.87646484 140.26269531 C227.13199149 149.29014946 224.754587 157.67544259 221.55859375 166.1171875 C221.28595703 166.84244629 221.01332031 167.56770508 220.73242188 168.31494141 C218.90470877 173.03434209 216.81624425 177.5895312 214.55859375 182.1171875 C214.20893555 182.82214355 213.85927734 183.52709961 213.49902344 184.25341797 C208.79507325 193.63844325 203.67131827 202.56406624 197.55859375 211.1171875 C196.81480469 212.17035156 196.07101562 213.22351563 195.3046875 214.30859375 C184.0507466 229.82798771 184.0507466 229.82798771 173.7890625 231.59375 C163.41459111 232.09982178 156.24506947 228.22400772 147.55859375 223.1171875 C146.56730469 222.54355469 145.57601562 221.96992188 144.5546875 221.37890625 C126.38705016 210.29849861 110.54616811 195.45009767 95.64233398 180.40673828 C93.60396882 178.34990743 91.55750428 176.30140133 89.50976562 174.25390625 C88.18311839 172.92234844 86.85692977 171.59033351 85.53125 170.2578125 C84.9332106 169.65866028 84.3351712 169.05950806 83.7190094 168.44219971 C79.47899293 164.1551326 75.49070167 159.68687366 71.55859375 155.1171875 C70.58518064 153.99952491 69.61131631 152.8822549 68.63671875 151.765625 C61.68636424 143.74169759 55.01423419 135.54368767 48.55859375 127.1171875 C48.0898584 126.50681641 47.62112305 125.89644531 47.13818359 125.26757812 C30.27795749 103.24372948 14.86154283 80.33659626 1.57617188 55.97167969 C0.57031987 54.13855784 -0.45705432 52.31894233 -1.48828125 50.5 C-18.73861868 19.64540032 -18.73861868 19.64540032 -16.44140625 8.1171875 C-11.99266569 0.95813731 -8.14402852 -0.04968961 0 0 Z " fill="#CAB51A" transform="translate(223.44140625,122.8828125)"/>
<path d="M0 0 C14.69341175 8.69369139 28.85958869 18.05553755 42.67431641 28.07910156 C43.47949707 28.65901855 44.28467773 29.23893555 45.11425781 29.83642578 C55.07037948 37.01584513 64.78475912 44.43088022 74.25634766 52.23925781 C74.84641602 52.71395508 75.43648437 53.18865234 76.04443359 53.67773438 C77.67431641 55.07910156 77.67431641 55.07910156 80.17822266 57.87988281 C84.68167941 61.61673027 91.08337205 60.97316033 96.65982056 61.13858032 C100.27783717 61.24938069 103.89154818 61.44390645 107.50634766 61.62988281 C108.57440895 61.68226357 108.57440895 61.68226357 109.66404724 61.73570251 C154.46176859 64.02739467 200.49367663 83.55454643 233.37353516 113.96972656 C235.44564281 115.86945174 237.57272772 117.66136537 239.73681641 119.45410156 C244.69689868 123.78544101 248.66151361 128.88149935 252.67431641 134.07910156 C253.35623047 134.95695313 254.03814453 135.83480469 254.74072266 136.73925781 C272.46266997 160.28759877 278.537533 186.6669277 275.00341797 215.96386719 C273.04929749 229.63691196 269.04028133 244.37362262 262.29541016 256.47363281 C260.31435746 259.82590029 260.31435746 259.82590029 261.39135742 262.45751953 C262.73925355 265.2117933 264.1274155 267.92944404 265.58056641 270.62988281 C282.74735823 302.88023484 303.82671388 343.23444089 292.89697266 380.74707031 C284.39387021 404.28570154 254.53526721 419.64725571 233.20605469 429.91796875 C213.42219316 438.99145433 191.31316208 445.08415042 169.45947266 445.31738281 C168.69506363 445.32722198 167.9306546 445.33706116 167.14308167 445.34719849 C132.89795509 445.69662751 102.17128328 439.86589211 70.67431641 426.07910156 C69.89813965 425.74185059 69.12196289 425.40459961 68.32226562 425.05712891 C41.53980996 413.27866218 16.70934225 397.03028897 -4.88037109 377.30175781 C-7.22720021 375.16861761 -9.61602945 373.09278083 -12.01318359 371.01660156 C-15.38853416 368.0117163 -18.42280692 364.89631122 -21.33349609 361.44238281 C-22.8676314 359.62247721 -24.42277244 357.83655217 -26.00537109 356.05957031 C-42.77173131 337.10134768 -56.19768018 315.44110892 -68.17285156 293.20849609 C-69.25089493 291.21724361 -70.34953823 289.2390475 -71.45458984 287.26269531 C-93.09930502 248.0886682 -107.81014349 204.91221478 -123.2333374 163.04290771 C-126.79335572 153.38369503 -130.36840719 143.7300788 -133.95068359 134.07910156 C-134.35067566 132.99989441 -134.75066772 131.92068726 -135.16278076 130.80877686 C-139.15966985 120.0351975 -143.18845328 109.28153195 -147.50146484 98.62988281 C-147.8254425 97.8292038 -148.14942017 97.02852478 -148.48321533 96.20358276 C-149.95736217 92.57246833 -151.44685557 88.9487822 -152.96289062 85.33496094 C-157.71336657 73.87981797 -161.77832422 61.57317412 -162.32568359 49.07910156 C-162.36564453 48.33015625 -162.40560547 47.58121094 -162.44677734 46.80957031 C-163.02979347 25.58092439 -155.86273454 4.92566083 -141.51318359 -10.73339844 C-99.26056723 -55.13152574 -45.02071186 -26.00374107 0 0 Z M-115.84912109 -13.72167969 C-121.13649331 -7.27332362 -121.00663252 -0.99005807 -120.32568359 7.07910156 C-119.32948227 11.0120871 -117.82075379 14.58139497 -116.13818359 18.26660156 C-115.6925708 19.28415527 -115.24695801 20.30170898 -114.7878418 21.35009766 C-105.91278377 41.317075 -95.79518327 60.48886417 -84.32568359 79.07910156 C-83.8484082 79.85705078 -83.37113281 80.635 -82.87939453 81.43652344 C-70.14814306 102.12148934 -56.58210544 122.41458789 -42.32568359 142.07910156 C-41.78524414 142.82530762 -41.24480469 143.57151367 -40.68798828 144.34033203 C-32.6578913 155.39715788 -24.3980937 166.2593149 -15.95556641 177.00390625 C-14.40609091 178.97672556 -12.86123849 180.95306457 -11.31787109 182.93066406 C-3.55178836 192.86975776 4.41283793 202.62786518 12.58398438 212.23681641 C15.53412237 215.71151517 18.4309987 219.22367951 21.29931641 222.76660156 C24.92499988 227.22101269 28.69861293 231.50858758 32.56494141 235.75488281 C34.42058297 237.79952491 36.24188017 239.86694305 38.04931641 241.95410156 C41.45873043 245.86861396 44.96540058 249.69155424 48.48193359 253.50952148 C51.45145401 256.7356483 54.38488452 259.99041327 57.29931641 263.26660156 C60.84222317 267.22073857 64.52663486 270.98575508 68.33837891 274.68066406 C70.26337091 276.65716087 72.06051062 278.66516812 73.85791016 280.75488281 C78.06374416 285.5985791 82.56668549 290.11813132 87.11181641 294.64160156 C87.91941406 295.45306641 88.72701172 296.26453125 89.55908203 297.10058594 C93.88032883 301.4148686 98.26793243 305.57972779 102.91870117 309.5378418 C104.75221913 311.1474926 106.46638072 312.83746166 108.17431641 314.57910156 C111.83742328 318.2912679 115.7232698 321.67820068 119.67431641 325.07910156 C120.76871193 326.03669765 121.86240302 326.99509914 122.95556641 327.95410156 C137.63175443 340.80291198 152.68203412 352.89946366 168.67431641 364.07910156 C169.32255371 364.53414063 169.97079102 364.98917969 170.63867188 365.45800781 C188.97740272 378.25358154 208.86006753 389.66633906 230.67431641 395.07910156 C231.46064453 395.3046875 232.24697266 395.53027344 233.05712891 395.76269531 C245.10528122 398.98590949 256.21240916 397.4841134 267.14306641 391.79394531 C273.95245301 387.71966233 278.10389943 382.38699197 280.81494141 374.95019531 C281.89217793 370.09773444 282.01679393 365.53481497 281.98681641 360.57910156 C281.98117676 359.60295898 281.97553711 358.62681641 281.96972656 357.62109375 C281.48732414 328.62918579 267.39819801 299.47348318 252.67431641 275.07910156 C249.38334631 278.20803747 246.80037654 281.17757085 244.48681641 285.07910156 C235.91364712 298.88209089 227.50260344 309.80300589 211.67431641 315.07910156 C185.16155248 317.40478261 163.90853211 298.52688628 144.63037109 282.55761719 C136.21961849 275.49820041 128.33613208 268.02460076 120.61254883 260.22314453 C118.71904724 258.31115894 116.81743641 256.40752507 114.91455078 254.50488281 C108.95899201 248.53225023 103.10466314 242.53993656 97.67431641 236.07910156 C96.70189962 234.96057202 95.72796461 233.84336039 94.75244141 232.72753906 C88.36500934 225.35391067 82.19891328 217.84662881 76.24804688 210.11669922 C74.50556572 207.86061052 72.74770673 205.61688009 70.99072266 203.37207031 C3.15377764 116.13756641 3.15377764 116.13756641 5.13525391 81.61816406 C5.94951374 77.78288222 7.55019067 74.56474673 9.48291016 71.17285156 C10.80801086 69.0019196 10.80801086 69.0019196 11.67431641 66.07910156 C13.50671387 65.02288818 13.50671387 65.02288818 15.67431641 64.07910156 C16.27522095 63.7304303 16.87612549 63.38175903 17.49523926 63.02252197 C22.70628763 60.09872146 26.85495292 59.53393168 32.76806641 59.68847656 C34.0162616 59.69696625 34.0162616 59.69696625 35.28967285 59.70562744 C37.9185005 59.72781973 40.54590857 59.77798024 43.17431641 59.82910156 C44.9685674 59.84918888 46.76284 59.86743572 48.55712891 59.88378906 C52.93006243 59.92762774 57.30194969 59.99653217 61.67431641 60.07910156 C58.78651179 57.12319723 55.92257123 54.35627651 52.61962891 51.87207031 C51.46817383 51.00449097 51.46817383 51.00449097 50.29345703 50.11938477 C49.47039062 49.50796631 48.64732422 48.89654785 47.79931641 48.26660156 C46.92726562 47.61715576 46.05521484 46.96770996 45.15673828 46.29858398 C28.52886966 33.99119186 11.61887444 22.38352573 -6.32568359 12.07910156 C-7.0549707 11.65467773 -7.78425781 11.23025391 -8.53564453 10.79296875 C-26.46844162 0.37749629 -44.98002989 -8.72503563 -64.57568359 -15.54589844 C-66.34069214 -16.16658203 -66.34069214 -16.16658203 -68.14135742 -16.79980469 C-83.59352539 -21.99608961 -103.51076429 -27.32767589 -115.84912109 -13.72167969 Z M-134.32568359 2.07910156 C-137.52204341 5.69621362 -139.73262065 9.46029796 -141.88818359 13.76660156 C-142.46697266 14.90484375 -143.04576172 16.04308594 -143.64208984 17.21582031 C-147.54431808 25.76377293 -148.8302483 33.58374352 -148.70068359 42.95410156 C-148.69053223 44.01693359 -148.68038086 45.07976562 -148.66992188 46.17480469 C-148.46456602 56.53492785 -146.1905421 64.87153578 -142.56787109 74.52050781 C-142.30407654 75.22345474 -142.04028198 75.92640167 -141.76849365 76.65065002 C-139.61205824 82.37047326 -137.36444153 88.05116841 -135.09179688 93.72583008 C-128.93622179 109.09810517 -123.13687161 124.59011827 -117.45068359 140.14160156 C-117.0681543 141.18711182 -116.685625 142.23262207 -116.29150391 143.30981445 C-114.74999648 147.52303039 -113.20886472 151.73638357 -111.66815186 155.94989014 C-73.96871594 260.01848837 -73.96871594 260.01848837 -12.32568359 351.07910156 C-11.46072266 352.06652344 -10.59576172 353.05394531 -9.70458984 354.07128906 C-4.86866441 359.50342449 0.09445655 364.42758967 5.67431641 369.07910156 C6.60630859 369.89894531 7.53830078 370.71878906 8.49853516 371.56347656 C34.0250775 393.91827175 64.86584383 410.66149373 96.67431641 422.07910156 C98.42228516 422.70751953 98.42228516 422.70751953 100.20556641 423.34863281 C146.48164096 438.63191533 193.75702167 434.18321826 237.22900391 412.96191406 C240.70870421 411.4856697 240.70870421 411.4856697 241.67431641 409.07910156 C240.41619141 408.85996094 239.15806641 408.64082031 237.86181641 408.41503906 C210.4464125 403.42748228 186.46470523 390.90414137 163.67431641 375.07910156 C163.12807617 374.70027832 162.58183594 374.32145508 162.01904297 373.93115234 C149.40396878 365.14809584 137.41703375 355.66729817 125.74072266 345.67675781 C123.01660655 343.35257415 120.22761648 341.11986572 117.42431641 338.89160156 C110.19942876 333.01087906 103.54416895 326.51258806 96.80126953 320.09277344 C94.22052427 317.64947833 91.61140258 315.23825628 88.99951172 312.82836914 C82.77127956 307.07250291 76.68184324 301.1900609 70.67431641 295.20410156 C69.98015625 294.51453369 69.28599609 293.82496582 68.57080078 293.11450195 C64.6259545 289.15774491 60.88249964 285.0858809 57.23291016 280.85595703 C55.30768918 278.66113274 53.26933321 276.61158056 51.17431641 274.57910156 C47.84662178 271.29055628 44.72095199 267.91528532 41.67822266 264.36425781 C39.61750859 262.01432072 37.49957454 259.7287703 35.36645508 257.44482422 C30.31601436 252.03639152 25.51086704 246.52218536 20.87744141 240.74707031 C18.60503823 237.99520618 16.2273681 235.38172013 13.79931641 232.76660156 C9.55561847 228.15559747 5.67484637 223.3577892 1.84619141 218.40527344 C-1.23464699 214.4312508 -4.41903361 210.57580794 -7.70068359 206.76660156 C-13.03585802 200.54541051 -17.99380285 194.06519123 -22.93896484 187.53222656 C-25.77562043 183.78734714 -28.66142523 180.08381319 -31.56274414 176.38891602 C-39.08255669 166.80300346 -46.2844659 157.02086204 -53.32568359 147.07910156 C-54.18444092 145.86818848 -54.18444092 145.86818848 -55.06054688 144.6328125 C-126.0885508 44.29570952 -126.0885508 44.29570952 -132.57568359 6.45410156 C-132.72521484 5.61621094 -132.87474609 4.77832031 -133.02880859 3.91503906 C-133.12677734 3.30917969 -133.22474609 2.70332031 -133.32568359 2.07910156 C-133.65568359 2.07910156 -133.98568359 2.07910156 -134.32568359 2.07910156 Z M18.67431641 78.07910156 C16.52398954 82.3797553 17.44347184 87.2417242 18.67041016 91.69238281 C31.05906078 123.48656204 48.68923496 152.51347198 68.67431641 180.07910156 C69.49802734 181.22378906 69.49802734 181.22378906 70.33837891 182.39160156 C78.69444633 193.9908915 87.44542485 205.16312097 96.67431641 216.07910156 C97.19767578 216.70155762 97.72103516 217.32401367 98.26025391 217.96533203 C108.99584734 230.72066115 120.29625236 242.88808473 132.08374023 254.67382812 C133.74509349 256.33738965 135.3982233 258.0088526 137.05126953 259.68066406 C143.60167373 266.26583113 150.35357248 272.3424367 157.67431641 278.07910156 C158.39804443 278.66208008 159.12177246 279.24505859 159.86743164 279.84570312 C182.75934547 298.31955495 182.75934547 298.31955495 210.67431641 303.07910156 C223.34016556 300.0470392 231.30034001 284.43364396 237.67431641 274.07910156 C240.84799296 268.83745007 243.82493993 263.50340299 246.67431641 258.07910156 C247.02768066 257.4065332 247.38104492 256.73396484 247.74511719 256.04101562 C260.70450917 230.95947896 267.68394672 199.10521193 258.99853516 171.40332031 C243.84491709 133.36282187 209.54010233 106.95990251 172.88964844 91.01269531 C145.0160068 79.26607799 117.43804353 74.65023342 87.29541016 73.54394531 C86.16265152 73.50096817 85.02989288 73.45799103 83.86280823 73.41371155 C81.48223662 73.32422561 79.10161502 73.23606033 76.72094727 73.14916992 C73.14466586 73.01780817 69.56868496 72.87976253 65.99267578 72.74121094 C60.28105184 72.52375014 54.56909217 72.3426142 48.85565186 72.18035889 C45.8183482 72.08368589 42.7846237 71.9492546 39.74902344 71.81005859 C37.96506189 71.75343571 36.1810465 71.69847455 34.39697266 71.64550781 C33.60729599 71.59877426 32.81761932 71.55204071 32.00401306 71.50389099 C25.93240763 71.38525104 22.66724727 73.57184268 18.67431641 78.07910156 Z " fill="#010200" transform="translate(189.32568359375,50.9208984375)"/>
</svg>
