<?xml version="1.0" encoding="UTF-8"?>
<svg version="1.1" xmlns="http://www.w3.org/2000/svg" width="512" height="512">
<path d="M0 0 C1.59643555 1.67382813 1.59643555 1.67382813 3.13671875 4.03125 C3.7095459 4.89661377 4.28237305 5.76197754 4.87255859 6.65356445 C5.77095459 8.06255005 5.77095459 8.06255005 6.6875 9.5 C7.30963379 10.45672607 7.93176758 11.41345215 8.57275391 12.39916992 C13.73515573 20.41299944 18.5756372 28.55719895 23 37 C23.34224609 37.65274902 23.68449219 38.30549805 24.03710938 38.97802734 C26.44559235 43.61085506 28.75344944 48.28669477 31 53 C31.29616211 53.61746094 31.59232422 54.23492187 31.89746094 54.87109375 C50.39900584 93.89553405 59.06824814 139.21080998 45 181 C38.49784956 198.77751276 28.61569995 213.99321526 16 228 C19.90787015 229.47572948 23.81446312 230.93455047 27.75390625 232.32421875 C41.80287708 237.30762727 54.23277107 243.80150088 66 253 C65.39036329 257.47066918 63.6286013 261.08278585 61.5 265 C61.14542725 265.65572998 60.79085449 266.31145996 60.42553711 266.98706055 C53.36934171 279.77766786 44.48030495 290.84720458 34 301 C33.67 301.33 33.34 301.66 33 302 C33.65371582 302.26103516 34.30743164 302.52207031 34.98095703 302.79101562 C75.70124983 319.14500696 104.02311926 342.65560463 121.81933594 383.18994141 C129.82417868 402.24199682 134.01155678 423.48877587 136 444 C136.08612549 444.87567627 136.17225098 445.75135254 136.26098633 446.65356445 C137.04893122 455.55250042 137.18618578 464.41048983 137.18530273 473.3371582 C137.18748759 475.79851642 137.20571609 478.25942368 137.22460938 480.72070312 C137.25958231 490.96700305 136.54479807 500.87085097 135 511 C128.04498906 511.81436091 121.18366589 512.17042051 114.18359375 512.203125 C113.1773143 512.21013931 112.17103485 512.21715363 111.13426208 512.22438049 C107.90196212 512.24180189 104.6698452 512.24823323 101.4375 512.25 C100.33496887 512.25067474 99.23243774 512.25134949 98.09649658 512.25204468 C82.19353215 512.23655205 66.67545351 511.93193313 51 509 C50.05769531 508.83371094 49.11539062 508.66742188 48.14453125 508.49609375 C16.08692758 502.71802099 -13.16810607 490.51221251 -37 468 C-37.75023437 467.31421875 -38.50046875 466.6284375 -39.2734375 465.921875 C-55.82096943 450.24526581 -65.38203475 429.11336727 -73 408 C-73.51433594 408.67482422 -73.51433594 408.67482422 -74.0390625 409.36328125 C-84.99304468 422.82642684 -102.81231008 435.09334673 -119 441 C-121.79515981 440.87248359 -122.67713009 440.33936691 -124.60546875 438.3125 C-132.91585097 426.16497833 -139.24505402 413.48935301 -143.80859375 399.51171875 C-144.72268189 396.81740649 -145.69853545 394.50371431 -147 392 C-147.43119141 392.34667725 -147.86238281 392.69335449 -148.30664062 393.05053711 C-158.38121961 401.09450864 -168.46464942 408.21797012 -180 414 C-180.63196289 414.32194336 -181.26392578 414.64388672 -181.91503906 414.97558594 C-217.51812296 432.80450084 -257.99852497 429.00171293 -294.76611328 417.10498047 C-322.58448929 407.84853971 -348.17844654 393.99798827 -372 377 C-372.99 376.34 -373.98 375.68 -375 375 C-370.0565006 346.30504707 -344.277665 315.29303395 -325.14453125 294.3671875 C-323.25461926 292.28105514 -321.43688253 290.15350239 -319.625 288 C-302.74280485 268.76663155 -278.87062885 253.57529721 -254.4375 246.25 C-253.44786255 245.95186401 -253.44786255 245.95186401 -252.43823242 245.64770508 C-241.67172504 242.5886061 -231.01967546 241.64969793 -219.87451172 241.68432617 C-217.76606936 241.68747599 -215.65905061 241.66396325 -213.55078125 241.63867188 C-203.73568422 241.59544299 -194.5739979 242.87788691 -185 245 C-185.28665527 244.01386719 -185.57331055 243.02773437 -185.86865234 242.01171875 C-190.97471901 224.19375103 -193.86780409 203.37980504 -190 185 C-171.13373759 180.73532732 -148.16849036 183.65089281 -130 190 C-130.21148682 189.04005127 -130.42297363 188.08010254 -130.64086914 187.09106445 C-132.75021787 177.04683109 -133.52758038 167.43609873 -133.4375 157.1875 C-133.43293793 156.0778891 -133.43293793 156.0778891 -133.42828369 154.94586182 C-133.35749607 143.26716212 -132.57888077 132.18059784 -129 121 C-128.78569336 120.31921387 -128.57138672 119.63842773 -128.35058594 118.93701172 C-117.89760402 86.74882651 -95.69599995 59.4145882 -69 39 C-68.45150391 38.58041016 -67.90300781 38.16082031 -67.33789062 37.72851562 C-17.7125 0 -17.7125 0 0 0 Z " fill="#4EC022" transform="translate(375,0)"/>
<path d="M0 0 C3.59144757 0.50038146 6.15498493 2.21738121 9.1875 4.125 C29.74025149 16.3164616 55.02663126 24.22325186 78.8125 18.4375 C87.27464519 15.87706551 95.8756987 12.21185931 102.3125 6 C105 4 105 4 108.5390625 4.125 C113.70554758 4.9327586 118.3017883 6.90096092 123.0625 9 C123.98426025 9.40299316 124.90602051 9.80598633 125.85571289 10.22119141 C159.47513852 25.24953937 183.29195839 50.9494103 197.22460938 84.9921875 C204.53206749 104.1601155 209.0211691 124.58792912 211 145 C211.08612549 145.87567627 211.17225098 146.75135254 211.26098633 147.65356445 C212.04893122 156.55250042 212.18618578 165.41048983 212.18530273 174.3371582 C212.18748759 176.79851642 212.20571609 179.25942368 212.22460938 181.72070312 C212.25958231 191.96700305 211.54479807 201.87085097 210 212 C203.04498906 212.81436091 196.18366589 213.17042051 189.18359375 213.203125 C187.67417458 213.21364647 187.67417458 213.21364647 186.13426208 213.22438049 C182.90196212 213.24180189 179.6698452 213.24823323 176.4375 213.25 C175.33496887 213.25067474 174.23243774 213.25134949 173.09649658 213.25204468 C157.19353215 213.23655205 141.67545351 212.93193313 126 210 C125.05769531 209.83371094 124.11539063 209.66742188 123.14453125 209.49609375 C91.08692758 203.71802099 61.83189393 191.51221251 38 169 C37.24976563 168.31421875 36.49953125 167.6284375 35.7265625 166.921875 C21.71901619 153.65156796 12.27454911 136.01151864 5.3125 118.1875 C5.05629883 117.54828613 4.80009766 116.90907227 4.53613281 116.25048828 C3.01883846 112.11811838 2.7412771 109.22281232 4 105 C5.453125 102.61328125 5.453125 102.61328125 7.25 100.3125 C18.05524817 85.49956757 20.6277611 69.09259831 18.56640625 51.24609375 C15.97034555 36.29858896 10.1473402 22.24729922 2.69921875 9.1015625 C1.2392094 6.43662588 0.04989028 3.84589548 -1 1 C-0.67 0.67 -0.34 0.34 0 0 Z " fill="#4EC022" transform="translate(300,299)"/>
<path d="M0 0 C2.27428104 0.05426068 4.54929159 0.09009929 6.82421875 0.08789062 C12.01223399 0.10965575 16.20955427 0.42207908 20.80664062 3.09082031 C24.24738104 7.34294905 26.36420812 12.29063887 28.55664062 17.26269531 C33.24694122 27.84867096 41.76428767 34.68863315 51.80664062 40.09082031 C52.75796875 40.61289062 53.70929688 41.13496094 54.68945312 41.67285156 C73.31566329 51.08123138 93.35169247 52.1813802 113.80664062 53.09082031 C113.80664062 54.08082031 113.80664062 55.07082031 113.80664062 56.09082031 C112.94683594 56.55230469 112.08703125 57.01378906 111.20117188 57.48925781 C102.40914783 62.30337051 94.55487791 67.74299003 86.80664062 74.09082031 C85.99453125 74.73664063 85.18242187 75.38246094 84.34570312 76.04785156 C70.16284304 87.86690163 59.99891475 104.6676726 57.80664062 123.09082031 C57.27321915 132.14629313 57.27321915 132.14629313 58.56835938 141.05957031 C59.3468404 144.19149397 59.64230695 145.95364674 58.80664062 149.09082031 C54.80708834 154.12038524 49.12362995 157.60727558 43.80664062 161.09082031 C42.85966309 161.72165527 42.85966309 161.72165527 41.89355469 162.36523438 C9.34511681 183.75718687 -27.0744236 189.62391256 -65.19335938 182.09082031 C-102.25853539 173.97623188 -136.44286601 157.03298821 -167.19335938 135.09082031 C-168.18335938 134.43082031 -169.17335937 133.77082031 -170.19335938 133.09082031 C-165.24985997 104.39586738 -139.47102437 73.38385426 -120.33789062 52.45800781 C-118.44797863 50.37187545 -116.63024191 48.2443227 -114.81835938 46.09082031 C-97.93616422 26.85745186 -74.06398823 11.66611752 -49.63085938 4.34082031 C-48.97110107 4.14206299 -48.31134277 3.94330566 -47.6315918 3.73852539 C-31.9369037 -0.72082272 -16.1463565 -0.41713574 0 0 Z " fill="#4FC023" transform="translate(170.193359375,241.9091796875)"/>
<path d="M0 0 C0.93199219 0.19335938 1.86398438 0.38671875 2.82421875 0.5859375 C13.73673161 3.36366805 25.61950849 9.49366407 34 17 C34.66128906 17.58136719 35.32257813 18.16273438 36.00390625 18.76171875 C51.91441311 33.6457413 58.6859125 56.76531935 60 78 C60.1947488 84.33426648 60.12274421 90.66503502 60 97 C60.99 97 61.98 97 63 97 C63.41572266 95.90365234 63.41572266 95.90365234 63.83984375 94.78515625 C72.82028217 73.2260566 91.84414942 53.70133259 113 44 C134.53824628 35.67468439 157.42097914 40.33504055 178.05761719 49.13183594 C188.16956148 53.65145307 197.27076208 59.17631298 206 66 C205.39036329 70.47066918 203.6286013 74.08278585 201.5 78 C201.14542725 78.65572998 200.79085449 79.31145996 200.42553711 79.98706055 C194.52963648 90.67442752 187.44166657 100.17537814 179 109 C177.7934375 110.299375 177.7934375 110.299375 176.5625 111.625 C161.13350118 125.92504769 143.90346631 134.02701725 122.65234375 133.34765625 C105.53981909 132.35319793 88.81044376 125.65951691 74.22631836 116.98364258 C71.15780057 115.15989715 68.48745303 113.74737924 65 113 C66.27502405 116.45615657 67.85055939 119.60370125 69.6652832 122.80664062 C81.34555539 143.58396742 89.11464207 167.96473236 83.4375 191.75 C75.3359129 218.45418606 54.47127353 236.18761439 30.87109375 249.3515625 C22.04932678 254.03942015 22.04932678 254.03942015 18.81640625 253.91796875 C8.11609539 248.51028477 0.60137182 226.16425024 -3.1003418 215.31079102 C-9.3474072 195.86626797 -10.75404743 175.63340496 -1.8125 156.75 C1.47425356 150.5455563 5.41353324 145.28625756 10 140 C10.66386719 139.15179688 11.32773438 138.30359375 12.01171875 137.4296875 C14.96721151 133.81806374 18.42993453 130.98643737 22 128 C22.73089844 127.36964844 23.46179688 126.73929688 24.21484375 126.08984375 C29.21106805 121.9083116 34.43045737 118.3570028 40 115 C40.98915405 114.40276123 40.98915405 114.40276123 41.99829102 113.79345703 C46.73853477 111 46.73853477 111 49 111 C49 110.01 49 109.02 49 108 C47.82824219 108.01160156 46.65648437 108.02320313 45.44921875 108.03515625 C19.78000628 108.22410181 -7.60598269 104.57555419 -27 86 C-27.69222656 85.34773438 -28.38445312 84.69546875 -29.09765625 84.0234375 C-35.32241165 77.61877588 -39.17263583 69.97573308 -43 62 C-43.63615234 60.68322266 -43.63615234 60.68322266 -44.28515625 59.33984375 C-50.31310595 45.6107872 -51.18301971 30.04502664 -51.125 15.25 C-51.12886719 14.24839844 -51.13273438 13.24679688 -51.13671875 12.21484375 C-51.13029605 7.36570876 -51.02118736 2.765541 -50 -2 C-34.09348032 -5.59563004 -15.79799078 -3.42908593 0 0 Z " fill="#96D97A" transform="translate(235,187)"/>
<path d="M0 0 C0.93199219 0.19335938 1.86398438 0.38671875 2.82421875 0.5859375 C13.73673161 3.36366805 25.61950849 9.49366407 34 17 C34.66128906 17.58136719 35.32257813 18.16273438 36.00390625 18.76171875 C51.91441311 33.6457413 58.6859125 56.76531935 60 78 C60.1947488 84.33426648 60.12274421 90.66503502 60 97 C54.26698172 92.23621923 48.99451542 87.12510515 43.7421875 81.83984375 C42.8761087 80.97235001 42.01002991 80.10485626 41.1177063 79.21107483 C38.36776557 76.45557043 35.62132895 73.69660369 32.875 70.9375 C31.02236763 69.07984651 29.16950529 67.22242234 27.31640625 65.36523438 C23.91898443 61.95966916 20.52286406 58.55281831 17.12841797 55.14428711 C16.4053949 54.42232147 15.68237183 53.70035583 14.93743896 52.95651245 C13.76187487 51.76937529 12.59872496 50.56952643 11.45953369 49.34744263 C8.92411054 46.64477977 8.22800011 46.03144829 4.375 45.5 C1.13428144 45.7805513 1.13428144 45.7805513 -0.9375 47.0625 C-2.62678462 50.1429602 -2.33365142 52.54257824 -2 56 C-0.09950302 58.90201369 -0.09950302 58.90201369 2.68164062 61.46044922 C3.17907272 61.95729721 3.67650482 62.4541452 4.18901062 62.96604919 C5.82885958 64.59596341 7.49193138 66.19980035 9.15625 67.8046875 C10.30127451 68.93410819 11.44468633 70.065166 12.58654785 71.19778442 C15.589895 74.16880123 18.61322203 77.11861918 21.6416626 80.06402588 C25.32784847 83.65626226 28.99111371 87.27183935 32.65666962 90.88510323 C35.50621837 93.69345223 38.3594265 96.49771631 41.22424316 99.29049683 C41.74786942 99.80255173 42.27149567 100.31460663 42.81098938 100.84217834 C44.22703253 102.22662869 45.64535973 103.60874177 47.06384277 104.99069214 C49 107 49 107 49 108 C22.11626348 108.26617561 -6.54281526 105.59385401 -27 86 C-27.69222656 85.34773438 -28.38445312 84.69546875 -29.09765625 84.0234375 C-35.32241165 77.61877588 -39.17263583 69.97573308 -43 62 C-43.63615234 60.68322266 -43.63615234 60.68322266 -44.28515625 59.33984375 C-50.31310595 45.6107872 -51.18301971 30.04502664 -51.125 15.25 C-51.12886719 14.24839844 -51.13273438 13.24679688 -51.13671875 12.21484375 C-51.13029605 7.36570876 -51.02118736 2.765541 -50 -2 C-34.09348032 -5.59563004 -15.79799078 -3.42908593 0 0 Z " fill="#96D97A" transform="translate(235,187)"/>
<path d="M0 0 C1.52833679 1.15681969 3.05236398 2.31951945 4.5625 3.5 C3.95286329 7.97066918 2.1911013 11.58278585 0.0625 15.5 C-0.29207275 16.15572998 -0.64664551 16.81145996 -1.01196289 17.48706055 C-6.90786352 28.17442752 -13.99583343 37.67537814 -22.4375 46.5 C-23.241875 47.36625 -24.04625 48.2325 -24.875 49.125 C-40.30399882 63.42504769 -57.53403369 71.52701725 -78.78515625 70.84765625 C-95.10686462 69.89915456 -111.19349822 63.64550048 -125.375 55.8125 C-126.06795166 55.43198486 -126.76090332 55.05146973 -127.47485352 54.65942383 C-132.31170218 51.87739346 -132.31170218 51.87739346 -133.4375 48.5 C-132.82044189 48.34966309 -132.20338379 48.19932617 -131.56762695 48.04443359 C-119.68410743 45.1386215 -107.85917447 42.1204478 -96.11694336 38.68554688 C-90.04987607 36.92352486 -83.95212652 35.36252141 -77.8125 33.875 C-67.37255903 31.43057837 -67.37255903 31.43057837 -57.4375 27.5 C-55.91258002 24.45016004 -56.20187452 21.8576631 -56.4375 18.5 C-57.35416667 16.41666667 -57.35416667 16.41666667 -59.4375 15.5 C-65.41327436 15.04565633 -70.24820065 16.38452732 -75.875 18.125 C-83.74892863 20.47142373 -91.644656 22.60826029 -99.625 24.5625 C-107.61396912 26.52387135 -115.56139411 28.57802024 -123.4675293 30.85180664 C-128.41882702 32.26499332 -133.40137983 33.42901283 -138.4375 34.5 C-129.89688539 11.97661171 -110.24146835 -8.50146328 -88.4375 -18.5 C-58.93338442 -29.90441384 -24.48206533 -17.71975572 0 0 Z " fill="#96D97A" transform="translate(436.4375,249.5)"/>
<path d="M0 0 C3.7767989 0.50473349 6.65568783 2.43358273 9.875 4.375 C12.87288626 6.17679865 15.71405255 7.88091844 18.9453125 9.2265625 C21.80820696 10.88865212 23.02833953 12.0249618 25.08764648 14.50146484 C29.36873018 19.49870219 33.98743996 24.11306997 38.65234375 28.75 C39.55247696 29.64871826 40.45261017 30.54743652 41.38002014 31.47338867 C43.74711263 33.83586575 46.11634639 36.19615112 48.48669434 38.55535889 C50.91550742 40.97385181 53.34141103 43.39525946 55.76757812 45.81640625 C60.50907369 50.54692954 65.25341898 55.27457973 70 60 C70.81984375 59.65066406 71.6396875 59.30132812 72.484375 58.94140625 C73.56203125 58.48636719 74.6396875 58.03132813 75.75 57.5625 C76.81734375 57.11003906 77.8846875 56.65757812 78.984375 56.19140625 C91.01650829 51.43777846 105.70916164 52.87992492 117.54296875 57.45703125 C129.49800471 62.79289476 141.15797365 69.17729395 149 80 C149.5625 82.5 149.5625 82.5 149 85 C146.619792 88.1502753 145.19021109 89.80331257 141.234375 90.45703125 C136.91780121 89.84708061 134.54382266 87.65554795 131.375 84.875 C121.229377 76.45892824 108.91718266 69.29943834 95.31640625 69.76171875 C91.14310447 70.19101286 87.08526158 71.06902658 83 72 C87.56147547 77.47313966 92.40741321 82.53954809 97.4609375 87.55859375 C98.25150543 88.34774673 99.04207336 89.13689972 99.8565979 89.94996643 C102.36037626 92.44818661 104.86762475 94.94289044 107.375 97.4375 C109.08226248 99.13974208 110.78929609 100.84221373 112.49609375 102.54492188 C116.66141898 106.69927363 120.82959219 110.85075081 125 115 C126.08265137 114.67765381 127.16530273 114.35530762 128.28076172 114.02319336 C139.32480038 110.98488654 149.98287722 112.7061828 160 118 C164.87543326 121.13369722 170.17128875 124.85688863 173 130 C173 133.8137751 172.84985071 136.02424548 170.3125 138.9375 C167.05244616 140.43536257 165.58459819 140.67633928 162 140 C159.70654023 138.38885551 157.59338946 136.61935872 155.44140625 134.82421875 C150.49185124 131.12591124 145.16753522 129 139 129 C139.6731852 129.65319969 139.6731852 129.65319969 140.35997009 130.31959534 C145.03344979 134.8602009 149.68556629 139.42189691 154.32592773 143.99633789 C156.05980838 145.70006973 157.7990392 147.39837462 159.54370117 149.09106445 C162.05257162 151.52704832 164.54146758 153.98198843 167.02734375 156.44140625 C167.80963852 157.19273331 168.59193329 157.94406036 169.39793396 158.71815491 C175.36164738 164.67811811 175.36164738 164.67811811 176.09204102 168.85131836 C176 172 176 172 174.5 174.9375 C172 177 172 177 168.75 177.75 C158.48395948 175.6967919 149.21392732 162.3229518 142 155.0625 C140.63955682 153.69703255 139.27888169 152.33179614 137.91796875 150.96679688 C134.6092969 147.64719114 131.30378678 144.32446727 128 141 C128.13881592 142.26239502 128.27763184 143.52479004 128.4206543 144.82543945 C128.49873825 145.53553665 128.5768222 146.24563385 128.65727234 146.97724915 C129.13413712 149.79166639 130.2749517 151.80138074 131.8125 154.1875 C132.34746094 155.03183594 132.88242187 155.87617188 133.43359375 156.74609375 C135.04660511 159.15108309 135.04660511 159.15108309 137.375 161.75 C139 164 139 164 139.5 167.0625 C139 170 139 170 137.4375 172.375 C134.05010319 174.63326454 131.9982841 174.56116268 128 174 C120.83051021 170.05678062 115.45034262 160.5665178 112.6484375 153.046875 C111.06688536 145.61548541 110.83303235 136.52582199 112.73721313 129.1408844 C113.31611227 126.00003878 113.31611227 126.00003878 111.57719421 123.72868347 C110.85264542 123.01666275 110.12809662 122.30464203 109.3815918 121.57104492 C108.56712082 120.75387497 107.75264984 119.93670502 106.91349792 119.09477234 C106.0177858 118.23205215 105.12207367 117.36933197 104.19921875 116.48046875 C103.29250931 115.58129227 102.38579987 114.68211578 101.45161438 113.75569153 C99.03962279 111.37075597 96.61338172 109.00240162 94.17919922 106.64025879 C92.19369386 104.70658454 90.22315897 102.75804288 88.2532835 100.80846691 C84.18646395 96.78394998 80.10797462 92.77127259 76.0065918 88.78198242 C75.27965622 88.07393967 74.55272064 87.36589691 73.80375671 86.63639832 C72.08703632 84.93111953 72.08703632 84.93111953 70 84 C67.29637223 98.57321308 69.17812785 111.78828779 77.13671875 124.39453125 C78.58620568 126.42138194 80.06631957 128.33850006 81.64453125 130.26171875 C82.10456543 130.82955078 82.56459961 131.39738281 83.03857422 131.98242188 C83.95154245 133.09519153 84.88361688 134.19263199 85.83642578 135.27148438 C88.36874554 138.33221294 89.00781 139.74011553 88.88671875 143.76953125 C88 147 88 147 86.375 149 C82.67778616 150.55672162 80.83792228 150.21534206 77 149 C64.93771175 140.38407982 57.14324034 123.57632418 53.359375 109.640625 C51.87006525 98.69743594 51.47696142 85.78630466 57.1640625 75.99609375 C58.21634572 73.48339877 57.87778485 72.54141034 57 70 C55.10926961 67.85299592 53.21671641 65.86817543 51.171875 63.87890625 C50.29284515 63.00624367 50.29284515 63.00624367 49.39605713 62.11595154 C47.52096944 60.25763407 45.63574734 58.40999347 43.75 56.5625 C42.49540611 55.32296123 41.24149197 54.08273405 39.98828125 52.84179688 C37.67313852 50.55111312 35.35407621 48.26456294 33.03027344 45.98266602 C30.33767817 43.33749119 27.66767168 40.67031789 25 38 C24.40574219 37.42894531 23.81148438 36.85789062 23.19921875 36.26953125 C21.76195416 34.88426073 20.37907116 33.443214 19 32 C19 31.34 19 30.68 19 30 C18.39671875 29.72542969 17.7934375 29.45085937 17.171875 29.16796875 C8.09933861 24.28903281 2.44707937 10.18048689 -1 1 C-0.67 0.67 -0.34 0.34 0 0 Z " fill="#47A920" transform="translate(300,299)"/>
<path d="M0 0 C0.89332031 0.48210937 1.78664063 0.96421875 2.70703125 1.4609375 C10.08228645 5.75896584 16.1287847 11.2575694 20 19 C27.86980669 17.58452705 35.49729016 15.54877719 43.1875 13.375 C45.7640132 12.66291169 48.34081939 11.95196213 50.91796875 11.2421875 C54.96168818 10.1272269 59.00218194 9.00314872 63.03369141 7.84472656 C79.12280407 3.22736243 94.10735457 -0.35593141 111 1 C111 1.99 111 2.98 111 4 C110.0821875 4.50789063 109.164375 5.01578125 108.21875 5.5390625 C106.97899833 6.2340748 105.73942459 6.92940457 104.5 7.625 C103.89929688 7.95628906 103.29859375 8.28757812 102.6796875 8.62890625 C98.85442232 10.76838109 98.85442232 10.76838109 95.39208984 13.43432617 C88.44564075 19.61125845 79.41775449 20.93105197 70.625 23.0625 C68.98263199 23.47284862 67.34070025 23.88494752 65.69921875 24.29882812 C63.24592541 24.91722579 60.79240384 25.53432634 58.3369751 26.14419556 C51.89367972 27.74943978 45.4937726 29.4885973 39.10488892 31.29762268 C34.42282951 32.62122035 29.72536133 33.83969293 25 35 C24.85304687 36.23363281 24.85304687 36.23363281 24.703125 37.4921875 C22.48154059 54.07746424 15.52024266 67.89541088 2.125 78.21484375 C-6.90491678 84.8423183 -19.17695997 93.3977817 -30.6875 92.8125 C-34 92 -34 92 -35.9375 90.9375 C-37.63965434 87.8335715 -37.70848006 84.44515796 -37 81 C-34.58308972 77.3835861 -30.42781298 76.57354181 -26.5 75.25 C-12.0880978 70.09222689 -1.45205884 62.31962978 5.87109375 48.7109375 C7.08334827 45.7998488 7.60205494 43.11952334 8 40 C-8.52224464 43.99763465 -8.52224464 43.99763465 -24.875 48.625 C-33.47417269 51.25129643 -42.20394478 53.15848668 -51 55 C-51.17789063 56.57394531 -51.17789063 56.57394531 -51.359375 58.1796875 C-52.6243994 65.7235525 -56.18707316 72.01749128 -62 77 C-62.46664062 77.46792969 -62.93328125 77.93585938 -63.4140625 78.41796875 C-69.01147032 83.78100235 -76.72825917 88.38510021 -84.51171875 89.29296875 C-87.60548282 89.04706883 -89.62940228 88.31269183 -92 86.3125 C-93.35645458 83.17569879 -93.62187937 81.38578768 -93 78 C-89.24056146 73.95137388 -85.21792888 72.08140946 -80.1796875 69.9609375 C-74.92161455 67.64286233 -71.58265816 65.16531632 -69 60 C-69.57613037 60.17523193 -70.15226074 60.35046387 -70.74584961 60.53100586 C-77.66263916 62.62184198 -84.60546849 64.61016466 -91.5625 66.5625 C-93.1702832 67.01786133 -93.1702832 67.01786133 -94.81054688 67.48242188 C-113.88989338 72.83864209 -113.88989338 72.83864209 -120 72 C-122.5 69.9375 -122.5 69.9375 -124 67 C-124 63.375 -124 63.375 -123 60 C-119.80844803 56.91223445 -116.28493141 56.0109678 -112.06640625 54.84375 C-111.39262436 54.65534546 -110.71884247 54.46694092 -110.02464294 54.27282715 C-108.59771741 53.87555992 -107.16962633 53.48245863 -105.74047852 53.09326172 C-103.59851995 52.50981151 -101.46020758 51.91438701 -99.32226562 51.31640625 C-90.92759556 48.98461433 -82.5100628 46.87417987 -74 45 C-76.65561478 42.34438522 -78.61482669 42.02990317 -82.31835938 41.94995117 C-83.15173828 41.98064697 -83.98511719 42.01134277 -84.84375 42.04296875 C-85.76027344 42.06423828 -86.67679688 42.08550781 -87.62109375 42.10742188 C-89.54072601 42.16081734 -91.46006806 42.22592878 -93.37890625 42.30273438 C-100.36264389 42.43533699 -100.36264389 42.43533699 -103.625 40.20703125 C-105.64856467 36.95898001 -105.53488687 34.74420808 -105 31 C-102.17099945 26.81307919 -98.76089913 26.15104043 -94 25 C-81.54444066 23.81898776 -70.48723493 25.53615577 -60.62109375 33.53515625 C-57.3266129 36.51209677 -57.3266129 36.51209677 -56 38 C-56 38.66 -56 39.32 -56 40 C-36.30029447 34.78309022 -16.63492987 29.45585275 3 24 C-1.35096042 16.36752811 -8.58961706 13.12731524 -16.796875 10.54296875 C-26.78031365 8.08251135 -36.84169465 8.31346587 -46.8125 10.609375 C-50.85271993 11.33084284 -54.38547085 10.93746854 -57.9375 8.875 C-59.6712306 5.81547541 -59.42145216 3.43182475 -59 0 C-47.52307295 -14.17583911 -13.57804626 -7.55690187 0 0 Z " fill="#47A920" transform="translate(173,294)"/>
<path d="M0 0 C2.5 1.9375 2.5 1.9375 4 5 C4.02514587 11.09366649 2.3642673 17.04825922 0.71484375 22.8671875 C0.49429825 23.66859161 0.27375275 24.46999573 0.04652405 25.29568481 C-0.65004041 27.82396037 -1.35555483 30.34960926 -2.0625 32.875 C-2.77192276 35.42208994 -3.47931901 37.96969185 -4.18223572 40.51858521 C-4.61778126 42.0967524 -5.05721721 43.67385234 -5.50099182 45.24972534 C-6.33355857 48.25696009 -7 50.86356818 -7 54 C-1.27186455 48.3713607 2.16264345 43.20938049 4.796875 35.6015625 C6.14701914 32.68209498 7.19785869 31.54038913 10 30 C13.5625 30.0625 13.5625 30.0625 17 31 C18.98031495 33.05265522 19.91469635 34.34444728 20.28515625 37.19140625 C19.19351355 48.81644344 12.58581985 58.33901926 4 66 C-1.37646084 69.57608634 -6.56524982 71.58034238 -13 72 C-13.39445312 73.83498047 -13.39445312 73.83498047 -13.796875 75.70703125 C-15.13831685 81.73763605 -16.69131888 87.70998787 -18.25 93.6875 C-18.55502441 94.85982178 -18.86004883 96.03214355 -19.17431641 97.23999023 C-21.20637785 105.02359586 -23.26920375 112.79851511 -25.375 120.5625 C-25.62540039 121.48957764 -25.87580078 122.41665527 -26.13378906 123.37182617 C-26.36549805 124.2197876 -26.59720703 125.06774902 -26.8359375 125.94140625 C-27.03751465 126.68076416 -27.2390918 127.42012207 -27.44677734 128.18188477 C-28 130 -28 130 -29 132 C-14.77017311 127.47837277 -4.70713906 120.49537782 2.25756836 107.04833984 C4.61177695 102.33774334 6.79286345 97.66234128 8.54296875 92.69140625 C9.84755438 89.38622283 10.38496657 88.14081498 13 86 C16.982716 85.30735374 18.54332214 85.69878695 21.9375 87.9375 C24.21578591 91.32040939 24.54469825 93.14995702 23.8359375 97.1484375 C20.74686705 107.6859208 15.85639782 117.42174662 9 126 C8.23816406 127.02287109 8.23816406 127.02287109 7.4609375 128.06640625 C-0.04847494 137.51790812 -11.15180079 144.63679066 -23 147 C-26.37715451 147.26182932 -29.62575368 147.21825164 -33 147 C-33.26425781 148.23661377 -33.52851563 149.47322754 -33.80078125 150.74731445 C-35.09363 156.55868943 -36.63511315 162.29641156 -38.1875 168.04296875 C-38.49067139 169.17019852 -38.79384277 170.29742828 -39.10620117 171.45881653 C-39.74399097 173.82819128 -40.3827607 176.19730244 -41.02246094 178.56616211 C-41.99957622 182.1859301 -42.97265433 185.8067665 -43.9453125 189.42773438 C-44.56746741 191.73704409 -45.18985524 194.04629106 -45.8125 196.35546875 C-46.24695435 197.97282173 -46.24695435 197.97282173 -46.69018555 199.62284851 C-48.80074942 207.42380356 -50.82460884 214.17883078 -55.375 220.9375 C-58.43251723 225.53906343 -61.30192519 230.17672927 -64 235 C-64.99 235 -65.98 235 -67 235 C-68.02718587 219.14521677 -65.92146448 206.09180294 -61.20361328 191.01171875 C-58.87418119 183.38679082 -56.91425166 175.65062319 -54.87246704 167.94500732 C-53.67376958 163.42261979 -52.46615112 158.90263153 -51.2578125 154.3828125 C-50.93791603 153.17981506 -50.93791603 153.17981506 -50.61155701 151.95251465 C-49.80730389 148.94001043 -48.98627749 145.95883247 -48 143 C-49.051875 142.62875 -49.051875 142.62875 -50.125 142.25 C-60.45582472 137.75833708 -66.40017152 129.23715936 -70.89453125 119.12890625 C-74.27525163 109.5601535 -75.47344629 101.10481416 -75.375 90.9375 C-75.38660156 89.73544922 -75.39820313 88.53339844 -75.41015625 87.29492188 C-75.38748813 80.36981258 -75.26018517 73.27781996 -72 67 C-70.11474609 65.22241211 -70.11474609 65.22241211 -68 64 C-64.60314182 64.11918801 -62.05999385 64.41871305 -59.0625 66.0625 C-57.05171127 69.72923239 -57.5728873 74.1637517 -58.49609375 78.1328125 C-61.06235478 92.73463883 -59.78587852 108.23568119 -51.4375 120.6875 C-49.36255919 123.51108315 -47.95333744 125.03110837 -45 127 C-42.15433565 119.8946766 -40.13296818 112.6303409 -38.125 105.25 C-37.77216246 103.96117424 -37.41929763 102.67235594 -37.06640625 101.38354492 C-34.97294165 93.7114196 -32.93763032 86.02550945 -31 78.3125 C-30.79262207 77.4884668 -30.58524414 76.66443359 -30.37158203 75.81542969 C-29.36207717 71.9539318 -29.36207717 71.9539318 -29 68 C-30.03125 67.195625 -31.0625 66.39125 -32.125 65.5625 C-38.37514683 60.39215496 -42.12327596 53.01715426 -43 45 C-43.17550979 42.01917589 -43.23017887 39.04805729 -43.25 36.0625 C-43.270625 35.28970703 -43.29125 34.51691406 -43.3125 33.72070312 C-43.34852533 28.39345778 -42.56826356 24.69848216 -40 20 C-36.50875983 17.67250655 -35.10777749 17.49700684 -31 18 C-27.9420928 20.14879966 -27.13083306 21.49679591 -26.1875 25.125 C-26 28 -26 28 -27 30 C-27.15007485 31.84996108 -27.22155831 33.70667955 -27.25 35.5625 C-27.28867187 37.04943359 -27.28867187 37.04943359 -27.328125 38.56640625 C-26.90530864 42.99087746 -25.5413669 46.85190966 -24 51 C-22.95210315 47.48099226 -21.91221513 43.95967045 -20.875 40.4375 C-20.55877686 39.36661133 -20.24255371 38.29572266 -19.91674805 37.19238281 C-18.28967224 31.62570644 -16.73517023 26.05537716 -15.33984375 20.42578125 C-15.08154785 19.3881665 -14.82325195 18.35055176 -14.55712891 17.28149414 C-14.0692758 15.29537218 -13.59323278 13.3063034 -13.13037109 11.31420898 C-11.21329096 3.52424629 -9.08786855 -1.4605503 0 0 Z " fill="#47A920" transform="translate(362,49)"/>
<path d="M0 0 C3.28122987 3.81351827 5.66420844 7.82009689 7.875 12.3125 C8.21942139 13.01109131 8.56384277 13.70968262 8.91870117 14.42944336 C18.98799649 35.25611416 25.22947399 57.65868504 18.31640625 80.4453125 C8.14490783 107.91137648 -14.89078109 125.1644741 -40.1796875 137.98828125 C-43 139 -43 139 -45.15625 138.96875 C-47.82526481 137.56638628 -48.96591911 135.68343006 -50.625 133.1875 C-51.21539062 132.31480469 -51.80578125 131.44210937 -52.4140625 130.54296875 C-56.09191331 124.6457252 -56.09191331 124.6457252 -55.72094727 122.03955078 C-54.49902197 118.58273943 -51.35965615 116.7673001 -48.5625 114.5625 C-37.92762235 105.76762284 -31.05120802 96.2335622 -25.5703125 83.60546875 C-24.46299804 81.06305272 -23.32387615 78.7304945 -22.015625 76.3046875 C-19.3848829 71.09521654 -18.06479482 65.56894879 -16.625 59.9375 C-16.32609863 58.79933838 -16.02719727 57.66117676 -15.71923828 56.48852539 C-14.80366405 52.99465728 -13.90029459 49.49783327 -13 46 C-11.96009605 41.9787087 -10.91821665 37.95793312 -9.875 33.9375 C-9.63185059 32.99841797 -9.38870117 32.05933594 -9.13818359 31.09179688 C-6.4135517 20.6342077 -3.47014094 10.23691577 0 0 Z " fill="#80D261" transform="translate(299,302)"/>
<path d="M0 0 C3.33712647 2.00227588 5.59073941 4.65291395 8.09570312 7.57421875 C14.66804299 15.11400841 21.77625889 22.15649541 28.80615234 29.26611328 C30.60922527 31.09598555 32.4050939 32.93298333 34.19384766 34.77685547 C36.78968312 37.45151088 39.40753045 40.1027273 42.03125 42.75 C43.22373352 43.99197144 43.22373352 43.99197144 44.44030762 45.2590332 C48.88887789 49.7941879 48.88887789 49.7941879 54.8293457 51.57299805 C58.54558338 50.90140262 62.10186419 49.97676194 65.6875 48.8125 C72.00065308 46.85687064 78.32726647 45.12046478 84.75 43.5625 C91.90053047 41.81634297 98.98985961 39.91404462 106.0625 37.875 C106.9479248 37.62032959 107.83334961 37.36565918 108.74560547 37.10327148 C112.34090833 36.06607324 115.93289101 35.01996139 119.51953125 33.953125 C124.41980958 32.53197725 128.85489987 31.2649857 134 32 C136.4375 33.5625 136.4375 33.5625 138 36 C138.5 39.5 138.5 39.5 138 43 C135.17081294 46.54635309 132.71451773 47.69740874 128.375 48.8125 C126.51294922 49.30556641 126.51294922 49.30556641 124.61328125 49.80859375 C123.8960791 49.99276855 123.17887695 50.17694336 122.43994141 50.36669922 C119.65585035 51.08932602 116.8807453 51.841887 114.10546875 52.59765625 C104.31252941 55.26115729 94.51052695 57.88849947 84.68310547 60.42211914 C82.74509558 60.92783422 80.81037352 61.4463408 78.87939453 61.97827148 C74.79485213 63.09476114 70.8933663 64.09199687 66.66796875 64.453125 C62.51390619 64.99250066 60.2977102 65.38871274 57 68 C53.8764549 74.1689654 52.87952763 81.18164623 51.62109375 87.91796875 C50.69518669 92.51256418 49.35693347 96.9551281 48 101.4375 C45.44634767 110.14010028 43.23138183 118.90965227 41.1796875 127.74389648 C39.74227082 133.7350043 38.11363352 139.63231541 35 145 C31.90826248 146.54586876 29.40570448 146.29359521 26 146 C23.5625 144.5 23.5625 144.5 22 142 C21.60386302 136.05155599 22.48709956 131.32061254 24.3125 125.6875 C24.74742913 124.2959896 25.18099929 122.90405379 25.61328125 121.51171875 C25.95190186 120.42576416 25.95190186 120.42576416 26.29736328 119.31787109 C29.03006483 110.30318434 31.23933526 101.14137796 33.5 92 C34.09256278 89.60387276 34.68629764 87.20803504 35.28125 84.8125 C35.56613281 83.66523438 35.85101563 82.51796875 36.14453125 81.3359375 C37.17083558 77.33381923 38.2975675 73.3649018 39.46679688 69.40234375 C40.06955246 66.68663177 40.33891164 64.77739357 40 62 C38.05206734 59.37276034 38.05206734 59.37276034 35.31835938 56.86181641 C34.82092728 56.37489822 34.32349518 55.88798004 33.81098938 55.38630676 C32.73106742 54.3320772 31.64549646 53.28361031 30.55500793 52.24031448 C28.82855187 50.58700831 27.11915983 48.91769896 25.41345215 47.24301147 C20.56169056 42.486019 15.67813402 37.76207466 10.78955078 33.04296875 C7.79879408 30.1536585 4.82534619 27.24740391 1.86128235 24.33073044 C0.17920502 22.68650101 -1.52193273 21.06381491 -3.22424316 19.44058228 C-4.25670933 18.42715919 -5.2881378 17.41267746 -6.31835938 16.39697266 C-7.2243689 15.52158844 -8.13037842 14.64620422 -9.06384277 13.74429321 C-11.52687697 10.25320894 -11.49292726 8.18714493 -11 4 C-8.10445004 -0.51705794 -5.12679803 -0.7195506 0 0 Z " fill="#C0E8AE" transform="translate(243,232)"/>
<path d="M0 0 C-0.60963671 4.47066918 -2.3713987 8.08278585 -4.5 12 C-4.85457275 12.65572998 -5.20914551 13.31145996 -5.57446289 13.98706055 C-11.47036352 24.67442752 -18.55833343 34.17537814 -27 43 C-27.804375 43.86625 -28.60875 44.7325 -29.4375 45.625 C-46.87902279 61.79031381 -64.47778814 67.70566636 -88 67 C-86.82201148 63.46603445 -86.14651295 63.22865981 -83.0625 61.375 C-64.65055518 49.44941172 -48.91808158 27.75424475 -42 7 C-42.58072266 6.71785645 -43.16144531 6.43571289 -43.75976562 6.14501953 C-45.85651228 5.07333886 -47.84024686 3.9151811 -49.84375 2.6796875 C-66.02604116 -7.12499092 -82.14055607 -14.47135947 -101 -17 C-72.14722653 -40.17465329 -24.99584117 -19.53936857 0 0 Z " fill="#80D261" transform="translate(441,253)"/>
<path d="M0 0 C0.93199219 0.19335938 1.86398438 0.38671875 2.82421875 0.5859375 C13.73673161 3.36366805 25.61950849 9.49366407 34 17 C34.66128906 17.58136719 35.32257813 18.16273438 36.00390625 18.76171875 C51.91441311 33.6457413 58.6859125 56.76531935 60 78 C60.1947488 84.33426648 60.12274421 90.66503502 60 97 C51.5384437 89.90225495 43.69713011 82.18199096 35.8215332 74.44628906 C33.99380498 72.66012584 32.15630839 70.88389968 30.30883789 69.11816406 C19.25812817 58.54697427 10.91681006 49.40642635 5.7890625 34.89390564 C-0.08681697 20.79063591 -13.55828812 11.87440852 -27 6 C-34.48471713 3.11269497 -42.03003353 0.97570466 -50 0 C-50 -0.66 -50 -1.32 -50 -2 C-34.09348032 -5.59563004 -15.79799078 -3.42908593 0 0 Z " fill="#80D261" transform="translate(235,187)"/>
<path d="M0 0 C4.27886598 1.65367115 7.1400635 4.86979574 10.296875 8.06640625 C10.89050842 8.66049789 11.48414185 9.25458954 12.09576416 9.86668396 C13.34535316 11.11928717 14.59251774 12.37431307 15.83740234 13.6315918 C17.75173412 15.56425072 19.67401858 17.48871713 21.59765625 19.41210938 C22.8103702 20.62973606 24.02262608 21.84781918 25.234375 23.06640625 C25.81241882 23.6455629 26.39046265 24.22471954 26.98602295 24.82142639 C31 28.88393676 31 28.88393676 31 30 C3.90243902 30.26829268 3.90243902 30.26829268 -1 27 C-1.2487793 24.29443359 -1.2487793 24.29443359 -1.07421875 20.8984375 C-1.01943359 19.68671875 -0.96464844 18.475 -0.90820312 17.2265625 C-0.83537109 15.95554687 -0.76253906 14.68453125 -0.6875 13.375 C-0.62626953 12.09625 -0.56503906 10.8175 -0.50195312 9.5 C-0.34830048 6.33239153 -0.18039202 3.16618013 0 0 Z " fill="#81D262" transform="translate(253,265)"/>
<path d="M0 0 C0.66 0.33 1.32 0.66 2 1 C1.06655075 4.79267541 0.12748728 8.58394018 -0.8125 12.375 C-1.07353516 13.43589844 -1.33457031 14.49679687 -1.60351562 15.58984375 C-2.8616563 20.65347167 -4.15317276 25.70595067 -5.57421875 30.7265625 C-5.80069092 31.52916504 -6.02716309 32.33176758 -6.26049805 33.15869141 C-7 35 -7 35 -9 36 C-9.72316406 34.22882813 -9.72316406 34.22882813 -10.4609375 32.421875 C-11.09887773 30.86455031 -11.73690303 29.30726047 -12.375 27.75 C-12.69210937 26.97269531 -13.00921875 26.19539063 -13.3359375 25.39453125 C-13.6453125 24.64042969 -13.9546875 23.88632812 -14.2734375 23.109375 C-14.55622559 22.41811523 -14.83901367 21.72685547 -15.13037109 21.01464844 C-16.48246657 17.88228127 -17.56650711 15.43349289 -20 13 C-5.88316171 2.36619471 -5.88316171 2.36619471 0 0 Z " fill="#80D161" transform="translate(282,298)"/>
</svg>
