<?xml version="1.0" encoding="UTF-8"?>
<svg version="1.1" xmlns="http://www.w3.org/2000/svg" width="512" height="512">
<path d="M0 0 C1.94587565 2.87216578 1.47762046 5.3136391 1.140625 8.68359375 C0.40527135 10.37810432 -0.33233599 12.07210583 -1.11328125 13.74609375 C-3.61278735 20.23695775 -3.24998165 26.80666693 -0.99609375 33.29296875 C2.39807613 40.43122294 7.77720086 44.9963235 15.140625 47.68359375 C22.48829584 49.81356059 29.29770332 48.92044339 36.140625 45.68359375 C42.56228885 41.85334937 45.12210265 36.72782482 47.140625 29.68359375 C47.68887118 27.03126764 48.17311558 24.39669436 48.55078125 21.71484375 C49.140625 19.68359375 49.140625 19.68359375 52.140625 17.68359375 C58.86390101 17.16641867 63.95073969 19.65715526 69.140625 23.68359375 C78.91918012 32.09769931 82.40998089 43.28403772 84.140625 55.68359375 C90.43890517 51.59822283 91.58416745 46.2683633 93.140625 39.30859375 C94.140625 35.68359375 94.140625 35.68359375 97.140625 33.68359375 C104.88848385 32.93106574 110.70584976 36.97278857 116.60546875 41.62890625 C124.21426388 48.67842242 131.20348654 59.08106652 132.140625 69.68359375 C132.27759897 74.35592809 132.25874881 79.01114086 132.140625 83.68359375 C132.88441406 83.95042969 133.62820313 84.21726562 134.39453125 84.4921875 C142.65883734 88.07769726 148.69332385 95.89993282 152.140625 104.046875 C156.05611127 115.24742465 156.01980994 125.47866179 152.140625 136.68359375 C145.55997984 149.97391633 145.55997984 149.97391633 140.140625 152.68359375 C141.09582031 153.03550781 142.05101562 153.38742188 143.03515625 153.75 C166.17947761 162.4896035 178.63364315 176.51980258 189.109375 198.80859375 C190.18049549 201.79474784 190.75592714 203.56606291 190.140625 206.68359375 C186.4315891 210.36123156 183.9577209 211.18806593 178.78979492 211.22949219 C177.5288652 211.24921082 176.26793549 211.26892944 174.96879578 211.28924561 C173.60289555 211.2909085 172.23699474 211.29213951 170.87109375 211.29296875 C169.46574503 211.30795772 168.06041389 211.32468638 166.65510559 211.34307861 C162.9676938 211.38668499 159.28051959 211.40673595 155.59289551 211.42181396 C151.8254597 211.44140959 148.05827957 211.48337671 144.29101562 211.5234375 C136.90762093 211.59866661 129.5243338 211.6490018 122.140625 211.68359375 C122.76488876 213.0210968 122.76488876 213.0210968 123.40176392 214.38562012 C123.94545624 215.55580688 124.48914856 216.72599365 125.04931641 217.93164062 C125.58924225 219.09143433 126.12916809 220.25122803 126.68545532 221.44616699 C133.12469702 235.77203819 135.38284998 255.00724846 130.23828125 270.08203125 C125.88557444 280.3984111 121.28661446 288.75856241 113.140625 296.68359375 C112.36525391 297.50730469 112.36525391 297.50730469 111.57421875 298.34765625 C107.69963204 302.13119523 103.04342577 304.48442736 98.265625 306.93359375 C97.60554443 307.27535645 96.94546387 307.61711914 96.26538086 307.96923828 C83.63020713 314.18539067 66.15771988 315.29738951 52.77734375 310.78125 C42.43506085 306.47579593 34.06340172 301.82726574 26.140625 293.68359375 C25.59148437 293.16667969 25.04234375 292.64976562 24.4765625 292.1171875 C20.69302352 288.24260079 18.33979139 283.58639452 15.890625 278.80859375 C15.5488623 278.14851318 15.20709961 277.48843262 14.85498047 276.80834961 C7.04591826 260.93537039 8.71174481 242.04096892 14.140625 225.68359375 C15.60942552 221.57193477 17.26946195 217.62717866 19.140625 213.68359375 C19.6046875 212.65621094 20.06875 211.62882813 20.546875 210.5703125 C24.59467574 202.27016789 24.59467574 202.27016789 28.703125 200.80859375 C32.67742412 200.66407378 34.20708469 201.00889523 37.140625 203.68359375 C38.26497247 206.27597569 38.39559163 207.97457818 37.43554688 210.64428711 C36.33208097 213.00281411 35.15476578 215.3110766 33.953125 217.62109375 C26.21606751 233.34937293 21.53478196 249.86166716 26.703125 267.24609375 C31.6620997 279.67820864 40.5921215 288.90098095 52.5859375 294.67578125 C64.13994605 299.23378462 77.83545983 299.59937723 89.46875 295.00390625 C102.66818938 288.48137626 111.5202782 278.32715748 116.24609375 264.43359375 C120.60737358 246.15049927 115.18409529 227.97699728 105.59375 212.35546875 C98.75269053 201.81476433 90.57816609 195.37385678 79.43359375 189.83984375 C78.79583008 189.52305664 78.15806641 189.20626953 77.50097656 188.87988281 C76.23779582 188.25823622 74.97028247 187.64530272 73.69824219 187.04199219 C69.24752753 184.8973988 69.24752753 184.8973988 68.140625 182.68359375 C67.63753239 179.66503809 67.66571895 177.54458754 69.1640625 174.828125 C74.03896488 168.08136784 80.19632859 161.3277751 87.140625 156.68359375 C87.800625 156.68359375 88.460625 156.68359375 89.140625 156.68359375 C89.140625 156.02359375 89.140625 155.36359375 89.140625 154.68359375 C88.55023438 154.41289062 87.95984375 154.1421875 87.3515625 153.86328125 C79.41465243 149.62839284 75.37197009 141.76195647 72.140625 133.68359375 C71.51960981 131.24856052 71.25508808 129.20178143 71.140625 126.68359375 C70.58882568 126.50183594 70.03702637 126.32007813 69.46850586 126.1328125 C65.61567559 124.85712212 61.77418587 123.56269477 57.95703125 122.18359375 C33.07064205 113.3047348 7.00080423 111.99043187 -18.859375 117.68359375 C-20.0038208 117.93302734 -20.0038208 117.93302734 -21.17138672 118.1875 C-40.01944057 122.43450567 -57.86657647 129.55897587 -74.859375 138.68359375 C-75.57689941 139.06241699 -76.29442383 139.44124023 -77.03369141 139.83154297 C-98.29728535 151.08819724 -117.49187784 165.02749897 -134.859375 181.68359375 C-135.49117676 182.28284668 -136.12297852 182.88209961 -136.77392578 183.49951172 C-138.81544454 185.44365136 -140.83937059 187.40462691 -142.859375 189.37109375 C-143.81251587 190.27939941 -143.81251587 190.27939941 -144.78491211 191.20605469 C-150.99870484 197.34251801 -154.57950267 203.69564169 -154.99308777 212.54441833 C-154.99689957 213.59251175 -155.00071136 214.64060516 -155.00463867 215.72045898 C-155.01101852 216.91618027 -155.01739838 218.11190155 -155.02397156 219.34385681 C-155.02508438 220.63030594 -155.0261972 221.91675507 -155.02734375 223.2421875 C-155.03056293 224.59155817 -155.03392748 225.9409285 -155.03742981 227.29029846 C-155.04341068 230.12054246 -155.04527109 232.95075599 -155.04467773 235.78100586 C-155.04457688 239.36789571 -155.05815358 242.95458418 -155.07544994 246.54142666 C-155.08670314 249.3325333 -155.08859282 252.12359356 -155.08806801 254.91472054 C-155.08978889 256.86743267 -155.10055458 258.82013033 -155.11161804 260.77281189 C-155.0825987 272.31866129 -154.04528878 283.72544816 -150.234375 294.68359375 C-149.97567627 295.43705078 -149.71697754 296.19050781 -149.45043945 296.96679688 C-145.60225948 307.6877787 -140.17164968 316.95060495 -132.23046875 325.20703125 C-130.30817906 327.21482641 -128.49215134 329.2526189 -126.6809082 331.3581543 C-123.05028756 335.51731226 -119.24325678 339.46101691 -115.34375 343.3671875 C-114.64727356 344.06699234 -113.95079712 344.76679718 -113.23321533 345.48780823 C-111.76892586 346.95712445 -110.30331165 348.42512157 -108.83642578 349.8918457 C-106.62372305 352.10673154 -104.41915074 354.3294968 -102.21484375 356.55273438 C-75.17205844 383.70555418 -50.54710567 394.75442516 -12.19511414 394.84819031 C-10.18085761 394.84971849 -8.16660073 394.85083271 -6.15234375 394.8515625 C-4.05634031 394.85478131 -1.96033709 394.85814584 0.13566589 394.86164856 C4.50703452 394.86760588 8.87838346 394.8694917 13.24975586 394.86889648 C18.84257768 394.86879444 24.43527375 394.88250531 30.02806568 394.89966869 C34.34753498 394.91079338 38.66697376 394.91281563 42.98645592 394.91228676 C45.04887009 394.9134639 47.11128512 394.9178707 49.17368507 394.92561913 C52.0544381 394.93543912 54.93491618 394.93253421 57.81567383 394.92651367 C58.65997452 394.93213318 59.50427521 394.93775269 60.37416077 394.94354248 C66.34608525 394.91189977 71.93075367 394.71900156 76.515625 390.49609375 C80.15175465 384.20279244 79.10006123 377.14377601 78.453125 370.18359375 C78.36498535 369.18763184 78.2768457 368.19166992 78.18603516 367.16552734 C77.38740577 358.85483098 76.06845939 350.67725963 74.4621582 342.48632812 C73.36897683 336.77307415 72.82540801 331.50651126 73.140625 325.68359375 C74.703125 323.55859375 74.703125 323.55859375 77.140625 322.68359375 C80.703125 322.68359375 80.703125 322.68359375 84.140625 323.68359375 C87.6337359 327.99405819 88.26217932 333.05542412 89.203125 338.37109375 C89.45690918 339.77222412 89.45690918 339.77222412 89.71582031 341.20166016 C91.98442424 354.0767524 93.31172366 366.72769886 93.515625 379.80859375 C93.54172852 380.76878418 93.56783203 381.72897461 93.59472656 382.71826172 C93.61278852 390.07851044 92.07035183 395.27061301 87.24609375 400.890625 C86.61316406 401.42042969 85.98023438 401.95023437 85.328125 402.49609375 C84.70292969 403.03878906 84.07773437 403.58148438 83.43359375 404.140625 C76.70745257 408.66673363 71.10044372 409.12291893 63.16674805 409.08764648 C61.54072411 409.09794136 61.54072411 409.09794136 59.8818512 409.10844421 C56.30521451 409.12671123 52.72901703 409.12287122 49.15234375 409.1171875 C46.64956013 409.12175259 44.14677776 409.12705913 41.64399719 409.1330719 C36.39437914 409.14200531 31.14487378 409.13981679 25.89526367 409.12963867 C19.21247942 409.11696608 12.53031274 409.13826895 5.84756756 409.16755581 C0.67320995 409.1860379 -4.50102312 409.18560054 -9.6754055 409.17991829 C-12.13622975 409.17976622 -14.59706308 409.18571437 -17.05785561 409.19820976 C-50.09933864 409.34223123 -77.53779002 401.07355577 -101.53525829 377.41812038 C-103.15513672 375.80481389 -104.76742438 374.18419048 -106.37890625 372.5625 C-107.53282424 371.41061058 -108.68718657 370.25916613 -109.84196472 369.10813904 C-112.2409265 366.71356028 -114.63448113 364.3137439 -117.02416992 361.90991211 C-120.0642231 358.85273072 -123.11760603 355.80927441 -126.17517567 352.76962376 C-128.554603 350.40111073 -130.92674889 348.02540785 -133.2968502 345.64756584 C-134.41922576 344.52321137 -135.54377184 343.40101868 -136.67066383 342.28119087 C-159.2195987 319.84277609 -169.14341304 294.59880422 -169.23046875 262.96875 C-169.23945792 261.26443921 -169.24858009 259.56012911 -169.25782776 257.8558197 C-169.27422564 254.29977515 -169.28200149 250.74382374 -169.28491211 247.18774414 C-169.29029984 242.66113141 -169.32803558 238.13540924 -169.37365627 233.60904789 C-169.40358262 230.09399813 -169.41063896 226.57915945 -169.41163826 223.06399345 C-169.41580628 221.3964268 -169.42810072 219.72885747 -169.44915581 218.06141853 C-169.58368774 206.49201162 -168.53469366 197.16795531 -161.52734375 187.44921875 C-160.70878906 186.6190625 -159.89023438 185.78890625 -159.046875 184.93359375 C-158.35235229 184.21925171 -158.35235229 184.21925171 -157.64379883 183.49047852 C-156.6217845 182.44522527 -155.59173368 181.40778255 -154.5546875 180.37744141 C-152.70358719 178.52794055 -150.89080639 176.64495635 -149.078125 174.7578125 C-141.3509282 166.7845869 -133.40575945 159.54680473 -124.49902344 152.921875 C-122.91960862 151.72908287 -121.37677493 150.48831928 -119.8359375 149.24609375 C-95.6694933 129.86323876 -66.66912292 115.02850726 -36.859375 106.68359375 C-37.65601563 105.97074219 -38.45265625 105.25789063 -39.2734375 104.5234375 C-53.26505778 91.92391946 -62.34178989 79.85243263 -64.17578125 60.3125 C-64.76845458 43.46910634 -59.43257266 29.24663301 -48.609375 16.37109375 C-39.70597224 6.93772654 -13.44410076 -9.51819739 0 0 Z M-37.89453125 25.56640625 C-46.66327088 35.01502827 -50.70980345 46.51176843 -50.2421875 59.41796875 C-48.67119156 72.81952597 -42.45112539 84.28445947 -31.859375 92.68359375 C-23.10414432 97.9413954 -14.85706433 101.05305455 -4.56640625 100.7734375 C-2.95997024 100.75024197 -1.35352432 100.72772449 0.25292969 100.70581055 C1.08256226 100.69125824 1.91219482 100.67670593 2.76696777 100.66171265 C17.11081212 100.4342252 31.09837376 100.38842261 45.140625 103.68359375 C45.89601563 103.8552002 46.65140625 104.02680664 47.4296875 104.20361328 C75.14289308 110.68586183 75.14289308 110.68586183 83.140625 118.68359375 C84.046875 121.35546875 84.046875 121.35546875 84.640625 124.43359375 C86.56898081 132.95733674 90.13106482 139.25857016 97.140625 144.68359375 C103.80896224 148.55259488 110.52020522 149.75980139 118.140625 148.68359375 C127.202696 146.238273 133.36304316 141.86559923 138.10546875 133.72265625 C141.35313827 127.32536007 142.20848477 120.88829159 140.453125 113.9765625 C138.49409352 108.00967911 136.04128188 102.78614365 131.140625 98.68359375 C130.480625 98.68359375 129.820625 98.68359375 129.140625 98.68359375 C128.89828125 99.51503906 128.6559375 100.34648437 128.40625 101.203125 C128.07109375 102.28980469 127.7359375 103.37648438 127.390625 104.49609375 C127.06578125 105.57503906 126.7409375 106.65398437 126.40625 107.765625 C125.04662623 110.90031315 124.08259369 112.0276694 121.140625 113.68359375 C118.26129364 114.10495932 116.811819 114.10019692 114.328125 112.55859375 C112.49742283 109.66801138 112.71230121 108.11018408 113.140625 104.68359375 C114.0581842 101.86891891 115.0786322 99.11981211 116.16796875 96.3671875 C119.48087266 87.22676587 119.93334901 74.31751235 116.640625 65.12109375 C114.12997429 59.89057144 110.20140386 55.76408513 106.140625 51.68359375 C103.70087653 52.6396189 103.70087653 52.6396189 102.515625 56.30859375 C98.80714583 63.91642969 92.45169946 68.23889479 84.60546875 71.01953125 C80.77132519 72.05250178 78.09552311 72.30805135 74.140625 71.68359375 C71.27069051 68.03335449 70.79929445 65.186314 70.703125 60.62109375 C70.15212104 51.09196637 68.01099073 42.55395948 61.140625 35.68359375 C59.42086815 38.26322903 58.22888497 40.6295343 56.953125 43.43359375 C52.5347959 52.25740797 46.31909522 57.17135403 37.140625 60.68359375 C25.88892597 63.95186336 15.15963311 63.28868097 4.4296875 58.46484375 C-4.92034818 53.28636245 -11.42831458 45.82169883 -14.859375 35.68359375 C-15.65041365 32.87695616 -16.03026125 30.26586876 -16.17578125 27.35546875 C-16.21767578 26.55625 -16.25957031 25.75703125 -16.30273438 24.93359375 C-16.34205078 24.10859375 -16.38136719 23.28359375 -16.421875 22.43359375 C-16.46505859 21.593125 -16.50824219 20.75265625 -16.55273438 19.88671875 C-16.65846043 17.81918704 -16.75938795 15.75141094 -16.859375 13.68359375 C-24.36487238 13.68359375 -32.72167941 20.60870014 -37.89453125 25.56640625 Z M99.890625 165.74609375 C99.30071777 166.05683838 98.71081055 166.36758301 98.10302734 166.68774414 C93.33343728 169.3124025 89.5529581 172.46307649 86.140625 176.68359375 C87.81602973 177.80053024 89.51239062 178.89164607 91.26953125 179.875 C98.85112102 184.14648958 106.25793009 189.35955139 111.140625 196.68359375 C113.76564601 197.12304065 113.76564601 197.12304065 116.87548828 197.02416992 C118.07658234 197.02394333 119.27767639 197.02371674 120.51516724 197.02348328 C121.81727142 197.00799942 123.11937561 196.99251556 124.4609375 196.9765625 C125.80328905 196.97096791 127.14564673 196.96669716 128.48800659 196.96369934 C132.02273441 196.9522396 135.55709298 196.92276334 139.0916748 196.8895874 C142.69778447 196.85891046 146.30395374 196.84519913 149.91015625 196.83007812 C156.98713032 196.79789427 164.06385357 196.74668469 171.140625 196.68359375 C167.47053676 185.18103608 158.40919212 176.40941496 148.015625 170.49609375 C142.08739195 167.71127385 135.95555675 166.2357292 129.578125 164.80859375 C128.62083496 164.59307861 127.66354492 164.37756348 126.67724609 164.15551758 C117.2265435 162.20407608 108.62702791 161.12392709 99.890625 165.74609375 Z " fill="#F7A745" transform="translate(248.859375,52.31640625)"/>
<path d="M0 0 C-1.67391253 1.11594169 -3.36881886 2.20610466 -5.125 3.1875 C-7.84547603 5.8172935 -7.72330417 8.33378031 -8 12 C-12.41195239 10.54674192 -16.8146442 9.07845919 -21.18359375 7.5 C-46.06998295 -1.37885895 -72.13982077 -2.69316188 -98 3 C-98.76296387 3.16628906 -99.52592773 3.33257812 -100.31201172 3.50390625 C-119.16006557 7.75091192 -137.00720147 14.87538212 -154 24 C-154.71752441 24.37882324 -155.43504883 24.75764648 -156.17431641 25.14794922 C-177.43791035 36.40460349 -196.63250284 50.34390522 -214 67 C-214.63180176 67.59925293 -215.26360352 68.19850586 -215.91455078 68.81591797 C-217.95606954 70.76005761 -219.97999559 72.72103316 -222 74.6875 C-222.63542725 75.29303711 -223.27085449 75.89857422 -223.92553711 76.52246094 C-230.13932984 82.65892426 -233.72012767 89.01204794 -234.13371277 97.86082458 C-234.13752457 98.908918 -234.14133636 99.95701141 -234.14526367 101.03686523 C-234.15164352 102.23258652 -234.15802338 103.4283078 -234.16459656 104.66026306 C-234.16570938 105.94671219 -234.1668222 107.23316132 -234.16796875 108.55859375 C-234.17118793 109.90796442 -234.17455248 111.25733475 -234.17805481 112.60670471 C-234.18403568 115.43694871 -234.18589609 118.26716224 -234.18530273 121.09741211 C-234.18520188 124.68430196 -234.19877858 128.27099043 -234.21607494 131.85783291 C-234.22732814 134.64893955 -234.22921782 137.43999981 -234.22869301 140.23112679 C-234.23041389 142.18383892 -234.24117958 144.13653658 -234.25224304 146.08921814 C-234.2232237 157.63506754 -233.18591378 169.04185441 -229.375 180 C-229.11630127 180.75345703 -228.85760254 181.50691406 -228.59106445 182.28320312 C-224.74288448 193.00418495 -219.31227468 202.2670112 -211.37109375 210.5234375 C-209.44880406 212.53123266 -207.63277634 214.56902515 -205.8215332 216.67456055 C-202.19091256 220.83371851 -198.38388178 224.77742316 -194.484375 228.68359375 C-193.78789856 229.38339859 -193.09142212 230.08320343 -192.37384033 230.80421448 C-190.90955086 232.2735307 -189.44393665 233.74152782 -187.97705078 235.20825195 C-185.76434805 237.42313779 -183.55977574 239.64590305 -181.35546875 241.86914062 C-154.31268344 269.02196043 -129.68773067 280.07083141 -91.33573914 280.16459656 C-89.32148261 280.16612474 -87.30722573 280.16723896 -85.29296875 280.16796875 C-83.19696531 280.17118756 -81.10096209 280.17455209 -79.00495911 280.17805481 C-74.63359048 280.18401213 -70.26224154 280.18589795 -65.89086914 280.18530273 C-60.29804732 280.18520069 -54.70535125 280.19891156 -49.11255932 280.21607494 C-44.79309002 280.22719963 -40.47365124 280.22922188 -36.15416908 280.22869301 C-34.09175491 280.22987015 -32.02933988 280.23427695 -29.96693993 280.24202538 C-27.0861869 280.25184537 -24.20570882 280.24894046 -21.32495117 280.24291992 C-20.48065048 280.24853943 -19.63634979 280.25415894 -18.76646423 280.25994873 C-12.79453975 280.22830602 -7.20987133 280.03540781 -2.625 275.8125 C1.01112965 269.51919869 -0.04056377 262.46018226 -0.6875 255.5 C-0.77563965 254.50403809 -0.8637793 253.50807617 -0.95458984 252.48193359 C-1.75321923 244.17123723 -3.07216561 235.99366588 -4.6784668 227.80273438 C-5.77164817 222.0894804 -6.31521699 216.82291751 -6 211 C-4.4375 208.875 -4.4375 208.875 -2 208 C1.5625 208 1.5625 208 5 209 C8.4931109 213.31046444 9.12155432 218.37183037 10.0625 223.6875 C10.31628418 225.08863037 10.31628418 225.08863037 10.57519531 226.51806641 C12.84379924 239.39315865 14.17109866 252.04410511 14.375 265.125 C14.40110352 266.08519043 14.42720703 267.04538086 14.45410156 268.03466797 C14.47216352 275.39491669 12.92972683 280.58701926 8.10546875 286.20703125 C7.47253906 286.73683594 6.83960938 287.26664062 6.1875 287.8125 C5.56230469 288.35519531 4.93710937 288.89789063 4.29296875 289.45703125 C-2.43317243 293.98313988 -8.04018128 294.43932518 -15.97387695 294.40405273 C-17.59990089 294.41434761 -17.59990089 294.41434761 -19.2587738 294.42485046 C-22.83541049 294.44311748 -26.41160797 294.43927747 -29.98828125 294.43359375 C-32.49106487 294.43815884 -34.99384724 294.44346538 -37.49662781 294.44947815 C-42.74624586 294.45841156 -47.99575122 294.45622304 -53.24536133 294.44604492 C-59.92814558 294.43337233 -66.61031226 294.4546752 -73.29305744 294.48396206 C-78.46741505 294.50244415 -83.64164812 294.50200679 -88.8160305 294.49632454 C-91.27685475 294.49617247 -93.73768808 294.50212062 -96.19848061 294.51461601 C-129.23996364 294.65863748 -156.67841502 286.38996202 -180.67588329 262.73452663 C-182.29576172 261.12122014 -183.90804938 259.50059673 -185.51953125 257.87890625 C-186.67344924 256.72701683 -187.82781157 255.57557238 -188.98258972 254.42454529 C-191.3815515 252.02996653 -193.77510613 249.63015015 -196.16479492 247.22631836 C-199.2048481 244.16913697 -202.25823103 241.12568066 -205.31580067 238.08603001 C-207.695228 235.71751698 -210.06737389 233.3418141 -212.4374752 230.96397209 C-213.55985076 229.83961762 -214.68439684 228.71742493 -215.81128883 227.59759712 C-238.3602237 205.15918234 -248.28403804 179.91521047 -248.37109375 148.28515625 C-248.38008292 146.58084546 -248.38920509 144.87653536 -248.39845276 143.17222595 C-248.41485064 139.6161814 -248.42262649 136.06022999 -248.42553711 132.50415039 C-248.43092484 127.97753766 -248.46866058 123.45181549 -248.51428127 118.92545414 C-248.54420762 115.41040438 -248.55126396 111.8955657 -248.55226326 108.3803997 C-248.55643128 106.71283305 -248.56872572 105.04526372 -248.58978081 103.37782478 C-248.72431274 91.80841787 -247.67531866 82.48436156 -240.66796875 72.765625 C-239.44013672 71.52039063 -239.44013672 71.52039063 -238.1875 70.25 C-237.49297729 69.53565796 -237.49297729 69.53565796 -236.78442383 68.80688477 C-235.7624095 67.76163152 -234.73235868 66.7241888 -233.6953125 65.69384766 C-231.84421219 63.8443468 -230.03143139 61.9613626 -228.21875 60.07421875 C-220.4915532 52.10099315 -212.54638445 44.86321098 -203.63964844 38.23828125 C-202.06023362 37.04548912 -200.51739993 35.80472553 -198.9765625 34.5625 C-174.3763124 14.83170815 -143.32347647 -2.20166566 -112.26464844 -8.53613281 C-109.50682164 -9.10101756 -106.75803819 -9.70390588 -104.0078125 -10.3046875 C-67.79856169 -18.10398291 -33.72293733 -15.94258754 0 0 Z " fill="#37CE83" transform="translate(328,167)"/>
<path d="M0 0 C2 2 2 2 2.375 5.5625 C2.2765516 9.78063515 0.9116564 12.76045409 -0.91015625 16.5078125 C-3.9460879 23.45019384 -5.18805074 30.45916535 -5 38 C-4.42556152 37.69707031 -3.85112305 37.39414062 -3.25927734 37.08203125 C-0.63763511 35.708614 1.9933994 34.35423118 4.625 33 C5.52863281 32.52304687 6.43226563 32.04609375 7.36328125 31.5546875 C15.94190232 27.17145046 15.94190232 27.17145046 21 28 C23.4375 29.5625 23.4375 29.5625 25 32 C25.25 35.4375 25.25 35.4375 24 39 C17.66598142 43.48337012 10.67621019 46.91291988 3.76318359 50.41357422 C2.49718764 51.05819435 1.23482017 51.70998739 -0.02392578 52.36865234 C-1.86508148 53.33188705 -3.71592574 54.27347952 -5.5703125 55.2109375 C-6.66102051 55.77087402 -7.75172852 56.33081055 -8.87548828 56.90771484 C-12.45176805 58.15793173 -14.38889506 58.03726683 -18 57 C-20.4189704 54.80047206 -20.93561374 53.45007256 -21.3984375 50.21484375 C-21.27672445 33.19530188 -19.34529008 14.08851631 -9 0 C-5.88135455 -1.55932272 -3.33704665 -0.65549131 0 0 Z " fill="#37CE83" transform="translate(206,314)"/>
<path d="M0 0 C3.1334505 0.84864284 4.07951206 1.29475671 6 3.8125 C6.23291016 5.85864258 6.23291016 5.85864258 6.0390625 8.20703125 C5.97904053 9.07432861 5.91901855 9.94162598 5.85717773 10.83520508 C5.74224976 12.21615356 5.74224976 12.21615356 5.625 13.625 C5.04949965 22.17077599 5.06804811 30.28155576 6 38.8125 C10.01098619 35.38492998 13.9217542 31.94778309 17.5625 28.125 C20.83364234 24.83898883 23.69467439 22.61290889 28 20.8125 C31.49856741 21.34058565 33.22409731 21.83418792 35.4375 24.625 C36.18235709 27.52166645 36.03280767 28.98949236 35 31.8125 C33.37050549 33.51552766 31.69560526 35.17528335 30 36.8125 C28.98052346 37.83861916 27.96368999 38.86736959 26.94921875 39.8984375 C15.12961047 51.83485809 15.12961047 51.83485809 9 56.8125 C8.33226562 57.369375 7.66453125 57.92625 6.9765625 58.5 C5 59.8125 5 59.8125 1.9375 59.6875 C-1.20762919 58.75065301 -2.03228005 58.33862696 -4 55.8125 C-9.46552586 41.16644671 -13.43755198 19.53981648 -7.625 4.5625 C-5.50649272 0.97733384 -4.24172807 -0.265108 0 0 Z " fill="#37CE83" transform="translate(238,370.1875)"/>
<path d="M0 0 C2.05249655 2.12625861 2.93216223 3.41856757 3.27709961 6.375 C3.23593018 7.24125 3.19476074 8.1075 3.15234375 9 C3.12156738 9.96397705 3.09079102 10.9279541 3.05908203 11.92114258 C3.01895996 12.93716553 2.97883789 13.95318848 2.9375 15 C2.77390029 23.71472673 3.00147288 31.0650347 7 39 C7.43570313 39.87527344 7.87140625 40.75054687 8.3203125 41.65234375 C13.26514056 50.63679911 19.72374152 56.71667534 28.703125 61.578125 C31.22414162 63.13875434 33.06717889 64.75374844 35 67 C35.60975382 70.65852292 35.44543026 72.30512879 33.4375 75.4375 C31 77 31 77 28 77.1875 C14.51154623 74.21888731 3.75675642 62.66638929 -3.4375 51.5625 C-9.7607626 40.69115303 -12.18101394 30.0424916 -12.25 17.625 C-12.270625 16.70460937 -12.29125 15.78421875 -12.3125 14.8359375 C-12.34509584 9.13166569 -11.87514787 4.98448532 -9 0 C-5.4314543 -1.18951523 -3.60804584 -0.97717908 0 0 Z " fill="#37CE83" transform="translate(207,200)"/>
<path d="M0 0 C3.08229699 2.51782814 4.99926801 4.27518515 5.45703125 8.27734375 C5.7650407 16.94899445 5.7650407 16.94899445 2.93359375 20.44921875 C-0.72344009 23.69068056 -2.31263801 24.74748095 -7.19140625 25.19921875 C-12.62516895 24.73079093 -15.57642941 23.28985043 -19.19140625 19.19921875 C-21.17041913 15.16507711 -21.54605936 12.29101039 -20.81640625 7.88671875 C-19.24661159 3.72676291 -17.69916716 1.12224776 -13.81640625 -1.11328125 C-9.46133264 -2.97974137 -4.01025979 -2.45790116 0 0 Z " fill="#37CE83" transform="translate(282.81640625,190.11328125)"/>
<path d="M0 0 C1.85625 -0.01160156 1.85625 -0.01160156 3.75 -0.0234375 C7 0.375 7 0.375 8.9140625 1.71484375 C10.62744234 4.33421941 10.37321134 6.32710742 10 9.375 C8.9140625 11.53515625 8.9140625 11.53515625 7 13.375 C3.75 13.90625 3.75 13.90625 0 13.875 C-1.2375 13.8853125 -2.475 13.895625 -3.75 13.90625 C-7 13.375 -7 13.375 -8.9140625 11.53515625 C-10.38281536 8.61350038 -10.41186279 6.6012585 -10 3.375 C-7.47835244 -0.48003674 -4.30836117 -0.02692726 0 0 Z " fill="#F7A745" transform="translate(368,223.625)"/>
</svg>
