<?xml version="1.0" encoding="UTF-8"?>
<svg version="1.1" xmlns="http://www.w3.org/2000/svg" width="512" height="512">
<path d="M0 0 C1.25039062 -0.03738281 2.50078125 -0.07476562 3.7890625 -0.11328125 C8.03078084 0.39036505 10.08977415 1.63156386 13.375 4.3125 C21.0422042 15.70377481 20.8966577 31.44758251 20.75 44.75 C20.74601196 45.49351715 20.74202393 46.2370343 20.73791504 47.00308228 C20.59590817 69.91928842 18.41135977 92.60962699 14.2421875 115.1484375 C8.8141272 145.69463739 12.44961232 179.07831982 25.375 207.3125 C25.66745605 207.96025391 25.95991211 208.60800781 26.26123047 209.27539062 C30.90632897 219.45575472 36.48307838 228.50586587 43.375 237.3125 C44.17164063 238.3334375 44.96828125 239.354375 45.7890625 240.40625 C55.90845285 252.81268523 67.4538458 264.36485773 79.60449219 274.77856445 C84.25255286 278.8055591 88.16253587 282.85899144 91.5625 288 C97.4086726 296.63758834 105.3468055 303.73847594 113.25 310.47265625 C116.0105478 312.86276289 118.69117553 315.33716824 121.375 317.8125 C124.70713631 320.88513702 128.05677321 323.92664994 131.5 326.875 C135.5241512 330.35647521 139.21781473 334.13953493 142.953125 337.92578125 C144.95102047 339.89467501 146.97074485 341.70939048 149.125 343.5 C155.75515177 349.19632758 161.51615359 355.84471515 167.375 362.3125 C167.92881348 362.92158203 168.48262695 363.53066406 169.05322266 364.15820312 C215.06559827 415.05844169 215.06559827 415.05844169 214.7109375 444.140625 C213.99783287 450.87365938 211.03705241 456.31287931 205.875 460.6875 C198.21636098 465.79808521 188.49005541 467.96248187 179.375 468.3125 C178.39402344 468.3640625 177.41304688 468.415625 176.40234375 468.46875 C156.9145435 468.9960411 137.33192953 465.52752835 118.375 461.3125 C118.46201172 462.32957031 118.46201172 462.32957031 118.55078125 463.3671875 C118.91154836 470.80929762 117.773449 476.21246124 113.375 482.3125 C106.69115954 489.33720151 98.24862735 491.42808756 88.8125 491.6875 C72.55882549 491.23407131 57.87877814 486.52652791 42.58154297 481.37548828 C39.50403478 480.3552758 36.41534187 479.38645207 33.31640625 478.43359375 C5.5333532 469.77231407 -18.85855302 456.25810061 -41.625 438.3125 C-42.17188477 437.88420898 -42.71876953 437.45591797 -43.28222656 437.01464844 C-57.75979825 425.56412347 -71.57000552 412.10918492 -82.625 397.3125 C-83.25728516 396.48685547 -83.25728516 396.48685547 -83.90234375 395.64453125 C-90.84124494 386.58268013 -97.04735592 377.26831948 -102.625 367.3125 C-103.058125 366.54728027 -103.49125 365.78206055 -103.9375 364.99365234 C-118.88046731 338.36057246 -128.11146551 309.63948195 -131.625 279.3125 C-131.75648438 278.19230469 -131.88796875 277.07210938 -132.0234375 275.91796875 C-137.13628108 222.09492615 -123.19378958 165.68923732 -88.671875 123.703125 C-83.40294616 117.38124277 -78.13517844 111.39276424 -71.625 106.3125 C-70.614375 105.51199219 -69.60375 104.71148437 -68.5625 103.88671875 C-63.73918767 100.10473922 -58.93274345 96.43967507 -53.6875 93.25 C-42.86747583 86.10246579 -38.50764232 71.039474 -35.8125 58.9375 C-33.64780396 48.15337791 -33.55261473 37.78925909 -33.83984375 26.81835938 C-33.94191801 18.85192735 -33.67795592 12.5835242 -28 6.5 C-19.93532621 0.57126704 -9.6212554 0.25589688 0 0 Z " fill="#518601" transform="translate(221.625,3.6875)"/>
<path d="M0 0 C1.25039062 -0.03738281 2.50078125 -0.07476562 3.7890625 -0.11328125 C8.03078084 0.39036505 10.08977415 1.63156386 13.375 4.3125 C21.0422042 15.70377481 20.8966577 31.44758251 20.75 44.75 C20.74601196 45.49351715 20.74202393 46.2370343 20.73791504 47.00308228 C20.59590817 69.91928842 18.41135977 92.60962699 14.2421875 115.1484375 C8.8141272 145.69463739 12.44961232 179.07831982 25.375 207.3125 C25.66745605 207.96025391 25.95991211 208.60800781 26.26123047 209.27539062 C30.90632897 219.45575472 36.48307838 228.50586587 43.375 237.3125 C44.17164063 238.3334375 44.96828125 239.354375 45.7890625 240.40625 C55.90845285 252.81268523 67.4538458 264.36485773 79.60449219 274.77856445 C84.25255286 278.8055591 88.16253587 282.85899144 91.5625 288 C97.4086726 296.63758834 105.3468055 303.73847594 113.25 310.47265625 C116.0105478 312.86276289 118.69117553 315.33716824 121.375 317.8125 C124.70713631 320.88513702 128.05677321 323.92664994 131.5 326.875 C135.5241512 330.35647521 139.21781473 334.13953493 142.953125 337.92578125 C144.95102047 339.89467501 146.97074485 341.70939048 149.125 343.5 C155.75515177 349.19632758 161.51615359 355.84471515 167.375 362.3125 C167.92881348 362.92158203 168.48262695 363.53066406 169.05322266 364.15820312 C215.06559827 415.05844169 215.06559827 415.05844169 214.7109375 444.140625 C213.99783287 450.87365938 211.03705241 456.31287931 205.875 460.6875 C198.21636098 465.79808521 188.49005541 467.96248187 179.375 468.3125 C178.39402344 468.3640625 177.41304688 468.415625 176.40234375 468.46875 C156.9145435 468.9960411 137.33192953 465.52752835 118.375 461.3125 C118.46201172 462.32957031 118.46201172 462.32957031 118.55078125 463.3671875 C118.91154836 470.80929762 117.773449 476.21246124 113.375 482.3125 C106.69115954 489.33720151 98.24862735 491.42808756 88.8125 491.6875 C72.55882549 491.23407131 57.87877814 486.52652791 42.58154297 481.37548828 C39.50403478 480.3552758 36.41534187 479.38645207 33.31640625 478.43359375 C5.5333532 469.77231407 -18.85855302 456.25810061 -41.625 438.3125 C-42.17188477 437.88420898 -42.71876953 437.45591797 -43.28222656 437.01464844 C-57.75979825 425.56412347 -71.57000552 412.10918492 -82.625 397.3125 C-83.25728516 396.48685547 -83.25728516 396.48685547 -83.90234375 395.64453125 C-90.84124494 386.58268013 -97.04735592 377.26831948 -102.625 367.3125 C-103.058125 366.54728027 -103.49125 365.78206055 -103.9375 364.99365234 C-118.88046731 338.36057246 -128.11146551 309.63948195 -131.625 279.3125 C-131.75648438 278.19230469 -131.88796875 277.07210938 -132.0234375 275.91796875 C-137.13628108 222.09492615 -123.19378958 165.68923732 -88.671875 123.703125 C-83.40294616 117.38124277 -78.13517844 111.39276424 -71.625 106.3125 C-70.614375 105.51199219 -69.60375 104.71148437 -68.5625 103.88671875 C-63.73918767 100.10473922 -58.93274345 96.43967507 -53.6875 93.25 C-42.86747583 86.10246579 -38.50764232 71.039474 -35.8125 58.9375 C-33.64780396 48.15337791 -33.55261473 37.78925909 -33.83984375 26.81835938 C-33.94191801 18.85192735 -33.67795592 12.5835242 -28 6.5 C-19.93532621 0.57126704 -9.6212554 0.25589688 0 0 Z M-24.625 62.3125 C-24.76035156 62.90933594 -24.89570313 63.50617188 -25.03515625 64.12109375 C-26.56047917 70.2680538 -28.58625031 76.12928586 -30.9375 82 C-31.20892822 82.69988037 -31.48035645 83.39976074 -31.76000977 84.12084961 C-35.54662038 93.34414464 -40.99354765 99.10367083 -49.1875 104.625 C-50.7956961 105.75001757 -52.40114731 106.87896855 -54.00390625 108.01171875 C-54.78910645 108.56649902 -55.57430664 109.1212793 -56.38330078 109.69287109 C-84.14675012 129.75197836 -103.99750428 161.28876636 -112.625 194.3125 C-112.8219043 195.03679199 -113.01880859 195.76108398 -113.22167969 196.50732422 C-121.60768566 227.62181689 -123.71958259 260.58769381 -117.625 292.3125 C-117.4693457 293.20243652 -117.31369141 294.09237305 -117.15332031 295.00927734 C-113.29277977 316.97428898 -105.31539244 337.7715077 -94.625 357.3125 C-94.30853516 357.90385742 -93.99207031 358.49521484 -93.66601562 359.10449219 C-85.02414822 375.20500985 -73.9588987 389.60052633 -61.6484375 403.06640625 C-60.05088072 404.83975596 -58.54116508 406.62933982 -57.0625 408.5 C-54.52795459 411.42447547 -51.84604125 413.84407391 -48.90234375 416.34375 C-46.38876369 418.51672487 -43.98451004 420.78804183 -41.5625 423.0625 C-15.2992265 446.90868652 17.3172741 462.0408016 51.14501953 471.671875 C54.35959192 472.59535189 57.55424052 473.575841 60.75 474.5625 C61.70648438 474.85640625 62.66296875 475.1503125 63.6484375 475.453125 C65.59903278 476.06792581 67.53960377 476.71489777 69.47265625 477.3828125 C79.68613579 480.65442506 92.72040247 481.13979877 102.375 476.3125 C105.7920751 473.52665798 107.07132956 470.24959778 107.74609375 465.9453125 C108.35294085 443.0279101 91.34724823 420.65610808 79.375 402.3125 C78.45856324 400.89261853 77.54317369 399.47206052 76.62890625 398.05078125 C73.88959852 393.79686173 71.13340663 389.55405125 68.375 385.3125 C67.33457334 383.71097783 66.29421079 382.109414 65.25390625 380.5078125 C60.86801274 373.75732726 56.4817703 367.00709737 52.08203125 360.265625 C36.32397514 336.1068754 21.10966744 311.68997131 7.375 286.3125 C6.90739258 285.45640137 6.43978516 284.60030273 5.95800781 283.71826172 C-4.91797746 263.73354916 -13.8517407 243.17392529 -21.125 221.625 C-21.53443848 220.42093506 -21.94387695 219.21687012 -22.36572266 217.97631836 C-25.15167751 209.4894852 -27.00438199 201.078658 -28.625 192.3125 C-29.01966753 190.45808484 -29.41526824 188.60386757 -29.8125 186.75 C-33.47223828 163.67504 -30.40279351 137.74773654 -18.625 117.3125 C-15.43555486 116.33613924 -13.65327499 115.79836251 -10.625 117.3125 C-10.3216584 122.65805306 -11.07954123 125.97097407 -13.4375 130.75 C-28.04858238 162.96567576 -18.0158023 201.3164968 -6.265625 232.72265625 C2.07370162 254.36599308 12.32559252 274.80935599 23.95458984 294.85498047 C25.15860215 296.93809973 26.346035 299.0285139 27.51953125 301.12890625 C36.33886095 316.85516363 46.10066927 332.04360924 55.95507812 347.13623047 C57.44730926 349.42332612 58.93509142 351.71326585 60.421875 354.00390625 C64.93848826 360.9610486 69.45661154 367.91697584 74.0078125 374.8515625 C77.81704935 380.65887451 81.60275753 386.48109765 85.375 392.3125 C86.00728516 393.28735352 86.63957031 394.26220703 87.29101562 395.26660156 C108.93276869 428.76821215 108.93276869 428.76821215 114.859375 445.390625 C116.12128491 448.49316839 116.12128491 448.49316839 119 449.73046875 C120.11375 449.98441406 121.2275 450.23835938 122.375 450.5 C123.01526123 450.64598633 123.65552246 450.79197266 124.31518555 450.94238281 C126.6611542 451.44802347 129.01364268 451.88441768 131.375 452.3125 C132.34131348 452.49441895 133.30762695 452.67633789 134.30322266 452.86376953 C146.93355901 455.17708241 159.46271018 456.68920479 172.3125 456.8125 C173.86384644 456.84005371 173.86384644 456.84005371 175.4465332 456.86816406 C184.08822514 456.79826443 192.24144209 454.98715512 199.5625 450.25 C202.57534613 447.02937138 202.6712152 443.81725031 202.578125 439.52734375 C199.20525602 402.75009929 151.53902913 361.37318672 126.4609375 338.24121094 C124.38163427 336.31863422 122.31402426 334.38427422 120.25 332.4453125 C114.70414874 327.23750701 109.15407236 322.05461278 103.3984375 317.078125 C94.71253415 309.49891976 86.36859996 301.9105604 79.625 292.5 C74.56204777 285.62304885 68.11988424 279.57889731 61.625 274.0625 C50.27673299 264.29879594 40.14063152 253.4363274 31.375 241.3125 C30.94880371 240.73064941 30.52260742 240.14879883 30.08349609 239.54931641 C2.32567786 201.26810283 -3.71695441 153.80202092 2.93310547 107.95703125 C3.34103089 105.51578916 3.84142745 103.12781572 4.40625 100.71875 C5.51970186 95.94894854 6.04285331 91.18373518 6.5 86.3125 C6.62955078 85.05566406 6.62955078 85.05566406 6.76171875 83.7734375 C7.29931458 78.26094688 7.45315948 72.85065736 7.375 67.3125 C6.37082031 67.28671875 5.36664063 67.2609375 4.33203125 67.234375 C-3.95285451 66.92398437 -11.15546516 65.93601228 -19.05078125 63.15234375 C-21.64904923 62.15741883 -21.64904923 62.15741883 -24.625 62.3125 Z " fill="#010100" transform="translate(221.625,3.6875)"/>
<path d="M0 0 C1.03253906 0.00676758 1.03253906 0.00676758 2.0859375 0.01367188 C3.76566335 0.02533664 5.44534375 0.04326729 7.125 0.0625 C7.608059 1.45699109 8.08625517 2.85316707 8.5625 4.25 C8.82933594 5.02730469 9.09617188 5.80460937 9.37109375 6.60546875 C10.85543182 11.4430265 11.24495777 15.83208699 11.22265625 20.89453125 C11.21943359 22.18681641 11.21621094 23.47910156 11.21289062 24.81054688 C11.20453665 26.16536526 11.19607172 27.52018297 11.1875 28.875 C11.18248 30.24934735 11.17791797 31.62369645 11.17382812 32.99804688 C11.16205668 36.35290924 11.14561283 39.70768221 11.125 43.0625 C-9.93047139 43.84073098 -9.93047139 43.84073098 -17.875 39.0625 C-20.51107633 36.42642367 -19.19638368 27.81370859 -19.22509766 24.10766602 C-19.24164409 22.5411085 -19.26891747 20.97462609 -19.30712891 19.40844727 C-19.36194338 17.15080583 -19.38377711 14.89493629 -19.3984375 12.63671875 C-19.42110687 11.93866623 -19.44377625 11.24061371 -19.46713257 10.52140808 C-19.45097133 6.79498581 -19.15489812 5.35074982 -16.51855469 2.63574219 C-11.35337623 -0.4381782 -5.85453551 -0.07374899 0 0 Z " fill="#4C2C00" transform="translate(218.875,15.9375)"/>
<path d="M0 0 C7.28128007 1.48935274 12.37173921 10.85655779 16.4375 16.5625 C21.42001126 23.4518485 26.53155541 30.18521418 31.93041992 36.75390625 C38.57747675 44.89477529 38.57747675 44.89477529 39.125 50.1875 C38.75 53.5625 38.75 53.5625 37.6875 55.5 C34.52275683 57.23550432 32.29378206 57.04301282 28.75 56.5625 C24.33934551 53.31815281 20.94727787 49.66269954 17.625 45.3125 C17.16198486 44.71332764 16.69896973 44.11415527 16.22192383 43.49682617 C-7.00234233 13.16665681 -7.00234233 13.16665681 -6.3125 5.5 C-5.02197968 1.93209089 -3.67440255 0.91860064 0 0 Z " fill="#65961C" transform="translate(276.25,397.4375)"/>
<path d="M0 0 C3.25547962 1.19091009 4.81874195 2.72558644 6.734375 5.5625 C7.46563599 6.62682251 7.46563599 6.62682251 8.21166992 7.71264648 C8.71931885 8.46747314 9.22696777 9.2222998 9.75 10 C10.82198741 11.5549261 11.89620112 13.10831975 12.97265625 14.66015625 C13.75213623 15.78574951 13.75213623 15.78574951 14.54736328 16.93408203 C24.92640646 31.69500025 38.31293659 47.41141951 53.48828125 57.4375 C55 59 55 59 55.23046875 61.6875 C55.15441406 62.450625 55.07835937 63.21375 55 64 C52.80078125 64.75 52.80078125 64.75 50 65 C47.60546875 63.375 47.60546875 63.375 45.1875 61 C43.88232422 59.74896484 43.88232422 59.74896484 42.55078125 58.47265625 C41.70902344 57.65667969 40.86726563 56.84070313 40 56 C38.63348597 54.80274454 37.25922797 53.61423029 35.875 52.4375 C21.55047833 39.85708177 5.45940636 21.78479516 -2 4 C-2 3.01 -2 2.02 -2 1 C-1.34 0.67 -0.68 0.34 0 0 Z " fill="#64961B" transform="translate(293,313)"/>
<path d="M0 0 C3.875 0.875 3.875 0.875 5 2 C5.40078602 3.911441 5.76889418 5.82973316 6.125 7.75 C10.57429175 28.71915013 18.56707097 48.65455362 31.95239258 65.55053711 C33.9101926 68.08190981 34.96716201 69.65379376 35.2734375 72.8828125 C35.13808594 73.93082031 35.13808594 73.93082031 35 75 C29.87289627 74.31232395 28.20675162 72.64158531 25.01953125 68.74609375 C12.73832591 52.04650506 -3.55865006 24.46974016 -0.625 2.8125 C-0.41875 1.884375 -0.2125 0.95625 0 0 Z " fill="#64951B" transform="translate(180,295)"/>
<path d="M0 0 C6.21457565 4.09252543 12.44522112 10.39229337 16 17 C16.57579188 20.39077439 16.63530047 21.94116588 14.875 24.875 C12.00831994 26.59500804 10.31160122 26.46299638 7 26 C4.47126728 24.21567567 2.46028178 22.02529577 0.375 19.75 C-0.18445313 19.16347656 -0.74390625 18.57695312 -1.3203125 17.97265625 C-2.40420442 16.835081 -3.48033647 15.6900486 -4.54760742 14.53686523 C-5.78164266 13.23105723 -7.08568872 11.99198657 -8.40234375 10.76953125 C-10 9 -10 9 -9.9375 5.9375 C-8.11085089 0.21399945 -5.91140175 -0.59186196 0 0 Z " fill="#65961C" transform="translate(392,413)"/>
<path d="M0 0 C0.33 0 0.66 0 1 0 C2.32932505 5.31730022 2.89245416 10.54575105 1 15.75 C-1.79376806 18.89298907 -5.03445384 20.63755708 -9 22 C-10.32 22 -11.64 22 -13 22 C-12.33051933 13.07359101 -6.07670619 6.14204711 0 0 Z " fill="#4C2D00" transform="translate(422,436)"/>
<path d="M0 0 C0.33 0 0.66 0 1 0 C1.5815662 12.10519285 1.5815662 12.10519285 -2 17 C-6.89392721 21.4164709 -11.67814387 21.75012426 -18 22 C-13.80984539 14.90138513 -8.55684328 7.77842164 -1 4 C-0.34786708 1.97536745 -0.34786708 1.97536745 0 0 Z " fill="#4A2C00" transform="translate(328,461)"/>
</svg>
