<?xml version="1.0" encoding="UTF-8"?>
<svg version="1.1" xmlns="http://www.w3.org/2000/svg" width="512" height="512">
<path d="M0 0 C8.03979654 5.88996083 12.92995727 13.41795053 15.0625 23.1875 C15.16355901 24.54635335 15.22019471 25.90901508 15.23950195 27.27148438 C15.25875481 28.46553894 15.25875481 28.46553894 15.27839661 29.68371582 C15.28578354 30.5409021 15.29317047 31.39808838 15.30078125 32.28125 C15.308853 33.18258667 15.31692474 34.08392334 15.32524109 35.01257324 C15.33907349 36.9290984 15.34979942 38.8456481 15.35766602 40.76220703 C15.36905271 42.68383221 15.38928592 44.60542924 15.41918945 46.52685547 C15.6323114 60.24524135 14.33240912 72.85872664 11.0625 86.1875 C10.60194214 88.07275391 10.60194214 88.07275391 10.13208008 89.99609375 C9.66182155 91.86196311 9.17874685 93.72471136 8.67578125 95.58203125 C7.40292789 100.9896312 6.99862421 106.08929232 6.88671875 111.63671875 C6.86287109 112.81427734 6.83902344 113.99183594 6.81445312 115.20507812 C6.77128173 117.663231 6.74014268 120.12162303 6.72070312 122.58007812 C6.69298828 123.75376953 6.66527344 124.92746094 6.63671875 126.13671875 C6.62213623 127.20237061 6.60755371 128.26802246 6.5925293 129.3659668 C5.94026659 132.83819161 4.77604847 133.99972731 2.0625 136.1875 C1.4025 136.5175 0.7425 136.8475 0.0625 137.1875 C-0.2675 143.4575 -0.5975 149.7275 -0.9375 156.1875 C0.3825 156.5175 1.7025 156.8475 3.0625 157.1875 C5.53696775 159.53323822 6.03014959 160.89149955 6.40307617 164.30371094 C6.38736572 165.49770508 6.37165527 166.69169922 6.35546875 167.921875 C6.34580078 169.21738281 6.33613281 170.51289063 6.32617188 171.84765625 C6.30110783 173.21094354 6.27571302 174.57422479 6.25 175.9375 C6.23494518 177.31639184 6.22125817 178.69529935 6.20898438 180.07421875 C6.17361909 183.44570915 6.12425904 186.81640654 6.0625 190.1875 C6.67738281 190.46722656 7.29226563 190.74695313 7.92578125 191.03515625 C11.73749962 193.09083618 13.71651865 196.14955596 15.0625 200.1875 C15.15666099 202.04762366 15.19321137 203.9109333 15.1953125 205.7734375 C15.19660156 206.86914062 15.19789063 207.96484375 15.19921875 209.09375 C15.19535156 210.2384375 15.19148437 211.383125 15.1875 212.5625 C15.19136719 213.69945312 15.19523438 214.83640625 15.19921875 216.0078125 C15.19728516 217.65523438 15.19728516 217.65523438 15.1953125 219.3359375 C15.19418457 220.33802246 15.19305664 221.34010742 15.19189453 222.37255859 C15.0625 225.1875 15.0625 225.1875 14.49169922 227.92822266 C13.82153729 230.21081323 13.82153729 230.21081323 15.0625 232.1875 C15.36117388 236.41054263 15.34066506 240.64264676 15.375 244.875 C15.40400391 246.04740234 15.43300781 247.21980469 15.46289062 248.42773438 C15.51291518 255.24261765 15.3170451 259.74078815 11.0625 265.1875 C10.36775574 265.56965164 9.67301147 265.95180328 8.95721436 266.34553528 C6.4717368 268.76181611 6.56495995 270.7165857 6.50135803 274.08189392 C6.50890358 275.28598656 6.50890358 275.28598656 6.51660156 276.5144043 C6.50109505 277.78790237 6.50109505 277.78790237 6.48527527 279.08712769 C6.45575931 281.8955163 6.45434626 284.70318697 6.453125 287.51171875 C6.43814927 289.45800661 6.42142341 291.40428174 6.40301514 293.35054016 C6.35926117 298.47482881 6.33932472 303.59894602 6.32427979 308.72338867 C6.30473768 313.95176363 6.26276446 319.17995264 6.22265625 324.40820312 C6.147267 334.66791151 6.09702833 344.92757846 6.0625 355.1875 C6.84020752 355.45973389 7.61791504 355.73196777 8.41918945 356.01245117 C11.48319653 357.37451509 12.79630403 358.90175132 14.32568359 361.87353516 C15.92313303 366.89030976 15.50481685 372.16790198 15.375 377.375 C15.36533203 378.54998047 15.35566406 379.72496094 15.34570312 380.93554688 C15.23259976 389.5461556 15.23259976 389.5461556 14.48510742 392.36450195 C13.84484811 394.40504572 13.84484811 394.40504572 15.0625 397.1875 C15.37579624 401.41144711 15.38656956 405.64082802 15.4375 409.875 C15.47488281 411.03451172 15.51226562 412.19402344 15.55078125 413.38867188 C15.6238873 420.53275772 15.06705479 425.8048905 10.0625 431.1875 C9.0725 431.8475 8.0825 432.5075 7.0625 433.1875 C6.61096065 436.1091931 6.61096065 436.1091931 6.69360352 439.59326172 C6.68983704 440.2503714 6.68607056 440.90748108 6.68218994 441.58450317 C6.67574864 443.01299487 6.67609581 444.4415294 6.68237495 445.87002182 C6.69146379 448.13150507 6.68128735 450.39215533 6.66575623 452.65359497 C6.62559673 459.08333996 6.62445324 465.51302161 6.62670898 471.94287109 C6.62676008 475.87460139 6.60759071 479.80588398 6.57737541 483.73749161 C6.56654046 485.96460001 6.57868699 488.19085702 6.59120178 490.41793823 C6.5822967 491.7862838 6.57222207 493.15462242 6.56079102 494.52294922 C6.56095718 495.71604706 6.56112335 496.9091449 6.56129456 498.13839722 C6.0625 501.1875 6.0625 501.1875 4.68113708 503.57069397 C0.52727514 506.13538271 -3.54500392 505.75224448 -8.33398438 505.72094727 C-9.3912825 505.72956284 -10.44858063 505.73817841 -11.53791809 505.74705505 C-15.03594377 505.76977455 -18.53317227 505.76296515 -22.03125 505.75390625 C-24.45975992 505.75913894 -26.8882678 505.76541411 -29.31677246 505.77268982 C-34.40773072 505.78310497 -39.49840965 505.77851596 -44.58935547 505.76391602 C-51.12013526 505.74672199 -57.6500358 505.77022646 -64.18071747 505.80540562 C-69.19583998 505.82734266 -74.2107509 505.82594708 -79.22590637 505.8176403 C-81.63410914 505.81681886 -84.04232714 505.8237189 -86.45048523 505.83841133 C-89.81454893 505.85578923 -93.1770168 505.8413695 -96.54101562 505.81860352 C-97.53958084 505.83029572 -98.53814606 505.84198792 -99.56697083 505.85403442 C-106.22487115 505.76214609 -106.22487115 505.76214609 -109.55889893 503.07366943 C-111.2194047 499.59731859 -111.42017971 497.22859062 -111.39160156 493.37768555 C-111.39218567 492.71371262 -111.39276978 492.04973969 -111.39337158 491.36564636 C-111.39059867 489.18462698 -111.35954805 487.00499747 -111.328125 484.82421875 C-111.3206597 483.30679572 -111.31496813 481.78936302 -111.31097412 480.27192688 C-111.29574032 476.28833144 -111.2564788 472.3053243 -111.2121582 468.32196045 C-111.17115632 464.2531327 -111.15295267 460.1842094 -111.1328125 456.11523438 C-111.0899816 448.13905369 -111.0217585 440.16335014 -110.9375 432.1875 C-111.73460892 431.88842239 -112.53171783 431.58934479 -113.35298157 431.28120422 C-116.93038184 429.76733698 -117.65808804 428.13129873 -119.20068359 424.69287109 C-120.66686761 419.70745679 -120.38546554 414.65070101 -120.25 409.5 C-120.24033203 408.38560547 -120.23066406 407.27121094 -120.22070312 406.12304688 C-120.10872013 397.99697666 -120.10872013 397.99697666 -119.36010742 394.45776367 C-118.69717566 392.16536038 -118.69717566 392.16536038 -119.9375 390.1875 C-120.20825166 386.10981589 -120.16915813 382.02315152 -120.1875 377.9375 C-120.208125 376.80441406 -120.22875 375.67132813 -120.25 374.50390625 C-120.28411906 367.22801653 -119.78804591 362.46994681 -114.875 356.8125 C-112.9375 355.1875 -112.9375 355.1875 -110.9375 355.1875 C-110.95236172 343.91296487 -110.99389605 332.63887495 -111.06959057 321.36457443 C-111.10389758 316.1295472 -111.12897633 310.89481295 -111.13305664 305.65966797 C-111.13733162 300.60843732 -111.16572779 295.55786799 -111.21093178 290.50684357 C-111.22393243 288.57875672 -111.2282054 286.65059082 -111.22365379 284.72246552 C-111.21876597 282.02355839 -111.2447579 279.32659771 -111.27807617 276.62792969 C-111.26945053 275.82879654 -111.26082489 275.02966339 -111.25193787 274.20631409 C-111.33305757 270.29276932 -111.51332335 268.6022505 -114.36616516 265.81280518 C-115.21470566 265.27645447 -116.06324615 264.74010376 -116.9375 264.1875 C-121.11472847 258.51516806 -120.27304494 252.03905491 -120.125 245.3125 C-120.11146484 244.1471875 -120.09792969 242.981875 -120.08398438 241.78125 C-120.04875821 238.91618882 -119.99949715 236.05208623 -119.9375 233.1875 C-121.03082642 232.6910498 -121.03082642 232.6910498 -122.14624023 232.18457031 C-162.77270302 213.58797256 -191.88179437 187.31511585 -207.87402344 144.69140625 C-208.67332872 142.38955628 -209.41850135 140.08188372 -210.125 137.75 C-210.33358643 137.07074463 -210.54217285 136.39148926 -210.75708008 135.69165039 C-211.90618747 131.53654088 -212.0577884 128.35472663 -210.9375 124.1875 C-209.375 122.3125 -209.375 122.3125 -206.9375 121.1875 C-200.64745595 120.76268221 -195.772053 121.81012741 -189.875 123.9375 C-189.02228516 124.24187988 -188.16957031 124.54625977 -187.29101562 124.85986328 C-171.78717706 130.64157314 -156.57969821 138.43314682 -143.9375 149.1875 C-143.18984375 149.81011719 -142.4421875 150.43273437 -141.671875 151.07421875 C-140.07467085 152.42303879 -138.50195263 153.80082608 -136.9375 155.1875 C-137.72229698 153.0181425 -138.5140523 150.85185057 -139.3125 148.6875 C-139.56854004 147.99277588 -139.82458008 147.29805176 -140.08837891 146.58227539 C-141.80097715 142.01222815 -143.63366781 137.51063149 -145.5625 133.02734375 C-146.0157666 131.96902344 -146.4690332 130.91070312 -146.93603516 129.8203125 C-147.84165857 127.71800685 -148.75773653 125.62016879 -149.68505859 123.52734375 C-151.98580023 118.17391507 -153.65377171 114.03445709 -152.9375 108.1875 C-151.8125 105.8125 -151.8125 105.8125 -149.9375 104.1875 C-146.62563374 103.10754361 -144.70083797 102.94546601 -141.375 104 C-133.09880711 111.4273526 -129.59505464 126.43617879 -125.4375 136.5625 C-124.68393972 138.39076764 -123.93003586 140.2188937 -123.17578125 142.046875 C-121.73669274 145.53548118 -120.29929635 149.02477612 -118.86328125 152.51464844 C-116.57201481 158.07951527 -114.2603628 163.63574376 -111.9375 169.1875 C-111.83724302 163.49907339 -111.76538903 157.81118156 -111.71777344 152.12207031 C-111.69788572 150.1942446 -111.67076561 148.26647733 -111.63574219 146.33886719 C-111.41594228 133.91370757 -112.18928829 123.08436442 -115.9375 111.1875 C-119.50752834 99.70499198 -120.35975459 88.90740196 -120.4375 76.9375 C-120.44785278 76.20847473 -120.45820557 75.47944946 -120.46887207 74.72833252 C-120.7135009 52.86355527 -112.64360376 37.19065866 -97.75 21.625 C-74.21074798 -1.33223755 -30.6686177 -18.81479343 0 0 Z " fill="#010200" transform="translate(345.9375,6.8125)"/>
<path d="M0 0 C5.92267867 5.58330152 10.38647114 12.03655745 10.94795227 20.36184692 C10.95779648 21.15138763 10.96764069 21.94092834 10.9777832 22.75439453 C10.99703606 24.10828781 10.99703606 24.10828781 11.01667786 25.48953247 C11.02406479 26.46236176 11.03145172 27.43519104 11.0390625 28.4375 C11.04713425 29.45456024 11.05520599 30.47162048 11.06352234 31.51950073 C11.07735634 33.67981266 11.08808155 35.84014638 11.09594727 38.00048828 C11.10737211 40.17828925 11.12766952 42.35606438 11.1574707 44.53369141 C11.34652802 58.3633926 10.47191773 70.83239704 6.80078125 84.1796875 C6.23303288 86.49090456 5.66945883 88.80315876 5.11328125 91.1171875 C4.88253906 92.03371094 4.65179688 92.95023437 4.4140625 93.89453125 C2.42741792 104.53636625 2.59129207 115.38944064 2.52734375 126.17578125 C2.51935823 127.44397044 2.51935823 127.44397044 2.5112114 128.73777962 C2.48468984 133.19684052 2.46523323 137.65587522 2.45068359 142.11499023 C2.43725947 145.79590227 2.40922366 149.47627106 2.36865234 153.15698242 C2.31944375 157.6241697 2.29458153 162.09085903 2.28745651 166.55830574 C2.28074157 168.25482723 2.26551304 169.95133742 2.2415657 171.64770317 C2.21003437 174.01239772 2.20985563 176.37514175 2.21728516 178.73999023 C2.20087982 179.43768524 2.18447449 180.13538025 2.16757202 180.85421753 C2.14217101 183.06084351 2.14217101 183.06084351 2.80078125 186.1796875 C5.12757838 188.5468704 5.12757838 188.5468704 7.80078125 190.1796875 C10.761573 194.05130592 11.16889145 196.86238897 11.12890625 201.6875 C11.12375 202.92113281 11.11859375 204.15476562 11.11328125 205.42578125 C11.09265625 206.70582031 11.07203125 207.98585938 11.05078125 209.3046875 C11.045625 210.59246094 11.04046875 211.88023437 11.03515625 213.20703125 C10.95550399 222.71551927 10.95550399 222.71551927 9.80078125 226.1796875 C10.13078125 226.8396875 10.46078125 227.4996875 10.80078125 228.1796875 C11.1006285 232.75721764 11.07895353 237.34350373 11.11328125 241.9296875 C11.14228516 243.20585937 11.17128906 244.48203125 11.20117188 245.796875 C11.2810254 257.56605605 11.2810254 257.56605605 6.80078125 262.1796875 C5.7587706 262.74092819 5.7587706 262.74092819 4.69570923 263.31350708 C2.24829676 265.72379037 2.30217266 267.61313492 2.2364502 270.95507812 C2.24140503 271.74060059 2.24635986 272.52612305 2.25146484 273.33544922 C2.24124298 274.1666629 2.23102112 274.99787659 2.2204895 275.85427856 C2.19265447 278.60626915 2.19461395 281.35726025 2.19921875 284.109375 C2.19144637 286.02125421 2.18277735 287.93312996 2.17324829 289.84500122 C2.15831419 293.85495184 2.15891242 297.86455034 2.16943359 301.87451172 C2.18101698 307.01204996 2.14718436 312.14814471 2.10074425 317.28544426 C2.07126827 321.23520325 2.06952622 325.18461478 2.0757637 329.13446426 C2.07473704 331.02829978 2.06425679 332.92215469 2.04413986 334.81588364 C2.01944112 337.46658537 2.03296689 340.11447943 2.05615234 342.76513672 C2.04086487 343.54661072 2.02557739 344.32808472 2.00982666 345.13323975 C2.06666683 348.07542232 2.17376277 350.44738242 4.13863564 352.74218941 C5.62636053 353.97291036 7.21101711 355.08394601 8.80078125 356.1796875 C12.34873779 361.20670562 11.16983785 368.17666342 11.17578125 374.0546875 C11.20027344 375.32183594 11.22476563 376.58898437 11.25 377.89453125 C11.28712619 389.66353296 11.28712619 389.66353296 6.80078125 394.1796875 C1.38484495 398.84441228 -3.27795119 398.75180949 -10.25 398.69726562 C-11.90471817 398.70777954 -11.90471817 398.70777954 -13.59286499 398.71850586 C-17.23274034 398.73608476 -20.87183574 398.72446266 -24.51171875 398.7109375 C-27.04467925 398.71363242 -29.57763874 398.71751484 -32.1105957 398.72253418 C-37.41661391 398.72842913 -42.7223536 398.72024879 -48.02832031 398.70117188 C-54.15308542 398.67940466 -60.27731784 398.68645675 -66.40207005 398.7084775 C-72.3063708 398.72885181 -78.21050678 398.72665065 -84.11483765 398.71495056 C-86.62185745 398.71228324 -89.12889086 398.71555319 -91.63589478 398.72486877 C-95.14044141 398.73503337 -98.64396687 398.71953269 -102.1484375 398.69726562 C-103.18342377 398.70536255 -104.21841003 398.71345947 -105.28475952 398.72180176 C-111.25571062 398.65155896 -114.63475569 398.12312745 -119.19921875 394.1796875 C-124.82541085 388.24937691 -124.40351962 382.13032696 -124.44921875 374.3671875 C-124.46984375 373.50287109 -124.49046875 372.63855469 -124.51171875 371.74804688 C-124.55315824 364.88463089 -123.64388232 359.14291606 -119.13671875 353.6796875 C-117.19921875 352.1796875 -117.19921875 352.1796875 -115.19921875 352.1796875 C-115.2149292 351.32737549 -115.23063965 350.47506348 -115.24682617 349.59692383 C-115.29810837 346.41937524 -115.33564357 343.24203837 -115.36401367 340.06420898 C-115.37905307 338.69174233 -115.39949008 337.31932336 -115.42553711 335.94702148 C-115.46213096 333.96880094 -115.47738573 331.99022236 -115.4921875 330.01171875 C-115.51575317 328.22858276 -115.51575317 328.22858276 -115.53979492 326.40942383 C-115.15914005 322.79961501 -114.53170794 320.95588602 -112.19921875 318.1796875 C-110.54921875 317.8496875 -108.89921875 317.5196875 -107.19921875 317.1796875 C-107.19921875 310.5796875 -107.19921875 303.9796875 -107.19921875 297.1796875 C-108.84921875 296.8496875 -110.49921875 296.5196875 -112.19921875 296.1796875 C-115.26460268 292.48445872 -115.55907442 289.48953594 -115.4921875 284.78515625 C-115.48251953 283.58310547 -115.47285156 282.38105469 -115.46289062 281.14257812 C-115.43775391 279.89669922 -115.41261719 278.65082031 -115.38671875 277.3671875 C-115.36641602 275.46936523 -115.36641602 275.46936523 -115.34570312 273.53320312 C-115.31040193 270.41493107 -115.26108694 267.29752708 -115.19921875 264.1796875 C-115.82570313 263.87417969 -116.4521875 263.56867188 -117.09765625 263.25390625 C-120.67087816 261.42744524 -121.89731733 260.02062019 -123.2734375 256.1875 C-124.53521224 251.55681061 -124.45469179 247.01103284 -124.38671875 242.2421875 C-124.38607422 241.38689453 -124.38542969 240.53160156 -124.38476562 239.65039062 C-124.35741489 235.66630091 -124.19961872 231.80788609 -123.625 227.86328125 C-123.22539312 224.40613183 -123.46473431 222.49975569 -124.19921875 219.1796875 C-124.40638903 215.90924937 -124.42993258 212.64342554 -124.44921875 209.3671875 C-124.46984375 208.50287109 -124.49046875 207.63855469 -124.51171875 206.74804688 C-124.55315824 199.88463089 -123.64388232 194.14291606 -119.13671875 188.6796875 C-117.19921875 187.1796875 -117.19921875 187.1796875 -115.19921875 187.1796875 C-115.19081327 178.93662513 -115.2155711 170.6945362 -115.27949715 162.45174885 C-115.30822615 158.62172451 -115.3266978 154.7922967 -115.31933594 150.9621582 C-115.29420205 133.95915561 -115.66934668 118.33505759 -121.53881836 102.1346283 C-127.730438 83.80597495 -126.41910893 58.81249905 -118.9140625 41.15625 C-115.35175741 34.07133124 -110.44510261 28.08469274 -105.19921875 22.1796875 C-104.58433594 21.48101562 -103.96945312 20.78234375 -103.3359375 20.0625 C-79.96213452 -4.86288305 -29.77792724 -24.64744954 0 0 Z " fill="#010100" transform="translate(501.19921875,113.8203125)"/>
<path d="M0 0 C8.67407161 5.99857212 15.02484797 14.83387647 21.42504883 23.08398438 C25.15085269 27.87989092 28.9873467 32.57487112 32.86328125 37.25 C37.57595071 42.94038584 42.20728892 48.68106136 46.74780273 54.50952148 C50.78409208 59.68025556 54.91770521 64.76879345 59.08911133 69.83105469 C61.6923169 73.00597963 64.22019976 76.195775 66.59375 79.546875 C72.18937986 87.49544851 72.18937986 87.49544851 80.8828125 91.16015625 C84.53549078 92.24803479 85.85290878 94.60879301 87.86328125 97.75 C89.37782965 103.50672806 89.04745202 109.40312047 89.05078125 115.3125 C89.06302734 116.42947266 89.07527344 117.54644531 89.08789062 118.69726562 C89.11441347 133.94789966 86.78661909 146.32052193 76.10546875 157.70703125 C68.6616588 164.48945738 60.31376537 167.9872541 50.21112061 168.01742554 C48.26424095 168.03022049 48.26424095 168.03022049 46.2780304 168.04327393 C44.85690295 168.04257503 43.43577561 168.04165204 42.01464844 168.04052734 C40.50438608 168.04651774 38.99412678 168.05332446 37.48387146 168.06088257 C33.39481833 168.07849933 29.305849 168.08323616 25.21676159 168.08451414 C22.65758336 168.08593893 20.09842621 168.09021477 17.53925323 168.09550858 C8.59825801 168.11399567 -0.3426777 168.12218098 -9.28369141 168.12060547 C-17.59695206 168.11940494 -25.90995273 168.14049319 -34.22314763 168.1720928 C-41.37755395 168.19831131 -48.53187565 168.20897041 -55.6863296 168.20769465 C-59.95173847 168.20718659 -64.21691622 168.21278302 -68.48227692 168.23405075 C-72.49778359 168.25352708 -76.51284092 168.25349413 -80.52836418 168.23901749 C-81.99440867 168.23693976 -83.46048199 168.24156791 -84.92647743 168.2537384 C-98.14251745 168.3562691 -108.39713171 166.04771541 -118.13671875 156.75 C-128.61200074 145.77688283 -129.8197332 134.09938801 -129.71313477 119.5871582 C-129.69915152 116.92469958 -129.73357567 114.26568521 -129.77148438 111.60351562 C-129.77243476 109.89583248 -129.77058108 108.18814497 -129.765625 106.48046875 C-129.77888321 105.69286667 -129.79214142 104.90526459 -129.80580139 104.09379578 C-129.73724404 100.01938443 -129.32882219 97.48629704 -126.73339844 94.26000977 C-124.19017726 91.80167422 -123.1950491 91.06694039 -119.82421875 90.5 C-113.46121547 88.65065422 -110.90263002 83.90640159 -107.13671875 78.75 C-105.06053746 76.14366988 -102.94043178 73.5738641 -100.82421875 71 C-96.71099231 65.95544353 -92.64308166 60.8797936 -88.63671875 55.75 C-83.55066756 49.23776099 -78.34575888 42.82633817 -73.125 36.421875 C-70.77950342 33.54387546 -68.45070328 30.65344164 -66.13671875 27.75 C-65.52828125 26.99074219 -64.91984375 26.23148437 -64.29296875 25.44921875 C-63.08101661 23.93208301 -61.87101612 22.41336678 -60.66796875 20.88916016 C-45.08615461 1.1637446 -25.81026002 -15.09923804 0 0 Z " fill="#FB7F86" transform="translate(129.13671875,344.25)"/>
<path d="M0 0 C34.32 0 68.64 0 104 0 C104 5.94 104 11.88 104 18 C102.02 18.66 100.04 19.32 98 20 C95.59857747 22.40142253 95.74806457 22.92535015 95.73930359 26.19979858 C95.73221878 27.08025345 95.72513397 27.96070831 95.71783447 28.86784363 C95.72031189 29.83619644 95.72278931 30.80454926 95.7253418 31.80224609 C95.7176754 33.32923378 95.7176754 33.32923378 95.70985413 34.8870697 C95.69590789 38.26591811 95.69691883 41.64456366 95.69921875 45.0234375 C95.69533427 47.36512326 95.69100012 49.70680831 95.68623352 52.04849243 C95.67876025 56.96301555 95.67907038 61.87746685 95.68432617 66.79199219 C95.69011887 73.09617527 95.67319975 79.40006437 95.6499815 85.70419884 C95.63526259 90.54256923 95.63437001 95.38086855 95.63749123 100.21925735 C95.63697698 102.54372362 95.6317199 104.86819376 95.62167931 107.1926384 C95.60936963 110.44160905 95.61607428 113.69000369 95.62768555 116.93896484 C95.62004181 117.9032692 95.61239807 118.86757355 95.60452271 119.86109924 C95.61153702 120.74719376 95.61855133 121.63328827 95.6257782 122.54623413 C95.62552659 123.69826608 95.62552659 123.69826608 95.62526989 124.8735714 C96.11908744 127.67576886 96.98821734 128.99380759 99 131 C100.65 131.33 102.3 131.66 104 132 C104 137.94 104 143.88 104 150 C69.68 150 35.36 150 0 150 C0 144.06 0 138.12 0 132 C2.97 131.01 2.97 131.01 6 130 C8.56812773 126.1478084 8.28804485 122.96523118 8.265625 118.5 C8.26849518 117.25186523 8.26849518 117.25186523 8.27142334 115.97851562 C8.27278374 114.22004901 8.26909738 112.4615723 8.26074219 110.703125 C8.25004048 108.01018738 8.26064221 105.31791686 8.2734375 102.625 C8.27211588 100.91666519 8.26955343 99.2083308 8.265625 97.5 C8.26967346 96.69369141 8.27372192 95.88738281 8.27789307 95.05664062 C8.2453892 91.18525308 8.19689049 89.29533574 6 86 C4.35 85.34 2.7 84.68 1 84 C1 77.4 1 70.8 1 64 C2.98 63.01 4.96 62.02 7 61 C8.56682489 57.86635021 8.20502344 54.51266593 8.23828125 51.0703125 C8.246353 50.28357147 8.25442474 49.49683044 8.26274109 48.68624878 C8.27657904 47.02018436 8.2873025 45.35409161 8.29516602 43.68798828 C8.31238701 41.141706 8.35627417 38.59671963 8.40039062 36.05078125 C8.41051702 34.43230122 8.41903329 32.81381015 8.42578125 31.1953125 C8.44328934 30.4347757 8.46079742 29.67423889 8.47883606 28.89065552 C8.46463167 25.42405075 8.28447084 23.39224686 6.22338867 20.55029297 C3.87457712 18.71652661 3.87457712 18.71652661 0 18 C0 12.06 0 6.12 0 0 Z " fill="#BAEB6B" transform="translate(393,347)"/>
<path d="M0 0 C34.65 0 69.3 0 105 0 C105 5.94 105 11.88 105 18 C102.36 18.66 99.72 19.32 97 20 C96.93058157 34.02960727 96.8772302 48.05917389 96.84456348 62.08891773 C96.8288875 68.60304123 96.80761379 75.1170475 96.77368164 81.63110352 C96.74115739 87.91398463 96.72316156 94.19675276 96.71536827 100.47971153 C96.7098123 102.88037584 96.6989633 105.28103377 96.68280983 107.68165016 C96.66112805 111.03635798 96.65802923 114.39059506 96.65942383 117.74536133 C96.648638 118.74445526 96.63785217 119.74354919 96.6267395 120.7729187 C96.63086349 121.68577133 96.63498749 122.59862396 96.63923645 123.53913879 C96.63647107 124.33280255 96.63370569 125.12646631 96.63085651 125.94418049 C97.1087966 128.60590579 97.8110595 129.43016231 100 131 C101.65 131.33 103.3 131.66 105 132 C105 137.94 105 143.88 105 150 C70.68 150 36.36 150 1 150 C1 144.06 1 138.12 1 132 C3.97 131.01 3.97 131.01 7 130 C9.06724441 126.89913339 9.25191467 126.23026077 9.26742554 122.71791077 C9.27595551 121.84449539 9.28448547 120.97108002 9.29327393 120.07119751 C9.29236755 119.11579071 9.29146118 118.16038391 9.29052734 117.17602539 C9.29724457 116.16764114 9.30396179 115.1592569 9.31088257 114.12031555 C9.32991599 110.77937932 9.33378935 107.43864336 9.3359375 104.09765625 C9.34236125 101.77981991 9.34908929 99.46198439 9.35610962 97.14414978 C9.36809545 92.28268554 9.37178905 87.42129243 9.37060547 82.55981445 C9.3704021 76.32396791 9.3977169 70.08857622 9.43214989 63.85283756 C9.45436283 59.06507768 9.45844474 54.27742827 9.45738602 49.48962212 C9.45974995 47.19026559 9.46861774 44.89090637 9.48405075 42.59160042 C9.50359875 39.37853037 9.49791652 36.16645445 9.48583984 32.95336914 C9.49707886 31.99998657 9.50831787 31.046604 9.51989746 30.06433105 C9.49714584 24.94362935 9.49714584 24.94362935 7.28213501 20.44041443 C4.72238723 18.63461297 4.72238723 18.63461297 0 18 C0 12.06 0 6.12 0 0 Z " fill="#BAEB6B" transform="translate(241,243)"/>
<path d="M0 0 C-0.40436249 4.14122969 -0.89506117 7.96752849 -2.19140625 11.92578125 C-5.88458582 23.47630708 -6.50351952 34.53415409 -6.5 46.5625 C-6.50605759 47.7469017 -6.50605759 47.7469017 -6.51223755 48.95523071 C-6.5176277 51.22212634 -6.49860314 53.48722593 -6.46875 55.75390625 C-6.46834213 56.44059387 -6.46793427 57.12728149 -6.46751404 57.83477783 C-6.39904327 60.61022572 -6.29899942 62.55817701 -4.72070312 64.89038086 C-2.75353703 66.28965625 -2.75353703 66.28965625 1 67 C1 73.6 1 80.2 1 87 C-0.65 87.66 -2.3 88.32 -4 89 C-6.6270258 91.6270258 -6.24864641 93.51914431 -6.27789307 97.09580994 C-6.2738446 97.92915359 -6.26979614 98.76249725 -6.265625 99.62109375 C-6.26753845 100.47679459 -6.2694519 101.33249542 -6.27142334 102.21412659 C-6.27278558 104.02564792 -6.26908643 105.83717901 -6.26074219 107.64868164 C-6.25005619 110.42291211 -6.26062929 113.19649306 -6.2734375 115.97070312 C-6.27211565 117.7291681 -6.26955274 119.48763267 -6.265625 121.24609375 C-6.26967346 122.07741318 -6.27372192 122.9087326 -6.27789307 123.76524353 C-6.24596783 127.68544331 -6.22309218 129.66536173 -4 133 C-2.02 133.66 -0.04 134.32 2 135 C2 140.61 2 146.22 2 152 C-32.32 152 -66.64 152 -102 152 C-102 146.06 -102 140.12 -102 134 C-99.03 133.01 -99.03 133.01 -96 132 C-93.5787815 128.36817225 -93.7364811 126.64599157 -93.70947266 122.31982422 C-93.70275543 121.64443604 -93.69603821 120.96904785 -93.68911743 120.27319336 C-93.67008447 118.03361675 -93.66620798 115.79434008 -93.6640625 113.5546875 C-93.65762876 111.9854419 -93.65089997 110.41619748 -93.64389038 108.84695435 C-93.63189774 105.54654168 -93.62821064 102.24623371 -93.62939453 98.94580078 C-93.62959568 94.76481419 -93.60251806 90.58452315 -93.56785011 86.40369987 C-93.54531944 83.15350426 -93.54156517 79.90346767 -93.54261398 76.65320206 C-93.54028846 75.11538465 -93.53164208 73.57756072 -93.51594925 72.03982162 C-93.39958662 59.43749036 -94.99995184 47.54859765 -99.63491821 35.75509644 C-101 32 -101 32 -101 28 C-100.43152344 28.19335938 -99.86304688 28.38671875 -99.27734375 28.5859375 C-98.50519531 28.84632812 -97.73304688 29.10671875 -96.9375 29.375 C-95.80634766 29.75785156 -95.80634766 29.75785156 -94.65234375 30.1484375 C-93.77707031 30.42945312 -92.90179688 30.71046875 -92 31 C-90.44345703 31.52980469 -90.44345703 31.52980469 -88.85546875 32.0703125 C-66.67675625 37.41837083 -44.17403313 29.93687292 -25 19 C-24.01902344 18.45730469 -23.03804688 17.91460937 -22.02734375 17.35546875 C-15.04875093 13.2285599 -9.36999761 7.96544938 -3.5546875 2.37890625 C-1 0 -1 0 0 0 Z " fill="#BAEB6B" transform="translate(344,76)"/>
<path d="M0 0 C1.16989256 3.50967768 0.75827836 4.74268585 -0.1796875 8.26171875 C-0.44910156 9.29876953 -0.71851563 10.33582031 -0.99609375 11.40429688 C-1.28613281 12.48775391 -1.57617188 13.57121094 -1.875 14.6875 C-2.43946533 16.81519924 -2.99945947 18.94409035 -3.5546875 21.07421875 C-3.80718262 22.01869873 -4.05967773 22.96317871 -4.31982422 23.9362793 C-5.85739634 30.86197654 -6.145937 37.61069588 -6.12939453 44.6730957 C-6.13114685 45.60578781 -6.13289917 46.53847992 -6.13470459 47.49943542 C-6.13907822 50.55823672 -6.1362022 53.61697945 -6.1328125 56.67578125 C-6.13348654 58.8095043 -6.13445741 60.94322728 -6.13571167 63.07695007 C-6.13718231 67.53608943 -6.1350534 71.99520869 -6.13037109 76.4543457 C-6.12465684 82.17543531 -6.12796752 87.89647819 -6.13394356 93.61756611 C-6.13755151 98.01751561 -6.1364098 102.41745396 -6.13381577 106.81740379 C-6.13314804 108.92777703 -6.13396953 111.03815127 -6.13629532 113.14852333 C-6.13882753 116.09033533 -6.13497394 119.03207068 -6.12939453 121.97387695 C-6.13243088 123.28535202 -6.13243088 123.28535202 -6.13552856 124.62332153 C-6.12363883 127.99786086 -6.07457862 130.77626415 -5 134 C-2.69 134.33 -0.38 134.66 2 135 C2 140.94 2 146.88 2 153 C-32.32 153 -66.64 153 -102 153 C-102 147.06 -102 141.12 -102 135 C-99.03 134.01 -99.03 134.01 -96 133 C-93.5349016 129.3023524 -93.73576206 127.42827341 -93.70947266 123.01269531 C-93.70275543 122.30483383 -93.69603821 121.59697235 -93.68911743 120.86766052 C-93.67008632 118.52107748 -93.66620859 116.17478051 -93.6640625 113.828125 C-93.65763053 112.18682744 -93.65090188 110.54553102 -93.64389038 108.90423584 C-93.63189952 105.4541967 -93.62821065 102.00425773 -93.62939453 98.55419922 C-93.6295961 94.17349123 -93.60247272 89.79344395 -93.56785011 85.41289139 C-93.54537923 82.01523006 -93.54156334 78.61772154 -93.54261398 75.21999359 C-93.54028136 73.607956 -93.53159274 71.99591265 -93.51594925 70.38394928 C-93.40311496 57.53802785 -95.57328547 46.91390864 -99.8125 34.75 C-101 31 -101 31 -100 28 C-99.50371094 28.26554687 -99.00742187 28.53109375 -98.49609375 28.8046875 C-97.47708984 29.33449219 -97.47708984 29.33449219 -96.4375 29.875 C-95.77621094 30.22304687 -95.11492187 30.57109375 -94.43359375 30.9296875 C-78.62905831 37.88063888 -58.68104324 35.00600902 -43 29 C-26.36639631 22.38291613 -12.3215416 12.94106045 0 0 Z " fill="#BAEB6B" transform="translate(495,179)"/>
<path d="M0 0 C8.67407161 5.99857212 15.02484797 14.83387647 21.42504883 23.08398438 C25.15085269 27.87989092 28.9873467 32.57487112 32.86328125 37.25 C37.57595071 42.94038584 42.20728892 48.68106136 46.74780273 54.50952148 C50.78409208 59.68025556 54.91770521 64.76879345 59.08911133 69.83105469 C61.6923169 73.00597963 64.22019976 76.195775 66.59375 79.546875 C72.18937986 87.49544851 72.18937986 87.49544851 80.8828125 91.16015625 C84.53549078 92.24803479 85.85290878 94.60879301 87.86328125 97.75 C89.37782965 103.50672806 89.04745202 109.40312047 89.05078125 115.3125 C89.06302734 116.42947266 89.07527344 117.54644531 89.08789062 118.69726562 C89.11441347 133.94789966 86.78661909 146.32052193 76.10546875 157.70703125 C68.6616588 164.48945738 60.31376537 167.9872541 50.21112061 168.01742554 C48.26424095 168.03022049 48.26424095 168.03022049 46.2780304 168.04327393 C44.85690295 168.04257503 43.43577561 168.04165204 42.01464844 168.04052734 C40.50438608 168.04651774 38.99412678 168.05332446 37.48387146 168.06088257 C33.39481833 168.07849933 29.305849 168.08323616 25.21676159 168.08451414 C22.65758336 168.08593893 20.09842621 168.09021477 17.53925323 168.09550858 C8.59825801 168.11399567 -0.3426777 168.12218098 -9.28369141 168.12060547 C-17.59695206 168.11940494 -25.90995273 168.14049319 -34.22314763 168.1720928 C-41.37755395 168.19831131 -48.53187565 168.20897041 -55.6863296 168.20769465 C-59.95173847 168.20718659 -64.21691622 168.21278302 -68.48227692 168.23405075 C-72.49778359 168.25352708 -76.51284092 168.25349413 -80.52836418 168.23901749 C-81.99440867 168.23693976 -83.46048199 168.24156791 -84.92647743 168.2537384 C-98.14251745 168.3562691 -108.39713171 166.04771541 -118.13671875 156.75 C-128.61200074 145.77688283 -129.8197332 134.09938801 -129.71313477 119.5871582 C-129.69915152 116.92469958 -129.73357567 114.26568521 -129.77148438 111.60351562 C-129.77243476 109.89583248 -129.77058108 108.18814497 -129.765625 106.48046875 C-129.77888321 105.69286667 -129.79214142 104.90526459 -129.80580139 104.09379578 C-129.73724404 100.01938443 -129.32882219 97.48629704 -126.73339844 94.26000977 C-124.19017726 91.80167422 -123.1950491 91.06694039 -119.82421875 90.5 C-113.46121547 88.65065422 -110.90263002 83.90640159 -107.13671875 78.75 C-105.06053746 76.14366988 -102.94043178 73.5738641 -100.82421875 71 C-96.71099231 65.95544353 -92.64308166 60.8797936 -88.63671875 55.75 C-83.55066756 49.23776099 -78.34575888 42.82633817 -73.125 36.421875 C-70.77950342 33.54387546 -68.45070328 30.65344164 -66.13671875 27.75 C-65.52828125 26.99074219 -64.91984375 26.23148437 -64.29296875 25.44921875 C-63.08101661 23.93208301 -61.87101612 22.41336678 -60.66796875 20.88916016 C-45.08615461 1.1637446 -25.81026002 -15.09923804 0 0 Z M-52.4921875 35.3515625 C-55.49093888 39.22112797 -58.58994793 43.00406084 -61.69921875 46.78515625 C-70.64698598 57.66873851 -79.4685438 68.64260889 -88.13671875 79.75 C-88.87535156 80.68585938 -89.61398438 81.62171875 -90.375 82.5859375 C-91.01824219 83.40320313 -91.66148438 84.22046875 -92.32421875 85.0625 C-92.87464844 85.75988281 -93.42507812 86.45726562 -93.9921875 87.17578125 C-95.23472748 88.56041907 -95.23472748 88.56041907 -95.13671875 89.75 C-93.47754425 89.75546844 -93.47754425 89.75546844 -91.78485107 89.76104736 C-81.36689018 89.79796921 -70.94922564 89.85571103 -60.53149033 89.93390274 C-55.17544061 89.97343236 -49.81955666 90.00559393 -44.46337891 90.02099609 C-39.29550869 90.03612653 -34.12809403 90.07050775 -28.96042633 90.11830902 C-26.98768317 90.13316015 -25.01487499 90.14104314 -23.04207611 90.14188385 C-20.28113588 90.14424405 -17.52146433 90.17124668 -14.76074219 90.20410156 C-13.94290756 90.1990712 -13.12507294 90.19404083 -12.28245544 90.18885803 C-8.69492538 90.2550237 -6.55742331 90.44134429 -3.62506104 92.5927124 C-1.61350116 95.50838121 -1.62008808 97.28119405 -2.13671875 100.75 C-3.71482911 102.85049625 -4.60222253 103.65071953 -7.20815563 104.13476086 C-8.40971279 104.1416743 -8.40971279 104.1416743 -9.63554382 104.14872742 C-10.55681061 104.16126556 -11.47807739 104.17380371 -12.42726135 104.1867218 C-13.93992836 104.18456917 -13.93992836 104.18456917 -15.4831543 104.18237305 C-16.54673157 104.1925647 -17.61030884 104.20275635 -18.70611572 104.21325684 C-22.22860912 104.24349916 -25.75083109 104.25267011 -29.2734375 104.26171875 C-31.71296602 104.27855707 -34.15248582 104.29670614 -36.59199524 104.31611633 C-43.018293 104.36371425 -49.44455542 104.39346036 -55.87097168 104.41955566 C-62.42642195 104.44931176 -68.9817503 104.49585905 -75.53710938 104.54101562 C-88.40357965 104.62716018 -101.27007949 104.69502585 -114.13671875 104.75 C-114.25383886 109.22894321 -114.32427955 113.70748714 -114.38671875 118.1875 C-114.42023438 119.44755859 -114.45375 120.70761719 -114.48828125 122.00585938 C-114.58574395 131.33791313 -113.0724676 137.26003116 -108.01171875 145 C-99.87240473 152.7854308 -91.33370454 153.48274848 -80.48242188 153.39697266 C-79.02919932 153.40376129 -77.57598537 153.41267137 -76.12278748 153.42352295 C-72.20319411 153.44617553 -68.28426414 153.43753889 -64.36466026 153.42162752 C-60.24671119 153.40889507 -56.12881577 153.4207289 -52.01086426 153.42855835 C-45.09779754 153.43763367 -38.18499863 153.4257229 -31.27197266 153.40185547 C-23.29991012 153.37464809 -15.32848712 153.38346376 -7.35644007 153.4109875 C-0.48984158 153.43373823 6.3765653 153.43684964 13.24318933 153.42379415 C17.33471299 153.41603225 21.42593686 153.4148674 25.5174408 153.43147659 C29.36570339 153.44600951 33.21314816 153.43574109 37.06132317 153.40700531 C38.46649257 153.40044116 39.8717318 153.40221146 41.27687263 153.41331863 C50.68122616 153.48075588 58.61081475 152.58802913 65.76892853 145.99471474 C73.49151843 137.82918258 73.25719083 129.54969247 73.05078125 118.8125 C73.03571117 117.44728034 73.02202686 116.08204465 73.00976562 114.71679688 C72.97454289 111.39411904 72.92528166 108.07226819 72.86328125 104.75 C72.24353928 104.74635437 71.6237973 104.74270874 70.98527527 104.73895264 C64.5450568 104.6971989 58.10555575 104.62790393 51.66577148 104.54248047 C49.26122202 104.51422413 46.85657886 104.49303294 44.4519043 104.47900391 C40.99869657 104.45763945 37.54662095 104.41102094 34.09375 104.359375 C33.01554489 104.35814636 31.93733978 104.35691772 30.82646179 104.35565186 C29.82565079 104.33593323 28.82483978 104.3162146 27.79370117 104.29589844 C26.91211838 104.28701599 26.03053558 104.27813354 25.12223816 104.26898193 C22.86328125 103.75 22.86328125 103.75 21.08247375 101.87213135 C19.54479152 99.19563551 19.33111391 97.79095626 19.86328125 94.75 C22.12009383 91.74875752 23.32643638 90.84135351 27.07128906 90.20410156 C28.30717773 90.1831543 29.54306641 90.16220703 30.81640625 90.140625 C31.47662781 90.12408875 32.13684937 90.10755249 32.81707764 90.09051514 C34.91590751 90.04211549 37.01401347 90.02068481 39.11328125 90 C40.54040085 89.97183317 41.96748684 89.94190472 43.39453125 89.91015625 C46.88395734 89.83636237 50.37324597 89.78673721 53.86328125 89.75 C51.69387838 86.44546137 49.5323351 83.2061576 47.015625 80.15625 C46.23977051 79.21011841 46.23977051 79.21011841 45.44824219 78.24487305 C44.90458008 77.58656494 44.36091797 76.92825684 43.80078125 76.25 C39.51539603 71.02151546 35.27302406 65.76654406 31.11328125 60.4375 C27.24067415 55.48337885 23.30787981 50.58661261 19.3125 45.73046875 C16.29599373 42.05966447 13.29747285 38.37448409 10.30078125 34.6875 C9.74213379 34.00155762 9.18348633 33.31561523 8.60791016 32.60888672 C4.89276896 28.04087451 1.2347216 23.43287246 -2.35546875 18.765625 C-7.07407428 13.42615032 -12.35490354 10.44386479 -19.37109375 9.42578125 C-35.17721505 8.63547519 -43.87417811 24.22293781 -52.4921875 35.3515625 Z " fill="#020101" transform="translate(129.13671875,344.25)"/>
<path d="M0 0 C34.32 0 68.64 0 104 0 C104 5.94 104 11.88 104 18 C101.69 18.66 99.38 19.32 97 20 C95.58869497 22.82261007 95.83605673 25.22081484 95.79467773 28.37744141 C95.78464501 29.04179892 95.77461229 29.70615643 95.76427555 30.39064598 C95.73285716 32.54424918 95.70810576 34.69787076 95.68359375 36.8515625 C95.66494263 38.16664795 95.6462915 39.4817334 95.6270752 40.83666992 C95.55859199 45.76604261 95.49856197 50.6955298 95.4375 55.625 C95.293125 66.63875 95.14875 77.6525 95 89 C66.62 89 38.24 89 9 89 C8.75 56.25 8.75 56.25 8.70214844 45.91894531 C8.67278907 43.22198772 8.64196517 40.52504549 8.609375 37.828125 C8.60907288 37.12870789 8.60877075 36.42929077 8.60845947 35.7086792 C8.60604009 33.64270131 8.57869498 31.57838491 8.54589844 29.51269531 C8.53701599 28.34909485 8.52813354 27.18549438 8.51898193 25.9866333 C7.88706152 22.35006248 6.92940778 21.18852299 4 19 C2.68 18.67 1.36 18.34 0 18 C0 12.06 0 6.12 0 0 Z " fill="#BAEB6B" transform="translate(242,408)"/>
<path d="M0 0 C5.15168559 3.18800297 8.78992101 7.87868233 12.53125 12.56640625 C12.95486816 13.09556641 13.37848633 13.62472656 13.81494141 14.16992188 C16.08131603 17.0167407 18.31883305 19.88484927 20.546875 22.76171875 C23.79282597 26.93165172 27.1583914 30.99893371 30.53125 35.06640625 C35.23830827 40.74988472 39.86779395 46.48098971 44.39819336 52.30615234 C46.90422808 55.52058549 49.44646975 58.6999568 52.03125 61.8515625 C52.62349365 62.57400146 53.2157373 63.29644043 53.82592773 64.04077148 C54.97836461 65.44276243 56.13397916 66.84214918 57.29321289 68.23852539 C58.0781311 69.19359985 58.0781311 69.19359985 58.87890625 70.16796875 C59.57512085 71.00835693 59.57512085 71.00835693 60.28540039 71.86572266 C61.61598249 73.68207282 62.58052801 75.52918459 63.53125 77.56640625 C62.6434082 77.57575195 61.75556641 77.58509766 60.84082031 77.59472656 C57.53779081 77.63881306 54.23604993 77.70045371 50.93359375 77.77392578 C49.50598063 77.80210236 48.07821247 77.82333352 46.65039062 77.83740234 C44.59424668 77.85888017 42.53995998 77.90554599 40.484375 77.95703125 C39.24848633 77.97797852 38.01259766 77.99892578 36.73925781 78.02050781 C32.97783339 78.66057973 31.8070972 79.56152342 29.53125 82.56640625 C29.03625 84.05140625 29.03625 84.05140625 28.53125 85.56640625 C21.93125 85.56640625 15.33125 85.56640625 8.53125 85.56640625 C7.54125 83.58640625 6.55125 81.60640625 5.53125 79.56640625 C2.28278725 77.94217488 -1.2943112 78.38599853 -4.86572266 78.36108398 C-5.73408249 78.35118439 -6.60244232 78.34128479 -7.49711609 78.33108521 C-10.37565355 78.29942467 -13.25420753 78.2746948 -16.1328125 78.25 C-18.12536047 78.2294344 -20.11790405 78.20843804 -22.11044312 78.18702698 C-27.36129192 78.13176558 -32.61218036 78.08237426 -37.86309814 78.03417969 C-43.21866392 77.98399434 -48.57417196 77.92829281 -53.9296875 77.87304688 C-64.44265904 77.76541555 -74.95568066 77.66398164 -85.46875 77.56640625 C-81.1126841 70.99212216 -81.1126841 70.99212216 -78.62109375 67.97265625 C-78.10426025 67.34238525 -77.58742676 66.71211426 -77.05493164 66.06274414 C-76.5108667 65.40395264 -75.96680176 64.74516113 -75.40625 64.06640625 C-71.22347768 58.96364697 -67.08376149 53.83571453 -63.03125 48.62890625 C-58.35303075 42.62893722 -53.52864205 36.75800184 -48.67358398 30.90063477 C-44.90601996 26.34442648 -41.22239962 21.73373046 -37.59375 17.06640625 C-17.98518127 -7.96565899 -17.98518127 -7.96565899 0 0 Z " fill="#FDF7DD" transform="translate(119.46875,356.43359375)"/>
<path d="M0 0 C4.37577041 3.36433929 6.80402108 6.84183395 7.64453125 12.29296875 C7.96170604 26.83975776 2.51148159 37.03280261 -7.08984375 47.9765625 C-24.09167825 65.07311474 -45.88413602 75.23135825 -69.98803711 75.30541992 C-77.71210104 75.13974356 -83.69409298 73.69979446 -89.89453125 68.796875 C-95.47655669 62.35607641 -96.4320953 58.04794474 -96.19921875 49.65234375 C-95.06841736 35.34335687 -84.14778371 23.94931814 -73.89453125 14.796875 C-55.28800813 -0.58198595 -22.543676 -14.31639631 0 0 Z " fill="#FDF7DD" transform="translate(337.89453125,20.203125)"/>
<path d="M0 0 C4.77187741 5.14860457 6.49409841 9.21872548 6.30078125 16.16796875 C4.80482524 30.25326889 -4.33957619 43.06301137 -15 52 C-33.56742186 66.89613617 -55.02482101 75.14064098 -79 73 C-85.83450409 71.39919989 -91.66345046 68.33792791 -95.75 62.5 C-98.94245027 56.11509946 -99.04373197 48.86435397 -97.19921875 42.03515625 C-89.45334382 21.77876168 -72.10465643 8.56382358 -53.1875 -0.6484375 C-36.65799304 -7.65727256 -15.21166117 -11.76368464 0 0 Z " fill="#FDF7DD" transform="translate(491,126)"/>
<path d="M0 0 C-0.40436249 4.14122969 -0.89506117 7.96752849 -2.19140625 11.92578125 C-5.88458582 23.47630708 -6.50351952 34.53415409 -6.5 46.5625 C-6.50605759 47.7469017 -6.50605759 47.7469017 -6.51223755 48.95523071 C-6.5176277 51.22212634 -6.49860314 53.48722593 -6.46875 55.75390625 C-6.46834213 56.44059387 -6.46793427 57.12728149 -6.46751404 57.83477783 C-6.39904327 60.61022572 -6.29899942 62.55817701 -4.72070312 64.89038086 C-2.75353703 66.28965625 -2.75353703 66.28965625 1 67 C1 73.6 1 80.2 1 87 C-0.65 87.66 -2.3 88.32 -4 89 C-6.6270258 91.6270258 -6.24864641 93.51914431 -6.27789307 97.09580994 C-6.2738446 97.92915359 -6.26979614 98.76249725 -6.265625 99.62109375 C-6.26753845 100.47679459 -6.2694519 101.33249542 -6.27142334 102.21412659 C-6.27278558 104.02564792 -6.26908643 105.83717901 -6.26074219 107.64868164 C-6.25005619 110.42291211 -6.26062929 113.19649306 -6.2734375 115.97070312 C-6.27211565 117.7291681 -6.26955274 119.48763267 -6.265625 121.24609375 C-6.26967346 122.07741318 -6.27372192 122.9087326 -6.27789307 123.76524353 C-6.24596783 127.68544331 -6.22309218 129.66536173 -4 133 C-2.02 133.66 -0.04 134.32 2 135 C2 140.61 2 146.22 2 152 C-3.61 152 -9.22 152 -15 152 C-15.02578125 150.60265625 -15.0515625 149.2053125 -15.078125 147.765625 C-15.13440784 145.92705217 -15.19175514 144.08851172 -15.25 142.25 C-15.26417969 141.32960937 -15.27835937 140.40921875 -15.29296875 139.4609375 C-15.439247 134.10514233 -15.439247 134.10514233 -17.796875 129.421875 C-20.15340755 127.7333584 -20.15340755 127.7333584 -24 127 C-24.33 119.41 -24.66 111.82 -25 104 C-25.99 104.495 -25.99 104.495 -27 105 C-31.00686356 105.44520706 -33.14702112 105.63426635 -36.4375 103.1875 C-38.746574 98.47698905 -38.76844855 94.14939748 -38 89 C-36.4375 86.3125 -36.4375 86.3125 -34 85 C-28.02941176 84.48529412 -28.02941176 84.48529412 -25 86 C-24.92558011 81.81912848 -24.87127182 77.6386127 -24.83520508 73.45727539 C-24.8201624 72.03630859 -24.79972296 70.61538787 -24.77368164 69.19458008 C-24.73709653 67.14653114 -24.72022903 65.0990985 -24.70703125 63.05078125 C-24.6913208 61.82012939 -24.67561035 60.58947754 -24.65942383 59.3215332 C-25.02894561 55.71770247 -25.8459447 53.87677381 -28 51 C-32.20753301 48.15570769 -36.24359226 49.08851566 -41 50 C-44.36577487 50.80996402 -47.72113964 51.63831059 -51.06347656 52.53955078 C-55.7015368 53.76970494 -60.22688067 54.48916449 -65 55 C-64.67902344 55.54785156 -64.35804688 56.09570312 -64.02734375 56.66015625 C-62.14621937 60.9445422 -62.34351788 65.4249287 -63 70 C-65.125 73.1875 -65.125 73.1875 -68 75 C-71.0625 75.5625 -71.0625 75.5625 -74 75 C-76.98829947 72.75202065 -77.90928369 71.61579464 -78.4609375 67.87109375 C-78.41839844 66.17146484 -78.41839844 66.17146484 -78.375 64.4375 C-78.36210937 63.30183594 -78.34921875 62.16617188 -78.3359375 60.99609375 C-78 58 -78 58 -76 55 C-76.6290625 55.02320313 -77.258125 55.04640625 -77.90625 55.0703125 C-78.7621875 55.08835938 -79.618125 55.10640625 -80.5 55.125 C-81.3353125 55.14820313 -82.170625 55.17140625 -83.03125 55.1953125 C-84.0109375 55.13085938 -84.990625 55.06640625 -86 55 C-86.65613281 54.9705127 -87.31226563 54.94102539 -87.98828125 54.91064453 C-90.35844922 54.60667818 -91.93558812 54.2199295 -94 53 C-96.03476025 49.74914058 -96.98493441 46.30277387 -98 42.625 C-98.44666016 41.18640625 -98.44666016 41.18640625 -98.90234375 39.71875 C-100.14652066 35.60207247 -101 32.33618303 -101 28 C-100.43152344 28.19335938 -99.86304688 28.38671875 -99.27734375 28.5859375 C-98.50519531 28.84632812 -97.73304688 29.10671875 -96.9375 29.375 C-95.80634766 29.75785156 -95.80634766 29.75785156 -94.65234375 30.1484375 C-93.77707031 30.42945312 -92.90179688 30.71046875 -92 31 C-90.44345703 31.52980469 -90.44345703 31.52980469 -88.85546875 32.0703125 C-66.67675625 37.41837083 -44.17403313 29.93687292 -25 19 C-24.01902344 18.45730469 -23.03804688 17.91460937 -22.02734375 17.35546875 C-15.04875093 13.2285599 -9.36999761 7.96544938 -3.5546875 2.37890625 C-1 0 -1 0 0 0 Z " fill="#9FE22D" transform="translate(344,76)"/>
<path d="M0 0 C1.16989256 3.50967768 0.75827836 4.74268585 -0.1796875 8.26171875 C-0.44910156 9.29876953 -0.71851563 10.33582031 -0.99609375 11.40429688 C-1.28613281 12.48775391 -1.57617188 13.57121094 -1.875 14.6875 C-2.43946533 16.81519924 -2.99945947 18.94409035 -3.5546875 21.07421875 C-3.80718262 22.01869873 -4.05967773 22.96317871 -4.31982422 23.9362793 C-5.85739634 30.86197654 -6.145937 37.61069588 -6.12939453 44.6730957 C-6.13114685 45.60578781 -6.13289917 46.53847992 -6.13470459 47.49943542 C-6.13907822 50.55823672 -6.1362022 53.61697945 -6.1328125 56.67578125 C-6.13348654 58.8095043 -6.13445741 60.94322728 -6.13571167 63.07695007 C-6.13718231 67.53608943 -6.1350534 71.99520869 -6.13037109 76.4543457 C-6.12465684 82.17543531 -6.12796752 87.89647819 -6.13394356 93.61756611 C-6.13755151 98.01751561 -6.1364098 102.41745396 -6.13381577 106.81740379 C-6.13314804 108.92777703 -6.13396953 111.03815127 -6.13629532 113.14852333 C-6.13882753 116.09033533 -6.13497394 119.03207068 -6.12939453 121.97387695 C-6.13243088 123.28535202 -6.13243088 123.28535202 -6.13552856 124.62332153 C-6.12363883 127.99786086 -6.07457862 130.77626415 -5 134 C-2.69 134.33 -0.38 134.66 2 135 C2 140.94 2 146.88 2 153 C-3.61 153 -9.22 153 -15 153 C-15.02578125 151.51886719 -15.0515625 150.03773438 -15.078125 148.51171875 C-15.13439851 146.57028272 -15.19174601 144.62887761 -15.25 142.6875 C-15.26417969 141.71103516 -15.27835937 140.73457031 -15.29296875 139.72851562 C-15.32519531 138.79072266 -15.35742188 137.85292969 -15.390625 136.88671875 C-15.4220459 135.59060669 -15.4220459 135.59060669 -15.45410156 134.26831055 C-15.81892603 131.86680165 -15.81892603 131.86680165 -17.78808594 130.25708008 C-20.18607249 128.76330314 -20.18607249 128.76330314 -24 128 C-24 120.41 -24 112.82 -24 105 C-24.99 105.495 -24.99 105.495 -26 106 C-31.84923339 106.46422487 -31.84923339 106.46422487 -34 106 C-36.48584811 103.68810515 -36.967644 102.25408973 -37.3984375 98.87109375 C-37.39070313 97.73800781 -37.38296875 96.60492188 -37.375 95.4375 C-37.38660156 93.73400391 -37.38660156 93.73400391 -37.3984375 91.99609375 C-37 89 -37 89 -35.73046875 87.11328125 C-32.57611561 85.08395699 -29.66858299 85.7670741 -26 86 C-25.34 86.33 -24.68 86.66 -24 87 C-24.01946311 82.67575602 -24.07130431 78.35345018 -24.15258789 74.0300293 C-24.17571993 72.56074053 -24.1901524 71.09128708 -24.19555664 69.62182617 C-24.20488279 67.50335655 -24.24594127 65.38745935 -24.29296875 63.26953125 C-24.3086792 61.99698486 -24.32438965 60.72443848 -24.34057617 59.41333008 C-25.16104178 55.16641053 -26.6967984 53.6982448 -30 51 C-35.40784913 48.29607544 -43.04402741 51.51664445 -48.44140625 53.234375 C-53.90849309 54.8703277 -59.29055322 56 -65 56 C-64.34 56.99 -63.68 57.98 -63 59 C-62.34211046 64.37021463 -62.19815681 69.33216617 -64.5625 74.25 C-67 76 -67 76 -70.5 76.625 C-74 76 -74 76 -76.4375 74.1875 C-78.70450973 69.56280016 -78.67495057 65.06997754 -78 60 C-77.34 59.01 -76.68 58.02 -76 57 C-81.94 56.01 -87.88 55.02 -94 54 C-94.98375758 50.79301044 -95.96213817 47.58454304 -96.9375 44.375 C-97.21529297 43.47136719 -97.49308594 42.56773437 -97.77929688 41.63671875 C-99.15155254 37.10662173 -100.38212141 32.7083913 -101 28 C-100.18015625 28.34933594 -99.3603125 28.69867188 -98.515625 29.05859375 C-97.43796875 29.51363281 -96.3603125 29.96867187 -95.25 30.4375 C-94.18265625 30.88996094 -93.1153125 31.34242188 -92.015625 31.80859375 C-75.41803023 38.36593365 -55.39212758 33.92976441 -39.42578125 27.578125 C-24.22140517 20.88460086 -11.43943855 12.01460585 0 0 Z " fill="#A0E42E" transform="translate(495,179)"/>
<path d="M0 0 C34.65 0 69.3 0 105 0 C105 5.94 105 11.88 105 18 C102.36 18.66 99.72 19.32 97 20 C96.93058157 34.02960727 96.8772302 48.05917389 96.84456348 62.08891773 C96.8288875 68.60304123 96.80761379 75.1170475 96.77368164 81.63110352 C96.74115739 87.91398463 96.72316156 94.19675276 96.71536827 100.47971153 C96.7098123 102.88037584 96.6989633 105.28103377 96.68280983 107.68165016 C96.66112805 111.03635798 96.65802923 114.39059506 96.65942383 117.74536133 C96.648638 118.74445526 96.63785217 119.74354919 96.6267395 120.7729187 C96.63086349 121.68577133 96.63498749 122.59862396 96.63923645 123.53913879 C96.63647107 124.33280255 96.63370569 125.12646631 96.63085651 125.94418049 C97.1087966 128.60590579 97.8110595 129.43016231 100 131 C101.65 131.33 103.3 131.66 105 132 C105 137.94 105 143.88 105 150 C99.39 150 93.78 150 88 150 C87.97421875 148.60265625 87.9484375 147.2053125 87.921875 145.765625 C87.86559216 143.92705217 87.80824486 142.08851172 87.75 140.25 C87.73582031 139.32960938 87.72164063 138.40921875 87.70703125 137.4609375 C87.560753 132.10514233 87.560753 132.10514233 85.203125 127.421875 C82.84659245 125.7333584 82.84659245 125.7333584 79 125 C78.505 104.21 78.505 104.21 78 83 C77.67 83.33 77.34 83.66 77 84 C69.95569935 84.69288203 69.95569935 84.69288203 66.5 82.1875 C64.27838807 77.46657465 64.23504805 73.12596666 65 68 C66.5625 65.3125 66.5625 65.3125 69 64 C74.97058824 63.48529412 74.97058824 63.48529412 78 65 C78.33 51.8 78.66 38.6 79 25 C80.98 24.34 82.96 23.68 85 23 C88.72739791 17.96162188 88.72739791 17.96162188 88 1 C59.29 1 30.58 1 1 1 C1 6.61 1 12.22 1 18 C0.67 18 0.34 18 0 18 C0 12.06 0 6.12 0 0 Z " fill="#9CDD2E" transform="translate(241,243)"/>
<path d="M0 0 C34.32 0 68.64 0 104 0 C104 5.94 104 11.88 104 18 C102.02 18.66 100.04 19.32 98 20 C95.59857747 22.40142253 95.74806457 22.92535015 95.73930359 26.19979858 C95.73221878 27.08025345 95.72513397 27.96070831 95.71783447 28.86784363 C95.72031189 29.83619644 95.72278931 30.80454926 95.7253418 31.80224609 C95.7176754 33.32923378 95.7176754 33.32923378 95.70985413 34.8870697 C95.69590789 38.26591811 95.69691883 41.64456366 95.69921875 45.0234375 C95.69533427 47.36512326 95.69100012 49.70680831 95.68623352 52.04849243 C95.67876025 56.96301555 95.67907038 61.87746685 95.68432617 66.79199219 C95.69011887 73.09617527 95.67319975 79.40006437 95.6499815 85.70419884 C95.63526259 90.54256923 95.63437001 95.38086855 95.63749123 100.21925735 C95.63697698 102.54372362 95.6317199 104.86819376 95.62167931 107.1926384 C95.60936963 110.44160905 95.61607428 113.69000369 95.62768555 116.93896484 C95.62004181 117.9032692 95.61239807 118.86757355 95.60452271 119.86109924 C95.61153702 120.74719376 95.61855133 121.63328827 95.6257782 122.54623413 C95.62552659 123.69826608 95.62552659 123.69826608 95.62526989 124.8735714 C96.11908744 127.67576886 96.98821734 128.99380759 99 131 C100.65 131.33 102.3 131.66 104 132 C104 137.94 104 143.88 104 150 C98.39 150 92.78 150 87 150 C86.94392578 147.77830078 86.94392578 147.77830078 86.88671875 145.51171875 C86.82106646 143.57028686 86.75461887 141.62888174 86.6875 139.6875 C86.66494141 138.71103516 86.64238281 137.73457031 86.61914062 136.72851562 C86.58369141 135.79072266 86.54824219 134.85292969 86.51171875 133.88671875 C86.48553467 133.02264404 86.45935059 132.15856934 86.43237305 131.26831055 C85.90148024 128.48314673 85.26374878 127.67771317 83 126 C81.35 125.34 79.7 124.68 78 124 C78 110.47 78 96.94 78 83 C77.01 83.495 77.01 83.495 76 84 C68.73987474 84.46096033 68.73987474 84.46096033 66.26953125 82.921875 C64.33552683 79.99408984 64.60333575 77.46628009 64.625 74 C64.61339844 72.14375 64.61339844 72.14375 64.6015625 70.25 C65 67 65 67 66.26953125 65.078125 C69.43936546 63.10323958 72.34282074 63.76779814 76 64 C76.66 64.33 77.32 64.66 78 65 C78 52.13 78 39.26 78 26 C79.98 25.01 81.96 24.02 84 23 C89.23343949 17.76656051 86.63040165 8.39196691 87 1 C58.29 1 29.58 1 0 1 C0 0.67 0 0.34 0 0 Z " fill="#A0E32F" transform="translate(393,347)"/>
<path d="M0 0 C7.70776144 2.20221755 13.04197255 5.89261447 17.0859375 12.875 C19.96531342 19.56893376 17.83809256 27.31025471 15.45703125 33.84765625 C5.99717925 54.3144138 -12.65676973 67.48581568 -33.234375 75.21484375 C-45.0728653 79.35242556 -60.70024325 81.90154438 -72.8125 77.25 C-76.23793762 75.58165214 -79.28881756 73.71118244 -82 71 C-82 70.34 -82 69.68 -82 69 C-81.01902344 68.91363281 -80.03804688 68.82726562 -79.02734375 68.73828125 C-54.1977517 66.27674025 -30.3131343 54.72379532 -13.99609375 35.5625 C-5.43939904 24.57778038 -0.54168707 14.00261064 0 0 Z " fill="#FCF0BC" transform="translate(479,120)"/>
<path d="M0 0 C5.89584029 0.29479201 9.85253476 3.00286932 14 7 C18.27635994 12.63299826 17.94515325 19.13303842 17.3359375 25.89990234 C15.05856098 40.13681573 2.95284987 52.36883449 -8.18652344 60.625 C-26.14161959 73.51475817 -45.71527963 80.69477354 -68 78 C-74.25778543 76.39927344 -79.40021915 73.41143527 -83 68 C-81.92363281 67.90203125 -80.84726563 67.8040625 -79.73828125 67.703125 C-53.40717674 65.10577733 -30.38805562 53.21494809 -13 33 C-5.25977828 22.64416041 -1.99705427 12.56969455 0 0 Z " fill="#FCF0BC" transform="translate(328,17)"/>
<path d="M0 0 C28.40682239 11.00301501 51.41455757 28.61604466 66.89453125 55.12280273 C67.63044171 56.3724528 68.3884335 57.60936317 69.16796875 58.83227539 C71.56651245 62.69653695 72.4740442 65.40060491 72.25 69.9375 C72.21390625 70.89527344 72.1778125 71.85304688 72.140625 72.83984375 C72.09421875 73.55269531 72.0478125 74.26554687 72 75 C46.74129709 68.03208195 24.39828656 47.33571317 11.40673828 25.04418945 C0 4.88618615 0 4.88618615 0 0 Z " fill="#94D328" transform="translate(154,147)"/>
<path d="M0 0 C5.15168559 3.18800297 8.78992101 7.87868233 12.53125 12.56640625 C12.95486816 13.09556641 13.37848633 13.62472656 13.81494141 14.16992188 C16.08131603 17.0167407 18.31883305 19.88484927 20.546875 22.76171875 C23.79282597 26.93165172 27.1583914 30.99893371 30.53125 35.06640625 C35.23830827 40.74988472 39.86779395 46.48098971 44.39819336 52.30615234 C46.90422808 55.52058549 49.44646975 58.6999568 52.03125 61.8515625 C52.62349365 62.57400146 53.2157373 63.29644043 53.82592773 64.04077148 C54.97836461 65.44276243 56.13397916 66.84214918 57.29321289 68.23852539 C57.8164917 68.8752417 58.33977051 69.51195801 58.87890625 70.16796875 C59.57512085 71.00835693 59.57512085 71.00835693 60.28540039 71.86572266 C61.61598249 73.68207282 62.58052801 75.52918459 63.53125 77.56640625 C44.38645585 79.76251903 44.38645585 79.76251903 38.57177734 76.45019531 C35.23669802 73.37503297 33.04882496 69.52928335 30.79882812 65.62792969 C28.59506927 62.04385037 25.85624155 58.90775929 23.15625 55.69140625 C22.05535996 54.34402393 20.95641071 52.99505361 19.859375 51.64453125 C18.75014389 50.28503883 17.64076858 48.92566406 16.53125 47.56640625 C9.85757554 39.39056826 3.20821727 31.20300137 -3.28320312 22.88134766 C-7.54808784 17.42847711 -11.92204826 12.06601856 -16.31835938 6.71875 C-17.10823242 5.75388672 -17.10823242 5.75388672 -17.9140625 4.76953125 C-18.38344238 4.19879883 -18.85282227 3.62806641 -19.33642578 3.04003906 C-20.46875 1.56640625 -20.46875 1.56640625 -21.46875 -0.43359375 C-14.47635231 -4.0425732 -7.00551076 -3.10274937 0 0 Z " fill="#FCF0BC" transform="translate(119.46875,356.43359375)"/>
<path d="M0 0 C5.61 0 11.22 0 17 0 C17 5.94 17 11.88 17 18 C14.69 18.66 12.38 19.32 10 20 C8.58869497 22.82261007 8.83605673 25.22081484 8.79467773 28.37744141 C8.77982834 29.35811333 8.77982834 29.35811333 8.76467896 30.3585968 C8.73305289 32.52288167 8.70830228 34.6871885 8.68359375 36.8515625 C8.66302517 38.35086645 8.64202872 39.85016459 8.62062073 41.34945679 C8.56539012 45.29825131 8.51598524 49.24709826 8.46777344 53.19598389 C8.41756561 57.22445346 8.3618758 61.25284678 8.30664062 65.28125 C8.19904694 73.18743732 8.09811119 81.09368931 8 89 C2.39 89 -3.22 89 -9 89 C-9.33 72.17 -9.66 55.34 -10 38 C-10.99 38.495 -10.99 38.495 -12 39 C-16.00686356 39.44520706 -18.14702112 39.63426635 -21.4375 37.1875 C-23.75334125 32.46318385 -23.8806328 28.16019924 -23 23 C-20.9375 19.75 -20.9375 19.75 -18 18 C-14.375 17.9375 -14.375 17.9375 -11 19 C-9.0625 20.9375 -9.0625 20.9375 -8 23 C-8 23.66 -8 24.32 -8 25 C-5.00007271 23.70855022 -5.00007271 23.70855022 -2 22 C-1.09166031 19.27498092 -0.81640015 17.37766029 -0.68359375 14.55078125 C-0.64169922 13.70322266 -0.59980469 12.85566406 -0.55664062 11.98242188 C-0.51732422 11.10134766 -0.47800781 10.22027344 -0.4375 9.3125 C-0.39431641 8.41982422 -0.35113281 7.52714844 -0.30664062 6.60742188 C-0.2006478 4.40512656 -0.09982779 2.20258338 0 0 Z " fill="#9DDF2C" transform="translate(329,408)"/>
<path d="M0 0 C15.84 0 31.68 0 48 0 C48.1546875 6.868125 48.1546875 6.868125 48.3125 13.875 C48.35802002 15.29796387 48.40354004 16.72092773 48.45043945 18.18701172 C48.54691903 27.09176527 47.44250726 34.1851742 41.2434082 40.90380859 C35.7029439 46.15425311 29.87876689 48.3615546 22.34179688 48.26367188 C21.58962891 48.23853516 20.83746094 48.21339844 20.0625 48.1875 C18.89364258 48.16719727 18.89364258 48.16719727 17.70117188 48.14648438 C15.80047596 48.11150224 13.90014166 48.05770959 12 48 C12.38671875 47.52691406 12.7734375 47.05382812 13.171875 46.56640625 C13.69265625 45.90511719 14.2134375 45.24382812 14.75 44.5625 C15.26046875 43.92441406 15.7709375 43.28632813 16.296875 42.62890625 C22.01180238 33.80747018 22.64520496 25.75006263 22.75 15.4375 C22.77821313 14.0331672 22.80814786 12.62886788 22.83984375 11.22460938 C22.91010967 7.81671248 22.95736892 4.40835461 23 1 C15.41 1 7.82 1 0 1 C0 0.67 0 0.34 0 0 Z " fill="#F8626D" transform="translate(154,449)"/>
<path d="M0 0 C4.41048783 1.30681121 4.41048783 1.30681121 6.375 4 C7.21801105 9.33147527 7.16153742 14.36400217 4.8125 19.25 C2.375 21 2.375 21 -1.125 21.625 C-4.625 21 -4.625 21 -7.0625 19.1875 C-9.37834125 14.46318385 -9.5056328 10.16019924 -8.625 5 C-6.00288058 0.86817545 -4.91269387 0 0 0 Z " fill="#050602" transform="translate(425.625,234)"/>
<path d="M0 0 C3.0625 0.5625 3.0625 0.5625 5.9375 2.4375 C8.910274 6.80922647 8.85632487 10.41952825 8.0625 15.5625 C6.03618421 20.07565789 6.03618421 20.07565789 3.0625 21.5625 C-0.43211983 21.94234998 -2.23608698 22.08539455 -5.1015625 19.94921875 C-7.4919346 16.84173502 -7.473157 14.94911304 -7.4375 11.0625 C-7.45296875 9.37640625 -7.45296875 9.37640625 -7.46875 7.65625 C-6.66248841 2.96096189 -4.66440487 0.89318391 0 0 Z " fill="#060703" transform="translate(272.9375,459.4375)"/>
<path d="M0 0 C3.76907327 1.1865601 4.47138704 1.72411645 6.375 5.0625 C6.80859375 7.9375 6.80859375 7.9375 6.8125 11.0625 C6.83183594 12.09375 6.85117187 13.125 6.87109375 14.1875 C6.25718901 17.74524717 5.2237167 18.90438129 2.375 21.0625 C-1.125 21.625 -1.125 21.625 -4.625 21.0625 C-7.60628659 18.84564587 -8.45897965 17.10717522 -9.0390625 13.45703125 C-9.28321181 8.69611962 -9.15442993 5.89675322 -6.5625 1.8125 C-3.625 0.0625 -3.625 0.0625 0 0 Z " fill="#050703" transform="translate(314.625,425.9375)"/>
<path d="M0 0 C3.76907327 1.1865601 4.47138704 1.72411645 6.375 5.0625 C6.80859375 7.9375 6.80859375 7.9375 6.8125 11.0625 C6.83183594 12.09375 6.85117187 13.125 6.87109375 14.1875 C6.25718901 17.74524717 5.2237167 18.90438129 2.375 21.0625 C-1.125 21.625 -1.125 21.625 -4.625 21.0625 C-7.60628659 18.84564587 -8.45897965 17.10717522 -9.0390625 13.45703125 C-9.28321181 8.69611962 -9.15442993 5.89675322 -6.5625 1.8125 C-3.625 0.0625 -3.625 0.0625 0 0 Z " fill="#050603" transform="translate(425.625,368.9375)"/>
<path d="M0 0 C3.58773321 1.22135599 4.92310288 1.74597389 6.9375 5 C7.71441801 10.14509986 7.6818435 14.48153925 5.375 19.1875 C2.9375 21 2.9375 21 -0.5625 21.5625 C-4.65212944 20.90523813 -5.58371121 20.23575225 -8.0625 17 C-8.62890625 13.90625 -8.62890625 13.90625 -8.625 10.5 C-8.64691406 9.3759375 -8.66882813 8.251875 -8.69140625 7.09375 C-8.0625 4 -8.0625 4 -5.71875 1.59375 C-3.0625 0 -3.0625 0 0 0 Z " fill="#060803" transform="translate(274.0625,265)"/>
<path d="M0 0 C3.0625 0.5625 3.0625 0.5625 5.9375 2.375 C9.02834744 7.01127116 9.06959788 11.14528802 8.0625 16.5625 C5.9375 19.75 5.9375 19.75 3.0625 21.5625 C0 22.125 0 22.125 -2.9375 21.5625 C-5.88564126 19.33132958 -6.83599022 18.15364516 -7.46875 14.46875 C-7.4584375 13.3446875 -7.448125 12.220625 -7.4375 11.0625 C-7.45296875 9.37640625 -7.45296875 9.37640625 -7.46875 7.65625 C-6.66248841 2.96096189 -4.66440487 0.89318391 0 0 Z " fill="#060703" transform="translate(272.9375,129.4375)"/>
<path d="M0 0 C2.91074647 2.18305985 3.81054343 3.79616141 4.375 7.3828125 C4.57320193 11.53266542 4.31183753 14.35033847 2.5 18.125 C-1.22918061 20.92188546 -3.39866578 20.58429641 -8 20 C-9.72265625 18.90625 -9.72265625 18.90625 -11 17 C-11.3984375 13.75 -11.3984375 13.75 -11.375 10 C-11.38273437 8.7625 -11.39046875 7.525 -11.3984375 6.25 C-11 3 -11 3 -9.72265625 1.09375 C-6.67310294 -0.84247432 -3.41606652 -0.70108407 0 0 Z " fill="#050702" transform="translate(469,411)"/>
<path d="M0 0 C2.91074647 2.18305985 3.81054343 3.79616141 4.375 7.3828125 C4.57320193 11.53266542 4.31183753 14.35033847 2.5 18.125 C-0.09177776 20.06883332 -0.95097366 20.37340171 -4.0625 20.5625 C-8 20 -8 20 -9.72265625 18.375 C-11.39572811 15.26421195 -11.39901646 12.95591105 -11.375 9.4375 C-11.38273437 8.30183594 -11.39046875 7.16617187 -11.3984375 5.99609375 C-11 3 -11 3 -9.72265625 1.12890625 C-6.68986553 -0.85856885 -3.42396321 -0.70270472 0 0 Z " fill="#050702" transform="translate(469,265)"/>
<path d="M0 0 C2.84226755 2.15200257 3.87726377 3.33578038 4.53125 6.875 C4.5209375 7.90625 4.510625 8.9375 4.5 10 C4.5103125 11.03125 4.520625 12.0625 4.53125 13.125 C3.8771841 16.66465076 2.8398297 17.8447721 0 20 C-3.5 20.5625 -3.5 20.5625 -7 20 C-9.4375 18.1875 -9.4375 18.1875 -11 15 C-11.7065784 10.07580413 -11.98095869 5.68724894 -9.4375 1.3125 C-6.03362851 -0.52035388 -3.80853299 -0.54407614 0 0 Z " fill="#030402" transform="translate(428,454)"/>
<path d="M0 0 C2.91074647 2.18305985 3.81054343 3.79616141 4.375 7.3828125 C4.57497289 11.56974483 4.3287042 14.34259159 2.4375 18.125 C0 20 0 20 -3.5 20.5625 C-7.58861536 19.9054011 -8.53014151 19.24335629 -11 16 C-11.49609375 12.87109375 -11.49609375 12.87109375 -11.4375 9.4375 C-11.43556641 7.73400391 -11.43556641 7.73400391 -11.43359375 5.99609375 C-11 3 -11 3 -9.71875 1.12890625 C-6.68922869 -0.86093843 -3.42193907 -0.70228931 0 0 Z " fill="#040602" transform="translate(277,350)"/>
<path d="M0 0 C2.85114596 2.15487681 3.882266 3.31769902 4.49609375 6.875 C4.47675781 7.90625 4.45742188 8.9375 4.4375 10 C4.43621094 11.03125 4.43492187 12.0625 4.43359375 13.125 C3.94894266 16.33854237 3.32832123 17.75105335 1 20 C-3.59110715 20.65587245 -5.73606471 20.91635309 -9.5 18.1875 C-11.72161193 13.46657465 -11.76495195 9.12596666 -11 4 C-8.30161113 -0.64122886 -5.09940167 -0.72848595 0 0 Z " fill="#040502" transform="translate(317,307)"/>
<path d="M0 0 C2.84226755 2.15200257 3.87726377 3.33578038 4.53125 6.875 C4.5209375 7.90625 4.510625 8.9375 4.5 10 C4.5103125 11.03125 4.520625 12.0625 4.53125 13.125 C3.8771841 16.66465076 2.8398297 17.8447721 0 20 C-3.5 20.5625 -3.5 20.5625 -7 20 C-9.4375 18.1875 -9.4375 18.1875 -11 15 C-11.7065784 10.07580413 -11.98095869 5.68724894 -9.4375 1.3125 C-6.03362851 -0.52035388 -3.80853299 -0.54407614 0 0 Z " fill="#030502" transform="translate(317,161)"/>
<path d="M0 0 C5.56818182 0.56818182 5.56818182 0.56818182 7 2 C7.1875 4.9375 7.1875 4.9375 7 8 C5 10 5 10 2.5625 10.3125 C0 10 0 10 -1.875 8.8125 C-3 7 -3 7 -2.8125 4.4375 C-2 2 -2 2 0 0 Z " fill="#0F0E0D" transform="translate(80,401)"/>
<path d="M0 0 C3.0625 0.1875 3.0625 0.1875 5.0625 2.1875 C4.6875 5.8125 4.6875 5.8125 4.0625 9.1875 C1.8125 9.9375 1.8125 9.9375 -0.9375 10.1875 C-3.3125 8.5625 -3.3125 8.5625 -4.9375 6.1875 C-4.6378833 1.89299401 -4.44548893 0.28375461 0 0 Z " fill="#10100E" transform="translate(101.9375,377.8125)"/>
<path d="M0 0 C2.5 0.25 2.5 0.25 4.5 2.25 C4.75 5.25 4.75 5.25 4.5 8.25 C2.5 10.25 2.5 10.25 0 10.5 C-2.5 10.25 -2.5 10.25 -4.5 8.25 C-4.75 5.25 -4.75 5.25 -4.5 2.25 C-2.5 0.25 -2.5 0.25 0 0 Z " fill="#0B0A09" transform="translate(108.5,400.75)"/>
</svg>
