<?xml version="1.0" encoding="UTF-8"?>
<svg version="1.1" xmlns="http://www.w3.org/2000/svg" width="512" height="512">
<path d="M0 0 C1.98 0 3.96 0 6 0 C9.14959328 6.43749995 11.16723799 12.77191089 12.75 19.75 C12.97042969 20.66910156 13.19085938 21.58820313 13.41796875 22.53515625 C14.41199144 26.80142755 15.11903879 30.59946754 15 35 C15.66 35 16.32 35 17 35 C17.0928125 33.99710938 17.185625 32.99421875 17.28125 31.9609375 C17.88627119 27.73218024 19.51266739 24.36820882 21.5 20.625 C21.82097656 19.99722656 22.14195312 19.36945313 22.47265625 18.72265625 C24.81497628 14.18502372 24.81497628 14.18502372 26 13 C28.875 12.6875 28.875 12.6875 32 13 C35.33584944 16.23827712 35.90494725 20.1333803 36.6171875 24.55078125 C36.80485184 25.67097404 36.80485184 25.67097404 36.99630737 26.813797 C38.37259831 35.56745472 38.77398065 44.34424418 39.125 53.1875 C39.20442983 54.96951144 39.28452115 56.7514935 39.36523438 58.53344727 C39.75971736 67.51486125 40.05939045 76.4969028 40.2734375 85.484375 C40.29375031 86.32764847 40.31406311 87.17092194 40.33499146 88.03974915 C40.42837994 92.02208043 40.51023694 96.00409384 40.57080078 99.98706055 C40.70653627 107.63417965 41.09377677 115.21008058 41.87890625 122.8203125 C41.95181885 123.57392563 42.02473145 124.32753876 42.09985352 125.10398865 C42.80807773 131.369533 44.51095162 134.73721414 49 139 C50.1446875 140.26650391 50.1446875 140.26650391 51.3125 141.55859375 C58.35970327 149.11965559 66.29459121 154.51491326 75 160 C99.41092312 175.72428582 120.19632182 195.80028044 126.91772461 224.95825195 C131.51058439 248.74602486 127.36891383 273.09559523 113.953125 293.3359375 C110.62803349 297.87136232 106.88000661 301.93855424 103 306 C102.44828125 306.62648438 101.8965625 307.25296875 101.328125 307.8984375 C90.75446989 319.46664432 75.2775519 324.93588371 60.60620117 329.21362305 C53.59384841 331.29132455 49.08621082 333.77250555 44 339 C43.34 339 42.68 339 42 339 C42.45052734 339.88751953 42.45052734 339.88751953 42.91015625 340.79296875 C46.05488851 347.32761578 46.05488851 347.32761578 45.75 351.0625 C45.5025 351.701875 45.255 352.34125 45 353 C43.35 352.67 41.7 352.34 40 352 C39.01 348.7 38.02 345.4 37 342 C35.35 342.33 33.7 342.66 32 343 C32.2165625 344.14275391 32.2165625 344.14275391 32.4375 345.30859375 C33.57797374 351.65247896 34.21474302 357.55770944 34 364 C32.35 364 30.7 364 29 364 C27.57364259 357.68327435 26.24702151 351.35450323 25 345 C23.02 345 21.04 345 19 345 C19 352.92 19 360.84 19 369 C17.35 369.33 15.7 369.66 14 370 C13 369 13 369 12.88647461 366.68334961 C12.89432983 365.18300171 12.89432983 365.18300171 12.90234375 363.65234375 C12.90717773 362.03295898 12.90717773 362.03295898 12.91210938 360.38085938 C12.92467773 358.67639648 12.92467773 358.67639648 12.9375 356.9375 C12.94201172 355.79732422 12.94652344 354.65714844 12.95117188 353.48242188 C12.96300253 350.65489649 12.9794859 347.8274736 13 345 C11.02 345 9.04 345 7 345 C6.79503906 346.20398438 6.59007812 347.40796875 6.37890625 348.6484375 C6.10693641 350.22398692 5.83479193 351.79950621 5.5625 353.375 C5.36043945 354.56609375 5.36043945 354.56609375 5.15429688 355.78125 C4.11328125 361.7734375 4.11328125 361.7734375 3 364 C1.35 364 -0.3 364 -2 364 C-2.24091535 356.7725395 -1.34495828 350.09705662 0 343 C-1.65 342.67 -3.3 342.34 -5 342 C-5.99 345.3 -6.98 348.6 -8 352 C-9.65 352.33 -11.3 352.66 -13 353 C-14.07010304 350.23556715 -14.16283213 348.46148633 -13.17578125 345.6640625 C-12.16488321 343.41525773 -11.11596524 341.19840363 -10 339 C-11.0828125 338.6596875 -11.0828125 338.6596875 -12.1875 338.3125 C-15 337 -15 337 -17.19921875 334.578125 C-20.44577741 331.58966096 -23.46798791 330.54857032 -27.625 329.4375 C-29.0629425 329.01713572 -30.50044281 328.59525591 -31.9375 328.171875 C-32.98357422 327.87120117 -32.98357422 327.87120117 -34.05078125 327.56445312 C-48.51164527 323.37688829 -60.29908697 316.54638721 -71 306 C-71.91652344 305.19175781 -71.91652344 305.19175781 -72.8515625 304.3671875 C-81.84669416 296.19352905 -88.15168272 284.38932136 -92 273 C-92.5878125 271.30423828 -92.5878125 271.30423828 -93.1875 269.57421875 C-99.6036279 248.12029108 -97.49315403 224.42383635 -87.20288086 204.60864258 C-75.90290787 183.91574494 -59.1701867 170.33736935 -39.71875 157.90234375 C-32.88513115 153.47282019 -26.87306471 148.63936145 -21 143 C-20.31679687 142.35675781 -19.63359375 141.71351563 -18.9296875 141.05078125 C-8.28741059 130.78699536 -8.77585708 118.44991041 -8.51757812 104.47265625 C-8.49029013 102.73178006 -8.46360207 100.99089437 -8.4375 99.25 C-8.39322913 96.63100293 -8.34632701 94.01211204 -8.29469299 91.39324951 C-8.2633097 89.7771627 -8.23625541 88.16098335 -8.21446228 86.54473877 C-8.13776499 82.32905035 -7.81425712 78.2551463 -7.24302673 74.07015991 C-6.78258269 70.14798729 -6.68307917 66.20584579 -6.53515625 62.26171875 C-6.45652425 60.36913463 -6.3777432 58.47655671 -6.29882812 56.58398438 C-6.18042818 53.6536466 -6.06388426 50.72325851 -5.95043945 47.79272461 C-5.5560071 37.72486026 -5.09277799 27.67556754 -4.12109375 17.64453125 C-4.05503433 16.90128098 -3.98897491 16.1580307 -3.9209137 15.39225769 C-3.34800959 9.97325028 -1.89033753 5.10201749 0 0 Z " fill="#D29189" transform="translate(240,71)"/>
<path d="M0 0 C1.98 0 3.96 0 6 0 C9.14959328 6.43749995 11.16723799 12.77191089 12.75 19.75 C12.97042969 20.66910156 13.19085938 21.58820313 13.41796875 22.53515625 C14.41199144 26.80142755 15.11903879 30.59946754 15 35 C15.66 35 16.32 35 17 35 C17.0928125 33.99710938 17.185625 32.99421875 17.28125 31.9609375 C17.88627119 27.73218024 19.51266739 24.36820882 21.5 20.625 C21.82097656 19.99722656 22.14195312 19.36945313 22.47265625 18.72265625 C24.81497628 14.18502372 24.81497628 14.18502372 26 13 C28.875 12.6875 28.875 12.6875 32 13 C35.33584944 16.23827712 35.90494725 20.1333803 36.6171875 24.55078125 C36.80485184 25.67097404 36.80485184 25.67097404 36.99630737 26.813797 C38.37259831 35.56745472 38.77398065 44.34424418 39.125 53.1875 C39.20442983 54.96951144 39.28452115 56.7514935 39.36523438 58.53344727 C39.75971736 67.51486125 40.05939045 76.4969028 40.2734375 85.484375 C40.29375031 86.32764847 40.31406311 87.17092194 40.33499146 88.03974915 C40.42837994 92.02208043 40.51023694 96.00409384 40.57080078 99.98706055 C40.70653627 107.63417965 41.09377677 115.21008058 41.87890625 122.8203125 C41.95181885 123.57392563 42.02473145 124.32753876 42.09985352 125.10398865 C42.80807773 131.369533 44.51095162 134.73721414 49 139 C50.1446875 140.26650391 50.1446875 140.26650391 51.3125 141.55859375 C58.35970327 149.11965559 66.29459121 154.51491326 75 160 C99.41092312 175.72428582 120.19632182 195.80028044 126.91772461 224.95825195 C131.51058439 248.74602486 127.36891383 273.09559523 113.953125 293.3359375 C110.62803349 297.87136232 106.88000661 301.93855424 103 306 C102.44828125 306.62648438 101.8965625 307.25296875 101.328125 307.8984375 C90.75446989 319.46664432 75.2775519 324.93588371 60.60620117 329.21362305 C53.59384841 331.29132455 49.08621082 333.77250555 44 339 C43.34 339 42.68 339 42 339 C42.45052734 339.88751953 42.45052734 339.88751953 42.91015625 340.79296875 C46.05488851 347.32761578 46.05488851 347.32761578 45.75 351.0625 C45.5025 351.701875 45.255 352.34125 45 353 C43.35 352.67 41.7 352.34 40 352 C39.01 348.7 38.02 345.4 37 342 C35.35 342.33 33.7 342.66 32 343 C32.2165625 344.14275391 32.2165625 344.14275391 32.4375 345.30859375 C33.57797374 351.65247896 34.21474302 357.55770944 34 364 C32.35 364 30.7 364 29 364 C27.57364259 357.68327435 26.24702151 351.35450323 25 345 C23.02 345 21.04 345 19 345 C19 352.92 19 360.84 19 369 C17.35 369.33 15.7 369.66 14 370 C13 369 13 369 12.88647461 366.68334961 C12.89432983 365.18300171 12.89432983 365.18300171 12.90234375 363.65234375 C12.90717773 362.03295898 12.90717773 362.03295898 12.91210938 360.38085938 C12.92467773 358.67639648 12.92467773 358.67639648 12.9375 356.9375 C12.94201172 355.79732422 12.94652344 354.65714844 12.95117188 353.48242188 C12.96300253 350.65489649 12.9794859 347.8274736 13 345 C11.02 345 9.04 345 7 345 C6.79503906 346.20398438 6.59007812 347.40796875 6.37890625 348.6484375 C6.10693641 350.22398692 5.83479193 351.79950621 5.5625 353.375 C5.36043945 354.56609375 5.36043945 354.56609375 5.15429688 355.78125 C4.11328125 361.7734375 4.11328125 361.7734375 3 364 C1.35 364 -0.3 364 -2 364 C-2.24091535 356.7725395 -1.34495828 350.09705662 0 343 C-1.65 342.67 -3.3 342.34 -5 342 C-5.99 345.3 -6.98 348.6 -8 352 C-9.65 352.33 -11.3 352.66 -13 353 C-14.07010304 350.23556715 -14.16283213 348.46148633 -13.17578125 345.6640625 C-12.16488321 343.41525773 -11.11596524 341.19840363 -10 339 C-11.0828125 338.6596875 -11.0828125 338.6596875 -12.1875 338.3125 C-15 337 -15 337 -17.19921875 334.578125 C-20.44577741 331.58966096 -23.46798791 330.54857032 -27.625 329.4375 C-29.0629425 329.01713572 -30.50044281 328.59525591 -31.9375 328.171875 C-32.98357422 327.87120117 -32.98357422 327.87120117 -34.05078125 327.56445312 C-48.51164527 323.37688829 -60.29908697 316.54638721 -71 306 C-71.91652344 305.19175781 -71.91652344 305.19175781 -72.8515625 304.3671875 C-81.84669416 296.19352905 -88.15168272 284.38932136 -92 273 C-92.5878125 271.30423828 -92.5878125 271.30423828 -93.1875 269.57421875 C-99.6036279 248.12029108 -97.49315403 224.42383635 -87.20288086 204.60864258 C-75.90290787 183.91574494 -59.1701867 170.33736935 -39.71875 157.90234375 C-32.88513115 153.47282019 -26.87306471 148.63936145 -21 143 C-20.31679687 142.35675781 -19.63359375 141.71351563 -18.9296875 141.05078125 C-8.28741059 130.78699536 -8.77585708 118.44991041 -8.51757812 104.47265625 C-8.49029013 102.73178006 -8.46360207 100.99089437 -8.4375 99.25 C-8.39322913 96.63100293 -8.34632701 94.01211204 -8.29469299 91.39324951 C-8.2633097 89.7771627 -8.23625541 88.16098335 -8.21446228 86.54473877 C-8.13776499 82.32905035 -7.81425712 78.2551463 -7.24302673 74.07015991 C-6.78258269 70.14798729 -6.68307917 66.20584579 -6.53515625 62.26171875 C-6.45652425 60.36913463 -6.3777432 58.47655671 -6.29882812 56.58398438 C-6.18042818 53.6536466 -6.06388426 50.72325851 -5.95043945 47.79272461 C-5.5560071 37.72486026 -5.09277799 27.67556754 -4.12109375 17.64453125 C-4.05503433 16.90128098 -3.98897491 16.1580307 -3.9209137 15.39225769 C-3.34800959 9.97325028 -1.89033753 5.10201749 0 0 Z M0 67 C-2.82770648 74.54055061 -3.13683897 82.01761959 -3.2109375 89.96875 C-3.23903261 91.6927174 -3.26769721 93.41667559 -3.296875 95.140625 C-3.33779067 97.80793727 -3.37475138 100.47508284 -3.40136719 103.14257812 C-3.55976377 117.81337841 -4.59779936 131.92957277 -9.8125 145.8125 C-10.07184326 146.51914795 -10.33118652 147.2257959 -10.59838867 147.95385742 C-15.3555266 160.55473804 -22.92757389 170.65605371 -31.26953125 181.09375 C-52.52854771 207.81954019 -67.77398596 233.99715874 -66 269 C-65.43624647 273.23037098 -64.44796662 276.99473749 -63 281 C-62.6596875 282.04929687 -62.319375 283.09859375 -61.96875 284.1796875 C-56.35724701 300.29380083 -45.55538532 314.39514495 -30 322 C-29.34 321.67 -28.68 321.34 -28 321 C-28.804375 320.4225 -29.60875 319.845 -30.4375 319.25 C-42.54474353 309.05592939 -50.06673038 293.253002 -53 278 C-51.68 278 -50.36 278 -49 278 C-48.87882812 278.69867188 -48.75765625 279.39734375 -48.6328125 280.1171875 C-44.97091991 296.79914263 -34.67587539 312.49859044 -20.40258789 321.91943359 C-12.79994322 326.82440947 -12.79994322 326.82440947 -4 328 C-5.61594832 325.95880212 -7.2856382 323.95927063 -9 322 C-9.66 322 -10.32 322 -11 322 C-11.27585938 321.41476562 -11.55171875 320.82953125 -11.8359375 320.2265625 C-12.95077516 318.09415489 -14.20028163 316.30911488 -15.625 314.375 C-29.56000342 293.59232905 -33.24703397 269.21546144 -28.76513672 244.79418945 C-23.93242759 221.93992805 -15.17518712 199.81219563 -6.79248047 178.0690918 C-1.01104919 162.97663496 3.45791107 147.96610238 6 132 C6.99 131.67 7.98 131.34 9 131 C8.85435155 142.47293622 6.54834825 151.99558559 2.75 162.75 C2.21423592 164.31128263 1.67967424 165.87297833 1.14624023 167.43505859 C-2.9436602 179.32705263 -7.35187546 191.10013014 -11.78207397 202.86853027 C-15.51346963 212.79209087 -19.13408781 222.66178375 -21.52929688 233.00732422 C-22.03626683 235.15353209 -22.6039019 237.27933209 -23.171875 239.41015625 C-29.48048077 264.29659105 -26.8512332 287.72100578 -13.9296875 309.890625 C-8.55203217 318.55583481 -0.94889442 325.84256644 9 329 C20.14660858 330.29295216 27.92432348 328.1175331 36.6875 321.3125 C44.99369889 313.60932726 49.77226717 303.32064192 54 293 C54.43828125 291.94554687 54.8765625 290.89109375 55.328125 289.8046875 C66.32550991 258.28401385 51.20285997 221.77144268 40 192.4375 C35.14499182 179.69993515 30.55949109 166.96171091 26.59701538 153.91583252 C26.05266292 152.16899619 25.45973184 150.43748701 24.86181641 148.70825195 C23.74771104 145.20718372 23.54442293 141.76759308 23.375 138.125 C23.33632813 137.43664062 23.29765625 136.74828125 23.2578125 136.0390625 C23.16451834 134.35976754 23.08121762 132.67992233 23 131 C24.485 131.495 24.485 131.495 26 132 C26.17273438 133.09570312 26.34546875 134.19140625 26.5234375 135.3203125 C30.41954317 157.99501162 38.94880026 179.4671912 47.16088867 200.86352539 C50.83721633 210.47493856 54.29537167 220.06741537 57 230 C57.23976563 230.87221191 57.47953125 231.74442383 57.7265625 232.64306641 C65.15143576 260.48145636 63.78255995 286.53744319 49.390625 311.828125 C46.67213569 316.0600001 43.6603868 319.53226514 40 323 C38.64444707 324.64864545 37.30368347 326.31003995 36 328 C45.52326533 328.64707564 52.93908277 322.18043817 59.8125 316.1875 C69.94414355 306.5362361 76.66343705 294.25060903 81 281 C81 280.01 81 279.02 81 278 C82.32 278 83.64 278 85 278 C82.42106141 290.67978141 76.42859146 303.15463676 68 313 C67.55785156 313.54914063 67.11570312 314.09828125 66.66015625 314.6640625 C64.26671155 317.6176751 61.73754761 320.36384304 59 323 C73.30395296 317.75014493 84.49682032 305.49996589 91 292 C99.75972874 271.37149534 101.23627463 249.54155458 93.00976562 228.41748047 C85.37182836 210.13149043 73.7563442 194.61160476 61.52734375 179.1875 C60.88514893 178.37732422 60.88514893 178.37732422 60.22998047 177.55078125 C59.09262767 176.11678661 57.95454907 174.6833677 56.81640625 173.25 C51.06907648 165.72133411 46.95158629 157.56812453 43 149 C42.47277344 147.86949219 41.94554687 146.73898438 41.40234375 145.57421875 C39.78040708 141.44031331 38.75159586 137.40702443 37.875 133.0625 C37.61517334 131.79140381 37.61517334 131.79140381 37.35009766 130.49462891 C35.8070316 122.26147128 35.45221709 114.058496 35.32763672 105.69555664 C35.30975098 104.72094482 35.29186523 103.74633301 35.2734375 102.7421875 C35.26747559 101.8744873 35.26151367 101.00678711 35.25537109 100.11279297 C35.19424079 97.78280892 35.19424079 97.78280892 33 96 C29.44484214 95.93762881 25.93311694 96.13501477 22.3828125 96.3203125 C19 96 19 96 16.7890625 94.4765625 C14.45547251 91.24622177 12.85214305 87.88748357 11.25 84.25 C10.93417969 83.55261719 10.61835938 82.85523438 10.29296875 82.13671875 C9.52058048 80.42810227 8.75917018 78.71453041 8 77 C7.67 77 7.34 77 7 77 C6.67 88.55 6.34 100.1 6 112 C4.515 111.505 4.515 111.505 3 111 C3 96.81 3 82.62 3 68 C2.01 67.67 1.02 67.34 0 67 Z " fill="#0C0A09" transform="translate(240,71)"/>
<path d="M0 0 C2.1061326 3.15919891 3.35162165 6.30909555 4.64453125 9.84375 C4.89483597 10.5209761 5.14514069 11.19820221 5.4030304 11.89595032 C6.21227875 14.09512677 7.01354215 16.29706534 7.8125 18.5 C8.08423035 19.24720306 8.35596069 19.99440613 8.63592529 20.76425171 C19.94338514 51.96443391 27.7722797 83.77516376 13.06640625 115.22265625 C7.3721453 126.79161532 0.43283557 135.44783557 -11.35546875 141.13671875 C-18.45341789 143.45377452 -26.7068544 143.08547666 -33.4375 139.875 C-46.69707685 132.09691489 -53.3157143 119.8763445 -59 106 C-59.43828125 104.94554687 -59.8765625 103.89109375 -60.328125 102.8046875 C-64.73237862 90.18122817 -64.78175903 74.02677399 -62 61 C-61.67 62.32 -61.34 63.64 -61 65 C-59.515 64.505 -59.515 64.505 -58 64 C-57.19365979 61.95920196 -57.19365979 61.95920196 -56.7890625 59.43359375 C-56.59884521 58.4799292 -56.40862793 57.52626465 -56.21264648 56.54370117 C-56.01872314 55.51865479 -55.8247998 54.4936084 -55.625 53.4375 C-54.13094403 46.11303727 -52.5953804 38.84865978 -50.4375 31.6875 C-50.06496094 30.43324219 -49.69242188 29.17898438 -49.30859375 27.88671875 C-48 25 -48 25 -45.84765625 23.58203125 C-45.23792969 23.38996094 -44.62820312 23.19789063 -44 23 C-43.67 23.33 -43.34 23.66 -43 24 C-43.47453764 30.38800668 -45.08718426 36.20137051 -46.9375 42.3125 C-49.05923305 49.49988641 -50.91287129 56.57366495 -52 64 C-34.60706111 60.43804737 -17.71421696 56.60667828 -7 41 C-1.35057584 30.85808163 0.33287179 21.42641401 0.125 9.9375 C0.11597656 8.97650391 0.10695313 8.01550781 0.09765625 7.02539062 C0.07435208 4.68332195 0.04164058 2.34180208 0 0 Z " fill="#CD8379" transform="translate(277,258)"/>
<path d="M0 0 C0.886875 -0.01417969 1.77375 -0.02835938 2.6875 -0.04296875 C5 0.1875 5 0.1875 7 2.1875 C7.25537109 4.30029297 7.25537109 4.30029297 7.2734375 6.9296875 C7.29954102 8.39003418 7.29954102 8.39003418 7.32617188 9.87988281 C7.34228516 10.93014648 7.35839844 11.98041016 7.375 13.0625 C8.2809103 41.73541576 17.43726841 63.49757193 35.36669922 85.57836914 C56.36525496 111.46117944 73.05103319 138.76030118 70 173.1875 C69.40630282 177.40634812 68.44600709 181.18765781 67 185.1875 C66.6596875 186.23679687 66.319375 187.28609375 65.96875 188.3671875 C60.28020808 204.70252747 49.80521788 216.9464325 35.25 226.10546875 C34.5075 226.46253906 33.765 226.81960938 33 227.1875 C32.34 226.8575 31.68 226.5275 31 226.1875 C32.2375 225.259375 32.2375 225.259375 33.5 224.3125 C45.52148974 214.15349459 54.49710898 197.70542431 57 182.1875 C55.68 182.1875 54.36 182.1875 53 182.1875 C52.81824219 183.23550781 52.81824219 183.23550781 52.6328125 184.3046875 C48.97091991 200.98664263 38.67587539 216.68609044 24.40258789 226.10693359 C14.58065536 232.33055773 14.58065536 232.33055773 8 232.1875 C10.00521762 229.58814382 11.98858897 227.19831045 14.375 224.9375 C28.98618427 209.63054505 34.73229387 187.12061481 34.53222656 166.50561523 C33.5840487 137.48460004 21.1247968 109.05660235 10.79248047 82.2565918 C5.01104919 67.16413496 0.54208893 52.15360238 -2 36.1875 C-2.99 35.8575 -3.98 35.5275 -5 35.1875 C-5 38.1575 -5 41.1275 -5 44.1875 C-5.33 44.1875 -5.66 44.1875 -6 44.1875 C-7.11796696 29.85356646 -7.10772918 15.55857285 -7 1.1875 C-4.52224905 -0.05137548 -2.76346293 0.02008331 0 0 Z " fill="#CC8378" transform="translate(268,166.8125)"/>
<path d="M0 0 C0.94875 0.825 1.8975 1.65 2.875 2.5 C4.24910647 3.66771894 5.62417764 4.83430324 7 6 C7.66773438 6.58007812 8.33546875 7.16015625 9.0234375 7.7578125 C14.52031324 12.36747321 20.3500601 16.17243944 26.4375 19.9375 C33.79037992 24.50179861 40.58454184 29.15642223 47 35 C47.84691406 35.76570313 48.69382812 36.53140625 49.56640625 37.3203125 C65.58817498 52.53487761 76.7463205 73.12808723 77.42041016 95.43530273 C77.5623629 116.73835444 72.01102773 137.22616142 57 153 C56.15566406 153.92167969 55.31132812 154.84335937 54.44140625 155.79296875 C48.68771977 161.8404605 42.61930345 167.39863611 35 171 C34.34 170.67 33.68 170.34 33 170 C33.4846875 169.51273438 33.969375 169.02546875 34.46875 168.5234375 C40.66195684 161.97293026 44.84049437 154.92066216 49 147 C49.42410156 146.21753906 49.84820312 145.43507813 50.28515625 144.62890625 C58.11029905 128.88936047 58.53020816 106.34789865 53.23681641 89.67236328 C52.99366699 88.9554834 52.75051758 88.23860352 52.5 87.5 C52.24009277 86.73026855 51.98018555 85.96053711 51.71240234 85.16748047 C44.9318633 65.96182886 32.83515434 49.30699805 20.23046875 33.51953125 C0 8.17343121 0 8.17343121 0 0 Z " fill="#C98176" transform="translate(286,216)"/>
<path d="M0 0 C0.495 0.99 0.495 0.99 1 2 C-0.15949849 4.67294916 -1.3800657 7.18608626 -2.75 9.75 C-3.15613525 10.51280273 -3.56227051 11.27560547 -3.98071289 12.06152344 C-7.84726609 19.09588163 -12.51488278 25.19753042 -17.63574219 31.35009766 C-40.49782471 58.99897984 -57.6594305 88.28220476 -54.83007812 125.21826172 C-53.12671549 140.38647987 -45.46988625 154.30190522 -36 166 C-35.26265625 166.92296875 -34.5253125 167.8459375 -33.765625 168.796875 C-33.18296875 169.52390625 -32.6003125 170.2509375 -32 171 C-46.61223507 165.73645296 -58.7364084 152.34091824 -66 139 C-66.80050781 137.54013672 -66.80050781 137.54013672 -67.6171875 136.05078125 C-76.82445761 117.79656662 -79.38732733 95.55181934 -73.38671875 75.875 C-64.97502909 51.18565587 -46.98140882 32.78865759 -25.01171875 19.578125 C-15.62315325 13.93147697 -7.76609124 7.73949504 0 0 Z " fill="#C98176" transform="translate(225,216)"/>
<path d="M0 0 C3.32175536 1.2690509 6.38688682 2.72635389 9.5 4.4375 C17.50331089 8.49298937 26.18420173 9.80238212 35 11 C34.97905273 11.67353516 34.95810547 12.34707031 34.93652344 13.04101562 C34.32702895 35.67717794 37.02130688 56.41274915 50.73828125 75.203125 C52 77 52 77 53.046875 79.171875 C54.28566901 81.54792253 55.62793961 81.84991011 58 83 C59.75 85.125 59.75 85.125 61 87 C51.47673467 87.64707564 44.06091723 81.18043817 37.1875 75.1875 C27.05585645 65.5362361 20.33656295 53.25060903 16 40 C16 39.01 16 38.02 16 37 C14.68 37 13.36 37 12 37 C14.56609264 50.34368174 20.18807974 61.6900533 29 72 C29.721875 72.928125 30.44375 73.85625 31.1875 74.8125 C33.01135083 77.01369927 34.94317138 79.01662954 37 81 C30.3547123 79.09996854 26.14671065 75.46540765 21 71 C20.36707031 70.46375 19.73414063 69.9275 19.08203125 69.375 C8.13442012 59.35430332 0.59391805 42.75717386 -1 28 C-1.13455365 24.14464872 -1.13956519 20.29484766 -1.125 16.4375 C-1.12886719 15.40947266 -1.13273438 14.38144531 -1.13671875 13.32226562 C-1.13478516 11.83049805 -1.13478516 11.83049805 -1.1328125 10.30859375 C-1.13168457 9.40939209 -1.13055664 8.51019043 -1.12939453 7.58374023 C-0.99833145 4.96668248 -0.57879488 2.55227276 0 0 Z " fill="#CB8277" transform="translate(175,312)"/>
<path d="M0 0 C0.495 0.99 0.495 0.99 1 2 C-0.15949849 4.67294916 -1.3800657 7.18608626 -2.75 9.75 C-3.15613525 10.51280273 -3.56227051 11.27560547 -3.98071289 12.06152344 C-7.84726609 19.09588163 -12.51488278 25.19753042 -17.63574219 31.35009766 C-32.50782566 49.33605687 -45.32970595 68.83709005 -53 91 C-58.18386133 88.87010915 -60.49208559 84.83898869 -63 80 C-64.57823289 73.02947141 -60.51790422 66.83940408 -57 61 C-55.09673628 58.56090754 -53.06317131 56.30878694 -51 54 C-51 53.01 -51 52.02 -51 51 C-53.49843064 51.38148081 -54.73890154 51.73222383 -56.52734375 53.56640625 C-56.99269531 54.22511719 -57.45804688 54.88382812 -57.9375 55.5625 C-58.69933594 56.63177734 -58.69933594 56.63177734 -59.4765625 57.72265625 C-61.40811679 60.61008228 -63.24497771 63.54494631 -65.01953125 66.53125 C-65.34308594 67.0159375 -65.66664063 67.500625 -66 68 C-66.33 68 -66.66 68 -67 68 C-67.63643717 58.70801735 -62.43306042 53.12435928 -56.7109375 46.25 C-54.5220896 43.78284497 -52.27922518 41.3835853 -50 39 C-49.46117187 38.39800781 -48.92234375 37.79601562 -48.3671875 37.17578125 C-41.21045169 29.46161125 -31.93509182 23.72266436 -22.96459961 18.3425293 C-14.30561753 13.1417171 -7.14679823 7.12232289 0 0 Z " fill="#D19089" transform="translate(225,216)"/>
<path d="M0 0 C0.66 0 1.32 0 2 0 C11.42503818 18.85007635 6.12110597 52.30392046 6 73 C3.03 72.67 0.06 72.34 -3 72 C-4.16638311 65.94309683 -5.31862694 59.88375161 -6.4609375 53.82226562 C-6.9486453 51.26886789 -7.45523763 48.72018012 -7.96875 46.171875 C-11.27661898 29.41888154 -8.02913461 15.09669622 0 0 Z " fill="#3AAE85" transform="translate(268,90)"/>
<path d="M0 0 C2.58029884 2.58029884 2.75181994 4.47318424 3.55078125 8.02734375 C3.83477783 9.28168213 4.11877441 10.53602051 4.41137695 11.82836914 C4.71234786 13.19794847 5.0127079 14.56766216 5.3125 15.9375 C5.46584808 16.62762177 5.61919617 17.31774353 5.77719116 18.02877808 C16.21863608 65.01969044 16.21863608 65.01969044 16 81 C13.85646986 78.30001693 12.27728848 75.70587619 10.87890625 72.55859375 C10.50056641 71.72779297 10.12222656 70.89699219 9.73242188 70.04101562 C8.95166692 68.30354259 8.17562934 66.56394214 7.40429688 64.82226562 C7.02466797 63.99275391 6.64503906 63.16324219 6.25390625 62.30859375 C5.91689697 61.55376709 5.5798877 60.79894043 5.23266602 60.02124023 C3.15140598 56.60853439 0.73957283 55.24652428 -3 54 C-3.23227463 40.45660242 -3.03234434 27.01491194 -2.0625 13.5 C-1.97564941 12.2718457 -1.88879883 11.04369141 -1.79931641 9.77832031 C-1.13450182 1.13450182 -1.13450182 1.13450182 0 0 Z " fill="#79BEAA" transform="translate(243,79)"/>
<path d="M0 0 C0.99 0.33 1.98 0.66 3 1 C2.31410624 8.28232883 0.39580828 14.89647273 -1.74023438 21.87109375 C-5.17056297 33.39631687 -6.29455209 44.23788658 -6.125 56.25 C-6.11597656 57.48363281 -6.10695312 58.71726562 -6.09765625 59.98828125 C-6.07436851 62.99240024 -6.04166756 65.99608943 -6 69 C-7.65 68.67 -9.3 68.34 -11 68 C-15.09637382 51.41787878 -10.97830335 32.91025161 -6.5625 16.875 C-6.26206787 15.7830835 -5.96163574 14.69116699 -5.65209961 13.56616211 C-5.3556958 12.53112549 -5.05929199 11.49608887 -4.75390625 10.4296875 C-4.48908447 9.50397949 -4.2242627 8.57827148 -3.95141602 7.62451172 C-2.93772631 4.82821602 -1.60636833 2.49628793 0 0 Z " fill="#0C0909" transform="translate(231,281)"/>
<path d="M0 0 C3.73522495 0.54641937 5.10493159 1.85501651 7.375 4.8125 C18.53976861 20.01762384 22.75346052 37.36438469 21 56 C20.34 56.66 19.68 57.32 19 58 C18.01 58 17.02 58 16 58 C15.97421875 56.73027344 15.9484375 55.46054687 15.921875 54.15234375 C15.43406552 37.43304089 13.36169089 19.92161973 1.5625 7 C0.716875 6.01 -0.12875 5.02 -1 4 C-0.66015625 1.8125 -0.66015625 1.8125 0 0 Z " fill="#0E0A09" transform="translate(338,266)"/>
<path d="M0 0 C1.32 0.33 2.64 0.66 4 1 C3.40123137 4.52170497 2.05903574 6.37699105 -0.25 9.0625 C-11.6475483 23.37950227 -12.4924395 40.44540763 -13 58 C-16.875 57.125 -16.875 57.125 -18 56 C-19.30276302 37.01383069 -15.88745194 17.92302147 -3.0625 3.125 C-2.05692621 2.06859501 -1.04233163 1.02015436 0 0 Z " fill="#0D0A09" transform="translate(171,266)"/>
<path d="M0 0 C2.0625 0.4375 2.0625 0.4375 4 1 C3.33820462 17.21398684 -1.99098695 34.57230676 -13.35546875 46.578125 C-15.40876745 48.35342363 -17.36122736 49.36029754 -20 50 C-20.33 48.35 -20.66 46.7 -21 45 C-19.700625 44.071875 -19.700625 44.071875 -18.375 43.125 C-7.54165392 33.89376848 -3.24772274 16.45971873 -1.32421875 2.87109375 C-1 1 -1 1 0 0 Z " fill="#0D0908" transform="translate(290,342)"/>
<path d="M0 0 C17.16 0 34.32 0 52 0 C41.70880667 7.718395 29.46998165 8.00368145 17 7 C10.89288154 5.95347501 5.38250135 4.0549332 0 1 C0 0.67 0 0.34 0 0 Z " fill="#CFA29D" transform="translate(230,404)"/>
<path d="M0 0 C1 3 1 3 -0.00390625 5.234375 C-8.62961052 19.15656435 -8.62961052 19.15656435 -15 22 C-12.99776079 17.56025219 -10.08253836 13.7297106 -7.27734375 9.77734375 C-5.64578085 7.45653975 -4.10062991 5.20397954 -2.84375 2.65625 C-2 1 -2 1 0 0 Z " fill="#BE7A70" transform="translate(288,372)"/>
<path d="M0 0 C0.66 0.33 1.32 0.66 2 1 C-4.93 7.93 -11.86 14.86 -19 22 C-19 17.83256273 -16.7220201 16.1175327 -14 13.25 C-13.50395264 12.71793945 -13.00790527 12.18587891 -12.49682617 11.63769531 C-8.56892151 7.476431 -4.4406485 3.61359362 0 0 Z " fill="#302321" transform="translate(182,241)"/>
<path d="M0 0 C1.98 0.495 1.98 0.495 4 1 C3.67 2.32 3.34 3.64 3 5 C1.68 4.67 0.36 4.34 -1 4 C-0.67 2.68 -0.34 1.36 0 0 Z " fill="#1E1413" transform="translate(186,335)"/>
<path d="M0 0 C1.98 0.495 1.98 0.495 4 1 C3.67 2.32 3.34 3.64 3 5 C1.68 4.67 0.36 4.34 -1 4 C-0.67 2.68 -0.34 1.36 0 0 Z " fill="#221817" transform="translate(179,259)"/>
<path d="M0 0 C1.32 0.66 2.64 1.32 4 2 C3.67 2.99 3.34 3.98 3 5 C1.68 5 0.36 5 -1 5 C-0.67 3.35 -0.34 1.7 0 0 Z " fill="#1E1615" transform="translate(245,189)"/>
<path d="M0 0 C1.32 0 2.64 0 4 0 C3.67 1.65 3.34 3.3 3 5 C2.01 4.67 1.02 4.34 0 4 C0 2.68 0 1.36 0 0 Z " fill="#140E0D" transform="translate(328,258)"/>
<path d="M0 0 C1.32 0.33 2.64 0.66 4 1 C3.67 2.32 3.34 3.64 3 5 C2.01 4.67 1.02 4.34 0 4 C0 2.68 0 1.36 0 0 Z " fill="#0E0A09" transform="translate(259,390)"/>
</svg>
