<?xml version="1.0" encoding="UTF-8"?>
<svg version="1.1" xmlns="http://www.w3.org/2000/svg" width="512" height="512">
<path d="M0 0 C0.73387939 0.24057129 1.46775879 0.48114258 2.22387695 0.72900391 C14.2957177 4.90393541 14.2957177 4.90393541 16.375 9.0625 C16.92668794 15.56403762 15.77560891 19.34696066 12.4375 24.875 C11.83168091 25.91321899 11.83168091 25.91321899 11.21362305 26.97241211 C7.49359029 33.18687706 3.16672635 38.63065753 -1.625 44.0625 C-2.13546875 44.70445313 -2.6459375 45.34640625 -3.171875 46.0078125 C-14.04834722 59.63395466 -30.55760709 68.40596521 -47.75390625 70.68359375 C-64.42277219 72.31515782 -80.88951204 69.62783416 -96.625 64.0625 C-96.9653125 65.8878125 -96.9653125 65.8878125 -97.3125 67.75 C-98.70362675 74.10653536 -101.18885319 80.04651914 -103.625 86.0625 C-103.01205078 86.21283691 -102.39910156 86.36317383 -101.76757812 86.51806641 C-72.95480778 93.64583289 -47.41846071 103.17538359 -25.625 124.0625 C-24.779375 124.866875 -23.93375 125.67125 -23.0625 126.5 C-22.258125 127.345625 -21.45375 128.19125 -20.625 129.0625 C-19.98304688 129.70960938 -19.34109375 130.35671875 -18.6796875 131.0234375 C8.36488933 159.38726199 17.06439386 201.29221227 16.52734375 239.30859375 C15.32280219 286.1264362 -4.60596376 327.72427522 -33.625 364.0625 C-34.38167969 365.02285156 -35.13835937 365.98320312 -35.91796875 366.97265625 C-48.35302719 382.2224721 -62.5166143 396.69713897 -78.625 408.0625 C-79.18896484 408.46549316 -79.75292969 408.86848633 -80.33398438 409.28369141 C-132.9287947 446.55061888 -212.77234012 473.0494665 -277.51171875 462.09765625 C-298.50546599 458.1020593 -318.87064115 448.21168389 -331.32421875 430.2109375 C-338.21686497 418.82668698 -341.83518674 408.52909101 -342.0625 395.25 C-342.08489746 394.45658203 -342.10729492 393.66316406 -342.13037109 392.84570312 C-342.08085998 379.88942551 -336.88823256 368.8081848 -330.625 357.75 C-329.26859994 355.29251833 -327.92503335 352.828105 -326.58203125 350.36328125 C-326.24581253 349.74851929 -325.90959381 349.13375732 -325.56318665 348.50036621 C-307.85157593 316.00897739 -295.82443766 282.65912049 -290.625 246.0625 C-283.34256484 194.93227384 -272.42912565 143.62818859 -229.36376953 110.34423828 C-197.24161545 86.66531257 -159.12924412 83.67282211 -120.625 83.0625 C-106.89153584 51.00000025 -106.89153584 51.00000025 -107.93359375 17.25390625 C-109.55821673 14.18850907 -110.11021243 13.18434266 -113.1875 11.875 C-116.625 10.0625 -116.625 10.0625 -118.125 8.25 C-118.89070163 4.90005535 -118.46749579 2.37230488 -117.625 -0.9375 C-116.125 -2.9375 -116.125 -2.9375 -113.625 -3.9375 C-109.07136763 -4.56943266 -105.80854935 -3.70516085 -101.95703125 -1.20703125 C-95.95481801 3.80220136 -92.77076454 8.58606254 -90.625 16.0625 C-90.295 17.0525 -89.965 18.0425 -89.625 19.0625 C-89.24730469 18.65 -88.86960937 18.2375 -88.48046875 17.8125 C-64.3084215 -7.54833646 -31.84612542 -10.44124488 0 0 Z M-77.625 30.0625 C-82.70471461 35.86692056 -87.52341732 41.50358167 -89.625 49.0625 C-70.56365187 55.21710457 -52.44515961 58.58271311 -33.5 49.875 C-19.45347253 42.32358683 -9.97514368 30.30441723 -1.625 17.0625 C-4.95333307 14.84361128 -8.12263639 13.97503317 -11.9375 13 C-12.58912109 12.82662109 -13.24074219 12.65324219 -13.91210938 12.47460938 C-38.17986578 6.13438473 -60.41200112 11.38802008 -77.625 30.0625 Z " fill="#FED475" transform="translate(418.625,26.9375)"/>
<path d="M0 0 C0.73387939 0.24057129 1.46775879 0.48114258 2.22387695 0.72900391 C14.2957177 4.90393541 14.2957177 4.90393541 16.375 9.0625 C16.92668794 15.56403762 15.77560891 19.34696066 12.4375 24.875 C11.83168091 25.91321899 11.83168091 25.91321899 11.21362305 26.97241211 C7.49359029 33.18687706 3.16672635 38.63065753 -1.625 44.0625 C-2.13546875 44.70445313 -2.6459375 45.34640625 -3.171875 46.0078125 C-14.04834722 59.63395466 -30.55760709 68.40596521 -47.75390625 70.68359375 C-64.42277219 72.31515782 -80.88951204 69.62783416 -96.625 64.0625 C-96.9653125 65.8878125 -96.9653125 65.8878125 -97.3125 67.75 C-98.70362675 74.10653536 -101.18885319 80.04651914 -103.625 86.0625 C-103.01205078 86.21283691 -102.39910156 86.36317383 -101.76757812 86.51806641 C-72.95480778 93.64583289 -47.41846071 103.17538359 -25.625 124.0625 C-24.779375 124.866875 -23.93375 125.67125 -23.0625 126.5 C-22.258125 127.345625 -21.45375 128.19125 -20.625 129.0625 C-19.98304688 129.70960938 -19.34109375 130.35671875 -18.6796875 131.0234375 C8.36488933 159.38726199 17.06439386 201.29221227 16.52734375 239.30859375 C15.32280219 286.1264362 -4.60596376 327.72427522 -33.625 364.0625 C-34.38167969 365.02285156 -35.13835937 365.98320312 -35.91796875 366.97265625 C-48.35302719 382.2224721 -62.5166143 396.69713897 -78.625 408.0625 C-79.18896484 408.46549316 -79.75292969 408.86848633 -80.33398438 409.28369141 C-132.9287947 446.55061888 -212.77234012 473.0494665 -277.51171875 462.09765625 C-298.50546599 458.1020593 -318.87064115 448.21168389 -331.32421875 430.2109375 C-338.21686497 418.82668698 -341.83518674 408.52909101 -342.0625 395.25 C-342.08489746 394.45658203 -342.10729492 393.66316406 -342.13037109 392.84570312 C-342.08085998 379.88942551 -336.88823256 368.8081848 -330.625 357.75 C-329.26859994 355.29251833 -327.92503335 352.828105 -326.58203125 350.36328125 C-326.24581253 349.74851929 -325.90959381 349.13375732 -325.56318665 348.50036621 C-307.85157593 316.00897739 -295.82443766 282.65912049 -290.625 246.0625 C-283.34256484 194.93227384 -272.42912565 143.62818859 -229.36376953 110.34423828 C-197.24161545 86.66531257 -159.12924412 83.67282211 -120.625 83.0625 C-106.89153584 51.00000025 -106.89153584 51.00000025 -107.93359375 17.25390625 C-109.55821673 14.18850907 -110.11021243 13.18434266 -113.1875 11.875 C-116.625 10.0625 -116.625 10.0625 -118.125 8.25 C-118.89070163 4.90005535 -118.46749579 2.37230488 -117.625 -0.9375 C-116.125 -2.9375 -116.125 -2.9375 -113.625 -3.9375 C-109.07136763 -4.56943266 -105.80854935 -3.70516085 -101.95703125 -1.20703125 C-95.95481801 3.80220136 -92.77076454 8.58606254 -90.625 16.0625 C-90.295 17.0525 -89.965 18.0425 -89.625 19.0625 C-89.24730469 18.65 -88.86960937 18.2375 -88.48046875 17.8125 C-64.3084215 -7.54833646 -31.84612542 -10.44124488 0 0 Z M-77.625 30.0625 C-82.70471461 35.86692056 -87.52341732 41.50358167 -89.625 49.0625 C-70.56365187 55.21710457 -52.44515961 58.58271311 -33.5 49.875 C-19.45347253 42.32358683 -9.97514368 30.30441723 -1.625 17.0625 C-4.95333307 14.84361128 -8.12263639 13.97503317 -11.9375 13 C-12.58912109 12.82662109 -13.24074219 12.65324219 -13.91210938 12.47460938 C-38.17986578 6.13438473 -60.41200112 11.38802008 -77.625 30.0625 Z M-179.25 103.375 C-180.05775879 103.5930127 -180.86551758 103.81102539 -181.69775391 104.03564453 C-188.25984994 105.86012496 -194.48638294 108.09110284 -200.625 111.0625 C-201.66785156 111.56394531 -202.71070313 112.06539062 -203.78515625 112.58203125 C-228.30483303 125.06105626 -245.48080474 145.36979271 -256.76367188 170.17138672 C-257.5542899 171.90725045 -258.37718792 173.62831693 -259.203125 175.34765625 C-269.78305125 199.1524903 -272.90476903 227.33474111 -276.0925293 252.94335938 C-277.93797669 267.43084045 -280.93997761 281.13728797 -285.625 294.9375 C-285.9843161 296.00582565 -285.9843161 296.00582565 -286.35089111 297.09573364 C-295.01432379 322.75117686 -306.50698909 347.78317575 -320.25 371.125 C-326.61699944 382.12620789 -328.28588457 392.38044424 -326.12109375 405 C-322.13347259 419.58330022 -312.27097677 430.43713753 -299.43359375 438.01953125 C-283.79123055 446.70252311 -267.42204231 448.48632136 -249.75 448.4375 C-249.03500336 448.43728851 -248.32000671 448.43707703 -247.58334351 448.43685913 C-234.28366758 448.39792857 -221.63149901 446.90659998 -208.625 444.0625 C-207.22483643 443.76569336 -207.22483643 443.76569336 -205.79638672 443.46289062 C-200.25292154 442.28135537 -194.73547364 441.01250084 -189.22607422 439.68164062 C-186.74039046 439.0899667 -184.24935263 438.53318082 -181.75390625 437.984375 C-138.98443804 428.30784794 -98.29025962 407.41194938 -66.625 377.0625 C-65.74690674 376.23322998 -65.74690674 376.23322998 -64.85107422 375.38720703 C-54.99194242 366.04192311 -46.49667962 356.12958793 -38.625 345.0625 C-38.17286133 344.42844238 -37.72072266 343.79438477 -37.25488281 343.14111328 C-7.74909112 301.3247396 7.58477255 254.00956605 -0.75195312 202.67626953 C-1.53790347 198.74882941 -2.50832909 194.90795522 -3.625 191.0625 C-3.83398926 190.29969727 -4.04297852 189.53689453 -4.25830078 188.75097656 C-8.88659257 172.15846384 -16.6438747 157.33216105 -27.625 144.0625 C-28.30949219 143.21429688 -28.99398438 142.36609375 -29.69921875 141.4921875 C-51.29675717 116.02226233 -86.85764609 102.53359375 -119.45068359 99.28515625 C-126.1277778 98.81680446 -132.80936897 98.76693594 -139.5 98.75 C-140.19570099 98.74632416 -140.89140198 98.74264832 -141.60818481 98.73886108 C-154.43925806 98.70345013 -166.85308335 99.99108594 -179.25 103.375 Z " fill="#242020" transform="translate(418.625,26.9375)"/>
<path d="M0 0 C3.70451303 2.20438565 6.79721908 5.12465994 10 8 C10.62132812 8.53882813 11.24265625 9.07765625 11.8828125 9.6328125 C30.44487749 26.81351451 38.13787148 52.9491999 39.14160156 77.45751953 C39.26032401 81.36787778 39.32781706 85.27564951 39.375 89.1875 C39.40110352 90.4657666 39.42720703 91.7440332 39.45410156 93.06103516 C39.45635742 94.27194824 39.45861328 95.48286133 39.4609375 96.73046875 C39.46915527 97.81739014 39.47737305 98.90431152 39.48583984 100.02416992 C38.88080692 103.73007261 37.64450079 105.37407263 35 108 C31.5 109.0625 31.5 109.0625 28 109 C25.80834961 107.43481445 25.80834961 107.43481445 24 105 C23.53344727 101.78979492 23.53344727 101.78979492 23.56640625 97.98046875 C23.56114624 96.56233455 23.55517692 95.14420285 23.54858398 93.72607422 C23.55187714 92.98516541 23.55517029 92.24425659 23.55856323 91.480896 C23.60026205 67.18890823 20.76794499 41.35156362 3 23 C1.89834812 22.00440777 0.78819942 21.01817463 -0.328125 20.0390625 C-0.92085205 19.51538086 -1.5135791 18.99169922 -2.12426758 18.45214844 C-3.30930409 17.42140442 -4.51193238 16.41045563 -5.7331543 15.42285156 C-8.85482138 12.74726737 -9.94501987 11.4250903 -10.48046875 7.28515625 C-10 4 -10 4 -8.375 1.5625 C-5.29340295 -0.46486648 -3.64542009 -0.3694987 0 0 Z " fill="#272221" transform="translate(351,174)"/>
</svg>
