<?xml version="1.0" encoding="UTF-8"?>
<svg version="1.1" xmlns="http://www.w3.org/2000/svg" width="512" height="512">
<path d="M0 0 C0.73347656 0.63421875 1.46695312 1.2684375 2.22265625 1.921875 C5.8773793 5.08978603 9.47184569 8.32228492 13.0625 11.5625 C13.91070312 12.31917969 14.75890625 13.07585937 15.6328125 13.85546875 C17.05126844 15.14050556 18.44983054 16.44885688 19.8046875 17.80078125 C26.07307318 23.84422486 33.68204487 25.1546604 42.1875 25.1875 C43.79219176 25.14036919 45.39680104 25.08372606 47 25 C51.40242121 46.51421317 52.24865181 68.76964082 46 90 C44.09317649 91.90682351 40.53942484 91.22432553 38 91.3125 C26.31880704 91.99543427 20.22194414 96.36358826 11.640625 103.875 C-39.14091295 148.02316472 -105.8259334 183.55429357 -174 186 C-175.08796875 186.04125 -176.1759375 186.0825 -177.296875 186.125 C-194.20361644 186.44249749 -210.64348038 184.11409407 -227 180 C-225.62313762 176.80346523 -224.13756103 175.04595816 -221.4375 172.875 C-199.4090946 154.03334402 -189.66175223 125.53727852 -187.28515625 97.2734375 C-187.1845442 95.84934024 -187.08942123 94.42484372 -187 93 C-186.95472168 92.29907227 -186.90944336 91.59814453 -186.86279297 90.87597656 C-186.15928543 80.12477921 -186.15928543 80.12477921 -191 71 C-195.33624363 68.01280995 -198.7924678 67.44205012 -204 68 C-208.15757553 69.59906751 -210.7122114 71.14688235 -213 75 C-213.99275452 77.97826357 -214.2229816 80.26368069 -214.39453125 83.3828125 C-215.73226526 105.1596883 -218.11034 126.25749726 -232 144 C-233.1446875 145.5778125 -233.1446875 145.5778125 -234.3125 147.1875 C-240.34721781 153.50290236 -247.78317678 158.08987511 -256 161 C-257.0828125 161.42539062 -257.0828125 161.42539062 -258.1875 161.859375 C-272.19481315 166.11835535 -291.00512535 155.26814589 -303.17236328 148.85498047 C-324.20074583 137.36623309 -361.01594712 115.74551085 -369.77734375 91.8828125 C-370.53439686 88.0614968 -370.00882811 86.01734093 -368.25 82.5625 C-366 80 -366 80 -363 79 C-361.02220816 78.88308759 -359.04085245 78.82327004 -357.05981445 78.79467773 C-355.83877518 78.77473251 -354.6177359 78.75478729 -353.35969543 78.73423767 C-352.04087875 78.71752518 -350.72206207 78.70081268 -349.36328125 78.68359375 C-347.99992756 78.6630174 -346.63658015 78.64202075 -345.27323914 78.62062073 C-341.68778578 78.5654703 -338.10227552 78.51603013 -334.51672363 78.46777344 C-330.8568008 78.41750701 -327.19696043 78.36184781 -323.53710938 78.30664062 C-316.35814279 78.19914506 -309.17910755 78.0976811 -302 78 C-301.00842052 74.82345344 -301.00842052 74.82345344 -301.9765625 71.66015625 C-316.05597677 49.47340153 -339.86046161 34.20804478 -364.53125 26.1328125 C-367.39537921 24.818576 -368.46043889 23.72808223 -370 21 C-370.90141176 17.84812486 -370.76835843 15.17820985 -370 12 C-367.7586702 8.27037978 -364.94108706 5.19191556 -362 2 C-361.29101562 1.17371094 -360.58203125 0.34742188 -359.8515625 -0.50390625 C-339.4157359 -24.07519361 -312.05394714 -39.46930617 -283 -50 C-281.76636719 -50.45761719 -280.53273438 -50.91523438 -279.26171875 -51.38671875 C-187.94380372 -83.58669546 -89.56991872 -70.3351728 0 0 Z M-269 2 C-273.20098493 6.65514546 -274.3543609 9.53035959 -274.28515625 15.6796875 C-273.74628492 20.06447612 -271.21635745 22.69354199 -268.3125 25.8125 C-264.66747151 27.68427139 -261.0766155 28.11343626 -257 28 C-251.62714133 26.17525555 -248.52598965 23.05197929 -246 18 C-245.42574915 13.29302583 -245.54445448 9.87855208 -247.75 5.625 C-251.80435778 0.89491593 -254.54871938 -0.57342123 -260.75390625 -1.0625 C-264.16988788 -0.9674466 -266.22041129 0.06075206 -269 2 Z " fill="#000000" transform="translate(370,214)"/>
<path d="M0 0 C6.38312316 4.44180706 12.9672827 8.28360683 19.81298828 11.97460938 C20.84939453 12.55726562 21.88580078 13.13992187 22.95361328 13.74023438 C39.70739028 22.72414378 59.16196829 28.84145499 78.10986328 30.44726562 C79.0422583 30.5267041 79.97465332 30.60614258 80.93530273 30.68798828 C82.75793698 30.83309089 84.58212554 30.96025157 86.4074707 31.06591797 C93.53381288 31.58422213 99.2345761 33.26397092 104.25048828 38.53710938 C107.57911074 43.72976042 107.29903777 48.99932986 106.81298828 54.97460938 C105.96804058 58.72266746 104.72109726 62.2593769 103.38330078 65.85742188 C103.03290741 66.8383078 102.68251404 67.81919373 102.32150269 68.82980347 C101.5848428 70.88136164 100.83987021 72.9299526 100.08691406 74.97558594 C98.93062557 78.11962919 97.8015417 81.27247318 96.67626953 84.42773438 C95.95516665 86.42569153 95.23256465 88.42310841 94.50830078 90.41992188 C93.99881393 91.83689865 93.99881393 91.83689865 93.47903442 93.28250122 C93.15885345 94.14785492 92.83867249 95.01320862 92.50878906 95.90478516 C92.228992 96.66880646 91.94919495 97.43282776 91.66091919 98.22000122 C90.81298828 99.97460938 90.81298828 99.97460938 88.81298828 100.97460938 C87.90419922 100.35714844 86.99541016 99.7396875 86.05908203 99.10351562 C12.56118752 49.43903416 -64.24906846 36.47090318 -150.83544922 51.88867188 C-155.94561128 52.79260276 -161.02209925 53.47691974 -166.18701172 53.97460938 C-166.39746656 47.55254811 -165.82795356 42.09518842 -164.12451172 35.91210938 C-163.90118164 35.09137939 -163.67785156 34.27064941 -163.44775391 33.42504883 C-158.16876158 14.82827211 -148.73840151 -0.43988978 -136.18701172 -15.02539062 C-135.57986328 -15.76660156 -134.97271484 -16.5078125 -134.34716797 -17.27148438 C-125.50094704 -27.8829376 -116.83215161 -31.48457571 -103.24414062 -32.84814453 C-65.27283767 -36.11982338 -30.43833731 -21.31798569 0 0 Z " fill="#000000" transform="translate(276.18701171875,73.025390625)"/>
<path d="M0 0 C4.6 2.2 4.6 2.2 6 5 C6.7344659 12.88573893 5.17096563 20.41847256 3.6875 28.125 C-4.96482047 76.26063032 -4.5732065 125.9270912 5.59619141 173.81762695 C6.48096006 178.59933616 6.78034304 182.47182822 4.5 186.9375 C1.17184947 189.68322419 -1.78627579 190.36780135 -6 190 C-12.1122375 187.5315964 -16.79812339 182.92783944 -21.78125 178.6953125 C-26.42259777 174.77427052 -31.27891859 171.13144913 -36.10888672 167.44824219 C-39.81618514 164.60913888 -43.50140258 161.7415419 -47.1875 158.875 C-48.34088867 157.9780542 -48.34088867 157.9780542 -49.51757812 157.06298828 C-55.04920497 152.75465618 -60.54898712 148.41011595 -66 144 C-65.30206441 140.10253946 -64.28915061 136.33119446 -63.23510742 132.51953125 C-55.14031524 102.94929947 -56.97862076 73.62922445 -64 44 C-63.27039063 43.44054687 -62.54078125 42.88109375 -61.7890625 42.3046875 C-50.26354293 33.45422679 -38.76788963 24.56353891 -27.36328125 15.55761719 C-25.6640377 14.2182696 -23.95956049 12.88585676 -22.25390625 11.5546875 C-20.05211234 9.83566803 -17.8779392 8.08771188 -15.71484375 6.3203125 C-14.66446739 5.4838663 -13.6137039 4.64790595 -12.5625 3.8125 C-11.65628906 3.07644531 -10.75007813 2.34039062 -9.81640625 1.58203125 C-6.29300447 -0.39713341 -3.98463612 -0.38771958 0 0 Z " fill="#000000" transform="translate(506,178)"/>
<path d="M0 0 C2.31860259 2.02371197 4.01712152 4.45117108 5.8125 6.9375 C11.45121826 14.3742532 17.64941893 20.8437795 24.52661133 27.15014648 C27.91313424 30.37006139 29.77916303 32.20580483 31.0546875 36.79296875 C30.9877241 40.71989382 30.20898548 42.76015463 28 46 C24.01081543 49.00362755 21.01090039 49.38951288 16.07348633 49.43579102 C15.39631561 49.44586685 14.7191449 49.45594269 14.02145386 49.46632385 C11.79147635 49.49472538 9.56217819 49.50067718 7.33203125 49.50390625 C5.77129343 49.51355627 4.21055829 49.52364941 2.64982605 49.53416443 C-0.62096436 49.55210872 -3.89151738 49.55768759 -7.16235352 49.5559082 C-11.33087026 49.55560423 -15.49784361 49.59647479 -19.6659956 49.64822483 C-22.89106572 49.68177779 -26.11577099 49.68765994 -29.3409977 49.68607903 C-30.8762574 49.68959375 -32.41152916 49.70271961 -33.94661522 49.72607613 C-43.45412252 49.8571402 -50.32340742 49.00061053 -58 43 C-58.58052124 42.59486679 -59.16104248 42.18973358 -59.75915527 41.77232361 C-73.80323264 31.93273265 -89.14485781 18.82565473 -98 4 C-98 3.01 -98 2.02 -98 1 C-97.4016333 1.08564209 -96.8032666 1.17128418 -96.18676758 1.25952148 C-67.63873986 5.31979509 -39.86878361 6.69232997 -11.40234375 0.96557617 C-3.44940365 -0.61828933 -3.44940365 -0.61828933 0 0 Z " fill="#000000" transform="translate(244,423)"/>
<path d="M0 0 C0.99 0.598125 1.98 1.19625 3 1.8125 C11.93409017 6.97400167 21.16638818 8.55604049 31.32519531 9.14111328 C37.52161199 9.59215896 41.58553164 11.25250152 45.8125 16.0625 C48.32973941 20.16957483 48.48086689 24.31600029 48 29 C46.14231853 34.26343082 43.43208258 36.83422673 39 40 C24.61275722 44.70713838 4.6981028 38.64649343 -8.375 32.25 C-16.15482639 28.26507321 -22.88960158 23.26460406 -29 17 C-27.89046512 13.67139535 -27.5257486 13.4141022 -24.68359375 11.6953125 C-24.00103516 11.27636719 -23.31847656 10.85742188 -22.61523438 10.42578125 C-21.89658203 9.99652344 -21.17792969 9.56726563 -20.4375 9.125 C-19.74591797 8.70347656 -19.05433594 8.28195312 -18.34179688 7.84765625 C-16.94118744 6.99397631 -15.5366801 6.1466599 -14.12841797 5.30566406 C-12.67430837 4.41365005 -11.24133308 3.4864881 -9.82861328 2.53027344 C-9.13364746 2.06395508 -8.43868164 1.59763672 -7.72265625 1.1171875 C-7.10269775 0.68776855 -6.48273926 0.25834961 -5.84399414 -0.18408203 C-3.44976161 -1.24346573 -2.41461012 -0.92097156 0 0 Z " fill="#000000" transform="translate(367,368)"/>
</svg>
