<?xml version="1.0" encoding="UTF-8"?>
<svg version="1.1" xmlns="http://www.w3.org/2000/svg" width="512" height="512">
<path d="M0 0 C1.13401245 -0.00817749 2.2680249 -0.01635498 3.43640137 -0.02478027 C7.17821735 -0.04953716 10.91999583 -0.06611984 14.66186523 -0.08056641 C15.94093184 -0.08589008 17.21999844 -0.09121376 18.53782463 -0.09669876 C23.9106781 -0.11789888 29.28351942 -0.13703184 34.65640354 -0.14832115 C42.34189403 -0.16458133 50.02688093 -0.19784718 57.71218163 -0.254722 C63.77877918 -0.29808325 69.84514712 -0.31406431 75.9119091 -0.32045364 C78.48956845 -0.32718075 81.06722002 -0.34244034 83.6447773 -0.36634445 C87.24534975 -0.39784818 90.84463928 -0.39805501 94.4453125 -0.390625 C95.51194626 -0.40703033 96.57858002 -0.42343567 97.67753601 -0.44033813 C105.72398802 -0.37222264 105.72398802 -0.37222264 108.85874939 2.6043396 C110.65795898 5.19287109 110.65795898 5.19287109 110.65795898 7.19287109 C112.92941245 7.1598645 115.20036025 7.09047105 117.47045898 7.00537109 C118.7350293 6.97056641 119.99959961 6.93576172 121.30249023 6.89990234 C124.82321703 6.54777367 124.82321703 6.54777367 126.48217773 3.70458984 C127.06418945 2.46128906 127.06418945 2.46128906 127.65795898 1.19287109 C130.6028009 -0.27954986 133.57895688 0.04844662 136.80738831 0.0524292 C137.92514543 0.04797252 137.92514543 0.04797252 139.06548351 0.0434258 C141.57621897 0.03471669 144.08690686 0.03322861 146.59765625 0.03173828 C148.39300641 0.02711118 150.18835559 0.02208667 151.98370361 0.01669312 C156.87506613 0.00354523 161.76641489 -0.00288202 166.65779233 -0.00731754 C169.71834005 -0.01024814 172.77888402 -0.01435321 175.83942986 -0.01882172 C185.42734624 -0.03251109 195.01525404 -0.04216722 204.60317951 -0.04602361 C215.64543253 -0.05048963 226.68756084 -0.06796343 237.72977597 -0.0970242 C246.27608602 -0.11872852 254.82236125 -0.12873275 263.36869854 -0.13006473 C268.46599202 -0.13110773 273.56316853 -0.13690557 278.66043282 -0.15488434 C283.46949932 -0.17151374 288.27836289 -0.17344935 293.08744812 -0.16474533 C294.83961472 -0.16398248 296.59179289 -0.16821652 298.3439312 -0.17820358 C312.58333173 -0.25451152 326.72664443 0.74337014 340.09545898 6.06787109 C340.75175293 6.32834229 341.40804688 6.58881348 342.08422852 6.85717773 C351.46549676 10.64270303 359.51715151 15.20423112 367.65795898 21.19287109 C368.37081055 21.68787109 369.08366211 22.18287109 369.81811523 22.69287109 C374.89546795 26.29299787 378.71834855 30.40009662 382.65795898 35.19287109 C383.70790039 36.37816406 383.70790039 36.37816406 384.77905273 37.58740234 C404.79007611 60.71972919 410.41703592 88.24357409 408.65795898 118.19287109 C405.89017479 144.3112001 391.16185017 168.68972132 371.65795898 185.78271484 C355.16004663 199.03689703 333.43447394 209.24467943 311.95211792 209.34004211 C310.2824144 209.35077507 310.2824144 209.35077507 308.57897949 209.36172485 C307.37253784 209.36441376 306.16609619 209.36710266 304.9230957 209.36987305 C303.6411734 209.37644424 302.3592511 209.38301544 301.03848267 209.38978577 C296.80488311 209.41071774 292.57128359 209.42117078 288.33764648 209.43115234 C286.87723904 209.43520251 285.41683178 209.43931951 283.95642471 209.44350243 C277.10070262 209.46252196 270.24499114 209.47676559 263.38924778 209.4851144 C255.4801314 209.49490651 247.57129341 209.52129058 239.6622752 209.56161529 C233.54239471 209.59174724 227.42259427 209.60658005 221.30264103 209.60989541 C217.64941777 209.61224716 213.99649307 209.62122499 210.34334946 209.64635658 C206.27339747 209.67390865 202.20407241 209.66981527 198.1340332 209.6628418 C196.31829803 209.68205688 196.31829803 209.68205688 194.46588135 209.70166016 C192.8046373 209.69124443 192.8046373 209.69124443 191.10983276 209.68061829 C189.6669328 209.68420082 189.6669328 209.68420082 188.19488335 209.68785572 C184.89639576 209.0442809 183.6843668 207.8271775 181.65795898 205.19287109 C181.65795898 204.20287109 181.65795898 203.21287109 181.65795898 202.19287109 C176.70795898 202.19287109 171.75795898 202.19287109 166.65795898 202.19287109 C166.32795898 203.84287109 165.99795898 205.49287109 165.65795898 207.19287109 C161.93255237 209.67647551 160.02732925 209.42445779 155.58374023 209.38818359 C154.89990768 209.3853537 154.21607513 209.3825238 153.51152039 209.37960815 C151.33098734 209.36842793 149.15086754 209.34332801 146.97045898 209.31787109 C145.49064722 209.30783847 144.010829 209.29871311 142.53100586 209.29052734 C138.90652298 209.2684959 135.28228133 209.23398111 131.65795898 209.19287109 C131.97941895 210.14427979 132.30087891 211.09568848 132.63208008 212.07592773 C133.95320756 216.72229306 134.00913898 221.25942884 134.07202148 226.06396484 C134.10107071 227.44745872 134.10107071 227.44745872 134.13070679 228.85890198 C134.19012019 231.7826332 134.23673407 234.70640462 134.28295898 237.63037109 C134.321174 239.62192399 134.36022775 241.61346099 134.40014648 243.60498047 C134.49579002 248.46748032 134.57996119 253.33005748 134.65795898 258.19287109 C135.20166641 257.91940857 135.74537384 257.64594604 136.30555725 257.36419678 C145.04628176 252.97885132 153.63150837 248.83859616 163.09545898 246.25537109 C163.77850098 246.06885986 164.46154297 245.88234863 165.1652832 245.69018555 C167.32120914 245.13875912 169.48064552 244.65274365 171.65795898 244.19287109 C172.52735107 244.00813232 173.39674316 243.82339355 174.29248047 243.63305664 C182.80906169 242.01294134 191.2129988 241.83563951 199.84545898 241.88037109 C200.57473602 241.88219391 201.30401306 241.88401672 202.0553894 241.88589478 C212.86700927 241.93141208 223.15961543 242.38425275 233.65795898 245.19287109 C234.30361816 245.35916016 234.94927734 245.52544922 235.61450195 245.69677734 C260.00511539 252.10131479 283.36065375 265.08610114 296.65795898 287.19287109 C303.38073693 299.77981133 305.12747897 311.65213095 305.09155273 325.70849609 C305.09612754 327.29352031 305.10143691 328.87854255 305.10743713 330.46356201 C305.11632219 333.77168883 305.11399984 337.07957368 305.10400391 340.38769531 C305.09254615 344.58437566 305.11269981 348.78021048 305.14192104 352.97677994 C305.16045456 356.24748871 305.15995646 359.51800147 305.15428352 362.78874969 C305.15413225 364.3337904 305.16001191 365.87884611 305.172575 367.42383575 C305.31618432 387.98180089 299.47576541 404.48854608 285.1862793 419.66015625 C263.57492932 441.33364749 231.96334264 450.48146371 202.03295898 450.63037109 C172.05338883 450.31964234 141.51130812 442.45460331 118.65795898 422.19287109 C117.91674805 421.56123047 117.17553711 420.92958984 116.41186523 420.27880859 C106.17112572 410.89645466 97.40454955 396.25029958 96.53231812 382.16377258 C96.44662443 379.68786175 96.38907849 377.2127781 96.34155273 374.73583984 C96.32077164 373.83287674 96.29999054 372.92991364 96.27857971 371.99958801 C96.21340618 369.12659013 96.15434943 366.25350396 96.09545898 363.38037109 C96.05224312 361.42788815 96.00862786 359.47541401 95.96459961 357.52294922 C95.85775791 352.74634607 95.75640041 347.96965445 95.65795898 343.19287109 C94.11253418 344.00038818 94.11253418 344.00038818 92.53588867 344.82421875 C84.811344 348.80826972 77.36113329 352.38424604 68.90795898 354.56787109 C68.0790918 354.80119141 67.25022461 355.03451172 66.39624023 355.27490234 C54.5445896 358.5071707 42.9735735 359.60422892 30.72045898 359.56787109 C29.99663025 359.56699493 29.27280151 359.56611877 28.52703857 359.56521606 C-2.87051748 359.4403242 -32.77309258 349.96302542 -55.75610352 327.87255859 C-67.80014836 314.89847167 -74.42580411 299.41759209 -74.48730469 281.62182617 C-74.49368454 280.35973831 -74.50006439 279.09765045 -74.50663757 277.7973175 C-74.5081671 276.43567951 -74.50928061 275.074041 -74.51000977 273.71240234 C-74.51322979 272.29383817 -74.51659441 270.87527432 -74.52009583 269.45671082 C-74.52606461 266.48879223 -74.52793815 263.52090267 -74.52734375 260.55297852 C-74.52724249 256.78210926 -74.54086774 253.01142981 -74.55811596 249.24060535 C-74.56933247 246.31061478 -74.57125999 243.38066862 -74.57073402 240.4506588 C-74.5719007 239.06223589 -74.57624705 237.67381131 -74.58406639 236.28540993 C-74.66582306 220.26438367 -72.61361791 206.19681957 -63.26000977 192.81396484 C-62.095667 191.06827803 -62.095667 191.06827803 -62.34204102 188.19287109 C-64.23283494 186.42845342 -64.23283494 186.42845342 -66.71704102 184.69287109 C-78.58098312 175.48953095 -88.29197944 162.99696727 -94.34204102 149.19287109 C-94.02625154 142.87708162 -94.02625154 142.87708162 -91.34204102 140.19287109 C-91.54485192 137.86745747 -91.54485192 137.86745747 -92.21704102 135.31787109 C-92.98677396 132.05381367 -93.34204102 129.6008987 -93.34204102 126.19287109 C-94.27016602 126.08974609 -95.19829102 125.98662109 -96.15454102 125.88037109 C-99.40981762 125.17825261 -100.42577489 124.81513001 -102.34204102 122.19287109 C-109.18220403 101.67238204 -101.67285238 74.77956389 -92.33813477 56.08349609 C-87.47189643 46.78685161 -81.57458122 38.77690403 -74.34204102 31.19287109 C-73.51317383 30.32146484 -72.68430664 29.45005859 -71.83032227 28.55224609 C-56.97076477 14.07953772 -37.59113183 4.98105901 -17.34204102 1.19287109 C-16.11814415 0.93453995 -16.11814415 0.93453995 -14.86952209 0.67098999 C-9.90913549 -0.00134659 -5.00062876 0.02000961 0 0 Z " fill="#5CA823" transform="translate(103.342041015625,30.80712890625)"/>
<path d="M0 0 C3.83469115 3.29975775 6.25888487 6.81740274 8.75 11.1875 C12.46785276 17.493754 16.88117377 22.75320311 22 28 C22.886875 28.928125 23.77375 29.85625 24.6875 30.8125 C27.36369233 33.34403328 30.14318332 35.6746841 33 38 C36.30491161 36.96721512 38.66776988 35.53300595 41.3125 33.375 C67.34188211 13.28817494 102.74674312 10.17655769 134.39453125 13.4609375 C161.80565626 17.15573482 186.41887618 30.13871171 204.5625 50.9375 C206 53 206 53 206 55 C207.78615723 54.9685791 207.78615723 54.9685791 209.60839844 54.93652344 C214.02884889 54.86409038 218.44924696 54.81818828 222.87011719 54.78027344 C224.78296735 54.76016548 226.69575611 54.73287493 228.60839844 54.69824219 C231.35887811 54.64968751 234.10854477 54.62702342 236.859375 54.609375 C237.71368103 54.58872986 238.56798706 54.56808472 239.44818115 54.54681396 C245.35936209 54.54458305 245.35936209 54.54458305 248.54003906 56.80566406 C250.68529304 60.03000232 250.54029054 62.21796624 250 66 C248.41699219 68.19433594 248.41699219 68.19433594 246 70 C242.70019531 70.45410156 242.70019531 70.45410156 238.828125 70.390625 C237.8044986 70.38213531 237.8044986 70.38213531 236.76019287 70.37347412 C234.58940238 70.35115636 232.42028794 70.30097508 230.25 70.25 C228.7747635 70.22992876 227.29950101 70.21167907 225.82421875 70.1953125 C222.21560499 70.1513088 218.60796619 70.08231583 215 70 C215.32145996 70.95140869 215.64291992 71.90281738 215.97412109 72.88305664 C217.29524858 77.52942197 217.35117999 82.06655775 217.4140625 86.87109375 C217.44311172 88.25458763 217.44311172 88.25458763 217.4727478 89.66603088 C217.5321612 92.58976211 217.57877509 95.51353353 217.625 98.4375 C217.66321502 100.4290529 217.70226877 102.4205899 217.7421875 104.41210938 C217.83783104 109.27460923 217.92200221 114.13718638 218 119 C218.54370743 118.72653748 219.08741486 118.45307495 219.64759827 118.17132568 C228.38832278 113.78598023 236.97354939 109.64572507 246.4375 107.0625 C247.12054199 106.87598877 247.80358398 106.68947754 248.50732422 106.49731445 C250.66325016 105.94588803 252.82268654 105.45987255 255 105 C256.30408813 104.72289185 256.30408813 104.72289185 257.63452148 104.44018555 C266.15110271 102.82007025 274.55503982 102.64276842 283.1875 102.6875 C283.91677704 102.68932281 284.64605408 102.69114563 285.39743042 102.69302368 C296.20905028 102.73854099 306.50165645 103.19138166 317 106 C317.64565918 106.16628906 318.29131836 106.33257812 318.95654297 106.50390625 C343.3471564 112.90844369 366.70269477 125.89323005 380 148 C386.72277795 160.58694024 388.46951999 172.45925986 388.43359375 186.515625 C388.43816856 188.10064921 388.44347793 189.68567146 388.44947815 191.27069092 C388.45836321 194.57881774 388.45604086 197.88670259 388.44604492 201.19482422 C388.43458717 205.39150457 388.45474082 209.58733939 388.48396206 213.78390884 C388.50249558 217.05461762 388.50199747 220.32513038 388.49632454 223.5958786 C388.49617327 225.14091931 388.50205292 226.68597502 388.51461601 228.23096466 C388.65822534 248.7889298 382.81780642 265.29567498 368.52832031 280.46728516 C346.91697034 302.14077639 315.30538365 311.28859262 285.375 311.4375 C255.39542985 311.12677125 224.85334913 303.26173222 202 283 C201.25878906 282.36835938 200.51757812 281.73671875 199.75390625 281.0859375 C189.51316674 271.70358356 180.74659056 257.05742849 179.87435913 242.97090149 C179.78866544 240.49499066 179.73111951 238.01990701 179.68359375 235.54296875 C179.66281265 234.64000565 179.64203156 233.73704254 179.62062073 232.80671692 C179.5554472 229.93371903 179.49639045 227.06063286 179.4375 224.1875 C179.39428414 222.23501706 179.35066888 220.28254292 179.30664062 218.33007812 C179.19979893 213.55347497 179.09844143 208.77678336 179 204 C177.9697168 204.53834473 176.93943359 205.07668945 175.87792969 205.63134766 C168.15338502 209.61539863 160.7031743 213.19137494 152.25 215.375 C151.42113281 215.60832031 150.59226563 215.84164062 149.73828125 216.08203125 C137.88663062 219.3142996 126.31561452 220.41135783 114.0625 220.375 C113.33867126 220.37412384 112.61484253 220.37324768 111.86907959 220.37234497 C80.47152354 220.2474531 50.56894844 210.77015432 27.5859375 188.6796875 C15.54189265 175.70560058 8.91623691 160.224721 8.85473633 142.42895508 C8.84835648 141.16686722 8.84197662 139.90477936 8.83540344 138.60444641 C8.83387391 137.24280842 8.83276041 135.88116991 8.83203125 134.51953125 C8.82881122 133.10096708 8.82544661 131.68240323 8.82194519 130.26383972 C8.8159764 127.29592114 8.81410287 124.32803158 8.81469727 121.36010742 C8.81479853 117.58923817 8.80117327 113.81855871 8.78392506 110.04773426 C8.77270855 107.11774369 8.77078102 104.18779753 8.77130699 101.2577877 C8.77014032 99.86936479 8.76579397 98.48094022 8.75797462 97.09253883 C8.67621795 81.07151258 10.72842311 67.00394848 20.08203125 53.62109375 C21.24637401 51.87540694 21.24637401 51.87540694 21 49 C19.10920608 47.23558233 19.10920608 47.23558233 16.625 45.5 C4.74561009 36.28467638 -4.92156033 23.80591975 -11 10 C-10.88245963 6.53255901 -10.6242811 4.07515078 -8.875 1.0625 C-5.76581435 -0.69937187 -3.49155423 -0.48159369 0 0 Z " fill="#010200" transform="translate(20,170)"/>
<path d="M0 0 C0.93271729 0.29801514 0.93271729 0.29801514 1.88427734 0.60205078 C25.4079531 8.25972138 44.51927954 23.92578632 56 46 C65.27535223 65.72201176 67.97681437 86.8170579 62 108 C61.69255859 109.25683594 61.69255859 109.25683594 61.37890625 110.5390625 C56.1306009 130.55433882 41.99304989 149.04561306 24.765625 160.41015625 C19.03677807 163.70343408 13.07280916 166.40794731 7 169 C6.20851563 169.34160156 5.41703125 169.68320313 4.6015625 170.03515625 C-16.53013499 178.09110989 -41.90550176 174.93941646 -62 166 C-84.38515031 154.82051557 -99.74269993 136.60305192 -108.359375 113.328125 C-115.88707462 89.65405517 -113.14103758 64.91031385 -102 43 C-91.38171117 23.16728265 -72.40926943 7.29366647 -50.859375 0.65234375 C-34.43363262 -4.00286906 -16.42457052 -5.36684487 0 0 Z " fill="#B5E791" transform="translate(432,50)"/>
<path d="M0 0 C1.36035878 0.33333295 2.7210522 0.66530244 4.08203125 0.99609375 C19.49371025 4.93320383 33.37735029 12.03298694 45 23 C45.64066406 23.5878125 46.28132812 24.175625 46.94140625 24.78125 C56.4106362 34.44113558 60.76252548 45.93414837 60.67163086 59.26489258 C60.07869726 73.03610976 53.39780016 83.42347781 44 93 C43.25878906 93.77730469 42.51757812 94.55460937 41.75390625 95.35546875 C23.74785688 112.99714613 -3.67072082 118.38857895 -27.94921875 118.23266602 C-43.06631279 117.95823178 -56.77051739 116.19589321 -71 111 C-71.94488281 110.66871094 -72.88976562 110.33742188 -73.86328125 109.99609375 C-90.13486662 103.94802391 -105.38036443 92.36385849 -112.9921875 76.5546875 C-115.59241773 69.96340621 -116.36442928 64.13338529 -116.375 57.125 C-116.39949219 56.27808594 -116.42398438 55.43117188 -116.44921875 54.55859375 C-116.50467366 42.4879087 -109.36222722 31.28804843 -101.1875 22.75 C-89.25176358 11.56450987 -73.85230201 3.81561223 -58 0 C-56.78828125 -0.29777344 -55.5765625 -0.59554688 -54.328125 -0.90234375 C-36.77537737 -4.79012816 -17.33513798 -4.7948254 0 0 Z " fill="#B5E791" transform="translate(332,291)"/>
<path d="M0 0 C10.46340691 9.03939295 19.27432163 20.72185227 20.6171875 34.89453125 C21.24311922 49.70275795 15.77166367 61.13043121 6.3359375 72.17578125 C-8.47103536 88.09463302 -32.82979439 97.8527836 -54.390625 99.05029297 C-57.83463313 99.15254128 -61.27657384 99.17006614 -64.72192383 99.15942383 C-66.83923719 99.1562799 -68.95512531 99.17975407 -71.07226562 99.20507812 C-97.26977379 99.32531989 -122.14254453 91.24608067 -141.421875 73.28125 C-142.164375 72.476875 -142.906875 71.6725 -143.671875 70.84375 C-144.13980469 70.369375 -144.60773438 69.895 -145.08984375 69.40625 C-154.32094682 59.53442769 -157.03108063 48.60750084 -156.87890625 35.4375 C-156.06638029 21.33327575 -148.73521177 11.02465124 -138.73828125 1.4765625 C-128.82362181 -7.28165362 -117.1208364 -12.93042988 -104.671875 -17.15625 C-103.68453369 -17.4951123 -103.68453369 -17.4951123 -102.67724609 -17.84082031 C-69.98319953 -28.43242236 -26.6891605 -21.53862076 0 0 Z " fill="#B5E791" transform="translate(201.671875,219.15625)"/>
<path d="M0 0 C0.74517142 -0.00297112 1.49034284 -0.00594224 2.2580952 -0.0090034 C4.76883066 -0.01771251 7.27951856 -0.01920059 9.79026794 -0.02069092 C11.58561811 -0.02531802 13.38096728 -0.03034253 15.17631531 -0.03573608 C20.06767782 -0.04888397 24.95902659 -0.05531122 29.85040402 -0.05974674 C32.91095174 -0.06267734 35.97149572 -0.06678241 39.03204155 -0.07125092 C48.61995793 -0.08494029 58.20786573 -0.09459642 67.79579121 -0.09845281 C78.83804422 -0.10291883 89.88017254 -0.12039263 100.92238766 -0.1494534 C109.46869771 -0.17115772 118.01497294 -0.18116195 126.56131023 -0.18249393 C131.65860372 -0.18353693 136.75578023 -0.18933477 141.85304451 -0.20731354 C146.66211102 -0.22394294 151.47097458 -0.22587855 156.28005981 -0.21717453 C158.03222642 -0.21641168 159.78440459 -0.22064572 161.53654289 -0.23063278 C175.77594343 -0.30694072 189.91925612 0.69094094 203.28807068 6.01544189 C203.94436462 6.27591309 204.60065857 6.53638428 205.27684021 6.80474854 C214.65810846 10.59027384 222.70976321 15.15180192 230.85057068 21.14044189 C231.56342224 21.63544189 232.2762738 22.13044189 233.01072693 22.64044189 C238.08807964 26.24056868 241.91096025 30.34766742 245.85057068 35.14044189 C246.90051208 36.32573486 246.90051208 36.32573486 247.97166443 37.53497314 C267.9826878 60.66729999 273.60964761 88.19114489 271.85057068 118.14044189 C269.08278649 144.2587709 254.35446186 168.63729212 234.85057068 185.73028564 C218.35265833 198.98446783 196.62708564 209.19225023 175.14472961 209.28761292 C174.03159393 209.29476822 172.91845825 209.30192352 171.77159119 209.30929565 C170.56514954 209.31198456 169.35870789 209.31467346 168.1157074 209.31744385 C166.8337851 209.32401505 165.55186279 209.33058624 164.23109436 209.33735657 C159.9974948 209.35828854 155.76389528 209.36874158 151.53025818 209.37872314 C150.06985074 209.38277331 148.60944348 209.38689031 147.14903641 209.39107323 C140.29331431 209.41009276 133.43760284 209.4243364 126.58185947 209.4326852 C118.67274309 209.44247731 110.7639051 209.46886138 102.85488689 209.50918609 C96.73500641 209.53931804 90.61520597 209.55415085 84.49525273 209.55746621 C80.84202946 209.55981796 77.18910476 209.56879579 73.53596115 209.59392738 C69.46600916 209.62147945 65.39668411 209.61738607 61.3266449 209.6104126 C59.51090973 209.62962769 59.51090973 209.62962769 57.65849304 209.64923096 C56.55099701 209.64228714 55.44350098 209.63534332 54.30244446 209.62818909 C52.8595445 209.63177162 52.8595445 209.63177162 51.38749504 209.63542652 C48.11060486 208.99606561 46.90788442 207.7132783 44.85057068 205.14044189 C44.57322693 203.10528564 44.57322693 203.10528564 44.91307068 201.07794189 C45.05422302 200.07053955 45.05422302 200.07053955 45.19822693 199.04278564 C46.03240729 196.61017584 46.79293092 195.70370739 48.85057068 194.14044189 C51.6789856 193.74171448 51.6789856 193.74171448 55.15794373 193.70806885 C56.45906601 193.68827469 57.76018829 193.66848053 59.10073853 193.64808655 C60.52125403 193.64131673 61.9417711 193.63486987 63.36228943 193.62872314 C64.81533329 193.6118786 66.26836256 193.59372866 67.72137451 193.57432556 C71.54356832 193.52679448 75.36570298 193.49700554 79.18809509 193.47088623 C83.08937769 193.44109617 86.99045639 193.39456058 90.8915863 193.34942627 C98.54448 193.26335793 106.19738846 193.1960287 113.85057068 193.14044189 C113.02977524 192.60223312 112.2089798 192.06402435 111.36331177 191.50950623 C110.28491531 190.79756607 109.20651886 190.08562592 108.09544373 189.35211182 C107.02714828 188.64890305 105.95885284 187.94569427 104.85818481 187.22117615 C101.08247922 184.60905916 97.84540292 181.74663889 94.66307068 178.45294189 C94.07775574 177.85481689 93.4924408 177.25669189 92.88938904 176.64044189 C74.23362267 157.11905618 64.40504674 131.70236644 64.53807068 104.89044189 C64.54371033 103.69894531 64.54934998 102.50744873 64.55516052 101.27984619 C64.91988897 74.79731075 75.17208062 52.48769797 92.85057068 33.14044189 C93.51830505 32.39020752 94.18603943 31.63997314 94.87400818 30.86700439 C98.71469042 26.76703558 102.97318569 23.55573047 107.60838318 20.40606689 C108.51052551 19.78755859 108.51052551 19.78755859 109.43089294 19.15655518 C110.90221506 18.1484 112.37613093 17.14403197 113.85057068 16.14044189 C113.23065624 16.13897533 112.61074181 16.13750877 111.97204208 16.13599777 C96.89070897 16.09895205 81.80963515 16.03996736 66.72849655 15.95653915 C59.43536254 15.91672337 52.14233682 15.88434388 44.84910583 15.8694458 C38.49258394 15.85644232 32.13630008 15.82951143 25.77991223 15.78582883 C22.41393702 15.76318416 19.04825572 15.74753298 15.68219757 15.74855804 C11.92513019 15.74620223 8.16900064 15.71923227 4.41209412 15.68634033 C3.29503586 15.6913707 2.1779776 15.69640106 1.02706909 15.70158386 C-0.50834785 15.68071465 -0.50834785 15.68071465 -2.07478333 15.65942383 C-3.40769598 15.65389307 -3.40769598 15.65389307 -4.76753616 15.64825058 C-7.92792781 14.97446959 -9.12593893 13.60371416 -11.14942932 11.14044189 C-12.08692932 8.70294189 -12.08692932 8.70294189 -12.14942932 6.14044189 C-9.19095761 -0.05826073 -6.37662492 -0.00786618 0 0 Z M98.22557068 49.26544189 C82.3529766 69.40064075 77.64260724 93.17169472 80.0688324 118.41094971 C83.19046772 140.38857908 95.96208417 160.96628235 113.01463318 174.90997314 C134.7486961 191.01062511 159.40298662 195.67397148 185.86619568 191.96075439 C207.59763477 187.93840017 227.46284824 174.10179694 240.47557068 156.51544189 C246.79128738 147.02690069 252.36642615 136.30975338 254.85057068 125.14044189 C255.05295349 124.30770752 255.2553363 123.47497314 255.46385193 122.61700439 C257.14891923 114.79920915 257.10834783 107.10575589 256.85057068 99.14044189 C256.8325238 98.20329346 256.81447693 97.26614502 256.79588318 96.30059814 C255.84022195 77.60898888 246.40200756 58.65902716 233.85057068 45.14044189 C233.11838318 44.33993408 232.38619568 43.53942627 231.63182068 42.71466064 C216.09329718 26.43751015 193.94417447 16.47803573 171.50267029 15.80401611 C142.33199616 15.38950343 117.39129575 27.15617543 98.22557068 49.26544189 Z " fill="#000100" transform="translate(240.14942932128906,30.85955810546875)"/>
<path d="M0 0 C1.13401245 -0.00817749 2.2680249 -0.01635498 3.43640137 -0.02478027 C7.17821735 -0.04953716 10.91999583 -0.06611984 14.66186523 -0.08056641 C15.94093184 -0.08589008 17.21999844 -0.09121376 18.53782463 -0.09669876 C23.9106781 -0.11789888 29.28351942 -0.13703184 34.65640354 -0.14832115 C42.34189403 -0.16458133 50.02688093 -0.19784718 57.71218163 -0.254722 C63.77877918 -0.29808325 69.84514712 -0.31406431 75.9119091 -0.32045364 C78.48956845 -0.32718075 81.06722002 -0.34244034 83.6447773 -0.36634445 C87.24534975 -0.39784818 90.84463928 -0.39805501 94.4453125 -0.390625 C95.51194626 -0.40703033 96.57858002 -0.42343567 97.67753601 -0.44033813 C102.50033837 -0.39951175 104.8785792 -0.37884 108.85484314 2.53793335 C110.65795898 5.19287109 110.65795898 5.19287109 110.72045898 8.25537109 C109.44557054 11.78006266 108.72325452 13.00516302 105.65795898 15.19287109 C102.16939568 15.79662594 98.70914466 15.72531709 95.17651367 15.69116211 C93.57558868 15.69944031 93.57558868 15.69944031 91.94232178 15.70788574 C89.62227976 15.71721626 87.30218653 15.7173023 84.98213959 15.70929146 C81.29742467 15.6966663 77.61345964 15.7079522 73.92877197 15.72532654 C67.41812761 15.75208351 60.90766605 15.7576211 54.39697266 15.75622559 C44.01941788 15.7540026 33.64209229 15.76842065 23.26462555 15.81181145 C19.65771721 15.8215667 16.05117515 15.81296966 12.4442749 15.80311584 C-15.70641473 15.82892413 -40.70216427 22.00926109 -61.7830658 41.55784607 C-63.68996008 43.55776232 -65.3493458 45.68900092 -67.03173828 47.88061523 C-67.65403824 48.68882217 -68.2763382 49.49702911 -68.91749573 50.32972717 C-69.38759567 50.94456467 -69.85769562 51.55940216 -70.34204102 52.19287109 C-69.06275223 52.19873734 -67.78346344 52.20460358 -66.46540833 52.21064758 C-54.41431864 52.26783939 -42.36341001 52.34058263 -30.31250477 52.42858601 C-24.11687836 52.47332966 -17.92131833 52.51257715 -11.72558594 52.53930664 C-5.74731114 52.56529948 0.2307088 52.6056738 6.20882607 52.65605736 C8.49056137 52.67275321 10.77234078 52.68425051 13.05412865 52.690485 C16.24810941 52.7000963 19.44143413 52.7281209 22.63525391 52.76049805 C24.05297844 52.75834541 24.05297844 52.75834541 25.49934387 52.75614929 C30.34125027 52.82564714 33.76056209 52.97608957 37.65795898 56.19287109 C39.07837719 59.03370751 38.97248171 61.04764387 38.65795898 64.19287109 C37.32659912 66.35406494 37.32659912 66.35406494 34.65795898 68.19287109 C30.9947873 68.81210099 27.35503166 68.75634962 23.6472168 68.73876953 C22.52497208 68.74910721 21.40272736 68.75944489 20.24647522 68.77009583 C16.53453316 68.79960962 12.82313435 68.80102487 9.11108398 68.80224609 C6.53846186 68.81722186 3.96584937 68.83394772 1.39324951 68.85235596 C-4.68756103 68.89163629 -10.76819979 68.91325583 -16.84911561 68.92632985 C-23.77299382 68.94220098 -30.69668957 68.98061697 -37.62046194 69.02092314 C-51.86092214 69.1033179 -66.1013905 69.15741259 -80.34204102 69.19287109 C-80.98758661 70.95881411 -81.63228025 72.72506857 -82.27661133 74.49145508 C-82.63571594 75.47500473 -82.99482056 76.45855438 -83.36480713 77.47190857 C-87.43675757 88.80964942 -87.61129479 99.28190165 -87.0559082 111.21850586 C-86.81345456 119.47111351 -86.81345456 119.47111351 -89.69360352 123.40380859 C-92.48804623 125.29149998 -93.96218521 126.27736749 -97.34204102 126.19287109 C-100.66736671 124.07675474 -102.08447524 122.96556842 -103.34204102 119.19287109 C-105.19787519 88.40851876 -99.32588052 59.37677688 -78.55444336 35.70825195 C-77.1693567 34.18379898 -75.76350151 32.68341286 -74.34204102 31.19287109 C-73.51317383 30.32146484 -72.68430664 29.45005859 -71.83032227 28.55224609 C-56.97076477 14.07953772 -37.59113183 4.98105901 -17.34204102 1.19287109 C-16.11814415 0.93453995 -16.11814415 0.93453995 -14.86952209 0.67098999 C-9.90913549 -0.00134659 -5.00062876 0.02000961 0 0 Z " fill="#000100" transform="translate(103.342041015625,30.80712890625)"/>
<path d="M0 0 C0.44988281 0.3403125 0.89976563 0.680625 1.36328125 1.03125 C2.75697408 2.08140732 4.15455782 3.12640887 5.5546875 4.16796875 C7.17663643 5.38313496 8.78631136 6.6148697 10.3828125 7.86328125 C38.58996802 29.38525465 73.90974324 35.003303 108.5 30.6875 C114.88550865 29.78297601 120.90687543 28.0930055 127 26 C127.63502441 25.78859375 128.27004883 25.5771875 128.92431641 25.359375 C143.38581663 20.50477039 158.10938091 13.72480063 168.58203125 2.26953125 C170 1 170 1 173 1 C172.40968953 4.71895593 170.82462608 6.63319833 168.375 9.4375 C159.0821782 20.8157845 154.15740935 32.73346961 153.8125 47.4375 C153.61292281 50.86206316 153.46956469 52.44628765 151.234375 55.08203125 C146.13275761 59 146.13275761 59 143 59 C142.98018066 58.31897217 142.96036133 57.63794434 142.93994141 56.9362793 C142.84473017 53.85296083 142.73503534 50.77032351 142.625 47.6875 C142.57859375 46.0797168 142.57859375 46.0797168 142.53125 44.43945312 C142.49257812 43.41142578 142.45390625 42.38339844 142.4140625 41.32421875 C142.3826416 40.37635498 142.3512207 39.42849121 142.31884766 38.4519043 C142.1510949 35.7469731 142.1510949 35.7469731 140 33 C138.14722391 32.3102413 138.14722391 32.3102413 136.0625 32.125 C135.37285156 32.02445312 134.68320313 31.92390625 133.97265625 31.8203125 C131.95818789 31.84639551 131.95818789 31.84639551 130.40869141 33.05541992 C128.3179989 35.9414452 128.52036746 38.85595172 128.48828125 42.29296875 C128.47033005 42.99899734 128.45237885 43.70502594 128.43388367 44.43244934 C128.37976822 46.68407241 128.34588278 48.93548343 128.3125 51.1875 C128.27932781 52.71552431 128.24483823 54.24352063 128.20898438 55.77148438 C128.12404175 59.51416989 128.05723752 63.25679241 128 67 C121.2529708 69.40138932 114.87709304 71.45810077 107.75 72.25 C106.46609375 72.39953125 105.1821875 72.5490625 103.859375 72.703125 C102.91578125 72.80109375 101.9721875 72.8990625 101 73 C100.93941406 72.18015625 100.87882812 71.3603125 100.81640625 70.515625 C100.69072266 68.89914062 100.69072266 68.89914062 100.5625 67.25 C100.44068359 65.64898437 100.44068359 65.64898437 100.31640625 64.015625 C100.05909227 61.56320038 99.68187782 59.36078709 99 57 C97.56589632 56.75045995 96.12739928 56.52607358 94.6875 56.3125 C93.88699219 56.18488281 93.08648437 56.05726563 92.26171875 55.92578125 C89.99171645 55.8238958 89.99171645 55.8238958 88.25 57 C86.34939035 60.04097544 86.42647928 63.19973404 86.3125 66.6875 C86.27833984 67.38939453 86.24417969 68.09128906 86.20898438 68.81445312 C86.12670053 70.54241387 86.0616676 72.27118072 86 74 C61.81628891 76.08880422 35.91341642 66.33893654 17.0625 51.5625 C8.12151902 43.88007353 -0.41464364 33.04158312 -2 21 C-2.11804916 18.32055867 -2.18502896 15.67860626 -2.1875 13 C-2.19974609 12.30132812 -2.21199219 11.60265625 -2.22460938 10.8828125 C-2.23616236 6.80075782 -1.81364524 3.67030183 0 0 Z " fill="#5CA923" transform="translate(47,301)"/>
<path d="M0 0 C1.36035878 0.33333295 2.7210522 0.66530244 4.08203125 0.99609375 C19.49371025 4.93320383 33.37735029 12.03298694 45 23 C45.64066406 23.5878125 46.28132812 24.175625 46.94140625 24.78125 C56.4106362 34.44113558 60.76252548 45.93414837 60.67163086 59.26489258 C60.07869726 73.03610976 53.39780016 83.42347781 44 93 C43.25878906 93.77730469 42.51757812 94.55460937 41.75390625 95.35546875 C23.74785688 112.99714613 -3.67072082 118.38857895 -27.94921875 118.23266602 C-43.06631279 117.95823178 -56.77051739 116.19589321 -71 111 C-71.94488281 110.66871094 -72.88976562 110.33742188 -73.86328125 109.99609375 C-90.13486662 103.94802391 -105.38036443 92.36385849 -112.9921875 76.5546875 C-115.59241773 69.96340621 -116.36442928 64.13338529 -116.375 57.125 C-116.39949219 56.27808594 -116.42398438 55.43117188 -116.44921875 54.55859375 C-116.50467366 42.4879087 -109.36222722 31.28804843 -101.1875 22.75 C-89.25176358 11.56450987 -73.85230201 3.81561223 -58 0 C-56.78828125 -0.29777344 -55.5765625 -0.59554688 -54.328125 -0.90234375 C-36.77537737 -4.79012816 -17.33513798 -4.7948254 0 0 Z M-96 32 C-103.74553247 42.31303305 -106.21942469 51.09225991 -105 64 C-102.75231007 73.19807095 -97.6709035 79.49927261 -91 86 C-90.40703125 86.62519531 -89.8140625 87.25039063 -89.203125 87.89453125 C-80.86362266 96.06798155 -69.14163022 100.64153589 -58.125 103.9375 C-57.46056885 104.13682129 -56.7961377 104.33614258 -56.11157227 104.54150391 C-37.48989405 109.70181103 -14.18878369 109.37891111 4 103 C4.66918457 102.78037598 5.33836914 102.56075195 6.02783203 102.33447266 C15.1416493 99.34171788 23.21293369 95.7192403 31 90 C31.65355469 89.52949219 32.30710937 89.05898438 32.98046875 88.57421875 C42.02291997 81.4879711 48.02411456 70.9820064 49.4140625 59.61328125 C49.89563521 48.09355516 46.70668968 39.43050665 39.0625 30.8125 C22.73750783 13.62201972 -1.47065807 6.27158483 -24.65380859 5.59985352 C-51.06791798 5.28118464 -77.4234931 12.06500705 -96 32 Z " fill="#8FD959" transform="translate(332,291)"/>
<path d="M0 0 C10.46340691 9.03939295 19.27432163 20.72185227 20.6171875 34.89453125 C21.24311922 49.70275795 15.77166367 61.13043121 6.3359375 72.17578125 C-8.47103536 88.09463302 -32.82979439 97.8527836 -54.390625 99.05029297 C-57.83463313 99.15254128 -61.27657384 99.17006614 -64.72192383 99.15942383 C-66.83923719 99.1562799 -68.95512531 99.17975407 -71.07226562 99.20507812 C-97.26977379 99.32531989 -122.14254453 91.24608067 -141.421875 73.28125 C-142.164375 72.476875 -142.906875 71.6725 -143.671875 70.84375 C-144.13980469 70.369375 -144.60773438 69.895 -145.08984375 69.40625 C-154.32094682 59.53442769 -157.03108063 48.60750084 -156.87890625 35.4375 C-156.06638029 21.33327575 -148.73521177 11.02465124 -138.73828125 1.4765625 C-128.82362181 -7.28165362 -117.1208364 -12.93042988 -104.671875 -17.15625 C-103.68453369 -17.4951123 -103.68453369 -17.4951123 -102.67724609 -17.84082031 C-69.98319953 -28.43242236 -26.6891605 -21.53862076 0 0 Z M-95.671875 -9.15625 C-96.78691406 -8.8778125 -97.90195313 -8.599375 -99.05078125 -8.3125 C-115.63736647 -3.6818288 -131.28703027 4.98654349 -140.671875 19.84375 C-145.33273444 28.69510691 -147.37978554 37.18768743 -144.8359375 47.1015625 C-139.26553711 62.91551796 -127.82544698 72.77413894 -113.13232422 80.03979492 C-102.50314122 84.99487358 -90.45089005 88.61877563 -78.671875 88.84375 C-77.97368652 88.86276367 -77.27549805 88.88177734 -76.55615234 88.90136719 C-48.94534514 89.58560819 -22.58372753 84.80531359 -1.828125 65.1953125 C5.97126855 56.68945214 10.07546819 46.48393456 9.73828125 34.9609375 C8.17821538 23.1044369 0.77079523 13.04550436 -8.28515625 5.59375 C-32.92419658 -12.47219119 -66.43322818 -16.52146831 -95.671875 -9.15625 Z " fill="#8FD959" transform="translate(201.671875,219.15625)"/>
<path d="M0 0 C0.93271729 0.29801514 0.93271729 0.29801514 1.88427734 0.60205078 C25.4079531 8.25972138 44.51927954 23.92578632 56 46 C65.27535223 65.72201176 67.97681437 86.8170579 62 108 C61.69255859 109.25683594 61.69255859 109.25683594 61.37890625 110.5390625 C56.1306009 130.55433882 41.99304989 149.04561306 24.765625 160.41015625 C19.03677807 163.70343408 13.07280916 166.40794731 7 169 C6.20851563 169.34160156 5.41703125 169.68320313 4.6015625 170.03515625 C-16.53013499 178.09110989 -41.90550176 174.93941646 -62 166 C-84.38515031 154.82051557 -99.74269993 136.60305192 -108.359375 113.328125 C-115.88707462 89.65405517 -113.14103758 64.91031385 -102 43 C-91.38171117 23.16728265 -72.40926943 7.29366647 -50.859375 0.65234375 C-34.43363262 -4.00286906 -16.42457052 -5.36684487 0 0 Z M-87 34 C-101.64190024 52.79174363 -106.5462066 74.9118409 -103.72314453 98.29296875 C-100.40233146 118.67946373 -87.89293237 138.38997141 -71.375 150.5625 C-52.09596661 163.41518893 -30.45603222 168.45209538 -7.3984375 164.26953125 C-3.51433001 163.4273476 0.23486286 162.27467771 4 161 C5.56041016 160.49146484 5.56041016 160.49146484 7.15234375 159.97265625 C26.49177054 152.83155385 40.61264154 137.50111105 49.79296875 119.48046875 C58.89318111 99.46000155 59.73829557 77.17810275 52.78125 56.3515625 C44.41643133 35.30010219 28.69898659 19.43171793 8.1875 10.1875 C-26.64616564 -3.10004398 -62.27860691 5.69996931 -87 34 Z " fill="#8ED859" transform="translate(432,50)"/>
<path d="M0 0 C3.29067535 1.39313263 5.82922074 3.41089005 8.56665039 5.68115234 C31.10353448 24.31954313 57.26240931 30.08416062 86 32 C86 45.53 86 59.06 86 73 C70.64914487 73 70.64914487 73 64.25 71.875 C63.12356079 71.68031128 63.12356079 71.68031128 61.97436523 71.48168945 C40.70878892 67.49064605 20.22069742 57.15970086 6.87109375 39.79296875 C-1.08985014 27.90972265 -2.78410076 17.020509 -1 3 C-0.67 2.01 -0.34 1.02 0 0 Z " fill="#5DAA23" transform="translate(217,392)"/>
<path d="M0 0 C36.96 0 73.92 0 112 0 C112 0.33 112 0.66 112 1 C77.02 1 42.04 1 6 1 C7.79692643 33.34467581 16.10464369 56.24225981 39.75 78.625 C45.36305798 83.58599159 51.55467243 87.23043254 58 91 C59.485 91.99 59.485 91.99 61 93 C59.94941406 93.50789063 58.89882812 94.01578125 57.81640625 94.5390625 C48.62144206 99.03031407 40.18304785 103.82650594 32 110 C19.53139803 104.20195936 9.80483141 92.19745209 3.54296875 80.2109375 C1.17537216 75.13336795 1.17537216 75.13336795 -3.26953125 72.24609375 C-4.8477131 72.04467797 -6.42715345 71.85282587 -8.0078125 71.671875 C-10 71 -10 71 -11.2421875 69.078125 C-12.05274434 66.71593078 -12.59322472 64.4620609 -13 62 C-13.165 61.0925 -13.33 60.185 -13.5 59.25 C-13 57 -13 57 -10.47265625 55.125 C-6.65289747 50.29750075 -7.63742814 45.70015364 -7.9375 39.75 C-8.32460319 24.74975147 -6.15639749 13.85189436 0 0 Z " fill="#4C8D1D" transform="translate(23,99)"/>
<path d="M0 0 C2 1 2 1 2.61450195 2.80297852 C3.26447325 6.5072798 3.18448645 10.18562653 3.1875 13.9375 C3.19974609 14.73607422 3.21199219 15.53464844 3.22460938 16.35742188 C3.23539269 20.69590705 3.02015379 24.0475252 1 28 C0.67 28 0.34 28 0 28 C-0.103125 26.906875 -0.20625 25.81375 -0.3125 24.6875 C-0.74272492 21.16069668 -0.74272492 21.16069668 -2.1875 19.0625 C-4.85229803 17.50037702 -6.96881658 17.74740138 -10 18 C-10.99 18.33 -11.98 18.66 -13 19 C-14.10547068 22.31641204 -14.04989426 24.65015544 -13.96484375 28.13671875 C-13.96162109 29.35423828 -13.95839844 30.57175781 -13.95507812 31.82617188 C-13.94344645 34.38126291 -13.89708702 36.93645343 -13.81445312 39.49023438 C-13.87707797 48.63827936 -13.87707797 48.63827936 -17.12158203 52.57275391 C-19.66267364 54.63306024 -22.17659962 56.35225445 -25 58 C-25.8880835 58.53842529 -26.77616699 59.07685059 -27.69116211 59.6315918 C-33.37448707 63 -33.37448707 63 -36 63 C-36.04898438 62.01257813 -36.09796875 61.02515625 -36.1484375 60.0078125 C-36.22320312 58.72648437 -36.29796875 57.44515625 -36.375 56.125 C-36.44460938 54.84882813 -36.51421875 53.57265625 -36.5859375 52.2578125 C-36.67241106 48.91938301 -36.67241106 48.91938301 -39 47 C-41.44012949 46.75712511 -41.44012949 46.75712511 -44.125 46.875 C-45.03507812 46.89304687 -45.94515625 46.91109375 -46.8828125 46.9296875 C-47.58148438 46.95289063 -48.28015625 46.97609375 -49 47 C-49.90833969 49.72501908 -50.18359985 51.62233971 -50.31640625 54.44921875 C-50.35830078 55.29677734 -50.40019531 56.14433594 -50.44335938 57.01757812 C-50.48267578 57.89865234 -50.52199219 58.77972656 -50.5625 59.6875 C-50.60568359 60.58017578 -50.64886719 61.47285156 -50.69335938 62.39257812 C-50.79935353 64.59490108 -50.90142051 66.79733473 -51 69 C-52.82991318 69.51237569 -54.66417314 70.00923441 -56.5 70.5 C-57.5209375 70.7784375 -58.541875 71.056875 -59.59375 71.34375 C-63 72 -63 72 -71 72 C-71 58.47 -71 44.94 -71 31 C-64.73 30.01 -58.46 29.02 -52 28 C-32.06009615 22.87259615 -15.24090186 13.7893874 0 0 Z " fill="#5CA923" transform="translate(389,392)"/>
<path d="M0 0 C1.93729477 -0.01051392 1.93729477 -0.01051392 3.91372681 -0.02124023 C7.44886381 -0.03944804 10.98353296 -0.03241745 14.51867795 -0.01972389 C18.22038598 -0.00958501 21.92205441 -0.01899183 25.62376404 -0.02526855 C31.83860455 -0.0325415 38.05325479 -0.02296571 44.26806641 -0.00390625 C51.45221298 0.01787158 58.63590563 0.01080342 65.82004124 -0.01121187 C71.99089364 -0.02936465 78.16160942 -0.03192514 84.33247989 -0.0214572 C88.01696682 -0.01522275 91.70124037 -0.01438526 95.38571358 -0.02760315 C99.4917909 -0.0413053 103.59708558 -0.02231421 107.703125 0 C108.9245369 -0.00809692 110.14594879 -0.01619385 111.40437317 -0.02453613 C112.52172852 -0.01325684 113.63908386 -0.00197754 114.79029846 0.00964355 C115.76090493 0.01115166 116.7315114 0.01265976 117.73153019 0.01421356 C121.05096314 0.66809452 122.24132108 1.86688499 124.28686523 4.51757812 C124.78686523 8.01757812 124.78686523 8.01757812 124.28686523 11.51757812 C122.23550515 14.18021464 121.04606642 15.3690961 117.71311951 16.02094269 C116.73383987 16.02245079 115.75456024 16.02395889 114.74560547 16.0255127 C113.61839081 16.03679199 112.49117615 16.04807129 111.32980347 16.05969238 C110.09746979 16.05159546 108.86513611 16.04349854 107.59545898 16.03515625 C106.29432159 16.04216553 104.9931842 16.0491748 103.65261841 16.05639648 C100.08643308 16.074628 96.52071076 16.06756341 92.95451736 16.05488014 C89.22210698 16.04475141 85.48973617 16.05414546 81.75732422 16.0604248 C75.48942956 16.06770161 69.22172345 16.05811276 62.95385742 16.0390625 C55.70781692 16.01729351 48.46222661 16.02434487 41.21619701 16.04636812 C34.9944101 16.0645213 28.7727587 16.06708091 22.55095387 16.05661345 C18.83515354 16.05037799 15.1195648 16.0495441 11.40377808 16.0627594 C7.26167142 16.07646196 3.12034058 16.05746974 -1.02172852 16.03515625 C-2.25406219 16.04325317 -3.48639587 16.0513501 -4.756073 16.05969238 C-6.44689499 16.04277344 -6.44689499 16.04277344 -8.171875 16.0255127 C-9.15115463 16.02400459 -10.13043427 16.02249649 -11.13938904 16.02094269 C-14.47233682 15.36909593 -15.65894134 14.17772512 -17.71313477 11.51757812 C-18.27563477 8.01757812 -18.27563477 8.01757812 -17.71313477 4.51757812 C-13.20437143 -1.14601455 -6.60256874 -0.04384208 0 0 Z " fill="#010200" transform="translate(167.713134765625,150.482421875)"/>
<path d="M0 0 C0.78273788 -0.00554901 1.56547577 -0.01109802 2.37193298 -0.01681519 C4.95105836 -0.02859526 7.52842024 -0.00435471 10.10742188 0.02148438 C11.90433675 0.02319601 13.70125412 0.02312926 15.49816895 0.0213623 C19.26090441 0.02301461 23.02304342 0.04169586 26.78564453 0.07324219 C31.60441594 0.1129196 36.42240636 0.11728689 41.24131012 0.10977936 C44.95085787 0.10670718 48.66023062 0.11883898 52.36973572 0.13591003 C54.14630536 0.14293237 55.92289483 0.1460655 57.69947815 0.1452179 C60.18413003 0.14701927 62.6678529 0.16842929 65.15234375 0.1953125 C65.88392197 0.1923819 66.61550018 0.18945129 67.36924744 0.18643188 C72.17665539 0.26653107 75.61597614 1.15503864 79.07617188 4.61523438 C79.65695721 10.77155888 79.65695721 10.77155888 77.56298828 13.81335449 C74.13033373 16.3005631 71.05665192 16.17602919 66.97460938 16.1328125 C65.75442108 16.14332642 65.75442108 16.14332642 64.50958252 16.15405273 C61.82309746 16.17164496 59.13766748 16.16000601 56.45117188 16.14648438 C54.58316852 16.14917895 52.71516653 16.15306107 50.84716797 16.15808105 C46.93313232 16.16397775 43.01946193 16.15540765 39.10546875 16.13671875 C34.08807299 16.11392905 29.07153306 16.12705122 24.0541687 16.15100861 C20.19711863 16.16546196 16.34027151 16.16086273 12.48321533 16.15049744 C10.63323872 16.14782887 8.78324368 16.15110448 6.93328857 16.16041565 C4.3476073 16.17057375 1.76331236 16.15509148 -0.82226562 16.1328125 C-1.58706238 16.14090942 -2.35185913 16.14900635 -3.13983154 16.15734863 C-6.62116116 16.10176963 -8.57129269 15.8789742 -11.39501953 13.76647949 C-12.92382812 11.61523438 -12.92382812 11.61523438 -13.48632812 8.67773438 C-12.12140192 1.24646946 -6.7236384 -0.1218971 0 0 Z " fill="#020400" transform="translate(169.923828125,83.384765625)"/>
<path d="M0 0 C4.18352841 1.76754075 7.48929753 4.620859 11 7.4375 C12.22888267 8.41572146 13.458042 9.39359549 14.6875 10.37109375 C15.25984375 10.82726074 15.8321875 11.28342773 16.421875 11.75341797 C18.25663167 13.20271679 20.11830594 14.61225063 22 16 C21.67 16.33 21.34 16.66 21 17 C21.49686638 29.91852601 27.84631289 40.36382433 36 50 C36.53109375 50.64453125 37.0621875 51.2890625 37.609375 51.953125 C44.79578902 59.88040645 55.12471909 66.08042974 65 70 C65 70.33 65 70.66 65 71 C45.01239302 70.36547279 25.14099812 59.37104823 11.3515625 45.296875 C2.30684607 34.77976288 -2.55554552 23.49949803 -1.6875 9.625 C-1.39789501 6.17230671 -1.09567604 3.28702813 0 0 Z " fill="#4C8D1D" transform="translate(217,392)"/>
<path d="M0 0 C0.44988281 0.3403125 0.89976563 0.680625 1.36328125 1.03125 C6.42166858 4.84278034 11.53645662 8.56937551 16.6796875 12.265625 C19 14 19 14 21 16 C20.9071875 17.8871875 20.9071875 17.8871875 20.8125 19.8125 C20.5559219 33.11179805 29.45090844 44.44660079 38.125 53.625 C45.449902 60.75793905 53.83566429 65.50687278 63 70 C63 70.33 63 70.66 63 71 C44.49666934 70.91104168 25.02242616 59.34373294 12 47 C2.867766 37.30361255 -2.17525986 26.26830872 -2.1875 13 C-2.19974609 12.30132812 -2.21199219 11.60265625 -2.22460938 10.8828125 C-2.23616236 6.80075782 -1.81364524 3.67030183 0 0 Z " fill="#4C8E1D" transform="translate(47,301)"/>
<path d="M0 0 C0.96147949 -0.0038269 1.92295898 -0.00765381 2.91357422 -0.01159668 C4.9443466 -0.01431602 6.97515399 -0.00695329 9.00585938 0.00976562 C12.1140757 0.03117475 15.21998056 0.00996454 18.328125 -0.015625 C20.30208843 -0.01298173 22.27605043 -0.00785676 24.25 0 C25.17925293 -0.00809692 26.10850586 -0.01619385 27.06591797 -0.02453613 C33.49823322 0.06893251 33.49823322 0.06893251 36.70898438 2.43725586 C39.13784013 6.02903099 38.66678304 8.26470856 38.125 12.53125 C36.34560237 14.69436096 34.8572677 15.43046441 32.08886719 15.81149292 C29.471075 15.94690172 26.8713059 15.97312482 24.25 15.96484375 C22.80778076 15.97270653 22.80778076 15.97270653 21.33642578 15.98072815 C19.30567388 15.98714532 17.27488479 15.9858153 15.24414062 15.97729492 C12.13604664 15.96878026 9.02978765 15.99755837 5.921875 16.02929688 C3.94791722 16.03090887 1.97395618 16.0303314 0 16.02734375 C-0.92925293 16.03857773 -1.85850586 16.04981171 -2.81591797 16.06138611 C-9.21729282 15.99217904 -9.21729282 15.99217904 -12.4609375 13.71899414 C-14.54724251 10.49120078 -14.4114924 8.28669681 -13.875 4.53125 C-10.4521565 -0.75902884 -5.70080963 -0.04967326 0 0 Z " fill="#010300" transform="translate(95.875,150.46875)"/>
<path d="M0 0 C3.35782255 0.90902378 5.03084552 2.8960882 7.12109375 5.57421875 C7.45109375 5.90421875 7.78109375 6.23421875 8.12109375 6.57421875 C8.70992624 13.6402086 8.70992624 13.6402086 6.30859375 17.44921875 C3.69189739 19.99115235 1.97291901 21.46064205 -1.69140625 21.94921875 C-5.70203195 21.47738043 -7.74309427 20.06861464 -10.87890625 17.57421875 C-13.41494769 13.77015659 -13.48089438 12.08912971 -12.87890625 7.57421875 C-9.95495819 1.84861704 -6.43909253 -0.48863265 0 0 Z " fill="#070905" transform="translate(463.87890625,129.42578125)"/>
<path d="M0 0 C3.53528586 0.96289098 5.42441455 2.93276536 7.96484375 5.53515625 C9.51508839 8.63564553 9.2547639 11.11409843 8.96484375 14.53515625 C6.88574525 17.76134358 5.16444846 19.40208645 1.96484375 21.53515625 C-1.34087103 21.97176009 -3.84935012 22.24558353 -6.7890625 20.484375 C-10.62766656 17.34874422 -11.90027744 15.69126031 -12.47265625 10.78515625 C-12.41697971 7.39507373 -11.77906929 5.58920361 -9.53515625 3.03515625 C-6.48546901 0.40983586 -3.99128763 -0.29877201 0 0 Z " fill="#070905" transform="translate(412.03515625,78.46484375)"/>
<path d="M0 0 C3.22618733 2.0790985 4.8669302 3.80039529 7 7 C7.43660384 10.30571478 7.71042728 12.81419387 5.94921875 15.75390625 C4.16506981 17.93804138 2.54181233 19.72909383 0 21 C-4.70018117 21.12927807 -8.13349532 20.58356438 -12.0625 17.9375 C-14.10264177 14.84438184 -14.72548761 12.72054554 -14.5 9 C-13.60516552 5.4206621 -11.61631085 3.55401774 -9 1 C-5.89951072 -0.55024464 -3.42105782 -0.28992015 0 0 Z " fill="#060805" transform="translate(402,171)"/>
<path d="M0 0 C4.44196554 0.50151224 6.36029793 1.49163821 9.54296875 4.5234375 C11.57404937 7.44199909 11.71395319 9.82779462 11.44921875 13.31640625 C10.54019497 16.6742288 8.55313055 18.34725177 5.875 20.4375 C5.545 20.7675 5.215 21.0975 4.875 21.4375 C-2.13040541 22.02128378 -2.13040541 22.02128378 -6 19.75 C-9.12131034 16.35327993 -10.15895399 14.06729174 -10.0625 9.4375 C-8.89025254 5.68630814 -7.0504922 3.99730567 -4.125 1.4375 C-3.125 0.4375 -3.125 0.4375 0 0 Z " fill="#060705" transform="translate(374.125,113.5625)"/>
<path d="M0 0 C2.60847629 1.49745861 4.87028902 2.87028902 7 5 C7.48609691 9.2128399 7.46225323 11.31407585 5.0625 14.875 C1.08776392 17.63298014 -2.17093461 18.56862457 -7 18 C-10.73600566 16.29899119 -12.64486875 13.87848258 -14.1875 10.0625 C-13.91383063 5.59256689 -12.13931157 4.13931157 -9 1 C-5.89046621 -0.5547669 -3.43733239 -0.28644437 0 0 Z " fill="#080A06" transform="translate(337,342)"/>
<path d="M0 0 C2.91310484 1.26656732 4.46585097 2.29589446 6.375 4.8125 C7.27208761 7.95230664 6.97238994 9.88835221 6 13 C3.77660189 15.72545574 2.09553625 16.80751662 -1.37890625 17.41796875 C-5.8763264 17.6659636 -8.30440611 17.45909197 -12.125 14.9375 C-14.51416292 11.1944781 -14.85644749 9.36009631 -14 5 C-9.65636833 -0.10376722 -6.56589729 -0.83376473 0 0 Z " fill="#050704" transform="translate(167,252)"/>
<path d="M0 0 C2.82857206 1.61234186 5.02505847 3.40419362 7 6 C7.3125 9.0625 7.3125 9.0625 6 12 C3.35538558 15.10742195 1.85346977 16.78175312 -2.22265625 17.26171875 C-6.38113166 17.01873605 -8.63065326 16.2638191 -12.0625 13.8125 C-14 11 -14 11 -14.625 7.9375 C-14 5 -14 5 -11.6875 2.6875 C-7.70625898 0.18765099 -4.65657283 -0.62684634 0 0 Z " fill="#070905" transform="translate(289,357)"/>
<path d="M0 0 C3.44541749 0.04403089 5.5944868 0.42459302 8.375 2.5 C10.8125 5.375 10.8125 5.375 11.5 8.375 C10.54005604 12.56384636 9.37643783 13.95152227 5.8125 16.375 C0.96133689 17.28956354 -2.874236 17.07183396 -7.25 14.75 C-9.66733962 11.7868095 -10.34404505 10.21035382 -10.1875 6.375 C-7.8125 3.5625 -7.8125 3.5625 -5.1875 1.375 C-3.63766739 -0.17483261 -2.15081622 0.09367039 0 0 Z " fill="#060704" transform="translate(114.1875,266.625)"/>
<path d="M0 0 C3.98066095 1.57724302 5.60667274 2.41000911 8 6 C7.92127534 9.70005881 7.4126789 11.49413554 5.0625 14.375 C0.686736 16.69683396 -3.14883689 16.91456354 -8 16 C-11.56393783 13.57652227 -12.72755604 12.18884636 -13.6875 8 C-12.89984903 4.56297758 -11.62505594 2.99121728 -8.77734375 0.9140625 C-5.71278871 -0.66199438 -3.35527198 -0.47932457 0 0 Z " fill="#050704" transform="translate(127,228)"/>
<path d="M0 0 C3.125 1.5625 3.125 1.5625 5 4 C5.625 7.5 5.625 7.5 5 11 C2.8142881 13.84142547 1.15906862 14.81568909 -2.3828125 15.37890625 C-6.56924929 15.57260706 -9.34289273 15.32855364 -13.125 13.4375 C-15 11 -15 11 -15.625 7.5 C-15 4 -15 4 -13.125 1.5625 C-8.69193564 -0.65403218 -4.86427019 -0.7734987 0 0 Z " fill="#020301" transform="translate(300,319)"/>
</svg>
