<?xml version="1.0" encoding="UTF-8"?>
<svg version="1.1" xmlns="http://www.w3.org/2000/svg" width="512" height="512">
<path d="M0 0 C8.38626114 5.18785133 13.85402451 12.04027463 17.140625 21.32421875 C18.97468251 30.95302067 18.12568707 40.21642125 13.07421875 48.73046875 C9.92532999 52.95443267 6.23421633 56.65714428 2.58911133 60.45263672 C-5.86440542 69.33719528 -12.91825998 79.0376718 -17.859375 90.32421875 C-17.08078125 89.94910156 -16.3021875 89.57398437 -15.5 89.1875 C-8.29369128 85.891527 -1.18226489 83.41902759 6.515625 81.51171875 C7.34674805 81.30522705 8.17787109 81.09873535 9.03417969 80.88598633 C26.56793168 76.71286923 45.75374229 76.97751117 63.515625 79.63671875 C64.31000977 79.7543457 65.10439453 79.87197266 65.92285156 79.99316406 C71.30425574 80.90999589 76.05474862 82.18983362 79.98828125 86.21484375 C82.10520816 90.08989639 81.74946154 94.04313653 81.140625 98.32421875 C80.26668493 100.60932611 79.25768076 102.62587426 78.015625 104.73046875 C76.9802054 106.31338685 76.9802054 106.31338685 77.140625 108.32421875 C78.16800781 108.83210938 79.19539063 109.34 80.25390625 109.86328125 C97.72833595 118.52963381 113.84399993 128.0048762 129.31445312 139.92089844 C130.83624927 141.09032146 132.36983126 142.24438728 133.90625 143.39453125 C148.71172486 154.89438122 162.30708187 169.02664752 173.140625 184.32421875 C173.75309082 185.17016602 173.75309082 185.17016602 174.37792969 186.03320312 C190.18880548 208.00847485 200.09246262 232.07361099 206.140625 258.32421875 C206.41398682 259.45875488 206.41398682 259.45875488 206.69287109 260.61621094 C212.39899048 285.1099413 210.9521207 314.06110484 205.140625 338.32421875 C204.95870605 339.09523926 204.77678711 339.86625977 204.58935547 340.66064453 C197.81805951 368.29648784 183.4414547 394.66932239 165.140625 416.32421875 C164.68397461 416.86965332 164.22732422 417.41508789 163.75683594 417.97705078 C142.95755865 442.79390835 117.8379504 462.32677982 89.140625 477.32421875 C88.34720703 477.74525879 87.55378906 478.16629883 86.73632812 478.60009766 C46.06353233 499.94162786 -0.13979886 509.54069292 -45.859375 509.57421875 C-46.69230072 509.57489349 -47.52522644 509.57556824 -48.38339233 509.57626343 C-115.49476108 509.49055287 -183.37932168 487.43205417 -233.859375 442.32421875 C-234.67897705 441.5971875 -234.67897705 441.5971875 -235.51513672 440.85546875 C-271.8707811 408.47375244 -300.09669999 361.78700285 -302.9821167 312.21551514 C-303.18841112 306.85651789 -303.19672337 301.49892796 -303.171875 296.13671875 C-303.17005219 295.31995667 -303.16822937 294.50319458 -303.16635132 293.66168213 C-303.12121324 281.64965979 -302.69308807 270.04758588 -299.859375 258.32421875 C-299.58601318 257.14786865 -299.58601318 257.14786865 -299.30712891 255.94775391 C-297.98875678 250.35596168 -296.49314336 244.83166082 -294.859375 239.32421875 C-294.52550781 238.19371094 -294.19164062 237.06320313 -293.84765625 235.8984375 C-288.39886977 219.30900951 -280.41282379 202.26848682 -269.859375 188.32421875 C-268.90825279 187.01736455 -267.95778522 185.71003377 -267.0078125 184.40234375 C-239.74424565 147.37095443 -202.77941908 120.91998592 -160.546875 103.32421875 C-159.82314697 103.02112793 -159.09941895 102.71803711 -158.35375977 102.40576172 C-155.37193917 101.19338486 -153.10940048 100.32421875 -149.859375 100.32421875 C-149.98054687 99.7509082 -150.10171875 99.17759766 -150.2265625 98.58691406 C-155.96367127 71.08189066 -155.96367127 71.08189066 -152.109375 64.19921875 C-149.47707095 62.00563204 -147.34729745 60.38656944 -143.84936523 60.23999023 C-137.95423527 60.98511727 -132.53467517 62.45520544 -126.921875 64.38671875 C-126.01308594 64.69544922 -125.10429687 65.00417969 -124.16796875 65.32226562 C-110.46390379 70.08433277 -97.47880184 76.18956047 -84.859375 83.32421875 C-84.67375 82.06609375 -84.488125 80.80796875 -84.296875 79.51171875 C-79.30683571 54.84068532 -66.13996573 32.31375679 -48.859375 14.32421875 C-47.61994141 13.00744141 -47.61994141 13.00744141 -46.35546875 11.6640625 C-34.12473336 -1.01482198 -17.14578696 -8.31045797 0 0 Z " fill="#F34235" transform="translate(302.859375,2.67578125)"/>
<path d="M0 0 C8.38626114 5.18785133 13.85402451 12.04027463 17.140625 21.32421875 C18.97468251 30.95302067 18.12568707 40.21642125 13.07421875 48.73046875 C9.92532999 52.95443267 6.23421633 56.65714428 2.58911133 60.45263672 C-5.86440542 69.33719528 -12.91825998 79.0376718 -17.859375 90.32421875 C-17.08078125 89.94910156 -16.3021875 89.57398437 -15.5 89.1875 C-8.29369128 85.891527 -1.18226489 83.41902759 6.515625 81.51171875 C7.34674805 81.30522705 8.17787109 81.09873535 9.03417969 80.88598633 C26.56793168 76.71286923 45.75374229 76.97751117 63.515625 79.63671875 C64.31000977 79.7543457 65.10439453 79.87197266 65.92285156 79.99316406 C71.30425574 80.90999589 76.05474862 82.18983362 79.98828125 86.21484375 C82.10520816 90.08989639 81.74946154 94.04313653 81.140625 98.32421875 C80.26668493 100.60932611 79.25768076 102.62587426 78.015625 104.73046875 C76.9802054 106.31338685 76.9802054 106.31338685 77.140625 108.32421875 C78.16800781 108.83210938 79.19539063 109.34 80.25390625 109.86328125 C97.72833595 118.52963381 113.84399993 128.0048762 129.31445312 139.92089844 C130.83624927 141.09032146 132.36983126 142.24438728 133.90625 143.39453125 C148.71172486 154.89438122 162.30708187 169.02664752 173.140625 184.32421875 C173.75309082 185.17016602 173.75309082 185.17016602 174.37792969 186.03320312 C190.18880548 208.00847485 200.09246262 232.07361099 206.140625 258.32421875 C206.41398682 259.45875488 206.41398682 259.45875488 206.69287109 260.61621094 C212.39899048 285.1099413 210.9521207 314.06110484 205.140625 338.32421875 C204.95870605 339.09523926 204.77678711 339.86625977 204.58935547 340.66064453 C197.81805951 368.29648784 183.4414547 394.66932239 165.140625 416.32421875 C164.68397461 416.86965332 164.22732422 417.41508789 163.75683594 417.97705078 C142.95755865 442.79390835 117.8379504 462.32677982 89.140625 477.32421875 C88.34720703 477.74525879 87.55378906 478.16629883 86.73632812 478.60009766 C46.06353233 499.94162786 -0.13979886 509.54069292 -45.859375 509.57421875 C-46.69230072 509.57489349 -47.52522644 509.57556824 -48.38339233 509.57626343 C-115.49476108 509.49055287 -183.37932168 487.43205417 -233.859375 442.32421875 C-234.67897705 441.5971875 -234.67897705 441.5971875 -235.51513672 440.85546875 C-271.8707811 408.47375244 -300.09669999 361.78700285 -302.9821167 312.21551514 C-303.18841112 306.85651789 -303.19672337 301.49892796 -303.171875 296.13671875 C-303.17005219 295.31995667 -303.16822937 294.50319458 -303.16635132 293.66168213 C-303.12121324 281.64965979 -302.69308807 270.04758588 -299.859375 258.32421875 C-299.58601318 257.14786865 -299.58601318 257.14786865 -299.30712891 255.94775391 C-297.98875678 250.35596168 -296.49314336 244.83166082 -294.859375 239.32421875 C-294.52550781 238.19371094 -294.19164062 237.06320313 -293.84765625 235.8984375 C-288.39886977 219.30900951 -280.41282379 202.26848682 -269.859375 188.32421875 C-268.90825279 187.01736455 -267.95778522 185.71003377 -267.0078125 184.40234375 C-239.74424565 147.37095443 -202.77941908 120.91998592 -160.546875 103.32421875 C-159.82314697 103.02112793 -159.09941895 102.71803711 -158.35375977 102.40576172 C-155.37193917 101.19338486 -153.10940048 100.32421875 -149.859375 100.32421875 C-149.98054687 99.7509082 -150.10171875 99.17759766 -150.2265625 98.58691406 C-155.96367127 71.08189066 -155.96367127 71.08189066 -152.109375 64.19921875 C-149.47707095 62.00563204 -147.34729745 60.38656944 -143.84936523 60.23999023 C-137.95423527 60.98511727 -132.53467517 62.45520544 -126.921875 64.38671875 C-126.01308594 64.69544922 -125.10429687 65.00417969 -124.16796875 65.32226562 C-110.46390379 70.08433277 -97.47880184 76.18956047 -84.859375 83.32421875 C-84.67375 82.06609375 -84.488125 80.80796875 -84.296875 79.51171875 C-79.30683571 54.84068532 -66.13996573 32.31375679 -48.859375 14.32421875 C-47.61994141 13.00744141 -47.61994141 13.00744141 -46.35546875 11.6640625 C-34.12473336 -1.01482198 -17.14578696 -8.31045797 0 0 Z M-232.08740234 176.54101562 C-244.46729432 188.99936931 -254.75051985 203.79572263 -262.859375 219.32421875 C-263.42253418 220.40147217 -263.42253418 220.40147217 -263.99707031 221.50048828 C-269.82238353 232.81198623 -273.93616802 243.95521468 -276.859375 256.32421875 C-277.16617187 257.56816406 -277.47296875 258.81210937 -277.7890625 260.09375 C-279.80652551 268.49984587 -281.01593411 276.55430607 -281.0625 285.1953125 C-281.06820007 286.03530289 -281.07390015 286.87529327 -281.07977295 287.74073792 C-281.0891794 289.51489014 -281.09573951 291.28905949 -281.09960938 293.06323242 C-281.10923423 295.72282166 -281.14026539 298.38160987 -281.171875 301.04101562 C-281.26742363 316.0844404 -279.19471006 329.7077577 -274.296875 344.01171875 C-273.95172852 345.02572754 -273.60658203 346.03973633 -273.25097656 347.08447266 C-262.30264566 378.31884424 -242.81720079 407.47196946 -216.859375 428.32421875 C-216.16457031 428.906875 -215.46976562 429.48953125 -214.75390625 430.08984375 C-182.83345084 456.39614871 -145.20752468 473.39965182 -104.87915039 481.87109375 C-102.9700814 482.29938241 -101.08126012 482.81519077 -99.1953125 483.3359375 C-66.08402497 491.67738056 -28.18178934 488.41024737 5.140625 483.32421875 C6.56930908 483.10789795 6.56930908 483.10789795 8.02685547 482.88720703 C42.56726553 477.35725588 77.7497728 461.59636971 106.140625 441.32421875 C107.21054687 440.56109375 108.28046875 439.79796875 109.3828125 439.01171875 C116.01011809 434.15506733 122.10863008 428.89295646 128.140625 423.32421875 C129.86963631 421.8032088 131.5988025 420.28237488 133.328125 418.76171875 C137.64075468 414.87163288 141.42612172 410.7784411 145.140625 406.32421875 C145.87667969 405.49921875 146.61273438 404.67421875 147.37109375 403.82421875 C162.73444675 386.2381867 173.90235968 365.17108698 181.078125 343.01171875 C181.48381714 341.76104614 181.48381714 341.76104614 181.89770508 340.48510742 C186.13004384 326.6156461 187.63843452 313.32939268 187.53173828 298.90625 C187.5156379 296.32628547 187.53169612 293.74788666 187.55078125 291.16796875 C187.56391154 280.53104236 186.53196381 270.69897244 184.140625 260.32421875 C183.8509082 259.05602295 183.56119141 257.78782715 183.26269531 256.48120117 C173.03128 213.42348084 143.7296839 176.58868996 108.140625 151.32421875 C107.51865234 150.87884766 106.89667969 150.43347656 106.25585938 149.97460938 C85.0690253 134.73509104 85.0690253 134.73509104 61.140625 125.32421875 C57.00768143 126.43515398 53.69844688 128.8107927 50.140625 131.13671875 C44.51024618 134.74679478 38.99070709 137.10953844 32.625 139.21875 C31.80515625 139.58355469 30.9853125 139.94835937 30.140625 140.32421875 C29.810625 141.31421875 29.480625 142.30421875 29.140625 143.32421875 C37.37871866 149.62527794 45.46018722 155.36993287 54.7265625 160.08203125 C57.140625 161.32421875 57.140625 161.32421875 58.140625 162.32421875 C58.37890625 164.46875 58.37890625 164.46875 58.453125 167.13671875 C58.49050781 168.00941406 58.52789062 168.88210937 58.56640625 169.78125 C57.99997575 173.16424318 56.78526259 174.19582891 54.140625 176.32421875 C35.66865464 187.54729196 11.14074276 186.06626359 -9.2421875 181.98046875 C-12.23719103 181.43709878 -14.83423894 181.18296726 -17.859375 181.32421875 C-18.15328125 182.12859375 -18.15328125 182.12859375 -18.453125 182.94921875 C-22.80291304 194.34866326 -27.91653921 205.96301943 -35.859375 215.32421875 C-36.77976562 216.53464844 -36.77976562 216.53464844 -37.71875 217.76953125 C-39.91569513 220.39143292 -42.17620885 222.39708933 -44.859375 224.51171875 C-45.705 225.18589844 -46.550625 225.86007813 -47.421875 226.5546875 C-51.37240742 229.4226221 -54.5058727 230.98391883 -59.53125 230.81640625 C-74.86475139 227.57475998 -86.69314871 209.65786197 -94.859375 197.32421875 C-98.3149728 191.89697504 -101.6408139 186.39286283 -104.91064453 180.85205078 C-105.77176811 179.33592869 -105.77176811 179.33592869 -106.859375 178.32421875 C-108.39042742 178.1316122 -109.92924969 178.00016078 -111.46875 177.89453125 C-112.44102539 177.82314941 -113.41330078 177.75176758 -114.41503906 177.67822266 C-115.46916992 177.60265137 -116.52330078 177.52708008 -117.609375 177.44921875 C-160.82658582 174.05570459 -160.82658582 174.05570459 -171.859375 164.32421875 C-174.13469201 160.59209811 -174.39474345 157.68364752 -173.859375 153.32421875 C-169.04836804 146.27952998 -159.40432945 143.48882709 -151.88671875 140.046875 C-151.02643066 139.64887695 -150.16614258 139.25087891 -149.27978516 138.84082031 C-147.55617783 138.04501135 -145.82800845 137.25900172 -144.09521484 136.48339844 C-143.30195801 136.11762695 -142.50870117 135.75185547 -141.69140625 135.375 C-140.61983276 134.89027222 -140.61983276 134.89027222 -139.52661133 134.39575195 C-137.52045778 133.35262692 -137.52045778 133.35262692 -136.859375 130.32421875 C-137.83656485 127.76265182 -137.83656485 127.76265182 -139.296875 125.13671875 C-139.76996094 124.23566406 -140.24304688 123.33460937 -140.73046875 122.40625 C-141.10300781 121.71917969 -141.47554687 121.03210938 -141.859375 120.32421875 C-171.81854773 120.32421875 -212.16370058 157.11086058 -232.08740234 176.54101562 Z " fill="#030201" transform="translate(302.859375,2.67578125)"/>
<path d="M0 0 C3.07494063 1.73475633 5.24379689 4.04652651 7.4375 6.8125 C8.36619895 10.42410703 8.18074501 13.51520661 7 17 C4.98431347 19.97867031 2.52132421 22.44556271 0 25 C-23.39569859 49.73630239 -33.87226124 76.4263867 -34.3125 110.375 C-34.33030518 111.26074707 -34.34811035 112.14649414 -34.36645508 113.05908203 C-34.36043734 117.85012377 -34.17453028 121.14893047 -31 125 C-27.28424249 127.47717167 -25.40013262 127.30345742 -21 127 C-18.15920854 126.61446793 -18.15920854 126.61446793 -16 125 C-14.36410276 121.40102608 -14.00397437 118.67007827 -13.98046875 114.70703125 C-13.87067398 105.3944388 -13.87067398 105.3944388 -11.5 101.59765625 C-2.74951229 93.22834509 10.38828077 87.85640503 22 85 C22.91007813 84.74734375 23.82015625 84.4946875 24.7578125 84.234375 C33.52146785 81.94820404 41.79924924 81.63881113 50.8125 81.8125 C52.19855289 81.82759932 53.58462201 81.8412783 54.97070312 81.85351562 C58.31423094 81.88846539 61.6568927 81.93752698 65 82 C59.89607563 92.6262256 47.18606319 98.27738134 36.59765625 102.2890625 C31.11946725 104.02880252 25.62765151 105.28667688 20 106.4375 C16.17063927 107.30801973 14.00819868 107.99458578 10.6875 110.1875 C8.48320506 113.8613249 8.14519417 116.88065002 9 121 C11.31583619 125.72816556 14.74861692 128.73183207 18.70703125 132.06640625 C21.28955255 134.24417123 23.80247312 136.48914367 26.3125 138.75 C27.13363281 139.48734375 27.95476562 140.2246875 28.80078125 140.984375 C30.58215828 142.61704027 32.31111038 144.27285075 34 146 C19.08299234 146.91204531 4.20360797 144.73453599 -10 140 C-16.37496879 139.55686279 -16.37496879 139.55686279 -22 142 C-23.44721891 145.19948887 -24.1631241 148.59916608 -25 152 C-28.46126371 165.48196148 -32.76507025 180.84338017 -45 189 C-50.09818196 188.4891802 -52.80579313 184.65321691 -56 181 C-63.29824177 172.00846113 -69.60057358 162.37887423 -75.06640625 152.171875 C-75.58352173 151.22127197 -75.58352173 151.22127197 -76.11108398 150.25146484 C-77.07087427 148.47517106 -78.00877634 146.68710098 -78.9453125 144.8984375 C-81.48693954 141.31310049 -82.79913835 140.34501272 -87 139 C-91.28986585 138.53803756 -95.56298717 138.44245048 -99.875 138.375 C-106.98467424 138.21505232 -113.96026787 138.05509499 -121 137 C-117.81246518 133.24995904 -113.3432901 131.27728518 -109.09375 128.9609375 C-102.78259639 125.46339527 -102.78259639 125.46339527 -99.8125 119.1875 C-99.38275181 113.81564765 -101.74981729 110.44885537 -104.52709961 106.00756836 C-107.80533168 100.65121546 -110.15251294 95.11649488 -112.375 89.25 C-112.70814209 88.38729492 -113.04128418 87.52458984 -113.38452148 86.63574219 C-115.54095867 80.83876092 -116.96566145 75.09526748 -118 69 C-111.85608204 70.93918261 -105.94182778 73.17999371 -100.0625 75.8125 C-99.28052246 76.16143311 -98.49854492 76.51036621 -97.69287109 76.86987305 C-91.87175608 79.51105752 -86.29347735 82.39660879 -81 86 C-79.95863892 86.57004761 -79.95863892 86.57004761 -78.89624023 87.15161133 C-77 89 -77 89 -76.59350586 92.10693359 C-76.63354736 93.35812988 -76.67358887 94.60932617 -76.71484375 95.8984375 C-76.72761856 96.57041168 -76.74039337 97.24238586 -76.7535553 97.9347229 C-76.79577468 100.08244517 -76.86412541 102.2281317 -76.9375 104.375 C-77.00568853 106.51462587 -77.06767675 108.6535672 -77.11073303 110.79385376 C-77.15041021 112.7410471 -77.21316556 114.68772948 -77.27709961 116.63427734 C-76.97326514 120.32472845 -76.24293627 122.08969799 -74 125 C-70.32317905 127.45121397 -67.27079037 127.82418762 -63 127 C-59.47725722 124.30172894 -57.77301517 122.31872784 -57 118 C-56.8773304 116.23673231 -56.79963478 114.47006294 -56.75390625 112.703125 C-56.72264648 111.67010254 -56.69138672 110.63708008 -56.65917969 109.57275391 C-56.62727539 108.47624512 -56.59537109 107.37973633 -56.5625 106.25 C-55.12064176 66.48536614 -43.0635646 31.75704769 -13.734375 3.84375 C-9.12262481 -0.00542732 -5.97625104 -1.0603026 0 0 Z " fill="#4BAD4F" transform="translate(291,21)"/>
<path d="M0 0 C5.63877568 0.11076167 5.63877568 0.11076167 8.1875 2.1875 C11.19603305 7.1257487 11.73149773 11.32433966 12.125 16.9375 C14.50670613 43.51002006 23.40474266 67.34485929 40.1875 88.1875 C40.95449219 89.15816406 41.72148438 90.12882812 42.51171875 91.12890625 C49.37599338 99.69468189 56.51750526 106.63012286 65.21362305 113.28125 C73.70034199 119.79199527 73.70034199 119.79199527 74.9375 123.3359375 C75.42531494 127.68053933 75.44974632 129.6810933 73.375 133.6875 C70.45777516 137.02147124 69.72911227 137.11012682 65.25 137.75 C54.04092769 137.55334961 43.86170825 124.61134734 36.1875 117.1875 C35.6195874 116.64512695 35.0516748 116.10275391 34.46655273 115.54394531 C30.14417041 111.33799682 26.38247338 106.87211781 22.75 102.0625 C22.18579346 101.31750244 21.62158691 100.57250488 21.0402832 99.80493164 C16.31686395 93.49283048 12.03270377 87.08093155 8.1875 80.1875 C7.85943359 79.60242676 7.53136719 79.01735352 7.19335938 78.41455078 C-3.57709251 58.92785844 -9.81371226 37.70120374 -10.3125 15.4375 C-10.34335693 14.5911499 -10.37421387 13.7447998 -10.40600586 12.87280273 C-10.40645577 8.41377183 -10.26728008 6.7430225 -7.34375 3.171875 C-6.5084375 2.51703125 -5.673125 1.8621875 -4.8125 1.1875 C-3.8125 0.1875 -3.8125 0.1875 0 0 Z " fill="#030000" transform="translate(52.8125,287.8125)"/>
<path d="M0 0 C3.07494063 1.73475633 5.24379689 4.04652651 7.4375 6.8125 C8.36619895 10.42410703 8.18074501 13.51520661 7 17 C4.98431347 19.97867031 2.52132421 22.44556271 0 25 C-23.39569859 49.73630239 -33.87226124 76.4263867 -34.3125 110.375 C-34.33030518 111.26074707 -34.34811035 112.14649414 -34.36645508 113.05908203 C-34.35786491 119.89818062 -32.91221654 123.08778346 -28 128 C-39.55 128 -51.1 128 -63 128 C-61.35 126.02 -59.7 124.04 -58 122 C-56.81415654 118.95930124 -56.83797745 115.95161335 -56.75390625 112.703125 C-56.72264648 111.67010254 -56.69138672 110.63708008 -56.65917969 109.57275391 C-56.62727539 108.47624512 -56.59537109 107.37973633 -56.5625 106.25 C-55.12064176 66.48536614 -43.0635646 31.75704769 -13.734375 3.84375 C-9.12262481 -0.00542732 -5.97625104 -1.0603026 0 0 Z " fill="#378B3B" transform="translate(291,21)"/>
<path d="M0 0 C0.66 0.33 1.32 0.66 2 1 C-6.25 9.25 -14.5 17.5 -23 26 C-23.66 25.67 -24.32 25.34 -25 25 C-8.0078125 6.4453125 -8.0078125 6.4453125 0 0 Z " fill="#511612" transform="translate(73,147)"/>
<path d="M0 0 C0.66 0.33 1.32 0.66 2 1 C-5.59 8.59 -13.18 16.18 -21 24 C-21.66 23.67 -22.32 23.34 -23 23 C-7.34453782 5.22689076 -7.34453782 5.22689076 0 0 Z " fill="#143416" transform="translate(268,4)"/>
</svg>
