<?xml version="1.0" encoding="UTF-8"?>
<svg version="1.1" xmlns="http://www.w3.org/2000/svg" width="512" height="512">
<path d="M0 0 C0.74121094 -0.01933594 1.48242188 -0.03867188 2.24609375 -0.05859375 C6.36814196 0.82420578 8.62621693 3.04499052 10.95336914 6.50610352 C12.50011736 9.11563519 13.95054655 11.75923314 15.375 14.4375 C15.89980957 15.4157373 16.42461914 16.39397461 16.96533203 17.40185547 C34.08024276 49.92700455 42.10351695 86.25914282 43.2722168 122.83911133 C43.29840088 123.65017334 43.32458496 124.46123535 43.3515625 125.296875 C43.37790771 126.35600098 43.37790771 126.35600098 43.40478516 127.43652344 C43.56968384 129.52864354 43.99828091 131.41944056 44.5625 133.4375 C45.16835938 132.43332031 45.77421875 131.42914063 46.3984375 130.39453125 C51.95492631 121.28529451 57.86789472 112.74138539 64.5625 104.4375 C65.7071875 103.00277344 65.7071875 103.00277344 66.875 101.5390625 C71.89820961 95.31237559 77.136682 89.3154695 82.5625 83.4375 C83.119375 82.80328125 83.67625 82.1690625 84.25 81.515625 C86.52379238 79.02866458 88.31192073 77.52813505 91.5 76.375 C95.57251776 76.45811261 98.04758869 77.38160848 101.5625 79.4375 C104.95256804 84.7232736 105.88907063 90.61570705 107.0625 96.6875 C107.27680664 97.79158203 107.49111328 98.89566406 107.71191406 100.03320312 C117.5384544 152.41177563 113.37994865 204.56291669 102.5625 256.4375 C103.23152344 256.03660156 103.90054687 255.63570312 104.58984375 255.22265625 C110.78801731 251.55367029 117.04737329 248.00303879 123.375 244.5625 C124.07939209 244.1694165 124.78378418 243.77633301 125.50952148 243.37133789 C129.85846563 241.03472177 133.53899768 239.70157164 138.5625 239.4375 C141.79422783 240.59604394 143.84537333 241.44718221 145.875 244.25 C148.16840353 251.54719304 147.80582856 259.18661706 147.8125 266.75 C147.81317474 267.43634521 147.81384949 268.12269043 147.81454468 268.82983398 C147.76533531 300.56297702 142.78454062 338.01305069 127.5625 366.4375 C125.17829881 368.7985536 123.65254891 370.24726459 120.32421875 370.828125 C118.40364583 370.69791667 116.48307292 370.56770833 114.5625 370.4375 C114.2221875 371.613125 114.2221875 371.613125 113.875 372.8125 C112.42995177 376.80358559 110.5389827 380.36172002 108.48828125 384.0703125 C107.42472061 386.78979666 107.47300268 387.77182636 108.5625 390.4375 C109.2225 391.4275 109.8825 392.4175 110.5625 393.4375 C110.98983494 398.73645331 111.07572472 402.17144141 107.5625 406.4375 C104.14596473 408.99990146 100.70704999 408.66775278 96.5625 408.4375 C95.9025 408.1075 95.2425 407.7775 94.5625 407.4375 C94.32144531 408.15164063 94.08039063 408.86578125 93.83203125 409.6015625 C92.3865391 412.83056958 90.50475456 415.09433301 88.25 417.8125 C86.05335093 420.61608971 86.05335093 420.61608971 84.5625 423.4375 C85.57101184 427.12407612 85.57101184 427.12407612 87.5625 430.4375 C87.88014102 435.17488887 86.30729876 438.47775013 83.4375 442.17578125 C81.34575293 444.48116712 79.20961762 446.71531862 77.01513672 448.92211914 C75.35139658 450.65772167 73.78516903 452.46074708 72.21484375 454.28125 C61.30110797 466.84871682 49.20575287 477.92993565 35.73828125 487.6875 C34.27708862 488.74710937 34.27708862 488.74710937 32.78637695 489.828125 C32.05249756 490.35921875 31.31861816 490.8903125 30.5625 491.4375 C32.18075935 491.43963753 32.18075935 491.43963753 33.83171082 491.44181824 C43.99921577 491.45848836 54.1663205 491.50126246 64.3336134 491.56959057 C69.56076482 491.60388017 74.78762336 491.62897363 80.01489258 491.63305664 C85.05964381 491.63733533 90.10373414 491.66576258 95.14827919 491.71093178 C97.07274844 491.72392049 98.99729674 491.72820961 100.92180443 491.72365379 C103.61811034 491.71875753 106.31247736 491.74479573 109.00854492 491.77807617 C109.80408279 491.76945053 110.59962067 491.76082489 111.41926575 491.75193787 C115.49476952 491.83625748 117.32986275 492.24837541 120.53462219 494.85371399 C123.49766878 498.6290294 124.02508165 500.62665083 123.5625 505.4375 C120.40460526 511.01644737 120.40460526 511.01644737 117.5625 512.4375 C115.77456264 512.536278 113.98291494 512.57032405 112.19225597 512.57451439 C111.04532023 512.57958893 109.89838448 512.58466347 108.7166931 512.58989179 C107.4458074 512.59038955 106.17492169 512.59088731 104.86552429 512.59140015 C103.51030104 512.59541346 102.15507899 512.59985146 100.79985839 512.6046797 C97.06291323 512.61666553 93.325981 512.62229828 89.58902037 512.62686086 C85.5636921 512.63280927 81.53837935 512.64442093 77.51306152 512.65515137 C67.78594823 512.67969159 58.05882979 512.69430425 48.33169505 512.70721143 C45.58570548 512.71092198 42.83971641 512.71489531 40.09372735 512.7189641 C23.05198275 512.74419758 6.01023737 512.76625693 -11.0315218 512.77869225 C-14.98024308 512.78162208 -18.92896433 512.78458372 -22.87768555 512.78759766 C-24.3498901 512.78871673 -24.3498901 512.78871673 -25.85183617 512.78985842 C-41.75927414 512.8025183 -57.6666005 512.83574901 -73.57398627 512.87739949 C-89.8948436 512.91978335 -106.21564372 512.94338311 -122.53655595 512.94861281 C-131.70462068 512.95203081 -140.87251095 512.9638317 -150.04052162 512.99671555 C-157.84669604 513.02466844 -165.65266023 513.03573639 -173.45888082 513.02452008 C-177.44338144 513.01932128 -181.42744151 513.02229868 -185.41187859 513.04698563 C-189.05825926 513.06938996 -192.70388068 513.06880818 -196.35027387 513.04978175 C-198.29703987 513.04563491 -200.24380983 513.06619248 -202.19046289 513.08756864 C-211.60870591 513.00134363 -211.60870591 513.00134363 -214.69237041 510.02449989 C-217.29130964 506.1718029 -217.88818799 504.12465513 -217.4375 499.4375 C-214.27960526 493.85855263 -214.27960526 493.85855263 -211.4375 492.4375 C-209.32194682 492.33123142 -207.20299751 492.29081142 -205.08480835 492.27928162 C-204.42564757 492.27434364 -203.76648679 492.26940566 -203.08735144 492.26431805 C-200.86862102 492.2489046 -198.64991962 492.24057207 -196.43115234 492.23217773 C-194.844668 492.22260223 -193.25818622 492.21259234 -191.67170715 492.20217896 C-187.35586392 492.17508832 -183.04000971 492.15410132 -178.72412825 492.13417697 C-174.21707617 492.11234302 -169.71005811 492.08494168 -165.20303345 492.05812073 C-156.66432892 492.00815873 -148.12560556 491.96323294 -139.58686411 491.92009836 C-129.86751227 491.87075592 -120.14819455 491.81582671 -110.42887568 491.76041877 C-90.43178223 491.64654491 -70.43465621 491.53971766 -50.4375 491.4375 C-50.80610641 490.96212296 -51.17471283 490.48674591 -51.55448914 489.9969635 C-53.25191502 487.80393057 -54.94433206 485.60707996 -56.63671875 483.41015625 C-57.21643433 482.66270142 -57.7961499 481.91524658 -58.39343262 481.1451416 C-63.70349115 474.23925596 -68.26612166 467.07768768 -72.4375 459.4375 C-72.77587891 458.82116699 -73.11425781 458.20483398 -73.46289062 457.56982422 C-99.97687288 408.61020976 -105.76203559 350.18716273 -90.18847656 296.93408203 C-85.10629939 280.03865167 -85.10629939 280.03865167 -78.4375 276.4375 C-73.24963262 275.70937826 -70.68407592 276.56701393 -66.4375 279.4375 C-54.25844097 289.58944048 -44.04083522 301.24652297 -35.1875 314.375 C-34.72851318 315.05320801 -34.26952637 315.73141602 -33.79663086 316.43017578 C-30.65619388 321.22086192 -27.92621103 326.18522207 -25.25097656 331.24438477 C-24.88287872 331.93766121 -24.51478088 332.63093765 -24.13552856 333.34522247 C-23.23487987 335.0419558 -22.33600875 336.73963249 -21.4375 338.4375 C-21.27268763 321.93676174 -21.14991662 305.43629758 -21.0748148 288.9349308 C-21.03898932 281.26997703 -20.99030888 273.60553973 -20.90942383 265.94091797 C-20.83881356 259.24663619 -20.79429794 252.55272897 -20.77888054 245.85808504 C-20.76989306 242.32556745 -20.749369 238.79411966 -20.6973896 235.26195145 C-20.44626844 217.50616283 -22.30430914 202.17351898 -27.63995171 185.22559738 C-29.66807794 178.13560236 -30.5740188 170.74886908 -31.4375 163.4375 C-31.5310376 162.73375244 -31.6245752 162.03000488 -31.72094727 161.30493164 C-32.36620704 155.90868196 -32.51077307 150.55125907 -32.54296875 145.12109375 C-32.5577769 143.59960775 -32.5727535 142.07812339 -32.58789062 140.55664062 C-32.61072237 138.21086346 -32.62495571 135.86662636 -32.61254883 133.52075195 C-32.57614221 124.09340562 -32.72051009 116.71709361 -39.4375 109.4375 C-40.56285156 108.04144531 -40.56285156 108.04144531 -41.7109375 106.6171875 C-51.92053582 95.42078786 -62.72473126 87.87653923 -76.4375 81.4375 C-77.0975 81.4375 -77.7575 81.4375 -78.4375 81.4375 C-77.92960938 82.05753906 -77.42171875 82.67757812 -76.8984375 83.31640625 C-65.87456203 97.49880784 -62.06408668 112.69762838 -62.1875 130.5 C-62.17976562 131.61955078 -62.17203125 132.73910156 -62.1640625 133.89257812 C-62.20025902 149.32134291 -62.20025902 149.32134291 -66.1875 154.875 C-72.05618985 158.95047906 -78.91275982 159.01942368 -85.8125 159.5625 C-87.34583984 159.69205078 -87.34583984 159.69205078 -88.91015625 159.82421875 C-91.41880112 160.03522626 -93.92780455 160.23944994 -96.4375 160.4375 C-96.54707031 161.67886719 -96.65664062 162.92023438 -96.76953125 164.19921875 C-96.92903887 165.84120897 -97.0892312 167.48313278 -97.25 169.125 C-97.35538086 170.34993164 -97.35538086 170.34993164 -97.46289062 171.59960938 C-97.93239226 176.23828548 -98.49794755 179.64240617 -101.4375 183.4375 C-107.23773157 187.82686443 -113.47999341 187.55745701 -120.4375 187.4375 C-119.85742188 188.49324219 -119.85742188 188.49324219 -119.265625 189.5703125 C-112.09592183 203.16435367 -109.25994627 216.42992366 -109.25 231.6875 C-109.23775391 232.66074219 -109.22550781 233.63398438 -109.21289062 234.63671875 C-109.19755913 242.33312855 -109.38561116 250.49787342 -113 257.4375 C-116.45072323 260.26886265 -120.16317342 261.3141193 -124.4375 262.4375 C-123.99019531 263.08074219 -123.54289063 263.72398437 -123.08203125 264.38671875 C-113.22114597 279.12548332 -109.21092648 294.57064282 -109.125 312.125 C-109.11944092 313.07487793 -109.11388184 314.02475586 -109.1081543 315.00341797 C-109.18619526 322.71013021 -109.29395353 331.68686098 -113.4375 338.4375 C-121.44439119 343.46508284 -130.68899041 342.62005233 -139.8125 342.625 C-140.99328125 342.63724609 -142.1740625 342.64949219 -143.390625 342.66210938 C-150.07131686 342.67326866 -155.98409571 342.18558489 -162.4375 340.4375 C-162.2209375 341.45457031 -162.2209375 341.45457031 -162 342.4921875 C-158.74554603 358.80965812 -160.99658169 374.53527729 -168.4375 389.4375 C-168.91832031 390.41074219 -169.39914063 391.38398438 -169.89453125 392.38671875 C-176.5998403 404.86740348 -189.92287903 420.98075973 -203.4375 426.4375 C-208.05410444 426.95045605 -210.95770631 426.67204309 -214.7109375 423.83203125 C-215.28070313 423.37183594 -215.85046875 422.91164063 -216.4375 422.4375 C-217.21351563 421.84324219 -217.98953125 421.24898438 -218.7890625 420.63671875 C-235.32863198 407.76983312 -248.85619027 390.61516622 -252.4375 369.4375 C-253.66792824 359.43897809 -253.49526891 350.36921112 -251.4375 340.4375 C-252.64535156 340.76234375 -253.85320312 341.0871875 -255.09765625 341.421875 C-261.340604 342.80404141 -267.50715374 342.72969445 -273.875 342.6875 C-275.62006836 342.69910156 -275.62006836 342.69910156 -277.40039062 342.7109375 C-294.61473587 342.67218827 -294.61473587 342.67218827 -300.4375 338.0625 C-307.89793818 326.96410964 -305.5509248 306.15860642 -303.3125 293.5625 C-300.68280698 282.30296931 -296.49884118 271.67734005 -289.4375 262.4375 C-290.12457031 262.19515625 -290.81164062 261.9528125 -291.51953125 261.703125 C-292.87111328 261.20039062 -292.87111328 261.20039062 -294.25 260.6875 C-295.14332031 260.36265625 -296.03664063 260.0378125 -296.95703125 259.703125 C-299.77182693 258.26691429 -300.86787863 257.15981207 -302.4375 254.4375 C-308.45872799 235.66543626 -305.12483164 210.71372325 -296.4375 193.4375 C-292.88318653 186.68331983 -288.67301944 180.98281349 -283.4375 175.4375 C-284.571875 174.963125 -285.70625 174.48875 -286.875 174 C-291.76132674 171.81092562 -296.54716149 169.43886547 -301.3125 167 C-302.06200928 166.62883057 -302.81151855 166.25766113 -303.58374023 165.87524414 C-307.77536267 163.69764864 -310.70767679 162.06171244 -312.4375 157.4375 C-313.79795186 141.31707732 -304.38918775 121.6793251 -294.4375 109.4375 C-293.75945312 108.59703125 -293.08140625 107.7565625 -292.3828125 106.890625 C-284.22779564 97.31355894 -273.33936071 88.43274464 -260.8125 85.625 C-260.02875 85.563125 -259.245 85.50125 -258.4375 85.4375 C-260.4066624 81.98995105 -262.54899177 79.01492242 -265.125 76 C-271.02336396 68.68165953 -278.56086388 59.09194994 -278.72265625 49.3125 C-277.52980931 41.46912286 -268.60255685 35.61013016 -262.75097656 31.15283203 C-245.16346086 18.21628017 -225.37859055 11.45491293 -203.3125 14.0625 C-196.26875326 15.25366349 -189.93021771 17.49523046 -183.4375 20.4375 C-182.50164062 20.85773437 -181.56578125 21.27796875 -180.6015625 21.7109375 C-165.55202909 29.1710214 -153.85945225 43.21861957 -145.4375 57.4375 C-145.4375 58.0975 -145.4375 58.7575 -145.4375 59.4375 C-144.36371094 59.16035156 -143.28992188 58.88320313 -142.18359375 58.59765625 C-140.74744471 58.23157904 -139.31124401 57.86570442 -137.875 57.5 C-136.81829102 57.22639648 -136.81829102 57.22639648 -135.74023438 56.94726562 C-106.18686035 49.45677912 -76.1390479 55.00762443 -50.15625 70.09375 C-46.03899442 72.59066629 -42.2371487 75.48665588 -38.4375 78.4375 C-38.26210693 77.74938232 -38.08671387 77.06126465 -37.90600586 76.35229492 C-22.55925707 16.60089432 -22.55925707 16.60089432 -6.48046875 1.61328125 C-4.13840864 0.2653652 -2.68908607 0.00466046 0 0 Z M-194.4375 142.4375 C-195.41998524 146.4902516 -195.51909574 150.27611737 -195.4375 154.4375 C-192.7975 154.4375 -190.1575 154.4375 -187.4375 154.4375 C-189.0875 150.4775 -190.7375 146.5175 -192.4375 142.4375 C-193.0975 142.4375 -193.7575 142.4375 -194.4375 142.4375 Z " fill="#010100" transform="translate(338.4375,-0.4375)"/>
<path d="M0 0 C0.59684716 12.75926593 -0.12938775 24.88980407 -2.25 37.5 C-2.45455811 38.72605957 -2.65911621 39.95211914 -2.86987305 41.21533203 C-5.06577721 53.55390584 -8.68026872 65.39418284 -12.6875 77.25 C-12.99494141 78.17167969 -13.30238281 79.09335937 -13.61914062 80.04296875 C-15.85855539 86.71711077 -15.85855539 86.71711077 -17 89 C-17.59338399 93.54585421 -17.59338399 93.54585421 -15.84765625 97.6171875 C-15.38230469 98.11476563 -14.91695313 98.61234375 -14.4375 99.125 C-12 102 -12 102 -12.15234375 104.30078125 C-13.48555034 108.54615337 -15.69065032 112.26886107 -17.8203125 116.16015625 C-19.18583049 118.82694717 -19.18583049 118.82694717 -18.8046875 121.18359375 C-17.94026672 123.27392293 -17.94026672 123.27392293 -16 126 C-15.57266506 131.29895331 -15.48677528 134.73394141 -19 139 C-22.41653527 141.56240146 -25.85545001 141.23025278 -30 141 C-30.66 140.67 -31.32 140.34 -32 140 C-32.37125 141.04027344 -32.37125 141.04027344 -32.75 142.1015625 C-35.19533851 147.77169117 -38.50005795 152.78772548 -43 157 C-45.82939034 157.34440961 -47.83296479 156.86598737 -50.59375 156.22265625 C-53.02993462 155.78224639 -53.02993462 155.78224639 -55.09375 157.05859375 C-58.82573774 160.26484512 -61.81946201 163.97379499 -64.875 167.8125 C-74.68790107 180.1297352 -86.39607944 191.55593558 -99 201 C-99.5784668 201.43892578 -100.15693359 201.87785156 -100.75292969 202.33007812 C-121.44362245 218 -121.44362245 218 -126 218 C-126.8223457 176.79134325 -115.62551027 137.20193935 -96 101 C-95.6405127 100.33178223 -95.28102539 99.66356445 -94.91064453 98.97509766 C-77.38238381 66.57252978 -52.91540142 35.78731603 -23 14 C-22.38962891 13.55011719 -21.77925781 13.10023438 -21.15039062 12.63671875 C-3.97513204 0 -3.97513204 0 0 0 Z " fill="#9FE356" transform="translate(465,267)"/>
<path d="M0 0 C0.33 0 0.66 0 1 0 C7.40668362 36.63822194 7.09275404 74.34136259 1 111 C0.69521729 112.83957275 0.69521729 112.83957275 0.38427734 114.71630859 C-0.93717324 122.50716667 -2.41526046 130.25875587 -4 138 C-4.1753125 138.87205078 -4.350625 139.74410156 -4.53125 140.64257812 C-5.43908515 145.12146794 -6.43595258 149.56382116 -7.5390625 153.99853516 C-7.99435775 155.97550044 -8.33031102 157.94737704 -8.65625 159.94921875 C-11.27635875 173.29850698 -21.17100235 180.90201628 -30.75292969 189.85302734 C-34.97678333 193.88872584 -38.45939682 198.35971218 -42 203 C-43.04542511 204.28609605 -44.09387768 205.5697342 -45.14453125 206.8515625 C-60.11055531 225.30308375 -71.34477833 245.84042183 -82 267 C-82.33 267 -82.66 267 -83 267 C-84.89546211 171.32859175 -62.86554645 74.92195262 0 0 Z " fill="#D6F991" transform="translate(426,108)"/>
<path d="M0 0 C1.6958686 1.64287271 3.35483453 3.3068005 5 5 C5.58136719 5.59683594 6.16273438 6.19367188 6.76171875 6.80859375 C23.37072205 24.63042487 34.57510447 48.01169543 42 71 C42.38542969 72.16015625 42.77085937 73.3203125 43.16796875 74.515625 C44.24196992 77.98864028 45.14341983 81.46706634 46 85 C46.18191895 85.69109863 46.36383789 86.38219727 46.55126953 87.09423828 C53.95091837 115.96100025 53.10416324 151.89298753 43 180 C12.31210728 156.65051641 -1.34183839 110.34969908 -6.75 74.1484375 C-10.05165434 49.82899966 -8.02499319 24.53233384 -1 1 C-0.67 0.67 -0.34 0.34 0 0 Z " fill="#9EE356" transform="translate(268,304)"/>
<path d="M0 0 C3.62147864 3.30253797 5.02284147 7.1032222 6.875 11.5625 C7.22578613 12.39934326 7.57657227 13.23618652 7.93798828 14.09838867 C10.87704029 21.30683599 13.06492856 28.61078011 14.9921875 36.14453125 C15.9081727 39.85527572 15.9081727 39.85527572 16.98242188 42.82739258 C32.83538339 92.25379252 23.02074067 151.88230511 2 198 C1.67 198 1.34 198 1 198 C0.99857498 197.10116089 0.99714996 196.20232178 0.99568176 195.27624512 C0.97764497 186.68924374 0.93543372 178.10274365 0.86790943 169.51598358 C0.83402046 165.10434037 0.80859016 160.69302937 0.80444336 156.28125 C0.88029588 115.62012765 0.88029588 115.62012765 -14.26171875 78.48828125 C-14.63449951 77.92004639 -15.00728027 77.35181152 -15.39135742 76.76635742 C-16.42314025 75.2387917 -17.50663652 73.74650895 -18.59375 72.2578125 C-20.60883684 67.58952798 -19.83563411 63.91450283 -19 59 C-18.89236328 58.26040039 -18.78472656 57.52080078 -18.67382812 56.75878906 C-17.01183756 45.87717628 -14.07095783 35.44070572 -10.625 25 C-10.26212891 23.89148682 -9.89925781 22.78297363 -9.52539062 21.64086914 C-6.95349982 14.0828324 -3.73950854 7.05028362 0 0 Z " fill="#D5F791" transform="translate(338,31)"/>
<path d="M0 0 C18.95264421 -0.70536609 36.63621857 0.70544775 51.37890625 14.24609375 C63.24397382 27.08323915 67.08804094 42.08762016 67.1328125 59.16796875 C67.00557806 61.88105607 66.60873052 64.35733657 66 67 C47.57062715 67.52544146 31.27254004 66.23315089 16.625 53.6875 C6.92639806 44.37684214 0.32525596 32.09519988 -0.07397461 18.4765625 C-0.09810005 15.67104724 -0.08742919 12.86799317 -0.0625 10.0625 C-0.05798828 9.09248047 -0.05347656 8.12246094 -0.04882812 7.12304688 C-0.0371315 4.7486324 -0.02074086 2.37434979 0 0 Z " fill="#FCC36A" transform="translate(142,255)"/>
<path d="M0 0 C0.74467529 0.00491455 1.48935059 0.0098291 2.2565918 0.01489258 C13.04601251 0.24148784 23.22152227 3.37860144 32.8125 8.3125 C33.8125 10.3125 33.8125 10.3125 32.8125 14.0625 C27.35990841 29.31501971 18.90682276 43.56964739 3.78515625 50.75 C-11.15819401 57.12582945 -26.80177262 57.47910662 -42.05859375 51.69921875 C-45.15359095 50.32752835 -48.17728018 48.86074277 -51.1875 47.3125 C-48.72049826 31.41404433 -39.37419275 17.63933989 -26.703125 8 C-18.63553245 2.58819879 -9.71396053 -0.07655777 0 0 Z " fill="#FBD799" transform="translate(99.1875,101.6875)"/>
<path d="M0 0 C7.49861504 5.81616204 16.6384076 13.84696853 20 23 C19.98828125 24.97265625 19.98828125 24.97265625 19 27 C11.62462232 33.39199399 3.18774232 37.81705579 -6 41 C-7.2375 41.433125 -8.475 41.86625 -9.75 42.3125 C-23.14495656 45.18683443 -35.84511594 42.82229063 -47.5625 35.9375 C-57.40537498 29.27616037 -65.52915465 20.58692598 -71 10 C-71 9.34 -71 8.68 -71 8 C-69.07286928 6.46252424 -67.1630562 5.06428252 -65.125 3.6875 C-64.53146729 3.28450684 -63.93793457 2.88151367 -63.32641602 2.46630859 C-43.50149421 -10.77875554 -20.5629019 -13.8293819 0 0 Z " fill="#FCC46B" transform="translate(154,43)"/>
<path d="M0 0 C12.27056575 6.96322762 20.61237268 20.00833386 25.08203125 33.19140625 C27.79914137 44.46452269 26.80798453 56.47686405 22 67 C21.61070312 67.8971875 21.22140625 68.794375 20.8203125 69.71875 C16.82724925 77.94115244 8.86908836 89.58391573 0 93 C-11.96618232 82.82982697 -23.14047983 70.32699579 -25 54 C-25.61213623 43.9348747 -25.56810383 35.22577833 -21 26 C-20.43925781 24.83597656 -20.43925781 24.83597656 -19.8671875 23.6484375 C-14.92382741 14.12182964 -8.20535535 6.828493 0 0 Z " fill="#FBD799" transform="translate(131,310)"/>
<path d="M0 0 C0.72959527 18.06926872 0.6447138 33.1936838 -11 48 C-11.7425 49.03125 -12.485 50.0625 -13.25 51.125 C-22.44960275 60.74276651 -35.06822592 66.66583617 -48.42797852 67.07421875 C-51.09868511 67.09801344 -53.76682069 67.08749556 -56.4375 67.0625 C-57.35982422 67.05798828 -58.28214844 67.05347656 -59.23242188 67.04882812 C-61.48835048 67.03713938 -63.74413967 67.02075455 -66 67 C-66.83700174 40.46060635 -66.83700174 40.46060635 -62 31 C-61.47921875 29.96746094 -60.9584375 28.93492187 -60.421875 27.87109375 C-53.24148962 14.69088184 -42.60412547 6.33242217 -28.21850586 2.02124023 C-18.85899646 -0.4570622 -9.61729669 -0.4007207 0 0 Z " fill="#FCC46B" transform="translate(121,174)"/>
<path d="M0 0 C0.49835683 18.18619067 -0.24874975 34.85032734 -12.17578125 49.7109375 C-21.61099604 59.52095356 -34.74776814 66.29291045 -48.51367188 67.15795898 C-51.17869073 67.19562971 -53.83523771 67.17535161 -56.5 67.125 C-57.4178125 67.11597656 -58.335625 67.10695313 -59.28125 67.09765625 C-61.52111556 67.07432432 -63.76041183 67.04159235 -66 67 C-66.67450816 45.78152969 -65.36473625 30.7271787 -51 14 C-35.54819523 0.99955107 -19.3276503 -0.38655301 0 0 Z " fill="#FCD899" transform="translate(121,255)"/>
<path d="M0 0 C25.26077305 -0.84170204 25.26077305 -0.84170204 36 4 C36.9590625 4.42410156 37.918125 4.84820312 38.90625 5.28515625 C53.140577 12.30455651 59.80197649 23.89076094 65.21484375 38.21484375 C66.33985 43.63838133 66.21019362 48.91629836 66.125 54.4375 C66.11597656 55.55060547 66.10695313 56.66371094 66.09765625 57.81054688 C66.0742224 60.54059023 66.041414 63.2701801 66 66 C46.05265637 66.84489596 30.6541608 65.50378254 15.25 51.5 C14.5075 50.675 13.765 49.85 13 49 C12.53207031 48.55914062 12.06414062 48.11828125 11.58203125 47.6640625 C4.3125344 40.30112739 -0.15447323 27.80518153 -0.09765625 17.578125 C-0.09443359 16.55332031 -0.09121094 15.52851563 -0.08789062 14.47265625 C-0.07951172 13.40917969 -0.07113281 12.34570312 -0.0625 11.25 C-0.05798828 10.17105469 -0.05347656 9.09210938 -0.04882812 7.98046875 C-0.03705727 5.32025617 -0.02061399 2.66015635 0 0 Z " fill="#FCD899" transform="translate(142,175)"/>
<path d="M0 0 C15.74857022 -0.38255636 30.83149219 0.47424292 43.375 11.25 C52.1712545 19.74975154 58.61095796 30.68456193 59.08154297 43.16210938 C59.16799428 48.44311048 59.10253056 53.71967594 59 59 C42.66874614 59.85058614 27.7795368 58.33592246 15 47 C6.00317065 38.65845153 1.43764326 27.02951071 0 15 C-0.06515057 12.35488687 -0.08591426 9.70831175 -0.0625 7.0625 C-0.05798828 6.37865234 -0.05347656 5.69480469 -0.04882812 4.99023438 C-0.0371956 3.32678396 -0.01926694 1.6633795 0 0 Z " fill="#FBC36A" transform="translate(162,108)"/>
<path d="M0 0 C0.81662109 -0.00773437 1.63324219 -0.01546875 2.47460938 -0.0234375 C15.96439625 0.01955784 28.01467907 4.81146885 37.6875 14.25 C48.79070425 27.68821287 49.9508046 41.53015818 49.6875 58.25 C44.0775 58.25 38.4675 58.25 32.6875 58.25 C31.6665625 55.65125 31.6665625 55.65125 30.625 53 C23.54621129 36.03497097 13.70510821 23.5627977 -3.078125 15.5625 C-7.71355683 13.6814552 -12.44010828 12.35237085 -17.28125 11.109375 C-19.85865794 10.37866656 -21.98519763 9.55055133 -24.3125 8.25 C-22.75288638 7.28697644 -21.18966775 6.32978996 -19.625 5.375 C-18.75488281 4.84132813 -17.88476562 4.30765625 -16.98828125 3.7578125 C-11.10725903 0.44383502 -6.65375263 -0.06213621 0 0 Z " fill="#FAD799" transform="translate(206.3125,79.75)"/>
<path d="M0 0 C10.46224476 13.61027233 12.16857995 29.68443761 12.09765625 46.25 C12.0962413 47.50385498 12.09482635 48.75770996 12.09336853 50.04956055 C12.08874081 53.35717967 12.07978103 56.66474863 12.06866455 59.97235107 C12.05837176 63.35786327 12.05385417 66.74338286 12.04882812 70.12890625 C12.03783447 76.75262354 12.02112293 83.37630768 12 90 C5.09957695 76.52075808 2.82387415 59.90804361 1 45 C0.90356201 44.29697754 0.80712402 43.59395508 0.70776367 42.86962891 C-0.34338022 34.23714431 -0.10896831 25.55492868 -0.0625 16.875 C-0.05747437 15.23437637 -0.05291335 13.59375124 -0.04882812 11.953125 C-0.03790805 7.96871258 -0.02070218 3.9843731 0 0 Z " fill="#D6F991" transform="translate(306,118)"/>
<path d="M0 0 C2.87029869 1.79393668 4.49131638 2.98263276 6 6 C6.5811138 13.08958838 6.5811138 13.08958838 4.125 16.9375 C0.64160635 20.31844089 -2.03626432 20.40432349 -6.73828125 20.34375 C-9 20 -9 20 -12 17.875 C-14.26157198 14.62399027 -15 12.95490344 -15 9 C-12.22517051 0.67551153 -8.36947434 -1.23339622 0 0 Z " fill="#000000" transform="translate(98,492)"/>
<path d="M0 0 C2.6575607 2.13901227 3.74870703 3.55360444 4.3359375 6.93359375 C4.55495922 11.38984326 3.90905357 14.4675778 1 18 C-2.42159595 20.56619697 -5.84844133 20.50984054 -10 20 C-13.84554163 16.82324822 -15.80224739 14.71385593 -16.375 9.75 C-15.88072704 4.80727042 -14.46171699 3.46171699 -11 0 C-7.48463561 -1.7576822 -3.7179506 -0.94434624 0 0 Z " fill="#010200" transform="translate(445,388)"/>
</svg>
