<?xml version="1.0" encoding="UTF-8"?>
<svg version="1.1" xmlns="http://www.w3.org/2000/svg" width="512" height="512">
<path d="M0 0 C0.73863281 0.57363281 1.47726562 1.14726562 2.23828125 1.73828125 C2.86347656 2.19847656 3.48867188 2.65867187 4.1328125 3.1328125 C12.21348369 9.46236758 17.60802066 18.72262962 22.23828125 27.73828125 C22.83253906 27.40054688 23.42679688 27.0628125 24.0390625 26.71484375 C35.64881746 20.46760391 47.3893436 19.27923213 60.2578125 22.4921875 C71.95691745 26.40279741 81.60996473 33.74289262 87.84375 44.51171875 C91.40674004 51.97205567 93.66511792 59.41496627 93.23828125 67.73828125 C93.78484375 67.5784375 94.33140625 67.41859375 94.89453125 67.25390625 C108.18279191 64.33048891 121.97883958 68.76016991 133.23828125 75.73828125 C144.53497838 84.17444134 152.25826845 95.4029161 155.85546875 109.0859375 C157.67099851 121.66496515 156.00866641 133.0404672 151.23828125 144.73828125 C151.85574219 144.89683594 152.47320312 145.05539063 153.109375 145.21875 C165.50850603 148.63464454 174.47448693 154.53691819 181.48828125 165.48828125 C187.81804301 176.85072244 190.15699996 188.13333436 187.578125 201.04296875 C184.57568011 211.25907993 178.01827067 219.70610333 169.23828125 225.73828125 C167.70628945 226.26718318 166.16406589 226.76732148 164.61328125 227.23828125 C161.14187172 228.61139016 160.339597 229.54305727 158.58203125 232.9296875 C157.54330791 235.54037709 156.62244259 238.18920762 155.69140625 240.83984375 C150.91306878 254.27809968 141.18568717 263.52884233 128.81640625 270.04296875 C122.56888092 273.00304079 116.57917176 274.83218736 109.625 274.63671875 C105.81847581 274.54828841 102.87075854 274.56826984 99.23828125 275.73828125 C96.33641733 279.52697157 94.79193195 283.53210585 93.04345703 287.9375 C87.00082768 301.45188268 72.04454987 310.9799316 58.69140625 316.09765625 C45.85969529 320.17778554 33.83988826 320.25673802 20.5390625 318.859375 C19.77980469 318.81941406 19.02054688 318.77945312 18.23828125 318.73828125 C16.9600596 319.79304089 16.9600596 319.79304089 17.11358261 322.19720554 C17.11362415 323.29941913 17.1136657 324.40163271 17.1137085 325.5372467 C17.11114548 326.79759735 17.10858246 328.057948 17.10594177 329.35649109 C17.10801204 330.76638801 17.11013479 332.17628486 17.11230469 333.58618164 C17.11091071 335.06101536 17.10901192 336.53584868 17.10664368 338.01068115 C17.10213697 341.19514856 17.10029037 344.37960305 17.10018158 347.56407356 C17.0990433 352.60292464 17.0862187 357.64170209 17.07061768 362.68052673 C17.06804482 363.53034451 17.06547197 364.38016229 17.06282115 365.25573212 C17.05755411 366.99405231 17.05226863 368.73237244 17.04696512 370.47069252 C17.01184595 382.20565173 16.98529935 393.94052102 16.98779297 405.67553711 C16.98938327 413.58455708 16.97330218 421.49332741 16.93708634 429.4022674 C16.91864532 433.58778044 16.90926653 437.77287687 16.92156219 441.95842171 C16.9330303 445.90092713 16.9212228 449.84268851 16.89192772 453.78509521 C16.88530658 455.22818598 16.88712066 456.67134527 16.89822578 458.11440849 C16.95463585 466.11163884 16.9075177 472.64362171 11.23828125 478.73828125 C5.01135451 483.44644537 -1.57742027 482.95082067 -9.07421875 482.98828125 C-10.6046582 483.01921875 -10.6046582 483.01921875 -12.16601562 483.05078125 C-19.69326246 483.0897069 -24.67364193 482.34599056 -30.57421875 477.36328125 C-34.24070521 472.9634975 -35.0111732 469.28083684 -35.0267334 463.62120056 C-35.03500656 462.39164139 -35.04327972 461.16208221 -35.05180359 459.89526367 C-35.05097909 458.54077137 -35.04998149 457.18627917 -35.04882812 455.83178711 C-35.05485518 454.39913037 -35.06178015 452.96647717 -35.0695343 451.53382874 C-35.08440283 448.45363771 -35.0931673 445.37351129 -35.09724426 442.29328728 C-35.10396478 437.42320671 -35.12572626 432.55326435 -35.14978027 427.6832428 C-35.20288013 416.46812994 -35.23629231 405.25297452 -35.26953888 394.03778839 C-35.30021974 383.7551784 -35.33504237 373.47262781 -35.38584948 363.19009501 C-35.40920387 358.34823994 -35.42294033 353.50648131 -35.42934418 348.66457546 C-35.43527871 345.65429609 -35.44937115 342.64409509 -35.46568871 339.63385582 C-35.4715688 338.2374549 -35.47403607 336.84103483 -35.47284889 335.44462204 C-35.4716907 333.53919122 -35.48385412 331.63376614 -35.4967041 329.7283783 C-35.50110378 328.12866889 -35.50110378 328.12866889 -35.50559235 326.49664211 C-35.7645044 323.70828111 -36.23318554 322.06619598 -37.76171875 319.73828125 C-40.48939098 318.37444513 -42.94243411 318.73008154 -45.9309082 318.80444336 C-65.11449393 319.25264929 -81.4141616 315.09485092 -96.234375 302.16796875 C-104.99998138 293.74106432 -110.12003971 284.79771588 -114.76171875 273.73828125 C-115.81166016 273.97804688 -115.81166016 273.97804688 -116.8828125 274.22265625 C-127.6230348 276.14627816 -139.50020115 275.11327412 -148.88671875 269.30078125 C-151.37751603 267.93750537 -152.26673337 267.60819977 -155.05078125 268.33984375 C-156.73153546 269.08150989 -158.40191619 269.84702322 -160.0625 270.6328125 C-169.01584819 274.29966856 -179.4820059 273.08371617 -188.35546875 269.76953125 C-199.57632561 264.64395466 -206.90552389 256.59000127 -211.79296875 245.37109375 C-215.76879213 234.14307402 -214.6009783 222.46814108 -209.76171875 211.73828125 C-208.2270383 208.92977255 -206.58728491 206.37521015 -204.76171875 203.73828125 C-205.1484375 203.27679688 -205.53515625 202.8153125 -205.93359375 202.33984375 C-214.77011034 191.27232545 -216.71368015 179.60971876 -215.76171875 165.73828125 C-213.6491175 154.38623118 -208.27196859 143.73837118 -199.21484375 136.375 C-186.27007197 127.73828125 -186.27007197 127.73828125 -179.76171875 127.73828125 C-180.05046875 127.04347656 -180.33921875 126.34867188 -180.63671875 125.6328125 C-185.86152271 111.31902666 -185.90010654 94.77163951 -179.76171875 80.73828125 C-179.37242187 79.81144531 -178.983125 78.88460937 -178.58203125 77.9296875 C-172.16475304 64.5445362 -159.99918617 54.53623428 -146.234375 49.4296875 C-132.86576727 45.37561863 -120.11156998 45.49060131 -106.76171875 49.73828125 C-106.82552734 47.99804688 -106.82552734 47.99804688 -106.890625 46.22265625 C-106.88400094 41.91890884 -106.02936805 38.0667984 -104.69921875 33.98828125 C-104.36422363 32.9506665 -104.36422363 32.9506665 -104.02246094 31.89208984 C-97.75082462 13.41422801 -84.60812996 0.44835975 -67.38671875 -8.13671875 C-45.0969131 -17.49973304 -19.34197665 -14.40622503 0 0 Z " fill="#69BE57" transform="translate(269.76171875,21.26171875)"/>
<path d="M0 0 C3.56107958 0.57008511 5.09075197 1.80375385 7.5 4.4375 C10.68084228 7.90028058 13.01657871 9.75941575 17.76953125 10.3359375 C25.46843192 10.43476806 29.95681644 9.8461839 35.68359375 4.3984375 C37.12745005 2.93726878 38.56425238 1.4691371 40 0 C40.66 0 41.32 0 42 0 C44.0259195 5.51207967 41.15441003 10.86822207 39 16 C37.48779806 18.55878238 35.88869018 20.6916009 34 23 C35.38193918 26.24790781 36.85418609 27.97508798 39.6875 30.0625 C40.33074219 30.54847656 40.97398437 31.03445313 41.63671875 31.53515625 C47.79428397 35.35182891 52.66245294 36.52922558 59.8125 36.4375 C60.60205078 36.43355225 61.39160156 36.42960449 62.20507812 36.42553711 C68.42584631 36.27282926 73.52123126 35.04511923 79 32 C82.22307668 30.38846166 85.50410178 30.5477747 89 31 C91.64072197 32.01659386 93.93656903 33.41179241 96.3125 34.9375 C105.24091982 40.43118233 113.64389703 41.37679807 124 40 C132.69241524 37.67232395 139.9965443 32.47939254 145 25 C145.33 24.34 145.66 23.68 146 23 C145.39671875 22.63648438 144.7934375 22.27296875 144.171875 21.8984375 C139.29737201 18.83221788 135.6024008 16.31323496 133 11 C132.25 7.125 132.25 7.125 132 4 C135.35474101 4.59114379 137.12827765 5.71225441 139.625 8 C144.06785399 12.03543069 146.99454567 12.39079739 152.97265625 12.359375 C157.9336172 11.77046093 161.7531081 9.49817171 166 7 C167.32830058 6.32336141 168.66001914 5.65320251 170 5 C170.39163548 8.8212433 170.32589547 10.52993267 168.1015625 13.73828125 C167.28429687 14.58777344 166.46703125 15.43726563 165.625 16.3125 C164.40683594 17.60607422 164.40683594 17.60607422 163.1640625 18.92578125 C161 21 161 21 159 22 C160.64467326 30.44763995 168.37110049 37.08932751 175 42 C182.27458638 46.40251608 189.72542179 49.14310646 198 51 C193.52681679 67.05083388 182.7997215 79.6033326 168.62109375 88.0234375 C152.76149981 96.94419385 137.03595663 97.98432229 119.30078125 96.12109375 C118.54152344 96.08113281 117.78226563 96.04117188 117 96 C115.72177835 97.05475964 115.72177835 97.05475964 115.87530136 99.45892429 C115.8753429 100.56113788 115.87538445 101.66335146 115.87542725 102.79896545 C115.87286423 104.0593161 115.87030121 105.31966675 115.86766052 106.61820984 C115.86973079 108.02810676 115.87185354 109.43800361 115.87402344 110.84790039 C115.87262946 112.32273411 115.87073067 113.79756743 115.86836243 115.2723999 C115.86385572 118.45686731 115.86200912 121.6413218 115.86190033 124.82579231 C115.86076205 129.86464339 115.84793745 134.90342084 115.83233643 139.94224548 C115.82976357 140.79206326 115.82719072 141.64188104 115.8245399 142.51745087 C115.81927286 144.25577106 115.81398738 145.99409119 115.80868387 147.73241127 C115.7735647 159.46737048 115.7470181 171.20223977 115.74951172 182.93725586 C115.75110202 190.84627583 115.73502093 198.75504616 115.69880509 206.66398615 C115.68036407 210.84949919 115.67098528 215.03459562 115.68328094 219.22014046 C115.69474905 223.16264588 115.68294155 227.10440726 115.65364647 231.04681396 C115.64702533 232.48990473 115.64883941 233.93306402 115.65994453 235.37612724 C115.7163546 243.37335759 115.66923645 249.90534046 110 256 C103.77307326 260.70816412 97.18429848 260.21253942 89.6875 260.25 C88.15706055 260.2809375 88.15706055 260.2809375 86.59570312 260.3125 C79.06845629 260.35142565 74.08807682 259.60770931 68.1875 254.625 C64.52101354 250.22521625 63.75054555 246.54255559 63.73498535 240.88291931 C63.72671219 239.65336014 63.71843903 238.42380096 63.70991516 237.15698242 C63.71073966 235.80249012 63.71173726 234.44799792 63.71289062 233.09350586 C63.70686357 231.66084912 63.6999386 230.22819592 63.69218445 228.79554749 C63.67731592 225.71535646 63.66855145 222.63523004 63.66447449 219.55500603 C63.65775397 214.68492546 63.63599249 209.8149831 63.61193848 204.94496155 C63.55883862 193.72984869 63.52542644 182.51469327 63.49217987 171.29950714 C63.46149901 161.01689715 63.42667638 150.73434656 63.37586927 140.45181376 C63.35251488 135.60995869 63.33877842 130.76820006 63.33237457 125.92629421 C63.32644004 122.91601484 63.3123476 119.90581384 63.29603004 116.89557457 C63.29014995 115.49917365 63.28768268 114.10275358 63.28886986 112.70634079 C63.29002805 110.80090997 63.27786463 108.89548489 63.26501465 106.99009705 C63.26208153 105.92362411 63.25914841 104.85715117 63.2561264 103.75836086 C62.99721435 100.96999986 62.52853321 99.32791473 61 97 C58.27232777 95.63616388 55.81928464 95.99180029 52.83081055 96.06616211 C33.64335678 96.51445841 17.36377311 92.35052012 2.53125 79.4375 C-5.43502108 71.766276 -11.32371209 63.50985839 -15 53 C-15 51.68 -15 50.36 -15 49 C-14.38253906 48.79246094 -13.76507813 48.58492188 -13.12890625 48.37109375 C-1.92374302 44.29493848 7.14982013 37.15600233 12.3203125 26.203125 C13.28314397 23.81961213 14.18112977 21.43626609 15 19 C14.23816406 18.73574219 13.47632813 18.47148437 12.69140625 18.19921875 C6.52378681 15.45109224 2.92249851 8.84499701 0 3 C0 2.01 0 1.02 0 0 Z " fill="#4D4D4D" transform="translate(171,244)"/>
<path d="M0 0 C4.0334816 0.37198474 7.39373244 1.11910304 11 3 C13.30535007 6.13108455 14.87299628 9.2314751 16.46484375 12.7734375 C19.06293666 18.23406025 22.12964484 21.40982418 27.25 24.5625 C28.14203125 25.12066406 29.0340625 25.67882812 29.953125 26.25390625 C33.55433833 28.31767851 37.287546 30.143773 41 32 C41 22.43 41 12.86 41 3 C45.95 4.485 45.95 4.485 51 6 C54.72549158 6.55082221 54.72549158 6.55082221 58.125 6.6875 C60.06375 6.790625 62.0025 6.89375 64 7 C64.33 15.58 64.66 24.16 65 33 C78.84196301 24.08194811 78.84196301 24.08194811 87.6875 10.6875 C89.02087962 7.64404607 89.74831197 7.10101305 92.91015625 5.83203125 C95.93380566 5.07877122 98.91975777 4.46494222 102 4 C101.45614669 8.06707694 100.60337132 11.34017816 98.75 15 C98.35296875 15.804375 97.9559375 16.60875 97.546875 17.4375 C94.16847101 23.03404803 90.1978638 26.89461016 85 30.8125 C83.39571078 32.0341335 81.79189941 33.25641379 80.19297504 34.48506069 C78 36 78 36 74.8257246 37.71257877 C69.89718201 40.47284329 65.79318482 42.81474201 63.80597878 48.28957939 C63.37521716 52.29716817 63.34565499 56.199885 63.46411133 60.21850586 C63.46118564 61.74368353 63.45250325 63.26885929 63.4385376 64.79397583 C63.41671489 68.91295921 63.47415328 73.02741923 63.54581285 77.14569163 C63.60662698 81.45954128 63.59191546 85.77311834 63.58488464 90.08729553 C63.58260859 98.24878701 63.64461963 106.40840997 63.7314536 114.56938988 C63.85606995 126.56520743 63.88117347 138.56132972 63.90924358 150.55769444 C63.91354422 152.32602512 63.91789162 154.0943557 63.92228699 155.86268616 C63.92433582 156.72565656 63.92638466 157.58862696 63.92849559 158.47774798 C63.94282943 163.61475028 63.97492446 168.7512684 64.02296889 173.88806427 C64.05200693 177.07407977 64.07387304 180.26012347 64.09480286 183.44620132 C64.10653139 184.92734206 64.12181011 186.4084594 64.14082909 187.88952446 C64.16649381 189.90480682 64.1791199 191.92024289 64.19099426 193.93565369 C64.20802509 195.62988921 64.20802509 195.62988921 64.22539997 197.35835171 C64 200 64 200 62 202 C60.06054688 202.25878906 60.06054688 202.25878906 57.71875 202.265625 C56.87699219 202.26820313 56.03523438 202.27078125 55.16796875 202.2734375 C54.28753906 202.26570312 53.40710938 202.25796875 52.5 202.25 C51.61957031 202.25773438 50.73914063 202.26546875 49.83203125 202.2734375 C48.99027344 202.27085937 48.14851563 202.26828125 47.28125 202.265625 C46.50845703 202.26336914 45.73566406 202.26111328 44.93945312 202.25878906 C43 202 43 202 41 200 C40.78856659 197.4007597 40.78856659 197.4007597 40.84265137 194.03849792 C40.85750076 192.7671701 40.87235016 191.49584229 40.88764954 190.18598938 C40.91399496 188.76876762 40.94037871 187.35154658 40.96679688 185.93432617 C40.98695867 184.44776846 41.00598984 182.96119505 41.02397156 181.47460938 C41.06338072 178.26664594 41.10727949 175.05878391 41.15351868 171.85091209 C41.22314135 166.76872973 41.26065859 161.68664039 41.28942871 156.6040802 C41.29681021 155.31700528 41.29681021 155.31700528 41.30434084 154.00392884 C41.3191417 151.36004295 41.33346191 148.71615484 41.34765625 146.07226562 C41.40644903 135.12687002 41.48808466 124.1835402 41.67529297 113.23950195 C41.81155765 105.26059257 41.88336232 97.28396359 41.88128519 89.3038519 C41.88261862 85.08295743 41.91568554 80.86787591 42.02720642 76.64833641 C43.14442504 59.82299419 43.14442504 59.82299419 38.24102783 44.34451675 C34.12368114 40.13022517 29.49459398 37.44343027 24.15742493 35.0385685 C13.41300022 29.86628144 5.74684453 20.05078849 1.5625 9.125 C0.37672013 5.72146448 0 3.68560637 0 0 Z " fill="#FDFDFD" transform="translate(208,288)"/>
<path d="M0 0 C12.99648417 2.28641851 22.6813647 8.47989821 30.375 19.4375 C37.44188202 30.8486126 39.92377406 43.1029937 37.3515625 56.3359375 C34.25953423 66.61627082 27.7671265 74.84497133 19 81 C17.27097434 81.78997044 15.51522206 82.52389335 13.73828125 83.19921875 C12.84794189 83.54170654 11.95760254 83.88419434 11.0402832 84.23706055 C10.36698975 84.48883057 9.69369629 84.74060059 9 85 C9.02094727 84.39115967 9.04189453 83.78231934 9.06347656 83.1550293 C9.89547051 67.04559669 9.89547051 67.04559669 5 52 C4.50242187 51.071875 4.00484375 50.14375 3.4921875 49.1875 C-3.90216139 36.53112608 -14.7048032 29.62439092 -28.33984375 24.82421875 C-32.77757413 23.8249006 -36.90490213 23.66949921 -41.4375 23.6875 C-42.24509766 23.67138672 -43.05269531 23.65527344 -43.88476562 23.63867188 C-53.79751242 23.63068417 -60.82977593 27.25382144 -68 34 C-69.9757247 36.36260616 -71.81357607 38.76201434 -73.58984375 41.27734375 C-74.05519531 41.84582031 -74.52054687 42.41429687 -75 43 C-75.66 43 -76.32 43 -77 43 C-75.92724429 36.34891459 -74.0418848 31.96078814 -70.14453125 26.45703125 C-68.60446784 23.15088831 -68.99017969 21.4743157 -70 18 C-71.48614931 15.10636785 -71.48614931 15.10636785 -73.375 12.375 C-74.28378906 10.99441406 -74.28378906 10.99441406 -75.2109375 9.5859375 C-76.75893262 7.34844238 -78.34674286 5.16039123 -80 3 C-75.96779377 3 -75.23495969 3.17906509 -72.06640625 5.22265625 C-71.33486328 5.67833984 -70.60332031 6.13402344 -69.84960938 6.60351562 C-68.3258683 7.57553491 -66.80501761 8.55210021 -65.28710938 9.53320312 C-61.07796573 12.26060897 -61.07796573 12.26060897 -56.25 12.93359375 C-55.13625 12.47146484 -55.13625 12.47146484 -54 12 C-53.23558594 11.690625 -52.47117187 11.38125 -51.68359375 11.0625 C-50.94238281 10.711875 -50.20117188 10.36125 -49.4375 10 C-43.9749351 7.42492608 -39.59963463 6.87955815 -33.56640625 7.0078125 C-32.09831419 7.02532807 -30.63021479 7.04223642 -29.16210938 7.05859375 C-26.8600617 7.08953987 -24.55838465 7.12508279 -22.2565918 7.17138672 C-20.02648363 7.21385588 -17.79680936 7.23719882 -15.56640625 7.2578125 C-14.54118614 7.28574387 -14.54118614 7.28574387 -13.49525452 7.3142395 C-9.13000408 7.33753098 -6.48459348 6.63838616 -3 4 C-1.21655822 1.93045153 -1.21655822 1.93045153 0 0 Z " fill="#4D4D4D" transform="translate(420,166)"/>
<path d="M0 0 C-0.37396384 2.50555771 -0.65453337 3.70087645 -2.6015625 5.38671875 C-3.26929688 5.81597656 -3.93703125 6.24523437 -4.625 6.6875 C-9.43946151 10.12147075 -12.74127129 14.09128208 -16 19 C-16.43699219 19.65355469 -16.87398437 20.30710938 -17.32421875 20.98046875 C-21.77757394 29.05901132 -21.06309148 39.55873294 -19.33984375 48.37890625 C-16.28024091 58.53784729 -10.89970326 67.14425306 -2.50390625 73.66015625 C-2.00761719 74.10230469 -1.51132813 74.54445313 -1 75 C-1 75.66 -1 76.32 -1 77 C-11.77676107 82.12611423 -22.45789828 83.3947358 -34 80 C-45.44519647 75.72528806 -53.75483491 67.99467298 -59 57 C-63.70361387 46.20306816 -63.30288227 34.56900737 -59.22265625 23.64453125 C-57.54076118 20.00669431 -55.53499687 17.0983295 -53 14 C-50.83125748 14.50603992 -49.00032373 14.99983813 -47 16 C-41.75619415 16.94560433 -39.32890382 16.86702871 -34.796875 13.91015625 C-32.51609635 12.15122242 -30.29932723 10.31764987 -28.078125 8.484375 C-19.57550621 1.62185526 -10.71162493 -0.44631771 0 0 Z " fill="#4D4D4D" transform="translate(118,212)"/>
<path d="M0 0 C1.381875 0.474375 2.76375 0.94875 4.1875 1.4375 C10.42999631 3.33622198 16.50137407 3.65432841 23 4 C23.33 12.58 23.66 21.16 24 30 C37.84196301 21.08194811 37.84196301 21.08194811 46.6875 7.6875 C48.02087962 4.64404607 48.74831197 4.10101305 51.91015625 2.83203125 C54.93380566 2.07877122 57.91975777 1.46494222 61 1 C60.45614669 5.06707694 59.60337132 8.34017816 57.75 12 C57.35296875 12.804375 56.9559375 13.60875 56.546875 14.4375 C53.16847101 20.03404803 49.1978638 23.89461016 44 27.8125 C42.39571078 29.0341335 40.79189941 30.25641379 39.19297504 31.48506069 C37 33 37 33 33.8257246 34.71257877 C28.89718201 37.47284329 24.79318482 39.81474201 22.80597878 45.28957939 C22.37521716 49.29716817 22.34565499 53.199885 22.46411133 57.21850586 C22.46118564 58.74368353 22.45250325 60.26885929 22.4385376 61.79397583 C22.41671489 65.91295921 22.47415328 70.02741923 22.54581285 74.14569163 C22.60662698 78.45954128 22.59191546 82.77311834 22.58488464 87.08729553 C22.58260859 95.24878701 22.64461963 103.40840997 22.7314536 111.56938988 C22.85606995 123.56520743 22.88117347 135.56132972 22.90924358 147.55769444 C22.91354422 149.32602512 22.91789162 151.0943557 22.92228699 152.86268616 C22.92433582 153.72565656 22.92638466 154.58862696 22.92849559 155.47774798 C22.94282943 160.61475028 22.97492446 165.7512684 23.02296889 170.88806427 C23.05200693 174.07407977 23.07387304 177.26012347 23.09480286 180.44620132 C23.10653139 181.92734206 23.12181011 183.4084594 23.14082909 184.88952446 C23.16649381 186.90480682 23.1791199 188.92024289 23.19099426 190.93565369 C23.20234815 192.06514403 23.21370203 193.19463438 23.22539997 194.35835171 C23 197 23 197 21 199 C19.02880859 199.22705078 19.02880859 199.22705078 16.6484375 199.1953125 C15.79765625 199.18886719 14.946875 199.18242187 14.0703125 199.17578125 C12.73613281 199.15064453 12.73613281 199.15064453 11.375 199.125 C10.4778125 199.11597656 9.580625 199.10695313 8.65625 199.09765625 C6.43723414 199.0740497 4.21874923 199.0411231 2 199 C2 198.67 2 198.34 2 198 C4.97 198 7.94 198 11 198 C12.7738862 193.41082445 13.25722458 189.58112218 13.2784729 184.67276001 C13.2842653 183.95709535 13.2900577 183.24143069 13.29602563 182.50407922 C13.31296281 180.11807028 13.31589667 177.7322555 13.31884766 175.34619141 C13.32815018 173.63103769 13.33831933 171.91588849 13.34928894 170.20074463 C13.37656645 165.55249741 13.39173171 160.90428046 13.40471697 156.25597429 C13.42035732 151.39525414 13.44714468 146.53459572 13.4727478 141.67391968 C13.51951954 132.47307442 13.55627144 123.27221754 13.58942068 114.07131422 C13.62765337 103.59491543 13.67706055 93.11857867 13.72740483 82.64223218 C13.83070084 61.09486726 13.91996885 39.54746307 14 18 C12.89068115 17.85054932 11.7813623 17.70109863 10.63842773 17.54711914 C6.5386584 16.93062695 3.71760602 15.74499874 0 14 C0 9.38 0 4.76 0 0 Z " fill="#D7D7D7" transform="translate(249,291)"/>
<path d="M0 0 C-0.56008177 3.58607913 -1.70131424 4.93855609 -4.5 7.1875 C-13.28215851 14.62337397 -19.50441815 21.85518713 -25.15234375 31.83984375 C-27 35 -27 35 -29 37 C-31.296875 37.4765625 -31.296875 37.4765625 -34 37 C-35.96118468 35.16361798 -37.56687154 33.43747623 -39.25 31.375 C-45.22907778 24.4512705 -51.69296666 19.83401539 -60 16 C-60 15.34 -60 14.68 -60 14 C-53.2018459 15.13302568 -48.06947348 17.32916335 -42.08984375 20.7578125 C-38.2365098 22.30694043 -35.08924018 22.93927391 -31 22 C-28.64288564 20.16434444 -27.02405703 18.65552773 -25.125 16.4375 C-24.09829803 15.32789156 -23.06568562 14.2237238 -22.02734375 13.125 C-21.52058105 12.58746094 -21.01381836 12.04992187 -20.49169922 11.49609375 C-15.61589857 6.60592904 -7.28941803 0 0 0 Z " fill="#4E514D" transform="translate(268,80)"/>
<path d="M0 0 C0.66 0 1.32 0 2 0 C1.57080483 5.29340706 -0.48557042 9.44954005 -2.73828125 14.16796875 C-4.21424614 17.48089303 -5.22412534 20.81350648 -6.12890625 24.3203125 C-7 26 -7 26 -9.08984375 26.7421875 C-9.72019531 26.82726562 -10.35054687 26.91234375 -11 27 C-20 13.13114754 -20 13.13114754 -20 9 C-19.43796875 9.32742187 -18.8759375 9.65484375 -18.296875 9.9921875 C-15.73140036 11.11785494 -14.03157723 11.2068111 -11.25 11.125 C-10.05117187 11.09792969 -10.05117187 11.09792969 -8.828125 11.0703125 C-7.92320312 11.03550781 -7.92320312 11.03550781 -7 11 C-6.7215625 10.41734375 -6.443125 9.8346875 -6.15625 9.234375 C-5.05900098 7.11401541 -3.86906938 5.20342826 -2.5 3.25 C-2.0771875 2.63640625 -1.654375 2.0228125 -1.21875 1.390625 C-0.8165625 0.93171875 -0.414375 0.4728125 0 0 Z " fill="#4E524D" transform="translate(146,155)"/>
</svg>
