<?xml version="1.0" encoding="UTF-8"?>
<svg version="1.1" xmlns="http://www.w3.org/2000/svg" width="512" height="512">
<path d="M0 0 C4.45358274 2.14726311 7.3072942 4.86477323 10 9 C11.59534791 13.7307982 12.2558639 17.85854495 12.265625 22.83984375 C12.26981445 24.13792969 12.27400391 25.43601562 12.27832031 26.7734375 C12.27016803 28.16146649 12.26069805 29.54948829 12.25 30.9375 C12.24689819 31.64696777 12.24379639 32.35643555 12.24060059 33.08740234 C12.09806076 60.98761487 8.72478702 88.15319922 1 115 C1.44279297 114.55197021 1.88558594 114.10394043 2.34179688 113.64233398 C4.39176683 111.57129904 6.44585433 109.50439303 8.5 107.4375 C9.19609375 106.73302734 9.8921875 106.02855469 10.609375 105.30273438 C14.66102104 101.23233071 18.80384749 97.34431644 23.15576172 93.59692383 C25.76810953 91.33489483 28.28389129 88.98031944 30.8125 86.625 C36.35896509 81.51384256 42.08858942 76.68553399 48 72 C48.63647461 71.49098145 49.27294922 70.98196289 49.92871094 70.45751953 C78.5274896 47.62516127 109.60603988 28.08222686 143 13.0625 C144.18013672 12.53076172 145.36027344 11.99902344 146.57617188 11.45117188 C170.80233243 0.74280175 170.80233243 0.74280175 178.15625 2.23828125 C181.5715183 3.64925015 183.56271901 5.69701773 185 9 C186.11084638 14.37570301 185.20015575 19.30326166 182.4921875 24.046875 C176.67857781 31.65631177 167.18190241 36.68011185 159.3359375 42.0234375 C137.49461918 56.95081469 116.83725556 73.40220084 96.70898438 90.54980469 C94.97358154 92.02241795 93.22968397 93.48445996 91.484375 94.9453125 C83.57825741 101.59611092 76.20603493 108.60065862 69 116 C66.15988649 118.85412723 63.30276804 121.69065548 60.44140625 124.5234375 C59.14839114 125.80724498 57.85542332 127.09110008 56.5625 128.375 C55.91990234 129.00921875 55.27730469 129.6434375 54.61523438 130.296875 C50.52213738 134.36919485 46.70340709 138.56964902 43 143 C43.88816406 142.55011719 44.77632813 142.10023438 45.69140625 141.63671875 C49.27556885 139.82761567 52.87019688 138.04007176 56.46777344 136.2578125 C58.16321989 135.41564704 59.85657159 134.56925185 61.54785156 133.71875 C94.14726051 117.36428728 136.00908799 99.46244761 173.125 98.6875 C174.30320312 98.65011719 175.48140625 98.61273438 176.6953125 98.57421875 C180.66315742 99.08544227 182.2674174 100.11560726 185 103 C185.84577114 108.32835821 185.84577114 108.32835821 185 111 C181.80806634 114.61372489 178.20312846 117.52347609 174.375 120.4375 C173.82215332 120.85870117 173.26930664 121.27990234 172.69970703 121.71386719 C165.35215614 127.28704355 157.90717873 132.73070842 150.47167969 138.18554688 C146.47696263 141.11805746 142.48873912 144.05936661 138.5 147 C136.91669941 148.16671111 135.33336604 149.33337772 133.75 150.5 C132.96625 151.0775 132.1825 151.655 131.375 152.25 C124.25 157.5 124.25 157.5 121.87548828 159.24951172 C120.29036372 160.41758398 118.70540306 161.58587868 117.12060547 162.75439453 C113.19098369 165.65139141 109.25869648 168.5446114 105.3203125 171.4296875 C96.08356209 178.20330447 86.93235716 185.07697687 77.83642578 192.03857422 C72.10139461 196.42045518 66.3224558 200.73510895 60.5 205 C51.07333478 211.90861046 41.77710741 218.98209309 32.49853516 226.08789062 C30.13030641 227.90027753 27.75914891 229.70874282 25.38671875 231.515625 C18.0351526 237.11825953 10.71552404 242.75689832 3.46313477 248.48754883 C1.97769069 249.66124139 0.48898881 250.83080769 -1 252 C-1.70382812 252.59167969 -2.40765625 253.18335938 -3.1328125 253.79296875 C-5.32333414 255.20901726 -6.4848911 255.32159526 -9.0625 255.1875 C-16.4885778 254.83387725 -18.97470835 256.68570562 -24.67578125 261.41796875 C-27.15070777 263.7429006 -27.15070777 263.7429006 -27.54296875 266.42578125 C-27.43223672 267.95800353 -27.28069211 269.48789549 -27.0859375 271.01171875 C-27 273 -27 273 -29 275.5625 C-30.485 276.7690625 -30.485 276.7690625 -32 278 C-33.28129234 279.28129234 -34.55126339 280.57396105 -35.8125 281.875 C-38.21776912 284.32642567 -40.7043057 286.60441582 -43.3203125 288.82421875 C-49.51598336 294.21100836 -55.24329376 300.09463686 -61.03637695 305.90600586 C-63.05764268 307.9326298 -65.08419574 309.95385547 -67.11132812 311.97460938 C-73.28271644 318.14214891 -79.42332032 324.28015235 -85 331 C-85.55131592 331.6499292 -86.10263184 332.2998584 -86.6706543 332.96948242 C-90.28216552 337.23977094 -93.81994267 341.56817485 -97.32666016 345.92480469 C-98.33988798 347.18136093 -99.35880738 348.4333959 -100.38818359 349.67675781 C-122.43650344 376.49344718 -134.55229511 416.07872321 -146.52563477 448.28393555 C-149.0798633 455.13567316 -151.74848927 461.91389036 -154.6640625 468.62109375 C-155.08764038 469.60048164 -155.08764038 469.60048164 -155.51977539 470.59965515 C-160.02377918 480.81121903 -166.21534849 489.0610581 -174 497 C-174.54011719 497.56460937 -175.08023438 498.12921875 -175.63671875 498.7109375 C-187.27356206 509.7908538 -202.33880049 512.6044904 -217.75 512.3125 C-233.68163406 511.62971568 -247.31846975 503.47455295 -258 492 C-266.06248515 481.86778292 -271.20607091 470.75245247 -271.0625 457.6875 C-271.05347656 456.61886719 -271.04445313 455.55023438 -271.03515625 454.44921875 C-271.02355469 453.64097656 -271.01195312 452.83273437 -271 452 C-271.88945312 451.74347656 -272.77890625 451.48695313 -273.6953125 451.22265625 C-285.68992414 446.7849335 -294.60616739 434.97441535 -299.81640625 423.77734375 C-305.14068684 411.28373483 -304.85572332 398.60025423 -300.375 385.875 C-295.68861011 375.16813843 -287.02095224 368.01228317 -278 361 C-277.00097656 360.22140625 -276.00195312 359.4428125 -274.97265625 358.640625 C-272.85211396 357.00409047 -270.72815532 355.37341537 -268.59765625 353.75 C-264.48110312 350.6109407 -260.39679161 347.43085787 -256.3125 344.25 C-255.17047119 343.36103027 -255.17047119 343.36103027 -254.00537109 342.45410156 C-252.44701691 341.24099583 -250.88874925 340.02777893 -249.33056641 338.81445312 C-246.30051543 336.45541909 -243.26939875 334.0977582 -240.23779297 331.74072266 C-238.74529974 330.57974985 -237.25343785 329.41796497 -235.76220703 328.25537109 C-231.96324945 325.29511218 -228.15415541 322.34978495 -224.32421875 319.4296875 C-215.09846578 312.37265333 -206.34863159 305.07703538 -198 297 C-197.24332031 296.28328125 -196.48664063 295.5665625 -195.70703125 294.828125 C-187.49164451 286.8828767 -181.11917711 278.16535138 -175.8125 268.0625 C-175.26424561 267.03108887 -174.71599121 265.99967773 -174.15112305 264.93701172 C-158.24760202 234.74320616 -144.49693087 203.36864158 -136.03027344 170.20117188 C-135.70833008 168.95400391 -135.38638672 167.70683594 -135.0546875 166.421875 C-134.77866699 165.2884668 -134.50264648 164.15505859 -134.21826172 162.98730469 C-132.75282252 159.39389507 -131.29320824 158.00818845 -128 156 C-126.68 156 -125.36 156 -124 156 C-123.86722656 155.19175781 -123.73445312 154.38351563 -123.59765625 153.55078125 C-123.42105469 152.48214844 -123.24445313 151.41351563 -123.0625 150.3125 C-122.88847656 149.25675781 -122.71445313 148.20101562 -122.53515625 147.11328125 C-122 144 -122 144 -121.28125 141.25 C-121.1884375 140.5075 -121.095625 139.765 -121 139 C-122.2065625 137.8553125 -122.2065625 137.8553125 -123.4375 136.6875 C-126 134 -126 134 -126.30078125 130.78125 C-126.1017756 124.80366 -125.01649952 118.90555852 -124.09173584 113.00653076 C-121.401826 95.73662739 -119.7447708 78.44411805 -118.43261719 61.01879883 C-118.32117874 59.62122597 -118.32117874 59.62122597 -118.20748901 58.19541931 C-118.06926118 56.45989096 -117.93999961 54.72361198 -117.822052 52.98658752 C-117.1299683 44.44636186 -115.23917312 37.09407607 -109 31 C-104.14623235 27.69061297 -99.69912999 27.27989332 -94 28 C-87.36225181 30.12407942 -82.8760138 35.36994233 -79.73828125 41.44140625 C-74.68608332 54.04372896 -74.49153735 68.8772312 -73.375 82.3125 C-73.30896576 83.09628021 -73.24293152 83.88006042 -73.17489624 84.68759155 C-71.7641807 101.79934026 -71.67765031 118.84273113 -72 136 C-51.45307923 98.85700801 -34.76479266 59.90104805 -25.07739258 18.43334961 C-23.19026231 10.67467883 -20.69834302 5.75934899 -14 1 C-9.81634937 -1.09182531 -4.55592381 -0.42935408 0 0 Z " fill="#010101" transform="translate(315,0)"/>
<path d="M0 0 C-1.02996094 0.71542969 -2.05992187 1.43085938 -3.12109375 2.16796875 C-13.63269689 9.50677502 -23.88414537 17.12610392 -34 25 C-34.95398682 25.7412915 -34.95398682 25.7412915 -35.92724609 26.49755859 C-52.67063793 39.52506551 -68.91183024 53.05713821 -84.42089844 67.53417969 C-86.50643627 69.47010566 -88.6129944 71.38234475 -90.71948242 73.29541016 C-98.26218082 80.15590884 -105.55235942 87.16905269 -112.1953125 94.9140625 C-114.21651276 97.25025501 -116.29378839 99.52964851 -118.375 101.8125 C-126.50377129 110.8337884 -133.95630826 120.41344819 -141.42431641 129.98144531 C-142.54033584 131.41113986 -143.65729164 132.84010371 -144.77490234 134.26855469 C-146.64331532 136.65686963 -148.50946402 139.04693734 -150.375 141.4375 C-150.95789795 142.18265869 -151.5407959 142.92781738 -152.14135742 143.69555664 C-153.77186842 145.78884053 -155.38708099 147.89314842 -157 150 C-157.49943115 150.63252686 -157.9988623 151.26505371 -158.51342773 151.91674805 C-161.10464917 155.3123154 -162.64544201 157.6092539 -162.3125 161.9375 C-162.26738281 162.70964844 -162.22226562 163.48179687 -162.17578125 164.27734375 C-162.08876953 165.13005859 -162.08876953 165.13005859 -162 166 C-158.8895553 167.02930175 -156.26428832 167.41047937 -153 167 C-150.27068998 165.19902672 -148.15515896 163.09401183 -145.8359375 160.7890625 C-135.19199135 150.32104935 -122.59073633 141.92196095 -110 134 C-109.27393555 133.54270508 -108.54787109 133.08541016 -107.79980469 132.61425781 C-80.39228455 115.58112785 -49.73965718 103.55851526 -18.9375 94.25 C-17.79531006 93.90219482 -16.65312012 93.55438965 -15.47631836 93.19604492 C-14.42065674 92.88900635 -13.36499512 92.58196777 -12.27734375 92.265625 C-11.35171631 91.99524414 -10.42608887 91.72486328 -9.47241211 91.44628906 C-6.91499033 90.98465511 -5.43104078 91.1570781 -3 92 C-11.95261269 98.76934611 -20.96068169 105.44882227 -30.07373047 112.00073242 C-35.57803041 115.96197366 -41.04665364 119.9689506 -46.5 124 C-52.64009722 128.5375976 -58.80354778 133.0396666 -65 137.5 C-72.77764097 143.10041179 -80.50347043 148.76832848 -88.2109375 154.46484375 C-91.39736442 156.81988755 -94.59020451 159.16577728 -97.7890625 161.50390625 C-107.99784979 168.97464069 -118.03820737 176.63108255 -127.99414062 184.43505859 C-130.85430562 186.66651643 -133.74001023 188.86322824 -136.625 191.0625 C-142.29710733 195.41015587 -147.84404454 199.90104854 -153.35791016 204.44750977 C-156.47372217 207.00457242 -159.60502102 209.45820108 -162.9140625 211.76171875 C-166.01753358 213.65052238 -166.01753358 213.65052238 -167 216 C-166.83951172 217.00546875 -166.83951172 217.00546875 -166.67578125 218.03125 C-166.2328249 221.04144799 -166.21747164 223.03786383 -167 226 C-168.88999468 228.18211132 -170.55480169 229.87980388 -172.75 231.6875 C-173.28794189 232.13351562 -173.82588379 232.57953125 -174.38012695 233.0390625 C-178.34060938 236.05749135 -178.34060938 236.05749135 -181.1953125 235.80859375 C-181.79085937 235.54175781 -182.38640625 235.27492188 -183 235 C-186.24210519 234.16212879 -186.24210519 234.16212879 -190 235 C-193.65840666 237.66233627 -196.77930967 240.83258425 -200 244 C-201.61840945 245.44491595 -203.24336884 246.88253112 -204.875 248.3125 C-209.3510854 252.32895578 -213.60349716 256.53646021 -217.80224609 260.83911133 C-220.71476182 263.80361858 -223.75695568 266.40988141 -227 269 C-228.11811528 270.1976143 -229.20344229 271.42687366 -230.25 272.6875 C-232.83272322 275.71744802 -235.52036891 278.53744051 -238.375 281.3125 C-242.43570093 285.32518589 -246.03590497 289.57730586 -249.6015625 294.03125 C-252.26036129 297.32227131 -254.99950397 300.53577635 -257.75 303.75 C-261.39619535 308.02530347 -264.85664913 312.3391694 -268 317 C-272.19861361 315.28332547 -275.26585435 312.33439912 -278.625 309.375 C-284.30658977 304.43176332 -290.07053679 299.64520159 -296 295 C-294.69582416 292.19749916 -293.25272543 289.90477838 -291.27734375 287.53125 C-290.74375244 286.88430176 -290.21016113 286.23735352 -289.66040039 285.57080078 C-288.8075647 284.54575439 -288.8075647 284.54575439 -287.9375 283.5 C-283.28677022 277.84527285 -278.78250319 272.12423649 -274.42578125 266.23828125 C-271.43157176 262.21325742 -268.33657971 258.26682655 -265.25 254.3125 C-258.93699172 246.22062703 -252.69257513 238.07850049 -246.46679688 229.91943359 C-244.3180706 227.107635 -242.15933942 224.30365845 -240 221.5 C-234.54091682 214.40936531 -229.106922 207.29963842 -223.67333984 200.18945312 C-220.94966736 196.62571008 -218.22478337 193.06289369 -215.5 189.5 C-214.41666062 188.08333796 -213.33332729 186.66667128 -212.25 185.25 C-210.08333333 182.41666667 -207.91666667 179.58333333 -205.75 176.75 C-204.9453833 175.6976416 -204.9453833 175.6976416 -204.12451172 174.62402344 C-203.04324106 173.21027912 -201.96153663 171.79686645 -200.87939453 170.38378906 C-198.13581385 166.80003327 -195.40047948 163.2104702 -192.6796875 159.609375 C-186.46902469 151.4050757 -180.11832784 143.3898873 -173.38574219 135.60791016 C-171.93760911 133.92760634 -170.50283569 132.23659455 -169.0703125 130.54296875 C-162.75241081 123.08881309 -156.25917445 115.83219142 -149.58154297 108.69921875 C-147.92957372 106.92433361 -146.29388544 105.13542992 -144.66015625 103.34375 C-137.05870448 95.04342556 -129.12976719 87.24325231 -120.81396484 79.66113281 C-119.04794388 78.04390447 -117.29703888 76.41196331 -115.55078125 74.7734375 C-108.91692771 68.55966967 -102.1255717 62.65165208 -95 57 C-93.94519216 56.15249351 -92.89050975 55.30483088 -91.8359375 54.45703125 C-70.57614838 37.4572729 -48.06199773 22.65809695 -24.0625 9.8125 C-23.17694427 9.33807465 -23.17694427 9.33807465 -22.27349854 8.85406494 C-2.93483431 -1.46741715 -2.93483431 -1.46741715 0 0 Z " fill="#A5E6A4" transform="translate(467,28)"/>
<path d="M0 0 C5.62079609 4.07783246 10.91739394 8.43673216 16.19091797 12.94580078 C20.33878114 16.47799403 24.58854182 19.79953034 29 23 C27.67453182 27.47617123 25.84270644 31.50277589 23.77832031 35.66796875 C18.03097965 47.27148538 12.82312284 59.09015794 7.75 71 C7.3902005 71.84435608 7.030401 72.68871216 6.65969849 73.55865479 C2.54359109 83.25142752 -1.431193 92.98698819 -5.1796875 102.828125 C-5.68242187 104.14762146 -5.68242187 104.14762146 -6.1953125 105.49377441 C-7.7891454 109.69160777 -9.36460631 113.89532325 -10.91503906 118.109375 C-16.90808235 134.23858634 -24.62385864 150.31354148 -40.44140625 158.8515625 C-50.53203985 163.38079346 -61.12971164 164.92105102 -71.75 161.3125 C-84.32677306 156.16252827 -94.31155595 148.02188942 -99.64453125 135.296875 C-101.28854143 130.72923297 -101.49917226 126.44611986 -101.4375 121.625 C-101.42920166 120.78646484 -101.42090332 119.94792969 -101.41235352 119.08398438 C-101.23701228 112.65938162 -100.26540751 107.60904834 -97 102 C-96.34064453 100.73929688 -96.34064453 100.73929688 -95.66796875 99.453125 C-88.89438931 87.58649975 -78.0611218 78.39953261 -67.45703125 70.015625 C-64.47351957 67.5681019 -61.79855456 64.91416757 -59.14453125 62.1171875 C-57.2711264 60.26766941 -55.35403939 58.5628737 -53.359375 56.84765625 C-48.50402126 52.63097302 -43.97220428 48.11891875 -39.4375 43.5625 C-38.62603516 42.75490234 -37.81457031 41.94730469 -36.97851562 41.11523438 C-32.68676328 36.81655426 -28.55336209 32.44370717 -24.59301758 27.83813477 C-22.17791163 25.05141711 -19.64770341 22.37642806 -17.125 19.6875 C-12.44514058 14.66555424 -8.02974849 9.50790883 -3.7421875 4.14453125 C-2 2 -2 2 0 0 Z " fill="#FEE4C0" transform="translate(161,334)"/>
<path d="M0 0 C0.99 0.33 1.98 0.66 3 1 C3.4150256 23.40659345 3.81982934 45.32537594 -0.50048828 67.41748047 C-0.93448465 69.66127986 -1.31034655 71.90095308 -1.65234375 74.16015625 C-6.77092418 104.90509361 -22.67047305 137.63764594 -43.328125 160.9453125 C-46.40866496 164.42255508 -49.21851646 168.08981638 -52.02856445 171.7878418 C-52.44323975 172.33351807 -52.85791504 172.87919434 -53.28515625 173.44140625 C-53.71715332 174.01004395 -54.14915039 174.57868164 -54.59423828 175.16455078 C-56.13125452 177.17137399 -57.68656041 179.16297114 -59.24609375 181.15234375 C-65.83983061 189.56468929 -72.29779406 198.05526608 -78.60839844 206.68212891 C-83.66090442 213.57637292 -88.83808261 220.37038105 -94.03417969 227.15673828 C-98.46382692 232.95338877 -102.81779819 238.79943445 -107.125 244.6875 C-112.79534977 252.43154558 -118.63507477 260.02744623 -124.5546875 267.58203125 C-127.42067902 271.24341229 -130.2390372 274.9385151 -133.0456543 278.64550781 C-138.31178895 285.59602248 -143.72570425 292.3604747 -149.41015625 298.97265625 C-153.3540881 303.582833 -157.17675273 308.28938176 -161 313 C-166.00150944 310.38756109 -169.76718696 306.67199962 -173.8125 302.8125 C-174.50537109 302.15830078 -175.19824219 301.50410156 -175.91210938 300.83007812 C-177.61192944 299.22404124 -179.30771031 297.61396358 -181 296 C-179.37915347 292.55598213 -177.57463755 290.39328482 -174.8125 287.75 C-172.03582383 285.03483248 -169.33776739 282.32543996 -166.8125 279.375 C-163.32387012 275.30629349 -159.66673507 271.40733323 -156 267.5 C-151.23455208 262.41293846 -146.52498405 257.30347593 -142 252 C-141.11353572 250.96722944 -140.22678965 249.93470072 -139.33984375 248.90234375 C-137.28349779 246.50772736 -135.23066532 244.11015261 -133.1796875 241.7109375 C-131.11029302 239.2917862 -129.03222693 236.88061267 -126.9453125 234.4765625 C-121.02995878 227.64894299 -115.32405139 220.70260113 -109.78515625 213.56640625 C-107.38479096 210.47705512 -104.93259602 207.43277252 -102.46923828 204.39355469 C-96.84001326 197.43463386 -91.5142419 190.32735511 -86.39404297 182.98730469 C-84.85025111 180.7865226 -83.28709439 178.60021242 -81.72265625 176.4140625 C-47.42622433 128.27922402 -19.15407205 73.44908279 -5.24291992 15.79052734 C-3.9031003 10.25034134 -2.46051764 5.14872497 0 0 Z " fill="#3AC1A2" transform="translate(308,15)"/>
<path d="M0 0 C-8.95261269 6.76934611 -17.96068169 13.44882227 -27.07373047 20.00073242 C-32.57803041 23.96197366 -38.04665364 27.9689506 -43.5 32 C-49.64009722 36.5375976 -55.80354778 41.0396666 -62 45.5 C-69.77764097 51.10041179 -77.50347043 56.76832848 -85.2109375 62.46484375 C-88.39736442 64.81988755 -91.59020451 67.16577728 -94.7890625 69.50390625 C-104.99784979 76.97464069 -115.03820737 84.63108255 -124.99414062 92.43505859 C-127.85430562 94.66651643 -130.74001023 96.86322824 -133.625 99.0625 C-139.29710733 103.41015587 -144.84404454 107.90104854 -150.35791016 112.44750977 C-153.47372217 115.00457242 -156.60502102 117.45820108 -159.9140625 119.76171875 C-163.01753358 121.65052238 -163.01753358 121.65052238 -164 124 C-163.83951172 125.00546875 -163.83951172 125.00546875 -163.67578125 126.03125 C-163.2328249 129.04144799 -163.21747164 131.03786383 -164 134 C-165.88999468 136.18211132 -167.55480169 137.87980388 -169.75 139.6875 C-170.28794189 140.13351562 -170.82588379 140.57953125 -171.38012695 141.0390625 C-175.34060938 144.05749135 -175.34060938 144.05749135 -178.1953125 143.80859375 C-178.79085937 143.54175781 -179.38640625 143.27492188 -180 143 C-183.24210519 142.16212879 -183.24210519 142.16212879 -187 143 C-190.65840666 145.66233627 -193.77930967 148.83258425 -197 152 C-198.61840945 153.44491595 -200.24336884 154.88253112 -201.875 156.3125 C-206.3510854 160.32895578 -210.60349716 164.53646021 -214.80224609 168.83911133 C-217.71476182 171.80361858 -220.75695568 174.40988141 -224 177 C-225.11811528 178.1976143 -226.20344229 179.42687366 -227.25 180.6875 C-229.83272322 183.71744802 -232.52036891 186.53744051 -235.375 189.3125 C-239.43570093 193.32518589 -243.03590497 197.57730586 -246.6015625 202.03125 C-249.26036129 205.32227131 -251.99950397 208.53577635 -254.75 211.75 C-258.39619535 216.02530347 -261.85664913 220.3391694 -265 225 C-268.75730247 223.3718356 -271.616823 220.98598083 -274.75 218.375 C-276.22726562 217.14910156 -276.22726562 217.14910156 -277.734375 215.8984375 C-278.48203125 215.27195312 -279.2296875 214.64546875 -280 214 C-275.88249515 208.15849921 -271.27490009 202.89978018 -266.43359375 197.6484375 C-264.4604874 195.50114039 -262.52974755 193.33245804 -260.625 191.125 C-251.70079965 180.92010575 -242.32158905 171.21854432 -232.75 161.625 C-232.23075958 161.10317139 -231.71151917 160.58134277 -231.17654419 160.04370117 C-225.85995379 154.70624495 -220.52097401 149.44803132 -214.79248047 144.54736328 C-211.83911486 141.99786297 -209.02497618 139.30183339 -206.1875 136.625 C-201.14568357 131.90252568 -195.97635433 127.4334785 -190.58203125 123.11328125 C-187.95578232 120.96380974 -185.44366547 118.72539912 -182.9375 116.4375 C-178.12509075 112.0632693 -173.11800125 108.00922336 -168 104 C-166.51306641 102.82050781 -166.51306641 102.82050781 -164.99609375 101.6171875 C-161.34610206 98.72497002 -157.6765243 95.85839199 -154 93 C-153.21657227 92.3905957 -152.43314453 91.78119141 -151.62597656 91.15332031 C-140.2899922 82.36080633 -128.81195813 73.8932586 -116.88134766 65.92578125 C-114.11883389 64.07942397 -111.36220708 62.22460429 -108.60667419 60.36785889 C-105.97896972 58.59858682 -103.34847114 56.83350185 -100.71725464 55.06945801 C-99.43287269 54.20800977 -98.14909236 53.34566367 -96.86599731 52.4822998 C-88.30847937 46.72966513 -79.62605092 41.25921254 -70.74133301 36.02581787 C-69.11914592 35.07018876 -67.50035202 34.10880613 -65.88183594 33.14697266 C-52.78637067 25.38742085 -39.52046979 18.04958445 -26 11.0625 C-25.31180176 10.70558075 -24.62360352 10.3486615 -23.91455078 9.98092651 C-21.96654694 8.97284387 -20.01535099 7.97131103 -18.0625 6.97265625 C-16.93972656 6.39781494 -15.81695312 5.82297363 -14.66015625 5.23071289 C-12 4 -12 4 -10 4 C-10.33 3.01 -10.66 2.02 -11 1 C-4.03571429 -1.27678571 -4.03571429 -1.27678571 0 0 Z " fill="#7ED9AC" transform="translate(464,120)"/>
<path d="M0 0 C2.21568724 1.4137129 3.85640526 2.74169092 5.6328125 4.66796875 C8.77409398 7.97458084 12.10137287 10.90731412 15.62109375 13.8046875 C17.4262033 15.58489899 18.24784625 17.20634815 19.3203125 19.48046875 C18.7329834 20.10538208 18.7329834 20.10538208 18.13378906 20.74291992 C16.2787137 22.71738936 14.42440602 24.6925773 12.5703125 26.66796875 C11.8887207 27.39395264 11.20712891 28.11993652 10.50488281 28.86791992 C6.82538461 32.79188735 3.16332784 36.73011767 -0.46875 40.69799805 C-8.11968146 49.05086156 -15.90321619 57.25304016 -24.53125 64.61328125 C-27.24047699 66.9678458 -29.86173083 69.41394452 -32.4921875 71.85546875 C-36.35574211 75.4376936 -40.29899138 78.82841163 -44.4296875 82.10546875 C-55.53166484 91.12084776 -63.27473043 102.27574286 -68.6796875 115.48046875 C-78.96040954 110.55428944 -84.82081504 102.05907974 -88.75390625 91.6328125 C-90.8644325 84.44633705 -90.79344075 76.91622317 -87.5546875 70.10546875 C-86.64160349 68.53657854 -85.68536659 66.99167637 -84.6796875 65.48046875 C-84.28007813 64.87976563 -83.88046875 64.2790625 -83.46875 63.66015625 C-79.1822412 58.07470539 -73.2472586 54.14235565 -67.65429688 49.96826172 C-63.96048802 47.18511741 -60.32473925 44.32696741 -56.6796875 41.48046875 C-51.52472763 37.46503197 -46.36283893 33.45945369 -41.1796875 29.48046875 C-36.80149947 26.11815284 -32.43309028 22.74374235 -28.07495117 19.35546875 C-26.52865536 18.15403493 -24.98065766 16.9547881 -23.4309082 15.7578125 C-19.76611207 12.9200469 -16.14158757 10.05344536 -12.59375 7.0703125 C-11.96202881 6.54751709 -11.33030762 6.02472168 -10.67944336 5.48608398 C-9.5010139 4.5070493 -8.33430771 3.51366822 -7.18188477 2.50415039 C-3.35264315 -0.65000224 -3.35264315 -0.65000224 0 0 Z " fill="#FDE3BF" transform="translate(116.6796875,321.51953125)"/>
<path d="M0 0 C2.45702509 0.36579871 3.66168636 0.56656049 5.22113037 2.56448364 C7.4927357 7.33505921 8.76152724 11.77553404 9.265625 17.0546875 C9.34897598 17.81759598 9.43232697 18.58050446 9.51820374 19.36653137 C9.78227332 21.86778425 10.01850924 24.37053426 10.25 26.875 C10.33438324 27.73872223 10.41876648 28.60244446 10.50570679 29.49234009 C11.85974771 43.55823885 12.3535946 57.56012636 12.3125 71.6875 C12.30881409 73.00581818 12.30881409 73.00581818 12.30505371 74.35076904 C12.23859067 87.58033023 12.05427888 100.72874466 9.125 113.6875 C8.94066406 114.50782715 8.75632813 115.3281543 8.56640625 116.17333984 C8.20427879 117.76524458 7.83768956 119.35614351 7.46582031 120.94580078 C7.09797744 122.56793388 6.78497284 124.20249806 6.4921875 125.83984375 C4.5087089 135.04885154 -2.45446366 142.64318776 -8 150 C-8.54575684 150.72735352 -9.09151367 151.45470703 -9.65380859 152.20410156 C-13.39087207 157.17126785 -17.18198873 162.09487469 -21 167 C-21.49419434 167.63599121 -21.98838867 168.27198242 -22.49755859 168.92724609 C-28.55386841 176.71101999 -34.71660942 184.39787312 -41 192 C-42 190 -42 190 -41.33837891 187.92236328 C-40.97147949 187.06368652 -40.60458008 186.20500977 -40.2265625 185.3203125 C-39.61385498 183.85331909 -39.61385498 183.85331909 -38.98876953 182.35668945 C-38.53872559 181.29023193 -38.08868164 180.22377441 -37.625 179.125 C-33.72066288 169.63581147 -30.23521073 160.09104495 -27.125 150.3125 C-26.59060303 148.63341553 -26.59060303 148.63341553 -26.04541016 146.92041016 C-25.00976033 143.61948955 -23.99997978 140.31189062 -23 137 C-22.62198242 135.76813965 -22.24396484 134.5362793 -21.85449219 133.26708984 C-21.48743164 132.03812988 -21.12037109 130.80916992 -20.7421875 129.54296875 C-20.24114502 127.87850708 -20.24114502 127.87850708 -19.72998047 126.18041992 C-18.98962992 122.95481905 -18.67279286 120.29374666 -19 117 C-19.845625 116.38125 -20.69125 115.7625 -21.5625 115.125 C-22.7690625 114.073125 -22.7690625 114.073125 -24 113 C-23.94887847 110.0349512 -23.62158012 107.84567148 -23 105 C-22.87625 103.71222656 -22.87625 103.71222656 -22.75 102.3984375 C-22.43241077 99.70686877 -22.06368214 97.49676017 -21 95 C-19.00188736 93.53641431 -17.22994917 92.76062722 -14.875 92.01171875 C-12.84528197 91.12865933 -12.84528197 91.12865933 -11.87109375 89.0390625 C-10.60894659 84.63569709 -9.8117554 80.20387605 -9.0625 75.6875 C-8.89065186 74.66092285 -8.71880371 73.6343457 -8.54174805 72.57666016 C-6.46735024 59.53731317 -5.4057114 46.38980614 -4.32543945 33.23779297 C-4.0125881 30.12523881 -3.51654532 27.08393945 -3 24 C-2.8886714 22.56447176 -2.80420887 21.1264597 -2.75390625 19.6875 C-2.72103516 18.92179687 -2.68816406 18.15609375 -2.65429688 17.3671875 C-2.59310464 15.78920893 -2.53581192 14.21107431 -2.48242188 12.6328125 C-2.27932515 8.08038027 -1.69864266 4.29130778 0 0 Z " fill="#3AC0A1" transform="translate(215,44)"/>
<path d="M0 0 C3.52238047 1.56367357 6.27123994 3.69495889 9.25 6.125 C10.14203125 6.84945313 11.0340625 7.57390625 11.953125 8.3203125 C12.62859375 8.87460937 13.3040625 9.42890625 14 10 C12.67453182 14.47617123 10.84270644 18.50277589 8.77832031 22.66796875 C3.03097965 34.27148538 -2.17687716 46.09015794 -7.25 58 C-7.6097995 58.84435608 -7.969599 59.68871216 -8.34030151 60.55865479 C-12.45640891 70.25142752 -16.431193 79.98698819 -20.1796875 89.828125 C-20.68242187 91.14762146 -20.68242187 91.14762146 -21.1953125 92.49377441 C-22.7891454 96.69160777 -24.36460631 100.89532325 -25.91503906 105.109375 C-31.90808235 121.23858634 -39.62385864 137.31354148 -55.44140625 145.8515625 C-65.56893872 150.3973557 -76.17345563 151.93218635 -86.8125 148.25 C-91.11043129 146.50591194 -95.06468651 144.44863951 -99 142 C-99 141.67 -99 141.34 -99 141 C-97.81857422 140.96132813 -97.81857422 140.96132813 -96.61328125 140.921875 C-84.29884264 140.28064979 -73.80816648 137.65657265 -64 130 C-63.40960938 129.58363281 -62.81921875 129.16726563 -62.2109375 128.73828125 C-48.43498265 118.26478133 -42.33002916 99.81233567 -36.6875 84.1875 C-9.78403968 9.78403968 -9.78403968 9.78403968 0 0 Z " fill="#FCCFA1" transform="translate(176,347)"/>
<path d="M0 0 C5.48223702 10.96447405 -5.34672173 37.73092384 -8.95214844 48.95214844 C-17.24903205 73.08502238 -29.37585546 95.80848812 -45.67089844 115.3984375 C-53.35819709 124.66160414 -60.85376775 134.04921427 -68.12402344 143.64306641 C-72.34080966 149.1882036 -76.70654433 154.59547591 -81.125 159.98046875 C-85.01927091 164.74533388 -88.78352491 169.59552633 -92.5 174.5 C-97.30115792 180.8337963 -102.23097721 187.04194359 -107.265625 193.19140625 C-110.72770415 197.42283632 -114.13633196 201.68999386 -117.5 206 C-123.55826842 213.7549389 -129.77264467 221.38059943 -136 229 C-136.82757813 230.01320313 -137.65515625 231.02640625 -138.5078125 232.0703125 C-140.67020637 234.71491267 -142.83505235 237.35749036 -145 240 C-145.78375 240.9590625 -146.5675 241.918125 -147.375 242.90625 C-151.22886899 247.62216863 -155.08864889 252.33161319 -159 257 C-162.35250701 256.42424336 -163.93818629 255.40693737 -166.25 252.9375 C-166.77078125 252.38964844 -167.2915625 251.84179688 -167.828125 251.27734375 C-168.21484375 250.85582031 -168.6015625 250.43429687 -169 250 C-167.5158627 246.51345524 -165.53785948 244.35808928 -162.8125 241.75 C-160.03582383 239.03483248 -157.33776739 236.32543996 -154.8125 233.375 C-151.32387012 229.30629349 -147.66673507 225.40733323 -144 221.5 C-139.23455208 216.41293846 -134.52498405 211.30347593 -130 206 C-129.11353572 204.96722944 -128.22678965 203.93470072 -127.33984375 202.90234375 C-125.28349779 200.50772736 -123.23066532 198.11015261 -121.1796875 195.7109375 C-119.11029302 193.2917862 -117.03222693 190.88061267 -114.9453125 188.4765625 C-109.02995878 181.64894299 -103.32405139 174.70260113 -97.78515625 167.56640625 C-95.38479096 164.47705512 -92.93259602 161.43277252 -90.46923828 158.39355469 C-84.84001326 151.43463386 -79.5142419 144.32735511 -74.39404297 136.98730469 C-72.85025111 134.7865226 -71.28709439 132.60021242 -69.72265625 130.4140625 C-43.95700945 94.25213027 -21.0332294 54.26720264 -6.65234375 12.09960938 C-6.43235718 11.45856262 -6.21237061 10.81751587 -5.98571777 10.15704346 C-5.3779237 8.36631036 -4.78518458 6.570488 -4.19335938 4.77441406 C-3 2 -3 2 0 0 Z " fill="#7CD7AB" transform="translate(296,61)"/>
<path d="M0 0 C3.62613199 0.56959153 5.25517741 1.92374534 7.75 4.5625 C8.36359375 5.20316406 8.9771875 5.84382813 9.609375 6.50390625 C10.06828125 6.99761719 10.5271875 7.49132812 11 8 C9.37702776 11.95363586 6.64766259 14.75882376 3.75 17.8125 C3.22422363 18.37364502 2.69844727 18.93479004 2.15673828 19.51293945 C1.02775782 20.71759372 -0.10299861 21.92058558 -1.23535156 23.12207031 C-3.01743125 25.01855024 -4.78757048 26.92551455 -6.5546875 28.8359375 C-23.47471005 47.10928424 -23.47471005 47.10928424 -32.81640625 55.09765625 C-35.53522629 57.46628837 -38.16981533 59.92239728 -40.8125 62.375 C-44.67607841 65.95720248 -48.61930084 69.34794047 -52.75 72.625 C-63.85197734 81.64037901 -71.59504293 92.79527411 -77 106 C-82.31427203 103.29076328 -85.42148591 100.77135213 -89 96 C-88.34 96 -87.68 96 -87 96 C-86.8865625 95.28070313 -86.773125 94.56140625 -86.65625 93.8203125 C-82.87435469 77.56716719 -67.77569067 65.44626807 -55.4375 55.5 C-51.03234369 51.93864828 -47.04004098 48.14808249 -43.08984375 44.09375 C-41.24747827 42.24794084 -39.36730355 40.55453331 -37.375 38.875 C-28.59548913 31.33203996 -20.23071172 22.89203015 -12.76171875 14.05078125 C-10.26114959 11.13991915 -7.66024836 8.32408602 -5.0625 5.5 C-4.56459961 4.95835205 -4.06669922 4.4167041 -3.55371094 3.85864258 C-2.36988661 2.57174175 -1.18505185 1.28577054 0 0 Z " fill="#FBCEA1" transform="translate(125,331)"/>
<path d="M0 0 C-2.31 1.65 -4.62 3.3 -7 5 C-7.33 4.34 -7.66 3.68 -8 3 C-8.99 2.67 -9.98 2.34 -11 2 C-6.66933603 -0.88710931 -5.11954894 -1.27988724 0 0 Z " fill="#80C695" transform="translate(464,120)"/>
<path d="M0 0 C0.66 0.33 1.32 0.66 2 1 C0.92892883 1.86949317 -0.15745944 2.72014205 -1.25 3.5625 C-1.85328125 4.03816406 -2.4565625 4.51382812 -3.078125 5.00390625 C-5 6 -5 6 -7.234375 5.65234375 C-7.81703125 5.43707031 -8.3996875 5.22179688 -9 5 C-6.06626269 3.04417512 -3.21783702 1.43775696 0 0 Z " fill="#89C089" transform="translate(465,27)"/>
<path d="M0 0 C1.46534385 3.80989402 0.55203911 6.3241179 -1 10 C-1.99 10.495 -1.99 10.495 -3 11 C-2.69078116 9.54096742 -2.37751201 8.08279278 -2.0625 6.625 C-1.88847656 5.81289063 -1.71445312 5.00078125 -1.53515625 4.1640625 C-1 2 -1 2 0 0 Z " fill="#68BF99" transform="translate(297,52)"/>
</svg>
