<?xml version="1.0" encoding="UTF-8"?>
<svg version="1.1" xmlns="http://www.w3.org/2000/svg" width="512" height="512">
<path d="M0 0 C1.04687988 0.19867676 2.09375977 0.39735352 3.17236328 0.60205078 C27.99886167 5.41450546 50.80870966 13.44258398 73.74536133 24.00366211 C77.45279968 25.64200059 79.5221172 26.08708348 83.453125 25.29296875 C84.82440552 25.03229614 84.82440552 25.03229614 86.22338867 24.76635742 C87.22217041 24.57533447 88.22095215 24.38431152 89.25 24.1875 C99.20076172 22.40851989 109.11153941 21.34128487 119.1875 20.6875 C120.46206055 20.59944092 121.73662109 20.51138184 123.04980469 20.4206543 C144.4663709 19.15370768 144.4663709 19.15370768 149.33984375 22.70507812 C152.86806977 27.58233174 151.36622893 34.29468863 150.59619141 39.98291016 C150.07295486 42.94592963 149.46483895 45.87529219 148.8125 48.8125 C148.59126465 49.84987305 148.3700293 50.88724609 148.14208984 51.95605469 C146.53513706 59.24226624 144.47699716 66.20404338 141.8203125 73.171875 C140.94714298 76.18223086 140.67502933 77.20531397 142 80 C143.53606588 81.952328 145.09128512 83.78335338 146.75 85.625 C190.3181385 135.747446 212.83903118 201.95492661 221 267 C221.0932254 267.70970947 221.18645081 268.41941895 221.28250122 269.15063477 C223.48364338 286.39913691 223.35764902 303.71966741 223.31785583 321.07536697 C223.31244638 323.52427576 223.31005735 325.97317495 223.3079834 328.42208862 C223.27722359 351.70822587 223.04448294 374.87673367 220 398 C219.85014648 399.14871582 219.70029297 400.29743164 219.54589844 401.48095703 C215.25865583 432.86157035 206.87254796 466.57276295 181.7421875 487.9453125 C157.77859362 505.90093982 128.78425175 509.14262256 99.73828125 509.203125 C98.81737387 509.20595238 97.89646648 509.20877975 96.94765282 509.21169281 C92.07390438 509.22661541 87.20018501 509.23588859 82.32641602 509.24023438 C77.33511469 509.24570874 72.34408753 509.26973509 67.35287189 509.29820633 C63.47571573 509.31697657 59.59862374 509.3220459 55.72142601 509.32357025 C53.88331797 509.32656495 52.04521016 509.33448334 50.2071476 509.34775543 C36.24518879 509.44137838 22.38314713 509.24297285 10 502 C8.67092777 501.32487836 7.33854118 500.65614764 6 500 C5.27296875 500.59748047 5.27296875 500.59748047 4.53125 501.20703125 C3.8609375 501.73683594 3.190625 502.26664062 2.5 502.8125 C1.8503125 503.33457031 1.200625 503.85664063 0.53125 504.39453125 C-7.71436465 509.62438869 -15.85729732 509.4591308 -25.296875 509.43359375 C-26.77801756 509.43816112 -28.259158 509.44346835 -29.74029541 509.44947815 C-32.83004423 509.45837289 -35.919534 509.45602466 -39.00927734 509.44604492 C-42.96612781 509.43450832 -46.92209202 509.45485553 -50.87882614 509.48396206 C-53.93120983 509.5023048 -56.98337978 509.50203642 -60.03580475 509.49632454 C-61.49504091 509.49617136 -62.95429158 509.50221301 -64.41347504 509.51461601 C-66.44975382 509.52949983 -68.48617955 509.51623247 -70.52246094 509.50170898 C-71.67969666 509.50154282 -72.83693237 509.50137665 -74.02923584 509.50120544 C-77.6558274 508.88935363 -78.84539782 507.94249151 -81 505 C-81.2906124 502.10550051 -81.38186045 499.62050065 -81.25 496.75 C-81.23195312 496.00492187 -81.21390625 495.25984375 -81.1953125 494.4921875 C-81.14835649 492.66090299 -81.07661652 490.83028351 -81 489 C-82.72814161 488.80327635 -84.45759197 488.61803201 -86.1875 488.4375 C-87.15042969 488.33308594 -88.11335937 488.22867187 -89.10546875 488.12109375 C-91.94233377 488.00241249 -94.25423671 488.32234361 -97 489 C-96.95359375 490.10859375 -96.9071875 491.2171875 -96.859375 492.359375 C-96.82184898 493.82288968 -96.78544971 495.28643356 -96.75 496.75 C-96.71648437 497.47960937 -96.68296875 498.20921875 -96.6484375 498.9609375 C-96.58766488 502.30343185 -96.61105514 504.46783158 -98.61581421 507.21081543 C-101.74775536 509.56114434 -103.6419893 509.50697281 -107.53759766 509.51757812 C-108.50924362 509.52809204 -108.50924362 509.52809204 -109.5005188 509.53881836 C-111.63880529 509.55639817 -113.77576282 509.54476923 -115.9140625 509.53125 C-117.40896863 509.53394693 -118.90387305 509.53783102 -120.39877319 509.54284668 C-123.53441035 509.5487433 -126.66959168 509.54018144 -129.80517578 509.52148438 C-133.799704 509.49881235 -137.79315012 509.51174068 -141.78763771 509.53577423 C-144.87804085 509.55032977 -147.96819391 509.54558002 -151.05860519 509.53526306 C-152.52961737 509.5326164 -154.00065313 509.53579205 -155.47163773 509.54518127 C-165.07660758 509.59299535 -172.63789191 508.51041937 -181.11831665 503.83117676 C-183.04172072 502.74967308 -183.04172072 502.74967308 -185.375 503.609375 C-186.24125 503.98578125 -187.1075 504.3621875 -188 504.75 C-198.55773421 509.3207264 -210.01132797 509.32388445 -221.328125 509.3359375 C-222.77154667 509.3423844 -224.21496711 509.34911407 -225.65838623 509.35610962 C-228.66030917 509.36798523 -231.66211779 509.37179991 -234.6640625 509.37060547 C-238.49257799 509.37040127 -242.32035964 509.39784973 -246.14870071 509.43214989 C-249.12057823 509.45446519 -252.09227918 509.45844183 -255.06423187 509.45738602 C-256.47551789 509.45972936 -257.88680971 509.46848071 -259.29801178 509.48405075 C-268.4767188 509.57596651 -275.10722147 509.28757422 -282.2421875 503.03515625 C-282.78101563 502.38417969 -283.31984375 501.73320312 -283.875 501.0625 C-284.42929687 500.41410156 -284.98359375 499.76570313 -285.5546875 499.09765625 C-288.7085792 494.52025127 -289.25611839 490.58012275 -289.29052734 485.07348633 C-289.29724457 484.39631561 -289.30396179 483.7191449 -289.31088257 483.02145386 C-289.32981612 480.79157076 -289.33378497 478.56198965 -289.3359375 476.33203125 C-289.34237084 474.77129496 -289.3490996 473.21055986 -289.35610962 471.64982605 C-289.36807235 468.37907113 -289.3717917 465.10842173 -289.37060547 461.83764648 C-289.37040284 457.66948306 -289.3976511 453.50200572 -289.43214989 449.3340044 C-289.45451826 446.10897284 -289.45843992 442.88410346 -289.45738602 439.6590023 C-289.45972912 438.12377252 -289.46847906 436.58853738 -289.48405075 435.05338478 C-289.58754777 423.79173204 -288.69291938 414.08597933 -280.703125 405.53125 C-272.47956115 398.13758709 -263.76554365 396.41809933 -252.98828125 396.6875 C-244.59043247 397.16251384 -237.61410005 400.78130456 -232 407 C-228.22562108 411.89193245 -225.97111468 417.20816973 -223.89453125 422.99609375 C-223.17522399 425.1767425 -223.17522399 425.1767425 -221 426 C-221.20496094 424.74445313 -221.40992188 423.48890625 -221.62109375 422.1953125 C-221.89338428 420.50523332 -222.16551088 418.81512772 -222.4375 417.125 C-222.57220703 416.30257813 -222.70691406 415.48015625 -222.84570312 414.6328125 C-222.97783203 413.8078125 -223.10996094 412.9828125 -223.24609375 412.1328125 C-223.36654053 411.38918457 -223.4869873 410.64555664 -223.61108398 409.87939453 C-224.6563354 402.14072834 -225.16459796 394.49862661 -225.203125 386.69140625 C-225.21364647 385.25677788 -225.21364647 385.25677788 -225.22438049 383.79316711 C-225.24180955 380.71622975 -225.2482344 377.63948494 -225.25 374.5625 C-225.25067474 373.51120911 -225.25134949 372.45991821 -225.25204468 371.37677002 C-225.22454549 344.40752423 -222.88734156 318.63127632 -214 293 C-214.52134521 292.55575684 -215.04269043 292.11151367 -215.57983398 291.65380859 C-239.19460651 271.42498913 -254.74850688 244.50123542 -257.47265625 213.05078125 C-259.23633214 188.13685253 -255.04442056 166.06451076 -238.3203125 146.5625 C-232.14708778 139.74493196 -225.72766891 133.08098315 -218 128 C-217.34 128 -216.68 128 -216 128 C-215.9175 126.948125 -215.835 125.89625 -215.75 124.8125 C-215.14325286 119.66434242 -213.43685194 114.9302461 -211.7421875 110.05078125 C-210.95464148 106.8135526 -210.9436932 105.13194967 -212 102 C-213.14411909 100.24311162 -213.14411909 100.24311162 -214.625 98.625 C-228.43960828 80.86809343 -233.02635775 54.52415061 -233.4375 32.5625 C-233.45981689 31.85859131 -233.48213379 31.15468262 -233.50512695 30.42944336 C-233.4897247 27.0396984 -233.22314883 25.28930151 -231.12890625 22.57421875 C-223.27942105 16.76992052 -207.30045462 20.06845154 -198.0625 20.6875 C-196.26679565 20.79928589 -196.26679565 20.79928589 -194.43481445 20.91333008 C-186.58958796 21.48612699 -179.12575754 22.72444112 -171.44360352 24.38891602 C-159.19453079 27.45617692 -159.19453079 27.45617692 -147.41992188 24.48291016 C-145.05540376 22.85875122 -142.83225315 21.11338231 -140.63623047 19.26904297 C-137.88709554 17.13684312 -134.84640561 15.73705602 -131.6875 14.3125 C-131.07100586 14.03132324 -130.45451172 13.75014648 -129.81933594 13.46044922 C-115.48308745 7.10562427 -100.31435773 3.17566852 -85 0 C-84.23574707 -0.16661133 -83.47149414 -0.33322266 -82.68408203 -0.50488281 C-56.62380131 -5.98588242 -26.03547488 -5.10796466 0 0 Z " fill="#FEC5C1" transform="translate(289,3)"/>
<path d="M0 0 C1.04687988 0.19867676 2.09375977 0.39735352 3.17236328 0.60205078 C27.99886167 5.41450546 50.80870966 13.44258398 73.74536133 24.00366211 C77.45279968 25.64200059 79.5221172 26.08708348 83.453125 25.29296875 C84.82440552 25.03229614 84.82440552 25.03229614 86.22338867 24.76635742 C87.22217041 24.57533447 88.22095215 24.38431152 89.25 24.1875 C99.20076172 22.40851989 109.11153941 21.34128487 119.1875 20.6875 C120.46206055 20.59944092 121.73662109 20.51138184 123.04980469 20.4206543 C144.4663709 19.15370768 144.4663709 19.15370768 149.33984375 22.70507812 C152.86806977 27.58233174 151.36622893 34.29468863 150.59619141 39.98291016 C150.07295486 42.94592963 149.46483895 45.87529219 148.8125 48.8125 C148.59126465 49.84987305 148.3700293 50.88724609 148.14208984 51.95605469 C146.53513706 59.24226624 144.47699716 66.20404338 141.8203125 73.171875 C140.94714298 76.18223086 140.67502933 77.20531397 142 80 C143.53606588 81.952328 145.09128512 83.78335338 146.75 85.625 C190.3181385 135.747446 212.83903118 201.95492661 221 267 C221.0932254 267.70970947 221.18645081 268.41941895 221.28250122 269.15063477 C223.48364338 286.39913691 223.35764902 303.71966741 223.31785583 321.07536697 C223.31244638 323.52427576 223.31005735 325.97317495 223.3079834 328.42208862 C223.27722359 351.70822587 223.04448294 374.87673367 220 398 C219.85014648 399.14871582 219.70029297 400.29743164 219.54589844 401.48095703 C215.25865583 432.86157035 206.87254796 466.57276295 181.7421875 487.9453125 C157.77859362 505.90093982 128.78425175 509.14262256 99.73828125 509.203125 C98.81737387 509.20595238 97.89646648 509.20877975 96.94765282 509.21169281 C92.07390438 509.22661541 87.20018501 509.23588859 82.32641602 509.24023438 C77.33511469 509.24570874 72.34408753 509.26973509 67.35287189 509.29820633 C63.47571573 509.31697657 59.59862374 509.3220459 55.72142601 509.32357025 C53.88331797 509.32656495 52.04521016 509.33448334 50.2071476 509.34775543 C36.24518879 509.44137838 22.38314713 509.24297285 10 502 C8.67092777 501.32487836 7.33854118 500.65614764 6 500 C5.27296875 500.59748047 5.27296875 500.59748047 4.53125 501.20703125 C3.8609375 501.73683594 3.190625 502.26664062 2.5 502.8125 C1.8503125 503.33457031 1.200625 503.85664063 0.53125 504.39453125 C-7.71436465 509.62438869 -15.85729732 509.4591308 -25.296875 509.43359375 C-26.77801756 509.43816112 -28.259158 509.44346835 -29.74029541 509.44947815 C-32.83004423 509.45837289 -35.919534 509.45602466 -39.00927734 509.44604492 C-42.96612781 509.43450832 -46.92209202 509.45485553 -50.87882614 509.48396206 C-53.93120983 509.5023048 -56.98337978 509.50203642 -60.03580475 509.49632454 C-61.49504091 509.49617136 -62.95429158 509.50221301 -64.41347504 509.51461601 C-66.44975382 509.52949983 -68.48617955 509.51623247 -70.52246094 509.50170898 C-71.67969666 509.50154282 -72.83693237 509.50137665 -74.02923584 509.50120544 C-77.6558274 508.88935363 -78.84539782 507.94249151 -81 505 C-81.2906124 502.10550051 -81.38186045 499.62050065 -81.25 496.75 C-81.23195312 496.00492187 -81.21390625 495.25984375 -81.1953125 494.4921875 C-81.14835649 492.66090299 -81.07661652 490.83028351 -81 489 C-82.72814161 488.80327635 -84.45759197 488.61803201 -86.1875 488.4375 C-87.15042969 488.33308594 -88.11335937 488.22867187 -89.10546875 488.12109375 C-91.94233377 488.00241249 -94.25423671 488.32234361 -97 489 C-96.95359375 490.10859375 -96.9071875 491.2171875 -96.859375 492.359375 C-96.82184898 493.82288968 -96.78544971 495.28643356 -96.75 496.75 C-96.71648437 497.47960937 -96.68296875 498.20921875 -96.6484375 498.9609375 C-96.58766488 502.30343185 -96.61105514 504.46783158 -98.61581421 507.21081543 C-101.74775536 509.56114434 -103.6419893 509.50697281 -107.53759766 509.51757812 C-108.50924362 509.52809204 -108.50924362 509.52809204 -109.5005188 509.53881836 C-111.63880529 509.55639817 -113.77576282 509.54476923 -115.9140625 509.53125 C-117.40896863 509.53394693 -118.90387305 509.53783102 -120.39877319 509.54284668 C-123.53441035 509.5487433 -126.66959168 509.54018144 -129.80517578 509.52148438 C-133.799704 509.49881235 -137.79315012 509.51174068 -141.78763771 509.53577423 C-144.87804085 509.55032977 -147.96819391 509.54558002 -151.05860519 509.53526306 C-152.52961737 509.5326164 -154.00065313 509.53579205 -155.47163773 509.54518127 C-165.07660758 509.59299535 -172.63789191 508.51041937 -181.11831665 503.83117676 C-183.04172072 502.74967308 -183.04172072 502.74967308 -185.375 503.609375 C-186.24125 503.98578125 -187.1075 504.3621875 -188 504.75 C-198.55773421 509.3207264 -210.01132797 509.32388445 -221.328125 509.3359375 C-222.77154667 509.3423844 -224.21496711 509.34911407 -225.65838623 509.35610962 C-228.66030917 509.36798523 -231.66211779 509.37179991 -234.6640625 509.37060547 C-238.49257799 509.37040127 -242.32035964 509.39784973 -246.14870071 509.43214989 C-249.12057823 509.45446519 -252.09227918 509.45844183 -255.06423187 509.45738602 C-256.47551789 509.45972936 -257.88680971 509.46848071 -259.29801178 509.48405075 C-268.4767188 509.57596651 -275.10722147 509.28757422 -282.2421875 503.03515625 C-282.78101563 502.38417969 -283.31984375 501.73320312 -283.875 501.0625 C-284.42929687 500.41410156 -284.98359375 499.76570313 -285.5546875 499.09765625 C-288.7085792 494.52025127 -289.25611839 490.58012275 -289.29052734 485.07348633 C-289.29724457 484.39631561 -289.30396179 483.7191449 -289.31088257 483.02145386 C-289.32981612 480.79157076 -289.33378497 478.56198965 -289.3359375 476.33203125 C-289.34237084 474.77129496 -289.3490996 473.21055986 -289.35610962 471.64982605 C-289.36807235 468.37907113 -289.3717917 465.10842173 -289.37060547 461.83764648 C-289.37040284 457.66948306 -289.3976511 453.50200572 -289.43214989 449.3340044 C-289.45451826 446.10897284 -289.45843992 442.88410346 -289.45738602 439.6590023 C-289.45972912 438.12377252 -289.46847906 436.58853738 -289.48405075 435.05338478 C-289.58754777 423.79173204 -288.69291938 414.08597933 -280.703125 405.53125 C-272.47956115 398.13758709 -263.76554365 396.41809933 -252.98828125 396.6875 C-244.59043247 397.16251384 -237.61410005 400.78130456 -232 407 C-228.22562108 411.89193245 -225.97111468 417.20816973 -223.89453125 422.99609375 C-223.17522399 425.1767425 -223.17522399 425.1767425 -221 426 C-221.20496094 424.74445313 -221.40992188 423.48890625 -221.62109375 422.1953125 C-221.89338428 420.50523332 -222.16551088 418.81512772 -222.4375 417.125 C-222.57220703 416.30257813 -222.70691406 415.48015625 -222.84570312 414.6328125 C-222.97783203 413.8078125 -223.10996094 412.9828125 -223.24609375 412.1328125 C-223.36654053 411.38918457 -223.4869873 410.64555664 -223.61108398 409.87939453 C-224.6563354 402.14072834 -225.16459796 394.49862661 -225.203125 386.69140625 C-225.21364647 385.25677788 -225.21364647 385.25677788 -225.22438049 383.79316711 C-225.24180955 380.71622975 -225.2482344 377.63948494 -225.25 374.5625 C-225.25067474 373.51120911 -225.25134949 372.45991821 -225.25204468 371.37677002 C-225.22454549 344.40752423 -222.88734156 318.63127632 -214 293 C-214.52134521 292.55575684 -215.04269043 292.11151367 -215.57983398 291.65380859 C-239.19460651 271.42498913 -254.74850688 244.50123542 -257.47265625 213.05078125 C-259.23633214 188.13685253 -255.04442056 166.06451076 -238.3203125 146.5625 C-232.14708778 139.74493196 -225.72766891 133.08098315 -218 128 C-217.34 128 -216.68 128 -216 128 C-215.9175 126.948125 -215.835 125.89625 -215.75 124.8125 C-215.14325286 119.66434242 -213.43685194 114.9302461 -211.7421875 110.05078125 C-210.95464148 106.8135526 -210.9436932 105.13194967 -212 102 C-213.14411909 100.24311162 -213.14411909 100.24311162 -214.625 98.625 C-228.43960828 80.86809343 -233.02635775 54.52415061 -233.4375 32.5625 C-233.45981689 31.85859131 -233.48213379 31.15468262 -233.50512695 30.42944336 C-233.4897247 27.0396984 -233.22314883 25.28930151 -231.12890625 22.57421875 C-223.27942105 16.76992052 -207.30045462 20.06845154 -198.0625 20.6875 C-196.26679565 20.79928589 -196.26679565 20.79928589 -194.43481445 20.91333008 C-186.58958796 21.48612699 -179.12575754 22.72444112 -171.44360352 24.38891602 C-159.19453079 27.45617692 -159.19453079 27.45617692 -147.41992188 24.48291016 C-145.05540376 22.85875122 -142.83225315 21.11338231 -140.63623047 19.26904297 C-137.88709554 17.13684312 -134.84640561 15.73705602 -131.6875 14.3125 C-131.07100586 14.03132324 -130.45451172 13.75014648 -129.81933594 13.46044922 C-115.48308745 7.10562427 -100.31435773 3.17566852 -85 0 C-84.23574707 -0.16661133 -83.47149414 -0.33322266 -82.68408203 -0.50488281 C-56.62380131 -5.98588242 -26.03547488 -5.10796466 0 0 Z M-168 60 C-184.20767334 77.40246977 -191.78477533 98.48067635 -198 121 C-198.72493505 123.60539156 -199.4552234 126.209149 -200.1875 128.8125 C-200.49042969 129.91207031 -200.79335937 131.01164062 -201.10546875 132.14453125 C-202.77031128 137.45894123 -204.33460973 139.52643301 -209 142.6875 C-224.70688581 153.84225964 -237.45186711 168.46248296 -241 188 C-242.8513233 206.98065641 -239.45530184 226.50955581 -232 244 C-231.57074219 245.010625 -231.14148438 246.02125 -230.69921875 247.0625 C-218.45818823 273.54450406 -194.2042042 289.94655622 -167.57324219 299.90771484 C-162.77875761 301.53691879 -157.91801599 302.80672663 -153 304 C-151.52062509 304.38070213 -150.04146241 304.76222977 -148.5625 305.14453125 C-147.08396055 305.51552949 -145.60480819 305.88409521 -144.125 306.25 C-143.47160645 306.41363037 -142.81821289 306.57726074 -142.14501953 306.74584961 C-132.84964215 308.92594501 -123.33376482 309.15974235 -113.82421875 309.203125 C-112.78872391 309.21013931 -111.75322906 309.21715363 -110.68635559 309.22438049 C-107.35335907 309.24181344 -104.02054048 309.24823513 -100.6875 309.25 C-99.54684082 309.25067474 -98.40618164 309.25134949 -97.23095703 309.25204468 C-64.94331377 309.22172259 -31.58387562 307.2554022 -1 296 C-0.36175293 295.76667969 0.27649414 295.53335937 0.93408203 295.29296875 C13.60504351 290.60906503 24.77096594 284.94821162 35 276 C35.63808594 275.44570313 36.27617187 274.89140625 36.93359375 274.3203125 C47.97798838 264.03844846 53.42209115 249.79912407 55 235 C55.06460929 232.5215878 55.08611087 230.04164177 55.0625 227.5625 C55.0315625 224.3140625 55.0315625 224.3140625 55 221 C60.28 221 65.56 221 71 221 C69.32442591 240.01923569 67.61018927 259.12095894 56 275 C55.37738281 275.8765625 54.75476563 276.753125 54.11328125 277.65625 C31.84679918 306.96075135 -8.45344322 316.18661434 -43 321 C-82.79965359 325.9802027 -127.44287405 328.53854507 -166 316 C-166.72413086 315.76909668 -167.44826172 315.53819336 -168.19433594 315.30029297 C-177.30822685 312.36260771 -185.80005488 308.84498219 -194.2421875 304.3203125 C-196.94138503 302.78409144 -196.94138503 302.78409144 -200 303 C-209.80816744 340.61939042 -213.40966534 380.07803107 -205.50390625 418.48730469 C-205.04177789 420.79167728 -204.65809906 423.08980215 -204.3125 425.4140625 C-202.10875464 439.77908924 -197.21567635 454.3642534 -190 467 C-184.37000851 466.36108241 -179.21504113 464.9942373 -173.8125 463.3125 C-172.03650709 462.76937178 -170.26046395 462.22640783 -168.484375 461.68359375 C-167.57880859 461.40499512 -166.67324219 461.12639648 -165.74023438 460.83935547 C-162.20206239 459.7555854 -158.6572299 458.69487783 -155.11132812 457.63671875 C-152.60919408 456.88895455 -150.10922743 456.13425734 -147.609375 455.37890625 C-144.71017911 454.50518421 -141.80612926 453.65741524 -138.890625 452.83984375 C-137.70984375 452.50082031 -136.5290625 452.16179687 -135.3125 451.8125 C-134.29800781 451.53019531 -133.28351563 451.24789063 -132.23828125 450.95703125 C-131.49964844 450.64121094 -130.76101562 450.32539063 -130 450 C-128.59904393 446.917765 -128.59904393 446.917765 -130.44140625 443.734375 C-131.1410585 442.402348 -131.84863794 441.07446599 -132.5625 439.75 C-146.44694132 412.95876662 -150.95032625 386.85289536 -153 357 C-147.72 357 -142.44 357 -137 357 C-137.061875 358.65 -137.12375 360.3 -137.1875 362 C-137.04716198 394.3479125 -126.95433382 425.75245529 -108 452 C-103.54600906 458.51519398 -100.12598432 464.37146801 -98 472 C-92.06 472 -86.12 472 -80 472 C-79.401875 470.185 -78.80375 468.37 -78.1875 466.5 C-76.04026309 460.88694125 -73.38739646 456.35571467 -69.875 451.5 C-50.07859046 423.84300353 -40.21945456 390.95372645 -41 357 C-35.72 357 -30.44 357 -25 357 C-26.11466328 387.65324024 -31.63297295 420.94945943 -49 447 C-49 447.99 -49 448.98 -49 450 C-41.54649278 452.28838118 -34.08973484 454.56591753 -26.63061523 456.8359375 C-24.09339436 457.60948243 -21.5569286 458.38550869 -19.02124023 459.1640625 C-15.37679496 460.28257692 -11.72972904 461.39214565 -8.08203125 462.5 C-6.38177544 463.0249707 -6.38177544 463.0249707 -4.64717102 463.56054688 C-3.58644882 463.88087891 -2.52572662 464.20121094 -1.43286133 464.53125 C-0.50242508 464.81548828 0.42801117 465.09972656 1.38664246 465.39257812 C4.01958622 466.00455242 6.30751305 466.11440317 9 466 C26.24036328 432.57326946 31.35995001 394.15484015 31 357 C36.28 357 41.56 357 47 357 C46.73908307 361.52153695 46.47072487 366.04233057 46.1875 370.5625 C46.14531342 371.23706238 46.10312683 371.91162476 46.05966187 372.60662842 C45.40881399 382.80127705 44.41122578 392.88426755 42.87768555 402.99047852 C42.74918213 403.86244873 42.62067871 404.73441895 42.48828125 405.6328125 C42.37009033 406.38449707 42.25189941 407.13618164 42.13012695 407.91064453 C41.99017458 410.15775973 42.34207778 411.85819522 43 414 C43.35191406 413.48050781 43.70382812 412.96101563 44.06640625 412.42578125 C49.17804459 405.20542527 55.16324955 399.92294736 64 398 C74.33571422 396.76568242 83.12413802 398.83143125 91.6484375 404.87890625 C96.5765502 409.32403116 99.66399645 415.24119767 101.3125 421.625 C104.44181536 431.75971451 117.28987922 437.92961568 126 443 C129.48910686 444.64253276 131.03376716 445 135 445 C135 450.28 135 455.56 135 461 C125.24345935 458.16476596 116.70374452 455.33596398 108 450 C106.35 449.01 104.7 448.02 103 447 C103 462.18 103 477.36 103 493 C111.15086209 493 118.50423571 492.9617617 126.4375 491.75 C127.79234497 491.54540161 127.79234497 491.54540161 129.17456055 491.33666992 C149.46105922 488.12040745 169.36030865 480.58877768 182.25 463.8125 C221.15142178 406.2130425 212.86231288 304.42899793 200.25 239.3125 C189.08995154 185.85854627 167.18603543 135.95019392 132 94 C129.70121828 96.22912167 127.47677454 98.41068731 125.4609375 100.90234375 C119.46495721 108.30496397 111.3372415 113.72747928 102 116 C91.70869779 117.07997596 83.79333729 113.64988907 75.37518311 107.93969727 C67.59724634 101.58783216 62.69674376 92.22345037 57.5625 83.75 C56.28996677 81.72394404 55.01329268 79.70048278 53.73242188 77.6796875 C50.90034578 73.19717576 48.11381033 68.6893096 45.3508606 64.16394043 C44.16364831 62.26214785 42.92832442 60.41381719 41.65209961 58.57128906 C39.58757342 55.35810894 39.37413152 53.75521088 40 50 C42.5274897 44.83512974 46.3439062 41.93996762 50.87890625 38.61328125 C52.76317496 37.1801266 54.35022875 35.68806267 56 34 C-17.67408105 5.28685651 -107.81051643 -0.02229056 -168 60 Z " fill="#010101" transform="translate(289,3)"/>
<path d="M0 0 C1 2 1 2 0.28515625 4.546875 C-3.83880019 15.35085035 -11.91395564 36.45697782 -23 42 C-24.49731808 41.58098535 -25.97456841 41.08915537 -27.4375 40.5625 C-36.87758279 37.65056628 -44.23763031 38.40022139 -53.20703125 42.5078125 C-57.16738936 44.62369614 -60.58541584 47.10108773 -64 50 C-64.96292969 50.76054687 -65.92585937 51.52109375 -66.91796875 52.3046875 C-70.05149056 54.92214583 -72.46753347 57.86640559 -74.9375 61.125 C-75.36788574 61.68469482 -75.79827148 62.24438965 -76.24169922 62.82104492 C-79.02653398 66.50074546 -81.35097908 70.2900328 -83.625 74.3125 C-86.34989008 78.79978916 -86.34989008 78.79978916 -89.20703125 79.6796875 C-91.4375 79.6875 -91.4375 79.6875 -95 79 C-94.96519531 79.66 -94.93039063 80.32 -94.89453125 81 C-93.98601502 114.22573639 -104.58035067 147.1080966 -124 174 C-128.45399094 180.51519398 -131.87401568 186.37146801 -134 194 C-139.94 194 -145.88 194 -152 194 C-152.4125 192.55625 -152.825 191.1125 -153.25 189.625 C-155.27697614 184.00963146 -158.18938322 179.49006205 -161.5625 174.625 C-181.19730383 146.04689477 -191.79989057 113.79523994 -191 79 C-196.28 79 -201.56 79 -207 79 C-205.10853227 108.91505548 -200.07888057 135.56856709 -186.6640625 162.6015625 C-185.30741819 165.37217412 -184.09310881 168.11816769 -183 171 C-187.51335978 173.45031077 -191.99228398 174.9692007 -196.9375 176.25 C-204.35552249 178.24052482 -211.71666869 180.38263205 -219.0625 182.625 C-220.01310303 182.91407227 -220.96370605 183.20314453 -221.94311523 183.50097656 C-226.2837064 184.8292699 -230.58976 186.20216754 -234.87109375 187.7109375 C-238.01984666 188.78064501 -240.63863239 189.32529364 -244 189 C-252.57726692 173.97990125 -256.94483354 157.28402327 -259.49169922 140.30541992 C-259.88648123 137.73819916 -260.31441384 135.18427423 -260.76220703 132.6262207 C-262.88951576 120.08739799 -263.48254617 107.89090842 -263.375 95.1875 C-263.37101196 94.22676575 -263.36702393 93.26603149 -263.36291504 92.27618408 C-263.29358609 78.01545602 -262.81093633 64.02290333 -260 50 C-259.83419434 49.15856445 -259.66838867 48.31712891 -259.49755859 47.45019531 C-257.97231703 39.87727734 -256.17213344 32.41421549 -254 25 C-249.3216454 25.62438388 -245.47998902 27.60375549 -241.3125 29.6875 C-198.95749873 50.16583033 -152.67582949 47.28245818 -107 44 C-106.05543945 43.93586914 -105.11087891 43.87173828 -104.13769531 43.80566406 C-69.2142609 41.30203997 -29.32949049 30.55524352 -4 5 C-2.64275592 3.35274651 -1.30235461 1.69098434 0 0 Z " fill="#FDA7AC" transform="translate(343,281)"/>
<path d="M0 0 C48.40500179 47.56317568 68.61810706 122.65329638 75 188 C75.08702682 188.88036423 75.17405365 189.76072845 75.26371765 190.66777039 C75.95645665 198.19255451 76.16007857 205.65295908 76.16796875 213.20703125 C76.17418495 215.05478401 76.17418495 215.05478401 76.18052673 216.93986511 C76.19013334 220.89742946 76.1902004 224.85493114 76.1875 228.8125 C76.18755606 230.17342122 76.18761711 231.53434245 76.18768311 232.89526367 C76.18065664 252.34468584 75.80232384 271.62501873 74 291 C73.85196196 292.8696184 73.70603709 294.73940566 73.5625 296.609375 C71.23211515 325.16853334 64.6964047 359.75890054 42.1484375 379.49609375 C27.52770936 391 27.52770936 391 20 391 C19.88161576 378.62720304 20.03167759 366.28108149 20.4375 353.9140625 C20.48241101 352.53863064 20.5273072 351.1631983 20.57218933 349.7877655 C20.64241419 347.64085149 20.71269431 345.49393937 20.78316784 343.3470335 C21.72300794 314.56669292 22.20197609 285.80524979 22.18847656 257.00933075 C22.18751609 254.47987147 22.18845776 251.95041852 22.18969727 249.42095947 C22.19476968 221.36343109 22.11989806 193.25464532 19.3125 165.3125 C19.22730103 164.44355103 19.14210205 163.57460205 19.05432129 162.67932129 C14.0836272 112.53119453 2.83929755 65.2410905 -24 22 C-21.692707 19.44629707 -19.33309434 17.99673197 -16.3125 16.375 C-9.32034338 12.28601952 -4.75756142 6.43070993 0 0 Z " fill="#FED6D0" transform="translate(420,97)"/>
<path d="M0 0 C7.59144728 6.62313231 13.09079826 14.41072931 14.87426758 24.5378418 C15.32802206 35.15294662 11.42414906 44.60107831 4.31567383 52.3659668 C-10.40171369 68.1036774 -33.86280636 75.43635925 -54.91381836 76.53442383 C-68.78932345 76.99539766 -82.20843823 76.90262517 -95.68432617 73.3659668 C-96.86510742 73.0875293 -98.04588867 72.8090918 -99.26245117 72.5222168 C-115.36999279 68.40663348 -130.90684108 60.22607199 -140.68432617 46.3659668 C-145.04995185 38.31351699 -146.93773994 30.53677755 -145.68432617 21.3659668 C-140.80718076 7.59695261 -132.18108464 -0.45016216 -119.68432617 -7.6340332 C-118.91604492 -8.08649414 -118.14776367 -8.53895508 -117.35620117 -9.00512695 C-83.70693284 -27.37488058 -29.88815309 -24.57326581 0 0 Z " fill="#FB7E8A" transform="translate(249.684326171875,155.634033203125)"/>
<path d="M0 0 C4.79963656 0.63620913 8.65602835 2.62544345 12.9375 4.75 C19.2304239 7.88080964 19.2304239 7.88080964 25.875 10.11328125 C34.38142968 12.37979705 38.17659075 15.54339036 42.64819336 22.85449219 C43.81037271 24.8820098 44.91522145 26.93013057 46 29 C46.3520752 29.65983887 46.70415039 30.31967773 47.06689453 30.99951172 C50.93582823 38.37632752 54.03606975 45.63938049 55 54 C52.36 54 49.72 54 47 54 C48.84584634 83.90120995 53.93194342 110.59037916 67.3359375 137.6015625 C68.69258181 140.37217412 69.90689119 143.11816769 71 146 C66.48664022 148.45031077 62.00771602 149.9692007 57.0625 151.25 C49.64447751 153.24052482 42.28333131 155.38263205 34.9375 157.625 C33.98689697 157.91407227 33.03629395 158.20314453 32.05688477 158.50097656 C27.7162936 159.8292699 23.41024 161.20216754 19.12890625 162.7109375 C15.98015334 163.78064501 13.36136761 164.32529364 10 164 C1.42273308 148.97990125 -2.94483354 132.28402327 -5.49169922 115.30541992 C-5.88648123 112.73819916 -6.31441384 110.18427423 -6.76220703 107.6262207 C-8.88951576 95.08739799 -9.48254617 82.89090842 -9.375 70.1875 C-9.37101196 69.22676575 -9.36702393 68.26603149 -9.36291504 67.27618408 C-9.29358609 53.01545602 -8.81093633 39.02290333 -6 25 C-5.83419434 24.15856445 -5.66838867 23.31712891 -5.49755859 22.45019531 C-3.97231703 14.87727734 -2.17213344 7.41421549 0 0 Z " fill="#FED6D0" transform="translate(89,306)"/>
<path d="M0 0 C1.0211792 0.31578003 1.0211792 0.31578003 2.06298828 0.63793945 C4.78652942 1.7791267 6.16567003 2.65835422 8 5 C9.03069214 10.62349084 8.75208701 16.12330043 8.5 21.8125 C8.45985042 23.37946706 8.42335215 24.94653222 8.390625 26.51367188 C8.30266498 30.34487392 8.16476794 34.17136332 8 38 C5.36 38 2.72 38 0 38 C0.02320313 39.10472656 0.04640625 40.20945312 0.0703125 41.34765625 C0.56829558 75.65232524 -6.457097 107.45927377 -18.23046875 139.4921875 C-18.52332764 140.28995605 -18.81618652 141.08772461 -19.11791992 141.90966797 C-20 144 -20 144 -22 147 C-28.87820728 146.3920413 -35.13054094 144.6427913 -41.71875 142.62109375 C-42.81723267 142.28956802 -43.91571533 141.9580423 -45.04748535 141.61647034 C-48.53352276 140.56286266 -52.0167631 139.50032519 -55.5 138.4375 C-57.87221638 137.71880845 -60.24461046 137.00070315 -62.6171875 136.28320312 C-68.41353261 134.52891678 -74.20761137 132.76730343 -80 131 C-79.21039373 126.47350252 -77.52241361 122.89714772 -75.375 118.875 C-62.29074773 93.49095854 -57.07693993 66.33466104 -56 38 C-58.64 38 -61.28 38 -64 38 C-60.69502729 30.52788779 -56.05221812 24.39084001 -51 18 C-50.42121094 17.25234375 -49.84242188 16.5046875 -49.24609375 15.734375 C-37.10976619 0.8783403 -18.49648583 -8.19889614 0 0 Z " fill="#FDC5C1" transform="translate(320,322)"/>
<path d="M0 0 C0.72815918 0.17756836 1.45631836 0.35513672 2.20654297 0.53808594 C11.65669461 2.89589562 20.83698822 5.89122767 30 9.1875 C30.96268799 9.53264648 31.92537598 9.87779297 32.91723633 10.23339844 C33.81079834 10.56243164 34.70436035 10.89146484 35.625 11.23046875 C36.42164063 11.52332764 37.21828125 11.81618652 38.0390625 12.11791992 C40 13 40 13 42 15 C41.25234375 15.51949219 40.5046875 16.03898437 39.734375 16.57421875 C38.74953125 17.27160156 37.7646875 17.96898438 36.75 18.6875 C35.77546875 19.37199219 34.8009375 20.05648437 33.796875 20.76171875 C29.47017312 24.22428883 26.73888389 27.29123163 25.75 32.8125 C25.60046875 33.60269531 25.4509375 34.39289062 25.296875 35.20703125 C25.19890625 35.79871094 25.1009375 36.39039063 25 37 C20.76085312 35.67905757 16.74194651 34.06001209 12.68139648 32.28393555 C2.94938897 28.03627484 -6.87193055 24.60617119 -17.046875 21.58886719 C-18.63364078 21.1104573 -20.20942255 20.59572673 -21.78125 20.0703125 C-29.94203777 17.35936588 -38.51566026 16.24843766 -47 15 C-48.87558594 14.71576172 -48.87558594 14.71576172 -50.7890625 14.42578125 C-56.25956054 13.76678272 -61.74733686 13.81581087 -67.25 13.8125 C-68.30574219 13.80025391 -69.36148438 13.78800781 -70.44921875 13.77539062 C-107.94927648 13.70654107 -143.66757325 32.34180323 -170 58 C-174.96238865 62.94488463 -179.00376737 68.2693922 -182.8125 74.125 C-183.18592529 74.69903564 -183.55935059 75.27307129 -183.9440918 75.86450195 C-186.42191522 79.79470678 -188.23931964 83.72261227 -190 88 C-190.61068569 89.19492436 -191.23320906 90.38399008 -191.875 91.5625 C-197.37294374 102.5167364 -200.39471494 114.55773944 -203.66796875 126.3125 C-203.9004834 127.12630127 -204.13299805 127.94010254 -204.37255859 128.77856445 C-204.89559322 130.63035124 -205.38383526 132.49192078 -205.86328125 134.35546875 C-207.31348694 137.72931497 -209.08040153 139.11035967 -212 141.3125 C-212.98613281 142.08464844 -213.97226563 142.85679687 -214.98828125 143.65234375 C-215.98214844 144.42707031 -216.97601563 145.20179688 -218 146 C-232.86642534 158.21092916 -242.9542588 173.8605675 -246 193 C-246.31701495 197.94846185 -246.28906244 202.85677358 -246.1875 207.8125 C-246.17396484 209.08931641 -246.16042969 210.36613281 -246.14648438 211.68164062 C-246.11157893 214.78822548 -246.06255244 217.89387016 -246 221 C-248.36749221 218.1502711 -249.52256797 215.86388888 -250.3515625 212.26171875 C-250.56296875 211.35873047 -250.774375 210.45574219 -250.9921875 209.52539062 C-251.20101562 208.58888672 -251.40984375 207.65238281 -251.625 206.6875 C-251.94984375 205.30014648 -251.94984375 205.30014648 -252.28125 203.88476562 C-256.84389792 184.07104457 -257.22992611 164.6810299 -246.7421875 146.6796875 C-239.76101658 135.94183267 -230.59726099 126.73478587 -219.703125 119.9453125 C-216.82613556 117.8748779 -216.19234769 117.17068067 -215.4375 113.8125 C-215.10492188 112.49185547 -215.10492188 112.49185547 -214.765625 111.14453125 C-214.51296875 110.10683594 -214.2603125 109.06914062 -214 108 C-213.24224693 105.32864587 -212.47400671 102.66281755 -211.6875 100 C-211.36700684 98.91404541 -211.36700684 98.91404541 -211.04003906 97.80615234 C-210.36586366 95.53563649 -209.68470552 93.26736173 -209 91 C-208.77441406 90.25089355 -208.54882812 89.50178711 -208.31640625 88.72998047 C-198.32375479 55.99275582 -178.15931844 30.01596241 -147.65039062 13.74707031 C-142.18261859 10.97827434 -136.62218784 8.43779777 -131 6 C-130.03835937 5.57976563 -129.07671875 5.15953125 -128.0859375 4.7265625 C-118.78051594 1.0339349 -108.74107922 -0.8021785 -99 -3 C-98.21496094 -3.18256348 -97.42992187 -3.36512695 -96.62109375 -3.55322266 C-65.01007111 -10.81430157 -31.23556384 -7.63308423 0 0 Z " fill="#FCE1DD" transform="translate(303,23)"/>
<path d="M0 0 C7.59144728 6.62313231 13.09079826 14.41072931 14.87426758 24.5378418 C15.32802206 35.15294662 11.42414906 44.60107831 4.31567383 52.3659668 C-10.40171369 68.1036774 -33.86280636 75.43635925 -54.91381836 76.53442383 C-68.78932345 76.99539766 -82.20843823 76.90262517 -95.68432617 73.3659668 C-96.86510742 73.0875293 -98.04588867 72.8090918 -99.26245117 72.5222168 C-115.36999279 68.40663348 -130.90684108 60.22607199 -140.68432617 46.3659668 C-145.04995185 38.31351699 -146.93773994 30.53677755 -145.68432617 21.3659668 C-140.80718076 7.59695261 -132.18108464 -0.45016216 -119.68432617 -7.6340332 C-118.91604492 -8.08649414 -118.14776367 -8.53895508 -117.35620117 -9.00512695 C-83.70693284 -27.37488058 -29.88815309 -24.57326581 0 0 Z M-97.68432617 0.3659668 C-98.88186523 0.73979492 -100.0794043 1.11362305 -101.31323242 1.4987793 C-112.52168216 5.42108732 -122.76481473 11.86862886 -128.84448242 22.36987305 C-130.53991341 26.39947878 -130.47776231 30.37852482 -128.87963867 34.3815918 C-121.27722978 47.69891495 -107.45814707 53.63643303 -93.30151367 57.5065918 C-91.51100586 57.93198242 -91.51100586 57.93198242 -89.68432617 58.3659668 C-88.93062744 58.54546875 -88.17692871 58.7249707 -87.40039062 58.90991211 C-81.25245658 60.26981266 -75.40829978 60.68241882 -69.12182617 60.6159668 C-67.68673706 60.60364014 -67.68673706 60.60364014 -66.22265625 60.59106445 C-45.84456911 60.27512512 -23.69585283 56.98630104 -8.18432617 42.4284668 C-3.97583224 37.89226227 -2.08625666 34.12923891 -1.18432617 27.9284668 C-2.24777987 20.35135917 -7.21065581 15.1434076 -12.89916992 10.3190918 C-36.52552716 -6.24918116 -70.81219323 -8.15802673 -97.68432617 0.3659668 Z " fill="#040202" transform="translate(249.684326171875,155.634033203125)"/>
<path d="M0 0 C9.4042466 -0.12585609 18.7731739 0.17722233 28.1640625 0.63476562 C29.80794206 0.71174094 31.45218143 0.78137472 33.09667969 0.84375 C53.44582666 1.61987956 53.44582666 1.61987956 61.40234375 7.89453125 C66.58519072 14.36979298 69.7252441 20.05345441 69.48046875 28.52734375 C66.00958513 53.61364896 52.94018529 78.89931592 38 99 C34.70020991 97.90006997 34.32960204 97.44838509 32.46875 94.703125 C31.99332764 94.00276123 31.51790527 93.30239746 31.02807617 92.58081055 C30.27167847 91.42705933 30.27167847 91.42705933 29.5 90.25 C28.97317627 89.44796143 28.44635254 88.64592285 27.90356445 87.81958008 C10.9878443 61.58290132 -0.5361663 31.63381186 0 0 Z " fill="#FEC5C1" transform="translate(152,366)"/>
<path d="M0 0 C1.0211792 0.31578003 1.0211792 0.31578003 2.06298828 0.63793945 C4.78652942 1.7791267 6.16567003 2.65835422 8 5 C9.03069214 10.62349084 8.75208701 16.12330043 8.5 21.8125 C8.45985042 23.37946706 8.42335215 24.94653222 8.390625 26.51367188 C8.30266498 30.34487392 8.16476794 34.17136332 8 38 C5.36 38 2.72 38 0 38 C0.02320313 39.10472656 0.04640625 40.20945312 0.0703125 41.34765625 C0.56829558 75.65232524 -6.457097 107.45927377 -18.23046875 139.4921875 C-18.52332764 140.28995605 -18.81618652 141.08772461 -19.11791992 141.90966797 C-20 144 -20 144 -22 147 C-29.63054095 146.38955672 -36.70189474 144.20378179 -44 142 C-45.09034209 138.75433052 -44.95020678 137.12073717 -43.59375 134 C-43.26536133 133.21061035 -42.93697266 132.4212207 -42.59863281 131.60791016 C-42.23608398 130.7472998 -41.87353516 129.88668945 -41.5 129 C-32.37684731 106.04717852 -28.63437081 82.39664013 -26 58 C-25.91543045 57.34188828 -25.8308609 56.68377655 -25.74372864 56.00572205 C-24.9561976 49.65912218 -24.78349169 43.35539259 -24.68359375 36.96484375 C-24.66281265 35.84557999 -24.64203156 34.72631622 -24.62062073 33.57313538 C-24.55568639 30.02798084 -24.49650334 26.4827577 -24.4375 22.9375 C-24.39426131 20.52147752 -24.35064539 18.10546177 -24.30664062 15.68945312 C-24.20006322 9.79303947 -24.09819683 3.89655887 -24 -2 C-16.20869214 -4.59710262 -7.40734239 -3.28343619 0 0 Z " fill="#FDD5CF" transform="translate(320,322)"/>
<path d="M0 0 C48.40500179 47.56317568 68.61810706 122.65329638 75 188 C75.08702682 188.88036423 75.17405365 189.76072845 75.26371765 190.66777039 C75.95645665 198.19255451 76.16007857 205.65295908 76.16796875 213.20703125 C76.17418495 215.05478401 76.17418495 215.05478401 76.18052673 216.93986511 C76.19013334 220.89742946 76.1902004 224.85493114 76.1875 228.8125 C76.18755606 230.17342122 76.18761711 231.53434245 76.18768311 232.89526367 C76.18065664 252.34468584 75.80232384 271.62501873 74 291 C73.85196196 292.8696184 73.70603709 294.73940566 73.5625 296.609375 C72.31928155 311.84517285 69.19117259 326.41175543 64.875 341.0625 C64.62137695 341.92617188 64.36775391 342.78984375 64.10644531 343.6796875 C63.86249023 344.47761719 63.61853516 345.27554687 63.3671875 346.09765625 C63.15175293 346.80414307 62.93631836 347.51062988 62.71435547 348.23852539 C62 350 62 350 60 352 C59.34 352 58.68 352 58 352 C58.13575439 351.28908203 58.27150879 350.57816406 58.41137695 349.84570312 C62.09548612 330.27611433 64.56247314 310.85399247 66 291 C66.07202637 290.00919434 66.14405273 289.01838867 66.21826172 287.99755859 C70.60014313 222.87373488 65.18489495 157.0635193 41 96 C40.55398438 94.80117187 40.10796875 93.60234375 39.6484375 92.3671875 C35.93442495 82.59456229 31.26513123 73.46528718 26.25390625 64.29736328 C25.09400983 62.17224153 23.95180841 60.03854702 22.8125 57.90234375 C15.03621588 43.50771701 5.84038606 29.77327091 -4.83740234 17.36279297 C-7.99684311 13.56087374 -7.99684311 13.56087374 -8.01171875 10.91796875 C-6.71736777 8.46419914 -5.18232786 6.40724172 -3.4375 4.25 C-2.79683594 3.45078125 -2.15617187 2.6515625 -1.49609375 1.828125 C-1.00238281 1.22484375 -0.50867188 0.6215625 0 0 Z " fill="#FAE0DC" transform="translate(420,97)"/>
<path d="M0 0 C5.39601152 0.83384192 9.34954304 3.29301759 14 6 C13.25351591 14.74663261 11.8900351 23.35819315 10.4609375 32.015625 C3.93114532 72.94865063 7.32150858 117.50089824 22.43676758 156.2043457 C23 158 23 158 23 161 C18.36224637 162.88654385 15.04994191 164.21225675 10 164 C1.42273308 148.97990125 -2.94483354 132.28402327 -5.49169922 115.30541992 C-5.88648123 112.73819916 -6.31441384 110.18427423 -6.76220703 107.6262207 C-8.88951576 95.08739799 -9.48254617 82.89090842 -9.375 70.1875 C-9.37101196 69.22676575 -9.36702393 68.26603149 -9.36291504 67.27618408 C-9.29358609 53.01545602 -8.81093633 39.02290333 -6 25 C-5.83419434 24.15856445 -5.66838867 23.31712891 -5.49755859 22.45019531 C-3.97231703 14.87727734 -2.17213344 7.41421549 0 0 Z " fill="#FBE0DC" transform="translate(89,306)"/>
<path d="M0 0 C5.67476113 1.96434039 9.31400331 5.62800662 12 11 C12.09188942 13.18540811 12.11750236 15.37369969 12.11352539 17.56103516 C12.11367142 18.23432358 12.11381744 18.907612 12.1139679 19.6013031 C12.11327027 21.83058881 12.10548489 24.05979135 12.09765625 26.2890625 C12.09579154 27.83320063 12.09436789 29.37733934 12.09336853 30.92147827 C12.08954754 34.98870472 12.07972082 39.05589555 12.06866455 43.12310791 C12.05844144 47.2721712 12.05386898 51.42124025 12.04882812 55.5703125 C12.03809819 63.71355803 12.02102677 71.85677458 12 80 C7.58345745 80.08706286 3.16713543 80.14041378 -1.25 80.1875 C-2.50425781 80.21263672 -3.75851563 80.23777344 -5.05078125 80.26367188 C-6.25605469 80.27333984 -7.46132813 80.28300781 -8.703125 80.29296875 C-9.81333008 80.3086792 -10.92353516 80.32438965 -12.06738281 80.34057617 C-15.35000916 79.95935208 -16.68197998 79.31835911 -19 77 C-20.0782336 73.7652992 -20.14638895 71.37483397 -20.17700195 67.97143555 C-20.18983719 66.72972092 -20.20267242 65.48800629 -20.21589661 64.20866394 C-20.22406456 62.85135294 -20.23150818 61.49403742 -20.23828125 60.13671875 C-20.24235678 59.45190744 -20.2464323 58.76709614 -20.25063133 58.06153297 C-20.27147252 54.43661427 -20.28578247 50.81173319 -20.29516602 47.18676758 C-20.30622496 43.45087324 -20.34062351 39.71557543 -20.38033772 35.97989178 C-20.40653523 33.09988835 -20.41486058 30.22002641 -20.41844749 27.33991432 C-20.42330563 25.96324448 -20.43489772 24.58658062 -20.45348549 23.21002769 C-20.62238425 9.8726424 -20.62238425 9.8726424 -16 5 C-10.58420856 0.22894564 -7.09115125 -0.64682799 0 0 Z " fill="#404851" transform="translate(36,416)"/>
<path d="M0 0 C4.7331015 4.78413224 6.12567525 7.87861228 6.11352539 14.56103516 C6.11367142 15.23432358 6.11381744 15.907612 6.1139679 16.6013031 C6.11327027 18.83058881 6.10548489 21.05979135 6.09765625 23.2890625 C6.09579154 24.83320063 6.09436789 26.37733934 6.09336853 27.92147827 C6.08954754 31.98870472 6.07972082 36.05589555 6.06866455 40.12310791 C6.05844144 44.2721712 6.05386898 48.42124025 6.04882812 52.5703125 C6.03809819 60.71355803 6.02102677 68.85677458 6 77 C1.58345745 77.08706286 -2.83286457 77.14041378 -7.25 77.1875 C-8.50425781 77.21263672 -9.75851562 77.23777344 -11.05078125 77.26367188 C-12.25605469 77.27333984 -13.46132813 77.28300781 -14.703125 77.29296875 C-15.81333008 77.3086792 -16.92353516 77.32438965 -18.06738281 77.34057617 C-21.35000916 76.95935208 -22.68197998 76.31835911 -25 74 C-26.0782336 70.7652992 -26.14638895 68.37483397 -26.17700195 64.97143555 C-26.18983719 63.72972092 -26.20267242 62.48800629 -26.21589661 61.20866394 C-26.22406456 59.85135294 -26.23150818 58.49403742 -26.23828125 57.13671875 C-26.24235678 56.45190744 -26.2464323 55.76709614 -26.25063133 55.06153297 C-26.27147252 51.43661427 -26.28578247 47.81173319 -26.29516602 44.18676758 C-26.30622496 40.45087324 -26.34062351 36.71557543 -26.38033772 32.97989178 C-26.40653523 30.09988835 -26.41486058 27.22002641 -26.41844749 24.33991432 C-26.42330563 22.96324448 -26.43489772 21.58658062 -26.45348549 20.21002769 C-26.62216088 6.89028118 -26.62216088 6.89028118 -22 2 C-15.44652705 -4.06196248 -7.70934473 -5.02783352 0 0 Z " fill="#404851" transform="translate(370,419)"/>
<path d="M0 0 C1.65902344 0.50466797 1.65902344 0.50466797 3.3515625 1.01953125 C15.18695811 4.79047472 15.18695811 4.79047472 17.265625 7.8828125 C19.87835193 13.83402383 21.39969631 18.61870208 19.33984375 25.06640625 C17.02654135 30.34394029 13.57908433 33.60427454 9 37 C8.34 36.67 7.68 36.34 7 36 C7.28875 35.5153125 7.5775 35.030625 7.875 34.53125 C10.71371986 29.40578358 11.8645857 25.85996974 11 20 C8.70800597 17.03949126 8.70800597 17.03949126 6 15 C5.67 14.67 5.34 14.34 5 14 C-1.3322563 13.44453892 -5.76284777 14.29936764 -11 18 C-15.93408679 22.60660315 -18.96603638 27.16263948 -19.375 34 C-19.29782785 38.09012397 -17.80553691 40.01911703 -15 43 C-15 43.66 -15 44.32 -15 45 C-18.24998112 45.02909763 -21.49992857 45.04683161 -24.75 45.0625 C-25.67039063 45.07087891 -26.59078125 45.07925781 -27.5390625 45.08789062 C-28.42851562 45.09111328 -29.31796875 45.09433594 -30.234375 45.09765625 C-31.05131836 45.10289307 -31.86826172 45.10812988 -32.70996094 45.11352539 C-34.93968135 45.00299021 -36.86133755 44.62055567 -39 44 C-38.125 39.125 -38.125 39.125 -37 38 C-36.44394589 31.66098309 -37.33945546 27.26485727 -41 22 C-45.303723 17.33360372 -50.64974487 13.92344307 -57.0625 13.5625 C-61.42316369 14.04701819 -62.98604291 14.89471087 -66 18 C-67.32229189 20.64458379 -67.09677194 22.67761301 -67.0625 25.625 C-67.04896484 27.12933594 -67.04896484 27.12933594 -67.03515625 28.6640625 C-67.02355469 29.43492187 -67.01195312 30.20578125 -67 31 C-71.22308739 27.91828758 -73.87476361 25.06882652 -75.6875 20.125 C-76.38254972 15.3986619 -76.63012257 12.21177417 -74.375 7.875 C-69.88635248 3.14678983 -63.06410634 1.74497754 -57 0 C-55.38351563 -0.48339844 -55.38351563 -0.48339844 -53.734375 -0.9765625 C-37.0106721 -5.13804206 -16.47572679 -5.23424564 0 0 Z " fill="#F9959C" transform="translate(212,155)"/>
<path d="M0 0 C4.1074458 3.61863679 6.62146172 7.98604455 9.4453125 12.60546875 C10.53277373 14.33028048 11.62270249 16.05353846 12.71484375 17.77539062 C14.41732687 20.46356032 16.10589088 23.15592555 17.75341797 25.87817383 C25.56563493 38.73779508 33.17055821 47.59071382 48 52 C50.34698526 52.47282946 52.61285715 52.76466727 55 53 C50.82521208 60.8380952 42.59321429 67.27055584 34.31640625 70.46875 C28.92983758 71.70411819 23.77443883 71.32648301 18.76953125 68.93359375 C13.13314324 65.10695508 9.52063058 59.73565647 6 54 C5.60941406 53.37480469 5.21882813 52.74960938 4.81640625 52.10546875 C-0.73455802 42.19148976 -2.35517386 31.36448788 -2.375 20.1875 C-2.37661133 19.32874268 -2.37822266 18.46998535 -2.37988281 17.58520508 C-2.2754943 11.54632959 -1.36335006 5.8777802 0 0 Z " fill="#FDA7AC" transform="translate(333,67)"/>
<path d="M0 0 C3.465 1.98 3.465 1.98 7 4 C15.12770263 8.39462991 22.90983635 12.05210779 32 14 C32 11.36 32 8.72 32 6 C38.50746507 12.95625577 39.52737744 21.1898688 39.5 30.375 C39.52835937 31.26316406 39.55671875 32.15132813 39.5859375 33.06640625 C39.60499977 39.3664859 39.60499977 39.3664859 37.09375 41.99609375 C32.76974038 43.39921303 28.50054531 44.09837282 24 44.6875 C23.12988281 44.81705078 22.25976562 44.94660156 21.36328125 45.08007812 C14.06970815 46.08627179 7.52695474 46 0 46 C0 30.82 0 15.64 0 0 Z " fill="#FBD4CE" transform="translate(392,450)"/>
<path d="M0 0 C5.08671155 5.93210868 5.31265322 12.46517346 5.14453125 19.8828125 C5.1340979 20.76138916 5.12366455 21.63996582 5.11291504 22.54516602 C5.08585335 24.69693636 5.04438383 26.84851725 5 29 C-2.07995205 29.10196962 -9.15971257 29.17170349 -16.24023438 29.21972656 C-18.64557981 29.23976034 -21.05087703 29.26699522 -23.45605469 29.30175781 C-26.92655378 29.35063808 -30.39640526 29.37305205 -33.8671875 29.390625 C-34.93113739 29.41127014 -35.99508728 29.43191528 -37.09127808 29.45318604 C-45.62113432 29.45571183 -53.28608477 27.93058798 -59.625 21.875 C-62 19 -62 19 -62 17 C-51.51010666 13.64922178 -41.00610924 10.37717361 -30.43359375 7.296875 C-25.32301026 5.8070179 -20.2237567 4.27976458 -15.125 2.75 C-13.83057983 2.36231445 -13.83057983 2.36231445 -12.51000977 1.96679688 C-11.70490967 1.72509766 -10.89980957 1.48339844 -10.0703125 1.234375 C-9.35633301 1.02006836 -8.64235352 0.80576172 -7.90673828 0.58496094 C-2.87558341 -0.9585278 -2.87558341 -0.9585278 0 0 Z " fill="#3F4750" transform="translate(171,467)"/>
<path d="M0 0 C7.39141114 1.98143874 14.7401589 4.07538735 22.06640625 6.28515625 C23.06711655 6.58691269 24.06782684 6.88866913 25.09886169 7.1995697 C27.19061758 7.83142224 29.28209162 8.46420851 31.37329102 9.09790039 C33.5146911 9.74558253 35.65695942 10.39040041 37.80004883 11.0324707 C40.91156123 11.9647174 44.02047469 12.90519526 47.12890625 13.84765625 C48.09026993 14.13415543 49.05163361 14.4206546 50.04212952 14.71583557 C50.92742844 14.98629196 51.81272736 15.25674835 52.72485352 15.53540039 C53.5044191 15.77061905 54.28398468 16.00583771 55.08717346 16.2481842 C57 17 57 17 59 19 C58.18587198 20.0978393 57.34720236 21.17747787 56.5 22.25 C56.0359375 22.85328125 55.571875 23.4565625 55.09375 24.078125 C48.36878926 30.25103673 41.76897974 30.55794429 33.0625 30.390625 C31.94182129 30.38496521 30.82114258 30.37930542 29.66650391 30.37347412 C26.11055583 30.35120292 22.55564011 30.30102177 19 30.25 C16.5794417 30.22992313 14.15886751 30.21167445 11.73828125 30.1953125 C5.82517257 30.15136847 -0.08733993 30.08454874 -6 30 C-6.06609077 26.96057752 -6.11429403 23.92260914 -6.15234375 20.8828125 C-6.17276733 20.02792236 -6.19319092 19.17303223 -6.2142334 18.29223633 C-6.27735013 11.56302159 -5.06154314 6.51304544 -1 1 C-0.67 0.67 -0.34 0.34 0 0 Z " fill="#404851" transform="translate(230,466)"/>
<path d="M0 0 C-1.54702335 18.87368489 -9.12572082 39.63113566 -22.875 53 C-26.87207126 56.23462414 -30.75639607 58.30013895 -36 58 C-39.28657207 56.71134408 -42.11929671 55.02943163 -45 53 C-42.85042619 36.28423527 -35.87381634 24.01004668 -23 13 C-5.44037412 0 -5.44037412 0 0 0 Z " fill="#E05D75" transform="translate(421,46)"/>
<path d="M0 0 C0.00586624 0.61308014 0.01173248 1.22616028 0.01777649 1.8578186 C0.08180457 8.24975204 0.16624878 14.64118638 0.26245117 21.03271484 C0.29566646 23.41676241 0.32370892 25.80088797 0.34643555 28.18505859 C0.38004318 31.61589739 0.43236407 35.04602363 0.48828125 38.4765625 C0.49467117 39.53928375 0.5010611 40.602005 0.50764465 41.69692993 C0.61620441 47.18456884 0.84836085 51.29599026 4 56 C8.56926551 60.2265706 12.08939483 61.10350284 18.1875 61.5625 C20.105625 61.706875 22.02375 61.85125 24 62 C24 67.28 24 72.56 24 78 C19.58296833 78.08079936 15.16740904 78.14041087 10.75 78.1875 C9.49574219 78.21263672 8.24148437 78.23777344 6.94921875 78.26367188 C5.74394531 78.27333984 4.53867187 78.28300781 3.296875 78.29296875 C2.18666992 78.3086792 1.07646484 78.32438965 -0.06738281 78.34057617 C-3.35000916 77.95935208 -4.68197998 77.31835911 -7 75 C-8.0782336 71.7652992 -8.14638895 69.37483397 -8.17700195 65.97143555 C-8.18983719 64.72972092 -8.20267242 63.48800629 -8.21589661 62.20866394 C-8.22406456 60.85135294 -8.23150818 59.49403742 -8.23828125 58.13671875 C-8.24235678 57.45190744 -8.2464323 56.76709614 -8.25063133 56.06153297 C-8.27147252 52.43661427 -8.28578247 48.81173319 -8.29516602 45.18676758 C-8.30622496 41.45087324 -8.34062351 37.71557543 -8.38033772 33.97989178 C-8.40653523 31.09988835 -8.41486058 28.22002641 -8.41844749 25.33991432 C-8.42330563 23.96324448 -8.43489772 22.58658062 -8.45348549 21.21002769 C-8.62142796 7.94815722 -8.62142796 7.94815722 -4 3 C-3.443125 2.38125 -2.88625 1.7625 -2.3125 1.125 C-1 0 -1 0 0 0 Z " fill="#32383F" transform="translate(24,418)"/>
<path d="M0 0 C0 4.96531831 -2.94981219 8.2346379 -6 12 C-22.52938566 28.44003763 -48.74540071 33.25990321 -71.27197266 33.24902344 C-93.25632641 32.85382187 -116.71769186 28.19002732 -133.3359375 12.734375 C-135.69554276 10.27506811 -137.41652977 8.0292474 -139 5 C-138.67 4.01 -138.34 3.02 -138 2 C-137.44054687 2.49628906 -136.88109375 2.99257812 -136.3046875 3.50390625 C-127.05361639 11.34203242 -116.97320075 16.34721471 -105.4375 19.8125 C-104.46671509 20.10483521 -104.46671509 20.10483521 -103.47631836 20.40307617 C-92.55597357 23.45797228 -81.55068254 24.36744532 -70.25 24.3125 C-69.02498779 24.30686035 -67.79997559 24.3012207 -66.5378418 24.29541016 C-42.44230743 23.97407273 -17.51784817 17.42731665 0 0 Z " fill="#FBA5AA" transform="translate(254,207)"/>
<path d="M0 0 C2.97 0.33 5.94 0.66 9 1 C10.81046487 5.12531144 12.47862915 9.24631884 13.99072266 13.49291992 C16.3494614 20.07573496 19.01145536 26.42472331 22.125 32.6875 C22.44944092 33.34613037 22.77388184 34.00476074 23.1081543 34.68334961 C25.05086731 38.5012416 27.31103626 41.68361138 30 45 C30 45.66 30 46.32 30 47 C28.00600228 47.5234244 26.00413947 48.01685924 24 48.5 C22.88625 48.7784375 21.7725 49.056875 20.625 49.34375 C13.81473571 50.31007128 6.87847923 50 0 50 C0 33.5 0 17 0 0 Z " fill="#FAA5AA" transform="translate(64,446)"/>
<path d="M0 0 C2.17639242 1.77355055 3.92366553 3.4215498 5.1875 5.94921875 C5.73434233 12.29258983 4.92576163 16.71774088 1.1875 21.94921875 C-4.02726957 27.59670324 -8.65002211 30.51106318 -16.375 31.32421875 C-20.45843925 30.87875265 -21.94117003 29.82054872 -24.8125 26.94921875 C-27.31364278 23.19750457 -27.41913709 20.28900713 -26.8125 15.94921875 C-24.54636148 8.40498543 -19.0015883 3.35794452 -12.3125 -0.48828125 C-8.00458182 -1.45756284 -3.93308204 -2.28017041 0 0 Z " fill="#050203" transform="translate(218.8125,169.05078125)"/>
<path d="M0 0 C7.41139013 2.78708263 12.52198692 7.60715862 16.375 14.4375 C17.25067488 18.02776699 17.61574558 21.33520098 17 25 C14.93228896 28.27981751 13.22880989 29.84746007 10 32 C3.6861587 32.64208556 -0.80237024 31.72444927 -6 28 C-11.41486063 22.90428636 -14.60762775 18.53135024 -15.4375 11.0625 C-15.3385063 6.31080264 -13.32811973 4.24887878 -10 1 C-6.73165786 -0.63417107 -3.53101375 -0.52512512 0 0 Z " fill="#050303" transform="translate(159,168)"/>
<path d="M0 0 C2.17639242 1.77355055 3.92366553 3.4215498 5.1875 5.94921875 C5.73434233 12.29258983 4.92576163 16.71774088 1.1875 21.94921875 C-4.02726957 27.59670324 -8.65002211 30.51106318 -16.375 31.32421875 C-20.45843925 30.87875265 -21.94117003 29.82054872 -24.8125 26.94921875 C-27.31364278 23.19750457 -27.41913709 20.28900713 -26.8125 15.94921875 C-24.54636148 8.40498543 -19.0015883 3.35794452 -12.3125 -0.48828125 C-8.00458182 -1.45756284 -3.93308204 -2.28017041 0 0 Z " fill="#050403" transform="translate(266.8125,105.05078125)"/>
<path d="M0 0 C7.00517352 3.75277153 11.97058266 8.16701226 14.5 15.875 C15.11357114 20.32339074 14.84996131 22.23541553 12.6875 26.1875 C10.5 28.875 10.5 28.875 7.5 30.875 C1.1861587 31.51708556 -3.30237024 30.59944927 -8.5 26.875 C-13.91486063 21.77928636 -17.10762775 17.40635024 -17.9375 9.9375 C-17.8385063 5.18580264 -15.82811973 3.12387878 -12.5 -0.125 C-8.36713277 -2.19143362 -4.25333016 -1.36714184 0 0 Z " fill="#040303" transform="translate(129.5,105.125)"/>
<path d="M0 0 C6.58151914 2.58559681 10.65370391 7.28202477 13.96484375 13.40625 C15.54980412 17.37762241 15.98897456 20.82158247 15 25 C13.20606332 27.87029869 12.01736724 29.49131638 9 31 C2.70899931 31.81853169 -1.97401619 31.27180425 -7.1796875 27.5625 C-11.72440155 23.6614579 -16.39282883 18.94661262 -17.3359375 12.81640625 C-17.40703353 8.71416548 -17.35398847 6.56638155 -15.125 3 C-10.73422085 -1.13249803 -5.75940232 -0.76944396 0 0 Z " fill="#F6F9FC" transform="translate(459,327)"/>
<path d="M0 0 C-2.35043521 2.42878305 -4.70753237 4.74967179 -7.27734375 6.94921875 C-17.87500829 16.04459495 -24.17393354 26.52857649 -30 39 C-33.8477196 37.7174268 -34.41158565 36.25367373 -36.57421875 32.87109375 C-37.24130859 31.83662109 -37.90839844 30.80214844 -38.59570312 29.73632812 C-39.28599609 28.64771484 -39.97628906 27.55910156 -40.6875 26.4375 C-41.38939453 25.34501953 -42.09128906 24.25253906 -42.81445312 23.12695312 C-44.55042305 20.42261903 -46.27852521 17.71357542 -48 15 C-41.15934096 7.66877577 -32.32126601 5.20895417 -22.75 3.25 C-21.79609375 3.04246094 -20.8421875 2.83492187 -19.859375 2.62109375 C-13.21112151 1.18987251 -6.83151217 -0.16265505 0 0 Z " fill="#FB7E8A" transform="translate(394,42)"/>
<path d="M0 0 C1.299375 0.7734375 1.299375 0.7734375 2.625 1.5625 C12.07950744 6.92133013 21.29067701 11.70514507 32 14 C32 11.36 32 8.72 32 6 C38.65452425 13.11345695 39.45520499 21.20655397 39.1875 30.5625 C39.16719727 31.93245117 39.16719727 31.93245117 39.14648438 33.33007812 C39.11155315 35.55403259 39.06251586 37.77667952 39 40 C38.01 40.495 38.01 40.495 37 41 C36.78988281 40.32453125 36.57976562 39.6490625 36.36328125 38.953125 C34.68786916 34.64314298 33.49427765 31.68855985 29.16015625 29.69140625 C26.92030207 29.0921587 24.67222769 28.52301921 22.41796875 27.98046875 C17.84797165 26.66953244 14.39518627 24.46967207 10.5234375 21.76171875 C8.07417194 19.97334392 8.07417194 19.97334392 5.5390625 18.70703125 C3.07459634 17.30185318 1.61858958 16.34400787 0 14 C-0.66336893 9.26089235 -0.4686229 4.75131555 0 0 Z " fill="#FDE1DD" transform="translate(392,450)"/>
<path d="M0 0 C0.33 0 0.66 0 1 0 C1.33 20.13 1.66 40.26 2 61 C-10.47692308 61 -10.47692308 61 -14.5625 59.25 C-15.36816406 58.92515625 -16.17382812 58.6003125 -17.00390625 58.265625 C-19 57 -19 57 -20.51953125 55.3203125 C-21.30989801 51.50341938 -19.02837 48.80122789 -17.125 45.625 C-9.11144719 31.42078663 -4.08410437 15.74529713 0 0 Z " fill="#F9A4A9" transform="translate(327,434)"/>
<path d="M0 0 C-0.928125 0.804375 -0.928125 0.804375 -1.875 1.625 C-5.83205564 6.04759159 -6.25019389 10.81983853 -6.24291992 16.58447266 C-6.24599655 17.87245758 -6.24907318 19.1604425 -6.25224304 20.48745728 C-6.24534569 21.87966085 -6.23807875 23.27186264 -6.23046875 24.6640625 C-6.22927527 26.1032202 -6.22882414 27.54237869 -6.2290802 28.98153687 C-6.22752063 31.98904335 -6.21927015 34.99642992 -6.20581055 38.00390625 C-6.18879089 41.85513836 -6.18499743 45.70623933 -6.18575573 49.55750465 C-6.18548364 52.52577969 -6.17999665 55.49402618 -6.17275429 58.46229172 C-6.16957743 59.88243774 -6.16760251 61.30258698 -6.16686058 62.72273636 C-6.16468834 64.70660825 -6.15513872 66.69046791 -6.14526367 68.67431641 C-6.14145187 69.80205475 -6.13764008 70.92979309 -6.13371277 72.09170532 C-6.01951222 74.57560304 -5.72375269 76.63431199 -5 79 C-8.3125 78.8125 -8.3125 78.8125 -12 78 C-14.92786898 74.29159652 -15.38099747 71.39550953 -15.40405273 66.74438477 C-15.41673691 65.5028212 -15.42942108 64.26125763 -15.44248962 62.98207092 C-15.44043796 61.635181 -15.43744975 60.28829222 -15.43359375 58.94140625 C-15.43815857 57.55044806 -15.44346504 56.15949212 -15.44947815 54.76853943 C-15.45839777 51.85756247 -15.45599967 48.94686001 -15.44604492 46.03588867 C-15.43455896 42.31565677 -15.45476536 38.59637461 -15.48396206 34.87626743 C-15.50235802 32.00479672 -15.50202492 29.13355216 -15.49632454 26.26203728 C-15.49617172 24.89097703 -15.50218322 23.51990106 -15.51461601 22.14889717 C-15.61779845 8.90531674 -15.61779845 8.90531674 -11 4 C-4.33333333 -2.16666667 -4.33333333 -2.16666667 0 0 Z " fill="#32383F" transform="translate(359,417)"/>
<path d="M0 0 C-0.57021375 6.95660771 -2.01302694 13.31427305 -4 20 C-4.495 19.01 -4.495 19.01 -5 18 C-14.12310501 22.57371664 -22.23983122 27.28392665 -30 34 C-31.24136719 34.928125 -31.24136719 34.928125 -32.5078125 35.875 C-35.29585296 38.25226333 -37.16588386 40.74314542 -39.25 43.75 C-40.47893268 45.5148582 -41.72305629 47.26956226 -43 49 C-43.33 49 -43.66 49 -44 49 C-43.0126426 35.4238357 -35.49019109 24.77900707 -25.9140625 15.4921875 C-7.79937304 0 -7.79937304 0 0 0 Z " fill="#BA3A55" transform="translate(421,46)"/>
<path d="M0 0 C9.99734952 3.75812774 18.37857467 9.59028093 26 17 C24.06254214 22.39118709 21.13092532 27.17584177 18.27734375 32.1171875 C16.2433244 35.67504312 14.39142659 39.12820428 13 43 C10.41918487 40.71941802 9.25456753 38.66748842 8.02734375 35.46484375 C7.68509766 34.57216797 7.34285156 33.67949219 6.99023438 32.75976562 C6.46913086 31.36274414 6.46913086 31.36274414 5.9375 29.9375 C5.58623047 29.03322266 5.23496094 28.12894531 4.87304688 27.19726562 C1.43465579 18.10405366 -0.31343567 9.71650571 0 0 Z " fill="#B83955" transform="translate(74,46)"/>
<path d="M0 0 C1.65 1.32 3.3 2.64 5 4 C19.18955941 11.92588247 35.11594983 15.37047352 51 18 C51 18.33 51 18.66 51 19 C34.17 19 17.34 19 0 19 C0 12.73 0 6.46 0 0 Z " fill="#32383F" transform="translate(224,477)"/>
<path d="M0 0 C0.33 0 0.66 0 1 0 C1 6.27 1 12.54 1 19 C-15.83 19 -32.66 19 -50 19 C-46.82492519 17.41246259 -45.11452586 16.69232088 -41.796875 16.140625 C-40.98903564 15.99761963 -40.18119629 15.85461426 -39.34887695 15.70727539 C-38.49124756 15.55637451 -37.63361816 15.40547363 -36.75 15.25 C-24.47209888 12.93722499 -11.30985639 9.39096199 -1 2 C-0.67 1.34 -0.34 0.68 0 0 Z " fill="#32383F" transform="translate(175,477)"/>
<path d="M0 0 C2.97 0.33 5.94 0.66 9 1 C11.11344237 5.67181998 12.93905152 10.43075746 14.6875 15.25 C15.12449219 16.45140625 15.56148437 17.6528125 16.01171875 18.890625 C17 22 17 22 17 25 C13.93618406 26.53190797 10.73034134 26.10243613 7.375 26.0625 C4.94125 26.041875 2.5075 26.02125 0 26 C0 17.42 0 8.84 0 0 Z " fill="#FAC2BE" transform="translate(64,446)"/>
<path d="M0 0 C-4.03483283 4.16932726 -8.33351223 7.99154492 -12.6953125 11.81640625 C-14.75209396 13.76511953 -16.38942804 15.67888158 -18 18 C-25.28229245 17.72519651 -31.04196143 15.20936996 -37 11 C-37.33 10.01 -37.66 9.02 -38 8 C-30.93562119 4.88968802 -23.73527785 3.18966269 -16.1875 1.75 C-15.28040283 1.57500977 -14.37330566 1.40001953 -13.4387207 1.21972656 C-8.90046597 0.38720369 -4.6361653 -0.21456633 0 0 Z " fill="#F59299" transform="translate(394,42)"/>
<path d="M0 0 C9.75278333 6.06423066 9.75278333 6.06423066 13 11 C13.4125 11.598125 13.825 12.19625 14.25 12.8125 C15.72390983 17.11140368 15.74147614 21.10440013 14.1015625 25.296875 C13.12894568 27.24210865 12.11287362 29.13196214 11 31 C10.34 31 9.68 31 9 31 C-0.76600985 8.42610837 -0.76600985 8.42610837 0 0 Z " fill="#DE5C74" transform="translate(75,54)"/>
<path d="M0 0 C4.9145115 0.57335967 6.29902506 1.98652506 9.75 5.4375 C11.13125018 8.20000036 10.94079306 10.38481099 10.75 13.4375 C8.75 15.4375 8.75 15.4375 5.5 15.875 C0.5854885 15.30164033 -0.79902506 13.88847494 -4.25 10.4375 C-5.63125018 7.67499964 -5.44079306 5.49018901 -5.25 2.4375 C-3.25 0.4375 -3.25 0.4375 0 0 Z " fill="#F6F9FB" transform="translate(455.25,366.5625)"/>
<path d="M0 0 C6.40629424 -0.20852314 11.92972642 -0.1583195 18 2 C16.02 4.31 14.04 6.62 12 9 C8.89383788 7.44691894 6.48417379 5.99825692 3.75 3.9375 C3.04359375 3.41027344 2.3371875 2.88304687 1.609375 2.33984375 C1.07828125 1.89769531 0.5471875 1.45554688 0 1 C0 0.67 0 0.34 0 0 Z " fill="#E97883" transform="translate(100,42)"/>
<path d="M0 0 C0.33 3.3 0.66 6.6 1 10 C-1.375 9.75 -1.375 9.75 -4 9 C-5.3125 6.9375 -5.3125 6.9375 -6 5 C-1.125 0 -1.125 0 0 0 Z " fill="#F5BEBA" transform="translate(312,482)"/>
<path d="M0 0 C0.33 0.66 0.66 1.32 1 2 C2.65 2 4.3 2 6 2 C4.02 4.97 2.04 7.94 0 11 C-1.04973814 6.80104745 -0.72795155 4.20594226 0 0 Z " fill="#E6999D" transform="translate(332,406)"/>
</svg>
