<?xml version="1.0" encoding="UTF-8"?>
<svg version="1.1" xmlns="http://www.w3.org/2000/svg" width="512" height="512">
<path d="M0 0 C1.46630859 1.70800781 1.46630859 1.70800781 2.6484375 3.953125 C3.09324463 4.78980713 3.53805176 5.62648926 3.99633789 6.48852539 C4.45129639 7.39981201 4.90625488 8.31109863 5.375 9.25 C5.85251709 10.18642334 6.33003418 11.12284668 6.82202148 12.08764648 C13.31669398 25.20734499 18.51424241 39.35467514 20 54 C21.96066406 53.94779297 21.96066406 53.94779297 23.9609375 53.89453125 C41.835287 53.56268252 62.65374062 54.82687031 79 63 C76.44732149 83.37741635 66.78333399 102.45319057 55 119 C56.43279297 119.81791016 56.43279297 119.81791016 57.89453125 120.65234375 C83.52503518 135.50279285 99.46410415 155.326493 107.1015625 183.94140625 C109.87909791 196.80373144 112.20802179 217.37593463 108 230 C113.28 230.33 118.56 230.66 124 231 C123.96519531 229.741875 123.93039062 228.48375 123.89453125 227.1875 C123.42436581 203.016722 129.76983883 183.17768971 141 162 C145.99158403 162.56232351 150.06566222 164.18262323 154.5 166.4375 C155.19778564 166.79166992 155.89557129 167.14583984 156.61450195 167.51074219 C169.34650013 174.16305618 183.93287762 183.89931643 192 196 C195.5711751 194.29695786 198.91419356 192.27252148 202.3125 190.25 C212.87869821 184.15624469 223.77619637 180.12798256 235.5625 177.125 C236.4076416 176.90948486 237.2527832 176.69396973 238.12353516 176.47192383 C242.5076913 175.41466131 246.45429169 174.74950716 251 175 C251.65035371 177.51974253 252.29537493 180.04065935 252.9375 182.5625 C253.11990234 183.26697266 253.30230469 183.97144531 253.49023438 184.69726562 C253.75610352 185.74624023 253.75610352 185.74624023 254.02734375 186.81640625 C254.27085571 187.76688843 254.27085571 187.76688843 254.51928711 188.73657227 C255.66564488 194.13417659 256.12743744 199.3831714 256.1328125 204.89453125 C256.13410156 206.18037109 256.13539063 207.46621094 256.13671875 208.79101562 C256.13462402 209.45270752 256.1325293 210.11439941 256.13037109 210.79614258 C256.1250412 212.79703178 256.13083667 214.79794047 256.13671875 216.79882812 C256.1295925 223.92863887 255.91706136 230.92567584 255 238 C256.4540625 238.49306641 256.4540625 238.49306641 257.9375 238.99609375 C277.2269638 245.75068619 292.94787525 256.26664147 308 270 C306.48783064 275.23751375 303.11717126 278.47792559 299.4375 282.3125 C298.80126709 282.98112061 298.16503418 283.64974121 297.50952148 284.33862305 C284.14614787 298.26848566 269.92174595 307.88782224 252 315 C252.27674561 315.48654053 252.55349121 315.97308105 252.83862305 316.47436523 C266.11257001 340.05806663 272.4568071 364.23991114 265 391 C255.71746349 421.46749819 234.4596598 443.82152144 209 462 C208.39784668 462.43618652 207.79569336 462.87237305 207.17529297 463.32177734 C176.77268422 485.18404015 141.18455975 499.26209891 105 508 C104.19771973 508.1964209 103.39543945 508.3928418 102.56884766 508.59521484 C92.34819803 510.99372795 82.16037609 511.29559197 71.6875 511.375 C69.80949707 511.39614868 69.80949707 511.39614868 67.89355469 511.41772461 C54.42965209 511.34743329 41.42534199 509.16154069 30.890625 500.20703125 C8.84101528 477.4077348 0.54202782 438.95875191 -0.07421875 408.30859375 C-0.04972656 407.54675781 -0.02523437 406.78492188 0 406 C-0.86882812 406.40992188 -1.73765625 406.81984375 -2.6328125 407.2421875 C-3.78523437 407.78101563 -4.93765625 408.31984375 -6.125 408.875 C-7.26195312 409.40867187 -8.39890625 409.94234375 -9.5703125 410.4921875 C-23.08534403 416.43387562 -35.65401028 415.72864255 -49.3125 410.4375 C-68.49663708 402.56343221 -84.2257801 389.25703601 -99 375 C-99.88268555 374.15018555 -99.88268555 374.15018555 -100.78320312 373.28320312 C-108.40443838 365.90649948 -115.44561848 358.3542894 -122 350 C-122.92843252 348.8702895 -123.85958146 347.74280774 -124.79296875 346.6171875 C-136.26933773 332.69420386 -145.98937837 317.66535152 -154.87695312 301.97900391 C-155.59304817 300.71711991 -156.31510118 299.45858549 -157.04492188 298.20458984 C-176.88314195 264.06776963 -188.2023939 222.94782754 -178.47998047 183.91210938 C-173.16147277 164.53924309 -160.80113532 144.30592045 -143 134 C-144.74085745 129.79900867 -147.68222918 126.63927437 -150.5625 123.1875 C-156.53748187 115.87823765 -161.42066782 108.24086572 -166 100 C-166.48726562 99.13761719 -166.97453125 98.27523437 -167.4765625 97.38671875 C-168.625 95.25 -168.625 95.25 -170 92 C-168.62266016 87.86798047 -165.87768357 86.82059671 -162.25 84.8125 C-161.54770264 84.42175293 -160.84540527 84.03100586 -160.12182617 83.62841797 C-146.69798616 76.40904507 -129.53756092 68.54963592 -114 69 C-114.165 68.38125 -114.33 67.7625 -114.5 67.125 C-117.44066855 48.74582159 -112.10613801 27.2724552 -106 10 C-99.82206306 10.52901625 -94.35459239 11.54537706 -88.5 13.5625 C-87.73171875 13.82426025 -86.9634375 14.08602051 -86.171875 14.35571289 C-74.6874413 18.38910418 -63.52738726 23.22252702 -53.8828125 30.75 C-51.96010614 32.27655184 -51.96010614 32.27655184 -49 32 C-47.60916584 30.63134604 -47.60916584 30.63134604 -46.25 28.75 C-37.51471751 18.35611957 -25.66007732 10.71150339 -14 4 C-13.13117188 3.46117187 -12.26234375 2.92234375 -11.3671875 2.3671875 C-10.58601562 1.89539063 -9.80484375 1.42359375 -9 0.9375 C-8.34 0.53402344 -7.68 0.13054687 -7 -0.28515625 C-4.27212999 -1.26015666 -2.74761473 -0.85628624 0 0 Z " fill="#F4253B" transform="translate(193,1)"/>
<path d="M0 0 C1.91985882 2.34302956 3.2245602 4.75849848 4.625 7.44140625 C6.37665476 10.70087747 8.13793856 12.67940964 11 15 C14.4474944 15 15.92161958 14.16341096 18.9375 12.5625 C33.47248593 4.86750745 53.59466632 7.99475875 68.71557617 12.59521484 C70.42175196 13.14130454 72.12434715 13.69877297 73.82226562 14.27001953 C75.58052254 14.8593904 77.35832306 15.39026446 79.140625 15.90234375 C97.94049968 21.69801064 115.22046863 35.62557816 129.91015625 48.34765625 C132.75507892 50.80959151 135.68090217 53.15724982 138.625 55.5 C147.27015658 62.55727068 155.92134185 70.56044554 162 80 C162 80.66 162 81.32 162 82 C162.99 82.33 163.98 82.66 165 83 C166.95301046 85.62989235 168.36685932 88.5968503 169.875 91.5 C170.31900146 92.34916992 170.76300293 93.19833984 171.22045898 94.07324219 C182.19862444 115.7757194 184.22896702 139.80759433 176.74609375 162.99609375 C166.94665899 191.60700484 146.18530867 212.73142224 122 230 C121.39784668 230.43618652 120.79569336 230.87237305 120.17529297 231.32177734 C89.77268422 253.18404015 54.18455975 267.26209891 18 276 C17.19771973 276.1964209 16.39543945 276.3928418 15.56884766 276.59521484 C5.34819803 278.99372795 -4.83962391 279.29559197 -15.3125 279.375 C-17.19050293 279.39614868 -17.19050293 279.39614868 -19.10644531 279.41772461 C-32.57034791 279.34743329 -45.57465801 277.16154069 -56.109375 268.20703125 C-67.6331322 256.2914663 -73.90894621 240.46665054 -79 225 C-79.33 224.01 -79.66 223.02 -80 222 C-80.06740865 220.43881572 -80.08514456 218.8749748 -80.0625 217.3125 C-80.05347656 216.50425781 -80.04445312 215.69601562 -80.03515625 214.86328125 C-80.02355469 214.24839844 -80.01195312 213.63351562 -80 213 C-78.824375 213.309375 -77.64875 213.61875 -76.4375 213.9375 C-69.71803595 215.45584043 -62.85955634 215.6565703 -56 216 C-56.00785522 214.792229 -56.00785522 214.792229 -56.01586914 213.56005859 C-56.03317057 210.4996773 -56.04557372 207.43932137 -56.05493164 204.37890625 C-56.06228369 202.43227455 -56.07500578 200.48566544 -56.08789062 198.5390625 C-56.14109847 177.68158648 -56.14109847 177.68158648 -54 168 C-54.9075 168.061875 -55.815 168.12375 -56.75 168.1875 C-66.54618377 168.10881579 -79.84488637 164.15511363 -87 157 C-87.07244053 154.98035801 -87.08377188 152.95832876 -87.0625 150.9375 C-87.05347656 149.83277344 -87.04445312 148.72804688 -87.03515625 147.58984375 C-87.02355469 146.73519531 -87.01195312 145.88054687 -87 145 C-86.23429688 145.43699219 -86.23429688 145.43699219 -85.453125 145.8828125 C-72.09980641 153.80712004 -72.09980641 153.80712004 -57.3125 157.5625 C-56.31863281 157.64628906 -55.32476562 157.73007812 -54.30078125 157.81640625 C-53.54152344 157.87699219 -52.78226563 157.93757812 -52 158 C-52.05414063 156.04332397 -52.05414063 156.04332397 -52.109375 154.04711914 C-52.1056247 149.24632409 -51.34976267 144.90309119 -50.25 140.24609375 C-50.07243164 139.45977066 -49.89486328 138.67344757 -49.71191406 137.86329651 C-49.15030158 135.38586926 -48.57541884 132.91175272 -48 130.4375 C-47.61369635 128.74434275 -47.22827165 127.05098471 -46.84375 125.35742188 C-45.90596554 121.23589316 -44.95627858 117.11727522 -44 113 C-44.64066406 112.89187988 -45.28132813 112.78375977 -45.94140625 112.67236328 C-58.97449335 110.30028316 -70.71926923 103.82240439 -79.78515625 94.08203125 C-81.34825429 91.40315261 -81.16787536 89.91822273 -80.75 86.875 C-80.64171875 86.00617188 -80.5334375 85.13734375 -80.421875 84.2421875 C-80 82 -80 82 -79 80 C-78.34 80 -77.68 80 -77 80 C-75.7734375 81.50390625 -75.7734375 81.50390625 -74.375 83.5625 C-66.3943697 94.41386062 -55.27553647 100.67493795 -41.92163086 102.72241211 C-41.28749268 102.81401611 -40.65335449 102.90562012 -40 103 C-39.74863281 101.72898437 -39.49726563 100.45796875 -39.23828125 99.1484375 C-38.04055334 93.77075486 -36.19055584 88.74823651 -34.1875 83.625 C-33.83365234 82.70759033 -33.47980469 81.79018066 -33.11523438 80.8449707 C-30.62869949 74.45595745 -28.00352631 68.16589295 -25 62 C-25.73605469 61.72414063 -26.47210938 61.44828125 -27.23046875 61.1640625 C-38.81559264 56.29471565 -46.47241823 47.44813273 -52.84765625 36.9296875 C-54.2319444 33.41031084 -54.06885703 31.59615449 -53 28 C-50.5625 25.125 -50.5625 25.125 -48 23 C-47.34 23 -46.68 23 -46 23 C-45.78085938 23.68964844 -45.56171875 24.37929688 -45.3359375 25.08984375 C-41.78624796 35.60904567 -37.40786216 42.92287165 -28 49 C-27.0925 49.61875 -26.185 50.2375 -25.25 50.875 C-22.82297795 52.2981424 -22.82297795 52.2981424 -19 52 C-17.34295335 50.0013908 -17.34295335 50.0013908 -15.9375 47.3125 C-13.07035988 42.52152127 -9.9337358 38.2883814 -6.3125 34.0625 C-5.84900146 33.51956299 -5.38550293 32.97662598 -4.90795898 32.41723633 C-2.38004044 29.49369103 0.22860093 26.69351431 3 24 C1.70987334 21.17517292 0.32286866 19.1174188 -1.8125 16.875 C-5.42285536 12.78562943 -10 6.64874653 -10 1 C-6.6483373 -0.67583135 -3.53848727 -1.15083511 0 0 Z " fill="#FE8B96" transform="translate(280,233)"/>
<path d="M0 0 C3.25496975 1.45810862 5.67294662 3.31027168 8.375 5.625 C16.9092925 12.54571874 26.36591556 18.06645946 37 21 C35.7625 22.3921875 35.7625 22.3921875 34.5 23.8125 C28.13981687 31.32229369 22.80647593 38.85941946 18.5625 47.75 C18.22041504 48.45882324 17.87833008 49.16764648 17.52587891 49.89794922 C15.50348115 54.29576379 14.34146445 58.1574133 14 63 C14.33 63.33 14.66 63.66 15 64 C15.63017846 70.7865373 15.42935496 77.93159411 12 84 C11.01 84.33 10.02 84.66 9 85 C9.70488316 102.62207907 12.06404986 119.35419373 18 136 C18.28456055 136.80066895 18.56912109 137.60133789 18.86230469 138.42626953 C22.52116443 148.7467482 22.52116443 148.7467482 26.71484375 158.85546875 C28 162 28 162 27.9375 165.25 C28.02695106 170.61706363 30.00224468 175.06804155 32 180 C33.32 180 34.64 180 36 180 C39.87652053 183.04252806 42.12762885 187.20923583 44.625 191.375 C54.30744637 207.16538886 65.41158234 222.14156031 77.9609375 235.77734375 C79.81250295 237.79562103 81.59833 239.85349135 83.375 241.9375 C94.25886508 254.37620295 106.64190017 264.3513372 120 274 C119.99000725 273.0906218 119.99000725 273.0906218 119.97981262 272.16287231 C119.91209349 265.7033636 119.86765107 259.24395946 119.83520508 252.78417969 C119.82035694 250.39123423 119.80007332 247.99831473 119.77368164 245.60546875 C119.54494302 224.29241121 120.35725986 202.7983838 125.75 182.0625 C126.00604004 181.04365723 126.26208008 180.02481445 126.52587891 178.97509766 C131.81201435 158.61758148 139.65097629 140.37858937 153 124 C153.93585938 122.81664062 153.93585938 122.81664062 154.890625 121.609375 C166.842103 107.24751488 186.2082088 95.06291299 205 93 C219.71949274 92.08072393 234.732001 91.86006247 249 96 C249 96.33 249 96.66 249 97 C248.33991943 97.05534912 247.67983887 97.11069824 246.99975586 97.16772461 C243.97882377 97.42222761 240.95816431 97.67983898 237.9375 97.9375 C236.89916016 98.02451172 235.86082031 98.11152344 234.79101562 98.20117188 C229.49672393 98.65496831 224.24955949 99.17347361 219 100 C224.31225119 111.6809415 224.31225119 111.6809415 233 121 C231.40666946 124.86563716 228.89591231 127.33843097 226 130.3125 C219.71263014 136.92680048 214.84994303 144.29900586 210 152 C202.17197253 151.18266184 196.44232405 146.60489787 191.09765625 141.0078125 C186.71184669 135.45022176 183 129.17227918 183 122 C182.030625 122.70125 181.06125 123.4025 180.0625 124.125 C179.51722656 124.51945312 178.97195312 124.91390625 178.41015625 125.3203125 C176.30146124 127.83205448 176.12741435 129.75093396 176 133 C181.36070773 146.62891796 191.84207447 154.03143293 204 161 C201.9608795 167.3942435 199.60662557 173.60396629 197.0625 179.8125 C194.09373761 187.13381603 191.33317882 194.44786854 189 202 C178.77768864 203.16162629 168.80037657 197.14167581 161 191 C156.92859899 187.48237192 153.45802037 184.34607467 152 179 C151.34 179 150.68 179 150 179 C149.6944415 180.86965497 149.43203928 182.74638981 149.1875 184.625 C148.96126953 186.19121094 148.96126953 186.19121094 148.73046875 187.7890625 C149.08836141 192.05265328 150.96610949 194.20669305 154 197 C156.13628694 198.66155651 158.16296225 200.13196504 160.4375 201.5625 C161.03860596 201.94599609 161.63971191 202.32949219 162.2590332 202.72460938 C168.49003096 206.54712882 175.01379409 208.86506122 182 211 C182.99 211.33 183.98 211.66 185 212 C184.13152486 220.69560733 182.07359834 229.12909612 180.171875 237.64648438 C178.75488184 244.10283309 177.56850799 250.41241371 177 257 C163.5652087 258.19008978 153.8183987 252.38973297 143 245 C143 248.63 143 252.26 143 256 C145.32079754 257.29927628 147.65286086 258.56229809 150 259.8125 C150.6290625 260.16892578 151.258125 260.52535156 151.90625 260.89257812 C159.67180572 264.962028 165.55314724 265.22871511 175 267 C174.34 282.84 173.68 298.68 173 315 C156.125 315 156.125 315 149 312 C149 313.65 149 315.3 149 317 C147.32656589 313.98947849 146.54352482 311.3104532 145.96484375 307.921875 C145.7956543 306.93251953 145.62646484 305.94316406 145.45214844 304.92382812 C145.28231445 303.87646484 145.11248047 302.82910156 144.9375 301.75 C144.7612207 300.68201172 144.58494141 299.61402344 144.40332031 298.51367188 C143.05058671 290.0085831 142.2531592 281.60741265 142 273 C141.13117188 273.40992188 140.26234375 273.81984375 139.3671875 274.2421875 C138.21476563 274.78101563 137.06234375 275.31984375 135.875 275.875 C134.73804688 276.40867187 133.60109375 276.94234375 132.4296875 277.4921875 C118.91465597 283.43387562 106.34598972 282.72864255 92.6875 277.4375 C73.50336292 269.56343221 57.7742199 256.25703601 43 242 C42.41154297 241.43345703 41.82308594 240.86691406 41.21679688 240.28320312 C33.59556162 232.90649948 26.55438152 225.3542894 20 217 C19.07156748 215.8702895 18.14041854 214.74280774 17.20703125 213.6171875 C5.73066227 199.69420386 -3.98937837 184.66535152 -12.87695312 168.97900391 C-13.59304817 167.71711991 -14.31510118 166.45858549 -15.04492188 165.20458984 C-34.88314195 131.06776963 -46.2023939 89.94782754 -36.47998047 50.91210938 C-30.82491967 30.31333563 -17.99343843 11.73485115 0 0 Z " fill="#C41E30" transform="translate(51,134)"/>
<path d="M0 0 C1.46630859 1.70800781 1.46630859 1.70800781 2.6484375 3.953125 C3.09324463 4.78980713 3.53805176 5.62648926 3.99633789 6.48852539 C4.45129639 7.39981201 4.90625488 8.31109863 5.375 9.25 C5.85251709 10.18642334 6.33003418 11.12284668 6.82202148 12.08764648 C13.31669398 25.20734499 18.51424241 39.35467514 20 54 C21.96066406 53.94779297 21.96066406 53.94779297 23.9609375 53.89453125 C41.835287 53.56268252 62.65374062 54.82687031 79 63 C76.56143022 82.46651389 67.42669087 103.76283803 55 119 C54.01 119.33 53.02 119.66 52 120 C51.29442276 121.31315764 50.63239707 122.65007549 50 124 C41.10673404 135.1643957 26.14499403 144.14547158 12 146 C-8.7309599 147.61592086 -24.39306075 141.45520443 -41 129 C-41.23847656 129.56074219 -41.47695312 130.12148437 -41.72265625 130.69921875 C-48.55378537 143.00360729 -63.55762944 151.22755928 -76.671875 155.078125 C-92.46743967 158.86986688 -107.77373985 155.59081504 -121.875 148.0625 C-141.40654511 135.87502643 -154.92617021 119.92822111 -166 100 C-166.73089844 98.70642578 -166.73089844 98.70642578 -167.4765625 97.38671875 C-168.625 95.25 -168.625 95.25 -170 92 C-168.62266016 87.86798047 -165.87768357 86.82059671 -162.25 84.8125 C-161.54770264 84.42175293 -160.84540527 84.03100586 -160.12182617 83.62841797 C-146.69798616 76.40904507 -129.53756092 68.54963592 -114 69 C-114.165 68.38125 -114.33 67.7625 -114.5 67.125 C-117.44066855 48.74582159 -112.10613801 27.2724552 -106 10 C-99.82206306 10.52901625 -94.35459239 11.54537706 -88.5 13.5625 C-87.73171875 13.82426025 -86.9634375 14.08602051 -86.171875 14.35571289 C-74.6874413 18.38910418 -63.52738726 23.22252702 -53.8828125 30.75 C-51.96010614 32.27655184 -51.96010614 32.27655184 -49 32 C-47.60916584 30.63134604 -47.60916584 30.63134604 -46.25 28.75 C-37.51471751 18.35611957 -25.66007732 10.71150339 -14 4 C-13.13117188 3.46117187 -12.26234375 2.92234375 -11.3671875 2.3671875 C-10.58601562 1.89539063 -9.80484375 1.42359375 -9 0.9375 C-8.34 0.53402344 -7.68 0.13054687 -7 -0.28515625 C-4.27212999 -1.26015666 -2.74761473 -0.85628624 0 0 Z " fill="#407926" transform="translate(193,1)"/>
<path d="M0 0 C4.99158403 0.56232351 9.06566222 2.18262323 13.5 4.4375 C14.19778564 4.79166992 14.89557129 5.14583984 15.61450195 5.51074219 C28.34650013 12.16305618 42.93287762 21.89931643 51 34 C54.5711751 32.29695786 57.91419356 30.27252148 61.3125 28.25 C71.87869821 22.15624469 82.77619637 18.12798256 94.5625 15.125 C95.8302124 14.80172729 95.8302124 14.80172729 97.12353516 14.47192383 C101.5076913 13.41466131 105.45429169 12.74950716 110 13 C110.65035371 15.51974253 111.29537493 18.04065935 111.9375 20.5625 C112.11990234 21.26697266 112.30230469 21.97144531 112.49023438 22.69726562 C112.66748047 23.39658203 112.84472656 24.09589844 113.02734375 24.81640625 C113.18968506 25.45006104 113.35202637 26.08371582 113.51928711 26.73657227 C114.66564488 32.13417659 115.12743744 37.3831714 115.1328125 42.89453125 C115.13410156 44.18037109 115.13539063 45.46621094 115.13671875 46.79101562 C115.13462402 47.45270752 115.1325293 48.11439941 115.13037109 48.79614258 C115.1250412 50.79703178 115.13083667 52.79794047 115.13671875 54.79882812 C115.1295925 61.92863887 114.91706136 68.92567584 114 76 C114.969375 76.32871094 115.93875 76.65742188 116.9375 76.99609375 C136.2269638 83.75068619 151.94787525 94.26664147 167 108 C165.48783064 113.23751375 162.11717126 116.47792559 158.4375 120.3125 C157.80126709 120.98112061 157.16503418 121.64974121 156.50952148 122.33862305 C144.16521145 135.20622278 128.48248004 148.90815338 110.3984375 152.51953125 C106.69363151 151.71702441 105.28015608 149.02867692 103.25 146.0625 C102.37340855 144.85708456 101.49183848 143.65527481 100.60546875 142.45703125 C100.1676709 141.86486816 99.72987305 141.27270508 99.27880859 140.66259766 C94.11941232 133.95479151 87.50217994 128.61947832 80.92578125 123.37109375 C78.39981951 121.32401928 75.95244291 119.21148065 73.51342773 117.0625 C49.85768383 96.42281763 20.96509218 82.21956033 -8.95556641 73.30712891 C-10.30787354 72.89793213 -10.30787354 72.89793213 -11.6875 72.48046875 C-12.49574219 72.24223389 -13.30398438 72.00399902 -14.13671875 71.75854492 C-16 71 -16 71 -17 69 C-19.23413316 43.91677775 -11.56530783 21.80970487 0 0 Z " fill="#57A532" transform="translate(334,163)"/>
<path d="M0 0 C3.87018798 2.66665391 6.5915679 5.94190315 9.46582031 9.63745117 C14.40067343 15.95607661 17.9637121 18.47236484 25.859375 20.07421875 C40.1803981 24.48719045 40.1803981 24.48719045 43.953125 29.82421875 C46.86821524 37.06168419 45.67553727 44.7530819 42.95288086 51.85229492 C32.45240866 76.39999796 12.74345529 97.54592962 -5.21777344 116.91601562 C-7.09398166 118.93953059 -8.9592992 120.9714624 -10.81933594 123.01000977 C-17.74482383 130.59569156 -24.86605878 137.95657103 -32.14208984 145.20605469 C-33.90711044 146.96565355 -35.66663633 148.73062272 -37.42578125 150.49609375 C-42.62662222 155.69999084 -47.82907238 160.83535698 -53.43212891 165.61083984 C-55.65049438 167.51093739 -57.77581335 169.50081985 -59.90600586 171.49853516 C-68.33885791 179.40574785 -77.14563775 186.71529586 -86.453125 193.57421875 C-87.31538696 194.22511475 -87.31538696 194.22511475 -88.19506836 194.88916016 C-91.81428095 197.50347321 -94.69047782 198.69720174 -99.140625 199.07421875 C-99.60672174 190.10261809 -98.35611206 182.38709979 -95.953125 173.76171875 C-95.47383545 171.98015381 -95.47383545 171.98015381 -94.98486328 170.16259766 C-93.01678759 162.94500347 -90.88627955 155.82480105 -88.39160156 148.77099609 C-87.33600517 145.65158927 -86.38446084 142.52577782 -85.48838806 139.35758972 C-82.64370554 129.31687588 -79.21356087 119.53980056 -75.578125 109.76171875 C-75.27449036 108.94128082 -74.97085571 108.1208429 -74.65802002 107.27554321 C-43.91086682 24.36199546 -43.91086682 24.36199546 -15.828125 0.07421875 C-10.70092817 -1.83357542 -5.09674601 -2.20424964 0 0 Z " fill="#F5253C" transform="translate(348.140625,276.92578125)"/>
<path d="M0 0 C1.46630859 1.70800781 1.46630859 1.70800781 2.6484375 3.953125 C3.31564819 5.20838989 3.31564819 5.20838989 3.99633789 6.48901367 C4.45129639 7.40013916 4.90625488 8.31126465 5.375 9.25 C5.85251709 10.18497314 6.33003418 11.11994629 6.82202148 12.08325195 C14.85425492 28.28996616 20.39519987 45.32581606 20.25 63.5 C20.26160156 64.95212891 20.26160156 64.95212891 20.2734375 66.43359375 C20.2320943 81.83393473 15.79099316 95.96923716 6 108 C5.50113281 108.62390625 5.00226563 109.2478125 4.48828125 109.890625 C-5.03485816 120.54118897 -21.73544165 127.59033549 -35.8125 128.5 C-41.03157092 128.43041239 -43.45333551 126.74425502 -47.06640625 123.109375 C-48.02353516 122.06523437 -48.02353516 122.06523437 -49 121 C-49.66902344 120.32453125 -50.33804688 119.6490625 -51.02734375 118.953125 C-63.22295983 106.12549043 -68.50738133 91.64113404 -68.3359375 74.13671875 C-67.23672424 54.92773993 -54.35028672 35.61878163 -40.8125 22.875 C-31.9960395 15.22182248 -22.51478972 8.68927787 -12.4375 2.8125 C-11.77081299 2.41345459 -11.10412598 2.01440918 -10.41723633 1.60327148 C-6.48493801 -0.61498652 -4.30127141 -1.48010427 0 0 Z " fill="#77C353" transform="translate(193,1)"/>
<path d="M0 0 C0.08636719 0.84820312 0.17273438 1.69640625 0.26171875 2.5703125 C2.41609686 20.55640502 8.92893934 36.11518678 23 48 C37.79464592 59.17874278 54.19719104 59.88719801 72 60 C66.4749351 71.70512355 53.79654482 79.11215149 42.36328125 84.17578125 C25.8551108 89.93317623 9.6151705 87.89586298 -5.9921875 80.6015625 C-27.07517413 69.34587587 -41.59891949 51.51713434 -53 31 C-53.48726562 30.13761719 -53.97453125 29.27523437 -54.4765625 28.38671875 C-55.625 26.25 -55.625 26.25 -57 23 C-55.62266016 18.86798047 -52.87768357 17.82059671 -49.25 15.8125 C-48.54770264 15.42175293 -47.84540527 15.03100586 -47.12182617 14.62841797 C-33.18458639 7.13293745 -16.07527066 -0.37879872 0 0 Z " fill="#407926" transform="translate(80,70)"/>
<path d="M0 0 C6.17787167 0.52901066 11.64550809 1.5452071 17.5 3.5625 C18.26973145 3.82498535 19.03946289 4.0874707 19.83251953 4.35791016 C32.87704842 8.94198588 44.79175841 14.87996371 56 23 C54.34576007 26.52904519 52.28892128 29.72130063 50.1875 33 C46.38642108 39.07052128 43.42533921 45.2443993 41 52 C40.75378906 52.66 40.50757813 53.32 40.25390625 54 C36.21569858 66.92226455 39.1256255 81.27705988 44.75 93.1875 C47.62993209 98.62815989 50.93891492 103.38201507 55 108 C55.97839844 109.11955078 55.97839844 109.11955078 56.9765625 110.26171875 C61.07468005 114.66838183 64.021167 117.00352783 70 118 C70 118.33 70 118.66 70 119 C48.12659242 119.71596913 29.80814618 119.78494016 12.3125 104.6796875 C-3.03589515 90.10784805 -8.74604082 69.62156746 -9.3125 48.875 C-9.2452939 47.24805223 -9.1362325 45.62262639 -9 44 C-8.9071875 42.79988281 -8.814375 41.59976563 -8.71875 40.36328125 C-7.46894229 26.70361817 -4.57505542 12.94147622 0 0 Z " fill="#57A533" transform="translate(87,11)"/>
<path d="M0 0 C21.24545279 4.32110904 39.00937947 18.09511259 55 32 C53.48783064 37.23751375 50.11717126 40.47792559 46.4375 44.3125 C45.80126709 44.98112061 45.16503418 45.64974121 44.50952148 46.33862305 C32.16521145 59.20622278 16.48248004 72.90815338 -1.6015625 76.51953125 C-5.30636849 75.71702441 -6.71984392 73.02867692 -8.75 70.0625 C-9.62659145 68.85708456 -10.50816152 67.65527481 -11.39453125 66.45703125 C-11.8323291 65.86486816 -12.27012695 65.27270508 -12.72119141 64.66259766 C-17.9933567 57.80817886 -24.7813262 52.38102729 -31.51953125 47.04296875 C-33.82845927 45.14128473 -35.92543161 43.15194157 -38 41 C-37.33355469 40.8040625 -36.66710937 40.608125 -35.98046875 40.40625 C-22.58677255 36.0603234 -12.51970646 27.79276964 -6.04931641 15.14111328 C-3.72451336 10.21172786 -1.72366125 5.17098374 0 0 Z " fill="#407925" transform="translate(446,239)"/>
<path d="M0 0 C4.99158403 0.56232351 9.06566222 2.18262323 13.5 4.4375 C14.19778564 4.79166992 14.89557129 5.14583984 15.61450195 5.51074219 C25.80771251 10.83657057 34.69856151 17.58681348 43.1875 25.3125 C43.72850342 25.80395508 44.26950684 26.29541016 44.8269043 26.80175781 C47.82282985 29.61728663 50.07387384 32.36617436 52 36 C51.2265625 36.70382813 50.453125 37.40765625 49.65625 38.1328125 C34.72701214 52.12071832 28.86842778 66.48713699 28 87 C26.91847656 86.5153125 25.83695312 86.030625 24.72265625 85.53125 C14.01347819 80.83283163 3.21797275 76.98262303 -7.98413086 73.61523438 C-9.0128833 73.30134766 -10.04163574 72.98746094 -11.1015625 72.6640625 C-12.02275879 72.39029785 -12.94395508 72.1165332 -13.89306641 71.83447266 C-16 71 -16 71 -17 69 C-19.23413316 43.91677775 -11.56530783 21.80970487 0 0 Z " fill="#407925" transform="translate(334,163)"/>
<path d="M0 0 C0.66 0 1.32 0 2 0 C2.32871094 0.75023437 2.65742188 1.50046875 2.99609375 2.2734375 C9.09014349 15.38637921 17.99901598 24.60624141 31 31 C28.9608795 37.3942435 26.60662557 43.60396629 24.0625 49.8125 C21.09373761 57.13381603 18.33317882 64.44786854 16 72 C5.77768864 73.16162629 -4.19962343 67.14167581 -12 61 C-16.18059994 57.38802573 -19.26737255 54.35539395 -21 49 C-21.66 48.67 -22.32 48.34 -23 48 C-18.01678539 31.69129763 -11.58164234 17.16529287 -2 3 C-1.34 2.01 -0.68 1.02 0 0 Z " fill="#F4253C" transform="translate(224,264)"/>
<path d="M0 0 C0.46148437 0.36351562 0.92296875 0.72703125 1.3984375 1.1015625 C13.57898809 10.48973391 25.40392975 16.38598149 41 17 C33.26911212 31.2437259 21.30372313 48.39926993 7 57 C-3.886214 56.8154879 -12.96727747 50.97548294 -21 44 C-24.26647574 40.55120934 -27.16540391 36.80745746 -30 33 C-28.67128395 30.00947936 -27.27252901 28.07628333 -24.83984375 25.8984375 C-24.21505127 25.3305249 -23.59025879 24.7626123 -22.9465332 24.17749023 C-22.28355225 23.58266846 -21.62057129 22.98784668 -20.9375 22.375 C-13.30094644 15.39266974 -6.43564588 8.1194734 0 0 Z " fill="#C41E30" transform="translate(408,396)"/>
<path d="M0 0 C0.56976563 0.74507813 1.13953125 1.49015625 1.7265625 2.2578125 C10.74971229 13.14140554 24.45269839 19.72242703 38 23 C37.13152486 31.69560733 35.07359834 40.12909612 33.171875 48.64648438 C31.75488184 55.10283309 30.56850799 61.41241371 30 68 C16.5652087 69.19008978 6.8183987 63.38973297 -4 56 C-4.33 59.63 -4.66 63.26 -5 67 C-5.33 67 -5.66 67 -6 67 C-6.12058835 57.83337151 -5.78472136 48.76711301 -5.125 39.625 C-5.03476563 38.35293701 -4.94453125 37.08087402 -4.8515625 35.77026367 C-3.96124763 23.69923251 -2.6171791 11.83299063 0 0 Z " fill="#F4253C" transform="translate(198,323)"/>
<path d="M0 0 C2.6491133 1.59278628 3.9990906 3.62434305 5.80859375 6.125 C12.93006616 15.14709602 22.17014752 20.95344469 32.87109375 25.125 C31.45189852 28.60368505 29.92973865 30.05320945 26.75 32.0078125 C25.90566406 32.53101074 25.06132812 33.05420898 24.19140625 33.59326172 C23.28132813 34.13998535 22.37125 34.68670898 21.43359375 35.25 C20.50160156 35.81605957 19.56960938 36.38211914 18.609375 36.96533203 C12.27078315 40.7759821 5.87110165 44.47155245 -0.62890625 48 C-1.41064209 48.4345752 -2.19237793 48.86915039 -2.99780273 49.31689453 C-8.34133122 52.13964732 -8.34133122 52.13964732 -11.859375 52.07421875 C-22.10729117 47.78808514 -30.54640203 39.12875265 -36.4140625 29.88671875 C-37.12890625 28.125 -37.12890625 28.125 -36.12890625 25.125 C-33.90766732 23.50658393 -31.70028418 22.0229469 -29.37890625 20.5625 C-21.47105624 15.4466614 -13.51000207 10.08220206 -6.56689453 3.68603516 C-2.68324826 0.15754852 -2.68324826 0.15754852 0 0 Z " fill="#C41E30" transform="translate(370.12890625,434.875)"/>
<path d="M0 0 C2 2 2 2 2 5 C13.385 5.99 13.385 5.99 25 7 C25.4125 9.248125 25.825 11.49625 26.25 13.8125 C28.06077248 23.06576894 29.95688673 32.29227308 37 39 C41.69583938 41.88921689 45.65966039 42.44513023 51.0625 42.3125 C51.80040771 42.30412109 52.53831543 42.29574219 53.29858398 42.28710938 C59.97963716 42.14301247 66.43820009 41.2781245 73 40 C73.70576172 41.42892578 73.70576172 41.42892578 74.42578125 42.88671875 C75.05457916 44.15369961 75.68349148 45.42062369 76.3125 46.6875 C76.7755957 47.62625977 76.7755957 47.62625977 77.24804688 48.58398438 C79.0238106 52.15420407 80.89532729 55.61309592 83 59 C78.03355824 60.65548059 72.87182102 60.22526987 67.67041016 60.24023438 C65.66687021 60.24980009 63.66347014 60.28092067 61.66015625 60.3125 C47.88012764 60.36723696 34.69843442 58.39366926 23.890625 49.20703125 C11.78820652 36.69313054 2.23120609 17.27118785 0 0 Z " fill="#F4253C" transform="translate(200,452)"/>
<path d="M0 0 C3.06067032 0.54841362 5.4844298 1.20633121 8.375 2.4375 C14.5864348 4.88370212 21.40939044 5.27057056 28 6 C28.33 5.34 28.66 4.68 29 4 C29.48363823 19.63763615 28.00649566 33.33439384 22 48 C8.08944026 48.49484205 -2.80770385 46.91444332 -13.7421875 37.5 C-14.87240082 36.37617207 -15.94547154 35.19513225 -17 34 C-15.38404666 29.53034184 -13.1251244 25.59330998 -10.75 21.5 C-6.7402742 14.49778412 -3.23094087 7.39948811 0 0 Z " fill="#C41E30" transform="translate(432,355)"/>
<path d="M0 0 C1.0415625 0.54269531 2.083125 1.08539063 3.15625 1.64453125 C4.60364621 2.36822935 6.0515941 3.09082481 7.5 3.8125 C8.17675781 4.16892578 8.85351562 4.52535156 9.55078125 4.89257812 C17.48763471 8.78950167 23.54470389 9.22713198 33 11 C32.34 26.84 31.68 42.68 31 59 C14.125 59 14.125 59 7 56 C7 57.65 7 59.3 7 61 C5.27603534 57.92287384 4.53331696 55.18375889 3.96484375 51.7109375 C3.79533203 50.68613281 3.62582031 49.66132813 3.45117188 48.60546875 C3.28166016 47.53941406 3.11214844 46.47335937 2.9375 45.375 C2.76412109 44.33214844 2.59074219 43.28929687 2.41210938 42.21484375 C0.69749463 31.69065668 -0.15069624 21.53996052 -0.0625 10.875 C-0.05798828 9.823125 -0.05347656 8.77125 -0.04882812 7.6875 C-0.03718011 5.12493779 -0.02082553 2.56250123 0 0 Z " fill="#F5263D" transform="translate(193,390)"/>
<path d="M0 0 C0.63615234 1.39412109 0.63615234 1.39412109 1.28515625 2.81640625 C4.63556116 9.94865655 7.74292306 15.94108673 14 21 C12.40666946 24.86563716 9.89591231 27.33843097 7 30.3125 C0.71263014 36.92680048 -4.15005697 44.29900586 -9 52 C-16.82802747 51.18266184 -22.55767595 46.60489787 -27.90234375 41.0078125 C-32.23471245 35.51794071 -36.62255188 28.11600719 -37 21 C-29.94419194 11.64733639 -12.04264125 0 0 0 Z " fill="#F4253C" transform="translate(270,234)"/>
<path d="M0 0 C1.08328221 1.60541823 2.09050517 3.26235997 3.0625 4.9375 C8.24768024 13.31356039 14.80851569 19.59710609 23 25 C12.03889397 32.30740402 -2.50452982 35.63584133 -15.0625 39.0625 C-16.7477478 39.52885864 -16.7477478 39.52885864 -18.46704102 40.00463867 C-19.52076904 40.28283447 -20.57449707 40.56103027 -21.66015625 40.84765625 C-23.06213257 41.2190271 -23.06213257 41.2190271 -24.49243164 41.59790039 C-27.08423562 42.01350755 -28.56066305 41.91441591 -31 41 C-36.60449142 36.19794136 -40.26634917 29.77743847 -43 23 C-43 22.34 -43 21.68 -43 21 C-42.4330542 20.75467529 -41.8661084 20.50935059 -41.28198242 20.2565918 C-29.74346595 15.2285895 -18.59844527 9.91925378 -7.81713867 3.4050293 C-7.07826416 2.9594165 -6.33938965 2.51380371 -5.578125 2.0546875 C-4.93262695 1.65749512 -4.28712891 1.26030273 -3.62207031 0.85107422 C-2 0 -2 0 0 0 Z " fill="#C41E30" transform="translate(325,467)"/>
<path d="M0 0 C4.69486196 2.51286897 8.33568487 5.81929146 12.1875 9.4375 C12.84371338 10.05206055 13.49992676 10.66662109 14.17602539 11.29980469 C19.92766806 16.77353924 25.38089226 22.52238067 30 29 C30 29.66 30 30.32 30 31 C30.99 31.33 31.98 31.66 33 32 C34.19506836 33.65136719 34.19506836 33.65136719 35.33984375 35.796875 C35.76152832 36.58513672 36.18321289 37.37339844 36.61767578 38.18554688 C37.05321777 39.03181641 37.48875977 39.87808594 37.9375 40.75 C38.38335449 41.60658203 38.82920898 42.46316406 39.28857422 43.34570312 C43.00137739 50.65361647 47 58.64675345 47 67 C37.85340382 67.91061245 31.07591457 65.03795729 23 61 C23.02618408 60.4016333 23.05236816 59.8032666 23.0793457 59.18676758 C23.53896933 47.07015789 23.85285079 36.90556502 18 26 C17.22076172 24.4840625 17.22076172 24.4840625 16.42578125 22.9375 C9.95343159 10.83003032 9.95343159 10.83003032 0 2 C0 1.34 0 0.68 0 0 Z " fill="#C51F30" transform="translate(412,284)"/>
<path d="M0 0 C0.47050781 0.95261719 0.94101562 1.90523438 1.42578125 2.88671875 C2.05457916 4.15369961 2.68349148 5.42062369 3.3125 6.6875 C3.7755957 7.62625977 3.7755957 7.62625977 4.24804688 8.58398438 C6.0238106 12.15420407 7.89532729 15.61309592 10 19 C5.03355824 20.65548059 -0.12817898 20.22526987 -5.32958984 20.24023438 C-7.33312979 20.24980009 -9.33652986 20.28092067 -11.33984375 20.3125 C-22.00938343 20.35488149 -32.69045514 19.50106791 -42.125 14.0625 C-42.99382812 13.57910156 -43.86265625 13.09570312 -44.7578125 12.59765625 C-47.06604464 10.95294032 -48.44544217 9.35215776 -50 7 C-49.43192627 6.98018066 -48.86385254 6.96036133 -48.27856445 6.93994141 C-29.88302684 7.33407202 -29.88302684 7.33407202 -13 2 C-10.625 1.3671875 -10.625 1.3671875 -8 0.875 C-7.13375 0.70742188 -6.2675 0.53984375 -5.375 0.3671875 C-3 0 -3 0 0 0 Z " fill="#C51E30" transform="translate(273,492)"/>
<path d="M0 0 C2.92369038 1.08284829 4.07971983 2.10463227 6 4.625 C13.03328063 13.37371493 23.4188037 17.40590026 34 20 C32.3563186 21.68933922 30.6857124 23.35259924 29 25 C28.13375 25.99 28.13375 25.99 27.25 27 C23.92627199 28.47721245 21.88327524 27.48707897 18.5703125 26.21875 C7.9605217 21.18796774 -0.29932411 14.57578859 -7 5 C-4.69 3.35 -2.38 1.7 0 0 Z " fill="#CC6D76" transform="translate(380,433)"/>
<path d="M0 0 C0.92941406 0.55429687 1.85882813 1.10859375 2.81640625 1.6796875 C4.06486499 2.41186631 5.31357652 3.14361421 6.5625 3.875 C7.17158203 4.23980469 7.78066406 4.60460937 8.40820312 4.98046875 C14.87097539 8.7418706 20.9530173 10.19731527 28.4375 10.625 C29.67371094 10.69976562 30.90992188 10.77453125 32.18359375 10.8515625 C33.11300781 10.90054687 34.04242188 10.94953125 35 11 C33.59605911 18.32758621 33.59605911 18.32758621 31 21 C20.1336378 23.46514569 8.69147177 17.89472893 -0.3125 12.3125 C-4.83133841 9.33732318 -4.83133841 9.33732318 -6 7 C-5.195625 6.21625 -4.39125 5.4325 -3.5625 4.625 C-1.01309583 2.28017144 -1.01309583 2.28017144 0 0 Z " fill="#CC6B75" transform="translate(418,392)"/>
<path d="M0 0 C2.57914621 2.47598036 4.89962444 5.07236997 7.1875 7.8125 C12.21781745 13.61088743 18.26747398 18.3079696 25 22 C22.28294264 24.71705736 19.60462715 25.71699712 16 27 C11.14459686 26.79099258 8.41970951 24.15101987 5.0625 20.9375 C4.53615967 20.44378906 4.00981934 19.95007813 3.4675293 19.44140625 C-1.2479354 14.93254884 -5.90424342 10.28726974 -8 4 C-5.36 2.68 -2.72 1.36 0 0 Z " fill="#CC6D76" transform="translate(334,465)"/>
<path d="M0 0 C2.475 2.475 2.475 2.475 5 5 C-2.2677334 12.89484137 -9.60046186 20.7237014 -17.125 28.375 C-17.75156494 29.02283447 -18.37812988 29.67066895 -19.02368164 30.33813477 C-19.91301392 31.23423462 -19.91301392 31.23423462 -20.8203125 32.1484375 C-21.59785889 32.94000244 -21.59785889 32.94000244 -22.39111328 33.74755859 C-24.23260407 35.18107115 -25.72169346 35.59300515 -28 36 C-28.66 34.35 -29.32 32.7 -30 31 C-29.29822632 30.351521 -29.29822632 30.351521 -28.58227539 29.68994141 C-18.39936463 20.25737676 -8.64147986 10.89246137 0 0 Z " fill="#F4273D" transform="translate(408,396)"/>
<path d="M0 0 C4.87666104 2.57457635 8.59035423 6.11767037 12.5625 9.875 C13.22185547 10.48730469 13.88121094 11.09960938 14.56054688 11.73046875 C23.43602281 20.06182003 26.47891266 27.47387202 27.140625 39.57080078 C27.60861615 55.64337168 27.60861615 55.64337168 26 62 C24.515 61.505 24.515 61.505 23 61 C23.02618408 60.4016333 23.05236816 59.8032666 23.0793457 59.18676758 C23.53896933 47.07015789 23.85285079 36.90556502 18 26 C17.22076172 24.4840625 17.22076172 24.4840625 16.42578125 22.9375 C9.95343159 10.83003032 9.95343159 10.83003032 0 2 C0 1.34 0 0.68 0 0 Z " fill="#EE293D" transform="translate(412,284)"/>
<path d="M0 0 C0.75023437 0.27714844 1.50046875 0.55429687 2.2734375 0.83984375 C8.28121571 2.96602218 13.76272629 4.46841375 20.13671875 4.82421875 C22 5 22 5 23 6 C23.07179964 7.51928038 23.08392007 9.04167482 23.0625 10.5625 C23.05347656 11.38878906 23.04445313 12.21507812 23.03515625 13.06640625 C23.02355469 13.70449219 23.01195312 14.34257812 23 15 C14.36652523 15.43167374 4.84001697 14.80020441 -2 9 C-1.34 6.03 -0.68 3.06 0 0 Z " fill="#CC6B75" transform="translate(437,346)"/>
<path d="M0 0 C0.53625 0.268125 1.0725 0.53625 1.625 0.8125 C2.12 2.7925 2.12 2.7925 2.625 4.8125 C-6.68128779 11.72199399 -16.08019257 18.42133912 -25.875 24.625 C-26.69331299 25.14610352 -27.51162598 25.66720703 -28.35473633 26.20410156 C-29.11423584 26.67944336 -29.87373535 27.15478516 -30.65625 27.64453125 C-31.32720703 28.06452393 -31.99816406 28.4845166 -32.68945312 28.91723633 C-34.375 29.8125 -34.375 29.8125 -36.375 29.8125 C-36.705 28.4925 -37.035 27.1725 -37.375 25.8125 C-35.86873047 24.79542969 -35.86873047 24.79542969 -34.33203125 23.7578125 C-20.13607246 14.12949466 -20.13607246 14.12949466 -6.76025391 3.40649414 C-2.60614362 -0.20574818 -2.60614362 -0.20574818 0 0 Z " fill="#F4283E" transform="translate(370.375,435.1875)"/>
<path d="M0 0 C2.17763548 2.15294573 2.94903177 3.41154856 3.21484375 6.48046875 C2.54909244 12.97857658 1.06640532 18.22374812 -2 24 C-5 23 -5 23 -6.1328125 21.0390625 C-6.46023437 20.24242187 -6.78765625 19.44578125 -7.125 18.625 C-7.45757812 17.83351563 -7.79015625 17.04203125 -8.1328125 16.2265625 C-9.9184741 11.64175568 -10.53944087 7.88550222 -10 3 C-7.8351511 -1.0750097 -4.18896832 -0.52362104 0 0 Z " fill="#F0D317" transform="translate(146,355)"/>
<path d="M0 0 C2.51825896 3.77738844 2.48916498 6.63296195 2 11 C1.15394363 14.71677943 0.12455851 18.35857244 -1 22 C-2.32 22.33 -3.64 22.66 -5 23 C-8.6760486 16.62456517 -11.67256115 10.53542998 -11 3 C-8.24683326 -1.93275707 -5.08649325 -1.41291479 0 0 Z " fill="#F0D317" transform="translate(118,230)"/>
<path d="M0 0 C2.51825896 3.77738844 2.48916498 6.63296195 2 11 C1.15394363 14.71677943 0.12455851 18.35857244 -1 22 C-2.32 22.33 -3.64 22.66 -5 23 C-8.6760486 16.62456517 -11.67256115 10.53542998 -11 3 C-8.24683326 -1.93275707 -5.08649325 -1.41291479 0 0 Z " fill="#F0D317" transform="translate(161,167)"/>
<path d="M0 0 C0.27972656 0.6290625 0.55945313 1.258125 0.84765625 1.90625 C3.77959602 8.16608283 7.19386828 13.04151252 12 18 C9.50494038 20.49505962 8.32671112 20.35948376 4.875 20.625 C3.96492188 20.69976562 3.05484375 20.77453125 2.1171875 20.8515625 C1.06917969 20.92503906 1.06917969 20.92503906 0 21 C-4.62212575 14.93425142 -8.1148286 9.43296154 -10 2 C-6.45648927 0.38010938 -3.87280581 -0.10414268 0 0 Z " fill="#CC6C76" transform="translate(283,490)"/>
<path d="M0 0 C4.42171053 1.41118421 4.42171053 1.41118421 5.9375 3.9375 C6.69211429 9.97441432 5.40249888 16.39125252 2.9375 21.9375 C0.828125 23.26171875 0.828125 23.26171875 -1.0625 23.9375 C-5.32193454 19.27240503 -6.79646398 13.25581385 -7.5 7.125 C-7.0625 3.9375 -7.0625 3.9375 -5.4375 1.4375 C-3.0625 -0.0625 -3.0625 -0.0625 0 0 Z " fill="#EFD317" transform="translate(85.0625,292.0625)"/>
<path d="M0 0 C4.42171053 1.41118421 4.42171053 1.41118421 5.9375 3.9375 C6.69211429 9.97441432 5.40249888 16.39125252 2.9375 21.9375 C0.828125 23.26171875 0.828125 23.26171875 -1.0625 23.9375 C-5.32193454 19.27240503 -6.79646398 13.25581385 -7.5 7.125 C-7.0625 3.9375 -7.0625 3.9375 -5.4375 1.4375 C-3.0625 -0.0625 -3.0625 -0.0625 0 0 Z " fill="#F0D417" transform="translate(205.0625,222.0625)"/>
<path d="M0 0 C2.54292289 2.54292289 2.297619 3.53570198 2.3125 7.0625 C2.21108302 12.19419919 1.7741612 17.54892046 -1 22 C-3.109375 22.7421875 -3.109375 22.7421875 -5 23 C-5.27714844 22.37351563 -5.55429687 21.74703125 -5.83984375 21.1015625 C-6.38318359 19.87566406 -6.38318359 19.87566406 -6.9375 18.625 C-7.29714844 17.81289062 -7.65679687 17.00078125 -8.02734375 16.1640625 C-8.6569903 14.76316215 -9.31312642 13.37374716 -10 12 C-10.23828125 9.72265625 -10.23828125 9.72265625 -10.3125 7.0625 C-10.34988281 6.18722656 -10.38726562 5.31195313 -10.42578125 4.41015625 C-10 2 -10 2 -8.17578125 0.171875 C-5.1149174 -1.47670517 -3.27869156 -0.92658674 0 0 Z " fill="#C1AB13" transform="translate(64,196)"/>
<path d="M0 0 C2.54292289 2.54292289 2.297619 3.53570198 2.3125 7.0625 C2.21108302 12.19419919 1.7741612 17.54892046 -1 22 C-3.109375 22.7421875 -3.109375 22.7421875 -5 23 C-5.27714844 22.37351563 -5.55429688 21.74703125 -5.83984375 21.1015625 C-6.38318359 19.87566406 -6.38318359 19.87566406 -6.9375 18.625 C-7.29714844 17.81289062 -7.65679687 17.00078125 -8.02734375 16.1640625 C-8.6569903 14.76316215 -9.31312642 13.37374716 -10 12 C-10.23828125 9.72265625 -10.23828125 9.72265625 -10.3125 7.0625 C-10.34988281 6.18722656 -10.38726562 5.31195313 -10.42578125 4.41015625 C-10 2 -10 2 -8.17578125 0.171875 C-5.1149174 -1.47670517 -3.27869156 -0.92658674 0 0 Z " fill="#F0D517" transform="translate(255,179)"/>
<path d="M0 0 C3.4375 0.875 3.4375 0.875 5.4375 3.875 C6.361053 10.76090254 5.30495869 18.07381197 1.4375 23.875 C-0.421875 23.6875 -0.421875 23.6875 -2.5625 22.875 C-5.86591426 17.1653951 -8.08381263 9.45364923 -6.5625 2.875 C-4.3416687 -0.11713797 -3.9269845 -0.13778893 0 0 Z " fill="#F0D517" transform="translate(161.5625,284.125)"/>
<path d="M0 0 C0.99 0 1.98 0 3 0 C0.59358523 13.12589872 -5.63122337 24.43189951 -12 36 C-12.99 36 -13.98 36 -15 36 C-16.24609375 34.421875 -16.24609375 34.421875 -17 32 C-15.79789022 29.55273814 -14.5774269 27.49146157 -13.0625 25.25 C-8.70171903 18.4528107 -5.40660058 11.51557958 -2.3125 4.0703125 C-1 1 -1 1 0 0 Z " fill="#F4283E" transform="translate(432,355)"/>
<path d="M0 0 C0.495 1.485 0.495 1.485 1 3 C-8.25490524 8.13083213 -17.61265108 12.88580677 -27.3125 17.125 C-28.66347778 17.7281604 -28.66347778 17.7281604 -30.04174805 18.34350586 C-30.890354 18.70710205 -31.73895996 19.07069824 -32.61328125 19.4453125 C-33.36391846 19.77031738 -34.11455566 20.09532227 -34.88793945 20.43017578 C-37.31546839 21.08511192 -38.65138007 20.81266436 -41 20 C-40.49364014 19.78496826 -39.98728027 19.56993652 -39.46557617 19.34838867 C-28.54248239 14.67056977 -18.10035401 9.5975908 -7.91870117 3.45581055 C-7.16951416 3.0050415 -6.42032715 2.55427246 -5.6484375 2.08984375 C-4.66109619 1.48450806 -4.66109619 1.48450806 -3.65380859 0.86694336 C-2 0 -2 0 0 0 Z " fill="#F32B41" transform="translate(325,467)"/>
<path d="M0 0 C2.53148969 1.26574484 2.7776667 2.27395168 3.9453125 4.81640625 C4.47705078 5.96206055 4.47705078 5.96206055 5.01953125 7.13085938 C5.38433594 7.93330078 5.74914062 8.73574219 6.125 9.5625 C6.49753906 10.36880859 6.87007813 11.17511719 7.25390625 12.00585938 C8.17492012 14.00138943 9.0899905 15.9994336 10 18 C8.02 18.99 8.02 18.99 6 20 C1.81999901 15.42190367 -0.1875 9.08177941 -0.1875 2.9375 C-0.125625 1.968125 -0.06375 0.99875 0 0 Z " fill="#C2AB13" transform="translate(78,296)"/>
<path d="M0 0 C0.99 0.33 1.98 0.66 3 1 C3.35646629 8.06331359 3.26269404 14.56441083 0 21 C-0.66 21.33 -1.32 21.66 -2 22 C-2.25515919 14.47280398 -1.28297723 7.41148455 0 0 Z " fill="#EFD516" transform="translate(63,197)"/>
<path d="M0 0 C0.33 0 0.66 0 1 0 C1 5.61 1 11.22 1 17 C0.01 16.67 -0.98 16.34 -2 16 C-1.85975781 13.52039864 -1.7130815 11.04147598 -1.5625 8.5625 C-1.52318359 7.85544922 -1.48386719 7.14839844 -1.44335938 6.41992188 C-1.11328125 1.11328125 -1.11328125 1.11328125 0 0 Z " fill="#F63348" transform="translate(437,329)"/>
<path d="M0 0 C3.94949704 0.62816498 7.19892028 1.8645529 10.8125 3.5625 C12.27623047 4.24505859 12.27623047 4.24505859 13.76953125 4.94140625 C14.87361328 5.46541016 14.87361328 5.46541016 16 6 C12.1988684 7.26704387 10.63666872 6.50086815 6.875 5.25 C5.26238281 4.73179687 5.26238281 4.73179687 3.6171875 4.203125 C2.75351562 3.80609375 1.88984375 3.4090625 1 3 C0.67 2.01 0.34 1.02 0 0 Z " fill="#EA3342" transform="translate(345,243)"/>
<path d="M0 0 C0.33 0 0.66 0 1 0 C1 2.64 1 5.28 1 8 C0.01 7.67 -0.98 7.34 -2 7 C-1.125 1.125 -1.125 1.125 0 0 Z " fill="#F22940" transform="translate(437,338)"/>
</svg>
