<?xml version="1.0" encoding="UTF-8"?>
<svg version="1.1" xmlns="http://www.w3.org/2000/svg" width="512" height="512">
<path d="M0 0 C0.81082031 0.67160156 1.62164062 1.34320313 2.45703125 2.03515625 C3.25753906 2.69644531 4.05804688 3.35773437 4.8828125 4.0390625 C8.47184594 7.12140886 11.70894073 10.25072224 14.70703125 13.91015625 C19.90947072 20.04759636 26.70350818 24.52653786 33.140625 29.27783203 C53.99454022 44.72812981 75.46916321 68.38084724 79.80517578 95.1875 C80.05096926 97.13332942 80.25729629 99.08406104 80.45703125 101.03515625 C81.51921875 100.75800781 82.58140625 100.48085937 83.67578125 100.1953125 C85.10279862 99.82916989 86.52988573 99.46329903 87.95703125 99.09765625 C88.653125 98.91525391 89.34921875 98.73285156 90.06640625 98.54492188 C99.43213549 96.16012971 108.50826671 95.80040986 118.14453125 95.72265625 C119.95920898 95.67915039 119.95920898 95.67915039 121.81054688 95.63476562 C122.97650391 95.62638672 124.14246094 95.61800781 125.34375 95.609375 C126.92482544 95.58750122 126.92482544 95.58750122 128.5378418 95.56518555 C132.19576112 96.154087 133.84654137 97.45287835 136.45703125 100.03515625 C137.26953125 102.78515625 137.26953125 102.78515625 137.45703125 105.03515625 C138.50890625 105.10863281 138.50890625 105.10863281 139.58203125 105.18359375 C145.42437284 105.64399567 150.81797087 106.43919576 156.45703125 108.03515625 C156.78703125 107.04515625 157.11703125 106.05515625 157.45703125 105.03515625 C161.36726003 103.37330902 163.72081583 102.871181 167.89453125 103.80078125 C179.56867435 108.66500754 196.48894364 116.09898103 202.45703125 128.03515625 C203.68177128 136.82537896 201.56261325 142.91291854 196.45703125 150.03515625 C183.90355259 165.51581538 166.84746909 178.58735311 146.45703125 181.03515625 C127.60655995 182.47290406 113.91074147 177.64558498 97.45703125 169.03515625 C94.85839794 167.69075487 92.25293762 166.36046971 89.64453125 165.03515625 C88.52433594 164.45765625 87.40414063 163.88015625 86.25 163.28515625 C83.51064185 161.83090324 83.51064185 161.83090324 80.45703125 162.03515625 C80.11671875 163.16050781 79.77640625 164.28585938 79.42578125 165.4453125 C75.05582225 179.4651493 69.01914629 191.24654603 60.95703125 203.47265625 C44.8546884 228.00231595 35.92008761 258.41453339 37.45703125 288.03515625 C38.64886394 290.61415762 39.88011283 293.00874213 41.26953125 295.47265625 C50.40265028 312.79719137 50.78979177 332.62380004 45.11181641 351.14599609 C43.49479014 355.81137612 41.19290494 359.94566966 38.45703125 364.03515625 C37.87308594 364.93814453 37.87308594 364.93814453 37.27734375 365.859375 C33.63943944 370.83954056 27.92329533 374.13956649 22.0078125 375.66796875 C19.34658632 376.05105491 16.83161564 376.13348404 14.14453125 376.09765625 C13.26152344 376.08863281 12.37851562 376.07960938 11.46875 376.0703125 C10.47294922 376.05291016 10.47294922 376.05291016 9.45703125 376.03515625 C9.19792969 376.77121094 8.93882812 377.50726563 8.671875 378.265625 C3.19045371 390.76185553 -11.48967626 399.05115678 -23.54296875 404.03515625 C-30.66787003 406.46180924 -37.98116916 408.72545797 -45.54296875 409.03515625 C-47.26386719 409.1125 -47.26386719 409.1125 -49.01953125 409.19140625 C-71.04133659 409.85036516 -92.19098469 403.39172333 -108.5625 388.09375 C-116.54296875 379.79846986 -116.54296875 379.79846986 -116.54296875 376.03515625 C-117.16042969 376.06996094 -117.77789062 376.10476563 -118.4140625 376.140625 C-127.42031011 376.42849593 -134.59962351 374.6140542 -141.6953125 368.88671875 C-152.09196953 358.46808147 -155.68439038 342.05508166 -155.85546875 327.84765625 C-155.76855313 316.23036153 -153.95086118 306.22771919 -148.29296875 296.03515625 C-144.44338487 288.87055804 -143.77594381 283.73503199 -145.13964844 275.57910156 C-145.64479026 272.39291645 -146.03259402 269.19800176 -146.42578125 265.99609375 C-148.16784185 250.83213884 -148.16784185 250.83213884 -151.97363281 236.10229492 C-152.87548209 232.82787046 -152.44608502 230.26057148 -151.54296875 227.03515625 C-150.55296875 225.71515625 -149.56296875 224.39515625 -148.54296875 223.03515625 C-151.18296875 218.08515625 -153.82296875 213.13515625 -156.54296875 208.03515625 C-158.52296875 208.03515625 -160.50296875 208.03515625 -162.54296875 208.03515625 C-168.07313074 204.48616054 -170.87927504 199.81643998 -174.04296875 194.16015625 C-174.75634399 192.9057373 -174.75634399 192.9057373 -175.48413086 191.62597656 C-180.74998604 182.17135251 -184.66914144 172.47098999 -187.54296875 162.03515625 C-191.34931883 162.62926009 -194.22950702 163.74256492 -197.60546875 165.58203125 C-198.56146973 166.09531982 -199.5174707 166.6086084 -200.50244141 167.13745117 C-201.50581543 167.68119385 -202.50918945 168.22493652 -203.54296875 168.78515625 C-222.04953917 178.63318153 -239.18401302 184.62306408 -260.23046875 179.53515625 C-271.99663934 175.93534406 -283.39143652 170.33966538 -292.54296875 162.03515625 C-293.55037109 161.14763672 -293.55037109 161.14763672 -294.578125 160.2421875 C-302.03575087 153.27311516 -309.45074722 144.34478295 -310.04296875 133.84765625 C-309.96363528 128.36643452 -308.6541751 125.73288847 -304.77734375 121.93359375 C-278.19723167 99.34979223 -245.36289315 94.60909908 -211.54296875 96.03515625 C-203.30845415 96.76491521 -195.34538456 98.26149994 -187.54296875 101.03515625 C-187.45015625 99.91238281 -187.35734375 98.78960937 -187.26171875 97.6328125 C-186.62342304 92.58961149 -184.95849833 88.15825215 -183.04296875 83.47265625 C-182.6869458 82.59859131 -182.33092285 81.72452637 -181.96411133 80.82397461 C-176.23551207 67.16346869 -168.49565202 55.93919895 -158.54296875 45.03515625 C-157.87265625 44.27074219 -157.20234375 43.50632813 -156.51171875 42.71875 C-150.88429349 36.65586922 -144.24001424 32.02871205 -137.5690918 27.19873047 C-129.82833821 21.57782284 -122.82714697 15.78934983 -116.60546875 8.47265625 C-88.65973139 -23.60079481 -32.66158012 -25.41433295 0 0 Z " fill="#020201" transform="translate(309.54296875,59.96484375)"/>
<path d="M0 0 C0.87084229 -0.00950684 1.74168457 -0.01901367 2.63891602 -0.02880859 C18.40727116 0.05152834 33.09412468 5.39386789 45.375 15.25 C46.32439453 15.99056641 46.32439453 15.99056641 47.29296875 16.74609375 C50.45779329 19.32406341 53.16255619 22.0839622 55.8125 25.1875 C61.85452043 32.22765156 68.95893774 37.51983875 76.53930664 42.78662109 C78.16532055 43.9211123 79.77118852 45.0843327 81.375 46.25 C82.02855469 46.71921875 82.68210937 47.1884375 83.35546875 47.671875 C84.375 49.25 84.375 49.25 84.23046875 52.125 C79.81013048 68.27235443 62.81729724 80.22681041 50.10400391 89.91894531 C32.56468779 103.42139539 20.22375232 118.88810095 16.375 141.25 C15.69302541 148.03076389 15.83391894 154.85765082 15.87890625 161.6640625 C15.87875072 163.61013849 15.87725286 165.55621478 15.87449646 167.50228882 C15.87312086 171.56172552 15.88552176 175.62080536 15.90844727 179.68017578 C15.93671423 184.81989993 15.93411411 189.95902746 15.92135715 195.09879494 C15.9143148 199.11433785 15.92228719 203.12974906 15.93461418 207.14527512 C15.93905433 209.03701645 15.93953261 210.92877233 15.93554878 212.82051468 C15.91643012 229.89215231 17.03584106 247.15773676 22.5625 263.4375 C23.09959364 265.09703048 23.63485201 266.75715644 24.16796875 268.41796875 C24.4002417 269.11172607 24.63251465 269.8054834 24.87182617 270.52026367 C25.375 272.25 25.375 272.25 25.375 274.25 C23.02131607 274.73164188 20.66709845 275.21036648 18.3125 275.6875 C17.65572266 275.82220703 16.99894531 275.95691406 16.32226562 276.09570312 C3.10388725 278.76542486 -14.0149542 280.5550229 -26.625 274.25 C-26.45484375 273.62996094 -26.2846875 273.00992187 -26.109375 272.37109375 C-25.58621223 270.45932341 -25.0671175 268.54643786 -24.55078125 266.6328125 C-23.92078759 264.33081034 -23.27157487 262.03400089 -22.60546875 259.7421875 C-18.04006386 243.63502869 -17.30197801 227.94803083 -17.2890625 211.30859375 C-17.28261443 209.32715261 -17.27588468 207.34571236 -17.26889038 205.36427307 C-17.25700698 201.23867588 -17.25320064 197.11316189 -17.25439453 192.98754883 C-17.25459812 187.74072891 -17.22721422 182.49444814 -17.19285011 177.247756 C-17.17046236 173.16471471 -17.16656048 169.08180126 -17.16761398 164.99870491 C-17.16527902 163.06569613 -17.15657671 161.13268266 -17.14094925 159.19973564 C-16.97710827 136.86049029 -21.85506046 118.0105809 -37.625 101.25 C-43.11825173 95.78766714 -49.28277513 91.13977573 -55.38793945 86.39331055 C-60.69335685 82.24852054 -65.72054015 77.86395177 -70.625 73.25 C-71.70394531 72.26773438 -71.70394531 72.26773438 -72.8046875 71.265625 C-78.74327632 65.66318271 -82.77074274 59.54850547 -86 52.0625 C-85.45143402 47.94825514 -83.2341362 46.54500042 -80.06640625 44.02734375 C-77.65274693 42.27019976 -75.21161613 40.56419142 -72.75 38.875 C-65.62828345 33.98155059 -59.33686339 28.39776643 -53.8125 21.75 C-44.03388194 10.52124619 -28.89825898 2.43610953 -14.16015625 0.4921875 C-9.43837581 0.16870641 -4.73214744 0.04224762 0 0 Z " fill="#EEECEE" transform="translate(256.625,58.75)"/>
<path d="M0 0 C3.0560062 2.89946245 5.50683339 5.93837434 7.9375 9.375 C15.12691847 19.35809673 23.30232442 26.64472676 32.8125 34.375 C33.50964111 34.94275146 34.20678223 35.51050293 34.92504883 36.09545898 C37.98964041 38.58492614 41.05801264 41.06078243 44.19921875 43.453125 C56.16785194 52.73424084 64.12639813 65.02682033 67 80 C67.27938696 83.04907844 67.31382756 86.07975632 67.32226562 89.14038086 C67.33716034 90.45715065 67.33716034 90.45715065 67.35235596 91.80052185 C67.38141639 94.6886621 67.39518296 97.57658159 67.40625 100.46484375 C67.41473213 101.96262454 67.41473213 101.96262454 67.42338562 103.49066353 C67.45331984 108.79090541 67.47180176 114.09103943 67.48046875 119.39135742 C67.48919055 123.72536339 67.51679049 128.05856236 67.5625 132.39233398 C67.84308281 159.52258154 67.56526459 183.59812276 57 209 C56.2898877 209.01119873 55.57977539 209.02239746 54.84814453 209.03393555 C51.93968552 209.0847788 49.03274311 209.16804155 46.125 209.25 C45.11179687 209.26417969 44.09859375 209.27835938 43.0546875 209.29296875 C36.71152443 209.49627526 31.73912031 210.5019465 25.95654297 213.15136719 C24 214 24 214 22 214 C21.93530518 213.35264893 21.87061035 212.70529785 21.80395508 212.03833008 C20.59918516 200.31017931 19.22217713 188.68611955 16.5625 177.1875 C16.36954346 176.31778564 16.17658691 175.44807129 15.9777832 174.55200195 C14.87261876 170.03718221 14.01302283 166.73271023 10 164 C8.845 163.72800781 7.69 163.45601562 6.5 163.17578125 C3 162 3 162 0.75 158.91796875 C0.14154693 157.68657564 -0.44144625 156.44231546 -1 155.1875 C-1.46599609 154.26227539 -1.46599609 154.26227539 -1.94140625 153.31835938 C-3.79749683 149.40225794 -4.24080644 147.11663387 -3 143 C-2.11400749 139.69229462 -1.47695665 137.22451222 -2.85595703 133.99609375 C-4.17955124 131.76841651 -5.59521022 129.635696 -7.0625 127.5 C-12.21176481 119.57434701 -15.88406475 111.92096529 -19 103 C-19.31453125 102.14921875 -19.6290625 101.2984375 -19.953125 100.421875 C-23.43261694 90.66565249 -24.36206189 81.19699265 -24.3125 70.875 C-24.30831055 69.68374512 -24.30412109 68.49249023 -24.29980469 67.26513672 C-24.183362 58.14916066 -23.33060176 49.8179478 -21 41 C-20.73316406 39.91460937 -20.46632812 38.82921875 -20.19140625 37.7109375 C-16.57846044 24.51164212 -9.80578975 9.80578975 0 0 Z " fill="#E6AB8B" transform="translate(158,121)"/>
<path d="M0 0 C4.39350095 1.51500033 6.3820816 4.90309813 8.8125 8.625 C9.24900879 9.29088135 9.68551758 9.9567627 10.13525391 10.64282227 C25.42044337 34.64275894 30.20273677 65.02624054 24.1015625 92.81640625 C20.21820582 108.38324617 13.39953427 121.79866065 4.63916016 135.13720703 C-11.34636856 159.52318933 -17.33133189 185.24158967 -20 214 C-21.01320313 213.69255859 -21.01320313 213.69255859 -22.046875 213.37890625 C-23.38492188 212.97478516 -23.38492188 212.97478516 -24.75 212.5625 C-25.63171875 212.29566406 -26.5134375 212.02882813 -27.421875 211.75390625 C-31.33686683 210.60906773 -34.66367413 209.87604919 -38.765625 209.90234375 C-39.65507812 209.90556641 -40.54453125 209.90878906 -41.4609375 209.91210938 C-42.38132812 209.92048828 -43.30171875 209.92886719 -44.25 209.9375 C-45.65378906 209.94426758 -45.65378906 209.94426758 -47.0859375 209.95117188 C-49.39069041 209.96293082 -51.69531227 209.97936574 -54 210 C-56.82618431 204.64227613 -58.98164815 199.50950639 -60.625 193.6875 C-60.82867187 193.00494141 -61.03234375 192.32238281 -61.2421875 191.61914062 C-61.8772909 189.42274135 -62.44450602 187.21787734 -63 185 C-63.17748779 184.30625778 -63.35497559 183.61251556 -63.5378418 182.89775085 C-65.6941697 172.99343453 -65.32850305 162.90220439 -65.3359375 152.8203125 C-65.34237673 150.75967316 -65.3491059 148.69903471 -65.35610962 146.63839722 C-65.36803641 142.33329144 -65.37179507 138.02826564 -65.37060547 133.72314453 C-65.37040226 128.23721898 -65.39772719 122.75181132 -65.43214989 117.26600838 C-65.45450525 113.01404515 -65.45844041 108.76220501 -65.45738602 104.51018906 C-65.4597281 102.48900439 -65.468472 100.46781559 -65.48405075 98.44668961 C-65.6149746 79.71211543 -62.77369451 63.56822156 -49.44921875 49.3046875 C-45.42605804 45.51893819 -41.06715929 42.19705492 -36.6796875 38.84765625 C-32.44831491 35.6073452 -28.39774549 32.1695513 -24.35083008 28.70361328 C-22.06993465 26.75108719 -19.78622674 24.83548474 -17.40625 23.00390625 C-9.98371137 16.82247392 -4.63426328 8.37802107 0 0 Z " fill="#E6AB8A" transform="translate(352,121)"/>
<path d="M0 0 C14.30652464 2.9093822 26.37658144 1.60942217 40.46044922 -1.26220703 C75.40059597 -8.35095077 75.40059597 -8.35095077 87.56201172 -0.89111328 C96.10933833 5.83867836 101.21374235 15.17206696 103.60107422 25.71435547 C103.90387371 29.48906329 103.9258563 33.24151869 103.91357422 37.02685547 C103.9296875 38.00847656 103.94580078 38.99009766 103.96240234 40.00146484 C103.96801228 48.47808198 102.37110224 56.18245934 98.22607422 63.65185547 C97.84708984 64.36212891 97.46810547 65.07240234 97.07763672 65.80419922 C94.48608792 69.15675838 91.80748631 70.52286149 87.64794922 71.18310547 C71.43669157 71.33676668 57.41836908 65.01382795 42.78564453 58.65136719 C22.85850645 50.10416603 10.36119174 51.22646903 -9.49658203 59.13232422 C-12.74130358 60.42973107 -15.98240677 61.73421887 -19.21582031 63.05957031 C-39.37995066 71.28622759 -39.37995066 71.28622759 -48.83642578 71.27685547 C-50.15513672 71.29876953 -51.47384766 71.32068359 -52.83251953 71.34326172 C-57.30647035 70.55431749 -58.62049826 69.25186302 -61.39892578 65.71435547 C-63.16455078 62.77685547 -63.16455078 62.77685547 -64.64892578 59.71435547 C-65.14908203 58.70373047 -65.64923828 57.69310547 -66.16455078 56.65185547 C-70.48060117 46.38074822 -70.40167067 29.83350365 -66.77392578 19.40185547 C-65.66064453 16.99560547 -65.66064453 16.99560547 -64.39892578 14.71435547 C-63.95162109 13.83779297 -63.50431641 12.96123047 -63.04345703 12.05810547 C-49.9759046 -11.76477832 -22.31364209 -4.58690124 0 0 Z " fill="#FCD1D4" transform="translate(238.39892578125,349.28564453125)"/>
<path d="M0 0 C4.39350095 1.51500033 6.3820816 4.90309813 8.8125 8.625 C9.24900879 9.29088135 9.68551758 9.9567627 10.13525391 10.64282227 C25.42044337 34.64275894 30.20273677 65.02624054 24.1015625 92.81640625 C20.21820582 108.38324617 13.39953427 121.79866065 4.63916016 135.13720703 C-11.34636856 159.52318933 -17.33133189 185.24158967 -20 214 C-20.54785156 213.80664062 -21.09570312 213.61328125 -21.66015625 213.4140625 C-29.35435682 210.88686166 -36.97957902 209.90898104 -45 209 C-44.09562101 181.68775462 -35.70587282 158.60409818 -21.0559082 135.84960938 C-10.31744035 119.09848286 -6.41134617 102.15680343 -6.5625 82.375 C-6.56520905 81.68366974 -6.56791809 80.99233948 -6.57070923 80.28005981 C-6.66820469 63.773437 -9.30788767 48.54054413 -14.94921875 33.03125 C-16 30 -16 30 -16.51953125 27.15625 C-16.67808594 26.4446875 -16.83664062 25.733125 -17 25 C-17.66 24.67 -18.32 24.34 -19 24 C-18.360625 23.38125 -17.72125 22.7625 -17.0625 22.125 C-10.29368541 15.29833229 -4.19705123 8.73155381 0 0 Z " fill="#DF9873" transform="translate(352,121)"/>
<path d="M0 0 C6.6 1.32 13.2 2.64 20 4 C20.495 8.455 20.495 8.455 21 13 C22.27617187 13.39832031 22.27617187 13.39832031 23.578125 13.8046875 C33.97660779 17.43703423 42.77726148 22.70563518 51 30 C42.63968564 45.70427679 29.59942602 55.2187519 12.76953125 60.73046875 C-3.77855947 64.59499293 -17.26098922 59.3982123 -31.75 51.5 C-33.86844706 50.36207655 -35.9882167 49.2266115 -38.109375 48.09375 C-39.02686523 47.59552734 -39.94435547 47.09730469 -40.88964844 46.58398438 C-44.85080882 44.56671526 -48.93788757 42.8053833 -53 41 C-53 31.43 -53 21.86 -53 12 C-39.18036391 8.588824 -26.58702946 6.40529707 -12.34423828 6.36547852 C-11.2973584 6.35572998 -10.25047852 6.34598145 -9.171875 6.3359375 C-8.2447168 6.34157715 -7.31755859 6.3472168 -6.36230469 6.35302734 C-3.52784756 5.92944063 -2.69127439 5.27435756 -1 3 C-0.67 2.01 -0.34 1.02 0 0 Z " fill="#E5AB8A" transform="translate(446,164)"/>
<path d="M0 0 C0 9.57 0 19.14 0 29 C-3.1865625 30.4540625 -3.1865625 30.4540625 -6.4375 31.9375 C-11.5300438 34.28151644 -16.50481071 36.77243439 -21.42504883 39.45947266 C-36.8009191 47.84375646 -50.4109878 53.01144276 -68.0234375 48.0390625 C-81.963829 43.17273161 -95.67979063 34.0138163 -102.7578125 20.69140625 C-103.16773437 19.80324219 -103.57765625 18.91507813 -104 18 C-77.10119549 -6.312381 -33.70705462 -11.23568487 0 0 Z " fill="#E5AB8A" transform="translate(119,176)"/>
<path d="M0 0 C1.26174761 0.54116649 2.52411606 1.08088782 3.78710938 1.61914062 C6.21774056 2.65622102 8.6449685 3.70016383 11.07080078 4.74853516 C15.4959641 6.63989938 19.95628772 8.433699 24.4375 10.1875 C18.02639789 20.87267019 6.15462213 26.84826927 -5.5625 30.1875 C-23.37927023 33.54175748 -41.01465275 32.23760535 -56.625 22.6875 C-58.28857206 21.54626976 -59.93679911 20.38206062 -61.5625 19.1875 C-62.201875 18.71957031 -62.84125 18.25164062 -63.5 17.76953125 C-66.40081019 15.50327329 -68.04763527 13.50344814 -69.5625 10.1875 C-60.92621433 6.5809002 -52.2826415 2.99254703 -43.625 -0.5625 C-42.43326172 -1.05621094 -41.24152344 -1.54992187 -40.01367188 -2.05859375 C-38.86576172 -2.52910156 -37.71785156 -2.99960937 -36.53515625 -3.484375 C-35.50656494 -3.9081543 -34.47797363 -4.33193359 -33.41821289 -4.76855469 C-21.44294339 -9.14627995 -11.09600954 -4.86712304 0 0 Z " fill="#E5AA8A" transform="translate(278.5625,421.8125)"/>
<path d="M0 0 C0.89589844 -0.00257812 1.79179687 -0.00515625 2.71484375 -0.0078125 C4.12443359 0.00378906 4.12443359 0.00378906 5.5625 0.015625 C6.47128906 0.00789063 7.38007813 0.00015625 8.31640625 -0.0078125 C24.30391188 0.03767116 39.09154782 5.25694492 51.5625 15.265625 C52.19542969 15.75933594 52.82835937 16.25304687 53.48046875 16.76171875 C56.64529329 19.33968841 59.35005619 22.0995872 62 25.203125 C68.04202043 32.24327656 75.14643774 37.53546375 82.72680664 42.80224609 C84.35282055 43.9367373 85.95868852 45.0999577 87.5625 46.265625 C88.21605469 46.73484375 88.86960937 47.2040625 89.54296875 47.6875 C90.5625 49.265625 90.5625 49.265625 90.44921875 52.10546875 C88.25121922 59.93886797 83.15274472 66.6042324 76.5625 71.265625 C76.08941406 70.61078125 75.61632812 69.9559375 75.12890625 69.28125 C72.94747715 66.27062271 70.75490533 63.26826709 68.5625 60.265625 C67.85351562 59.28207031 67.14453125 58.29851562 66.4140625 57.28515625 C48.74987681 33.14835378 22.93517375 10.62249683 -6.4375 2.265625 C-3.9973239 -0.1745511 -3.34597214 0.00936872 0 0 Z " fill="#E3DFE3" transform="translate(250.4375,58.734375)"/>
<path d="M0 0 C3.63326668 0.60554445 4.74144325 1.6558915 7 4.5 C8.74220381 7.98440762 8.70212048 12.14599357 9.07421875 16.00195312 C9.52568376 19.93680141 9.52568376 19.93680141 11.375 23.36328125 C13.20076207 24.68067153 13.20076207 24.68067153 16.125 26.25 C19 28.5 19 28.5 20.1875 31.9375 C20 35.5 20 35.5 18.0625 38.5 C14.77031133 40.65000077 12.9804877 41.05624653 9.1171875 40.26171875 C2.24793529 37.79030882 -1.72572838 33.13863707 -5.08984375 26.84375 C-7.03060755 21.84607497 -7.20346451 16.68904542 -7.3125 11.375 C-7.34988281 10.17617188 -7.38726562 8.97734375 -7.42578125 7.7421875 C-7 4.5 -7 4.5 -5.16796875 2.1015625 C-3 0.5 -3 0.5 0 0 Z " fill="#060505" transform="translate(193,362.5)"/>
<path d="M0 0 C2.375 1.3125 2.375 1.3125 4 4 C4.42780456 7.69960561 4.24222461 11.29093571 4 15 C3.979375 15.79277344 3.95875 16.58554687 3.9375 17.40234375 C3.56183667 24.08210731 1.0767079 29.68103163 -3.48828125 34.60546875 C-7.70217557 38.31848674 -11.01552827 40.06843006 -16.625 39.875 C-20 39 -20 39 -22 37.375 C-23.45635054 33.91616747 -22.91305869 31.58701629 -22 28 C-20.33053386 25.5792741 -19.25528984 25.08094556 -16.4375 24.1875 C-13.79577 23.2021482 -13.79577 23.2021482 -12.75 20.5625 C-12.09587229 17.45539337 -11.78796402 14.59399623 -11.5625 11.4375 C-11.24209363 7.23216643 -10.78293023 4.33951627 -8 1 C-5.15916359 -0.42041821 -3.14522722 -0.31452272 0 0 Z " fill="#060505" transform="translate(322,363)"/>
<path d="M0 0 C4.56736441 0.70062483 8.5699505 2.31270207 12.8125 4.0625 C13.50537109 4.34416016 14.19824219 4.62582031 14.91210938 4.91601562 C16.60967624 5.60674973 18.30506312 6.30283728 20 7 C13.58802751 17.68662082 1.7175477 23.66720973 -10 27 C-13.05025055 27.56266758 -15.89441043 27.84208867 -19 28 C-16.99478238 25.40064382 -15.01141103 23.01081045 -12.625 20.75 C-6.84663553 14.69647532 -3.10251172 7.71977917 0 0 Z " fill="#DD9672" transform="translate(283,425)"/>
<path d="M0 0 C3.81188351 0.72993514 4.70464022 1.36395192 6.9375 4.5625 C7.56773143 8.23480268 7.54083094 11.84448299 7.5 15.5625 C7.52384766 16.56023437 7.54769531 17.55796875 7.57226562 18.5859375 C7.55761511 25.87212554 7.55761511 25.87212554 4.55859375 29.2109375 C1.54697124 30.76387549 0.24583467 31.38958367 -3.0625 30.5625 C-6.67317637 27.19433174 -8.34809417 24.96732635 -8.7265625 19.99609375 C-8.73972743 18.3307303 -8.72613033 16.6649674 -8.6875 15 C-8.70683594 14.16275391 -8.72617187 13.32550781 -8.74609375 12.46289062 C-8.71105168 8.03707668 -8.48616557 6.1137587 -5.71484375 2.5078125 C-3.0625 0.5625 -3.0625 0.5625 0 0 Z " fill="#080605" transform="translate(335.0625,189.4375)"/>
<path d="M0 0 C2.15234375 1.34375 2.15234375 1.34375 4 4 C4.62979742 7.67240502 4.60333141 11.28193958 4.5625 15 C4.58634766 15.99773437 4.61019531 16.99546875 4.63476562 18.0234375 C4.62012151 25.30644305 4.62012151 25.30644305 1.625 28.65625 C-1.32183884 30.16475084 -2.7529287 30.66606591 -6 30 C-8.12109375 28.65625 -8.12109375 28.65625 -10 26 C-10.60783027 22.32757968 -10.5575858 18.7142844 -10.5 15 C-10.51546875 14.00226563 -10.5309375 13.00453125 -10.546875 11.9765625 C-10.50802966 4.73190714 -10.50802966 4.73190714 -8.15625 1.34375 C-5.18667393 -0.50685538 -3.43545292 -0.57257549 0 0 Z " fill="#020201" transform="translate(180,190)"/>
</svg>
