<?xml version="1.0" encoding="UTF-8"?>
<svg version="1.1" xmlns="http://www.w3.org/2000/svg" width="512" height="512">
<path d="M0 0 C3.09248437 0.01073949 6.18438819 0.00000877 9.27685547 -0.01269531 C64.55030805 -0.05313324 64.55030805 -0.05313324 76.03466797 10.50292969 C76.80617188 11.37304688 76.80617188 11.37304688 77.59326172 12.26074219 C78.20041016 12.94394531 78.80755859 13.62714844 79.43310547 14.33105469 C83.5012861 19.2679166 86.67873712 24.57943386 89.59326172 30.26074219 C95.68934648 21.99299613 101.76210833 13.71889983 107.59326172 5.26074219 C117.30263973 6.4461895 125.9454074 12.77107534 132.03076172 20.26074219 C133.85560786 23.76444677 133.71977268 24.58882976 132.59326172 28.26074219 C131.21044922 30.44897461 131.21044922 30.44897461 129.46826172 32.61621094 C128.53240234 33.79666992 128.53240234 33.79666992 127.57763672 35.00097656 C126.92279297 35.80857422 126.26794922 36.61617187 125.59326172 37.44824219 C124.30030954 39.065705 123.008581 40.68414696 121.71826172 42.30371094 C121.14333984 43.01551514 120.56841797 43.72731934 119.97607422 44.46069336 C118.53541254 46.21790824 118.53541254 46.21790824 117.59326172 48.26074219 C118.45048828 48.298125 119.30771484 48.33550781 120.19091797 48.37402344 C134.74864821 49.2110519 134.74864821 49.2110519 139.27294922 54.06152344 C146.61143651 63.38386017 146.40921536 72.89759598 145.21337891 84.24755859 C144.72048031 88.36977958 144.1064636 92.47136062 143.46826172 96.57324219 C143.3565564 97.30785675 143.24485107 98.04247131 143.12976074 98.79934692 C135.94360952 145.8192089 119.72269723 190.96118638 92.59326172 230.26074219 C91.94744141 231.20167725 91.94744141 231.20167725 91.28857422 232.16162109 C85.76124809 240.1741503 79.87021494 247.81792038 73.59326172 255.26074219 C72.80564453 256.23398437 72.01802734 257.20722656 71.20654297 258.20996094 C64.45266783 266.45057811 57.04075075 274.02835182 49.53076172 281.57324219 C48.77084427 282.34092422 48.77084427 282.34092422 47.99557495 283.12411499 C41.19828319 289.97608291 34.15620885 296.24569846 26.59326172 302.26074219 C25.56570114 303.1241179 24.54230107 303.9925247 23.52685547 304.87011719 C2.76210354 322.67776047 -20.69990907 336.77948921 -44.40673828 350.26074219 C-45.1748584 350.70192383 -45.94297852 351.14310547 -46.734375 351.59765625 C-72.95529544 366.56540633 -101.78916925 375.20667014 -131.40673828 380.26074219 C-132.18178711 380.39496582 -132.95683594 380.52918945 -133.75537109 380.66748047 C-190.5459268 389.93275929 -253.08106136 376.42488485 -305.21923828 354.01074219 C-306.12488525 353.62305664 -307.03053223 353.23537109 -307.96362305 352.8359375 C-319.95427952 347.49167283 -327.57409999 341.24768058 -333.54736328 329.51074219 C-336.49218127 321.80067328 -336.75888935 314.63278955 -336.71923828 306.44824219 C-336.71359863 305.21775146 -336.70795898 303.98726074 -336.70214844 302.71948242 C-335.81796381 234.12513898 -308.44679968 170.30662233 -263.40673828 119.26074219 C-262.76833008 118.5347583 -262.12992187 117.80877441 -261.47216797 117.06079102 C-256.00403257 110.90822286 -250.32440621 104.99214205 -244.50537109 99.17407227 C-243.03467418 97.70118247 -241.57220294 96.22043953 -240.10986328 94.73925781 C-233.87633825 88.46928475 -227.31954624 82.77715735 -220.40673828 77.26074219 C-219.30500007 76.32585664 -218.20865449 75.3845161 -217.12158203 74.43261719 C-172.34486832 35.38681902 -115.17001919 13.13248637 -56.96923828 3.94824219 C-56.03772949 3.80088623 -55.1062207 3.65353027 -54.14648438 3.50170898 C-36.16673725 0.88253947 -18.15336848 -0.07457538 0 0 Z " fill="#F7F7FD" transform="translate(351.40673828125,64.7392578125)"/>
<path d="M0 0 C3.09248437 0.01073949 6.18438819 0.00000877 9.27685547 -0.01269531 C64.55030805 -0.05313324 64.55030805 -0.05313324 76.03466797 10.50292969 C76.80617188 11.37304688 76.80617188 11.37304688 77.59326172 12.26074219 C78.20041016 12.94394531 78.80755859 13.62714844 79.43310547 14.33105469 C83.5012861 19.2679166 86.67873712 24.57943386 89.59326172 30.26074219 C95.68934648 21.99299613 101.76210833 13.71889983 107.59326172 5.26074219 C117.30263973 6.4461895 125.9454074 12.77107534 132.03076172 20.26074219 C133.85560786 23.76444677 133.71977268 24.58882976 132.59326172 28.26074219 C131.21044922 30.44897461 131.21044922 30.44897461 129.46826172 32.61621094 C128.53240234 33.79666992 128.53240234 33.79666992 127.57763672 35.00097656 C126.92279297 35.80857422 126.26794922 36.61617187 125.59326172 37.44824219 C124.30030954 39.065705 123.008581 40.68414696 121.71826172 42.30371094 C121.14333984 43.01551514 120.56841797 43.72731934 119.97607422 44.46069336 C118.53541254 46.21790824 118.53541254 46.21790824 117.59326172 48.26074219 C118.45048828 48.298125 119.30771484 48.33550781 120.19091797 48.37402344 C134.74864821 49.2110519 134.74864821 49.2110519 139.27294922 54.06152344 C146.61143651 63.38386017 146.40921536 72.89759598 145.21337891 84.24755859 C144.72048031 88.36977958 144.1064636 92.47136062 143.46826172 96.57324219 C143.3565564 97.30785675 143.24485107 98.04247131 143.12976074 98.79934692 C135.94360952 145.8192089 119.72269723 190.96118638 92.59326172 230.26074219 C91.94744141 231.20167725 91.94744141 231.20167725 91.28857422 232.16162109 C85.76124809 240.1741503 79.87021494 247.81792038 73.59326172 255.26074219 C72.80564453 256.23398437 72.01802734 257.20722656 71.20654297 258.20996094 C64.45266783 266.45057811 57.04075075 274.02835182 49.53076172 281.57324219 C48.77084427 282.34092422 48.77084427 282.34092422 47.99557495 283.12411499 C41.19828319 289.97608291 34.15620885 296.24569846 26.59326172 302.26074219 C25.56570114 303.1241179 24.54230107 303.9925247 23.52685547 304.87011719 C2.76210354 322.67776047 -20.69990907 336.77948921 -44.40673828 350.26074219 C-45.1748584 350.70192383 -45.94297852 351.14310547 -46.734375 351.59765625 C-72.95529544 366.56540633 -101.78916925 375.20667014 -131.40673828 380.26074219 C-132.18178711 380.39496582 -132.95683594 380.52918945 -133.75537109 380.66748047 C-190.5459268 389.93275929 -253.08106136 376.42488485 -305.21923828 354.01074219 C-306.12488525 353.62305664 -307.03053223 353.23537109 -307.96362305 352.8359375 C-319.95427952 347.49167283 -327.57409999 341.24768058 -333.54736328 329.51074219 C-336.49218127 321.80067328 -336.75888935 314.63278955 -336.71923828 306.44824219 C-336.71359863 305.21775146 -336.70795898 303.98726074 -336.70214844 302.71948242 C-335.81796381 234.12513898 -308.44679968 170.30662233 -263.40673828 119.26074219 C-262.76833008 118.5347583 -262.12992187 117.80877441 -261.47216797 117.06079102 C-256.00403257 110.90822286 -250.32440621 104.99214205 -244.50537109 99.17407227 C-243.03467418 97.70118247 -241.57220294 96.22043953 -240.10986328 94.73925781 C-233.87633825 88.46928475 -227.31954624 82.77715735 -220.40673828 77.26074219 C-219.30500007 76.32585664 -218.20865449 75.3845161 -217.12158203 74.43261719 C-172.34486832 35.38681902 -115.17001919 13.13248637 -56.96923828 3.94824219 C-56.03772949 3.80088623 -55.1062207 3.65353027 -54.14648438 3.50170898 C-36.16673725 0.88253947 -18.15336848 -0.07457538 0 0 Z M-44.40673828 31.26074219 C-45.09268066 31.38932617 -45.77862305 31.51791016 -46.48535156 31.65039062 C-67.87724861 35.71666174 -88.97147779 43.54505819 -108.40673828 53.26074219 C-109.23318848 53.67066406 -110.05963867 54.08058594 -110.91113281 54.50292969 C-136.07807278 67.16554099 -159.40688415 83.75573443 -181.40673828 101.26074219 C-182.52338867 102.14415283 -182.52338867 102.14415283 -183.66259766 103.04541016 C-191.26321366 109.07354316 -198.67934445 115.23491175 -205.78173828 121.84667969 C-207.81574558 123.71723997 -209.87497418 125.51954498 -211.97314453 127.31542969 C-217.11863606 131.80461468 -221.94411842 136.61206829 -226.76977539 141.43847656 C-228.33282562 142.99934545 -229.90371193 144.55202107 -231.47509766 146.10449219 C-237.90455274 152.4981813 -243.77488469 159.14143048 -249.40673828 166.26074219 C-250.4069042 167.46957581 -251.41031803 168.67573739 -252.41845703 169.87792969 C-293.43239121 219.49240706 -309.11243296 273.86689387 -305.40673828 337.26074219 C-296.4085855 335.8705547 -287.53697344 334.07813312 -278.65673828 332.07324219 C-277.9847641 331.92178741 -277.31278992 331.77033264 -276.62045288 331.61428833 C-264.84952357 328.94798936 -253.26096481 325.82188589 -241.72363281 322.27124023 C-239.15503548 321.48871231 -236.58370233 320.72098842 -234.0078125 319.96313477 C-221.54010415 316.28454964 -209.20487277 312.28253082 -196.90673828 308.07324219 C-195.46874878 307.58161087 -195.46874878 307.58161087 -194.00170898 307.08004761 C-144.86217144 290.2416788 -96.86016085 269.25630669 -52.40673828 242.26074219 C-50.77195815 241.28441516 -49.13656396 240.3091154 -47.50048828 239.33496094 C-26.64089622 226.84454036 -6.46436159 212.76930404 11.83789062 196.74511719 C13.14546118 195.6394108 14.48063701 194.56619031 15.82910156 193.51074219 C24.14802431 186.94933833 31.56562383 179.59264344 39.02783203 172.08691406 C41.21411048 169.88991379 43.41088109 167.70381541 45.60888672 165.51855469 C53.06087583 158.07431725 60.14836879 150.60574362 66.59326172 142.26074219 C67.71640861 140.8618621 68.8400719 139.46339639 69.96435547 138.06542969 C85.57604472 118.2156435 98.30307347 97.45367945 95.59326172 71.26074219 C92.68502505 59.91741245 86.35094258 54.06076228 76.59326172 48.26074219 C40.72029954 27.59619751 -4.16826911 23.13266073 -44.40673828 31.26074219 Z " fill="#AA6256" transform="translate(351.40673828125,64.7392578125)"/>
<path d="M0 0 C3.09248437 0.01073949 6.18438819 0.00000877 9.27685547 -0.01269531 C64.55030805 -0.05313324 64.55030805 -0.05313324 76.03466797 10.50292969 C76.80617188 11.37304688 76.80617188 11.37304688 77.59326172 12.26074219 C78.20041016 12.94394531 78.80755859 13.62714844 79.43310547 14.33105469 C83.5012861 19.2679166 86.67873712 24.57943386 89.59326172 30.26074219 C95.68934648 21.99299613 101.76210833 13.71889983 107.59326172 5.26074219 C117.30263973 6.4461895 125.9454074 12.77107534 132.03076172 20.26074219 C133.85560786 23.76444677 133.71977268 24.58882976 132.59326172 28.26074219 C131.21044922 30.44897461 131.21044922 30.44897461 129.46826172 32.61621094 C128.53240234 33.79666992 128.53240234 33.79666992 127.57763672 35.00097656 C126.92279297 35.80857422 126.26794922 36.61617187 125.59326172 37.44824219 C124.30030954 39.065705 123.008581 40.68414696 121.71826172 42.30371094 C121.14333984 43.01551514 120.56841797 43.72731934 119.97607422 44.46069336 C118.53541254 46.21790824 118.53541254 46.21790824 117.59326172 48.26074219 C118.45048828 48.298125 119.30771484 48.33550781 120.19091797 48.37402344 C126.64524784 48.74512921 131.86322096 49.19583667 137.59326172 52.26074219 C139.85082083 78.89993968 110.25965155 109.69951824 94.15576172 128.82324219 C86.55109691 137.74301951 78.81894926 146.30139786 70.07397461 154.11889648 C66.03835581 157.76092353 62.37859317 161.65062551 58.75097656 165.69458008 C53.58412824 171.43666214 48.08891728 176.83594751 42.59326172 182.26074219 C39.78000033 185.06030263 36.98686264 187.87786583 34.21044922 190.71386719 C27.83240355 197.20249514 21.46933965 203.47323813 14.30419922 209.10449219 C11.86044214 211.0482298 9.51252183 213.07241829 7.16894531 215.13476562 C-0.74317636 222.04408043 -9.29433145 227.89915996 -18.04296875 233.69384766 C-20.24613491 235.1542815 -22.43832726 236.62990705 -24.62939453 238.10839844 C-62.17678772 263.19829034 -105.15817288 281.72566035 -147.40673828 297.26074219 C-148.64214355 297.71771484 -149.87754883 298.1746875 -151.15039062 298.64550781 C-188.53217407 312.42519445 -226.77314535 323.08102794 -265.28417969 333.17358398 C-265.93330133 333.34383433 -266.58242298 333.51408468 -267.25121498 333.68949413 C-270.47127506 334.53374895 -273.6920077 335.37518167 -276.91384888 336.21263123 C-283.51069842 337.93592146 -290.07818713 339.72355572 -296.62646484 341.62158203 C-297.96796975 342.00660575 -299.30953183 342.39143033 -300.65115356 342.77604675 C-303.18672994 343.50325198 -305.71356406 344.25000958 -308.24020386 345.00874329 C-309.93743088 345.49639412 -309.93743088 345.49639412 -311.66894531 345.99389648 C-312.65959991 346.28741501 -313.65025452 346.58093353 -314.67092896 346.88334656 C-317.92073644 347.33164649 -319.52710482 346.76497049 -322.40673828 345.26074219 C-330.00717235 338.69087545 -334.80467957 329.09752292 -336.40673828 319.26074219 C-336.71602182 314.98680488 -336.73999208 310.7321227 -336.71923828 306.44824219 C-336.71359863 305.21775146 -336.70795898 303.98726074 -336.70214844 302.71948242 C-335.81796381 234.12513898 -308.44679968 170.30662233 -263.40673828 119.26074219 C-262.76833008 118.5347583 -262.12992187 117.80877441 -261.47216797 117.06079102 C-256.00403257 110.90822286 -250.32440621 104.99214205 -244.50537109 99.17407227 C-243.03467418 97.70118247 -241.57220294 96.22043953 -240.10986328 94.73925781 C-233.87633825 88.46928475 -227.31954624 82.77715735 -220.40673828 77.26074219 C-219.30500007 76.32585664 -218.20865449 75.3845161 -217.12158203 74.43261719 C-172.34486832 35.38681902 -115.17001919 13.13248637 -56.96923828 3.94824219 C-56.03772949 3.80088623 -55.1062207 3.65353027 -54.14648438 3.50170898 C-36.16673725 0.88253947 -18.15336848 -0.07457538 0 0 Z M-44.40673828 31.26074219 C-45.09268066 31.38932617 -45.77862305 31.51791016 -46.48535156 31.65039062 C-67.87724861 35.71666174 -88.97147779 43.54505819 -108.40673828 53.26074219 C-109.23318848 53.67066406 -110.05963867 54.08058594 -110.91113281 54.50292969 C-136.07807278 67.16554099 -159.40688415 83.75573443 -181.40673828 101.26074219 C-182.52338867 102.14415283 -182.52338867 102.14415283 -183.66259766 103.04541016 C-191.26321366 109.07354316 -198.67934445 115.23491175 -205.78173828 121.84667969 C-207.81574558 123.71723997 -209.87497418 125.51954498 -211.97314453 127.31542969 C-217.11863606 131.80461468 -221.94411842 136.61206829 -226.76977539 141.43847656 C-228.33282562 142.99934545 -229.90371193 144.55202107 -231.47509766 146.10449219 C-237.90455274 152.4981813 -243.77488469 159.14143048 -249.40673828 166.26074219 C-250.4069042 167.46957581 -251.41031803 168.67573739 -252.41845703 169.87792969 C-293.43239121 219.49240706 -309.11243296 273.86689387 -305.40673828 337.26074219 C-296.4085855 335.8705547 -287.53697344 334.07813312 -278.65673828 332.07324219 C-277.9847641 331.92178741 -277.31278992 331.77033264 -276.62045288 331.61428833 C-264.84952357 328.94798936 -253.26096481 325.82188589 -241.72363281 322.27124023 C-239.15503548 321.48871231 -236.58370233 320.72098842 -234.0078125 319.96313477 C-221.54010415 316.28454964 -209.20487277 312.28253082 -196.90673828 308.07324219 C-195.46874878 307.58161087 -195.46874878 307.58161087 -194.00170898 307.08004761 C-144.86217144 290.2416788 -96.86016085 269.25630669 -52.40673828 242.26074219 C-50.77195815 241.28441516 -49.13656396 240.3091154 -47.50048828 239.33496094 C-26.64089622 226.84454036 -6.46436159 212.76930404 11.83789062 196.74511719 C13.14546118 195.6394108 14.48063701 194.56619031 15.82910156 193.51074219 C24.14802431 186.94933833 31.56562383 179.59264344 39.02783203 172.08691406 C41.21411048 169.88991379 43.41088109 167.70381541 45.60888672 165.51855469 C53.06087583 158.07431725 60.14836879 150.60574362 66.59326172 142.26074219 C67.71640861 140.8618621 68.8400719 139.46339639 69.96435547 138.06542969 C85.57604472 118.2156435 98.30307347 97.45367945 95.59326172 71.26074219 C92.68502505 59.91741245 86.35094258 54.06076228 76.59326172 48.26074219 C40.72029954 27.59619751 -4.16826911 23.13266073 -44.40673828 31.26074219 Z " fill="#FECE6B" transform="translate(351.40673828125,64.7392578125)"/>
<path d="M0 0 C3.77248131 3.77913472 5.54982276 8.21560439 7.21484375 13.21875 C7.54484375 14.20875 7.87484375 15.19875 8.21484375 16.21875 C9.76318037 40.50986718 0.70516467 59.34871794 -13.78515625 78.21875 C-14.44257813 79.07726562 -15.1 79.93578125 -15.77734375 80.8203125 C-17.7407564 83.32142322 -19.75619186 85.77045033 -21.78515625 88.21875 C-22.6037915 89.20705811 -23.42242676 90.19536621 -24.26586914 91.21362305 C-31.54998705 99.90229924 -39.2903204 108.03547747 -47.33081055 116.02514648 C-49.35638107 118.03992835 -51.37094009 120.06528275 -53.38476562 122.09179688 C-60.54743451 129.26218811 -67.79657176 135.96892021 -75.78515625 142.21875 C-77.10272446 143.30273011 -78.41686635 144.39089667 -79.7265625 145.484375 C-100.06777226 162.30095363 -121.96122919 176.98704093 -144.78515625 190.21875 C-145.38650391 190.56824707 -145.98785156 190.91774414 -146.60742188 191.27783203 C-203.67267953 224.2846904 -266.11576117 250.50777087 -329.85205078 267.42431641 C-332.82926697 268.23069742 -335.78983961 269.08244211 -338.75 269.94921875 C-350.80067084 273.46060837 -362.90097803 276.48000743 -375.16015625 279.15625 C-375.87068146 279.3119043 -376.58120667 279.46755859 -377.31326294 279.62792969 C-389.19827134 282.21875 -389.19827134 282.21875 -392.78515625 282.21875 C-396.9968718 210.16833038 -373.96086568 153.09743111 -326.46728516 99.08572388 C-322.08505273 94.2219388 -317.43675425 89.61425878 -312.78369141 85.01147461 C-311.01654915 83.26283776 -309.2577901 81.5060801 -307.5 79.74804688 C-301.76363056 74.02943616 -295.98429629 68.43988348 -289.78515625 63.21875 C-288.77526487 62.34203983 -287.76610904 61.46448141 -286.7578125 60.5859375 C-278.70427738 53.68908461 -270.38368629 47.20545212 -261.9140625 40.82861328 C-259.88238009 39.29226995 -257.86351633 37.74061244 -255.84765625 36.18359375 C-188.46574952 -15.5721684 -95.30755522 -50.96691 0 0 Z M-149.22265625 0.78125 C-153.86438398 6.47521117 -153.86438398 6.47521117 -155.78515625 13.21875 C-156.79715088 13.19518433 -156.79715088 13.19518433 -157.82958984 13.17114258 C-160.93969049 13.10808921 -164.04965597 13.06953869 -167.16015625 13.03125 C-168.22105469 13.00611328 -169.28195312 12.98097656 -170.375 12.95507812 C-182.42902541 12.84415151 -192.11086993 15.71977326 -200.8671875 24.24609375 C-204.90885656 28.65128168 -204.90885656 28.65128168 -206.78515625 34.21875 C-208.48671875 34.280625 -208.48671875 34.280625 -210.22265625 34.34375 C-221.1311354 35.59189887 -231.80196286 40.51887204 -241.59765625 45.28125 C-242.59261108 45.75510132 -242.59261108 45.75510132 -243.60766602 46.23852539 C-247.67315315 48.29417979 -250.4331776 50.28901011 -252.78515625 54.21875 C-253.26433126 57.10956903 -253.26433126 57.10956903 -253.03515625 60.03125 C-252.9990625 61.00707031 -252.96296875 61.98289062 -252.92578125 62.98828125 C-252.879375 63.72433594 -252.83296875 64.46039063 -252.78515625 65.21875 C-253.53796875 65.11433594 -254.29078125 65.00992188 -255.06640625 64.90234375 C-266.92780113 63.99546526 -275.66432945 69.07725549 -284.51953125 76.515625 C-291.34695771 83.53139426 -298.43220949 94.35351322 -299.78515625 104.21875 C-301.27015625 104.528125 -301.27015625 104.528125 -302.78515625 104.84375 C-313.83868806 108.03055453 -321.68982739 118.6053139 -327.5 127.86328125 C-328.94480763 130.06415407 -328.94480763 130.06415407 -328.78515625 132.21875 C-329.83445312 132.3115625 -330.88375 132.404375 -331.96484375 132.5 C-343.62059697 134.69290245 -351.72904034 147.74575651 -358.16992188 156.8515625 C-368.64508943 170.86692874 -368.64508943 170.86692874 -371.78515625 187.21875 C-370.42026945 190.62116824 -370.42026945 190.62116824 -368.78515625 193.21875 C-368.12515625 193.21875 -367.46515625 193.21875 -366.78515625 193.21875 C-367.23246094 193.66863281 -367.67976563 194.11851562 -368.140625 194.58203125 C-379.17187602 206.318906 -381.94874804 221.24915007 -382.22265625 236.90625 C-382.24497314 237.67267822 -382.26729004 238.43910645 -382.2902832 239.22875977 C-382.27600978 242.68794237 -382.05011641 244.83219854 -380.07421875 247.71484375 C-377.35462095 249.50161022 -375.95400154 249.69844749 -372.72265625 249.59375 C-371.86542969 249.58085937 -371.00820313 249.56796875 -370.125 249.5546875 C-367.28499502 249.26902618 -364.59564061 248.82622008 -361.796875 248.2890625 C-353.92002423 246.80386953 -345.9641852 246.13586037 -337.9921875 245.36328125 C-326.39327037 244.72725757 -326.39327037 244.72725757 -316.22265625 240.09375 C-315.74828125 239.475 -315.27390625 238.85625 -314.78515625 238.21875 C-314.15222656 239.02957031 -313.51929688 239.84039062 -312.8671875 240.67578125 C-308.66985889 244.13897634 -305.7663081 244.02031024 -300.47265625 243.90625 C-299.53929443 243.89625977 -298.60593262 243.88626953 -297.64428711 243.87597656 C-288.57967192 243.58176072 -279.74701317 242.11169454 -270.84765625 240.46875 C-270.15070648 240.34277435 -269.45375671 240.21679871 -268.73568726 240.08700562 C-261.44453987 238.74490328 -255.01645998 237.39320277 -248.78515625 233.21875 C-246.6953125 232.41796875 -246.6953125 232.41796875 -244.84765625 231.90625 C-229.96303494 227.18299967 -214.87963114 220.41316769 -206.6875 206.33203125 C-205.05709214 202.83613347 -204.6751091 200.01861327 -204.78515625 196.21875 C-203.93244141 196.76015625 -203.93244141 196.76015625 -203.0625 197.3125 C-198.12187696 200.2818227 -194.67841022 202.2176066 -188.78515625 201.21875 C-177.42715657 197.45929989 -166.30313525 191.77616818 -160.53125 180.84375 C-158.49771408 176.69290163 -158.49771408 176.69290163 -157.78515625 172.21875 C-156.80933594 172.5384375 -155.83351563 172.858125 -154.828125 173.1875 C-145.63766687 175.79157857 -134.73516075 175.75981909 -126.09765625 171.59375 C-124.29319534 170.52351801 -122.51722757 169.40255937 -120.78515625 168.21875 C-120.10066406 167.76242187 -119.41617187 167.30609375 -118.7109375 166.8359375 C-113.74747165 163.06757948 -110.33034749 157.86851518 -107.78515625 152.21875 C-107.78515625 150.89875 -107.78515625 149.57875 -107.78515625 148.21875 C-107.16769531 148.27675781 -106.55023438 148.33476562 -105.9140625 148.39453125 C-96.26078627 148.90878493 -90.80351552 145.10614481 -83.59765625 139.03125 C-75.2077234 131.16162307 -68.22467101 118.8529135 -67.6875 107.078125 C-67.69910156 106.38203125 -67.71070313 105.6859375 -67.72265625 104.96875 C-67.75359375 103.1125 -67.75359375 103.1125 -67.78515625 101.21875 C-66.58890625 100.868125 -65.39265625 100.5175 -64.16015625 100.15625 C-55.17197791 97.16019055 -43.33325868 92.79433954 -38.08984375 84.5546875 C-32.4397944 72.85321918 -27.91146125 60.94048925 -31.453125 47.7265625 C-31.68644531 47.06398437 -31.91976563 46.40140625 -32.16015625 45.71875 C-32.78515625 42.21875 -32.78515625 42.21875 -31.79296875 40.609375 C-30.75047018 39.47505013 -29.67908011 38.3668537 -28.5859375 37.28125 C-21.23895485 28.86648462 -19.31096663 18.93261103 -19.5078125 8.1875 C-19.97366406 1.52122985 -21.9435037 -1.80805084 -26.41015625 -6.59375 C-35.84449137 -13.43826764 -48.67043338 -12.80336863 -59.78515625 -11.78125 C-65.8168017 -10.79950345 -71.8614334 -9.22974074 -77.34765625 -6.51171875 C-80.7346646 -5.49670182 -82.2072146 -6.44339263 -85.34765625 -7.96875 C-95.12663522 -12.30180848 -103.74145373 -14.04682261 -114.41015625 -14.15625 C-115.2808374 -14.17018799 -116.15151855 -14.18412598 -117.04858398 -14.19848633 C-130.15350623 -14.10329917 -140.45360223 -9.0038657 -149.22265625 0.78125 Z " fill="#FEDD9A" transform="translate(438.78515625,119.78125)"/>
<path d="M0 0 C5.09124669 4.54084164 7.77420327 8.31641984 8.19067383 15.1105957 C8.2338347 24.68264657 7.34545233 33.86153864 5.875 43.3125 C5.76329468 44.04711456 5.65158936 44.78172913 5.53649902 45.53860474 C-1.6496522 92.55846672 -17.87056449 137.70044419 -45 177 C-45.64582031 177.94093506 -45.64582031 177.94093506 -46.3046875 178.90087891 C-51.83201363 186.91340811 -57.72304678 194.55717819 -64 202 C-64.78761719 202.97324219 -65.57523437 203.94648438 -66.38671875 204.94921875 C-73.14059389 213.18983593 -80.55251097 220.76760963 -88.0625 228.3125 C-88.56911163 228.82428802 -89.07572327 229.33607605 -89.59768677 229.8633728 C-96.39497852 236.71534073 -103.43705287 242.98495628 -111 249 C-112.02756057 249.86337571 -113.05096064 250.73178251 -114.06640625 251.609375 C-134.83115818 269.41701828 -158.29317079 283.51874702 -182 297 C-182.76812012 297.44118164 -183.53624023 297.88236328 -184.32763672 298.33691406 C-210.54855716 313.30466415 -239.38243097 321.94592796 -269 327 C-269.77504883 327.13422363 -270.55009766 327.26844727 -271.34863281 327.40673828 C-309.40190243 333.61506198 -350.63057142 328.35417311 -387.6875 319.3125 C-388.52490723 319.11035889 -389.36231445 318.90821777 -390.22509766 318.69995117 C-392.16878149 318.2012674 -394.08835871 317.61009828 -396 317 C-396.33 316.34 -396.66 315.68 -397 315 C-396.22279602 314.99191315 -395.44559204 314.98382629 -394.64483643 314.97549438 C-387.17763553 314.89626733 -379.7105955 314.8086415 -372.24359512 314.71247292 C-368.4083614 314.66335073 -364.57314487 314.6170451 -360.73779297 314.578125 C-323.72344918 314.3069695 -323.72344918 314.3069695 -287.0625 309.6875 C-285.86125488 309.46803711 -284.66000977 309.24857422 -283.42236328 309.02246094 C-279.94268969 308.37359023 -276.47057029 307.69577189 -273 307 C-272.0507666 306.81066895 -271.1015332 306.62133789 -270.12353516 306.42626953 C-218.96657147 295.92508728 -170.00347592 271.03753481 -129 239 C-127.89876736 238.15451811 -126.79718779 237.30948794 -125.6953125 236.46484375 C-116.84076973 229.63654059 -108.36607326 222.41559438 -100 215 C-99.46632813 214.53094238 -98.93265625 214.06188477 -98.3828125 213.57861328 C-85.52792956 202.25310251 -74.23262457 189.72307445 -64 176 C-63.29109619 175.05979004 -63.29109619 175.05979004 -62.56787109 174.10058594 C-44.00203225 149.31720574 -30.35245285 121.09311033 -20 92 C-19.76087891 91.34161133 -19.52175781 90.68322266 -19.27539062 90.00488281 C-15.01952134 78.24195963 -12.00364393 66.13045703 -9 54 C-8.7009375 52.81148437 -8.401875 51.62296875 -8.09375 50.3984375 C-5.67108104 39.996761 -4.41722171 29.37542821 -2.96484375 18.8046875 C-2.09349596 12.51551673 -1.08129553 6.25622015 0 0 Z " fill="#8B4852" transform="translate(489,118)"/>
<path d="M0 0 C8.70408112 4.77320577 16.37146939 11.56380001 20.0625 21 C19.7109375 23.296875 19.7109375 23.296875 19.0625 25 C18.4334375 24.13117188 17.804375 23.26234375 17.15625 22.3671875 C10.77009597 13.70429617 4.71975014 6.36544741 -5.9375 3 C-10.4844189 2.36390254 -13.76518762 2.33738866 -17.8125 4.625 C-23.63561546 11.13318787 -23.45894045 17.60095598 -23.6328125 25.94921875 C-23.68947586 27.82357353 -23.68947586 27.82357353 -23.74728394 29.73579407 C-23.84550127 33.04374934 -23.93212831 36.35172342 -24.0123291 39.66015625 C-24.12791701 44.33092033 -24.26277769 49.00114397 -24.3991394 53.67134094 C-24.47058983 56.15522134 -24.53644747 58.63927006 -24.59622192 61.12345886 C-24.64164627 62.80584404 -24.64164627 62.80584404 -24.68798828 64.5222168 C-24.71224884 65.51005661 -24.7365094 66.49789642 -24.76150513 67.51567078 C-24.9375 70 -24.9375 70 -25.9375 73 C-25.20273438 73.24878906 -24.46796875 73.49757813 -23.7109375 73.75390625 C-11.96400107 79.03175515 -4.99663656 93.64941397 -0.35546875 104.91015625 C3.63552118 115.8119037 5.97801153 127.46710646 7.0625 139 C8.7125 139.33 10.3625 139.66 12.0625 140 C12.0625 140.33 12.0625 140.66 12.0625 141 C5.47020855 141.7013076 1.56873443 139.49602186 -3.9375 136 C-3.97875 137.134375 -4.02 138.26875 -4.0625 139.4375 C-5.14077892 147.69944798 -11.10488872 153.88699283 -17.25390625 159.08203125 C-25.49822316 164.97425775 -36.59235879 171 -46.9375 171 C-46.85048828 169.48986328 -46.85048828 169.48986328 -46.76171875 167.94921875 C-46.00598172 148.82077724 -52.14987345 130.69622347 -61.06005859 113.8815918 C-61.9375 112 -61.9375 112 -61.74609375 110.015625 C-60.78693187 107.62467074 -59.55492883 105.80296227 -58 103.75 C-57.47535156 103.04359375 -56.95070312 102.3371875 -56.41015625 101.609375 C-55.68119141 100.81273437 -55.68119141 100.81273437 -54.9375 100 C-54.2775 100 -53.6175 100 -52.9375 100 C-52.21343433 83.20569912 -54.77041174 67.38379709 -66.5078125 54.47265625 C-67.21550781 53.74369141 -67.21550781 53.74369141 -67.9375 53 C-68.37191406 52.49597656 -68.80632812 51.99195313 -69.25390625 51.47265625 C-76.90645392 44.77889646 -88.28854202 44.15912824 -97.9375 44 C-93.21873241 40.12386948 -89.21468862 39.72038211 -83.2578125 39.76953125 C-79.69427226 40.12348558 -77.11827695 41.37715462 -73.9375 43 C-71.26575893 44.33587054 -68.75743725 44.18921791 -65.81787109 44.28955078 C-53.77187453 44.71090785 -45.55529424 45.90688378 -36.9375 55 C-36.2775 55.99 -35.6175 56.98 -34.9375 58 C-33.76117458 51.64417226 -33.67861303 45.44786059 -33.625 39 C-33.59599609 37.83726562 -33.56699219 36.67453125 -33.53710938 35.4765625 C-33.50064336 30.57328576 -33.54209806 26.90600741 -35.51953125 22.375 C-41.93092482 16.07754073 -49.56214265 16.29917856 -58.125 15.9375 C-59.8584668 15.81084961 -59.8584668 15.81084961 -61.62695312 15.68164062 C-69.52184667 15.33144602 -74.67002821 16.70520112 -81.50512695 20.68969727 C-83.9375 22 -83.9375 22 -86.9375 22 C-83.0903174 13.48514563 -73.33984822 8.20768331 -64.9375 5 C-60.84895126 4.25716064 -56.81296208 4.18875482 -52.6640625 4.16796875 C-48.78369266 3.99306738 -45.64096198 3.12186743 -41.9375 2 C-36.9940177 1.37571295 -32.57271008 1.15985994 -28.3125 4 C-27.136875 4.99 -27.136875 4.99 -25.9375 6 C-23.45488949 4.89661755 -21.57405924 3.7092474 -19.4375 2 C-13.10988827 -3.06208939 -7.30582631 -3.37454186 0 0 Z M-87.9375 22 C-87.9375 22.99 -87.9375 23.98 -87.9375 25 C-88.9275 25.495 -88.9275 25.495 -89.9375 26 C-89.2775 24.68 -88.6175 23.36 -87.9375 22 Z " fill="#F2F1FC" transform="translate(237.9375,180)"/>
<path d="M0 0 C0 0.33 0 0.66 0 1 C-0.70157227 1.03963867 -1.40314453 1.07927734 -2.12597656 1.12011719 C-76.66601912 5.49062179 -144.99975058 31.54525048 -203 79 C-203.89589844 79.71800781 -204.79179687 80.43601562 -205.71484375 81.17578125 C-208.49907622 83.42473804 -211.2541795 85.70431401 -214 88 C-214.78213867 88.65258789 -214.78213867 88.65258789 -215.58007812 89.31835938 C-232.61890293 103.58108285 -249.85984389 118.80010423 -264 136 C-264.42603516 136.51224121 -264.85207031 137.02448242 -265.29101562 137.55224609 C-287.47166228 164.30258619 -302.44604576 194.65383624 -314.625 227.0625 C-315.39282662 229.0866599 -316.16106418 231.11066397 -316.9296875 233.13452148 C-323.76239126 251.17631563 -330.38911394 269.29470523 -336.9375 287.44140625 C-337.21999603 288.22366577 -337.50249207 289.00592529 -337.79354858 289.81188965 C-339.24898348 293.85808008 -340.65964449 297.9137773 -342 302 C-342.33 302 -342.66 302 -343 302 C-344.35784906 234.32547322 -314.08229526 168.9604017 -270 119 C-269.3615918 118.27401611 -268.72318359 117.54803223 -268.06542969 116.80004883 C-262.59729429 110.64748067 -256.91766793 104.73139986 -251.09863281 98.91333008 C-249.6279359 97.44044028 -248.16546466 95.95969735 -246.703125 94.47851562 C-240.46959996 88.20854256 -233.91280796 82.51641516 -227 77 C-225.89826179 76.06511445 -224.80191621 75.12377391 -223.71484375 74.171875 C-162.46403561 20.76048112 -79.94560687 -1.15055119 0 0 Z " fill="#8B4952" transform="translate(358,65)"/>
<path d="M0 0 C1.24567245 0.00173721 1.24567245 0.00173721 2.51651001 0.00350952 C19.43100303 0.05005888 36.25934564 0.94396447 52.4375 6.3125 C53.57832031 6.66054687 54.71914063 7.00859375 55.89453125 7.3671875 C65.13235116 10.27838512 73.75350844 14.03825167 82.4375 18.3125 C78.6729559 19.56734803 77.96176422 18.88698068 74.4375 17.25 C41.3437049 3.01610963 3.68495061 0.19259322 -31.5625 7.3125 C-32.24844238 7.44108398 -32.93438477 7.56966797 -33.64111328 7.70214844 C-55.03301033 11.76841956 -76.12723951 19.596816 -95.5625 29.3125 C-96.3889502 29.72242187 -97.21540039 30.13234375 -98.06689453 30.5546875 C-123.2338345 43.21729881 -146.56264587 59.80749224 -168.5625 77.3125 C-169.67915039 78.19591064 -169.67915039 78.19591064 -170.81835938 79.09716797 C-178.41897538 85.12530097 -185.83510617 91.28666956 -192.9375 97.8984375 C-194.98196642 99.77861644 -197.05217539 101.59198171 -199.16015625 103.3984375 C-204.14236576 107.74516707 -208.82546384 112.38939869 -213.49829102 117.06298828 C-214.98891615 118.55143237 -216.48737017 120.03167277 -217.98632812 121.51171875 C-224.29594544 127.78458683 -230.03032637 134.33236354 -235.5625 141.3125 C-236.56279127 142.52122989 -237.56621163 143.72738462 -238.57421875 144.9296875 C-259.79979337 170.60622434 -276.68280842 200.17476633 -286 232.25 C-286.22276611 233.01626709 -286.44553223 233.78253418 -286.67504883 234.57202148 C-290.55668007 248.84954372 -292.07466979 263.1490925 -292.75 277.875 C-292.83171393 279.48377344 -292.91439258 281.09249817 -292.99804688 282.70117188 C-293.19725157 286.57114731 -293.38364238 290.44153307 -293.5625 294.3125 C-293.8925 294.3125 -294.2225 294.3125 -294.5625 294.3125 C-295.12532064 272.49584021 -295.38147045 251.54558916 -289.5625 230.3125 C-289.29969238 229.33812988 -289.03688477 228.36375977 -288.76611328 227.35986328 C-281.90057658 202.80408638 -270.02253373 179.24569691 -255.5625 158.3125 C-254.50482422 156.77529297 -254.50482422 156.77529297 -253.42578125 155.20703125 C-251.52249676 152.53162324 -249.56342048 149.91560226 -247.5625 147.3125 C-247.15177246 146.77318848 -246.74104492 146.23387695 -246.31787109 145.67822266 C-240.84411806 138.5057876 -235.20285758 131.60957313 -229.046875 125.0078125 C-227.07390123 122.86732209 -225.16248608 120.69954303 -223.26171875 118.49609375 C-219.55033096 114.23964901 -215.62861815 110.23045354 -211.625 106.25 C-210.96048828 105.58162109 -210.29597656 104.91324219 -209.61132812 104.22460938 C-205.09276002 99.71480668 -200.39861932 95.47708926 -195.5625 91.3125 C-194.40606692 90.29074095 -193.25107067 89.26735294 -192.09765625 88.2421875 C-183.52511849 80.67839989 -174.64464729 73.64858394 -165.50390625 66.78662109 C-163.7843838 65.48097766 -162.08989164 64.15215382 -160.40625 62.80078125 C-149.99501873 54.5128932 -138.80030561 47.41716069 -127.5625 40.3125 C-126.82547852 39.84312012 -126.08845703 39.37374023 -125.32910156 38.89013672 C-87.76940237 15.16197478 -44.6554787 -0.19341028 0 0 Z " fill="#F3A552" transform="translate(338.5625,89.6875)"/>
<path d="M0 0 C0.33 0 0.66 0 1 0 C5.15302064 19.20772044 -2.17454091 37.27701343 -12.05078125 53.45703125 C-13.95637586 56.37079615 -15.93938252 59.1940528 -18 62 C-18.69738281 62.969375 -19.39476562 63.93875 -20.11328125 64.9375 C-28.18501379 75.9483181 -37.11883853 86.18472685 -46.40234375 96.1796875 C-48.71175601 98.68704938 -50.95086429 101.24058114 -53.1875 103.8125 C-67.33127891 119.54745403 -84.0356335 133.41250396 -101 146 C-101.6595166 146.49081055 -102.3190332 146.98162109 -102.99853516 147.48730469 C-129.77926537 167.33633355 -158.21816394 184.07426618 -188 199 C-188.59141785 199.29688721 -189.18283569 199.59377441 -189.79217529 199.8996582 C-238.04920286 224.09603828 -290.25902324 243.10839685 -342.875 255.4375 C-343.73923584 255.64068848 -344.60347168 255.84387695 -345.49389648 256.05322266 C-352.66981839 257.72192294 -359.86022433 259.32418478 -367.0625 260.875 C-368.09165527 261.10243896 -369.12081055 261.32987793 -370.18115234 261.56420898 C-371.14359863 261.76731689 -372.10604492 261.9704248 -373.09765625 262.1796875 C-373.94851807 262.36257324 -374.79937988 262.54545898 -375.67602539 262.73388672 C-378.08859197 263.01014447 -379.70726539 262.74628726 -382 262 C-381.08863281 261.78013428 -380.17726563 261.56026855 -379.23828125 261.33374023 C-368.66201162 258.75194442 -358.1901797 255.85259364 -347.72753906 252.84594727 C-345.0042438 252.06371897 -342.27956851 251.28644973 -339.5546875 250.50976562 C-272.87781235 231.45146453 -207.41481805 206.08128374 -148 170 C-146.36521986 169.02367297 -144.72982568 168.04837321 -143.09375 167.07421875 C-122.23451689 154.5840131 -102.06065348 140.508477 -83.75732422 124.48632812 C-82.44287248 123.37457733 -81.1011425 122.29493735 -79.74658203 121.23242188 C-71.59490679 114.79392329 -64.30843037 107.61329448 -56.99267578 100.25341797 C-54.8788238 98.1288432 -52.75448458 96.01517939 -50.62890625 93.90234375 C-43.29476676 86.57608772 -36.3513023 79.20600342 -30 71 C-28.87670184 69.60124137 -27.75302996 68.20278275 -26.62890625 66.8046875 C-12.82244 49.25018723 -1.5376181 31.53749399 -0.4375 8.6875 C-0.39431641 7.85154297 -0.35113281 7.01558594 -0.30664062 6.15429688 C-0.20114693 4.10303065 -0.10012685 2.0515352 0 0 Z " fill="#F3A553" transform="translate(447,136)"/>
<path d="M0 0 C1.16096191 0.0407666 2.32192383 0.0815332 3.51806641 0.12353516 C11.6761039 0.62612959 17.63436279 1.80795057 23.54296875 7.6328125 C25.86440762 13.06342785 25.52173541 18.22569161 25.375 24.0625 C25.36533203 25.20847656 25.35566406 26.35445312 25.34570312 27.53515625 C25.2668235 33.4957123 24.95317723 39.29309949 24.0625 45.1875 C23.2890625 44.135625 23.2890625 44.135625 22.5 43.0625 C17.26629539 36.88941251 12.19378553 32.60587337 4.0625 31.1875 C0.19599017 30.88002948 -3.67580828 30.70948994 -7.55395508 30.65307617 C-12.26465132 30.53018844 -14.97006852 29.94500557 -18.9375 27.1875 C-25.93691605 24.87662409 -33.04388394 26.18208442 -39.9375 28.1875 C-39.27560965 19.80355551 -35.09705983 12.71690314 -28.9375 7.1875 C-19.7110542 0.46574032 -11.20418334 -0.40569731 0 0 Z " fill="#FEFEFE" transform="translate(179.9375,194.8125)"/>
<path d="M0 0 C1.12576797 3.37730392 0.91229893 3.84222457 -0.3125 7 C-3.260428 15.45162845 -4.19638912 23.5878251 -4.3125 32.5 C-4.33014404 33.29011475 -4.34778809 34.08022949 -4.3659668 34.89428711 C-4.47422011 39.10284159 -4.47422011 39.10284159 -2.62182617 42.7175293 C-0.36409059 44.50284994 1.14743606 44.36640019 4 44.3125 C5.299375 44.30669922 5.299375 44.30669922 6.625 44.30078125 C9.49201327 44.04527197 12.17134161 43.61623116 14.9921875 43.07421875 C22.86733556 41.58380367 30.82174137 40.91703571 38.79296875 40.14453125 C50.39188588 39.50850757 50.39188588 39.50850757 60.5625 34.875 C61.036875 34.25625 61.51125 33.6375 62 33 C62.63292969 33.81082031 63.26585938 34.62164062 63.91796875 35.45703125 C68.11529736 38.92022634 71.01884815 38.80156024 76.3125 38.6875 C77.24586182 38.67750977 78.17922363 38.66751953 79.14086914 38.65722656 C88.20548433 38.36301072 97.03814308 36.89294454 105.9375 35.25 C106.98292465 35.06103653 106.98292465 35.06103653 108.04946899 34.86825562 C115.34061638 33.52615328 121.76869627 32.17445277 128 28 C130.08984375 27.19921875 130.08984375 27.19921875 131.9375 26.6875 C137.32366334 25.02591062 142.38767644 22.68196121 147.50366211 20.33666992 C152.68491922 18 152.68491922 18 156 18 C148.7028681 25.2602777 140.38971106 31.35053857 130 33 C130 33.66 130 34.32 130 35 C116.58736189 40.88759266 104.54583306 45.05654128 89.88867188 45.85400391 C87.50020024 46.03863499 85.25702838 46.53722835 82.9375 47.125 C75.22872344 48.78660908 64.52929197 50.2418366 57.28515625 46.65625 C55.375 45 55.375 45 53 42 C52.36191406 42.79019531 51.72382812 43.58039063 51.06640625 44.39453125 C47.53929886 47.89940118 43.71848128 48.15227414 38.9375 48.6875 C37.63522461 48.85838135 37.63522461 48.85838135 36.30664062 49.03271484 C29.03995769 49.95868145 21.74480612 50.69860772 14.44897461 51.35424805 C13.66143799 51.42554932 12.87390137 51.49685059 12.0625 51.5703125 C11.37285156 51.62977051 10.68320313 51.68922852 9.97265625 51.75048828 C7.97277875 51.96327655 7.97277875 51.96327655 5.95532227 52.51416016 C2.95510781 53.25962485 0.02140059 53.21108643 -3.0625 53.25 C-4.29097656 53.27578125 -5.51945312 53.3015625 -6.78515625 53.328125 C-10 53 -10 53 -11.91015625 51.92578125 C-16.80707147 43.27280919 -12.5082506 25.20783379 -10 16 C-7.60678929 9.71195618 -4.95497965 4.60181695 0 0 Z " fill="#E4CB96" transform="translate(62,324)"/>
<path d="M0 0 C15.02280271 -0.60575817 26.62063356 4.26774856 37.41796875 14.19140625 C40.05100749 16.85010813 40.37073101 17.82030443 40.859375 21.58984375 C40.81989565 28.76192642 36.28841661 35.41503133 32.421875 41.21484375 C32.05835938 40.57417969 31.69484375 39.93351562 31.3203125 39.2734375 C25.13402368 28.62984827 18.42432522 20.40617557 6.421875 16.21484375 C-0.40162873 15.43181873 -4.21599008 16.99409453 -9.578125 21.21484375 C-10.59634363 22.19628699 -11.60243055 23.19111511 -12.578125 24.21484375 C-16.578125 22.21484375 -16.578125 22.21484375 -18.42578125 21.16015625 C-24.43880243 18.51922862 -31.75909739 20.23362895 -37.86328125 21.875 C-38.42917969 21.98714844 -38.99507812 22.09929687 -39.578125 22.21484375 C-41.23466186 20.55830689 -40.74918665 18.60833579 -40.765625 16.33984375 C-40.77980469 15.45554688 -40.79398438 14.57125 -40.80859375 13.66015625 C-40.578125 11.21484375 -40.578125 11.21484375 -38.578125 8.21484375 C-36.55371094 7.35522461 -36.55371094 7.35522461 -34.0625 6.6796875 C-32.69013184 6.30287842 -32.69013184 6.30287842 -31.29003906 5.91845703 C-30.31260742 5.66563965 -29.33517578 5.41282227 -28.328125 5.15234375 C-26.83490723 4.75764893 -26.83490723 4.75764893 -25.31152344 4.35498047 C-16.89161763 2.18522502 -8.67214549 0.72267879 0 0 Z " fill="#FEFEFE" transform="translate(226.578125,162.78515625)"/>
<path d="M0 0 C8.38574933 0.44135523 16.08813151 6.36964906 22 12 C26.08503177 17.02773141 26.08503177 17.02773141 25.78857422 20.41748047 C24.91537891 23.27712754 23.79830899 24.98401799 21.9453125 27.3203125 C21.33042969 28.10277344 20.71554687 28.88523437 20.08203125 29.69140625 C19.43621094 30.49449219 18.79039062 31.29757813 18.125 32.125 C17.16787109 33.34123047 17.16787109 33.34123047 16.19140625 34.58203125 C14.48186586 36.74126284 12.77298127 38.89253455 11 41 C10.53279541 41.56356201 10.06559082 42.12712402 9.58422852 42.70776367 C7.4910941 44.41510848 6.00819933 44.50887521 3.33203125 44.73046875 C2.43935547 44.81103516 1.54667969 44.89160156 0.62695312 44.97460938 C-0.30181641 45.04486328 -1.23058594 45.11511719 -2.1875 45.1875 C-3.12787109 45.26935547 -4.06824219 45.35121094 -5.03710938 45.43554688 C-7.35733128 45.63576907 -9.67787859 45.82342367 -12 46 C-12.74072995 44.0254137 -13.4812976 42.05076622 -14.22070312 40.07568359 C-14.80336532 38.52374312 -15.39228306 36.97414865 -15.984375 35.42578125 C-16.23703125 34.72839844 -16.4896875 34.03101563 -16.75 33.3125 C-17.01296875 32.60738281 -17.2759375 31.90226562 -17.546875 31.17578125 C-18.29096341 27.60287398 -17.76233649 25.2640381 -15.86816406 22.12329102 C-14.3734218 19.92166668 -12.82495375 17.76993701 -11.25 15.625 C-10.7240625 14.89539063 -10.198125 14.16578125 -9.65625 13.4140625 C-8.61480107 11.97046993 -7.56994459 10.52932877 -6.52148438 9.09082031 C-4.32700296 6.07516902 -2.16398175 3.0375892 0 0 Z " fill="#A96256" transform="translate(459,70)"/>
<path d="M0 0 C0.94875 0.886875 1.8975 1.77375 2.875 2.6875 C6.92390612 5.68369053 10.38886559 5.75876884 15.32177734 6.27124023 C23.97534837 7.22029336 31.17125433 10.39913477 37 17 C39.91091961 21.42388999 41.46999754 25.69997538 42 31 C40.66104368 29.33784732 39.32869858 27.67036393 38 26 C37.4225 25.278125 36.845 24.55625 36.25 23.8125 C35 22 35 22 35 20 C34.43023437 19.7215625 33.86046875 19.443125 33.2734375 19.15625 C31.01156538 18.00588205 28.82417748 16.7654916 26.625 15.5 C19.79171656 11.72224981 13.71772414 10.57959193 6 10 C6.2475 10.94875 6.495 11.8975 6.75 12.875 C7.36725358 17.23054994 5.92582199 20.17935317 4.1796875 24.1171875 C2.82691263 27.4229751 1.88083835 30.74321813 0.9375 34.1875 C-0.39238822 39.00768774 -1.85182931 43.48884155 -4 48 C-5.56863959 44.86272083 -4.10202962 42.64409314 -3.0625 39.375 C-0.70619733 31.7678358 -0.70619733 31.7678358 -1 24 C-6.7577189 14.72850703 -15.71404468 10.42321517 -26 8 C-43.33495512 4.59491953 -61.21622063 9.8146778 -78 14 C-74.49098482 9.81904574 -70.40353415 8.09288523 -65.5 6 C-64.69336914 5.65042236 -63.88673828 5.30084473 -63.05566406 4.94067383 C-43.38886707 -3.46972788 -20.10381775 -10.9603036 0 0 Z " fill="#ECEAFA" transform="translate(267,157)"/>
<path d="M0 0 C7.01313786 -0.39531257 12.50156634 0.35846113 19 3 C20.155 3.37125 21.31 3.7425 22.5 4.125 C23.325 4.74375 24.15 5.3625 25 6 C25.10699219 7.27230469 25.21398437 8.54460937 25.32421875 9.85546875 C25.87259013 16.22217503 28.58590413 21.48387061 31.3125 27.1875 C31.79912109 28.24130859 32.28574219 29.29511719 32.78710938 30.38085938 C35.73249732 36.67948998 35.73249732 36.67948998 39.3515625 42.6015625 C41 45 41 45 41.0625 47.1875 C39.45507414 49.9295794 37.89751318 50.61502515 35 52 C31.44363973 52.75993844 27.86210735 53.16010735 24.25 53.5625 C23.23244629 53.68544434 22.21489258 53.80838867 21.16650391 53.93505859 C18.11223523 54.30168586 15.05650854 54.65260073 12 55 C9.51902822 55.28879278 7.03827694 55.57939032 4.55761719 55.87084961 C3.14461617 56.03538362 1.73122007 56.19657354 0.31738281 56.35375977 C-2.3537341 56.65519497 -4.97879271 56.9956571 -7.61328125 57.53515625 C-13.00532805 58.58532576 -18.92837395 59.30078845 -23.6875 56.3125 C-25.21439351 53.62225906 -25.10580602 52.03814435 -25 49 C-24.31075439 49.02094727 -23.62150879 49.04189453 -22.91137695 49.06347656 C-1.72649966 50.26447931 -1.72649966 50.26447931 17.1875 42.0625 C20.71975633 38.5652165 21.8057318 35.6836577 22.375 30.75 C21.33263182 20.32631815 14.19524783 11.41117325 7.3125 3.875 C4.80765345 1.84404334 3.18604361 1.27308945 0 1 C0 0.67 0 0.34 0 0 Z " fill="#E9E7F9" transform="translate(82,311)"/>
<path d="M0 0 C11.62241314 4.93243875 11.62241314 4.93243875 14.5 10.5625 C14.7784375 11.6453125 14.7784375 11.6453125 15.0625 12.75 C15.64515625 12.77578125 16.2278125 12.8015625 16.828125 12.828125 C27.07691122 13.53716052 35.91796091 16.02378791 43.734375 22.87109375 C45.4392357 25.28297021 45.3201979 26.86081012 45.0625 29.75 C44.38703125 29.32847656 43.7115625 28.90695312 43.015625 28.47265625 C42.12359375 27.92480469 41.2315625 27.37695312 40.3125 26.8125 C39.43078125 26.26722656 38.5490625 25.72195313 37.640625 25.16015625 C35.33841542 23.90091738 33.58253187 23.32366579 31.0625 22.75 C29.72181276 22.07695338 28.38885926 21.38836029 27.0625 20.6875 C23.14245369 18.85642573 20.36052294 18.65242705 16.0625 18.9375 C10.09556202 19.16380612 7.6952515 17.51956869 3.33984375 13.63671875 C-2.39308612 8.88713878 -9.44600574 6.4065873 -16.76953125 5.5 C-22.9440977 6.21202208 -27.10428605 10.40118292 -31.25 14.625 C-31.81614014 15.19798828 -32.38228027 15.77097656 -32.96557617 16.36132812 C-38.41185112 22.01377852 -42.74598132 28.10683832 -46.9375 34.75 C-47.3077832 35.32878906 -47.67806641 35.90757812 -48.05957031 36.50390625 C-53.1003041 44.31077715 -53.1003041 44.31077715 -56.9375 52.75 C-57.5975 52.42 -58.2575 52.09 -58.9375 51.75 C-59.29198787 45.72370616 -58.7605806 42.42142597 -55.5625 37.125 C-55.20599365 36.53162842 -54.8494873 35.93825684 -54.48217773 35.3269043 C-50.33188778 28.54372113 -45.71775402 22.09901198 -40.9375 15.75 C-40.195 14.74582031 -39.4525 13.74164063 -38.6875 12.70703125 C-27.34554174 -1.976754 -17.93384151 -6.40347269 0 0 Z " fill="#E9E6F9" transform="translate(125.9375,255.25)"/>
<path d="M0 0 C-0.46647922 4.19831302 -2.8472142 6.4704393 -6 9 C-18.69921577 18.18825611 -37.30253514 25.01273967 -53 24 C-53.66 23.67 -54.32 23.34 -55 23 C-55.2265625 20.7109375 -55.2265625 20.7109375 -55 18 C-45.7252703 6.86050983 -14.25761381 -7.1288069 0 0 Z " fill="#FCFAF9" transform="translate(241,367)"/>
<path d="M0 0 C4.05209349 2.92177267 6.75343846 6.11553722 9.375 10.3125 C9.95362793 11.23011108 9.95362793 11.23011108 10.54394531 12.16625977 C20.76764172 28.76182641 26.04126344 46.59722152 29.54101562 65.64379883 C30.00768554 68.0394538 30.54906604 70.40889398 31.10546875 72.78515625 C32.12810936 77.30557442 32.14691067 81.37231387 32 86 C24.375 85.125 24.375 85.125 21 84 C21.05800781 83.40058594 21.11601562 82.80117188 21.17578125 82.18359375 C22.0429995 64.76489579 15.63918994 47.07260246 10.6484375 30.61328125 C9.45182727 26.65968943 8.43540629 22.6961798 7.48828125 18.67578125 C6.42740657 14.34492875 5.13586938 10.71859872 2.8125 6.875 C0 2.15328467 0 2.15328467 0 0 Z " fill="#DEE0E4" transform="translate(260,208)"/>
<path d="M0 0 C0.94875 0.66 1.8975 1.32 2.875 2 C7.26776054 6.13436286 9.42712973 9.98486216 10 16 C10.60585938 16.02578125 11.21171875 16.0515625 11.8359375 16.078125 C21.80426493 16.75290409 30.74468116 19.93111333 38 27 C40.73753245 30.42937072 43.49006014 33.89324114 44.53515625 38.2109375 C44.68855469 38.80132812 44.84195313 39.39171875 45 40 C45.66 40.33 46.32 40.66 47 41 C45.35 42.32 43.7 43.64 42 45 C41.5153125 44.154375 41.030625 43.30875 40.53125 42.4375 C34.20329179 31.72864764 27.26964825 22.14451177 14.79296875 18.32421875 C12.868203 17.85641854 10.93439759 17.4262232 9 17 C5.15697302 15.61224026 3.32796392 13.32566274 1 10 C1 9.34 1 8.68 1 8 C0.46761719 7.73960938 -0.06476563 7.47921875 -0.61328125 7.2109375 C-2.37950105 6.31481944 -4.12404889 5.37569925 -5.85546875 4.4140625 C-22.80155973 -4.6847765 -42.88666085 -8.59073408 -61.8125 -3.5 C-63.21844188 -3.02917295 -64.62026511 -2.54284651 -66 -2 C-63.5218426 -4.63269728 -61.31891637 -6.60765443 -58.0625 -8.1875 C-57.41410156 -8.51105469 -56.76570313 -8.83460937 -56.09765625 -9.16796875 C-38.8986251 -15.98993083 -14.49793784 -10.64368034 0 0 Z " fill="#E9E7FA" transform="translate(363,117)"/>
<path d="M0 0 C17.2053291 16.27123943 26.19449289 42.05406794 28.640625 65.12109375 C28.82991685 67.93731503 28.82991685 67.93731503 30 70 C26.98509443 71.00496852 24.95818308 71.10335303 21.8125 71.0625 C20.46091797 71.04896484 20.46091797 71.04896484 19.08203125 71.03515625 C18.39496094 71.02355469 17.70789063 71.01195312 17 71 C17.05800781 69.92105469 17.11601562 68.84210938 17.17578125 67.73046875 C17.61973822 55.69882767 15.69290226 45.41442518 12 34 C11.72172363 33.13987305 11.44344727 32.27974609 11.15673828 31.39355469 C8.19416742 22.38136434 5.08086025 13.50333651 0.84765625 4.99609375 C0 3 0 3 0 0 Z " fill="#DEE0E4" transform="translate(314,197)"/>
<path d="M0 0 C11.07435812 3.7497388 17.4958156 15.22409552 22.58984375 25.07421875 C28.54676309 37.88235321 31.68131876 51.97660493 33 66 C34.65 66.33 36.3 66.66 38 67 C38 67.33 38 67.66 38 68 C31.8717946 68.50026167 28.97238972 67.28177721 24 64 C22.15980052 62.15980052 22.4767551 59.4937679 22.15161133 57.02075195 C19.89270757 40.22940473 13.94888708 25.85228801 6 11 C5.3915625 9.86304688 4.783125 8.72609375 4.15625 7.5546875 C2.78603653 5.0275485 1.40327601 2.50888741 0 0 Z " fill="#D8DBE2" transform="translate(212,253)"/>
<path d="M0 0 C12.7205415 7.59073185 19.94496082 22.12851621 23.5390625 36.09472656 C25.21206333 43.34107738 26.52591574 50.54952698 26 58 C23.09907498 59.93395001 22.10325263 60.30131941 18.8125 60.625 C17.554375 60.74875 16.29625 60.8725 15 61 C15.05800781 59.99324219 15.11601562 58.98648438 15.17578125 57.94921875 C15.86135488 40.59668122 10.75693446 25.775365 3.76953125 10.07421875 C2.30222353 6.77258482 1.07100022 3.45466226 0 0 Z " fill="#D7D9E2" transform="translate(176,290)"/>
<path d="M0 0 C3.05413865 1.14530199 5.54576647 2.35011434 8.3125 4.125 C15.5729237 7.83127343 26.27793071 6.9029385 34 5 C34.99 4.67 35.98 4.34 37 4 C29.57142857 17.71428571 29.57142857 17.71428571 25 20 C23.48181898 20.218654 21.95666749 20.39018979 20.4296875 20.53515625 C19.08583984 20.66567383 19.08583984 20.66567383 17.71484375 20.79882812 C16.77769531 20.88583984 15.84054687 20.97285156 14.875 21.0625 C13.93011719 21.15337891 12.98523438 21.24425781 12.01171875 21.33789062 C9.67479389 21.56214099 7.33757884 21.78269057 5 22 C4.25927005 20.0254137 3.5187024 18.05076622 2.77929688 16.07568359 C2.19663468 14.52374312 1.60771694 12.97414865 1.015625 11.42578125 C-0.48466176 7.28468362 -1.54134216 4.34378246 0 0 Z " fill="#8C4951" transform="translate(442,94)"/>
<path d="M0 0 C13.72518115 7.84296066 21.51633057 21.58590132 26.1875 36.375 C28.79327122 46.0566939 29.82821838 56.0614559 31 66 C27.535 66.99 27.535 66.99 24 68 C23.91363281 66.90945312 23.82726562 65.81890625 23.73828125 64.6953125 C21.82866041 43.19823154 15.67931752 22.13985604 2.3125 4.8125 C1 3 1 3 0 0 Z " fill="#DEDFE4" transform="translate(347,153)"/>
<path d="M0 0 C8.70408112 4.77320577 16.37146939 11.56380001 20.0625 21 C19.7109375 23.296875 19.7109375 23.296875 19.0625 25 C18.4334375 24.13117188 17.804375 23.26234375 17.15625 22.3671875 C10.77009597 13.70429617 4.71975014 6.36544741 -5.9375 3 C-10.45806841 2.36758887 -13.73634882 2.26292996 -17.6875 4.6875 C-18.43 5.450625 -19.1725 6.21375 -19.9375 7 C-20.865625 7.9075 -21.79375 8.815 -22.75 9.75 C-23.8328125 10.86375 -23.8328125 10.86375 -24.9375 12 C-27.19555656 10.87097172 -29.4046605 9.73069571 -31.59375 8.46875 C-35.38050958 6.80540701 -38.74413356 6.45047754 -42.8125 6.3125 C-43.50085938 6.27833984 -44.18921875 6.24417969 -44.8984375 6.20898438 C-46.57758613 6.12735909 -48.25751168 6.0619843 -49.9375 6 C-48.9375 4 -48.9375 4 -46 2.875 C-40.87699818 1.56789666 -34.904721 0.64859241 -29.96484375 2.8984375 C-28.3125 4 -28.3125 4 -25.9375 6 C-23.45488949 4.89661755 -21.57405924 3.7092474 -19.4375 2 C-13.10988827 -3.06208939 -7.30582631 -3.37454186 0 0 Z " fill="#E0E2E6" transform="translate(237.9375,180)"/>
<path d="M0 0 C0.99 0.66 1.98 1.32 3 2 C2.92720074 5.05756895 2.63546531 7.24932284 0.62109375 9.62890625 C-4.26472978 13.99007759 -9.10993338 16.75916111 -15.75 17.3125 C-19 17 -19 17 -22 15 C-21.92720074 11.94243105 -21.63546531 9.75067716 -19.62109375 7.37109375 C-13.79749316 2.17284624 -7.9772869 -0.76704682 0 0 Z " fill="#8B4952" transform="translate(300,336)"/>
<path d="M0 0 C8.44298514 0.20091809 16.47282696 2.24995259 22.75854492 8.12573242 C26.80745104 11.12192295 30.27241051 11.19700127 35.20532227 11.70947266 C43.85889329 12.65852578 51.05479925 15.83736719 56.88354492 22.43823242 C59.79446454 26.86212241 61.35354246 31.1382078 61.88354492 36.43823242 C60.5445886 34.77607975 59.2122435 33.10859635 57.88354492 31.43823242 C57.30604492 30.71635742 56.72854492 29.99448242 56.13354492 29.25073242 C54.88354492 27.43823242 54.88354492 27.43823242 54.88354492 25.43823242 C54.3137793 25.15979492 53.74401367 24.88135742 53.15698242 24.59448242 C50.89511031 23.44411447 48.7077224 22.20372402 46.50854492 20.93823242 C41.06151655 17.93175572 36.74268338 16.46481685 30.50854492 16.25073242 C24.1051628 15.78961931 21.23502305 12.85000817 16.88354492 8.43823242 C8.71468807 2.36395425 -2.37467107 2.92596337 -12.11645508 2.43823242 C-8.84314658 -0.83507608 -4.40441626 0.00140015 0 0 Z " fill="#DADCE4" transform="translate(247.116455078125,151.561767578125)"/>
<path d="M0 0 C0.66 0.33 1.32 0.66 2 1 C-6.32806446 9.29193403 -13.68600355 15.12916507 -25.73413086 15.38061523 C-35.28483563 15.35758218 -35.28483563 15.35758218 -38 14 C-37.39009109 10.44219804 -36.4216319 7.3171411 -35 4 C-34.02675781 4.15726562 -33.05351562 4.31453125 -32.05078125 4.4765625 C-21.68026162 5.94131044 -10.8573703 6.83050285 -1.75 0.99609375 C-1.1725 0.66738281 -0.595 0.33867187 0 0 Z " fill="#E4CC9A" transform="translate(316,288)"/>
<path d="M0 0 C2.67174107 1.33587054 5.18006275 1.18921791 8.11962891 1.28955078 C19.22539221 1.67801942 26.91730208 2.59927387 35.46875 10.18359375 C37.12189278 12.14459221 37.60323911 13.49269158 38 16 C37.16597656 15.51789063 36.33195312 15.03578125 35.47265625 14.5390625 C26.82314022 9.68423678 20.13798747 7.16591769 10.18041992 6.72021484 C9.48150635 6.68879395 8.78259277 6.65737305 8.0625 6.625 C7.36165283 6.59486816 6.66080566 6.56473633 5.9387207 6.53369141 C0.85659914 6.24185506 -2.86131022 5.06982599 -7.40625 2.921875 C-12.69666039 1.04154842 -18.43213412 1.16045723 -24 1 C-16.720923 -4.97924182 -8.01950976 -4.09158661 0 0 Z " fill="#DFE0E5" transform="translate(164,223)"/>
<path d="M0 0 C8.25842996 1.0191254 16.18786446 3.57892377 21.78515625 10.0703125 C23 12 23 12 23 14 C23.87398437 14.03867187 23.87398437 14.03867187 24.765625 14.078125 C35.01441122 14.78716052 43.85546091 17.27378791 51.671875 24.12109375 C53.3767357 26.53297021 53.2576979 28.11081012 53 31 C52.32453125 30.57847656 51.6490625 30.15695312 50.953125 29.72265625 C50.06109375 29.17480469 49.1690625 28.62695312 48.25 28.0625 C47.36828125 27.51722656 46.4865625 26.97195313 45.578125 26.41015625 C43.27455992 25.15017595 41.52515376 24.5622812 39 24 C37.61437929 23.37727941 36.23973161 22.72975807 34.875 22.0625 C31.4188135 20.45763728 28.32656048 19.62901562 24.5625 19.0625 C22.015625 18.61328125 22.015625 18.61328125 20 18 C18.8125 15.75 18.8125 15.75 18 13 C13.16733111 7.4662958 6.44025254 4.28417941 0 1 C0 0.67 0 0.34 0 0 Z " fill="#D9DBE3" transform="translate(118,254)"/>
<path d="M0 0 C8.38574933 0.44135523 16.08813151 6.36964906 22 12 C26 17.26315789 26 17.26315789 26 21 C19.14914842 21.29476958 13.84175581 19.5614882 8 16 C4.13145228 12.05455454 0.20317525 7.84445345 -0.203125 2.15625 C-0.13609375 1.4446875 -0.0690625 0.733125 0 0 Z " fill="#BE7C5B" transform="translate(459,70)"/>
<path d="M0 0 C0.66 0.33 1.32 0.66 2 1 C1.5153125 1.63164062 1.030625 2.26328125 0.53125 2.9140625 C-3.41652878 8.1828288 -7.11843526 13.53979591 -10.5 19.1875 C-11.1703125 20.29480469 -11.840625 21.40210938 -12.53125 22.54296875 C-15.10776709 28.60737734 -14.44677609 33.88305977 -12 40 C-11.34 40 -10.68 40 -10 40 C-11.25640898 43.76922693 -13.00824362 45.425698 -16 48 C-20 48 -20 48 -21.75 46.5625 C-23.66631264 42.63405909 -23.70217327 39.28730793 -23 35 C-18.75479905 22.99158434 -9.07035029 9.07035029 0 0 Z " fill="#E4CC97" transform="translate(82,273)"/>
<path d="M0 0 C2 2 2 2 2 3.8125 C-0.04857137 8.29374987 -4.14793749 10.53377712 -8.3125 12.8125 C-12.70309253 14.22641963 -16.43717915 14.27935638 -21 14 C-21.8125 11.8125 -21.8125 11.8125 -22 9 C-17.17545908 2.17909732 -8.16342228 -1.02042779 0 0 Z " fill="#FBF8F7" transform="translate(179,388)"/>
<path d="M0 0 C0.66 0.33 1.32 0.66 2 1 C-6.09248053 8.87746293 -14.58873047 15.21593776 -26.25 15.0625 C-27.14203125 15.05347656 -28.0340625 15.04445313 -28.953125 15.03515625 C-29.62859375 15.02355469 -30.3040625 15.01195312 -31 15 C-32.51403812 10.15507803 -31.36602172 6.7408989 -30 2 C-25.26315789 3.84210526 -25.26315789 3.84210526 -23.125 5.125 C-17.40182243 7.48160253 -13.16249013 5.83117855 -7.6875 3.5625 C-5.09692174 2.42160543 -2.53158527 1.26579263 0 0 Z " fill="#E4CC99" transform="translate(264,314)"/>
<path d="M0 0 C3.50436082 1.32924031 5.3834084 2.3834084 8 5 C7.75 7.5625 7.75 7.5625 7 10 C2.28710101 12.3564495 -5.23070286 11.92309905 -10.15625 10.28125 C-12.86315439 8.63587674 -13.91794789 7.25787805 -14.875 4.25 C-14.91625 3.5075 -14.9575 2.765 -15 2 C-10.33231519 -1.11178988 -5.46906679 -0.48405215 0 0 Z " fill="#8A4852" transform="translate(373,293)"/>
<path d="M0 0 C5.00710703 0.0985651 8.04381763 0.76634875 11.75 4.375 C12.8125 6.9375 12.8125 6.9375 12.75 9.375 C11.12234967 11.57338487 10.18997231 12.29094333 7.48046875 12.80859375 C1.81769542 12.81729233 -1.98944885 12.52630625 -6.25 8.375 C-7.25 5.25 -7.25 5.25 -7.25 2.375 C-4.68599223 -0.18900777 -3.56217985 0.04866366 0 0 Z " fill="#8A4852" transform="translate(269.25,382.625)"/>
<path d="M0 0 C1.13308594 -0.01675781 2.26617187 -0.03351563 3.43359375 -0.05078125 C6.78575713 0.33842124 8.1286897 1.04612629 10.5625 3.3125 C10.3020304 6.52495843 9.98759628 7.9272565 7.5625 10.125 C3.46961477 11.7451004 -0.0921781 12.03672032 -4.4375 11.3125 C-6.78789822 10.20445513 -8.40729564 8.9783087 -10.4375 7.3125 C-10.125 4.9375 -10.125 4.9375 -9.4375 2.3125 C-5.89151732 -0.05148846 -4.20420901 0.01431626 0 0 Z " fill="#8B4852" transform="translate(113.4375,415.6875)"/>
<path d="M0 0 C2.9375 2.125 2.9375 2.125 5 5 C5.06983202 8.49160091 4.67570494 10.18915407 2.4375 12.875 C-1.08575249 14.50111654 -4.1888846 14.6858449 -8 14 C-10.5625 12.4375 -10.5625 12.4375 -12 10 C-12.0625 6.4375 -12.0625 6.4375 -11 3 C-7.56270154 -0.04446435 -4.50608134 -0.75101356 0 0 Z " fill="#8B4852" transform="translate(334,349)"/>
<path d="M0 0 C10.36525382 0.47987286 17.97128663 4.29688983 25 12 C30 19.38498789 30 19.38498789 30 23 C30.66 23.33 31.32 23.66 32 24 C30.35 25.32 28.7 26.64 27 28 C26.5153125 27.154375 26.030625 26.30875 25.53125 25.4375 C18.77093942 13.9969744 12.17504111 6.90847583 0 1 C0 0.67 0 0.34 0 0 Z " fill="#E3E5E9" transform="translate(378,134)"/>
<path d="M0 0 C14.95720948 -0.43991793 26.11235261 0.57979588 39 9 C40.37086915 10.29470975 41.71681465 11.61833763 43 13 C41.62845496 15.95409701 40.01136276 18.44008376 38 21 C37.65388672 20.20335937 37.65388672 20.20335937 37.30078125 19.390625 C33.92198507 12.07212576 29.78304509 8.88540756 22.3125 6.015625 C15.02001832 3.7797226 7.48211674 2.4441868 0 1 C0 0.67 0 0.34 0 0 Z " fill="#DADCE4" transform="translate(284,133)"/>
<path d="M0 0 C0.66 0.33 1.32 0.66 2 1 C1.79852906 4.62647696 1.24417598 5.78024161 -1.5 8.25 C-5.59314161 10.29657081 -9.40150301 11.27590982 -14 11 C-16 9 -16 9 -16.0625 6.625 C-14.76918187 3.42974343 -13.08154681 2.2737058 -10.046875 0.71875 C-6.56646837 -0.50337752 -3.66506094 -0.31059838 0 0 Z " fill="#8B4952" transform="translate(408,259)"/>
<path d="M0 0 C0.66 0.33 1.32 0.66 2 1 C2.59765625 3.87109375 2.59765625 3.87109375 3.0625 7.4375 C3.54058704 11.86703702 3.54058704 11.86703702 5 16 C1.98509443 17.00496852 -0.04181692 17.10335303 -3.1875 17.0625 C-4.53908203 17.04896484 -4.53908203 17.04896484 -5.91796875 17.03515625 C-6.60503906 17.02355469 -7.29210937 17.01195312 -8 17 C-7.01165919 6.31569507 -7.01165919 6.31569507 -4.53125 3.08984375 C-2.875 1.75 -2.875 1.75 0 0 Z " fill="#CFCFDF" transform="translate(339,251)"/>
<path d="M0 0 C1.65 0.33 3.3 0.66 5 1 C4.63344579 7.10923686 3.32380251 9.87730459 -1 14 C-2.32 14 -3.64 14 -5 14 C-5.602537 7.01057082 -5.602537 7.01057082 -3.88671875 4.1328125 C-2.66254412 2.69138998 -1.33721771 1.33721771 0 0 Z " fill="#52383C" transform="translate(409,320)"/>
<path d="M0 0 C1.051875 -0.02126953 1.051875 -0.02126953 2.125 -0.04296875 C4 0.1875 4 0.1875 6 2.1875 C5.8125 4.6875 5.8125 4.6875 5 7.1875 C2 9.1875 2 9.1875 -1.5625 8.9375 C-5 8.1875 -5 8.1875 -7 6.1875 C-6.75 3.625 -6.75 3.625 -6 1.1875 C-3.77109005 0.07304502 -2.46944894 0.02269714 0 0 Z " fill="#8B4952" transform="translate(166,420.8125)"/>
<path d="M0 0 C0.66 0.33 1.32 0.66 2 1 C-10.58252427 13 -10.58252427 13 -18 13 C-17.4118332 9.97514219 -16.75929472 6.98613386 -16 4 C-15.09636719 3.87882812 -14.19273437 3.75765625 -13.26171875 3.6328125 C-12.08222656 3.46523438 -10.90273438 3.29765625 -9.6875 3.125 C-8.51574219 2.96257812 -7.34398437 2.80015625 -6.13671875 2.6328125 C-2.85469105 2.17699379 -2.85469105 2.17699379 0 0 Z " fill="#E3CC9A" transform="translate(347,264)"/>
<path d="M0 0 C3.25 0.375 3.25 0.375 6.125 2.625 C8.25 5.375 8.25 5.375 8.25 9.375 C2.07063492 10.82896825 2.07063492 10.82896825 -1.6875 8.75 C-3.75 6.375 -3.75 6.375 -4.125 3.6875 C-3.58556811 0.36100335 -3.40206672 0.46391819 0 0 Z " fill="#8B4852" transform="translate(227.75,397.625)"/>
<path d="M0 0 C-2.70011985 6.64976325 -10.68547682 10.29377578 -17 13 C-17.99 13 -18.98 13 -20 13 C-20 11.35 -20 9.7 -20 8 C-17.04435292 6.66065284 -14.0850622 5.32955753 -11.125 4 C-10.28324219 3.6184375 -9.44148438 3.236875 -8.57421875 2.84375 C-7.76855469 2.4828125 -6.96289062 2.121875 -6.1328125 1.75 C-5.38918457 1.41484375 -4.64555664 1.0796875 -3.87939453 0.734375 C-2 0 -2 0 0 0 Z " fill="#E4CC9A" transform="translate(391,213)"/>
<path d="M0 0 C1.051875 0.14695313 1.051875 0.14695313 2.125 0.296875 C3.176875 0.42835938 3.176875 0.42835938 4.25 0.5625 C6.125 1.046875 6.125 1.046875 8.125 3.046875 C7.75818342 5.98140761 7.26062754 6.91124746 5.125 9.046875 C1.07238713 9.39177822 -0.42254176 9.34851382 -3.875 7.046875 C-4.1875 4.546875 -4.1875 4.546875 -3.875 2.046875 C-1.875 0.046875 -1.875 0.046875 0 0 Z " fill="#8B4952" transform="translate(444.875,233.953125)"/>
<path d="M0 0 C1.875 1.25 1.875 1.25 3 3 C2.91246972 5.80096887 2.19432526 6.79873455 0.25 8.8125 C-2 10 -2 10 -4.625 9.8125 C-7 9 -7 9 -9 7 C-8.76668847 4.58911421 -8.15677244 3.21948142 -6.75 1.25 C-4.33943503 -0.47183212 -2.89986477 -0.43497972 0 0 Z " fill="#8C4952" transform="translate(461,195)"/>
<path d="M0 0 C0.495 0.99 0.495 0.99 1 2 C-4.19364308 3.16906425 -9.38971321 4.32637707 -14.58837891 5.47290039 C-16.35634747 5.864539 -18.12361123 6.25937355 -19.89013672 6.6574707 C-22.43017696 7.22930101 -24.97253419 7.78957113 -27.515625 8.34765625 C-28.30430969 8.52780777 -29.09299438 8.70795929 -29.90557861 8.89356995 C-33.64391491 9.70257 -36.34316229 10.11991844 -40 9 C-38.63294922 8.67128906 -38.63294922 8.67128906 -37.23828125 8.3359375 C-35.92943446 8.01666055 -34.6208647 7.69624681 -33.3125 7.375 C-32.61294189 7.20331299 -31.91338379 7.03162598 -31.19262695 6.85473633 C-26.88923162 5.77900437 -22.62273828 4.61555438 -18.3671875 3.36328125 C-17.42447998 3.08629395 -16.48177246 2.80930664 -15.51049805 2.52392578 C-13.64513132 1.97123648 -11.78194118 1.41114113 -9.92114258 0.84326172 C-8.63566528 0.46258545 -8.63566528 0.46258545 -7.32421875 0.07421875 C-6.56197998 -0.15692627 -5.79974121 -0.38807129 -5.0144043 -0.6262207 C-3 -1 -3 -1 0 0 Z " fill="#F5AC5A" transform="translate(105,389)"/>
<path d="M0 0 C0.66 0.66 1.32 1.32 2 2 C1.625 4.625 1.625 4.625 1 7 C-1.1875 7.75 -1.1875 7.75 -4 8 C-6.8125 6.3125 -6.8125 6.3125 -9 4 C-9 2.68 -9 1.36 -9 0 C-5.88135455 -1.55932272 -3.33704665 -0.65549131 0 0 Z " fill="#55393D" transform="translate(208,434)"/>
<path d="M0 0 C2.33944736 0.28730055 4.6739143 0.61936779 7 1 C7.625 3.875 7.625 3.875 8 7 C6 9 6 9 3.5625 9.3125 C1 9 1 9 -0.875 7.8125 C-2 6 -2 6 -1.75 3.375 C-1 1 -1 1 0 0 Z " fill="#8A4852" transform="translate(65,407)"/>
<path d="M0 0 C0.6875 2.3125 0.6875 2.3125 1 5 C-0.0625 6.75 -0.0625 6.75 -2 8 C-5.125 8.75 -5.125 8.75 -8 9 C-9 8 -9 8 -9.3125 5.625 C-9 3 -9 3 -7.3125 1.1875 C-4.65769564 -0.17577792 -2.94425817 -0.24535485 0 0 Z " fill="#53383C" transform="translate(329,389)"/>
<path d="M0 0 C3.52087664 3.05142642 4.63153675 5.60136813 6 10 C6.66 10.33 7.32 10.66 8 11 C6.35 12.32 4.7 13.64 3 15 C-2.2166302 7.12253829 -2.2166302 7.12253829 -1.3125 2.4375 C-0.879375 1.633125 -0.44625 0.82875 0 0 Z " fill="#D8D7E5" transform="translate(402,147)"/>
<path d="M0 0 C0.66 0.33 1.32 0.66 2 1 C0.73652837 3.60797351 -0.53535224 6.21123407 -1.8125 8.8125 C-2.16892578 9.55048828 -2.52535156 10.28847656 -2.89257812 11.04882812 C-3.24384766 11.76103516 -3.59511719 12.47324219 -3.95703125 13.20703125 C-4.27647705 13.8616333 -4.59592285 14.51623535 -4.92504883 15.19067383 C-6.85466418 18.43854559 -8.39056688 19.79685563 -12 21 C-11.42887939 16.79655229 -10.00402094 14.03182636 -7.6875 10.5 C-7.09324219 9.5821875 -6.49898437 8.664375 -5.88671875 7.71875 C-4.03131197 5.04512035 -2.06393016 2.51498775 0 0 Z " fill="#E5CD98" transform="translate(146,205)"/>
<path d="M0 0 C0.33 2.64 0.66 5.28 1 8 C-6.625 7.125 -6.625 7.125 -10 6 C-10 4.68 -10 3.36 -10 2 C-3.375 0 -3.375 0 0 0 Z " fill="#D1D1E0" transform="translate(291,286)"/>
<path d="M0 0 C0 2.97 0 5.94 0 9 C-2.64 9 -5.28 9 -8 9 C-7.53918323 4.85264908 -4.48412936 0 0 0 Z " fill="#E5CD9A" transform="translate(186,176)"/>
<path d="M0 0 C3.25696479 0.41755959 4.63443291 0.63443291 7 3 C6.625 5.625 6.625 5.625 6 8 C3.625 8.125 3.625 8.125 1 8 C-1 6 -1 6 -1.1875 3.4375 C-1 1 -1 1 0 0 Z " fill="#8B4952" transform="translate(433,252)"/>
<path d="M0 0 C0.78375 0.04125 1.5675 0.0825 2.375 0.125 C3.035 1.445 3.695 2.765 4.375 4.125 C3.1875 5.625 3.1875 5.625 1.375 7.125 C-1.3125 7.3125 -1.3125 7.3125 -3.625 7.125 C-4.25 4.75 -4.25 4.75 -4.625 2.125 C-2.625 0.125 -2.625 0.125 0 0 Z " fill="#8A4852" transform="translate(349.625,320.875)"/>
<path d="M0 0 C0.625 2.375 0.625 2.375 1 5 C-1 7 -1 7 -3.625 7.125 C-4.40875 7.08375 -5.1925 7.0425 -6 7 C-6.66 5.68 -7.32 4.36 -8 3 C-5.53387212 -0.1151089 -3.89156016 -0.31553191 0 0 Z " fill="#8A4852" transform="translate(406,288)"/>
<path d="M0 0 C0 2.97 0 5.94 0 9 C-1.65 9.66 -3.3 10.32 -5 11 C-5 8.03 -5 5.06 -5 2 C-1 0 -1 0 0 0 Z " fill="#D0CFDD" transform="translate(376,210)"/>
<path d="M0 0 C7.66795502 2.33937611 14.77137274 5.54768806 22 9 C18.12609336 10.29130221 17.04114434 9.39834397 13.375 7.75 C8.30716911 5.53667726 3.2699563 3.6688195 -2 2 C-1.34 1.34 -0.68 0.68 0 0 Z " fill="#F5AE5C" transform="translate(399,99)"/>
<path d="M0 0 C0.66 0.33 1.32 0.66 2 1 C2 1.66 2 2.32 2 3 C-0.76628111 4.19922024 -3.537155 5.38460499 -6.3125 6.5625 C-7.49102539 7.07586914 -7.49102539 7.07586914 -8.69335938 7.59960938 C-9.45068359 7.91865234 -10.20800781 8.23769531 -10.98828125 8.56640625 C-11.68477783 8.86490479 -12.38127441 9.16340332 -13.09887695 9.47094727 C-15 10 -15 10 -18 9 C-17.03578125 8.60167969 -16.0715625 8.20335937 -15.078125 7.79296875 C-13.80196043 7.25810566 -12.52592555 6.72293304 -11.25 6.1875 C-10.61578125 5.92646484 -9.9815625 5.66542969 -9.328125 5.39648438 C-5.86857298 3.93698587 -2.87960642 2.42148722 0 0 Z " fill="#FBD693" transform="translate(210,348)"/>
<path d="M0 0 C0.66 0.33 1.32 0.66 2 1 C-1.59054233 4.88975419 -5.73898882 7.89732195 -10 11 C-8.55218207 7.55571735 -6.72305391 5.63869038 -3.875 3.25 C-3.15054688 2.63640625 -2.42609375 2.0228125 -1.6796875 1.390625 C-0.84824219 0.70226562 -0.84824219 0.70226562 0 0 Z " fill="#ECE8F6" transform="translate(245,138)"/>
<path d="M0 0 C-1.6210103 0.69685498 -3.24696066 1.38222861 -4.875 2.0625 C-5.77992188 2.44535156 -6.68484375 2.82820313 -7.6171875 3.22265625 C-10 4 -10 4 -12 3 C-8.5571185 -1.16769866 -4.97775588 -1.39503986 0 0 Z " fill="#FBD895" transform="translate(192,359)"/>
<path d="M0 0 C0.33 0.66 0.66 1.32 1 2 C0.22265625 3.7265625 0.22265625 3.7265625 -0.9375 5.625 C-1.618125 6.73875 -2.29875 7.8525 -3 9 C-3.99 9 -4.98 9 -6 9 C-4.47291037 5.56404834 -2.40072955 2.88087546 0 0 Z " fill="#E6CE9A" transform="translate(113,243)"/>
<path d="M0 0 C2.375 0.25 2.375 0.25 5 1 C6.3125 3.0625 6.3125 3.0625 7 5 C4.625 4.75 4.625 4.75 2 4 C0.6875 1.9375 0.6875 1.9375 0 0 Z " fill="#F6EEEC" transform="translate(465,82)"/>
<path d="M0 0 C0.66 0.33 1.32 0.66 2 1 C1.01 2.98 0.02 4.96 -1 7 C-1.99 7 -2.98 7 -4 7 C-2.79618552 4.50638429 -1.54571278 2.31856917 0 0 Z " fill="#E6CC95" transform="translate(284,126)"/>
</svg>
