<?xml version="1.0" encoding="UTF-8"?>
<svg version="1.1" xmlns="http://www.w3.org/2000/svg" width="512" height="512">
<path d="M0 0 C1.37285156 -0.04253906 1.37285156 -0.04253906 2.7734375 -0.0859375 C10.70153619 1.19559078 16.43378559 8.91177541 21.80078125 14.3203125 C22.77593545 15.29666047 23.75146144 16.27263724 24.7273407 17.2482605 C26.76185644 19.2843334 28.79298896 21.32370061 30.8215332 23.36572266 C33.42353555 25.98479301 36.03215172 28.59715282 38.6430788 31.20732307 C40.65333692 33.2178527 42.66098179 35.23097439 44.66774559 37.2449913 C45.62923397 38.20966275 46.59132999 39.17372894 47.55404091 40.13718033 C48.89442536 41.47972766 50.23111868 42.82595715 51.56762695 44.17236328 C52.32896439 44.93751251 53.09030182 45.70266174 53.87471008 46.49099731 C57.09390412 49.95612052 56.93998358 52.84683703 57.125 57.5 C57.1971875 58.78132813 57.269375 60.06265625 57.34375 61.3828125 C56.6136912 70.10333317 45.72917801 77.26426888 39.77972412 82.95922279 C36.44435384 86.16227447 33.14166406 89.39912575 29.83184814 92.62853718 C26.93549031 95.45080241 24.02913068 98.26119332 21.10009766 101.04956055 C18.24511059 103.76872133 15.42075064 106.51657243 12.61447144 109.28594017 C11.54692919 110.32893059 10.46880206 111.36120677 9.37991333 112.38189125 C3.17525086 117.92641391 3.17525086 117.92641391 0.19831848 125.39616394 C0.43795739 128.17628326 0.92516428 130.67899526 1.625 133.375 C1.78316385 134.70909547 1.91486072 136.04677657 2.01171875 137.38671875 C2.11097656 138.59972656 2.21023438 139.81273437 2.3125 141.0625 C3.92978266 165.77789648 -5.80701332 188.13272355 -18.4375 208.875 C-25.60566416 220.70916816 -30.61396187 233.29962501 -34.6875 246.5 C-35.03312988 247.60661987 -35.03312988 247.60661987 -35.38574219 248.7355957 C-40.20837488 265.21292405 -41.1207178 281.95084777 -41.95629883 298.99584961 C-43.94737937 338.54339798 -54.72856447 377.06281422 -78.375 409.375 C-79.10847656 410.39207031 -79.84195312 411.40914063 -80.59765625 412.45703125 C-87.17696292 421.39075096 -94.68210155 429.39875354 -102.375 437.375 C-103.61636719 438.67824219 -103.61636719 438.67824219 -104.8828125 440.0078125 C-120.26667992 455.8327944 -139.30326906 468.4435422 -158.375 479.375 C-159.12330078 479.80409668 -159.87160156 480.23319336 -160.64257812 480.67529297 C-184.07971086 493.93524745 -209.84431525 502.81298923 -236.1875 508.1875 C-237.13995605 508.3824707 -238.09241211 508.57744141 -239.07373047 508.77832031 C-254.41850886 511.72514143 -269.66443811 512.72749149 -285.26831055 512.69067383 C-288.04320968 512.68752191 -290.81702877 512.71106505 -293.59179688 512.73632812 C-302.8904357 512.76816601 -311.99858639 512.3567061 -321.2175293 511.11010742 C-322.2087145 510.97793571 -323.19989971 510.84576401 -324.22112083 510.7095871 C-334.60341548 509.27779491 -344.86151415 507.31791026 -355.1328125 505.25 C-357.10570721 504.85752346 -359.07868059 504.46544221 -361.05172729 504.07373047 C-365.13138415 503.2619084 -369.2098715 502.44450957 -373.28759766 501.62304688 C-378.50685423 500.57223957 -383.72913596 499.53738884 -388.95239449 498.50668335 C-393.00292022 497.70535041 -397.05161375 496.8950581 -401.09981918 496.08209229 C-403.02652501 495.69642407 -404.95382179 495.31369553 -406.88171768 494.934021 C-409.55997636 494.40533463 -412.2354868 493.86444168 -414.91064453 493.3203125 C-415.69810059 493.16749817 -416.48555664 493.01468384 -417.296875 492.85723877 C-423.46626715 491.58063693 -428.47222786 489.44048817 -432.375 484.375 C-433.45710313 481.42771764 -434.05948008 478.41307336 -434.6796875 475.33984375 C-434.8831076 474.39012192 -435.08652771 473.44040009 -435.29611206 472.4618988 C-436.00774137 469.10322236 -436.69261572 465.73973707 -437.375 462.375 C-437.64387884 461.06513039 -437.91313772 459.75533873 -438.18273926 458.44561768 C-440.01748608 449.51955724 -441.80414592 440.58443609 -443.56884766 431.64428711 C-444.18831523 428.50722518 -444.81278059 425.3712255 -445.44189453 422.23608398 C-450.51180655 396.96008064 -454.97503274 372.31512426 -454.75 346.4375 C-454.74567963 345.48420807 -454.74135925 344.53091614 -454.73690796 343.54873657 C-454.65975899 328.9764071 -454.06130235 314.72975993 -451.375 300.375 C-451.2193457 299.4782959 -451.06369141 298.5815918 -450.90332031 297.65771484 C-444.52275161 261.52026238 -429.85349485 225.18668137 -408.375 195.375 C-407.94106934 194.77268555 -407.50713867 194.17037109 -407.06005859 193.54980469 C-393.30758157 174.57468888 -378.07303763 156.66455721 -359.375 142.375 C-358.56240723 141.73981445 -358.56240723 141.73981445 -357.73339844 141.09179688 C-347.8556872 133.39128167 -337.49386699 127.12051265 -326.375 121.375 C-325.7572168 121.05047852 -325.13943359 120.72595703 -324.50292969 120.39160156 C-296.88634911 106.03955719 -266.32868113 100.90262998 -235.5630188 99.65664673 C-204.04171779 98.30033874 -175.27306625 91.07821909 -148.1784668 74.65600586 C-124.75948723 60.47816049 -100.20654409 52.74327823 -72.80078125 56.90234375 C-71.67027344 57.05832031 -70.53976562 57.21429688 -69.375 57.375 C-68.59387344 57.48822601 -67.81274689 57.60145203 -67.00794983 57.71810913 C-63.20999818 57.22318444 -61.36294373 55.00833668 -58.82202148 52.35791016 C-58.29127014 51.82467636 -57.7605188 51.29144257 -57.21368408 50.74205017 C-55.46264636 48.97733803 -53.72977059 47.19581874 -51.99609375 45.4140625 C-50.78095128 44.18451105 -49.56454761 42.95620486 -48.34693909 41.72909546 C-45.14343421 38.49516185 -41.95434936 35.24739575 -38.7689209 31.9956665 C-33.67015961 26.79462458 -28.55196702 21.61276858 -23.42982674 16.43476486 C-21.64318842 14.62395608 -19.86397303 12.80609238 -18.08555603 10.98721313 C-16.99010058 9.87490285 -15.89445347 8.76278128 -14.79858398 7.65087891 C-14.30652969 7.14377884 -13.8144754 6.63667877 -13.30751038 6.11421204 C-9.02928942 1.79445268 -6.07857828 0.08513415 0 0 Z " fill="#FE9F00" transform="translate(455.375,-0.375)"/>
<path d="M0 0 C12.49760336 5.85595452 20.02775258 21.81707642 25 34 C25.29777344 34.6909375 25.59554688 35.381875 25.90234375 36.09375 C33.60534669 56.02191681 30.32356685 80.34277407 22.0625 99.5625 C18.42613292 107.67788239 14.03872722 115.4229428 9.77319336 123.21826172 C3.74001297 134.25450343 -1.55934566 145.23261297 -5.6875 157.125 C-5.96126465 157.89287842 -6.2350293 158.66075684 -6.51708984 159.4519043 C-12.17106915 176.48054069 -13.66614364 194.13511499 -14.5 211.9375 C-16.40509842 252.53521552 -26.67036678 291.75424388 -51 325 C-51.73347656 326.01707031 -52.46695312 327.03414063 -53.22265625 328.08203125 C-59.80196292 337.01575096 -67.30710155 345.02375354 -75 353 C-76.24136719 354.30324219 -76.24136719 354.30324219 -77.5078125 355.6328125 C-92.89167992 371.4577944 -111.92826906 384.0685422 -131 395 C-131.74830078 395.42909668 -132.49660156 395.85819336 -133.26757812 396.30029297 C-156.70471086 409.56024745 -182.46931525 418.43798923 -208.8125 423.8125 C-209.76495605 424.0074707 -210.71741211 424.20244141 -211.69873047 424.40332031 C-227.04350886 427.35014143 -242.28943811 428.35249149 -257.89331055 428.31567383 C-260.66820968 428.31252191 -263.44202877 428.33606505 -266.21679688 428.36132812 C-275.5154357 428.39316601 -284.62358639 427.9817061 -293.8425293 426.73510742 C-294.8337145 426.60293571 -295.82489971 426.47076401 -296.84612083 426.3345871 C-307.22841548 424.90279491 -317.48651415 422.94291026 -327.7578125 420.875 C-329.73070721 420.48252346 -331.70368059 420.09044221 -333.67672729 419.69873047 C-337.75638415 418.8869084 -341.8348715 418.06950957 -345.91259766 417.24804688 C-351.13185423 416.19723957 -356.35413596 415.16238884 -361.57739449 414.13168335 C-365.62792022 413.33035041 -369.67661375 412.5200581 -373.72481918 411.70709229 C-375.65152501 411.32142407 -377.57882179 410.93869553 -379.50671768 410.559021 C-382.18497636 410.03033463 -384.8604868 409.48944168 -387.53564453 408.9453125 C-388.32310059 408.79249817 -389.11055664 408.63968384 -389.921875 408.48223877 C-394.10489953 407.61666617 -397.62135936 406.68428905 -401 404 C-401 399.87056516 -399.44273012 399.05102832 -396.56542969 396.14550781 C-396.0939299 395.66553848 -395.62243011 395.18556915 -395.13664246 394.6910553 C-393.57284304 393.10382022 -391.99804647 391.52806864 -390.421875 389.953125 C-389.33256768 388.85672068 -388.24356195 387.76001664 -387.15484619 386.6630249 C-384.86996431 384.36468353 -382.57921243 382.07238446 -380.28466797 379.78369141 C-377.34079326 376.84571768 -374.4155844 373.88990214 -371.49494553 370.92885208 C-369.2508036 368.6589002 -366.99533214 366.40047812 -364.73642731 364.14522552 C-363.65277235 363.05987339 -362.57311422 361.97051576 -361.49752045 360.87717438 C-359.99399503 359.35158922 -358.475533 357.84263276 -356.95214844 356.33691406 C-356.09055115 355.47326233 -355.22895386 354.6096106 -354.34124756 353.7197876 C-352 352 -352 352 -349.94049072 352.10394287 C-348.63070237 352.70876163 -347.33250909 353.33925353 -346.04640198 353.99291992 C-343.7792051 355.1086581 -341.73205216 355.6100632 -339.25756836 356.11328125 C-338.31815903 356.30688232 -337.37874969 356.5004834 -336.41087341 356.69995117 C-335.39743362 356.90209229 -334.38399384 357.1042334 -333.33984375 357.3125 C-332.28076309 357.52688721 -331.22168243 357.74127441 -330.13050842 357.9621582 C-327.88081053 358.41554522 -325.63050072 358.86590482 -323.37963867 359.31347656 C-320.00021218 359.98749226 -316.62413331 360.67666377 -313.24804688 361.3671875 C-255.77317995 372.96972779 -198.40470444 366.39851011 -148.5 333.9375 C-146.65224504 332.64538199 -144.8188762 331.33246265 -143 330 C-141.95972656 329.24332031 -140.91945313 328.48664063 -139.84765625 327.70703125 C-132.26024915 322.08102551 -125.26708143 315.91138715 -118.44873047 309.38134766 C-117.15755844 308.15023014 -115.84758427 306.93890089 -114.53515625 305.73046875 C-100.87354849 292.78915666 -91.02009145 275.47220825 -84.68359375 257.88574219 C-84.02278716 256.06286 -83.324507 254.25369708 -82.625 252.4453125 C-76.48880186 235.16899273 -76.13754845 216.47148035 -75.17599487 198.31796265 C-72.92953159 156.14860301 -60.07872227 115.90781188 -36.48828125 80.6484375 C-32.17188139 72.96728499 -31.85607824 63.93409412 -33.5 55.40625 C-35.07245677 50.18855255 -37.64363969 46.26348471 -41 42 C-36.5021065 36.60809603 -31.73873458 31.60608316 -26.7578125 26.66015625 C-25.98944061 25.89319931 -25.22106873 25.12624237 -24.42941284 24.33604431 C-21.99696491 21.9091526 -19.56104678 19.48577873 -17.125 17.0625 C-15.46591448 15.40843514 -13.80705798 13.75414055 -12.1484375 12.09960938 C-8.10160291 8.06374567 -4.05192047 4.03075723 0 0 Z " fill="#FE7815" transform="translate(428,84)"/>
<path d="M0 0 C1.69140625 2.23046875 1.69140625 2.23046875 3.5625 5.1875 C4.18253906 6.15042969 4.80257813 7.11335937 5.44140625 8.10546875 C7.96594636 12.79390039 8.17428507 17.04400275 8.25 22.3125 C8.27578125 23.38113281 8.3015625 24.44976562 8.328125 25.55078125 C7.52466596 33.99666612 2.95020874 40.94013222 -1.17990112 48.16906738 C-21.2690617 83.42746994 -32.29234768 119.33602388 -34.56825256 159.9606781 C-37.16876017 206.34038853 -50.00365666 242.84119801 -85 275 C-89.48828181 278.90441116 -94.19704137 282.49423159 -99 286 C-100.05703125 286.77859375 -101.1140625 287.5571875 -102.203125 288.359375 C-122.14588047 302.60420034 -143.70453927 311.74027062 -167 319 C-167.71687988 319.22848633 -168.43375977 319.45697266 -169.17236328 319.69238281 C-206.40895941 331.42301454 -245.76196078 326.0089515 -283.1875 318.5625 C-284.66527924 318.27320114 -284.66527924 318.27320114 -286.1729126 317.97805786 C-289.00791145 317.41844623 -291.83822012 316.83942496 -294.66796875 316.25390625 C-295.9461422 316.00380798 -295.9461422 316.00380798 -297.25013733 315.74865723 C-302.35261992 314.66356745 -305.85543857 313.18828521 -310 310 C-308.40776443 306.12418362 -305.92278863 303.67213614 -302.98057556 300.72889328 C-302.46222472 300.20763556 -301.94387388 299.68637783 -301.40981543 299.14932442 C-299.66326714 297.39544925 -297.9096509 295.64881585 -296.15600586 293.90203857 C-294.89309169 292.63682106 -293.63061402 291.37116771 -292.36853695 290.10511518 C-288.89254178 286.62074639 -285.41030586 283.14267298 -281.92703199 279.66558266 C-278.17426095 275.91732452 -274.42723432 272.16333155 -270.67947388 268.4100647 C-263.33461586 261.05629912 -255.98434351 253.70796826 -248.63213563 246.36155173 C-242.65980256 240.39372911 -236.68941676 234.42396494 -230.72042847 228.45279694 C-229.87201635 227.60407836 -229.02360424 226.75535978 -228.14948267 225.88092245 C-226.42617071 224.15697107 -224.70286326 222.43301519 -222.97956026 220.70905486 C-206.80901872 204.53280621 -190.63234528 188.36270081 -174.45358121 172.19467655 C-160.55704895 158.30708336 -146.66577349 144.41425009 -132.77832031 130.51757812 C-116.66640161 114.39496906 -100.55125969 98.27559314 -84.4309206 82.16140294 C-82.71380004 80.4449195 -80.99668367 78.72843187 -79.27957153 77.01194 C-78.43462519 76.16730221 -77.58967885 75.32266442 -76.71912807 74.45243154 C-70.75099728 68.48603116 -64.78519779 62.51730574 -58.82028198 56.54769135 C-51.55741513 49.2792295 -44.29102483 42.01431272 -37.02002025 34.7539911 C-33.30694378 31.04618953 -29.59551894 27.33677245 -25.88837051 23.62304306 C-22.50017881 20.22892739 -19.1074699 16.8393988 -15.71097004 13.45359769 C-14.47775894 12.22263577 -13.24626203 10.98995386 -12.01658523 9.75546131 C-10.35540046 8.08826671 -8.68828697 6.4272458 -7.01942444 4.76774216 C-5.62785676 3.37666154 -5.62785676 3.37666154 -4.20817661 1.95747828 C-2 0 -2 0 0 0 Z " fill="#FED300" transform="translate(388,126)"/>
<path d="M0 0 C1.37285156 -0.04253906 1.37285156 -0.04253906 2.7734375 -0.0859375 C10.70153619 1.19559078 16.43378559 8.91177541 21.80078125 14.3203125 C22.77593545 15.29666047 23.75146144 16.27263724 24.7273407 17.2482605 C26.76185644 19.2843334 28.79298896 21.32370061 30.8215332 23.36572266 C33.42353555 25.98479301 36.03215172 28.59715282 38.6430788 31.20732307 C40.65333692 33.2178527 42.66098179 35.23097439 44.66774559 37.2449913 C45.62923397 38.20966275 46.59132999 39.17372894 47.55404091 40.13718033 C48.89442536 41.47972766 50.23111868 42.82595715 51.56762695 44.17236328 C52.7096331 45.32008713 52.7096331 45.32008713 53.87471008 46.49099731 C57.09390412 49.95612052 56.93998358 52.84683703 57.125 57.5 C57.23328125 59.42199219 57.23328125 59.42199219 57.34375 61.3828125 C56.57552073 70.53117785 44.28097462 78.84794257 38.00390625 85.09375 C36.89267877 86.20310833 35.78167488 87.31269067 34.67088318 88.42248535 C31.77155629 91.31802616 28.86923728 94.21054907 25.96624756 97.10241699 C22.99453694 100.06382864 20.02571733 103.02813554 17.05664062 105.9921875 C11.2488918 111.7892681 5.43797327 117.5831582 -0.375 123.375 C-3.08312656 122.02093672 -3.15639646 120.74999944 -4.1875 117.9375 C-8.71812006 106.30616269 -14.68838796 95.9145292 -23.68359375 87.1171875 C-25.375 85.375 -25.375 85.375 -25.375 83.375 C-26.24511719 82.99214844 -26.24511719 82.99214844 -27.1328125 82.6015625 C-29.59846943 81.25275365 -31.24169003 79.71142336 -33.25 77.75 C-42.45351718 69.42157133 -54.1089961 64.31557314 -65.375 59.375 C-59.96706002 52.81035854 -53.99814631 46.83430919 -47.9921875 40.82421875 C-46.88926135 39.71807385 -45.78640819 38.61185616 -44.68362427 37.50556946 C-42.38411176 35.20010155 -40.08257484 32.89667673 -37.77978516 30.59448242 C-34.83139375 27.64619317 -31.88997406 24.69105119 -28.95022392 21.73414898 C-26.68025958 19.4530712 -24.40576995 17.17654771 -22.12997818 14.90128517 C-21.04312541 13.81325401 -19.95789001 12.72360469 -18.8743248 11.63229942 C-17.36216753 10.11034305 -15.8438039 8.59485499 -14.32373047 7.08081055 C-13.46246552 6.21812057 -12.60120056 5.3554306 -11.71383667 4.46659851 C-7.88578543 1.04321014 -5.1075939 0.07153493 0 0 Z " fill="#A8D229" transform="translate(455.375,-0.375)"/>
<path d="M0 0 C3.59145453 1.68769485 5.91861084 3.67388856 8.73046875 6.5 C9.61541016 7.386875 10.50035156 8.27375 11.41210938 9.1875 C12.32798828 10.115625 13.24386719 11.04375 14.1875 12 C15.11498047 12.928125 16.04246094 13.85625 16.99804688 14.8125 C25.17881215 23.04712547 25.17881215 23.04712547 25.5 31.125 C25.60828125 33.04699219 25.60828125 33.04699219 25.71875 35.0078125 C24.95052073 44.15617785 12.65597462 52.47294257 6.37890625 58.71875 C5.26767877 59.82810833 4.15667488 60.93769067 3.04588318 62.04748535 C0.14655629 64.94302616 -2.75576272 67.83554907 -5.65875244 70.72741699 C-8.63046306 73.68882864 -11.59928267 76.65313554 -14.56835938 79.6171875 C-20.3761082 85.4142681 -26.18702673 91.2081582 -32 97 C-34.70812656 95.64593672 -34.78139646 94.37499944 -35.8125 91.5625 C-40.66883589 79.09496131 -47.26580026 68.30706396 -57 59 C-55.40752446 55.06532451 -52.69337631 52.42422224 -49.72412109 49.49707031 C-49.18738266 48.96003983 -48.65064423 48.42300934 -48.09764099 47.8697052 C-46.32760717 46.10106141 -44.55060143 44.33960176 -42.7734375 42.578125 C-41.54274656 41.35116534 -40.3124973 40.12376251 -39.08267212 38.89593506 C-35.84843484 35.66932512 -32.60823592 32.44876709 -29.36676025 29.22943115 C-26.05859466 25.94174328 -22.75610054 22.64836932 -19.453125 19.35546875 C-12.97428921 12.89806702 -6.48914131 6.44704432 0 0 Z " fill="#93BF00" transform="translate(487,26)"/>
<path d="M0 0 C4.95520521 2.57289501 8.49116963 5.98233926 11 11 C11.40399154 16.25189007 10.88990343 19.56881474 8 24 C4.37922116 27.5821572 1.46652574 29.87571816 -3.6875 30.3125 C-8.46973564 30.25163518 -11.11394 28.74310118 -15 26 C-18.8051036 21.81438604 -19.36241486 17.76225524 -19.2734375 12.28125 C-18.76363989 8.02808139 -16.72446474 5.40140046 -13.45703125 2.74609375 C-8.91820898 -0.23478037 -5.35985552 -0.68061657 0 0 Z " fill="#9A523B" transform="translate(189,381)"/>
<path d="M0 0 C4.53329998 2.56554889 7.21654748 4.97003024 8.8203125 10.08203125 C9.58525579 16.01034177 8.73932699 19.48023608 5.30078125 24.3828125 C1.97878593 28.19565673 -1.21339453 28.97466536 -6.1171875 29.51953125 C-10.53894107 29.31662095 -13.82215243 27.96356135 -17.1796875 25.08203125 C-20.52588242 21.18307256 -21.86641195 17.19008978 -21.55859375 12.06640625 C-20.74410214 7.80082132 -18.93656107 4.58982908 -15.63671875 1.7578125 C-10.67438536 -1.47849188 -5.51473251 -2.3225128 0 0 Z " fill="#9B523B" transform="translate(240.1796875,372.91796875)"/>
<path d="M0 0 C4.53329998 2.56554889 7.21654748 4.97003024 8.8203125 10.08203125 C9.58525579 16.01034177 8.73932699 19.48023608 5.30078125 24.3828125 C1.97878593 28.19565673 -1.21339453 28.97466536 -6.1171875 29.51953125 C-10.53894107 29.31662095 -13.82215243 27.96356135 -17.1796875 25.08203125 C-20.52588242 21.18307256 -21.86641195 17.19008978 -21.55859375 12.06640625 C-20.74410214 7.80082132 -18.93656107 4.58982908 -15.63671875 1.7578125 C-10.67438536 -1.47849188 -5.51473251 -2.3225128 0 0 Z " fill="#9B523B" transform="translate(258.1796875,306.91796875)"/>
<path d="M0 0 C4.53329998 2.56554889 7.21654748 4.97003024 8.8203125 10.08203125 C9.58525579 16.01034177 8.73932699 19.48023608 5.30078125 24.3828125 C1.97878593 28.19565673 -1.21339453 28.97466536 -6.1171875 29.51953125 C-10.53894107 29.31662095 -13.82215243 27.96356135 -17.1796875 25.08203125 C-20.52588242 21.18307256 -21.86641195 17.19008978 -21.55859375 12.06640625 C-20.74410214 7.80082132 -18.93656107 4.58982908 -15.63671875 1.7578125 C-10.67438536 -1.47849188 -5.51473251 -2.3225128 0 0 Z " fill="#9B523B" transform="translate(303.1796875,300.91796875)"/>
<path d="M0 0 C4.53329998 2.56554889 7.21654748 4.97003024 8.8203125 10.08203125 C9.58525579 16.01034177 8.73932699 19.48023608 5.30078125 24.3828125 C1.97878593 28.19565673 -1.21339453 28.97466536 -6.1171875 29.51953125 C-10.53894107 29.31662095 -13.82215243 27.96356135 -17.1796875 25.08203125 C-20.52588242 21.18307256 -21.86641195 17.19008978 -21.55859375 12.06640625 C-20.74410214 7.80082132 -18.93656107 4.58982908 -15.63671875 1.7578125 C-10.67438536 -1.47849188 -5.51473251 -2.3225128 0 0 Z " fill="#9B523B" transform="translate(309.1796875,255.91796875)"/>
<path d="M0 0 C4.52741306 2.57522578 7.21220499 4.97254597 8.81640625 10.0859375 C9.58134954 16.01424802 8.73542074 19.48414233 5.296875 24.38671875 C1.97487968 28.19956298 -1.21730078 28.97857161 -6.12109375 29.5234375 C-10.54284732 29.3205272 -13.82605868 27.9674676 -17.18359375 25.0859375 C-20.46898648 21.25782502 -21.9223521 17.27246476 -21.6328125 12.140625 C-20.49107643 6.91842351 -17.67008088 3.14299502 -13.37109375 0.0859375 C-8.5557973 -1.42474374 -4.66937066 -1.95462028 0 0 Z " fill="#9A523B" transform="translate(282.18359375,342.9140625)"/>
<path d="M0 0 C4.52741306 2.57522578 7.21220499 4.97254597 8.81640625 10.0859375 C9.58134954 16.01424802 8.73542074 19.48414233 5.296875 24.38671875 C1.97487968 28.19956298 -1.21730078 28.97857161 -6.12109375 29.5234375 C-10.54284732 29.3205272 -13.82605868 27.9674676 -17.18359375 25.0859375 C-20.46898648 21.25782502 -21.9223521 17.27246476 -21.6328125 12.140625 C-20.49107643 6.91842351 -17.67008088 3.14299502 -13.37109375 0.0859375 C-8.5557973 -1.42474374 -4.66937066 -1.95462028 0 0 Z " fill="#9A523B" transform="translate(219.18359375,336.9140625)"/>
</svg>
