<?xml version="1.0" encoding="UTF-8"?>
<svg version="1.1" xmlns="http://www.w3.org/2000/svg" width="512" height="512">
<path d="M0 0 C3.7421201 2.38697734 6.98357478 5.2315934 10.125 8.35546875 C13.78537974 6.66294803 16.63331991 4.43792025 19.734375 1.890625 C25.85605128 -2.04045144 31.80537334 -3.18144287 39 -3.08203125 C39.79083984 -3.07228271 40.58167969 -3.06253418 41.39648438 -3.05249023 C52.04202123 -2.72993134 58.20984878 0.85272083 65.99609375 8.0390625 C71.125 13.61968893 71.125 13.61968893 71.125 17.35546875 C71.58648437 17.02933594 72.04796875 16.70320313 72.5234375 16.3671875 C81.84733404 10.12054535 91.63289882 7.73253386 102.76171875 9.859375 C111.64498812 12.24003678 119.49573649 16.99097111 125.125 24.35546875 C130.125 33.48425663 130.125 33.48425663 130.125 37.35546875 C131.795625 37.41734375 131.795625 37.41734375 133.5 37.48046875 C140.46495307 38.35881985 146.02669953 42.34839874 151 47.10546875 C156.61381277 55.69130004 158.43951759 63.58322398 156.72265625 73.734375 C154.32342714 82.75108572 147.66688989 88.41915796 140.125 93.35546875 C141.0458136 94.24630409 141.0458136 94.24630409 141.98522949 95.15513611 C147.7765323 100.76583759 153.54573893 106.39815249 159.29141998 112.05557919 C162.24591379 114.96317361 165.20815266 117.86183772 168.18994141 120.74145508 C171.06924818 123.52271291 173.92576591 126.32562251 176.76808167 129.14465523 C177.85429148 130.21428112 178.94837275 131.27597578 180.05039978 132.32929802 C189.76247311 141.62898593 189.76247311 141.62898593 189.89160156 147.42919922 C189.47111812 151.17962987 188.36624507 153.14042617 185.375 155.54296875 C172.16601551 165.91998004 157.69535591 169.43768686 141.125 168.35546875 C137.39141335 167.85336572 133.80942585 167.16301414 130.125 166.35546875 C128.145 170.64546875 126.165 174.93546875 124.125 179.35546875 C125.89875 180.32484375 127.6725 181.29421875 129.5 182.29296875 C144.11541853 190.86597043 153.15067026 202.15806449 158.125 218.35546875 C161.24203068 233.23041263 159.0984796 248.39856439 151.125 261.35546875 C143.79949603 272.08209956 134.50131106 280.07215311 122.125 284.35546875 C121.135 284.35546875 120.145 284.35546875 119.125 284.35546875 C119.47433594 285.09152344 119.82367188 285.82757813 120.18359375 286.5859375 C120.63863281 287.56175781 121.09367187 288.53757812 121.5625 289.54296875 C122.01496094 290.50589844 122.46742188 291.46882813 122.93359375 292.4609375 C127.2335955 302.90782701 126.53738043 317.32465255 122.4453125 327.68359375 C115.96419845 340.799221 106.01252118 349.64977975 92.125 354.35546875 C88.4401935 355.01864608 84.86687623 355.34047125 81.125 355.35546875 C81.17140625 356.09410156 81.2178125 356.83273437 81.265625 357.59375 C81.66749712 368.88922709 78.83323433 377.9723199 71.125 386.35546875 C64.57097042 392.99108376 58.35516107 396.89427508 49.125 398.35546875 C49.13499275 399.24297318 49.13499275 399.24297318 49.14518738 400.14840698 C49.21192309 406.34595263 49.25695823 412.543395 49.28979492 418.74121094 C49.30481541 421.0495214 49.32523779 423.35780363 49.35131836 425.66601562 C49.38799885 428.997467 49.40479431 432.3285387 49.41796875 435.66015625 C49.43345261 436.68035858 49.44893646 437.70056091 49.46488953 438.75167847 C49.46727351 449.06500167 47.384352 457.75354059 40.125 465.35546875 C32.24712713 472.43140247 24.78818683 474.08424303 14.26171875 473.81640625 C6.92711708 473.28291889 1.09488989 469.33539534 -4.875 465.35546875 C-5.46667969 465.76539063 -6.05835938 466.1753125 -6.66796875 466.59765625 C-7.45816406 467.13648438 -8.24835938 467.6753125 -9.0625 468.23046875 C-9.83980469 468.76414062 -10.61710937 469.2978125 -11.41796875 469.84765625 C-19.14338455 474.58853144 -28.90368596 474.76395667 -37.640625 472.703125 C-46.36774509 469.14819671 -52.04531463 463.1244525 -55.96484375 454.6875 C-57.46876493 450.83410538 -57.99919281 447.54227832 -57.98852539 443.40332031 C-57.98840454 442.40896973 -57.98828369 441.41461914 -57.98815918 440.39013672 C-57.98304321 439.35260254 -57.97792725 438.31506836 -57.97265625 437.24609375 C-57.97164917 436.28687012 -57.97064209 435.32764648 -57.96960449 434.33935547 C-57.96437849 430.76138104 -57.95041722 427.18342368 -57.9375 423.60546875 C-57.916875 415.60296875 -57.89625 407.60046875 -57.875 399.35546875 C-74.045 399.35546875 -90.215 399.35546875 -106.875 399.35546875 C-106.82859375 402.92101562 -106.7821875 406.4865625 -106.734375 410.16015625 C-106.7031212 413.63865742 -106.6788665 417.11714255 -106.65527344 420.59570312 C-106.63523966 423.00104856 -106.60800478 425.40634578 -106.57324219 427.81152344 C-106.52436192 431.28202253 -106.50194795 434.75187401 -106.484375 438.22265625 C-106.46372986 439.28660614 -106.44308472 440.35055603 -106.42181396 441.44674683 C-106.41929786 449.94389684 -108.34555712 456.48690906 -113 463.60546875 C-121.38427265 471.62520781 -129.57697636 473.82878443 -140.83984375 473.640625 C-148.12083853 473.30514967 -153.522273 470.19018991 -158.875 465.35546875 C-162.4067636 467.05039994 -165.60751559 469.08370655 -168.875 471.234375 C-175.1423879 474.7475397 -183.88859066 474.17975701 -190.875 473.35546875 C-197.0398084 471.48192673 -201.69755381 468.27011132 -205.875 463.35546875 C-206.926875 462.21078125 -206.926875 462.21078125 -208 461.04296875 C-213.11340891 453.71374932 -213.29026691 446.8570538 -213.16796875 438.19921875 C-213.16372391 437.05634399 -213.15947906 435.91346924 -213.15510559 434.73596191 C-213.13839974 431.10888466 -213.10076156 427.48237625 -213.0625 423.85546875 C-213.04744275 421.38672681 -213.03375617 418.91797611 -213.02148438 416.44921875 C-212.98852271 410.41777679 -212.93840403 404.38666343 -212.875 398.35546875 C-213.98109619 398.20996582 -215.08719238 398.06446289 -216.22680664 397.91455078 C-225.16487427 396.54480074 -233.23294554 390.17583495 -238.6015625 383.0703125 C-244.20743451 374.35773802 -246.38109332 365.64603289 -245.875 355.35546875 C-246.45765625 355.34128906 -247.0403125 355.32710938 -247.640625 355.3125 C-258.69628403 354.66932487 -269.07569874 350.30935076 -276.875 342.35546875 C-282.28768766 335.67377776 -287.00147101 328.8826521 -288.875 320.35546875 C-289.101875 319.40671875 -289.32875 318.45796875 -289.5625 317.48046875 C-290.71808099 305.92465883 -289.33831332 295.71586964 -283.875 285.35546875 C-285.46828125 284.61103516 -285.46828125 284.61103516 -287.09375 283.8515625 C-294.85329154 280.15208615 -301.90403483 276.6917165 -307.875 270.35546875 C-308.47441406 269.76378906 -309.07382812 269.17210937 -309.69140625 268.5625 C-321.17797958 256.53012837 -323.49641349 242.48936148 -323.18359375 226.5703125 C-322.69188829 215.22436197 -318.50501994 206.41892458 -311.875 197.35546875 C-311.40191406 196.69804687 -310.92882812 196.040625 -310.44140625 195.36328125 C-304.58719333 187.90040359 -295.85442705 182.31188543 -286.875 179.35546875 C-285.885 179.35546875 -284.895 179.35546875 -283.875 179.35546875 C-284.22433594 178.48664063 -284.57367188 177.6178125 -284.93359375 176.72265625 C-285.38863281 175.57023438 -285.84367187 174.4178125 -286.3125 173.23046875 C-286.76496094 172.09351563 -287.21742188 170.9565625 -287.68359375 169.78515625 C-291.68814351 158.25730481 -290.9164106 144.9799223 -285.73828125 133.9296875 C-283.45471933 129.98928254 -281.29061102 126.9709362 -276.875 125.35546875 C-275.905625 125.56171875 -274.93625 125.76796875 -273.9375 125.98046875 C-270.66073911 126.73691143 -270.66073911 126.73691143 -267.8125 124.10546875 C-267.32136719 123.63367188 -266.83023438 123.161875 -266.32421875 122.67578125 C-264.875 121.35546875 -264.875 121.35546875 -262.125 119.98046875 C-259.51025966 118.44504279 -259.51025966 118.44504279 -258.875 114.85546875 C-257.875 111.35546875 -257.875 111.35546875 -255.8125 109.48046875 C-248.52396678 106.6891156 -240.37673554 107.24407723 -232.68652344 107.35644531 C-230.44440207 107.37919034 -228.20227525 107.40140313 -225.96014404 107.42315674 C-224.19472385 107.44233028 -224.19472385 107.44233028 -222.39363861 107.46189117 C-214.7990717 107.53287643 -207.20410935 107.53865431 -199.60926437 107.55574417 C-192.95185549 107.57440532 -186.29696712 107.61643799 -179.64013672 107.70849609 C-173.17760709 107.79657335 -166.71759446 107.82063814 -160.25452423 107.80211639 C-157.80337994 107.8063986 -155.3521582 107.83350072 -152.90154266 107.88459015 C-137.52697582 108.57648725 -137.52697582 108.57648725 -124.48857498 101.60319138 C-122.04134609 98.98435582 -119.92143243 96.29948749 -117.875 93.35546875 C-118.50446533 92.90034912 -119.13393066 92.44522949 -119.7824707 91.97631836 C-126.68301799 86.93252959 -133.19538683 81.08945721 -134.875 72.35546875 C-135.82757438 62.11529414 -134.1409429 54.06202722 -127.625 45.98046875 C-121.91555311 39.95450668 -116.01542571 37.93692773 -107.875 37.35546875 C-107.70484375 36.77539062 -107.5346875 36.1953125 -107.359375 35.59765625 C-104.52917979 26.47479298 -99.67705011 18.59362871 -91.15234375 13.8359375 C-80.96108958 9.07636119 -71.45767171 7.64991056 -60.5625 11.10546875 C-56.17562271 12.70277127 -52.55426793 14.49381592 -48.875 17.35546875 C-48.689375 16.69546875 -48.50375 16.03546875 -48.3125 15.35546875 C-44.36101396 7.10888918 -37.50623809 1.66989946 -29.17578125 -1.75390625 C-20.14696704 -4.19008334 -8.48290466 -4.07945242 0 0 Z " fill="#F8F5F8" transform="translate(322.875,20.64453125)"/>
<path d="M0 0 C3.7421201 2.38697734 6.98357478 5.2315934 10.125 8.35546875 C13.78537974 6.66294803 16.63331991 4.43792025 19.734375 1.890625 C25.85605128 -2.04045144 31.80537334 -3.18144287 39 -3.08203125 C39.79083984 -3.07228271 40.58167969 -3.06253418 41.39648438 -3.05249023 C52.04202123 -2.72993134 58.20984878 0.85272083 65.99609375 8.0390625 C71.125 13.61968893 71.125 13.61968893 71.125 17.35546875 C71.58648437 17.02933594 72.04796875 16.70320313 72.5234375 16.3671875 C81.84733404 10.12054535 91.63289882 7.73253386 102.76171875 9.859375 C111.64498812 12.24003678 119.49573649 16.99097111 125.125 24.35546875 C130.125 33.48425663 130.125 33.48425663 130.125 37.35546875 C131.795625 37.41734375 131.795625 37.41734375 133.5 37.48046875 C140.46495307 38.35881985 146.02669953 42.34839874 151 47.10546875 C156.61381277 55.69130004 158.43951759 63.58322398 156.72265625 73.734375 C154.32342714 82.75108572 147.66688989 88.41915796 140.125 93.35546875 C141.0458136 94.24630409 141.0458136 94.24630409 141.98522949 95.15513611 C147.7765323 100.76583759 153.54573893 106.39815249 159.29141998 112.05557919 C162.24591379 114.96317361 165.20815266 117.86183772 168.18994141 120.74145508 C171.06924818 123.52271291 173.92576591 126.32562251 176.76808167 129.14465523 C177.85429148 130.21428112 178.94837275 131.27597578 180.05039978 132.32929802 C189.76247311 141.62898593 189.76247311 141.62898593 189.89160156 147.42919922 C189.47111812 151.17962987 188.36624507 153.14042617 185.375 155.54296875 C172.16601551 165.91998004 157.69535591 169.43768686 141.125 168.35546875 C137.39141335 167.85336572 133.80942585 167.16301414 130.125 166.35546875 C128.145 170.64546875 126.165 174.93546875 124.125 179.35546875 C125.89875 180.32484375 127.6725 181.29421875 129.5 182.29296875 C144.11541853 190.86597043 153.15067026 202.15806449 158.125 218.35546875 C161.24203068 233.23041263 159.0984796 248.39856439 151.125 261.35546875 C143.79949603 272.08209956 134.50131106 280.07215311 122.125 284.35546875 C121.135 284.35546875 120.145 284.35546875 119.125 284.35546875 C119.47433594 285.09152344 119.82367188 285.82757813 120.18359375 286.5859375 C120.63863281 287.56175781 121.09367187 288.53757812 121.5625 289.54296875 C122.01496094 290.50589844 122.46742188 291.46882813 122.93359375 292.4609375 C127.2335955 302.90782701 126.53738043 317.32465255 122.4453125 327.68359375 C115.96419845 340.799221 106.01252118 349.64977975 92.125 354.35546875 C88.4401935 355.01864608 84.86687623 355.34047125 81.125 355.35546875 C81.17140625 356.09410156 81.2178125 356.83273437 81.265625 357.59375 C81.66749712 368.88922709 78.83323433 377.9723199 71.125 386.35546875 C64.57097042 392.99108376 58.35516107 396.89427508 49.125 398.35546875 C49.13499275 399.24297318 49.13499275 399.24297318 49.14518738 400.14840698 C49.21192309 406.34595263 49.25695823 412.543395 49.28979492 418.74121094 C49.30481541 421.0495214 49.32523779 423.35780363 49.35131836 425.66601562 C49.38799885 428.997467 49.40479431 432.3285387 49.41796875 435.66015625 C49.43345261 436.68035858 49.44893646 437.70056091 49.46488953 438.75167847 C49.46727351 449.06500167 47.384352 457.75354059 40.125 465.35546875 C32.24712713 472.43140247 24.78818683 474.08424303 14.26171875 473.81640625 C6.92711708 473.28291889 1.09488989 469.33539534 -4.875 465.35546875 C-5.46667969 465.76539063 -6.05835938 466.1753125 -6.66796875 466.59765625 C-7.45816406 467.13648438 -8.24835938 467.6753125 -9.0625 468.23046875 C-9.83980469 468.76414062 -10.61710937 469.2978125 -11.41796875 469.84765625 C-19.14338455 474.58853144 -28.90368596 474.76395667 -37.640625 472.703125 C-46.36774509 469.14819671 -52.04531463 463.1244525 -55.96484375 454.6875 C-57.46876493 450.83410538 -57.99919281 447.54227832 -57.98852539 443.40332031 C-57.98840454 442.40896973 -57.98828369 441.41461914 -57.98815918 440.39013672 C-57.98304321 439.35260254 -57.97792725 438.31506836 -57.97265625 437.24609375 C-57.97164917 436.28687012 -57.97064209 435.32764648 -57.96960449 434.33935547 C-57.96437849 430.76138104 -57.95041722 427.18342368 -57.9375 423.60546875 C-57.916875 415.60296875 -57.89625 407.60046875 -57.875 399.35546875 C-74.045 399.35546875 -90.215 399.35546875 -106.875 399.35546875 C-106.82859375 402.92101562 -106.7821875 406.4865625 -106.734375 410.16015625 C-106.7031212 413.63865742 -106.6788665 417.11714255 -106.65527344 420.59570312 C-106.63523966 423.00104856 -106.60800478 425.40634578 -106.57324219 427.81152344 C-106.52436192 431.28202253 -106.50194795 434.75187401 -106.484375 438.22265625 C-106.46372986 439.28660614 -106.44308472 440.35055603 -106.42181396 441.44674683 C-106.41929786 449.94389684 -108.34555712 456.48690906 -113 463.60546875 C-121.38427265 471.62520781 -129.57697636 473.82878443 -140.83984375 473.640625 C-148.12083853 473.30514967 -153.522273 470.19018991 -158.875 465.35546875 C-162.4067636 467.05039994 -165.60751559 469.08370655 -168.875 471.234375 C-175.1423879 474.7475397 -183.88859066 474.17975701 -190.875 473.35546875 C-197.0398084 471.48192673 -201.69755381 468.27011132 -205.875 463.35546875 C-206.926875 462.21078125 -206.926875 462.21078125 -208 461.04296875 C-213.11340891 453.71374932 -213.29026691 446.8570538 -213.16796875 438.19921875 C-213.16372391 437.05634399 -213.15947906 435.91346924 -213.15510559 434.73596191 C-213.13839974 431.10888466 -213.10076156 427.48237625 -213.0625 423.85546875 C-213.04744275 421.38672681 -213.03375617 418.91797611 -213.02148438 416.44921875 C-212.98852271 410.41777679 -212.93840403 404.38666343 -212.875 398.35546875 C-213.98109619 398.20996582 -215.08719238 398.06446289 -216.22680664 397.91455078 C-225.16487427 396.54480074 -233.23294554 390.17583495 -238.6015625 383.0703125 C-244.20743451 374.35773802 -246.38109332 365.64603289 -245.875 355.35546875 C-246.45765625 355.34128906 -247.0403125 355.32710938 -247.640625 355.3125 C-258.69628403 354.66932487 -269.07569874 350.30935076 -276.875 342.35546875 C-282.28768766 335.67377776 -287.00147101 328.8826521 -288.875 320.35546875 C-289.101875 319.40671875 -289.32875 318.45796875 -289.5625 317.48046875 C-290.71808099 305.92465883 -289.33831332 295.71586964 -283.875 285.35546875 C-285.46828125 284.61103516 -285.46828125 284.61103516 -287.09375 283.8515625 C-294.85329154 280.15208615 -301.90403483 276.6917165 -307.875 270.35546875 C-308.47441406 269.76378906 -309.07382812 269.17210937 -309.69140625 268.5625 C-321.17797958 256.53012837 -323.49641349 242.48936148 -323.18359375 226.5703125 C-322.69188829 215.22436197 -318.50501994 206.41892458 -311.875 197.35546875 C-311.40191406 196.69804687 -310.92882812 196.040625 -310.44140625 195.36328125 C-304.58719333 187.90040359 -295.85442705 182.31188543 -286.875 179.35546875 C-285.885 179.35546875 -284.895 179.35546875 -283.875 179.35546875 C-284.22433594 178.48664063 -284.57367188 177.6178125 -284.93359375 176.72265625 C-285.38863281 175.57023438 -285.84367187 174.4178125 -286.3125 173.23046875 C-286.76496094 172.09351563 -287.21742188 170.9565625 -287.68359375 169.78515625 C-291.68814351 158.25730481 -290.9164106 144.9799223 -285.73828125 133.9296875 C-283.47345115 130.02160528 -281.29979614 126.86637475 -276.875 125.35546875 C-273.34335704 126.11719566 -271.43628588 126.79418287 -268.875 129.35546875 C-268.36709426 134.18057326 -268.56904286 137.09517205 -270.875 141.35546875 C-274.47483387 148.85296446 -274.27276945 157.98929137 -271.76953125 165.80859375 C-269.07940718 171.54944833 -265.88273435 175.5911653 -261.2421875 179.83984375 C-259.875 181.35546875 -259.875 181.35546875 -259.125 184.48046875 C-260.20750337 188.63006502 -261.28270172 189.93757568 -264.875 192.35546875 C-267.45703125 192.7109375 -267.45703125 192.7109375 -270.4375 192.85546875 C-281.03819719 193.37574837 -289.10405367 197.56248693 -296.6796875 204.89453125 C-304.92827116 214.14116418 -307.34940535 223.01972248 -307.125 235.1796875 C-306.77355007 239.64419991 -305.72766896 243.29759867 -303.875 247.35546875 C-303.54628906 248.10441406 -303.21757812 248.85335937 -302.87890625 249.625 C-298.47030958 258.57948529 -291.0394614 264.638552 -281.875 268.35546875 C-280.946875 268.74734375 -280.01875 269.13921875 -279.0625 269.54296875 C-276.04516392 270.31209363 -273.40926355 270.54416613 -270.3125 270.73046875 C-266.77708057 271.01946761 -264.90122787 271.34209768 -261.6875 272.98046875 C-259.875 275.35546875 -259.875 275.35546875 -259.125 278.66796875 C-260.0461401 283.19690757 -261.65036655 284.46441807 -264.98828125 287.45703125 C-270.63751785 293.14135627 -273.02239334 300.13105926 -273.125 307.98046875 C-272.98250807 318.6564023 -270.71204944 324.39792015 -263.2890625 332.18359375 C-255.96976513 338.76859268 -248.16089167 339.54568164 -238.71875 339.78515625 C-234.45814055 339.97592981 -231.93717442 340.33688996 -228.875 343.35546875 C-228.46850586 345.49682617 -228.46850586 345.49682617 -228.58984375 347.9609375 C-228.61626953 348.86263672 -228.64269531 349.76433594 -228.66992188 350.69335938 C-228.71697266 351.63373047 -228.76402344 352.57410156 -228.8125 353.54296875 C-229.27283012 363.36105442 -228.42052017 369.7563205 -221.875 377.35546875 C-211.51834383 385.89445142 -197.93151351 384.17884384 -185.33911133 384.08422852 C-182.84950818 384.08745075 -180.35990724 384.09327239 -177.87031555 384.10148621 C-171.83276942 384.11447703 -165.79587758 384.09978629 -159.75843004 384.0719353 C-152.71823064 384.04063674 -145.67813593 384.0409977 -138.63788005 384.04245304 C-126.07301693 384.04395167 -113.50838371 384.01655581 -100.94360352 383.97290039 C-88.76745417 383.93061753 -76.59150698 383.90938952 -64.4152832 383.91137695 C-63.66482764 383.91149682 -62.91437207 383.91161669 -62.14117543 383.91174019 C-61.39198107 383.91186125 -60.64278671 383.91198232 -59.87088948 383.91210705 C-45.98152188 383.91417929 -32.09223966 383.89649453 -18.20289979 383.8696474 C-13.30178099 383.86062019 -8.40067796 383.85741135 -3.49955177 383.85605049 C3.10057495 383.85378421 9.70051751 383.83468554 16.30058479 383.80455208 C18.72047505 383.79580351 21.14038966 383.79209562 23.5602951 383.79383469 C26.86729906 383.79531173 30.17371479 383.77829277 33.4806366 383.75660706 C34.43453645 383.76125286 35.38843631 383.76589867 36.37124223 383.77068526 C45.41647769 383.67295547 52.76234873 381.69099232 59.39453125 375.36328125 C64.57521236 369.35228782 65.57110082 363.41745209 65.36328125 355.640625 C65.25759807 353.32729835 65.25759807 353.32729835 64.125 351.35546875 C63.5506483 345.15247037 63.5506483 345.15247037 65.70703125 342.16015625 C68.94852726 339.74081674 71.1095567 339.88893078 75.125 339.85546875 C84.48525392 339.53014285 93.69247698 337.8284299 100.6640625 331.12890625 C107.25868625 323.12366779 110.03944831 314.61135825 109.125 304.35546875 C107.8888136 298.57156012 105.56581643 294.17261176 102.125 289.35546875 C101.795 288.36546875 101.465 287.37546875 101.125 286.35546875 C99.80032254 285.67176425 98.46636367 285.00582689 97.125 284.35546875 C95.125 281.35546875 95.125 281.35546875 95.25 277.85546875 C96.125 274.35546875 96.125 274.35546875 97.7421875 272.6875 C100.89488888 270.92508825 103.53203926 270.82366881 107.125 270.54296875 C117.76652595 269.43737254 127.26336916 264.90873745 134.44921875 256.875 C142.45260655 246.75660281 143.49510737 234.77937452 142.125 222.35546875 C139.99377261 212.46859141 133.29779058 204.27510405 125.109375 198.578125 C120.0043553 195.33292475 120.0043553 195.33292475 114.17578125 194.53515625 C111.43041292 195.63330358 110.05807881 197.24334736 108.0625 199.41796875 C103.24432615 204.41222204 98.00918985 208.66401973 92.125 212.35546875 C91.465 212.35546875 90.805 212.35546875 90.125 212.35546875 C90.17720703 213.44601563 90.17720703 213.44601563 90.23046875 214.55859375 C90.51936426 225.28899836 88.63218549 235.96872748 83.125 245.35546875 C79.99639505 246.91977123 77.56897075 246.71174159 74.125 246.35546875 C71.625 244.29296875 71.625 244.29296875 70.125 241.35546875 C70.17969325 238.73019289 70.48375739 236.86662862 71.125 234.35546875 C73.25498812 225.97518761 74.48417336 218.28482542 74.62109375 209.66796875 C75.22580601 205.69280598 76.29014508 204.16609414 79.125 201.35546875 C81.5703125 199.65234375 81.5703125 199.65234375 84.25 198.10546875 C98.28712179 189.40693317 108.51436672 176.98509003 114.125 161.35546875 C114.49371088 159.69626979 114.83781674 158.03070445 115.125 156.35546875 C114.114375 155.57171875 113.10375 154.78796875 112.0625 153.98046875 C104.30114215 147.26963812 99.03067114 138.15708753 96.125 128.35546875 C95.99609375 124.99609375 95.99609375 124.99609375 96.125 122.35546875 C94.825625 122.25234375 93.52625 122.14921875 92.1875 122.04296875 C84.5593557 121.17940524 78.28257037 118.93417493 72.125 114.35546875 C71.7125 114.92394531 71.3 115.49242187 70.875 116.078125 C64.10403814 125.13126374 57.5293802 131.94629343 46.125 134.35546875 C35.80270591 135.41612821 26.84563416 134.84291231 18.515625 128.30859375 C16.31672409 126.38284823 14.19640553 124.41686749 12.125 122.35546875 C9.4293496 123.60845763 7.71369128 124.71895088 5.4375 126.73046875 C-3.27611523 134.24373903 -13.86388793 135.11331857 -24.875 134.35546875 C-34.28037297 132.45383596 -42.08882043 125.67272257 -47.5 117.91796875 C-48.875 115.35546875 -48.875 115.35546875 -48.875 113.35546875 C-49.56464844 113.83757812 -50.25429688 114.3196875 -50.96484375 114.81640625 C-58.37247798 119.79547452 -64.7969813 122.94114738 -73.875 122.35546875 C-73.9575 123.46921875 -74.04 124.58296875 -74.125 125.73046875 C-75.65037034 137.0419813 -82.31641591 148.02661918 -91.1875 155.234375 C-91.744375 155.60433594 -92.30125 155.97429687 -92.875 156.35546875 C-88.35395722 174.63793122 -76.91082235 189.23195449 -61 199.10546875 C-60.09507812 199.6365625 -59.19015625 200.16765625 -58.2578125 200.71484375 C-55.65961425 202.50376714 -54.31434198 203.54242253 -52.875 206.35546875 C-52.65164963 209.31413605 -52.56161769 212.14826971 -52.5625 215.10546875 C-52.10298735 232.40935483 -44.40512373 248.38273486 -31.875 260.35546875 C-21.15168759 269.09233149 -10.10250394 273.10871778 3.125 276.35546875 C2.795 269.42546875 2.465 262.49546875 2.125 255.35546875 C0.64 254.71609375 -0.845 254.07671875 -2.375 253.41796875 C-9.98097586 249.62037513 -15.79141285 243.33651785 -18.875 235.35546875 C-19.5625 232.98046875 -19.5625 232.98046875 -19.875 230.35546875 C-19.95105469 229.72382813 -20.02710938 229.0921875 -20.10546875 228.44140625 C-20.38541178 224.40114737 -20.14608486 222.75798869 -17.8125 219.29296875 C-14.875 217.35546875 -14.875 217.35546875 -11.25 217.29296875 C-7.875 218.35546875 -7.875 218.35546875 -6.0625 219.85546875 C-4.61494963 222.90294322 -4.06139129 225.88337927 -3.38671875 229.17578125 C-2.28283129 233.87783624 -0.54173713 235.88105964 3.375 238.66796875 C7.75686435 240.91861186 11.43506359 241.16447218 16.203125 239.73046875 C21.08015406 237.70740485 23.32531774 235.33788184 25.3984375 230.515625 C26.11988406 228.37067904 26.64468486 226.25323249 27.125 224.04296875 C28.125 220.35546875 28.125 220.35546875 29.9375 218.35546875 C32.7015142 217.0919194 34.11980597 216.76908943 37.125 217.35546875 C39.9375 219.35546875 39.9375 219.35546875 42.125 222.35546875 C43.3019001 229.93993606 40.78299799 237.2927257 36.6171875 243.66015625 C31.92307866 249.44591831 26.16031388 253.01036412 19.125 255.35546875 C18.795 262.28546875 18.465 269.21546875 18.125 276.35546875 C33.15895548 273.16241626 45.52925672 268.42881669 56.87890625 257.7265625 C59.125 256.35546875 59.125 256.35546875 62.28515625 256.57421875 C66.62222765 257.76736081 66.62222765 257.76736081 68.125 260.35546875 C68.89656875 263.7978524 69.15913771 265.11177998 68.125 268.35546875 C59.19852319 279.8181034 43.63088148 286.30698243 30.125 290.35546875 C28.90296875 290.72478516 28.90296875 290.72478516 27.65625 291.1015625 C7.42355643 296.12509087 -13.38452326 290.78442371 -30.875 280.35546875 C-49.31425324 268.68418112 -61.24603822 251.94426763 -66.6875 230.85546875 C-68.02354879 224.64809598 -68.18270156 218.68044526 -67.875 212.35546875 C-68.59042969 212.11054688 -69.30585938 211.865625 -70.04296875 211.61328125 C-75.36417264 209.24993276 -79.51428898 205.14953371 -83.875 201.35546875 C-84.58140625 200.74703125 -85.2878125 200.13859375 -86.015625 199.51171875 C-95.50117516 190.72023324 -102.90743476 178.61315714 -106.875 166.35546875 C-106.875 165.69546875 -106.875 165.03546875 -106.875 164.35546875 C-107.47795898 164.56623047 -108.08091797 164.77699219 -108.70214844 164.99414062 C-114.94867942 167.04178865 -120.56319437 167.90448317 -127.125 167.85546875 C-128.49470947 167.84580078 -128.49470947 167.84580078 -129.89208984 167.8359375 C-143.82985192 167.46275803 -155.41996766 162.03794275 -165.1796875 151.98046875 C-167.28201553 148.72525116 -167.32126716 147.17763678 -166.875 143.35546875 C-165.13085937 140.93017578 -165.13085937 140.93017578 -162.71875 138.61328125 C-161.86152344 137.77539062 -161.00429687 136.9375 -160.12109375 136.07421875 C-159.21488281 135.21828125 -158.30867187 134.36234375 -157.375 133.48046875 C-156.01568359 132.16175781 -156.01568359 132.16175781 -154.62890625 130.81640625 C-152.39047913 128.6486663 -150.13927911 126.496138 -147.875 124.35546875 C-149.85364044 124.36879242 -149.85364044 124.36879242 -151.87225342 124.38238525 C-164.2913863 124.463402 -176.71046571 124.52340107 -189.1298027 124.56271744 C-195.51503241 124.58360977 -201.90004913 124.61195802 -208.28515625 124.65722656 C-214.44485829 124.70062474 -220.6043552 124.72459345 -226.7641983 124.73497772 C-229.11660238 124.74237987 -231.46899498 124.75683416 -233.82131195 124.77838898 C-237.11126644 124.80734202 -240.4003687 124.81142804 -243.69042969 124.80957031 C-244.66722687 124.82395142 -245.64402405 124.83833252 -246.65042114 124.85314941 C-253.22339444 124.81287466 -253.22339444 124.81287466 -256.45294189 122.5458374 C-258.46440055 119.44762646 -258.8094319 117.02728247 -258.875 113.35546875 C-257.35340139 110.53338651 -256.43477998 109.53908078 -253.36234951 108.53130054 C-246.30107296 107.5302982 -239.47348158 107.11183808 -232.34594727 107.24291992 C-230.10405086 107.26535119 -227.86215321 107.28765908 -225.62025452 107.30986023 C-223.86607051 107.33277917 -223.86607051 107.33277917 -222.07644844 107.35616112 C-215.81353854 107.42900021 -209.55036968 107.43836674 -203.28710938 107.45898438 C-195.34911127 107.4885749 -187.4125842 107.53681879 -179.4753418 107.65356445 C-173.02886522 107.74671639 -166.58481124 107.77586966 -160.13770866 107.76317787 C-157.69490977 107.76995822 -155.25205394 107.79983024 -152.80984688 107.85402489 C-137.48710257 108.56213271 -137.48710257 108.56213271 -124.49581051 101.60560322 C-122.04707196 98.9858279 -119.92443299 96.29948569 -117.875 93.35546875 C-118.50446533 92.90034912 -119.13393066 92.44522949 -119.7824707 91.97631836 C-126.68301799 86.93252959 -133.19538683 81.08945721 -134.875 72.35546875 C-135.82757438 62.11529414 -134.1409429 54.06202722 -127.625 45.98046875 C-121.91555311 39.95450668 -116.01542571 37.93692773 -107.875 37.35546875 C-107.70484375 36.77539062 -107.5346875 36.1953125 -107.359375 35.59765625 C-104.52917979 26.47479298 -99.67705011 18.59362871 -91.15234375 13.8359375 C-80.96108958 9.07636119 -71.45767171 7.64991056 -60.5625 11.10546875 C-56.17562271 12.70277127 -52.55426793 14.49381592 -48.875 17.35546875 C-48.689375 16.69546875 -48.50375 16.03546875 -48.3125 15.35546875 C-44.36101396 7.10888918 -37.50623809 1.66989946 -29.17578125 -1.75390625 C-20.14696704 -4.19008334 -8.48290466 -4.07945242 0 0 Z " fill="#020202" transform="translate(322.875,20.64453125)"/>
<path d="M0 0 C0.495 1.98 0.495 1.98 1 4 C6.80164707 4.83587832 12.40506685 5.13913647 18.26171875 5.11352539 C19.15046188 5.11367142 20.03920502 5.11381744 20.95487976 5.1139679 C23.8657788 5.11327631 26.77661227 5.10551951 29.6875 5.09765625 C31.71630824 5.09578939 33.74511693 5.09436675 35.77392578 5.09336853 C41.09378318 5.08956447 46.41361294 5.07975235 51.73345947 5.06866455 C57.16995876 5.0584049 62.60646255 5.05386118 68.04296875 5.04882812 C78.69532459 5.03812807 89.34765999 5.02107718 100 5 C99.5851384 5.48115768 99.17027679 5.96231537 98.74284363 6.45805359 C98.20017349 7.08895401 97.65750336 7.71985443 97.09838867 8.36987305 C96.55977707 8.99540573 96.02116547 9.62093842 95.4662323 10.26542664 C88.38603555 18.64139864 85.32847736 27.95892985 85.65234375 38.9140625 C86.67936065 48.03027991 90.11799271 55.09844477 96 62 C97.00746428 63.32770234 98.00943088 64.65964535 99 66 C98.05640625 66.14695312 97.1128125 66.29390625 96.140625 66.4453125 C81.61088048 68.98364136 69.24545486 74.25769706 60.15234375 86.484375 C54.74211365 95.04503393 52.42778594 103.21364197 52.5 113.3125 C52.50499512 114.23385742 52.50999023 115.15521484 52.51513672 116.10449219 C52.70624156 123.59316609 54.15662741 129.49973132 58 136 C58.45761719 136.81597656 58.91523437 137.63195312 59.38671875 138.47265625 C65.78790967 148.97762437 76.04971831 156.0734004 88 159 C91.66085608 159.43787708 95.32177102 159.75129413 99 160 C99 160.66 99 161.32 99 162 C98.29875 162.66 97.5975 163.32 96.875 164 C89.64849584 170.95885585 86.00261403 179.91791947 85.6875 189.8125 C85.91092243 200.36592436 89.51080243 209.85156056 96.59375 217.78515625 C104.12896763 224.73390647 113.11966439 228.02613496 123.1875 228.5625 C124.31188477 228.62727539 124.31188477 228.62727539 125.45898438 228.69335938 C127.30578375 228.79922685 129.15286834 228.9000976 131 229 C130.84144531 229.69738281 130.68289062 230.39476562 130.51953125 231.11328125 C128.90328132 240.09379775 129.19491816 249.06005193 134 257 C134.29977564 257.57282495 134.59955128 258.14564989 134.90841103 258.73583317 C136.41566568 261.0506353 137.70815094 262.43015871 140 264 C145.16403544 265.07408517 150.30523632 264.94422582 155.55224609 264.88647461 C157.14918751 264.89436704 158.74611626 264.90533053 160.34301758 264.91912842 C164.66933175 264.94782943 168.99456271 264.93363387 173.3208766 264.91168666 C177.84531904 264.8960454 182.36954952 264.91992153 186.89395142 264.93959045 C195.45745773 264.97082214 204.02056317 264.96655842 212.58409464 264.94951588 C222.33503723 264.93184043 232.08576515 264.95377495 241.83667636 264.97902286 C261.89119152 265.03006308 281.94545561 265.03140588 302 265 C302 265.33 302 265.66 302 266 C269.84620927 266.13700823 237.69250192 266.24312626 205.5384873 266.30639198 C201.73854835 266.31389581 197.93860997 266.32166179 194.13867188 266.32958984 C193.38220345 266.33116371 192.62573502 266.33273757 191.84634331 266.33435912 C179.61322531 266.36043509 167.38027725 266.40772479 155.14725992 266.46291678 C142.58599474 266.51911517 130.02481829 266.5523715 117.46343255 266.56453097 C109.71833077 266.57274533 101.97370944 266.59864633 94.22875562 266.6474988 C88.28021189 266.68309857 82.33191194 266.68670865 76.38325882 266.67864609 C73.95008265 266.68029222 71.51688773 266.69216673 69.08382034 266.71523285 C44.71981327 266.93481548 44.71981327 266.93481548 36 260 C30.54348595 254.38560243 27.85840771 248.81965175 27.91015625 240.890625 C27.97208797 238.04176566 28.06444863 235.19536487 28.16601562 232.34765625 C28.18470703 231.43371094 28.20339844 230.51976562 28.22265625 229.578125 C28.25109619 228.74700195 28.27953613 227.91587891 28.30883789 227.05957031 C28.20692139 226.37991211 28.10500488 225.70025391 28 225 C24.37873216 222.58582144 21.62175665 222.72053538 17.4375 222.625 C6.45371765 222.12461674 -1.32888983 219.115317 -9 211 C-15.45739025 203.58961068 -16.49537283 196.11829999 -16.30078125 186.4296875 C-15.62200306 178.68985304 -12.5281189 174.41079085 -7.25 168.875 C-3.47879224 165.05731314 -3.47879224 165.05731314 -2.1875 160.0625 C-3.14585376 156.45024352 -3.85128753 155.8566546 -7 154 C-9.44090293 153.5717864 -9.44090293 153.5717864 -12.0625 153.5625 C-24.10847359 152.71238469 -33.12860912 147.4495095 -41.25 138.6875 C-49.07248956 129.03467863 -50.76451271 119.13309988 -50 107 C-48.28496797 96.75341035 -42.23447287 87.31912845 -34 81 C-25.80787829 76.28687024 -19.31124213 73.91205207 -9.91015625 73.57421875 C-6.38275804 72.87820863 -5.18735951 71.80351712 -3 69 C-2.08171206 66.13128132 -2.08171206 66.13128132 -3 63 C-4.37708729 61.41395312 -4.37708729 61.41395312 -6.125 59.875 C-12.55153412 53.86730314 -16.19488161 46.71696664 -16.60961914 37.90405273 C-16.65565163 31.64436499 -15.91202882 26.52109532 -12.890625 20.95703125 C-11.36338711 17.60112694 -11.75329087 14.63895964 -12 11 C-12 9.68 -12 8.36 -12 7 C-8.86236052 4.0416542 -4.49456205 0 0 0 Z " fill="#DBD8EA" transform="translate(65,139)"/>
<path d="M0 0 C1.2265625 1.72265625 1.2265625 1.72265625 2.625 4.0625 C7.85829112 12.10204868 14.49150641 17.83723363 24 20 C35.97959588 21.25352837 45.37772629 19.33125616 55 12 C56.36886951 10.70317626 57.7169291 9.38176866 59 8 C61.85552763 9.2979671 63.88108294 10.69873873 66.125 12.875 C73.69293995 19.38917616 81.47948761 20.69780122 91.3203125 20.37109375 C101.87572709 19.30658803 108.92808395 14.81978101 116 7 C117.62711127 4.6959768 118.79971937 2.56423588 120 0 C120.63164062 0.39832031 121.26328125 0.79664063 121.9140625 1.20703125 C129.3776443 5.62710635 136.47604343 7.58141453 145 9 C145.2475 10.11375 145.495 11.2275 145.75 12.375 C148.87654707 24.55996768 154.62633987 35.4790964 165 43 C160.37727846 61.69363712 148.27731478 76.68616847 132.0625 86.8125 C131.14597656 87.35519531 130.22945312 87.89789063 129.28515625 88.45703125 C126.75688557 89.95390603 126.75688557 89.95390603 125 93 C124.592359 95.15297673 124.592359 95.15297673 124.47265625 97.53515625 C124.36727539 98.87416992 124.36727539 98.87416992 124.25976562 100.24023438 C124.13017606 102.09426334 124.002512 103.94842808 123.87695312 105.80273438 C123.42798993 111.46128852 122.44730441 116.48030768 120.60058594 121.85522461 C119.76438294 124.84142108 120.04961092 127.0757259 121 130 C121.66 130.66 122.32 131.32 123 132 C122.6843006 135.99662011 121.2103492 138.57248093 118.9375 141.8125 C118.38964844 142.60269531 117.84179688 143.39289063 117.27734375 144.20703125 C116.85582031 144.79871094 116.43429687 145.39039063 116 146 C115.46375 145.649375 114.9275 145.29875 114.375 144.9375 C111.12731097 143.65551749 109.33754823 144.03610248 106 145 C103.35246617 146.83669884 103.35246617 146.83669884 100.875 149.1875 C91.30642816 157.34282749 79.74223911 163 67 163 C67 156.07 67 149.14 67 142 C68.505625 141.29875 70.01125 140.5975 71.5625 139.875 C79.70495755 135.76346203 84.57857046 131.52778418 88 123 C88.61875 121.515 88.61875 121.515 89.25 120 C90.24162266 116.03350937 90.39648008 113.09696083 90 109 C88.62283334 106.28892287 88.62283334 106.28892287 86 105 C82.37350049 104.91083846 82.37350049 104.91083846 79 106 C77.09437226 108.85844161 76.67339148 110.07251362 76.125 113.3125 C75.05162577 118.32157973 73.57393956 122.19992462 69.20703125 125.25390625 C64.77309542 127.7152981 61.10628682 128.89583979 56 128 C51.14329208 125.69774147 47.7585172 123.32128802 45.0625 118.625 C44.2858053 115.97510043 43.61675679 113.37306301 43 110.6875 C42.37255215 106.77324557 42.37255215 106.77324557 39 105 C35.42823885 105.08167489 35.42823885 105.08167489 32 106 C29.48841285 109.76738072 29.52216493 112.64639162 30 117 C31.82336516 125.79505548 36.20884798 132.33738358 43.625 137.375 C46.37194022 139.10027122 49.08653565 140.54326782 52 142 C52 148.93 52 155.86 52 163 C39.38945752 161.59882861 29.88270721 157.91936471 20 150 C18.82630859 149.071875 18.82630859 149.071875 17.62890625 148.125 C8.76352663 140.70977523 3.16517235 131.71248093 -1 121 C-1.26184082 120.33983887 -1.52368164 119.67967773 -1.79345703 118.99951172 C-4.19101506 112.50890857 -4.41597217 106.61353567 -4.3515625 99.75390625 C-4.4340877 95.4832274 -4.54092119 93.58762088 -7.24609375 90.125 C-9.68604743 88.2422556 -12.10944017 86.43745734 -14.6875 84.75 C-28.35402849 75.3010352 -40.90035426 61.94840584 -44.625 45.1875 C-44.74875 44.465625 -44.8725 43.74375 -45 43 C-44.10410156 42.29488281 -43.20820313 41.58976562 -42.28515625 40.86328125 C-32.23560913 32.45375414 -28.13936395 21.28926892 -25 9 C-23.64068359 8.77957031 -23.64068359 8.77957031 -22.25390625 8.5546875 C-15.02025376 7.22277688 -9.53003047 5.7327867 -3.671875 1.20703125 C-2 0 -2 0 0 0 Z " fill="#EFD39C" transform="translate(274,134)"/>
<path d="M0 0 C4.94180331 3.51752812 8.17991493 8.3705861 9.421875 14.2890625 C9.58429688 15.35640625 9.74671875 16.42375 9.9140625 17.5234375 C10.08164062 18.60109375 10.24921875 19.67875 10.421875 20.7890625 C10.54304688 21.60890625 10.66421875 22.42875 10.7890625 23.2734375 C13.81319673 23.92608185 16.68948665 24.36979737 19.7890625 24.2734375 C24.14574226 21.03385512 24.3767305 16.74897608 25.23828125 11.70703125 C26.5252011 6.02085348 30.15581984 2.51670736 34.7890625 -0.7265625 C39.57571779 -3.56991757 44.37289173 -3.32669222 49.7890625 -2.7265625 C56.45018079 -0.75289782 60.40953322 3.24581943 63.90258789 9.15820312 C64.9302527 11.61033419 65.05841299 13.46403565 65.09765625 16.1171875 C65.12279297 17.03371094 65.14792969 17.95023438 65.17382812 18.89453125 C65.20898314 20.81373453 65.24023353 22.7330133 65.26757812 24.65234375 C65.3072168 26.02712891 65.3072168 26.02712891 65.34765625 27.4296875 C65.36783813 28.67975586 65.36783813 28.67975586 65.38842773 29.95507812 C65.87662183 32.78011843 66.85686266 34.18337434 68.7890625 36.2734375 C71.62475108 36.93603404 73.83145476 36.55511443 76.7890625 36.2734375 C79.28019222 33.78230778 79.20310609 32.46649969 79.6640625 29.0234375 C81.07930349 20.73725553 85.25653392 16.21305887 91.7890625 11.2734375 C96.45899756 8.93846997 103.22181729 9.56787011 108.1484375 10.921875 C113.11756741 13.17531763 117.16068426 16.45612596 119.7890625 21.2734375 C120.71713721 24.633149 121.40094949 27.94171873 121.953125 31.3828125 C122.56639568 34.31066602 122.56639568 34.31066602 124.5078125 36.13671875 C127.34760712 37.5517534 129.50037066 37.64251159 132.6640625 37.7109375 C138.0306985 38.03162672 140.78829126 38.69380008 144.7890625 42.2734375 C147.76767942 46.74136288 147.52215772 51.03704306 146.7890625 56.2734375 C145.16408868 59.68453957 142.91272828 61.72021874 139.49609375 63.40234375 C135.53248444 64.6777909 131.66835362 64.62088837 127.53125 64.734375 C124.71545165 65.0316099 124.71545165 65.0316099 122.98046875 67.0078125 C121.68885621 69.46399373 121.23153119 71.40753976 120.8515625 74.1484375 C119.49461502 81.66129308 115.74923414 85.83501181 109.7890625 90.2734375 C103.8535366 92.25194613 96.94460739 92.50387299 91.07421875 90.21484375 C83.4638644 85.54226346 81.36199684 79.6536106 79.1640625 71.3359375 C78.83535156 69.93021484 78.83535156 69.93021484 78.5 68.49609375 C78.26539063 67.76261719 78.03078125 67.02914062 77.7890625 66.2734375 C74.705799 64.73180575 72.18028151 64.97596215 68.7890625 65.2734375 C66.62861792 67.07048933 65.87879914 68.56529292 65.52612305 71.34838867 C65.37184038 74.78544436 65.35216138 78.21614725 65.34960938 81.65625 C65.20563806 88.26900136 64.02211997 93.86419013 59.34204102 98.79931641 C53.62030679 103.7699662 49.28898178 104.7834971 41.8359375 104.65625 C35.94527052 103.91614056 32.35240818 100.96020521 28.4140625 96.7109375 C25.29699427 92.03533516 24.32822376 88.1409081 23.546875 82.61328125 C22.59161095 79.66378039 21.4291625 78.82091185 18.7890625 77.2734375 C16.2890625 76.60677083 16.2890625 76.60677083 13.7890625 77.2734375 C9.61774196 80.84885511 9.21720124 84.70539514 8.33984375 89.83984375 C7.0529239 95.52602152 3.42230516 99.03016764 -1.2109375 102.2734375 C-6.20441505 105.28037942 -11.56497419 104.98280212 -17.2109375 104.2734375 C-23.16276309 101.95030558 -27.30337061 97.87353647 -30.28515625 92.24609375 C-31.87845764 87.13005006 -31.60917028 81.8156629 -31.68945312 76.49023438 C-31.8184068 71.39938355 -31.8184068 71.39938355 -33.52734375 66.67578125 C-35.29860683 64.9368668 -35.29860683 64.9368668 -38.7109375 64.8984375 C-42.32030233 65.01202887 -42.32030233 65.01202887 -45.2109375 67.2734375 C-45.8658537 69.42336035 -45.8658537 69.42336035 -46.1484375 71.8984375 C-47.3568372 78.65183257 -49.10043165 84.02200913 -54.7734375 88.2109375 C-60.78093922 92.15795979 -67.23711595 91.87611344 -74.2109375 91.2734375 C-77.6484375 89.7109375 -77.6484375 89.7109375 -80.2109375 87.2734375 C-80.73171875 86.82226562 -81.2525 86.37109375 -81.7890625 85.90625 C-86.46975585 81.33916571 -87.43715636 76.37866707 -88.5703125 70.06640625 C-88.97862497 67.15166679 -88.97862497 67.15166679 -91.2109375 65.2734375 C-93.28833031 65.0725846 -95.37477621 64.96035553 -97.4609375 64.8984375 C-104.16577317 64.47661009 -107.3004337 63.4995381 -111.83203125 58.4765625 C-114.36298565 54.43277133 -113.83873285 49.87272085 -113.2109375 45.2734375 C-111.16520364 41.81685271 -109.54313365 40.4949016 -106.2109375 38.2734375 C-104.09024189 38.10277466 -101.96298652 38.0071777 -99.8359375 37.9609375 C-95.73827846 37.67378231 -93.59867662 37.50151934 -90.0234375 35.3984375 C-88.20670444 32.26613912 -87.82834207 30.47602358 -87.3359375 26.9609375 C-86.27328587 19.53240114 -82.38786769 15.69395574 -76.5859375 11.2734375 C-70.05330425 9.33784246 -63.03412746 8.99016934 -56.7734375 11.8359375 C-47.31118051 20.83662098 -47.31118051 20.83662098 -46.8359375 27.6484375 C-46.53567448 30.35080465 -46.19665919 32.30787341 -45.1484375 34.8359375 C-42.49513175 36.80451919 -40.38606824 36.75563249 -37.1484375 36.8046875 C-34.3770707 36.0447966 -33.70277989 34.68265629 -32.2109375 32.2734375 C-31.79213888 29.99579775 -31.79213888 29.99579775 -31.875 27.5703125 C-31.86210937 26.67183594 -31.84921875 25.77335937 -31.8359375 24.84765625 C-31.8359375 22.98045241 -31.84361857 21.11323111 -31.859375 19.24609375 C-31.74762686 12.71813986 -30.5046043 8.29071453 -26.2109375 3.2734375 C-18.51262526 -3.47660581 -9.18017359 -5.15698995 0 0 Z " fill="#F7F4F8" transform="translate(317.2109375,35.7265625)"/>
<path d="M0 0 C0.66 0.33 1.32 0.66 2 1 C1.690625 1.680625 1.38125 2.36125 1.0625 3.0625 C-5.27137841 20.57381089 -0.25991056 41.63987596 7 58 C13.55078297 71.6911364 24.72621831 84.34858226 38 91.8125 C40.27734375 93.24609375 40.27734375 93.24609375 42 95 C42.75339474 98.45522417 42.5562744 101.52500187 42 105 C41.0925 104.9175 40.185 104.835 39.25 104.75 C35.99253417 104.74580637 35.99253417 104.74580637 33.625 106.5 C30.9129194 110.6724317 31.49108918 114.59003389 32.47265625 119.23828125 C35.32098554 129.11362653 41.22281267 134.98902396 50 140 C51.98 140.99 51.98 140.99 54 142 C54 148.93 54 155.86 54 163 C41.38945752 161.59882861 31.88270721 157.91936471 22 150 C20.82630859 149.071875 20.82630859 149.071875 19.62890625 148.125 C10.76352663 140.70977523 5.16517235 131.71248093 1 121 C0.73815918 120.33983887 0.47631836 119.67967773 0.20654297 118.99951172 C-2.19101506 112.50890857 -2.41597217 106.61353567 -2.3515625 99.75390625 C-2.4340877 95.4832274 -2.54092119 93.58762088 -5.24609375 90.125 C-7.68604743 88.2422556 -10.10944017 86.43745734 -12.6875 84.75 C-26.35402849 75.3010352 -38.90035426 61.94840584 -42.625 45.1875 C-42.74875 44.465625 -42.8725 43.74375 -43 43 C-42.10410156 42.29488281 -41.20820313 41.58976562 -40.28515625 40.86328125 C-30.23560913 32.45375414 -26.13936395 21.28926892 -23 9 C-21.64068359 8.77957031 -21.64068359 8.77957031 -20.25390625 8.5546875 C-12.24859674 7.080694 -6.33286524 5.17686603 0 0 Z " fill="#EFB785" transform="translate(272,134)"/>
<path d="M0 0 C2.31216523 2.09843567 3.50904841 3.87572783 4.6875 6.75 C7.63855643 12.86612076 12.48435899 16.47088487 18.1875 19.9375 C28.1182538 22.70508712 35.71840141 21.40677643 44.63671875 16.41015625 C45.41660156 15.94480469 46.19648438 15.47945312 47 15 C47.66 14.67 48.32 14.34 49 14 C49.10901505 16.83439137 49.18777904 19.66450203 49.25 22.5 C49.28351563 23.29148437 49.31703125 24.08296875 49.3515625 24.8984375 C49.457226 31.34391086 48.08559356 36.7427534 43.55175781 41.52880859 C37.82707439 46.49512458 33.50052575 47.51006995 26.046875 47.3828125 C20.15620802 46.64270306 16.56334568 43.68676771 12.625 39.4375 C9.50793177 34.76189766 8.53916126 30.8674706 7.7578125 25.33984375 C6.80254845 22.39034289 5.6401 21.54747435 3 20 C0.5 19.33333333 0.5 19.33333333 -2 20 C-6.17132054 23.57541761 -6.57186126 27.43195764 -7.44921875 32.56640625 C-8.7361386 38.25258402 -12.36675734 41.75673014 -17 45 C-21.99347755 48.00694192 -27.35403669 47.70936462 -33 47 C-38.97095648 44.66940086 -43.1141777 40.5763273 -46.09375 34.92578125 C-47.36664457 30.81630698 -47.21268352 26.96038518 -47.125 22.6875 C-47.11597656 21.85154297 -47.10695313 21.01558594 -47.09765625 20.15429688 C-47.07420989 18.10274031 -47.03834266 16.05133223 -47 14 C-46.44812012 14.36343506 -45.89624023 14.72687012 -45.32763672 15.10131836 C-37.31566541 20.32743167 -30.60508117 21.99021455 -21 21 C-14.1080133 19.12810238 -7.54304603 15.07351143 -3.71484375 8.94140625 C-2.21330309 6.00828919 -1.04254251 3.12762753 0 0 Z " fill="#DBD8EA" transform="translate(333,93)"/>
<path d="M0 0 C10.23 0 20.46 0 31 0 C31.09207772 6.54774915 31.17164401 13.09323137 31.21972656 19.64111328 C31.23978046 21.86612582 31.26703065 24.09108607 31.30175781 26.31591797 C31.35054934 29.52324365 31.37303162 32.72986951 31.390625 35.9375 C31.41127014 36.92427734 31.43191528 37.91105469 31.45318604 38.92773438 C31.45517977 45.13330697 30.58773066 49.83836454 27 55 C22.63903275 59.14823714 19.11360634 60.37013092 13.05859375 60.28125 C8.47449385 59.65495931 5.66668944 56.73876397 2.6875 53.4375 C0.28230543 49.96333007 -0.12433444 47.37142349 -0.11352539 43.25317383 C-0.11344986 42.29240433 -0.11337433 41.33163483 -0.11329651 40.3417511 C-0.10813522 39.30729355 -0.10297394 38.272836 -0.09765625 37.20703125 C-0.0962413 36.14586594 -0.09482635 35.08470062 -0.09336853 33.99137878 C-0.08776606 30.59839065 -0.07521314 27.20546823 -0.0625 23.8125 C-0.05748532 21.51367283 -0.05292236 19.21484462 -0.04882812 16.91601562 C-0.03864626 11.27729799 -0.01907122 5.63872266 0 0 Z " fill="#F0D49C" transform="translate(125,419)"/>
<path d="M0 0 C9.9 0 19.8 0 30 0 C30.0919293 6.86916176 30.17154133 13.7361815 30.21972656 20.60546875 C30.23981709 22.94115438 30.26709461 25.27678987 30.30175781 27.61230469 C30.35038691 30.97343331 30.37299492 34.33389575 30.390625 37.6953125 C30.41127014 38.73615997 30.43191528 39.77700745 30.45318604 40.84939575 C30.45505565 46.91735138 30.045828 50.38161426 26 55 C21.51406064 59.04828674 18.17642236 60.37105299 12.05859375 60.28125 C7.71438316 59.68773356 5.00230299 56.89462037 1.85253906 54.08325195 C-1.00257816 49.33137064 -0.49363574 44.79290316 -0.390625 39.35546875 C-0.38496521 38.2305452 -0.37930542 37.10562164 -0.37347412 35.9466095 C-0.35111468 32.35980366 -0.30091667 28.77400304 -0.25 25.1875 C-0.22993455 22.75326965 -0.21168386 20.31902362 -0.1953125 17.88476562 C-0.15465593 11.92247988 -0.07635897 5.96236278 0 0 Z " fill="#F0D49C" transform="translate(171,419)"/>
<path d="M0 0 C9.9 0 19.8 0 30 0 C30.09200167 6.70845492 30.1715915 13.41470708 30.21972656 20.12329102 C30.2397992 22.40364005 30.26706343 24.68393789 30.30175781 26.96411133 C30.35046609 30.24833842 30.37301286 33.53188292 30.390625 36.81640625 C30.41127014 37.83021866 30.43191528 38.84403107 30.45318604 39.88856506 C30.45515892 46.16048008 29.69515203 49.87992007 26 55 C22.52078718 57.91639898 18.38047064 59.23243374 13.875 59.5 C8.60750092 58.8203227 5.66393931 56.89344818 2.1875 52.9375 C0.18126699 49.66417246 -0.12336157 47.00075973 -0.11352539 43.25317383 C-0.11344986 42.29240433 -0.11337433 41.33163483 -0.11329651 40.3417511 C-0.10813522 39.30729355 -0.10297394 38.272836 -0.09765625 37.20703125 C-0.0962413 36.14586594 -0.09482635 35.08470062 -0.09336853 33.99137878 C-0.08776606 30.59839065 -0.07521314 27.20546823 -0.0625 23.8125 C-0.05748532 21.51367283 -0.05292236 19.21484462 -0.04882812 16.91601562 C-0.03864626 11.27729799 -0.01907122 5.63872266 0 0 Z " fill="#F0D49C" transform="translate(281,420)"/>
<path d="M0 0 C9.9 0 19.8 0 30 0 C30.06895005 6.72646057 30.12866185 13.45168999 30.16479492 20.17822266 C30.17986116 22.46537435 30.20031797 24.75249725 30.22631836 27.03955078 C30.26279606 30.33112707 30.27974834 33.62232062 30.29296875 36.9140625 C30.30845261 37.93303619 30.32393646 38.95200989 30.33988953 40.00186157 C30.34116983 45.42914776 30.10842294 49.33620451 27 54 C22.87205971 57.91625104 20.20066889 58.79238973 14.6875 59.3125 C10.33762338 58.94386639 7.25965165 57.86446903 4 55 C-0.38199217 49.06283066 -0.53994907 43.07475346 -0.390625 35.9375 C-0.38496521 34.90560547 -0.37930542 33.87371094 -0.37347412 32.81054688 C-0.35122256 29.5398771 -0.3010463 26.2703343 -0.25 23 C-0.22992054 20.77215132 -0.21167231 18.54428534 -0.1953125 16.31640625 C-0.15480932 10.87682891 -0.07649528 5.43966424 0 0 Z " fill="#F0D49C" transform="translate(326,420)"/>
<path d="M0 0 C1.49080078 0.02707031 1.49080078 0.02707031 3.01171875 0.0546875 C3.77097656 0.07789062 4.53023437 0.10109375 5.3125 0.125 C5.53292969 1.28515625 5.53292969 1.28515625 5.7578125 2.46875 C7.78872497 11.89965387 11.15798025 18.62069917 19.3125 24.125 C23.93080221 26.85000116 27.83091199 27.67350027 33.125 27.625 C33.82987549 27.62072998 34.53475098 27.61645996 35.26098633 27.61206055 C43.02969065 27.35909273 47.37758398 24.60337353 53.125 19.75 C56.59477131 15.58627443 58.90748659 10.96681113 61.3125 6.125 C61.37308594 6.98222656 61.43367188 7.83945313 61.49609375 8.72265625 C61.92393536 14.56104873 62.371663 20.34557272 63.3125 26.125 C62.178125 26.434375 61.04375 26.74375 59.875 27.0625 C56.52474901 27.75424531 56.52474901 27.75424531 55.3125 29.125 C55.01409433 30.64066447 54.74904898 32.16294783 54.5 33.6875 C53.17210564 40.42319605 51.42805976 45.86983984 45.75 50.0625 C39.74249828 54.00952229 33.28632155 53.72767594 26.3125 53.125 C22.875 51.5625 22.875 51.5625 20.3125 49.125 C19.79171875 48.67382812 19.2709375 48.22265625 18.734375 47.7578125 C14.05368165 43.19072821 13.08628114 38.23022957 11.953125 31.91796875 C11.54481253 29.00322929 11.54481253 29.00322929 9.3125 27.125 C7.23510719 26.9241471 5.14866129 26.81191803 3.0625 26.75 C-3.64233567 26.32817259 -6.7769962 25.3511006 -11.30859375 20.328125 C-13.83954815 16.28433383 -13.31529535 11.72428335 -12.6875 7.125 C-9.46139387 1.6739931 -6.24261519 -0.14688506 0 0 Z " fill="#DAD7E9" transform="translate(216.6875,73.875)"/>
<path d="M0 0 C5.10329727 -0.36308044 8.87463833 -0.58277658 13.5 1.8125 C16.23128382 4.20237334 17.82687949 5.83918142 18.37109375 9.48828125 C18.57254827 18.05602358 18.57254827 18.05602358 15.8125 21.5625 C10.46098099 26.20048314 5.58832255 26.27313828 -1.2578125 26.4609375 C-4.07361085 26.7581724 -4.07361085 26.7581724 -5.80859375 28.734375 C-7.10020629 31.19055623 -7.55753131 33.13410226 -7.9375 35.875 C-9.29444748 43.38785558 -13.03982836 47.56157431 -19 52 C-24.9355259 53.97850863 -31.84445511 54.23043549 -37.71484375 51.94140625 C-46.79830682 46.36437152 -48.61088716 37.84604081 -51 28 C-53.64 27.34 -56.28 26.68 -59 26 C-58.690625 25.0925 -58.38125 24.185 -58.0625 23.25 C-56.52310987 17.95493464 -56.34179698 12.47774637 -56 7 C-54 10 -54 10 -52.80859375 12.26953125 C-48.8238345 19.66006763 -44.06082777 24.31305741 -36 27 C-27.48439515 27.67549011 -19.36307243 27.75983711 -12 23 C-4.59543706 16.55739738 -1.2156752 9.72540156 0 0 Z " fill="#DAD7E9" transform="translate(446,74)"/>
<path d="M0 0 C3.35999018 1.45868754 5.55203106 3.30868948 8.12597656 5.89892578 C8.92650452 6.6996048 9.72703247 7.50028381 10.55181885 8.32522583 C11.83327789 9.62216873 11.83327789 9.62216873 13.140625 10.9453125 C14.02280701 11.8303244 14.90498901 12.7153363 15.81390381 13.62716675 C18.15194543 15.97450131 20.48555874 18.32606785 22.81713867 20.67980957 C25.19996526 23.08313927 27.58850348 25.48077767 29.9765625 27.87890625 C34.65631862 32.58071467 39.33031867 37.28818664 44 42 C38.41774321 47.72640211 32.99260173 49.35010854 25.04858398 49.46899414 C24.24880127 49.45860107 23.44901855 49.44820801 22.625 49.4375 C21.36828491 49.4228772 21.36828491 49.4228772 20.08618164 49.40795898 C9.42238019 49.1022129 2.97687144 45.8178243 -4.73828125 38.4296875 C-10.34254785 32.40921457 -15.86882754 24.77158819 -16.0625 16.25 C-14.50639985 12.9547291 -12.06792307 11.88795266 -9 10 C-5.66065051 6.89917547 -2.78171742 3.60592998 0 0 Z " fill="#EDB684" transform="translate(449,124)"/>
<path d="M0 0 C1.96943329 2.440473 3.90193028 4.85834374 5.6875 7.4375 C8.956446 11.05984557 12.87682622 13.43623169 17 16 C15.42113388 24.18517438 13.29326086 30.50543171 8 37 C7.48566406 37.63808594 6.97132813 38.27617187 6.44140625 38.93359375 C0.34983218 45.72635621 -8.50863128 49.68792221 -17.57421875 50.203125 C-27.14594834 50.382101 -34.38920112 49.3816012 -43 45 C-41.52877384 41.59646978 -39.63057487 39.38744251 -37.00927734 36.78222656 C-35.77822769 35.5514035 -35.77822769 35.5514035 -34.52230835 34.29571533 C-33.63580597 33.41953552 -32.74930359 32.54335571 -31.8359375 31.640625 C-30.92872955 30.73624695 -30.02152161 29.8318689 -29.08682251 28.90008545 C-26.68115581 26.50203542 -24.26954264 24.11005382 -21.85662842 21.71929932 C-19.39297656 19.27614829 -16.93501423 16.82728794 -14.4765625 14.37890625 C-9.65626427 9.58066212 -4.83030157 4.78817268 0 0 Z " fill="#EEB784" transform="translate(218,123)"/>
<path d="M0 0 C9.9 0 19.8 0 30 0 C30 16.17 30 32.34 30 49 C29.67 49 29.34 49 29 49 C29 33.16 29 17.32 29 1 C22.73 1 16.46 1 10 1 C10.06907017 7.83222286 10.15713261 14.66384504 10.26245117 21.49560547 C10.29561153 23.81747755 10.32367087 26.13942851 10.34643555 28.46142578 C10.38014472 31.80795768 10.43247009 35.15377244 10.48828125 38.5 C10.49467117 39.5305249 10.5010611 40.5610498 10.50764465 41.62280273 C10.63123695 47.74437833 11.35834904 52.44421376 14 58 C16.01979579 59.55966008 16.01979579 59.55966008 18 60 C11.90059045 60.42064893 8.86336347 60.08964656 4 56 C1.4641317 53.73657322 0.14151356 51.98652285 -0.34680176 48.58236694 C-0.46364195 45.49896229 -0.44907125 42.44056135 -0.390625 39.35546875 C-0.38496521 38.2305452 -0.37930542 37.10562164 -0.37347412 35.9466095 C-0.35111468 32.35980366 -0.30091667 28.77400304 -0.25 25.1875 C-0.22993455 22.75326965 -0.21168386 20.31902362 -0.1953125 17.88476562 C-0.15465593 11.92247988 -0.07635897 5.96236278 0 0 Z " fill="#E6B482" transform="translate(171,419)"/>
<path d="M0 0 C10.23 0 20.46 0 31 0 C31 15.51 31 31.02 31 47 C30.67 47 30.34 47 30 47 C30 31.82 30 16.64 30 1 C23.4 1 16.8 1 10 1 C10.06909285 7.54740683 10.15716577 14.09418822 10.26245117 20.64111328 C10.29560258 22.86597732 10.32366466 25.09092348 10.34643555 27.31591797 C10.38016145 30.5234663 10.43248712 33.73026866 10.48828125 36.9375 C10.49467117 37.92427734 10.5010611 38.91105469 10.50764465 39.92773438 C10.65184429 46.77829915 11.919993 51.83998601 15 58 C17.01669827 59.13350534 17.01669827 59.13350534 19 60 C12.90059045 60.42064893 9.86336347 60.08964656 5 56 C1.22128021 51.81276996 -0.12822967 48.85550387 -0.11352539 43.25317383 C-0.11344986 42.29240433 -0.11337433 41.33163483 -0.11329651 40.3417511 C-0.10813522 39.30729355 -0.10297394 38.272836 -0.09765625 37.20703125 C-0.0962413 36.14586594 -0.09482635 35.08470062 -0.09336853 33.99137878 C-0.08776606 30.59839065 -0.07521314 27.20546823 -0.0625 23.8125 C-0.05748532 21.51367283 -0.05292236 19.21484462 -0.04882812 16.91601562 C-0.03864626 11.27729799 -0.01907122 5.63872266 0 0 Z " fill="#DDAC7C" transform="translate(125,419)"/>
<path d="M0 0 C3.3 0 6.6 0 10 0 C10.01458252 1.48322754 10.02916504 2.96645508 10.04418945 4.49462891 C10.10224449 10.00756712 10.17947779 15.52009999 10.26245117 21.03271484 C10.29566646 23.41676241 10.32370892 25.80088797 10.34643555 28.18505859 C10.38004318 31.61589739 10.43236407 35.04602363 10.48828125 38.4765625 C10.49467117 39.53928375 10.5010611 40.602005 10.50764465 41.69692993 C10.61792753 47.27167164 11.02080027 51.11972106 14 56 C14 56.66 14 57.32 14 58 C15.32 58.33 16.64 58.66 18 59 C11.90501137 59.42034404 8.87112047 59.07814737 4 55 C0.71943735 51.26694595 -0.12640125 48.15887737 -0.11352539 43.25317383 C-0.11344986 42.29240433 -0.11337433 41.33163483 -0.11329651 40.3417511 C-0.10813522 39.30729355 -0.10297394 38.272836 -0.09765625 37.20703125 C-0.0962413 36.14586594 -0.09482635 35.08470062 -0.09336853 33.99137878 C-0.08776606 30.59839065 -0.07521314 27.20546823 -0.0625 23.8125 C-0.05748532 21.51367283 -0.05292236 19.21484462 -0.04882812 16.91601562 C-0.03779583 11.27731838 -0.02052952 5.63867034 0 0 Z " fill="#EFB885" transform="translate(281,420)"/>
<path d="M0 0 C3.3 0 6.6 0 10 0 C10.01458252 1.41216797 10.02916504 2.82433594 10.04418945 4.27929688 C10.10237111 9.5425691 10.17960304 14.8054224 10.26245117 20.06835938 C10.29560715 22.34172746 10.32366783 24.61517602 10.34643555 26.88867188 C10.3801529 30.16571185 10.43247842 33.44202056 10.48828125 36.71875 C10.49467117 37.72740112 10.5010611 38.73605225 10.50764465 39.77526855 C10.66019719 47.17695791 11.81919351 52.72879026 16 59 C11.26463851 58.53574887 7.69813645 58.09843865 4 55 C-0.26523222 48.9174163 -0.54192471 43.16918322 -0.390625 35.9375 C-0.38496521 34.90560547 -0.37930542 33.87371094 -0.37347412 32.81054688 C-0.35122256 29.5398771 -0.3010463 26.2703343 -0.25 23 C-0.22992054 20.77215132 -0.21167231 18.54428534 -0.1953125 16.31640625 C-0.1513944 10.87717508 -0.08244416 5.43877811 0 0 Z " fill="#F0B885" transform="translate(326,420)"/>
<path d="M0 0 C2.47126491 1.66369084 3.79445419 2.95566917 4.38085938 5.93505859 C4.54005747 8.28219669 4.54533781 10.58560103 4.5 12.9375 C4.51546875 13.73607422 4.5309375 14.53464844 4.546875 15.35742188 C4.5203843 19.35420618 4.28009425 21.53217017 2.1875 25.02734375 C0 27 0 27 -3.5 27.625 C-7 27 -7 27 -9.1875 25.02734375 C-11.65372368 20.90811239 -11.59124821 17.64818906 -11.5 12.9375 C-11.51546875 12.13505859 -11.5309375 11.33261719 -11.546875 10.50585938 C-11.52153819 6.68950183 -11.45470679 4.63404157 -9.1875 1.47265625 C-5.97042119 -0.69312716 -3.78562459 -0.54080351 0 0 Z " fill="#030202" transform="translate(361,159)"/>
<path d="M0 0 C2.47126491 1.66369084 3.79445419 2.95566917 4.38085938 5.93505859 C4.54005747 8.28219669 4.54533781 10.58560103 4.5 12.9375 C4.51546875 13.73607422 4.5309375 14.53464844 4.546875 15.35742188 C4.5203843 19.35420618 4.28009425 21.53217017 2.1875 25.02734375 C0 27 0 27 -3.5 27.625 C-7 27 -7 27 -9.1875 25.02734375 C-11.65372368 20.90811239 -11.59124821 17.64818906 -11.5 12.9375 C-11.51546875 12.13505859 -11.5309375 11.33261719 -11.546875 10.50585938 C-11.52153819 6.68950183 -11.45470679 4.63404157 -9.1875 1.47265625 C-5.97042119 -0.69312716 -3.78562459 -0.54080351 0 0 Z " fill="#030302" transform="translate(314,159)"/>
<path d="M0 0 C0.33 0 0.66 0 1 0 C1.01417969 0.96421875 1.02835937 1.9284375 1.04296875 2.921875 C1.09066406 4.18515625 1.13835937 5.4484375 1.1875 6.75 C1.22230469 8.00296875 1.25710938 9.2559375 1.29296875 10.546875 C1.69240799 14.12939246 1.69240799 14.12939246 4.36328125 16.328125 C5.23339844 16.87984375 6.10351562 17.4315625 7 18 C7.99 18.66 8.98 19.32 10 20 C5.05 20.495 5.05 20.495 0 21 C0 14.07 0 7.14 0 0 Z " fill="#B9936B" transform="translate(341,276)"/>
</svg>
