<?xml version="1.0" encoding="UTF-8"?>
<svg version="1.1" xmlns="http://www.w3.org/2000/svg" width="512" height="512">
<path d="M0 0 C2.37582013 0.38529384 3.69895496 0.70075547 5.42871094 2.42016602 C5.85958008 3.02530029 6.29044922 3.63043457 6.734375 4.25390625 C7.22212402 4.93533691 7.70987305 5.61676758 8.21240234 6.31884766 C8.71980957 7.05925293 9.2272168 7.7996582 9.75 8.5625 C10.54398193 9.7079126 10.54398193 9.7079126 11.35400391 10.87646484 C16.35040327 18.24429411 20.38380979 25.87899946 24 34 C24.28069336 34.61552734 24.56138672 35.23105469 24.85058594 35.86523438 C29.7111137 46.63969049 34 59.06122378 34 71 C34.71542969 70.55269531 35.43085938 70.10539062 36.16796875 69.64453125 C58.38446519 56.16518218 83.49793663 51.80249101 109 57 C113.38567731 58.19072275 117.70073569 59.52882318 122 61 C119.90484664 63.2657975 117.92139877 64.73743625 115.19140625 66.1640625 C114.07995239 66.75658813 114.07995239 66.75658813 112.94604492 67.36108398 C112.1594751 67.77817627 111.37290527 68.19526855 110.5625 68.625 C102.79934719 72.8488528 95.85188829 77.38797721 89 83 C88.46004395 83.43989258 87.92008789 83.87978516 87.36376953 84.33300781 C76.72346126 93.03677388 67.5617814 102.21849749 59 113 C59.56920166 112.85377197 60.13840332 112.70754395 60.72485352 112.55688477 C63.33644218 111.88827351 65.94944359 111.22535079 68.5625 110.5625 C69.45775391 110.33240234 70.35300781 110.10230469 71.27539062 109.86523438 C72.59506836 109.53168945 72.59506836 109.53168945 73.94140625 109.19140625 C75.14325562 108.88505249 75.14325562 108.88505249 76.36938477 108.57250977 C84.53558239 106.79527232 92.61990538 106.75722024 100.9375 106.75 C101.98053787 106.74898788 101.98053787 106.74898788 103.04464722 106.74795532 C118.81734226 106.77230398 132.29808959 109.18815104 147 115 C147 115.66 147 116.32 147 117 C145.27330078 117.76570313 145.27330078 117.76570313 143.51171875 118.546875 C121.17777154 128.66228205 101.6849478 142.03837442 84 159 C83.46342773 159.50934082 82.92685547 160.01868164 82.37402344 160.54345703 C74.40922172 168.13644329 67.45894472 176.09161349 61 185 C63.20415039 187.45163394 65.69394255 189.18736145 68.42944336 191.00585938 C81.13915341 199.54842244 93.14060927 210.77172678 101 224 C101.65097656 225.0415625 102.30195313 226.083125 102.97265625 227.15625 C116.30590562 248.97429443 119.6939984 272.00910987 119.25 297.25 C119.22986312 299.27862779 119.21162532 301.30727535 119.1953125 303.3359375 C119.15198084 308.22446228 119.08336918 313.11200093 119 318 C120.00586151 318.08863564 120.00586151 318.08863564 121.03204346 318.17906189 C121.92026794 318.26168777 122.80849243 318.34431366 123.72363281 318.42944336 C124.60045715 318.50915878 125.47728149 318.58887421 126.38067627 318.67100525 C130.33844419 319.16811252 133.98719729 320.27118122 137.75 321.5625 C138.522229 321.82571045 139.29445801 322.0889209 140.09008789 322.36010742 C160.26672064 329.54627688 177.49598192 344.03209058 189 362 C189.50015625 362.72058594 190.0003125 363.44117188 190.515625 364.18359375 C203.83286822 384.40477622 207.64620202 410.7082376 203.8125 434.26953125 C198.89435231 456.85044972 187.4907771 477.84654204 168 491 C142.40838972 507.13799305 113.55863914 517.55332518 82.92773438 510.8215332 C67.93666087 506.86302405 53.83142155 500.03009786 42 490 C41.15179688 489.28585937 40.30359375 488.57171875 39.4296875 487.8359375 C35.30115904 484.24966352 31.92982866 481.08809918 29.125 476.375 C27.87836064 474.44964204 27.87836064 474.44964204 26 473 C23.41744738 472.80134599 23.41744738 472.80134599 20.5625 473.2734375 C-12.48203806 477.01686117 -44.70137138 471.04627897 -71.2265625 450.28125 C-95.86112526 430.01845472 -112.09478956 403.97936729 -116 372 C-116.15040956 368.80623051 -116.16712914 365.61590519 -116.17700195 362.41894531 C-116.18357315 361.4828392 -116.19014435 360.54673309 -116.19691467 359.58226013 C-116.21654976 356.4975474 -116.22829335 353.41288333 -116.23828125 350.328125 C-116.24235678 349.26603569 -116.2464323 348.20394638 -116.25063133 347.10967255 C-116.27145841 341.47920429 -116.2857702 335.8487601 -116.29516602 330.21826172 C-116.30617555 324.45259891 -116.34052195 318.68732785 -116.38033772 312.92180252 C-116.40671465 308.44656751 -116.41487676 303.97142251 -116.41844749 299.49611664 C-116.42326546 297.37382129 -116.43473914 295.25152863 -116.45348549 293.12931061 C-116.70943649 262.21283304 -108.71604705 234.48874934 -88 211 C-87.50113281 210.36964844 -87.00226563 209.73929688 -86.48828125 209.08984375 C-80.13359362 201.09641146 -71.50397331 195.16013791 -63.09375 189.5078125 C-61.18487457 188.13313728 -59.60215766 186.71513032 -58 185 C-81.14359099 155.36106876 -109.23871671 131.86857588 -144 117 C-144 116.34 -144 115.68 -144 115 C-129.02073257 109.19111086 -115.10526152 106.76818211 -99.0625 106.75 C-98.36813843 106.74866058 -97.67377686 106.74732117 -96.95837402 106.74594116 C-86.6617495 106.75025647 -76.98739089 107.29609661 -67 110 C-65.88109375 110.28617187 -64.7621875 110.57234375 -63.609375 110.8671875 C-61.05927575 111.53995238 -58.52675834 112.24518448 -56 113 C-58.01740481 110.64282174 -60.03879176 108.28925732 -62.0625 105.9375 C-62.62388672 105.28072266 -63.18527344 104.62394531 -63.76367188 103.94726562 C-69.52561201 97.26341507 -75.51702399 91.09828551 -82.5 85.6875 C-83.09748047 85.22311523 -83.69496094 84.75873047 -84.31054688 84.28027344 C-95.25181023 75.88362232 -106.48938291 68.82158145 -119 63 C-119 62.34 -119 61.68 -119 61 C-93.4020436 52.24056641 -66.51829106 52.8591411 -42.04492188 64.75317383 C-38.23152041 66.67140298 -34.5530552 68.63129654 -31 71 C-30.97421875 70.45214844 -30.9484375 69.90429688 -30.921875 69.33984375 C-29.09481182 43.80248333 -16.09889725 19.38718265 0 0 Z " fill="#FE9824" transform="translate(226,0)"/>
<path d="M0 0 C2.37582013 0.38529384 3.69895496 0.70075547 5.42871094 2.42016602 C5.85958008 3.02530029 6.29044922 3.63043457 6.734375 4.25390625 C7.22212402 4.93533691 7.70987305 5.61676758 8.21240234 6.31884766 C8.71980957 7.05925293 9.2272168 7.7996582 9.75 8.5625 C10.54398193 9.7079126 10.54398193 9.7079126 11.35400391 10.87646484 C16.35040327 18.24429411 20.38380979 25.87899946 24 34 C24.28069336 34.61552734 24.56138672 35.23105469 24.85058594 35.86523438 C29.7111137 46.63969049 34 59.06122378 34 71 C34.71542969 70.55269531 35.43085938 70.10539062 36.16796875 69.64453125 C58.38446519 56.16518218 83.49793663 51.80249101 109 57 C113.38567731 58.19072275 117.70073569 59.52882318 122 61 C119.90484664 63.2657975 117.92139877 64.73743625 115.19140625 66.1640625 C114.07995239 66.75658813 114.07995239 66.75658813 112.94604492 67.36108398 C112.1594751 67.77817627 111.37290527 68.19526855 110.5625 68.625 C102.79934719 72.8488528 95.85188829 77.38797721 89 83 C88.46004395 83.43989258 87.92008789 83.87978516 87.36376953 84.33300781 C76.72346126 93.03677388 67.5617814 102.21849749 59 113 C59.56920166 112.85377197 60.13840332 112.70754395 60.72485352 112.55688477 C63.33644218 111.88827351 65.94944359 111.22535079 68.5625 110.5625 C69.45775391 110.33240234 70.35300781 110.10230469 71.27539062 109.86523438 C72.59506836 109.53168945 72.59506836 109.53168945 73.94140625 109.19140625 C75.14325562 108.88505249 75.14325562 108.88505249 76.36938477 108.57250977 C84.53558239 106.79527232 92.61990538 106.75722024 100.9375 106.75 C101.98053787 106.74898788 101.98053787 106.74898788 103.04464722 106.74795532 C118.81734226 106.77230398 132.29808959 109.18815104 147 115 C147 115.66 147 116.32 147 117 C145.27330078 117.76570313 145.27330078 117.76570313 143.51171875 118.546875 C121.17708837 128.66259147 101.68635192 142.03909781 84 159 C83.20311768 159.75603516 83.20311768 159.75603516 82.39013672 160.52734375 C74.09209205 168.43352946 66.86363792 176.82555813 60 186 C55.61222333 184.60177071 51.42329958 182.92766664 47.1875 181.125 C16.83441512 168.6027714 -16.90793413 170.20089683 -47.01318359 182.13671875 C-49.26273407 183.07505031 -49.26273407 183.07505031 -52.30078125 184.84375 C-55 186 -55 186 -57.17578125 185.4375 C-59.25455843 183.79940578 -60.63569751 182.14570221 -62.1875 180 C-83.13725644 152.18510139 -112.06943043 130.65778394 -144 117 C-144 116.34 -144 115.68 -144 115 C-129.02073257 109.19111086 -115.10526152 106.76818211 -99.0625 106.75 C-98.36813843 106.74866058 -97.67377686 106.74732117 -96.95837402 106.74594116 C-86.6617495 106.75025647 -76.98739089 107.29609661 -67 110 C-65.88109375 110.28617187 -64.7621875 110.57234375 -63.609375 110.8671875 C-61.05927575 111.53995238 -58.52675834 112.24518448 -56 113 C-58.01740481 110.64282174 -60.03879176 108.28925732 -62.0625 105.9375 C-62.62388672 105.28072266 -63.18527344 104.62394531 -63.76367188 103.94726562 C-69.52561201 97.26341507 -75.51702399 91.09828551 -82.5 85.6875 C-83.09748047 85.22311523 -83.69496094 84.75873047 -84.31054688 84.28027344 C-95.25181023 75.88362232 -106.48938291 68.82158145 -119 63 C-119 62.34 -119 61.68 -119 61 C-93.4020436 52.24056641 -66.51829106 52.8591411 -42.04492188 64.75317383 C-38.23152041 66.67140298 -34.5530552 68.63129654 -31 71 C-30.97421875 70.45214844 -30.9484375 69.90429688 -30.921875 69.33984375 C-29.09481182 43.80248333 -16.09889725 19.38718265 0 0 Z " fill="#419334" transform="translate(226,0)"/>
<path d="M0 0 C0.66 0 1.32 0 2 0 C2.99 5.445 2.99 5.445 4 11 C4.66 11 5.32 11 6 11 C6 7.37 6 3.74 6 0 C10.64596143 1.16149036 12.51931352 3.09622379 15 7 C18.88249152 13.72040794 18.3429248 20.33762602 18.1875 27.9375 C18.16719727 29.82178711 18.16719727 29.82178711 18.14648438 31.74414062 C18.11128591 34.82987279 18.06204305 37.91471024 18 41 C18.99 41 19.98 41 21 41 C21.12890625 40.14019531 21.2578125 39.28039062 21.390625 38.39453125 C23.3755569 27.33744264 26.57956515 15.48554045 36.15625 8.77734375 C38 8 38 8 43 8 C42.34 11.63 41.68 15.26 41 19 C43.66735273 16.51047079 45.55746343 14.36591866 47 11 C50 12 50 12 51 14 C52.91971634 26.33327194 48.53686893 34.8744339 42 45 C41.40832031 45.78117187 40.81664062 46.56234375 40.20703125 47.3671875 C38.80185162 48.92962581 38.80185162 48.92962581 39 51 C42.51287339 49.51923722 44.55608201 47.53694424 47.125 44.75 C53.13417346 38.58164314 60.12796052 33.30933584 68.9375 32.75 C72.50949301 32.77631302 74.40235903 33.40235903 77 36 C75.47005208 37.20442708 73.94010417 38.40885417 72.41015625 39.61328125 C70.72844923 41.05683091 70.72844923 41.05683091 70 44 C71.093125 43.525625 72.18625 43.05125 73.3125 42.5625 C75.53476255 41.59812191 77.69500485 40.76833172 80 40 C79.97248363 45.94353635 79.02713664 50.37483417 75.203125 55.015625 C69.52375837 60.13108289 62.19486228 63.76147416 55.12109375 66.54296875 C54.09113281 67.02378906 53.06117188 67.50460937 52 68 C51.505 69.485 51.505 69.485 51 71 C52.07636719 70.71125 53.15273438 70.4225 54.26171875 70.125 C66.38715062 66.98870371 77.4549596 64.35418479 89.07421875 70.515625 C91 72 91 72 93 76 C88.545 76.99 88.545 76.99 84 78 C84 78.66 84 79.32 84 80 C86.97 80.33 89.94 80.66 93 81 C91.91483 85.34067999 91.40221872 86.2956723 88 89 C78.24635291 93.96549306 66.56539442 92.49093545 56 91 C54.515 90.505 54.515 90.505 53 90 C53 90.99 53 91.98 53 93 C53.63164062 93.14695312 54.26328125 93.29390625 54.9140625 93.4453125 C65.88958295 96.19710005 79.54301763 99.80960325 85.8125 110 C86.23144531 110.66 86.65039062 111.32 87.08203125 112 C88 114 88 114 88 118 C84.37 117.01 80.74 116.02 77 115 C79.85276137 117.93200474 82.65079784 120.64315404 86 123 C81.31278379 125.81232972 77.38854378 126.68043956 72 126 C69.18872053 125.09674187 66.66096771 123.83028377 64.0625 122.4375 C63.36882324 122.07978516 62.67514648 121.72207031 61.96044922 121.35351562 C57.10620955 118.78062112 52.76643767 115.8520542 48.6015625 112.25 C47.07583233 110.79490971 47.07583233 110.79490971 45 111 C46.32513764 113.97834333 47.72182954 115.87729151 50.125 118.0625 C56.33438562 124.0896395 63.42566115 131.89342664 64.265625 140.82421875 C64.26046875 141.76910156 64.2553125 142.71398437 64.25 143.6875 C64.25773437 145.11642578 64.25773437 145.11642578 64.265625 146.57421875 C64 149 64 149 62 151 C61.67386719 150.50628906 61.34773437 150.01257813 61.01171875 149.50390625 C60.57472656 148.86324219 60.13773438 148.22257813 59.6875 147.5625 C59.25824219 146.92441406 58.82898438 146.28632813 58.38671875 145.62890625 C56.9965948 143.7114316 56.9965948 143.7114316 54 143 C54.27714844 143.54269531 54.55429687 144.08539063 54.83984375 144.64453125 C55.38318359 145.71767578 55.38318359 145.71767578 55.9375 146.8125 C56.29714844 147.52019531 56.65679687 148.22789062 57.02734375 148.95703125 C58 151 58 151 59 154 C53.04745117 154.09600885 49.63635933 153.25995299 45 149.4375 C39.15046823 143.77048092 35.63171058 136.91856896 31.92236328 129.76757812 C30.70620691 127.43698729 29.47957186 125.17509709 28 123 C27.34 123 26.68 123 26 123 C26.45375 124.134375 26.9075 125.26875 27.375 126.4375 C30.11009326 133.90391572 31.21632166 140.7459462 31.375 148.6875 C31.40102295 149.41251709 31.4270459 150.13753418 31.45385742 150.88452148 C31.47093516 156.01549734 30.43898214 158.97578756 27 163 C25.02 163.99 25.02 163.99 23 165 C22.01 160.545 22.01 160.545 21 156 C20.34 156 19.68 156 19 156 C18.67 158.97 18.34 161.94 18 165 C13.40724797 162.70362399 11.14030214 160.76845182 9.16113281 155.96337891 C6.89241735 149.00914779 6.64015783 142.64872331 6.8125 135.375 C6.82603516 134.27542969 6.83957031 133.17585937 6.85351562 132.04296875 C6.888492 129.36144668 6.93756928 126.68099927 7 124 C6.34 124 5.68 124 5 124 C4.76216797 125.21623047 4.76216797 125.21623047 4.51953125 126.45703125 C2.13977029 137.75103492 -1.14959739 148.09997619 -10 156 C-13.08984462 157.91042083 -14.15920439 158 -18 158 C-17.01 154.04 -16.02 150.08 -15 146 C-17.96404505 148.80804268 -20.44499019 151.18315774 -22 155 C-24.67232392 152.56005207 -25.82351492 150.72072955 -26.203125 147.01953125 C-26.404104 137.55677001 -22.5254965 130.84746994 -17.78125 122.9230957 C-16.04491411 119.99670065 -14.55301847 117.38514339 -14 114 C-14.928125 114.804375 -15.85625 115.60875 -16.8125 116.4375 C-17.44929688 116.97890625 -18.08609375 117.5203125 -18.7421875 118.078125 C-20.38161124 119.47362064 -22.01047994 120.8815463 -23.6328125 122.296875 C-31.26325043 128.80081374 -36.91880285 132.29183418 -47.1171875 132.3984375 C-49 132 -49 132 -51 129 C-49.47005208 127.79557292 -47.94010417 126.59114583 -46.41015625 125.38671875 C-44.72844923 123.94316909 -44.72844923 123.94316909 -44 121 C-49.56717533 123.35456323 -49.56717533 123.35456323 -55 126 C-55.56184599 120.60627854 -54.64517103 117.65712423 -51.77734375 113.08984375 C-46.79373814 107.22999979 -40.87100497 103.55550636 -34.0625 100.125 C-33.28326172 99.7228125 -32.50402344 99.320625 -31.70117188 98.90625 C-29.80507597 97.92912082 -27.90313732 96.96334285 -26 96 C-26 95.34 -26 94.68 -26 94 C-26.71285156 94.20496094 -27.42570312 94.40992188 -28.16015625 94.62109375 C-50.55759548 100.92131555 -50.55759548 100.92131555 -60.5 96.3125 C-63.75457482 94.42077839 -65.8998525 92.15022125 -68 89 C-67.28972656 88.87882812 -66.57945312 88.75765625 -65.84765625 88.6328125 C-64.92855469 88.46523438 -64.00945312 88.29765625 -63.0625 88.125 C-62.14597656 87.96257812 -61.22945313 87.80015625 -60.28515625 87.6328125 C-59.53105469 87.42398438 -58.77695312 87.21515625 -58 87 C-57.505 86.01 -57.505 86.01 -57 85 C-60.63 84.67 -64.26 84.34 -68 84 C-65.84269784 78.6067446 -64.82517785 77.75724449 -60 75 C-56.87051332 73.95683777 -54.66156237 73.87086731 -51.37890625 73.8671875 C-50.27869141 73.86589844 -49.17847656 73.86460937 -48.04492188 73.86328125 C-46.89572266 73.86714844 -45.74652344 73.87101562 -44.5625 73.875 C-43.41716797 73.87113281 -42.27183594 73.86726563 -41.09179688 73.86328125 C-39.99029297 73.86457031 -38.88878906 73.86585938 -37.75390625 73.8671875 C-36.24292358 73.86887939 -36.24292358 73.86887939 -34.70141602 73.87060547 C-32.30367261 73.98545445 -30.29015822 74.31353198 -28 75 C-28 74.01 -28 73.02 -28 72 C-29.7325 71.7215625 -29.7325 71.7215625 -31.5 71.4375 C-41.72849378 69.13202997 -53.7743209 64.85023009 -60 56 C-61.99845234 52.64775737 -63 50.88824366 -63 47 C-59.37 47.99 -55.74 48.98 -52 50 C-52.763125 49.236875 -53.52625 48.47375 -54.3125 47.6875 C-56.20833333 45.79166667 -58.10416667 43.89583333 -60 42 C-57.35272458 39.35272458 -55.95478584 39.57755898 -52.25 39.4375 C-41.16651239 39.60914693 -32.00143953 45.59724277 -23.76953125 52.6171875 C-21.93980128 54.20616464 -21.93980128 54.20616464 -19 55 C-21.18840278 51.03083809 -23.75455098 47.96444571 -26.875 44.6875 C-30.85856362 40.37294057 -34.2545826 36.19111675 -37 31 C-37.433125 30.195625 -37.86625 29.39125 -38.3125 28.5625 C-39.32941473 24.77218145 -39.67610393 20.88214516 -39 17 C-37.48046875 15.2265625 -37.48046875 15.2265625 -36 14 C-35.51080078 14.74056641 -35.51080078 14.74056641 -35.01171875 15.49609375 C-34.57472656 16.13675781 -34.13773437 16.77742188 -33.6875 17.4375 C-33.25824219 18.07558594 -32.82898438 18.71367187 -32.38671875 19.37109375 C-30.9965948 21.2885684 -30.9965948 21.2885684 -28 22 C-28.27714844 21.45730469 -28.55429687 20.91460937 -28.83984375 20.35546875 C-29.38318359 19.28232422 -29.38318359 19.28232422 -29.9375 18.1875 C-30.47697266 17.12595703 -30.47697266 17.12595703 -31.02734375 16.04296875 C-32 14 -32 14 -33 11 C-26.42652268 11.27972244 -21.88393943 13.59317721 -17 18 C-12.23968089 24.01099358 -4 35.16414969 -4 43 C-3.01 43 -2.02 43 -1 43 C-1.3609375 41.79085937 -1.721875 40.58171875 -2.09375 39.3359375 C-8.96751388 15.46496325 -8.96751388 15.46496325 -4.125 5.25 C-2 2 -2 2 0 0 Z " fill="#FFEBBF" transform="translate(325,329)"/>
<path d="M0 0 C1.91135742 0.0009668 1.91135742 0.0009668 3.86132812 0.00195312 C9.39388673 0.02803643 14.61275661 0.15968178 20.0625 1.1875 C17.0015096 2.8792886 14.16066518 3.70158884 10.75 4.4375 C-16.52245723 11.05605974 -42.56701619 28.92941726 -57.34765625 53.01171875 C-70.81296679 75.88578643 -75.25807967 97.17768339 -75.23828125 123.453125 C-75.24217679 125.61724936 -75.2465132 127.78137296 -75.25126648 129.94549561 C-75.25869751 134.4674325 -75.25846051 138.98929129 -75.25317383 143.51123047 C-75.24738924 149.26466324 -75.2643013 155.01777303 -75.2875185 160.7711525 C-75.30235561 165.23768946 -75.30311396 169.70415046 -75.30000877 174.1707077 C-75.30051718 176.28988025 -75.30566293 178.40905761 -75.31582069 180.52820587 C-75.38156521 196.16232292 -74.51343332 210.92741162 -68.8125 225.6875 C-68.5139209 226.47447266 -68.2153418 227.26144531 -67.90771484 228.07226562 C-62.91780536 240.76271572 -56.1951674 252.13425181 -46.9375 262.1875 C-46.45796875 262.70940918 -45.9784375 263.23131836 -45.484375 263.76904297 C-31.78625657 278.50922154 -15.8117398 288.35841878 3.0625 295.1875 C2.37414062 293.88039063 2.37414062 293.88039063 1.671875 292.546875 C-11.08796234 267.93836887 -14.1098523 240.96428562 -5.9375 214.1875 C-1.53636219 200.93855757 5.86331321 189.59449369 15.0625 179.1875 C15.61421875 178.55199219 16.1659375 177.91648437 16.734375 177.26171875 C26.92922337 166.28459241 45.85626147 153.93482073 61.125 153 C61.764375 153.061875 62.40375 153.12375 63.0625 153.1875 C60.46703859 156.20041325 57.45867325 157.65610266 53.9375 159.4375 C48.10831913 162.5109502 43.08218702 165.94366777 38.0625 170.1875 C37.09957031 170.95191406 36.13664063 171.71632813 35.14453125 172.50390625 C19.25316517 185.7962288 9.1676546 208.66521765 6.34375 228.83984375 C4.2777607 253.43085525 10.03238734 274.80948522 22.0625 296.1875 C22.73513368 297.5178331 23.40315533 298.85053073 24.0625 300.1875 C15.96698843 301.75788183 8.18141538 302.54550698 -0.0625 302.5 C-1.69264038 302.49154053 -1.69264038 302.49154053 -3.35571289 302.48291016 C-36.92218482 301.98313664 -64.60652014 288.44617145 -88.2421875 264.890625 C-106.98923764 245.0408072 -118.03031575 217.86716619 -118.11450195 190.60644531 C-118.12107315 189.6703392 -118.12764435 188.73423309 -118.13441467 187.76976013 C-118.15404976 184.6850474 -118.16579335 181.60038333 -118.17578125 178.515625 C-118.17985678 177.45353569 -118.1839323 176.39144638 -118.18813133 175.29717255 C-118.20895841 169.66670429 -118.2232702 164.0362601 -118.23266602 158.40576172 C-118.24367555 152.64009891 -118.27802195 146.87482785 -118.31783772 141.10930252 C-118.34421465 136.63406751 -118.35237676 132.15892251 -118.35594749 127.68361664 C-118.36076546 125.56132129 -118.37223914 123.43902863 -118.39098549 121.31681061 C-118.64693649 90.40033304 -110.65354705 62.67624934 -89.9375 39.1875 C-89.43863281 38.55714844 -88.93976563 37.92679688 -88.42578125 37.27734375 C-84.01514329 31.72929199 -78.52722882 27.49672853 -72.9375 23.1875 C-72.13183594 22.56617188 -71.32617188 21.94484375 -70.49609375 21.3046875 C-60.63490068 14.05906623 -49.88751206 9.30433996 -38.375 5.375 C-37.11852661 4.93994141 -37.11852661 4.93994141 -35.83666992 4.49609375 C-24.0219941 0.62594596 -12.36473537 -0.12141084 0 0 Z " fill="#D9931F" transform="translate(227.9375,171.8125)"/>
<path d="M0 0 C11.85380187 3.35163407 23.4574081 25.81970124 29.6953125 35.81640625 C30.09057129 36.43169189 30.48583008 37.04697754 30.89306641 37.6809082 C32.47298449 40.29712829 33.44752421 42.20114407 33.43359375 45.2890625 C32.18305671 48.3289055 30.49497678 50.48942497 28.3828125 53.00390625 C27.64933594 53.88691406 26.91585937 54.76992188 26.16015625 55.6796875 C25.59425781 56.34355469 25.02835937 57.00742187 24.4453125 57.69140625 C28.21675232 57.58164945 31.98718347 57.45099146 35.7578125 57.31640625 C37.3655957 57.27 37.3655957 57.27 39.00585938 57.22265625 C40.03388672 57.18398438 41.06191406 57.1453125 42.12109375 57.10546875 C43.06895752 57.07404785 44.01682129 57.04262695 44.9934082 57.01025391 C47.6983394 56.84250115 47.6983394 56.84250115 50.4453125 54.69140625 C50.4453125 56.01140625 50.4453125 57.33140625 50.4453125 58.69140625 C51.7240625 58.73265625 53.0028125 58.77390625 54.3203125 58.81640625 C77.79955277 61.24414639 98.05306175 75.5859769 113.4453125 92.69140625 C115.97695703 95.91121606 118.23780749 99.2435457 120.4453125 102.69140625 C121.19554687 103.77228516 121.19554687 103.77228516 121.9609375 104.875 C135.27818072 125.09618247 139.09151452 151.39964385 135.2578125 174.9609375 C129.92697758 199.43664591 117.34616193 219.93365275 96.26953125 233.77734375 C76.10176098 246.32856248 51.57202443 249.65936659 28.4453125 244.69140625 C12.38608034 240.84851694 -2.21955023 233.64150412 -14.5546875 222.69140625 C-15.32570801 222.01102295 -15.32570801 222.01102295 -16.11230469 221.31689453 C-33.2878045 205.86754859 -45.70568729 183.78187459 -48.5546875 160.69140625 C-49.06609118 148.77132364 -49.54672858 136.31366987 -46.5546875 124.69140625 C-46.32136719 123.70140625 -46.08804688 122.71140625 -45.84765625 121.69140625 C-39.51707772 98.10349722 -24.74472588 81.27173465 -4.5546875 68.37890625 C2.09702179 64.5514473 9.6919362 60.69140625 17.4453125 60.69140625 C12.54816442 54.81482856 6.43538368 52.33266769 -1.0546875 51.12890625 C-5.32930863 51.81589893 -8.54032925 53.43979174 -12.3203125 55.5 C-14.5546875 56.69140625 -14.5546875 56.69140625 -17.5546875 57.69140625 C-17.91820312 57.00175781 -18.28171875 56.31210937 -18.65625 55.6015625 C-21.6472687 50.01065832 -24.75746787 44.75033482 -28.55078125 39.6640625 C-29.5546875 37.69140625 -29.5546875 37.69140625 -29.38671875 35.734375 C-26.15179829 27.79135435 -20.34204473 20.98325476 -14.9921875 14.37890625 C-14.45045898 13.70956055 -13.90873047 13.04021484 -13.35058594 12.35058594 C-11.77841094 10.43940773 -10.1789877 8.55842373 -8.5546875 6.69140625 C-8.03922363 6.09279785 -7.52375977 5.49418945 -6.99267578 4.87744141 C-4.80790704 2.49437471 -3.16085368 0.8554604 0 0 Z M30.4453125 69.69140625 C24.7808835 75.88687547 23.96466362 81.30974525 24.04296875 89.48828125 C24.56843338 97.41067106 27.18629871 105.12371004 29.4453125 112.69140625 C28.4553125 112.69140625 27.4653125 112.69140625 26.4453125 112.69140625 C25.9503125 110.86609375 25.9503125 110.86609375 25.4453125 109.00390625 C22.34184418 99.63410475 15.84489235 87.7033086 7.0078125 82.87890625 C6.26660156 82.45996094 5.52539062 82.04101562 4.76171875 81.609375 C2.16473737 80.58021712 0.21389592 80.52050604 -2.5546875 80.69140625 C-2.2865625 81.20703125 -2.0184375 81.72265625 -1.7421875 82.25390625 C-0.23119343 85.3554204 1.10103976 88.51403431 2.4453125 91.69140625 C-1.53644294 89.58992421 -3.90507795 87.32235267 -6.5546875 83.69140625 C-9.30104436 87.81094154 -9.24652419 90.85606937 -8.5546875 95.69140625 C-5.60146851 105.16369907 2.13823065 113.62980616 9.21875 120.3828125 C10.4453125 121.69140625 10.4453125 121.69140625 11.4453125 124.69140625 C7.27041836 122.42244204 3.41619491 119.98568019 -0.4296875 117.19140625 C-9.13270472 111.10583782 -16.65172794 107.95506692 -27.5546875 109.69140625 C-28.2146875 110.68140625 -28.8746875 111.67140625 -29.5546875 112.69140625 C-29.06097656 113.02914062 -28.56726563 113.366875 -28.05859375 113.71484375 C-27.09759766 114.38386719 -27.09759766 114.38386719 -26.1171875 115.06640625 C-25.47910156 115.50726563 -24.84101563 115.948125 -24.18359375 116.40234375 C-22.5546875 117.69140625 -22.5546875 117.69140625 -21.5546875 119.69140625 C-26.9996875 118.20640625 -26.9996875 118.20640625 -32.5546875 116.69140625 C-31.20202208 123.45473336 -28.13789615 127.85925261 -22.8671875 132.17578125 C-15.26259196 137.15987427 -6.46659251 140.1548709 2.4453125 141.69140625 C2.4453125 142.68140625 2.4453125 143.67140625 2.4453125 144.69140625 C1.90036133 144.5313208 1.35541016 144.37123535 0.79394531 144.20629883 C-3.98377975 143.15887449 -8.9330463 143.42085494 -13.8046875 143.37890625 C-14.91199219 143.34990234 -16.01929688 143.32089844 -17.16015625 143.29101562 C-24.13278406 143.23712492 -28.63497772 143.9325295 -34.5546875 147.69140625 C-37.0746234 150.29161048 -37.0746234 150.29161048 -37.5546875 153.69140625 C-33.9246875 154.02140625 -30.2946875 154.35140625 -26.5546875 154.69140625 C-27.0496875 155.68140625 -27.0496875 155.68140625 -27.5546875 156.69140625 C-29.83984375 157.32421875 -29.83984375 157.32421875 -32.6171875 157.81640625 C-33.53628906 157.98398437 -34.45539063 158.1515625 -35.40234375 158.32421875 C-36.11261719 158.44539063 -36.82289063 158.5665625 -37.5546875 158.69140625 C-34.21174182 163.24996854 -31.2641816 166.4296396 -25.5546875 167.69140625 C-15.56313184 168.77646207 -5.04262748 166.85405291 4.4453125 163.69140625 C3.4453125 166.69140625 3.4453125 166.69140625 1.69873047 167.82299805 C0.95252441 168.17531494 0.20631836 168.52763184 -0.5625 168.890625 C-1.38492188 169.29603516 -2.20734375 169.70144531 -3.0546875 170.11914062 C-4.77803205 170.94619214 -6.5045211 171.76672939 -8.234375 172.58007812 C-15.47401786 176.17179535 -21.40037126 181.0366942 -24.5546875 188.69140625 C-24.6324221 191.02344437 -24.64436478 193.35979684 -24.5546875 195.69140625 C-23.78125 195.28921875 -23.78125 195.28921875 -22.9921875 194.87890625 C-19.89067335 193.36791218 -16.73205944 192.03567899 -13.5546875 190.69140625 C-15.51786924 194.22513337 -17.59539631 196.9362041 -20.5546875 199.69140625 C-18.21524021 202.03085354 -17.67869011 202.01020691 -14.4921875 202.06640625 C-4.57137139 201.78114317 2.20453148 195.90799785 9.4453125 189.69140625 C10.1671875 189.08039063 10.8890625 188.469375 11.6328125 187.83984375 C13.24588539 186.46743093 14.84712978 185.08113036 16.4453125 183.69140625 C15.38886107 188.71934522 12.4997375 192.66820691 9.77148438 196.93945312 C5.52525768 203.77636299 3.4359848 210.61678467 4.4453125 218.69140625 C5.79277774 222.14486773 5.79277774 222.14486773 7.4453125 224.69140625 C9.86227001 223.4829275 10.21015063 222.54593357 11.4453125 220.19140625 C13.22309028 216.80251736 13.22309028 216.80251736 15.4453125 215.69140625 C14.4553125 219.65140625 13.4653125 223.61140625 12.4453125 227.69140625 C19.67581542 226.48632243 23.37162469 223.91404446 27.66796875 218.01171875 C31.21248003 211.55410711 35.4453125 201.07179137 35.4453125 193.69140625 C36.1053125 193.69140625 36.7653125 193.69140625 37.4453125 193.69140625 C37.42960205 194.36606934 37.4138916 195.04073242 37.39770508 195.73583984 C37.33465171 198.84594049 37.29610119 201.95590597 37.2578125 205.06640625 C37.23267578 206.12730469 37.20753906 207.18820312 37.18164062 208.28125 C37.09138535 218.08899015 38.31557023 226.08247967 45.04296875 233.51171875 C46.39496882 234.90598686 46.39496882 234.90598686 48.4453125 234.69140625 C48.7753125 231.72140625 49.1053125 228.75140625 49.4453125 225.69140625 C50.1053125 225.69140625 50.7653125 225.69140625 51.4453125 225.69140625 C52.4353125 230.14640625 52.4353125 230.14640625 53.4453125 234.69140625 C57.95705855 232.43553323 59.12253255 231.08736918 61.4453125 226.69140625 C61.84154828 223.87405331 62.01766108 221.55299252 61.9453125 218.75390625 C61.93685303 218.01970459 61.92839355 217.28550293 61.91967773 216.52905273 C61.66532817 208.49419316 60.06095691 199.92269506 56.4453125 192.69140625 C59.4453125 193.69140625 59.4453125 193.69140625 61.390625 197.15625 C62.12154935 198.64500182 62.8478468 200.13603127 63.5703125 201.62890625 C68.32262257 211.00797517 73.37370949 219.39793405 83.4453125 223.69140625 C86.69631614 223.94337448 86.69631614 223.94337448 89.4453125 223.69140625 C89.043125 222.91796875 89.043125 222.91796875 88.6328125 222.12890625 C87.12181843 219.0273921 85.78958524 215.86877819 84.4453125 212.69140625 C88.42706794 214.79288829 90.79570295 217.06045983 93.4453125 220.69140625 C95.64023462 216.30156201 95.13599556 210.22079962 93.8671875 205.57421875 C90.3243119 197.8121004 83.94607788 191.01934697 77.8828125 185.12890625 C77.0784375 184.32453125 76.2740625 183.52015625 75.4453125 182.69140625 C75.4453125 182.03140625 75.4453125 181.37140625 75.4453125 180.69140625 C78.59589622 182.13834099 81.4316377 183.9522833 84.31787109 185.86547852 C96.35616442 194.11299306 96.35616442 194.11299306 110.4453125 195.69140625 C113.84773074 194.32651945 113.84773074 194.32651945 116.4453125 192.69140625 C115.8884375 192.29953125 115.3315625 191.90765625 114.7578125 191.50390625 C112.101792 189.42216045 109.79666299 187.10807203 107.4453125 184.69140625 C111.0753125 185.68140625 114.7053125 186.67140625 118.4453125 187.69140625 C118.03982021 182.14967823 116.25820772 178.61095588 112.4453125 174.69140625 C105.54605904 169.16924929 92.50319692 162.69140625 83.4453125 162.69140625 C83.4453125 161.70140625 83.4453125 160.71140625 83.4453125 159.69140625 C84.9303125 160.18640625 84.9303125 160.18640625 86.4453125 160.69140625 C97.52116853 162.25437548 109.59699584 163.91027862 119.4453125 157.69140625 C121.99437876 155.8170812 121.99437876 155.8170812 123.4453125 153.69140625 C123.4453125 152.70140625 123.4453125 151.71140625 123.4453125 150.69140625 C120.4753125 150.36140625 117.5053125 150.03140625 114.4453125 149.69140625 C114.4453125 149.03140625 114.4453125 148.37140625 114.4453125 147.69140625 C118.9003125 146.70140625 118.9003125 146.70140625 123.4453125 145.69140625 C121.90156187 141.98640475 120.06397122 140.1674031 116.5703125 138.37890625 C105.02203678 133.83014813 92.89162054 137.6207799 81.4453125 140.69140625 C82.4453125 137.69140625 82.4453125 137.69140625 85.76171875 135.859375 C87.1739363 135.19251312 88.58951093 134.53272873 90.0078125 133.87890625 C102.12875739 128.19414056 102.12875739 128.19414056 109.8359375 117.66015625 C110.67654016 114.94436303 110.72667572 112.50503847 110.4453125 109.69140625 C109.9090625 109.98015625 109.3728125 110.26890625 108.8203125 110.56640625 C106.09250766 111.85852433 103.31918532 112.77699217 100.4453125 113.69140625 C102.40849424 110.15767913 104.48602131 107.4466084 107.4453125 104.69140625 C103.68442332 102.18414679 99.79491068 101.98647137 95.4453125 102.69140625 C86.40468714 105.73449256 79.73628184 112.17581938 73.28125 118.96875 C71.4453125 120.69140625 71.4453125 120.69140625 69.4453125 120.69140625 C71.00645556 116.4063938 73.14900499 112.55176491 75.4453125 108.62890625 C76.78759566 106.32124916 78.11956657 104.00869965 79.4453125 101.69140625 C79.85265625 101.03398437 80.26 100.3765625 80.6796875 99.69921875 C81.83578874 96.66740224 81.70888859 93.85662263 81.6953125 90.62890625 C81.70046875 89.40042969 81.705625 88.17195313 81.7109375 86.90625 C81.69405514 83.53985958 81.69405514 83.53985958 79.4453125 80.69140625 C78.7853125 80.69140625 78.1253125 80.69140625 77.4453125 80.69140625 C76.8265625 81.82578125 76.2078125 82.96015625 75.5703125 84.12890625 C73.6953125 87.56640625 73.6953125 87.56640625 71.4453125 88.69140625 C72.1053125 85.06140625 72.7653125 81.43140625 73.4453125 77.69140625 C68.70926985 77.97556881 65.39442372 78.69270136 61.8515625 82 C55.70410983 89.39401946 51.4453125 101.1645536 51.4453125 110.69140625 C50.4553125 110.69140625 49.4653125 110.69140625 48.4453125 110.69140625 C48.47149658 109.92586426 48.49768066 109.16032227 48.5246582 108.37158203 C48.62953972 104.85340464 48.69392749 101.33555743 48.7578125 97.81640625 C48.79970703 96.61242187 48.84160156 95.4084375 48.88476562 94.16796875 C49.01158006 84.83442631 47.21827973 78.35213047 41.3203125 71.06640625 C39.4296324 69.39572442 39.4296324 69.39572442 36.4453125 69.69140625 C36.4453125 73.32140625 36.4453125 76.95140625 36.4453125 80.69140625 C35.7853125 80.69140625 35.1253125 80.69140625 34.4453125 80.69140625 C33.4553125 75.24640625 33.4553125 75.24640625 32.4453125 69.69140625 C31.7853125 69.69140625 31.1253125 69.69140625 30.4453125 69.69140625 Z " fill="#FFC125" transform="translate(294.5546875,259.30859375)"/>
<path d="M0 0 C2.37582013 0.38529384 3.69895496 0.70075547 5.42871094 2.42016602 C5.85958008 3.02530029 6.29044922 3.63043457 6.734375 4.25390625 C7.22212402 4.93533691 7.70987305 5.61676758 8.21240234 6.31884766 C8.71980957 7.05925293 9.2272168 7.7996582 9.75 8.5625 C10.54398193 9.7079126 10.54398193 9.7079126 11.35400391 10.87646484 C16.35040327 18.24429411 20.38380979 25.87899946 24 34 C24.28069336 34.61552734 24.56138672 35.23105469 24.85058594 35.86523438 C29.31464581 45.76082999 35.75525286 60.9224042 34 72 C32.3125 73.9921875 32.3125 73.9921875 30 75.875 C29.175 76.56851563 28.35 77.26203125 27.5 77.9765625 C25.98256743 79.20473449 24.46246011 80.42962468 22.9375 81.6484375 C4.00335354 97.29964728 -5.70546592 122.10845958 -8 146 C-8.86625 145.236875 -9.7325 144.47375 -10.625 143.6875 C-21.76053791 134.20996974 -32.84046357 125.58151344 -46.265625 119.52734375 C-54.12581155 115.98236012 -57.991791 111.90928425 -63 105 C-77.1322032 88.08338502 -97.6569491 70.1143503 -119 63 C-119 62.34 -119 61.68 -119 61 C-93.4020436 52.24056641 -66.51829106 52.8591411 -42.04492188 64.75317383 C-38.23152041 66.67140298 -34.5530552 68.63129654 -31 71 C-30.97421875 70.45214844 -30.9484375 69.90429688 -30.921875 69.33984375 C-29.09481182 43.80248333 -16.09889725 19.38718265 0 0 Z " fill="#1E5B15" transform="translate(226,0)"/>
<path d="M0 0 C6.78177955 3.32691072 11.09736449 9.12533695 14 16 C14 16.99 14 17.98 14 19 C14.66 19 15.32 19 16 19 C16.20625 18.443125 16.4125 17.88625 16.625 17.3125 C19.08623085 13.17315721 23.37752155 9.49550773 28 8 C33.61780838 7.54695094 37.18132794 7.78755196 42 11 C46.97265289 16.19868257 49.29675181 20.41438031 49.1875 27.625 C49.17783203 29.03652344 49.17783203 29.03652344 49.16796875 30.4765625 C49 33 49 33 48 36 C48.68449219 35.6803125 49.36898437 35.360625 50.07421875 35.03125 C56.12004439 32.90027808 63.65006937 32.53250773 69.5859375 35.1328125 C73.6848366 38.04318323 76.44568245 41.14275765 78 46 C78.94268744 53.07015584 76.76627008 58.02701393 73 64 C71.33203125 65.79296875 71.33203125 65.79296875 70 67 C70.71285156 67.23074219 71.42570313 67.46148437 72.16015625 67.69921875 C79.33281901 70.14159248 85.4250967 72.34529855 89.9375 78.75 C91.81862786 84.50403816 91.74243366 89.0089279 89.625 94.6875 C86.21434499 99.96970577 79.81267267 103.06244244 74 105 C74.45890625 105.4125 74.9178125 105.825 75.390625 106.25 C81.28755087 111.80004788 85.1143315 116.82690687 85.5 125.125 C85.28620841 129.7642774 84.22119783 132.52449708 81 136 C76.43512882 138.785233 73.06422287 139.36306857 67.75 139.25 C66.52796875 139.23453125 65.3059375 139.2190625 64.046875 139.203125 C61 139 61 139 59 138 C59.2165625 138.54527344 59.433125 139.09054687 59.65625 139.65234375 C62.15744713 146.4264193 63.28092795 152.29954147 60.875 159.25 C57.81306275 163.74084129 55.65831852 166.49635846 50.2578125 167.51953125 C42.54711259 167.94136343 37.78961815 166.01074576 32 161 C31.34 160.34 30.68 159.68 30 159 C29.76925781 159.79664063 29.53851563 160.59328125 29.30078125 161.4140625 C25.30958063 174.38152063 25.30958063 174.38152063 19.1484375 178.125 C15.18881933 179.73764449 11.19196425 179.5190051 7 179 C0.46986923 175.98609349 -3.78953679 170.08117908 -6.375 163.5 C-6.58125 162.675 -6.7875 161.85 -7 161 C-7.45890625 161.39832031 -7.9178125 161.79664063 -8.390625 162.20703125 C-19.04223083 171.40411108 -19.04223083 171.40411108 -27.71875 171.27734375 C-31.32704118 170.83866451 -33.31002401 169.37718808 -36 167 C-40.12188681 161.54128504 -41.12906274 157.56173731 -41.5625 150.8125 C-41.64628906 149.54019531 -41.73007812 148.26789063 -41.81640625 146.95703125 C-41.87699219 145.98121094 -41.93757813 145.00539063 -42 144 C-42.51949219 144.15726563 -43.03898437 144.31453125 -43.57421875 144.4765625 C-49.48767978 145.75257502 -56.65561696 146.28035786 -62.3671875 144.09375 C-66.25848361 141.4884187 -68.55803814 138.49552815 -70 134 C-71.1559988 125.40225889 -68.83910765 119.78547686 -63.75 113 C-62.88375 112.01 -62.88375 112.01 -62 111 C-62.556875 110.99742187 -63.11375 110.99484375 -63.6875 110.9921875 C-71.69486776 110.58640873 -76.16165631 107.12945586 -81.4375 101.3125 C-84.23826531 97.16736734 -84.87354908 92.88313934 -84 88 C-80.60758234 80.56170719 -74.11107025 77.34043158 -67 74 C-67.45890625 73.5875 -67.9178125 73.175 -68.390625 72.75 C-74.04279833 67.43030745 -78.0846521 62.36039824 -78.5 54.375 C-78.28790223 49.98154619 -76.88787685 47.36918966 -74 44 C-69.29743932 39.73830438 -64.93371639 39.88024337 -58.75 39.9375 C-56.85507812 39.95103516 -56.85507812 39.95103516 -54.921875 39.96484375 C-53.95765625 39.97644531 -52.9934375 39.98804688 -52 40 C-52.32226562 39.1440625 -52.64453125 38.288125 -52.9765625 37.40625 C-54.96304896 30.79473782 -55.24717187 23.67910993 -52.3125 17.375 C-48.58889035 13.55075225 -45.98843077 11.84354387 -40.625 11.625 C-32.59048617 11.94372452 -27.05203019 16.14265629 -21 21 C-20.96132813 20.02160156 -20.96132813 20.02160156 -20.921875 19.0234375 C-20.43239846 11.48104898 -18.5037433 7.74219504 -13.375 2.125 C-8.81705682 -0.74481607 -5.25346112 -0.91699892 0 0 Z M-9 7 C-14.664429 13.19546922 -15.48064888 18.618339 -15.40234375 26.796875 C-14.87687912 34.71926481 -12.25901379 42.43230379 -10 50 C-10.99 50 -11.98 50 -13 50 C-13.495 48.1746875 -13.495 48.1746875 -14 46.3125 C-17.10346832 36.9426985 -23.60042015 25.01190235 -32.4375 20.1875 C-33.17871094 19.76855469 -33.91992188 19.34960938 -34.68359375 18.91796875 C-37.28057513 17.88881087 -39.23141658 17.82909979 -42 18 C-41.731875 18.515625 -41.46375 19.03125 -41.1875 19.5625 C-39.67650593 22.66401415 -38.34427274 25.82262806 -37 29 C-40.98175544 26.89851796 -43.35039045 24.63094642 -46 21 C-48.74635686 25.11953529 -48.69183669 28.16466312 -48 33 C-45.04678101 42.47229282 -37.30708185 50.93839991 -30.2265625 57.69140625 C-29 59 -29 59 -28 62 C-32.17489414 59.73103579 -36.02911759 57.29427394 -39.875 54.5 C-48.57801722 48.41443157 -56.09704044 45.26366067 -67 47 C-67.66 47.99 -68.32 48.98 -69 50 C-68.50628906 50.33773437 -68.01257813 50.67546875 -67.50390625 51.0234375 C-66.54291016 51.69246094 -66.54291016 51.69246094 -65.5625 52.375 C-64.92441406 52.81585938 -64.28632813 53.25671875 -63.62890625 53.7109375 C-62 55 -62 55 -61 57 C-66.445 55.515 -66.445 55.515 -72 54 C-70.64733458 60.76332711 -67.58320865 65.16784636 -62.3125 69.484375 C-54.70790446 74.46846802 -45.91190501 77.46346465 -37 79 C-37 79.99 -37 80.98 -37 82 C-37.54495117 81.83991455 -38.08990234 81.6798291 -38.65136719 81.51489258 C-43.42909225 80.46746824 -48.3783588 80.72944869 -53.25 80.6875 C-54.35730469 80.65849609 -55.46460938 80.62949219 -56.60546875 80.59960938 C-63.57809656 80.54571867 -68.08029022 81.24112325 -74 85 C-76.5199359 87.60020423 -76.5199359 87.60020423 -77 91 C-73.37 91.33 -69.74 91.66 -66 92 C-66.495 92.99 -66.495 92.99 -67 94 C-69.28515625 94.6328125 -69.28515625 94.6328125 -72.0625 95.125 C-72.98160156 95.29257812 -73.90070313 95.46015625 -74.84765625 95.6328125 C-75.55792969 95.75398438 -76.26820313 95.87515625 -77 96 C-73.65705432 100.55856229 -70.7094941 103.73823335 -65 105 C-55.00844434 106.08505582 -44.48793998 104.16264666 -35 101 C-36 104 -36 104 -37.74658203 105.1315918 C-38.49278809 105.48390869 -39.23899414 105.83622559 -40.0078125 106.19921875 C-40.83023438 106.60462891 -41.65265625 107.01003906 -42.5 107.42773438 C-44.22334455 108.25478589 -45.9498336 109.07532314 -47.6796875 109.88867188 C-54.91933036 113.4803891 -60.84568376 118.34528795 -64 126 C-64.0777346 128.33203812 -64.08967728 130.66839059 -64 133 C-63.2265625 132.5978125 -63.2265625 132.5978125 -62.4375 132.1875 C-59.33598585 130.67650593 -56.17737194 129.34427274 -53 128 C-54.96318174 131.53372712 -57.04070881 134.24479785 -60 137 C-57.66055271 139.33944729 -57.12400261 139.31880066 -53.9375 139.375 C-44.01668389 139.08973692 -37.24078102 133.2165916 -30 127 C-29.278125 126.38898438 -28.55625 125.77796875 -27.8125 125.1484375 C-26.19942711 123.77602468 -24.59818272 122.38972411 -23 121 C-24.05645143 126.02793897 -26.945575 129.97680066 -29.67382812 134.24804688 C-33.92005482 141.08495674 -36.0093277 147.92537842 -35 156 C-33.65253476 159.45346148 -33.65253476 159.45346148 -32 162 C-29.58304249 160.79152125 -29.23516187 159.85452732 -28 157.5 C-26.22222222 154.11111111 -26.22222222 154.11111111 -24 153 C-24.99 156.96 -25.98 160.92 -27 165 C-19.76949708 163.79491618 -16.07368781 161.22263821 -11.77734375 155.3203125 C-8.23283247 148.86270086 -4 138.38038512 -4 131 C-3.34 131 -2.68 131 -2 131 C-2.01571045 131.67466309 -2.0314209 132.34932617 -2.04760742 133.04443359 C-2.11066079 136.15453424 -2.14921131 139.26449972 -2.1875 142.375 C-2.21263672 143.43589844 -2.23777344 144.49679687 -2.26367188 145.58984375 C-2.35392715 155.3975839 -1.12974227 163.39107342 5.59765625 170.8203125 C6.94965632 172.21458061 6.94965632 172.21458061 9 172 C9.33 169.03 9.66 166.06 10 163 C10.66 163 11.32 163 12 163 C12.99 167.455 12.99 167.455 14 172 C18.51174605 169.74412698 19.67722005 168.39596293 22 164 C22.39623578 161.18264706 22.57234858 158.86158627 22.5 156.0625 C22.49154053 155.32829834 22.48308105 154.59409668 22.47436523 153.83764648 C22.22001567 145.80278691 20.61564441 137.23128881 17 130 C20 131 20 131 21.9453125 134.46484375 C22.67623685 135.95359557 23.4025343 137.44462502 24.125 138.9375 C28.87731007 148.31656892 33.92839699 156.7065278 44 161 C47.25100364 161.25196823 47.25100364 161.25196823 50 161 C49.5978125 160.2265625 49.5978125 160.2265625 49.1875 159.4375 C47.67650593 156.33598585 46.34427274 153.17737194 45 150 C48.98175544 152.10148204 51.35039045 154.36905358 54 158 C56.19492212 153.61015576 55.69068306 147.52939337 54.421875 142.8828125 C50.8789994 135.12069415 44.50076538 128.32794072 38.4375 122.4375 C37.633125 121.633125 36.82875 120.82875 36 120 C36 119.34 36 118.68 36 118 C39.15058372 119.44693474 41.9863252 121.26087705 44.87255859 123.17407227 C56.91085192 131.42158681 56.91085192 131.42158681 71 133 C74.40241824 131.6351132 74.40241824 131.6351132 77 130 C76.443125 129.608125 75.88625 129.21625 75.3125 128.8125 C72.6564795 126.7307542 70.35135049 124.41666578 68 122 C71.63 122.99 75.26 123.98 79 125 C78.59450771 119.45827198 76.81289522 115.91954963 73 112 C66.10074654 106.47784304 53.05788442 100 44 100 C44 99.01 44 98.02 44 97 C45.485 97.495 45.485 97.495 47 98 C58.07585603 99.56296923 70.15168334 101.21887237 80 95 C82.54906626 93.12567495 82.54906626 93.12567495 84 91 C84 90.01 84 89.02 84 88 C81.03 87.67 78.06 87.34 75 87 C75 86.34 75 85.68 75 85 C79.455 84.01 79.455 84.01 84 83 C82.45624937 79.2949985 80.61865872 77.47599685 77.125 75.6875 C65.57672428 71.13874188 53.44630804 74.92937365 42 78 C43 75 43 75 46.31640625 73.16796875 C47.7286238 72.50110687 49.14419843 71.84132248 50.5625 71.1875 C62.68344489 65.50273431 62.68344489 65.50273431 70.390625 54.96875 C71.23122766 52.25295678 71.28136322 49.81363222 71 47 C70.46375 47.28875 69.9275 47.5775 69.375 47.875 C66.64719516 49.16711808 63.87387282 50.08558592 61 51 C62.96318174 47.46627288 65.04070881 44.75520215 68 42 C64.23911082 39.49274054 60.34959818 39.29506512 56 40 C46.95937464 43.04308631 40.29096934 49.48441313 33.8359375 56.27734375 C32 58 32 58 30 58 C31.56114306 53.71498755 33.70369249 49.86035866 36 45.9375 C37.34228316 43.62984291 38.67425407 41.3172934 40 39 C40.40734375 38.34257812 40.8146875 37.68515625 41.234375 37.0078125 C42.39047624 33.97599599 42.26357609 31.16521638 42.25 27.9375 C42.25515625 26.70902344 42.2603125 25.48054688 42.265625 24.21484375 C42.24874264 20.84845333 42.24874264 20.84845333 40 18 C39.34 18 38.68 18 38 18 C37.38125 19.134375 36.7625 20.26875 36.125 21.4375 C34.25 24.875 34.25 24.875 32 26 C32.66 22.37 33.32 18.74 34 15 C29.26395735 15.28416256 25.94911122 16.00129511 22.40625 19.30859375 C16.25879733 26.70261321 12 38.47314735 12 48 C11.01 48 10.02 48 9 48 C9.02618408 47.23445801 9.05236816 46.46891602 9.0793457 45.68017578 C9.18422722 42.16199839 9.24861499 38.64415118 9.3125 35.125 C9.35439453 33.92101562 9.39628906 32.71703125 9.43945312 31.4765625 C9.56626756 22.14302006 7.77296723 15.66072422 1.875 8.375 C-0.0156801 6.70431817 -0.0156801 6.70431817 -3 7 C-3 10.63 -3 14.26 -3 18 C-3.66 18 -4.32 18 -5 18 C-5.99 12.555 -5.99 12.555 -7 7 C-7.66 7 -8.32 7 -9 7 Z " fill="#FFDB18" transform="translate(334,322)"/>
<path d="M0 0 C0 0.66 0 1.32 0 2 C-1.15113281 2.51046875 -2.30226563 3.0209375 -3.48828125 3.546875 C-25.82291163 13.66259147 -45.31364808 27.03909781 -63 44 C-63.53125488 44.50402344 -64.06250977 45.00804687 -64.60986328 45.52734375 C-72.90790795 53.43352946 -80.13636208 61.82555813 -87 71 C-91.38777667 69.60177071 -95.57670042 67.92766664 -99.8125 66.125 C-107.9899184 62.75138895 -116.34579648 60.74515997 -125 59 C-126.37865234 58.71769531 -126.37865234 58.71769531 -127.78515625 58.4296875 C-132.63340245 57.78168376 -137.49024223 57.62973885 -142.375 57.4375 C-143.39722656 57.39431641 -144.41945312 57.35113281 -145.47265625 57.30664062 C-147.98165288 57.20112208 -150.49073943 57.09900787 -153 57 C-142.85047236 29.80509339 -116.19169527 11.68546814 -91 0 C-90.16597656 -0.40992187 -89.33195312 -0.81984375 -88.47265625 -1.2421875 C-61.66365691 -13.39811339 -26.66089566 -10.53938532 0 0 Z " fill="#50B441" transform="translate(373,115)"/>
<path d="M0 0 C-2.09515336 2.2657975 -4.07860123 3.73743625 -6.80859375 5.1640625 C-7.54956299 5.55907959 -8.29053223 5.95409668 -9.05395508 6.36108398 C-9.8405249 6.77817627 -10.62709473 7.19526855 -11.4375 7.625 C-19.20065281 11.8488528 -26.14811171 16.38797721 -33 22 C-33.53995605 22.43989258 -34.07991211 22.87978516 -34.63623047 23.33300781 C-47.07041213 33.49920557 -47.07041213 33.49920557 -57.29711914 45.78271484 C-62.96406334 53.87309145 -69.10740553 57.08715339 -77.98486328 61.04638672 C-93.69851021 68.48247891 -107.68726204 81.06943849 -118.12109375 94.7890625 C-118.74113281 95.51867187 -119.36117187 96.24828125 -120 97 C-120.66 97 -121.32 97 -122 97 C-123.65625 95.13671875 -123.65625 95.13671875 -125.5 92.6875 C-126.41265625 91.48673828 -126.41265625 91.48673828 -127.34375 90.26171875 C-130.58259504 85.83886196 -131.23296437 84.25548061 -130.4375 78.8125 C-125.80059971 50.58536947 -111.30671094 28.12515119 -88.6875 10.8125 C-62.39086181 -7.58401981 -30.03252769 -10.27691147 0 0 Z " fill="#2F7724" transform="translate(348,61)"/>
<path d="M0 0 C2.37582013 0.38529384 3.69895496 0.70075547 5.42871094 2.42016602 C5.85958008 3.02530029 6.29044922 3.63043457 6.734375 4.25390625 C7.22212402 4.93533691 7.70987305 5.61676758 8.21240234 6.31884766 C8.97351318 7.42945557 8.97351318 7.42945557 9.75 8.5625 C10.27932129 9.3261084 10.80864258 10.0897168 11.35400391 10.87646484 C16.35040327 18.24429411 20.38380979 25.87899946 24 34 C24.28069336 34.61552734 24.56138672 35.23105469 24.85058594 35.86523438 C29.31464581 45.76082999 35.75525286 60.9224042 34 72 C32.3125 73.9921875 32.3125 73.9921875 30 75.875 C28.7625 76.91527344 28.7625 76.91527344 27.5 77.9765625 C25.98256743 79.20473449 24.46246011 80.42962468 22.9375 81.6484375 C13.94931893 89.07818395 7.68515618 98.92278199 2 109 C-0.58981227 106.64142097 -2.21712361 104.12914671 -4 101.125 C-10.71073684 90.4891152 -18.07844196 81.9012067 -28.76171875 75.1953125 C-31 73 -31 73 -31.43359375 69.73828125 C-30.97397668 65.77563677 -30.31692903 61.9341718 -29.375 58.0625 C-29.19678711 57.32596191 -29.01857422 56.58942383 -28.83496094 55.83056641 C-23.94029507 36.42996608 -14.95955921 19.91067468 -3 4 C-2.40832031 3.20980469 -1.81664062 2.41960937 -1.20703125 1.60546875 C-0.80871094 1.07566406 -0.41039062 0.54585938 0 0 Z " fill="#14470C" transform="translate(226,0)"/>
<path d="M0 0 C-1.33553951 2.67107903 -2.67016229 2.90483661 -5.375 4.125 C-11.45679454 7.07453984 -16.66843831 10.87340426 -22 15 C-22.62648438 15.45890625 -23.25296875 15.9178125 -23.8984375 16.390625 C-39.01209744 28.16934589 -49.2094796 49.38696018 -51.54296875 68.08203125 C-53.14151707 83.36125247 -52.95241938 98.38471674 -48 113 C-47.42185547 114.72089844 -47.42185547 114.72089844 -46.83203125 116.4765625 C-37.67779526 141.77661924 -19.80750214 161.68360161 4.4375 173.3125 C14.82017492 178.10181861 25.49105364 181.59499309 37 182 C38.10601562 182.0515625 39.21203125 182.103125 40.3515625 182.15625 C50.66907349 182.41690291 62.15671773 181.84024807 71.8046875 177.8359375 C74 177 74 177 77 178 C54.62613708 189.14976558 28.72691609 193.60341703 4.33203125 186.19921875 C-8.62452119 181.53607502 -20.44148863 175.95098715 -31 167 C-31.84820312 166.28585937 -32.69640625 165.57171875 -33.5703125 164.8359375 C-51.83615245 148.96919295 -63.31139509 123.88722051 -66 100 C-67.62265242 72.87806748 -60.21699873 47.27140212 -42.27197266 26.55322266 C-32.85885317 16.11029181 -21.53694904 9.1298596 -9 3 C-9.495 2.01 -9.495 2.01 -10 1 C-6.59437148 0.22157062 -3.49234244 -0.09978121 0 0 Z " fill="#FE9823" transform="translate(299,323)"/>
<path d="M0 0 C10.5788795 2.34898443 20.38107247 20.66670485 26.1328125 29.54296875 C27.59842908 31.85977657 29.03008112 34.19508949 30.4453125 36.54296875 C30.80882812 37.14270508 31.17234375 37.74244141 31.546875 38.36035156 C32.59801329 40.11760524 33.62049729 41.88811843 34.6328125 43.66796875 C35.22449219 44.70179688 35.81617188 45.735625 36.42578125 46.80078125 C37.4453125 49.54296875 37.4453125 49.54296875 36.94140625 51.45703125 C36.20083984 52.48957031 36.20083984 52.48957031 35.4453125 53.54296875 C34.89411743 54.34468506 34.89411743 54.34468506 34.33178711 55.16259766 C33.01942623 57.05831418 31.67438463 58.92685254 30.3203125 60.79296875 C29.61841797 61.7675 29.61841797 61.7675 28.90234375 62.76171875 C27.75256968 64.35732358 26.59928684 65.950399 25.4453125 67.54296875 C24.71054688 66.79273438 23.97578125 66.0425 23.21875 65.26953125 C16.46535117 58.63027437 9.41309315 52.68123652 -0.3671875 51.98046875 C-10.01397024 52.33126085 -16.6195084 59.16110277 -22.9375 65.78515625 C-23.47117188 66.36523438 -24.00484375 66.9453125 -24.5546875 67.54296875 C-28.07274151 64.3547323 -31.0576405 60.83849735 -33.9921875 57.10546875 C-34.71277344 56.19925781 -35.43335938 55.29304688 -36.17578125 54.359375 C-37.5546875 51.54296875 -37.5546875 51.54296875 -37.05078125 48.6875 C-35.25093509 44.90453353 -33.31539482 41.27127327 -31.1796875 37.66796875 C-30.52311157 36.55965698 -30.52311157 36.55965698 -29.85327148 35.42895508 C-9.67334018 2.05595456 -9.67334018 2.05595456 0 0 Z " fill="#FFC125" transform="translate(227.5546875,212.45703125)"/>
<path d="M0 0 C13.06498378 11.01782963 23.1021221 28.03341774 31 43 C31.41894531 43.66257812 31.83789062 44.32515625 32.26953125 45.0078125 C33.37869372 48.03280105 32.94129638 49.9527524 32 53 C29.890625 55.046875 29.890625 55.046875 27.25 56.75 C26.38890625 57.32234375 25.5278125 57.8946875 24.640625 58.484375 C22.14411226 59.91728468 19.69863827 61.00985215 17 62 C16.5153125 61.54109375 16.030625 61.0821875 15.53125 60.609375 C9.85280094 55.41141009 4.49849907 50.96105549 -3.4375 50.4375 C-12.6247092 50.9260137 -19.82343448 57.75449959 -26 64 C-26.495 64.99 -26.495 64.99 -27 66 C-31.34575674 64.48843244 -33.26769413 61.17555357 -35.6875 57.5 C-36.09033203 56.90574219 -36.49316406 56.31148438 -36.90820312 55.69921875 C-38.38242225 53.51134916 -39.81889721 51.36220559 -41 49 C-39.81551899 46.33263401 -38.57046409 43.81317537 -37.1875 41.25 C-36.77951172 40.48864746 -36.37152344 39.72729492 -35.95117188 38.94287109 C-29.59048962 27.33728836 -21.52485252 17.08964381 -13 7 C-12.39800781 6.27425781 -11.79601562 5.54851562 -11.17578125 4.80078125 C-5.65594232 -1.78827588 -5.65594232 -1.78827588 0 0 Z " fill="#FEC125" transform="translate(231,283)"/>
<path d="M0 0 C7.01897278 4.32328033 13.02920057 9.33140361 19 15 C19.86109375 15.80824219 20.7221875 16.61648437 21.609375 17.44921875 C30.6829112 26.20655596 36.82261991 36.07223339 43 47 C39.24040592 51.40147599 35.45189879 55.77268436 31.61328125 60.10546875 C29.94320198 62.00913491 29.94320198 62.00913491 28.41796875 64.23828125 C27.95003906 64.81964844 27.48210937 65.40101563 27 66 C26.34 66 25.68 66 25 66 C24.2265625 64.948125 24.2265625 64.948125 23.4375 63.875 C18.8053221 58.41140555 12.01796829 53.86990326 4.859375 52.62890625 C-0.81167402 52.45037323 -4.30130341 53.83955058 -9.0546875 56.90625 C-11 58 -11 58 -14 58 C-15.22680664 56.51879883 -15.22680664 56.51879883 -16.41015625 54.45703125 C-16.84263672 53.71259766 -17.27511719 52.96816406 -17.72070312 52.20117188 C-18.16349609 51.41291016 -18.60628906 50.62464844 -19.0625 49.8125 C-19.50916016 49.04357422 -19.95582031 48.27464844 -20.41601562 47.48242188 C-21.27266668 45.99064537 -22.10986522 44.48749085 -22.92504883 42.97265625 C-24.03449476 40.87441921 -24.03449476 40.87441921 -25.640625 38.48828125 C-26.28470415 34.02873325 -23.19829281 30.88017343 -20.6875 27.375 C-20.13441162 26.57682861 -19.58132324 25.77865723 -19.01147461 24.95629883 C-13.91549767 17.68421393 -8.63828642 10.52475124 -2.24609375 4.33203125 C0.23123708 2.29954784 0.23123708 2.29954784 0 0 Z " fill="#FFC125" transform="translate(291,189)"/>
<path d="M0 0 C8.86227764 2.8860259 15.20397782 14.51258942 20.54296875 21.828125 C20.95208496 22.38177734 21.36120117 22.93542969 21.78271484 23.50585938 C22.95073946 25.09969191 24.09117584 26.71362963 25.23046875 28.328125 C25.89433594 29.2665625 26.55820313 30.205 27.2421875 31.171875 C28.54296875 33.828125 28.54296875 33.828125 28.52734375 36.23046875 C27.18751409 39.76613035 25.21405125 42.77889839 23.10546875 45.890625 C19.5282362 51.18676333 19.5282362 51.18676333 16.54296875 56.828125 C13.89022716 55.84282098 11.61958457 54.88092243 9.28125 53.26953125 C5.93303917 51.50706364 3.679632 51.49164998 -0.08203125 51.578125 C-1.77199219 51.60132813 -1.77199219 51.60132813 -3.49609375 51.625 C-6.51357603 51.70777454 -6.51357603 51.70777454 -9.45703125 52.828125 C-9.50678115 47.29631839 -9.54291543 41.76464448 -9.56689453 36.23266602 C-9.57689998 34.35406218 -9.59050858 32.47547371 -9.60791016 30.59692383 C-9.63240005 27.88358752 -9.64356915 25.17045862 -9.65234375 22.45703125 C-9.66266632 21.62853165 -9.67298889 20.80003204 -9.68362427 19.94642639 C-9.6846836 14.33530083 -8.88947775 9.25088565 -7.45703125 3.828125 C-6.79703125 3.828125 -6.13703125 3.828125 -5.45703125 3.828125 C-5.45703125 3.168125 -5.45703125 2.508125 -5.45703125 1.828125 C-2.45703125 -0.171875 -2.45703125 -0.171875 0 0 Z " fill="#FEC125" transform="translate(161.45703125,260.171875)"/>
<path d="M0 0 C6.7541396 3.71477678 11.51823445 10.68825244 16.0625 16.75 C16.62533691 17.49733398 17.18817383 18.24466797 17.76806641 19.01464844 C19.35289646 21.12928952 20.92716386 23.25143315 22.5 25.375 C23.22832031 26.34179688 23.95664063 27.30859375 24.70703125 28.3046875 C25.25746094 29.07039063 25.80789062 29.83609375 26.375 30.625 C26.82617188 31.24890625 27.27734375 31.8728125 27.7421875 32.515625 C28.85784252 35.25300536 28.43271021 36.56486022 27.5 39.375 C26.15082823 42.00033641 24.6245465 44.49681437 23.0625 47 C22.65451172 47.66773438 22.24652344 48.33546875 21.82617188 49.0234375 C20.09749062 51.84347217 18.33519741 54.62220388 16.5 57.375 C14.49276958 56.37812046 12.49739611 55.37358719 10.52734375 54.3046875 C5.08084219 51.55598578 0.76564762 51.019682 -5.3125 51.33203125 C-6.034375 51.34621094 -6.75625 51.36039062 -7.5 51.375 C-11.72432843 47.15067157 -9.88613581 33.835184 -9.95996094 27.85058594 C-9.9866584 26.19990161 -10.02768328 24.549387 -10.08300781 22.89941406 C-10.53512431 9.21063387 -10.53512431 9.21063387 -7.99414062 4.70458984 C-5.44430693 2.07016136 -3.65914691 0.54887204 0 0 Z " fill="#FEC125" transform="translate(161.5,328.625)"/>
<path d="M0 0 C-2.59546141 3.01291325 -5.60382675 4.46860266 -9.125 6.25 C-14.95418087 9.3234502 -19.98031298 12.75616777 -25 17 C-25.96292969 17.76441406 -26.92585938 18.52882813 -27.91796875 19.31640625 C-43.79648583 32.59798126 -53.76445134 55.3363708 -56.73046875 75.4609375 C-57.35184228 83.61984217 -57.14935999 91.82426416 -57 100 C-57.77214844 99.505 -58.54429687 99.01 -59.33984375 98.5 C-61.86302957 96.79022867 -61.86302957 96.79022867 -64.5625 97 C-67.74424173 98.30532994 -68.9766516 100.27894526 -71 103 C-71.66 103 -72.32 103 -73 103 C-74.04602756 73.17614489 -68.22996831 48.88606127 -48 26 C-47.17242187 25.04673828 -47.17242187 25.04673828 -46.328125 24.07421875 C-36.46410725 13.45330855 -15.20195405 -1.47115684 0 0 Z " fill="#D9941F" transform="translate(291,325)"/>
<path d="M0 0 C2.69399185 -0.23313391 4.80530628 -0.23861849 7.4375 0.4140625 C10.24258778 2.99401309 11.74889417 6.0318697 13.4375 9.4140625 C13.94667969 10.29964844 14.45585937 11.18523437 14.98046875 12.09765625 C17.71119026 17.02466851 17.71119026 17.02466851 18.4375 19.4140625 C17.19325259 23.38735922 14.19875702 26.77110331 11.8125 30.1640625 C11.39226562 30.76605469 10.97203125 31.36804688 10.5390625 31.98828125 C9.50756863 33.46519293 8.47285421 34.93985444 7.4375 36.4140625 C4.36738243 35.06214522 2.48208764 33.5871712 0.25 31.1015625 C-3.53106373 27.18136872 -7.70999078 24.80572692 -12.5625 22.4140625 C-13.2225 22.0840625 -13.8825 21.7540625 -14.5625 21.4140625 C-21.77369383 20.3468668 -26.73854003 22.2312184 -32.5625 26.4140625 C-36.78999638 29.86316272 -40.70630838 33.55787088 -44.5625 37.4140625 C-47.2025 33.7840625 -49.8425 30.1540625 -52.5625 26.4140625 C-50.33670268 21.96246785 -47.90130747 20.21620575 -43.875 17.6015625 C-43.20944092 17.16505371 -42.54388184 16.72854492 -41.8581543 16.27880859 C-29.00040962 8.04755462 -15.07885582 2.43652243 0 0 Z " fill="#FEC125" transform="translate(246.5625,173.5859375)"/>
<path d="M0 0 C3.44480362 0.82019134 5.0925331 2.4898845 7.5859375 4.921875 C8.625 6.625 8.625 6.625 8.5234375 8.42578125 C7.27325 11.48602282 5.58130164 14.24264887 3.875 17.0625 C-1.10997303 25.60212083 -4.94825388 34.01533938 -6.32421875 43.87792969 C-7.76382611 54.03464007 -7.76382611 54.03464007 -12.6875 57.75 C-14.24585465 58.71505949 -15.80819313 59.6737244 -17.375 60.625 C-19.48940632 62.53742035 -21.40857208 64.55772963 -23.375 66.625 C-27.38370131 65.28876623 -28.73840635 62.67206089 -31 59.3125 C-31.40734375 58.73048828 -31.8146875 58.14847656 -32.234375 57.54882812 C-34.23358402 54.62614341 -35.88327689 52.15206144 -36.375 48.625 C-35.21360715 45.86034761 -34.0048473 43.36218006 -32.5625 40.75 C-32.15306152 39.9962207 -31.74362305 39.24244141 -31.32177734 38.46582031 C-11.67052372 3.07119045 -11.67052372 3.07119045 0 0 Z " fill="#FEC125" transform="translate(227.375,351.375)"/>
<path d="M0 0 C1.91135742 0.0009668 1.91135742 0.0009668 3.86132812 0.00195312 C9.39388673 0.02803643 14.61275661 0.15968178 20.0625 1.1875 C17.0015096 2.8792886 14.16066518 3.70158884 10.75 4.4375 C-9.94275449 9.45927822 -27.07477151 20.37806936 -42.40625 34.8671875 C-44.9375 37.1875 -44.9375 37.1875 -47.9375 39.1875 C-48.67355469 38.23488281 -49.40960938 37.28226563 -50.16796875 36.30078125 C-51.15346555 35.03371393 -52.13915278 33.7667947 -53.125 32.5 C-53.84913086 31.56124023 -53.84913086 31.56124023 -54.58789062 30.60351562 C-56.89584904 27.64499175 -59.09510534 25.04167824 -61.86328125 22.48046875 C-63.9375 20.1875 -63.9375 20.1875 -64.109375 18.08203125 C-59.7749648 11.07473475 -45.80535252 7.91148997 -38.375 5.375 C-37.53807617 5.08520264 -36.70115234 4.79540527 -35.83886719 4.49682617 C-24.0233559 0.62634558 -12.36566949 -0.12142001 0 0 Z " fill="#D8821F" transform="translate(227.9375,171.8125)"/>
<path d="M0 0 C5.21607805 2.29071108 8.82595013 5.61787729 11.9921875 10.33984375 C13.58621141 15.12191549 13.95496463 19.77543737 12.15625 24.56640625 C9.2456376 29.7820674 5.69898766 32.59397754 -0.0078125 34.33984375 C-4.93663168 35.03160785 -8.13550372 34.29740796 -12.37109375 31.61328125 C-16.67101934 28.26775442 -20.40389808 23.7217645 -21.37890625 18.26171875 C-21.56721758 12.10283058 -20.14699297 7.958627 -16.0078125 3.33984375 C-11.18372687 -0.72797193 -6.07433375 -1.99720312 0 0 Z " fill="#FFC329" transform="translate(342.0078125,394.66015625)"/>
<path d="M0 0 C1 2 1 2 0.5625 4.06298828 C-0.20391929 8.06473482 -0.05658476 11.92951064 0 15.9921875 C0.00115822 17.76692718 -0.00022285 19.54167001 -0.00390625 21.31640625 C-0.00832503 24.09778256 0.00001456 26.87578983 0.05126953 29.65673828 C0.31119931 45.08562247 0.31119931 45.08562247 -2.9296875 49.81738281 C-6.78145674 52.95404899 -8.97791218 54 -14 54 C-16.25390625 51.734375 -16.25390625 51.734375 -18.5625 48.75 C-19.32691406 47.77546875 -20.09132812 46.8009375 -20.87890625 45.796875 C-21.57886719 44.87390625 -22.27882812 43.9509375 -23 43 C-23.62777344 42.34515625 -24.25554687 41.6903125 -24.90234375 41.015625 C-26 39 -26 39 -25.45703125 36.2109375 C-23.77084019 32.4949883 -21.86007067 29.07484888 -19.6875 25.625 C-19.25961182 24.94107178 -18.83172363 24.25714355 -18.39086914 23.55249023 C-13.09476928 15.30230805 -6.94717124 6.94717124 0 0 Z " fill="#D9A420" transform="translate(153,266)"/>
<path d="M0 0 C0.33 0 0.66 0 1 0 C1.02505615 1.01312256 1.0501123 2.02624512 1.07592773 3.07006836 C1.17084645 6.86656079 1.27085287 10.66290577 1.37231445 14.45922852 C1.41534673 16.09526087 1.45704065 17.73132905 1.49731445 19.36743164 C1.78587886 31.7154633 1.78587886 31.7154633 3 44 C1.40377344 45.03320481 -0.20229106 46.05122429 -1.8125 47.0625 C-2.70582031 47.63097656 -3.59914062 48.19945312 -4.51953125 48.78515625 C-7 50 -7 50 -10 49 C-11.78565303 46.95098486 -13.43383382 44.91681351 -15.0625 42.75 C-15.73249023 41.88955078 -15.73249023 41.88955078 -16.41601562 41.01171875 C-21.34927443 34.53727745 -21.34927443 34.53727745 -22 31 C-20.8692935 28.53978146 -19.79200633 26.67835112 -18.25 24.5 C-17.84185059 23.89559082 -17.43370117 23.29118164 -17.01318359 22.66845703 C-12.61328913 16.24143852 -7.82322198 10.11173616 -3 4 C-2.43023437 3.21882813 -1.86046875 2.43765625 -1.2734375 1.6328125 C-0.85320312 1.09398437 -0.43296875 0.55515625 0 0 Z " fill="#D9A420" transform="translate(151,337)"/>
<path d="M0 0 C1.91135742 0.0009668 1.91135742 0.0009668 3.86132812 0.00195312 C9.39388673 0.02803643 14.61275661 0.15968178 20.0625 1.1875 C17.0015096 2.8792886 14.16066518 3.70158884 10.75 4.4375 C-4.52280129 8.14394812 -18.20811614 15.12447773 -30.72265625 24.55078125 C-32.9375 26.1875 -32.9375 26.1875 -34.9375 27.1875 C-36.5625 25.5625 -36.5625 25.5625 -37.9375 23.1875 C-36.80326091 18.65695176 -34.78672851 14.97255489 -32.375 11 C-29.80686682 6.75576372 -29.80686682 6.75576372 -27.9375 2.1875 C-18.55795225 0.44432828 -9.52860043 -0.09356248 0 0 Z " fill="#D7A520" transform="translate(227.9375,171.8125)"/>
<path d="M0 0 C2.53112161 3.12667964 5.00332876 6.26777677 7.3125 9.5625 C7.84488281 10.30628906 8.37726563 11.05007812 8.92578125 11.81640625 C10.24734357 14.50278203 9.92193282 15.22281565 9 18 C8.09204102 19.76757812 8.09204102 19.76757812 7.00390625 21.53125 C6.61009766 22.17707031 6.21628906 22.82289063 5.81054688 23.48828125 C5.39869141 24.15214844 4.98683594 24.81601563 4.5625 25.5 C1.0600928 31.12686792 1.0600928 31.12686792 -2 37 C-2.53109375 36.72414062 -3.0621875 36.44828125 -3.609375 36.1640625 C-6.44583387 34.78291096 -9.33419657 33.57935359 -12.25 32.375 C-13.32765625 31.92898437 -14.4053125 31.48296875 -15.515625 31.0234375 C-16.33546875 30.68570313 -17.1553125 30.34796875 -18 30 C-14.60632968 18.68776562 -7.66005072 8.84165429 0 0 Z " fill="#FEC125" transform="translate(180,211)"/>
<path d="M0 0 C0.66 0.33 1.32 0.66 2 1 C2.64130531 3.33422975 3.18309333 5.63576674 3.6875 8 C6.08997986 18.45448534 10.04499781 28.48247104 15 38 C8.93959545 36.26845584 3.43600656 33.86908461 -2.1875 31.0625 C-3.20263672 30.55879883 -3.20263672 30.55879883 -4.23828125 30.04492188 C-8.36963093 27.95089463 -12.19672553 25.64395597 -16 23 C-14.7309396 19.50140609 -13.27609752 16.76418237 -10.99609375 13.828125 C-10.42052734 13.08175781 -9.84496094 12.33539063 -9.25195312 11.56640625 C-8.35379883 10.41978516 -8.35379883 10.41978516 -7.4375 9.25 C-6.83486328 8.47011719 -6.23222656 7.69023437 -5.61132812 6.88671875 C-1.2237874 1.2237874 -1.2237874 1.2237874 0 0 Z " fill="#FEC025" transform="translate(217,430)"/>
<path d="M0 0 C5.37443908 4.60666207 8.99921329 8.12254815 13 13.625 C13.50144531 14.27984375 14.00289062 14.9346875 14.51953125 15.609375 C14.98746094 16.24617188 15.45539063 16.88296875 15.9375 17.5390625 C16.56978516 18.39298584 16.56978516 18.39298584 17.21484375 19.26416016 C18 21 18 21 17.76733398 22.9934082 C16.97082191 25.07630121 16.04004339 26.72504784 14.78515625 28.56640625 C14.34623047 29.21673828 13.90730469 29.86707031 13.45507812 30.53710938 C12.99552734 31.20548828 12.53597656 31.87386719 12.0625 32.5625 C11.60681641 33.23474609 11.15113281 33.90699219 10.68164062 34.59960938 C9.83344063 35.85017657 8.98287419 37.09914446 8.12915039 38.34594727 C7.07516677 39.88989084 6.0369546 41.4445681 5 43 C3.35 42.67 1.7 42.34 0 42 C0 28.14 0 14.28 0 0 Z " fill="#D9A41F" transform="translate(110,314)"/>
<path d="M0 0 C3.14906415 1.41602213 5.49523672 3.13735082 8.0625 5.4375 C8.73410156 6.03433594 9.40570313 6.63117188 10.09765625 7.24609375 C11.77118837 8.78904226 13.39043486 10.39043486 15 12 C12.03 16.95 9.06 21.9 6 27 C4.02 26.34 2.04 25.68 0 25 C-1.57745726 24.62051736 -3.16064702 24.26359139 -4.75 23.9375 C-7.06506054 23.46110149 -8.88245245 23.05877378 -11 22 C-10.44033792 16.92306543 -8.01598406 13.08091993 -5.5 8.75 C-5.08363281 8.0178125 -4.66726562 7.285625 -4.23828125 6.53125 C-1.17106331 1.17106331 -1.17106331 1.17106331 0 0 Z " fill="#DA821F" transform="translate(186,441)"/>
<path d="M0 0 C7.25941505 0.89637995 11.09419706 6.38637326 15.48535156 11.84716797 C18.6380027 15.89052726 21.67879389 20.0096793 24.67431641 24.17041016 C25.81734553 25.74791665 26.98996758 27.30390324 28.16796875 28.85546875 C29.01294922 30.00982422 29.01294922 30.00982422 29.875 31.1875 C30.34679687 31.82042969 30.81859375 32.45335937 31.3046875 33.10546875 C32 35 32 35 31.3203125 37.61328125 C30 40 30 40 27 42 C18.3076932 33.83987525 12.09173415 25.09878294 6.1875 14.8125 C5.80207031 14.14726318 5.41664063 13.48202637 5.01953125 12.79663086 C2.66707782 8.60110942 1.14580898 4.67417314 0 0 Z " fill="#FEC025" transform="translate(159,398)"/>
<path d="M0 0 C2.86392794 3.52830761 5.58784278 7.12984917 8.25 10.8125 C8.95640625 11.78832031 9.6628125 12.76414062 10.390625 13.76953125 C10.92171875 14.50558594 11.4528125 15.24164063 12 16 C9.01387306 21.67214061 5.73496963 27.14571088 2.3125 32.5625 C1.92006104 33.19430176 1.52762207 33.82610352 1.12329102 34.47705078 C0.13698945 36.02110387 -0.92550281 37.51596951 -2 39 C-2.66 39 -3.32 39 -4 39 C-4.51656513 25.38276929 -3.34809213 13.21300645 0 0 Z " fill="#D9A41F" transform="translate(114,254)"/>
<path d="M0 0 C6.48010102 11.24156655 5.36666374 26.50627253 5 39 C4.34 39 3.68 39 3 39 C1.47086169 36.69277364 0.06381344 34.39632812 -1.3125 32 C-2.11926597 30.62338969 -2.92655387 29.24708513 -3.734375 27.87109375 C-4.12302734 27.2044873 -4.51167969 26.53788086 -4.91210938 25.85107422 C-6.86899692 22.52137911 -8.93534694 19.26348387 -11 16 C-10.28972656 15.09636719 -9.57945312 14.19273437 -8.84765625 13.26171875 C-7.91905399 12.07048151 -6.99068047 10.87906592 -6.0625 9.6875 C-5.59392578 9.09259766 -5.12535156 8.49769531 -4.64257812 7.88476562 C-2.61444041 5.27299116 -1.05369199 3.16107597 0 0 Z " fill="#FFC025" transform="translate(340,254)"/>
<path d="M0 0 C0.33 7.26 0.66 14.52 1 22 C-0.65 21.01 -2.3 20.02 -4 19 C-6.60648505 18.83789781 -6.60648505 18.83789781 -9 20 C-10.38576923 21.62332967 -11.72641268 23.28724465 -13 25 C-13.66 25 -14.32 25 -15 25 C-15 17.41 -15 9.82 -15 2 C-11 0 -11 0 0 0 Z " fill="#D9811F" transform="translate(233,403)"/>
<path d="M0 0 C4.69460485 3.34707938 7.84678293 7.36234176 11.25 11.9375 C11.79140625 12.64068359 12.3328125 13.34386719 12.890625 14.06835938 C18.075144 20.98321159 18.075144 20.98321159 18 25 C16.78515625 27.45703125 16.78515625 27.45703125 15.0625 29.8125 C14.49660156 30.60269531 13.93070313 31.39289063 13.34765625 32.20703125 C12.90292969 32.79871094 12.45820312 33.39039063 12 34 C4.92861491 25.4343639 -0.35693859 11.12458592 0 0 Z " fill="#D6A21F" transform="translate(112,379)"/>
<path d="M0 0 C2 1.625 2 1.625 3 4 C3 7.5625 3 7.5625 2 11 C-0.80885066 13.56809203 -2.32615149 14 -6.125 14 C-9 13 -9 13 -10.9375 10.8125 C-12.25534582 7.32408458 -12.15210349 5.53311738 -11 2 C-7.74677693 -1.87884289 -4.6246188 -1.26125967 0 0 Z " fill="#FF9A24" transform="translate(232,301)"/>
<path d="M0 0 C3.4375 0.9375 3.4375 0.9375 5.375 2.0625 C7.13047303 5.16039358 6.92473574 7.46594534 6.4375 10.9375 C4.01890437 13.63250656 2.42986035 14.74386871 -1.125 15.4375 C-4.4874123 14.7477744 -5.6111167 13.75616476 -7.5625 10.9375 C-8.12895882 6.97228823 -8.13840314 4.85894502 -6 1.4375 C-3.5625 -0.0625 -3.5625 -0.0625 0 0 Z " fill="#FF9924" transform="translate(160.5625,345.0625)"/>
<path d="M0 0 C3.33794538 1.16102448 4.3364746 1.83747557 5.875 5 C6.40793835 8.65443439 6.3503727 10.30522452 4.25 13.375 C1.16313568 15.48706506 -0.4532913 15.61195145 -4.125 15 C-6.5 13.4375 -6.5 13.4375 -8.125 11 C-8.6875 7.5 -8.6875 7.5 -8.125 4 C-5.45946825 0.86408029 -4.13747529 0 0 0 Z " fill="#FF9924" transform="translate(161.125,277)"/>
<path d="M0 0 C3.4375 1 3.4375 1 5.375 2.6875 C6.79045627 5.76819895 6.99629958 7.64720251 6.4375 11 C4.01654909 13.62846098 2.39135308 14.81388233 -1.125 15.5 C-4.4874123 14.8102744 -5.6111167 13.81866476 -7.5625 11 C-8.12895882 7.03478823 -8.13840314 4.92144502 -6 1.5 C-3.5625 0 -3.5625 0 0 0 Z " fill="#D9821F" transform="translate(160.5625,413)"/>
<path d="M0 0 C4.36689189 1.42398649 4.36689189 1.42398649 5.875 3.9375 C6.37391602 7.85755446 6.42753414 10.05344538 4.3125 13.4375 C1.875 14.9375 1.875 14.9375 -1.6875 14.875 C-5.125 13.9375 -5.125 13.9375 -7.0625 12.8125 C-8.81797303 9.71460642 -8.61223574 7.40905466 -8.125 3.9375 C-5.45043116 0.79094842 -4.15592269 -0.08311845 0 0 Z " fill="#FF9924" transform="translate(296.125,277.0625)"/>
<path d="M0 0 C2.5 1.5625 2.5 1.5625 4 4 C4 7.77684879 3.78395245 10.03513544 1.375 13 C-2.14974145 14.48410166 -4.36810976 14.05654989 -8 13 C-10.36604164 10.33820316 -11.04466185 8.93789883 -10.875 5.375 C-8.78390402 -0.30083195 -5.8868556 -0.72294718 0 0 Z " fill="#FF9924" transform="translate(231,231)"/>
<path d="M0 0 C1.875 0.3125 1.875 0.3125 3.875 1.375 C5.48356522 4.49159511 5.29713381 6.87512469 4.875 10.3125 C3.25 12.75 3.25 12.75 0.875 14.3125 C-2.7967087 14.92445145 -4.41313568 14.79956506 -7.5 12.6875 C-9.6003727 9.61772452 -9.65793835 7.96693439 -9.125 4.3125 C-7.22664871 -0.19608432 -4.46900058 -0.26288239 0 0 Z " fill="#FF9924" transform="translate(297.125,209.6875)"/>
<path d="M0 0 C2.6923481 2.18753283 2.93936827 3.58423955 3.4375 7 C3 10 3 10 1.375 12.375 C-1.71186432 14.48706506 -3.3282913 14.61195145 -7 14 C-9.375 12.4375 -9.375 12.4375 -11 10 C-11.42213381 6.56262469 -11.60856522 4.17909511 -10 1.0625 C-6.75895557 -0.65930485 -3.57577233 -0.66300779 0 0 Z " fill="#D9811F" transform="translate(164,210)"/>
<path d="M0 0 C3.625 0.375 3.625 0.375 6.125 1.9375 C7.625 4.375 7.625 4.375 7.5625 7.9375 C6.22201493 12.85261194 6.22201493 12.85261194 3.625 14.375 C0.4375 14.5625 0.4375 14.5625 -2.375 14.375 C-5.99143836 6.69006849 -5.99143836 6.69006849 -5.375 2.375 C-3.375 0.375 -3.375 0.375 0 0 Z " fill="#D9821F" transform="translate(227.375,439.625)"/>
<path d="M0 0 C1.875 0.3125 1.875 0.3125 4 1 C6.16551116 4.24826674 6.55156953 5.23094157 6 9 C4.4375 11.3125 4.4375 11.3125 2 13 C-1.75 13.25 -1.75 13.25 -5 13 C-4.48474397 7.71862571 -2.74522883 4.42778844 0 0 Z " fill="#D9821F" transform="translate(229,371)"/>
<path d="M0 0 C-1.41807378 4.47238653 -3.11304374 8.71146306 -5 13 C-5.99 12.67 -6.98 12.34 -8 12 C-8.8125 8.8125 -8.8125 8.8125 -9 5 C-6.02600665 1.00635179 -5.06951536 0 0 0 Z " fill="#FE9924" transform="translate(229,370)"/>
<path d="M0 0 C3 1 3 1 4 3 C4.06996014 4.70702735 4.08440154 6.41668003 4.0625 8.125 C4.05347656 9.03507812 4.04445313 9.94515625 4.03515625 10.8828125 C4.02355469 11.58148438 4.01195312 12.28015625 4 13 C3.01 13.33 2.02 13.66 1 14 C-1.18841354 10.71737969 -1.24854665 9.68209102 -1.1875 5.875 C-1.18105469 4.98554688 -1.17460937 4.09609375 -1.16796875 3.1796875 C-1 1 -1 1 0 0 Z " fill="#FFA130" transform="translate(344,484)"/>
<path d="M0 0 C1.62490954 -0.02698189 3.24994633 -0.04638757 4.875 -0.0625 C5.77992188 -0.07410156 6.68484375 -0.08570313 7.6171875 -0.09765625 C10 0 10 0 12 1 C11.67 1.99 11.34 2.98 11 4 C7.10835652 5.29721449 4.10570774 5.13033993 0 5 C-0.66 4.67 -1.32 4.34 -2 4 C-1.34 2.68 -0.68 1.36 0 0 Z " fill="#FF9F2F" transform="translate(256,413)"/>
<path d="M0 0 C3 2 3 2 3.6875 3.6875 C4.74468085 11.5106383 4.74468085 11.5106383 3 15 C2.34 15 1.68 15 1 15 C-0.87592203 11.81908874 -1.24719681 9.48656709 -1.1875 5.8125 C-1.18105469 4.93207031 -1.17460937 4.05164063 -1.16796875 3.14453125 C-1 1 -1 1 0 0 Z " fill="#FF9E2C" transform="translate(328,325)"/>
<path d="M0 0 C-0.40919538 5.93333307 -1.18890008 9.38048494 -5 14 C-5.66 14 -6.32 14 -7 14 C-6.38997821 0 -6.38997821 0 0 0 Z " fill="#FF9E2C" transform="translate(310,475)"/>
<path d="M0 0 C0.99 0.33 1.98 0.66 3 1 C2.67 1.99 2.34 2.98 2 4 C-2.0527516 4.98248524 -5.83861737 5.08159574 -10 5 C-10 3.68 -10 2.36 -10 1 C-6.85658007 -0.57170996 -3.44228549 -0.23175783 0 0 Z " fill="#FF9E2D" transform="translate(419,405)"/>
<path d="M0 0 C0.99 0 1.98 0 3 0 C2.56744475 5.40694067 1.41778487 8.75366122 -2 13 C-2.66 13 -3.32 13 -4 13 C-4.34203764 8.72452947 -4.21269922 6.40339507 -2.1875 2.5625 C-1.465625 1.716875 -0.74375 0.87125 0 0 Z " fill="#FF9D2C" transform="translate(370,335)"/>
<path d="M0 0 C2.43438204 0.39012533 3.71985758 0.71912036 5.484375 2.48828125 C5.90203125 3.09027344 6.3196875 3.69226563 6.75 4.3125 C7.39195312 5.20388672 7.39195312 5.20388672 8.046875 6.11328125 C9 8 9 8 9 12 C6.37417256 11.629691 5.26426684 11.31016581 3.515625 9.2578125 C3.09796875 8.55398438 2.6803125 7.85015625 2.25 7.125 C1.60804688 6.07699219 1.60804688 6.07699219 0.953125 5.0078125 C0 3 0 3 0 0 Z " fill="#FF9C2A" transform="translate(379,472)"/>
<path d="M0 0 C-0.0625 2.25 -0.0625 2.25 -1 5 C-4.0698187 7.47005978 -6.99496016 9 -11 9 C-10.66032174 5.82966958 -10.00130809 5.00117393 -7.5625 2.8125 C-3.5862069 0 -3.5862069 0 0 0 Z " fill="#FF9C2A" transform="translate(406,364)"/>
<path d="M0 0 C2.62582744 0.370309 3.73573316 0.68983419 5.484375 2.7421875 C5.90203125 3.44601562 6.3196875 4.14984375 6.75 4.875 C7.39195312 5.92300781 7.39195312 5.92300781 8.046875 6.9921875 C9 9 9 9 9 12 C6.56561796 11.60987467 5.28014242 11.28087964 3.515625 9.51171875 C2.88914062 8.60873047 2.88914062 8.60873047 2.25 7.6875 C1.82203125 7.09324219 1.3940625 6.49898438 0.953125 5.88671875 C0 4 0 4 0 0 Z " fill="#FF9C2A" transform="translate(288,339)"/>
<path d="M0 0 C-0.32660623 3.0483248 -1.00522194 4.00507689 -3.25 6.1875 C-5.97385456 7.98276778 -7.79451349 8.63365868 -11 9 C-10.74682781 5.58217544 -9.71625376 4.72255923 -7.1875 2.25 C-4 0 -4 0 0 0 Z " fill="#FF9B29" transform="translate(281,450)"/>
<path d="M0 0 C4.72867022 0.46359512 8.18142796 1.0799155 12 4 C12.33 4.99 12.66 5.98 13 7 C7.72611976 7.50227431 5.08984305 6.32894202 1 3 C0.67 2.01 0.34 1.02 0 0 Z " fill="#FF9B29" transform="translate(402,444)"/>
<path d="M0 0 C5.27388024 -0.50227431 7.91015695 0.67105798 12 4 C12.33 4.99 12.66 5.98 13 7 C8.27132978 6.53640488 4.81857204 5.9200845 1 3 C0.67 2.01 0.34 1.02 0 0 Z " fill="#FF9B29" transform="translate(260,372)"/>
<path d="M0 0 C0.66 0.33 1.32 0.66 2 1 C-0.31 4.3 -2.62 7.6 -5 11 C-6.32 9.68 -7.64 8.36 -9 7 C-6.03 4.69 -3.06 2.38 0 0 Z " fill="#DAA420" transform="translate(258,338)"/>
<path d="M0 0 C1.88391785 3.26545761 2.49287967 6.28111761 3 10 C0 8 0 8 -0.75 5.5625 C-1 3 -1 3 0 0 Z " fill="#FA9623" transform="translate(221,443)"/>
<path d="M0 0 C-0.33 0.66 -0.66 1.32 -1 2 C-4.4375 2.75 -4.4375 2.75 -8 3 C-8.66 2.34 -9.32 1.68 -10 1 C-6.59437148 0.22157062 -3.49234244 -0.09978121 0 0 Z " fill="#ED8E21" transform="translate(299,323)"/>
</svg>
